<svg width="18" height="19" viewBox="0 0 18 19" fill="none" xmlns="http://www.w3.org/2000/svg">
<path d="M8.70112 0.565992C8.56049 0.650382 8.4515 0.776967 8.4058 0.896519C8.38119 0.959811 8.36713 1.38528 8.36713 2.0393C8.36713 3.23834 8.38119 3.29812 8.6519 3.47745C8.96832 3.6849 9.4113 3.56535 9.56599 3.23131C9.62576 3.09769 9.63279 2.98869 9.63279 2.0393C9.63279 1.38528 9.61872 0.959811 9.59411 0.896519C9.54841 0.776967 9.40075 0.615219 9.27418 0.54841C9.13707 0.478085 8.82769 0.485118 8.70112 0.565992Z" fill="white"/>
<path d="M2.71748 3.04743C2.46786 3.19863 2.35888 3.54322 2.4749 3.81397C2.54521 3.97572 4.03588 5.44551 4.15893 5.47716C4.31362 5.51232 4.60191 5.47364 4.70387 5.39628C4.92887 5.23102 5.0238 4.9673 4.957 4.71061C4.92184 4.58051 4.80582 4.4469 4.17299 3.80694C3.76165 3.39554 3.37844 3.03688 3.31515 3.00875C3.13585 2.93139 2.88624 2.94546 2.71748 3.04743Z" fill="white"/>
<path d="M14.6773 3.00829C14.621 3.03642 14.2378 3.39508 13.8265 3.80648C13.1936 4.44644 13.0776 4.58005 13.0425 4.71015C12.9722 4.98091 13.0776 5.24814 13.3202 5.40989C13.4503 5.49779 13.7034 5.51889 13.8757 5.4556C14.0058 5.40637 15.4613 3.95768 15.5246 3.81351C15.6441 3.54276 15.5316 3.19465 15.2785 3.04697C15.1062 2.94851 14.8496 2.93093 14.6773 3.00829Z" fill="white"/>
<path d="M8.27893 5.01429C8.14533 5.0389 7.91329 5.09165 7.76915 5.13384C6.15192 5.58744 4.91086 6.92713 4.54523 8.62196C4.45734 9.04039 4.45734 9.96165 4.54523 10.3801C4.93196 12.1769 6.30309 13.5588 8.08556 13.9491C8.45823 14.03 9.21763 14.0581 9.59381 14.0018C11.088 13.7873 12.3361 12.9048 13.0216 11.5756C13.3486 10.9462 13.4927 10.4012 13.5244 9.68035C13.5736 8.56218 13.2431 7.54599 12.5365 6.66693C11.8966 5.86874 10.9403 5.28152 9.91374 5.05297C9.56568 4.97561 8.61292 4.95451 8.27893 5.01429ZM9.53053 6.28365C10.7505 6.49463 11.6927 7.2893 12.0829 8.42857C12.4205 9.41663 12.2798 10.4715 11.6997 11.3471C11.3271 11.9026 10.7294 12.3597 10.0719 12.5848C9.53756 12.7641 8.99614 12.8133 8.46878 12.7184C7.74805 12.5918 7.15741 12.2894 6.67576 11.7971C6.18707 11.3013 5.90581 10.7423 5.78276 10.032C5.68784 9.50454 5.73706 8.96304 5.91636 8.42857C6.42966 6.93064 7.97658 6.00939 9.53053 6.28365Z" fill="white"/>
<path d="M0.386425 8.90564C0.273921 8.95135 0.112198 9.10255 0.048915 9.22562C0.0207892 9.27836 -0.000305176 9.40495 -0.000305176 9.50692C-0.000305176 9.75657 0.108682 9.94294 0.312594 10.0519C0.463771 10.1328 0.484865 10.1328 1.52552 10.1328C2.48883 10.1328 2.59782 10.1258 2.73141 10.066C3.19197 9.85503 3.19197 9.14475 2.73141 8.93377C2.59782 8.874 2.49234 8.86696 1.52904 8.87048C0.917299 8.87048 0.43916 8.88454 0.386425 8.90564Z" fill="white"/>
<path d="M15.2683 8.93377C15.1769 8.97597 15.0855 9.05684 15.0222 9.15178C14.8147 9.46824 14.9343 9.91129 15.2683 10.066C15.4019 10.1258 15.5109 10.1328 16.4601 10.1328C17.114 10.1328 17.5394 10.1187 17.6027 10.0941C17.7222 10.0484 17.884 9.90074 17.9508 9.77416C17.9789 9.72141 18 9.59834 18 9.49989C18 9.40143 17.9789 9.27836 17.9508 9.22562C17.884 9.09904 17.7222 8.95135 17.6027 8.90564C17.5394 8.88103 17.114 8.86696 16.4601 8.86696C15.5109 8.86696 15.4019 8.874 15.2683 8.93377Z" fill="white"/>
<path d="M4.09538 13.5584C3.95476 13.6252 2.50979 15.0809 2.46057 15.2075C2.36213 15.4783 2.47815 15.8088 2.72074 15.953C2.89301 16.0549 3.13559 16.069 3.31489 15.9917C3.37818 15.9635 3.76139 15.6049 4.17273 15.1935C4.80556 14.5535 4.92158 14.4199 4.95674 14.2898C5.02705 14.019 4.92158 13.7518 4.67899 13.5901C4.54188 13.4951 4.26765 13.4811 4.09538 13.5584Z" fill="white"/>
<path d="M13.3425 13.5647C13.2863 13.5928 13.2089 13.6455 13.1702 13.6772C13.005 13.8249 12.9593 14.187 13.0753 14.4156C13.1632 14.5808 14.4957 15.9065 14.6574 15.9873C14.8156 16.0682 15.1531 16.0471 15.2832 15.9487C15.452 15.8221 15.5152 15.7025 15.5328 15.4845C15.5434 15.3263 15.5328 15.2489 15.4766 15.1399C15.3887 14.9676 14.0105 13.5963 13.8769 13.5471C13.7328 13.4908 13.4656 13.5014 13.3425 13.5647Z" fill="white"/>
<path d="M8.79253 15.4426C8.62729 15.5129 8.49721 15.6325 8.43393 15.7731C8.37416 15.9032 8.36713 16.0193 8.36713 16.9616C8.36713 17.6157 8.38119 18.0411 8.4058 18.1044C8.4515 18.224 8.59916 18.3857 8.72573 18.4525C8.84878 18.5158 9.15113 18.5158 9.27418 18.4525C9.40075 18.3857 9.54841 18.224 9.59411 18.1044C9.61872 18.0411 9.63279 17.6157 9.63279 16.9616C9.63279 15.7661 9.61872 15.7028 9.35505 15.527C9.19684 15.4215 8.93316 15.3828 8.79253 15.4426Z" fill="white"/>
</svg>
