<svg width="201" height="25" viewBox="0 0 201 25" fill="none" xmlns="http://www.w3.org/2000/svg">
<path d="M0 5.45246C0 5.5343 0.0272819 5.5616 0.111856 5.5616H18.9855C19.6501 5.5616 19.9557 5.67271 20.0941 5.86643C20.2305 6.00528 20.3696 6.28281 20.3696 6.94776V15.1223C20.3696 16.2034 20.0649 16.4814 18.9855 16.4814H0.111856C0.0272819 16.4814 0 16.509 0 16.5933V19.6409C0 20.2783 0.443702 20.7228 1.08136 20.7228H19.6229C23.1698 20.7228 24.9431 18.9494 24.9431 15.3731V6.67024C24.9431 3.09634 23.1698 1.32275 19.6229 1.32275H1.08136C0.858385 1.32275 0.664689 1.37755 0.471233 1.51647L0.250745 1.70967C0.166419 1.79151 0.111856 1.90313 0.0843261 1.98771C0.0545638 2.01494 0.0545638 2.04224 0.0545638 2.09685C0.0272819 2.29253 0 2.37437 0 2.40161V5.45246Z" fill="#0D6EFD"/>
<path d="M34.043 19.6683C34.043 19.8893 34.1273 20.1941 34.3482 20.4175C34.3755 20.4994 34.4321 20.4994 34.4593 20.5267C34.6531 20.6658 34.8741 20.7229 35.124 20.7229H55.3279C55.5509 20.7229 55.8264 20.6956 56.0492 20.4994L56.131 20.4175C56.3544 20.1668 56.4092 19.862 56.4092 19.641V17.5628C56.4092 17.3964 56.4092 17.2848 56.382 17.2576C56.2974 16.7318 55.7989 16.4815 55.3279 16.4815H35.0968C34.7349 16.4815 34.5413 16.5934 34.2937 16.8409C34.1546 17.0371 34.0703 17.2576 34.0703 17.5058C34.043 17.5356 34.043 17.6447 34.043 17.8404V19.6683ZM34.0703 2.31974C34.0703 2.43136 34.043 2.54076 34.043 2.65238V4.50952C34.043 4.73048 34.0975 5.0353 34.3482 5.28356C34.4321 5.31333 34.4028 5.34057 34.4866 5.36787C34.6804 5.56159 34.9311 5.56159 35.124 5.56159H55.216C55.439 5.56159 55.7443 5.50699 55.9926 5.28356C56.2428 5.0353 56.2974 4.73048 56.2974 4.47975V2.40158C56.2974 2.37434 56.2701 2.2925 56.2428 2.09682C56.1582 1.73694 56.0219 1.62507 55.717 1.43212C55.5782 1.35028 55.4117 1.32272 55.216 1.32272H35.2632C35.0402 1.29294 34.7077 1.35028 34.4593 1.57046L34.321 1.68208C34.1273 1.8758 34.0975 2.12602 34.0703 2.31974ZM34.043 12.2404C34.0703 12.4911 34.1818 12.6842 34.3482 12.8233C34.3755 12.9051 34.4321 12.9051 34.4593 12.9349C34.6804 13.1286 34.9311 13.1286 35.124 13.1286H54.9405C55.6054 13.1286 56.0219 12.7114 56.0219 12.0467V9.99589C56.0219 9.82948 56.0219 9.71786 55.9926 9.69055C55.9653 9.49735 55.7989 9.19208 55.6054 9.11017C55.4117 8.91449 55.1615 8.91449 54.9678 8.91449H35.3178C35.0695 8.88725 34.7349 8.91449 34.4866 9.13748L34.3482 9.24662C34.1818 9.44281 34.0975 9.66376 34.0975 9.85671L34.043 10.1895V12.2404Z" fill="#0D6EFD"/>
<path d="M65.5078 15.4846C65.5078 19.058 67.5015 20.8313 70.9662 20.8313H80.8894L81.666 22.828C81.805 23.1874 81.9415 23.5202 82.0526 23.8524C82.0799 23.8821 82.1371 23.9094 82.1644 23.9094H86.8768C87.0133 23.9094 87.0431 23.8524 86.986 23.7703L83.4666 14.7901C83.4393 14.7901 83.412 14.7628 83.3847 14.7628H78.6723C78.5605 14.7628 78.5332 14.8199 78.5605 14.9285C78.7542 15.3729 78.9777 15.9285 79.2253 16.5932H71.6608C70.9662 16.5932 70.6069 16.4268 70.4132 16.2306C70.2202 16.0941 70.1085 15.7323 70.1085 15.2065V6.83574C70.1085 6.30996 70.2202 5.9506 70.4132 5.81168C70.6069 5.61797 70.9662 5.47962 71.6608 5.47962H83.9104C84.9917 5.47962 85.4336 5.72711 85.4336 6.83574V15.2065C85.4336 15.5114 85.379 15.7894 85.2971 16.0376C85.2672 16.0649 85.2672 16.0941 85.2971 16.1214L86.986 20.3327C87.0133 20.3901 87.0431 20.4173 87.125 20.4173C87.6806 20.2237 88.0126 19.9734 88.6501 19.4206C89.6469 18.4479 90.0342 17.1463 90.0342 15.4846V6.58825C90.0342 3.01162 88.0672 1.23828 84.6025 1.23828H70.9662C67.3929 1.23828 65.5078 3.01162 65.5078 6.58825V15.4846Z" fill="#0D6EFD"/>
<path d="M100.214 1.32275C99.5766 1.32275 99.1328 1.76421 99.1328 2.40161V15.3731C99.1328 18.8378 100.879 20.7228 104.455 20.7228H118.339C121.888 20.7228 123.662 18.9494 123.662 15.3731V2.40161C123.662 2.18066 123.607 1.87583 123.384 1.6251C123.135 1.37755 122.831 1.32275 122.58 1.32275H120.142C119.505 1.32275 119.06 1.76421 119.06 2.40161V15.1223C119.06 16.2034 118.756 16.4814 117.674 16.4814H105.147C104.066 16.4814 103.733 16.2034 103.733 15.1223V2.40161C103.733 2.18066 103.679 1.87583 103.428 1.6251C103.208 1.37755 102.902 1.32275 102.655 1.32275H100.214Z" fill="#0D6EFD"/>
<path d="M133.843 1.32275C133.206 1.32275 132.762 1.76421 132.762 2.40161V19.6409C132.762 20.2783 133.206 20.7228 133.843 20.7228H136.281C136.531 20.7228 136.837 20.6657 137.057 20.4174C137.305 20.1667 137.362 19.8619 137.362 19.6409V2.40161C137.362 2.18066 137.305 1.87583 137.057 1.6251C136.837 1.37755 136.531 1.32275 136.281 1.32275H133.843Z" fill="#0D6EFD"/>
<path d="M146.159 1.32275C145.522 1.32275 145.078 1.76421 145.078 2.40161V4.47976C145.078 4.73049 145.133 5.03532 145.384 5.28357C145.634 5.507 145.937 5.5616 146.159 5.5616H154.835V19.6409C154.835 19.8619 154.89 20.1667 155.138 20.4174C155.361 20.6657 155.666 20.7228 155.914 20.7228H158.297C158.548 20.7228 158.853 20.6657 159.074 20.4174C159.324 20.1667 159.379 19.8619 159.379 19.6409V5.5616H168.027C168.665 5.5616 169.136 5.14694 169.136 4.47976V2.40161C169.136 2.15335 169.024 1.87583 168.831 1.6251C168.58 1.40485 168.275 1.32275 168.027 1.32275H146.159Z" fill="#0D6EFD"/>
<path d="M175.575 1.90313C175.491 2.09685 175.491 2.2625 175.547 2.40161C175.575 2.6524 175.714 2.81805 175.853 2.95716C175.88 2.95716 178.206 5.5616 180.647 8.13823L185.468 13.3487V19.6409C185.468 20.2783 185.912 20.7228 186.549 20.7228H188.933C189.183 20.7228 189.486 20.6657 189.709 20.4174C189.957 20.1667 190.015 19.8619 190.015 19.6409V13.3487L199.687 2.92992C199.796 2.81805 199.935 2.6524 199.963 2.40161C200.019 2.2625 200.019 2.09685 199.935 1.90313C199.853 1.70967 199.714 1.5978 199.603 1.51647C199.409 1.37755 199.216 1.32275 198.965 1.32275H196.11C195.473 1.32275 195.141 1.68212 194.92 1.90313L193.811 3.12357L191.343 5.78458L187.77 9.63651L180.59 1.93037C180.342 1.68212 180.01 1.32275 179.372 1.32275H176.517C176.1 1.32275 175.714 1.54326 175.575 1.90313Z" fill="#0D6EFD"/>
</svg>
