<svg width="610" height="355" viewBox="0 0 610 355" fill="none" xmlns="http://www.w3.org/2000/svg">
<path opacity="0.15" d="M0 15.6765C0 7.01863 7.01863 0 15.6766 0H594.323C602.981 0 610 7.01863 610 15.6765V339.323C610 347.981 602.981 355 594.323 355H15.6766C7.01866 355 0 347.981 0 339.323V15.6765Z" fill="#CCD2D7"/>
<path d="M27.7662 327.212C27.7662 327.901 27.5403 328.456 27.0885 328.877C26.6367 329.298 25.959 329.509 25.0553 329.509H23.4357V332.932H22.6316V324.903H25.0553C25.9513 324.903 26.6252 325.114 27.077 325.535C27.5365 325.956 27.7662 326.515 27.7662 327.212ZM25.0553 328.82C26.3112 328.82 26.9392 328.284 26.9392 327.212C26.9392 326.676 26.7898 326.27 26.4912 325.994C26.1925 325.718 25.7139 325.581 25.0553 325.581H23.4357V328.82H25.0553ZM34.5486 326.66V332.932H33.7445V331.829C33.5607 332.22 33.2774 332.519 32.8945 332.725C32.5116 332.932 32.0828 333.036 31.608 333.036C30.8575 333.036 30.2449 332.806 29.7701 332.346C29.2953 331.879 29.0579 331.205 29.0579 330.325V326.66H29.8505V330.233C29.8505 330.914 30.019 331.435 30.3559 331.795C30.7005 332.155 31.1676 332.335 31.7573 332.335C32.3623 332.335 32.8447 332.143 33.2046 331.76C33.5645 331.378 33.7445 330.815 33.7445 330.072V326.66H34.5486ZM37.1884 327.775C37.3645 327.384 37.6325 327.082 37.9924 326.867C38.36 326.653 38.808 326.546 39.3364 326.546V327.384H39.1181C38.5361 327.384 38.069 327.541 37.7167 327.855C37.3645 328.169 37.1884 328.694 37.1884 329.429V332.932H36.3843V326.66H37.1884V327.775ZM40.1784 329.796C40.1784 329.145 40.3086 328.579 40.569 328.096C40.8293 327.606 41.1892 327.231 41.6487 326.971C42.1082 326.703 42.6327 326.568 43.2224 326.568C43.9958 326.568 44.6314 326.76 45.1292 327.143C45.6346 327.526 45.96 328.046 46.1055 328.705H45.244C45.1368 328.253 44.9033 327.901 44.5434 327.648C44.1911 327.388 43.7508 327.258 43.2224 327.258C42.8012 327.258 42.4221 327.353 42.0852 327.545C41.7483 327.736 41.4802 328.023 41.2811 328.406C41.0897 328.782 40.994 329.245 40.994 329.796C40.994 330.348 41.0897 330.815 41.2811 331.198C41.4802 331.581 41.7483 331.868 42.0852 332.059C42.4221 332.251 42.8012 332.346 43.2224 332.346C43.7508 332.346 44.1911 332.22 44.5434 331.967C44.9033 331.707 45.1368 331.347 45.244 330.887H46.1055C45.96 331.531 45.6346 332.048 45.1292 332.438C44.6238 332.829 43.9882 333.024 43.2224 333.024C42.6327 333.024 42.1082 332.894 41.6487 332.633C41.1892 332.365 40.8293 331.99 40.569 331.508C40.3086 331.018 40.1784 330.447 40.1784 329.796ZM50.5771 326.546C51.0519 326.546 51.4769 326.645 51.8521 326.844C52.235 327.043 52.5337 327.35 52.7481 327.763C52.9702 328.169 53.0812 328.667 53.0812 329.256V332.932H52.2886V329.348C52.2886 328.667 52.1163 328.146 51.7717 327.786C51.4348 327.426 50.9715 327.246 50.3818 327.246C49.7769 327.246 49.2944 327.438 48.9345 327.821C48.5746 328.203 48.3946 328.766 48.3946 329.509V332.932H47.5906V324.432H48.3946V327.729C48.5937 327.353 48.8847 327.062 49.2676 326.856C49.6582 326.649 50.0947 326.546 50.5771 326.546ZM54.4919 329.785C54.4919 329.142 54.6183 328.579 54.871 328.096C55.1313 327.606 55.4874 327.231 55.9392 326.971C56.3987 326.703 56.9156 326.568 57.49 326.568C58.0873 326.568 58.6003 326.706 59.0292 326.982C59.4657 327.258 59.7796 327.61 59.9711 328.039V326.66H60.7752V332.932H59.9711V331.542C59.772 331.971 59.4542 332.327 59.0177 332.611C58.5888 332.886 58.0758 333.024 57.4785 333.024C56.9118 333.024 56.3987 332.89 55.9392 332.622C55.4874 332.354 55.1313 331.975 54.871 331.485C54.6183 330.995 54.4919 330.428 54.4919 329.785ZM59.9711 329.796C59.9711 329.291 59.8677 328.847 59.6609 328.464C59.4542 328.081 59.1708 327.786 58.8109 327.579C58.4587 327.373 58.0681 327.269 57.6393 327.269C57.1951 327.269 56.7969 327.369 56.4447 327.568C56.0924 327.767 55.8129 328.058 55.6061 328.441C55.407 328.816 55.3075 329.264 55.3075 329.785C55.3075 330.298 55.407 330.75 55.6061 331.14C55.8129 331.523 56.0924 331.818 56.4447 332.025C56.7969 332.224 57.1951 332.323 57.6393 332.323C58.0681 332.323 58.4587 332.22 58.8109 332.013C59.1708 331.806 59.4542 331.512 59.6609 331.129C59.8677 330.746 59.9711 330.302 59.9711 329.796ZM64.7703 333.024C64.0504 333.024 63.4608 332.859 63.0013 332.53C62.5495 332.193 62.2968 331.738 62.2432 331.163H63.0702C63.1085 331.515 63.2732 331.803 63.5642 332.025C63.8628 332.239 64.261 332.346 64.7588 332.346C65.1953 332.346 65.5361 332.243 65.7811 332.036C66.0338 331.829 66.1602 331.573 66.1602 331.267C66.1602 331.052 66.0913 330.876 65.9534 330.738C65.8156 330.6 65.6394 330.493 65.425 330.417C65.2183 330.332 64.9349 330.244 64.575 330.152C64.1079 330.03 63.7288 329.907 63.4378 329.785C63.1468 329.662 62.8979 329.482 62.6912 329.245C62.4921 329 62.3925 328.674 62.3925 328.269C62.3925 327.962 62.4844 327.679 62.6682 327.419C62.852 327.158 63.1124 326.951 63.4493 326.798C63.7863 326.645 64.1691 326.568 64.598 326.568C65.2719 326.568 65.8156 326.741 66.2291 327.085C66.6426 327.422 66.8647 327.889 66.8953 328.487H66.0913C66.0683 328.119 65.9228 327.824 65.6548 327.602C65.3944 327.373 65.0345 327.258 64.575 327.258C64.1691 327.258 63.8399 327.353 63.5871 327.545C63.3344 327.736 63.2081 327.974 63.2081 328.257C63.2081 328.502 63.2808 328.705 63.4263 328.866C63.5795 329.019 63.7671 329.142 63.9892 329.233C64.2113 329.318 64.5099 329.413 64.8851 329.521C65.337 329.643 65.6969 329.762 65.9649 329.877C66.2329 329.992 66.4627 330.16 66.6541 330.382C66.8455 330.604 66.9451 330.899 66.9528 331.267C66.9528 331.603 66.8609 331.906 66.6771 332.174C66.4933 332.434 66.2367 332.641 65.9075 332.794C65.5782 332.947 65.1991 333.024 64.7703 333.024ZM74.1407 329.475C74.1407 329.75 74.1331 329.961 74.1178 330.106H68.9143C68.9373 330.581 69.0521 330.987 69.2589 331.324C69.4657 331.661 69.7375 331.917 70.0744 332.094C70.4114 332.262 70.779 332.346 71.1772 332.346C71.6979 332.346 72.1344 332.22 72.4867 331.967C72.8466 331.715 73.084 331.374 73.1988 330.945H74.0488C73.8957 331.558 73.5664 332.059 73.061 332.45C72.5632 332.833 71.9353 333.024 71.1772 333.024C70.5875 333.024 70.0591 332.894 69.592 332.633C69.1249 332.365 68.7573 331.99 68.4893 331.508C68.2289 331.018 68.0987 330.447 68.0987 329.796C68.0987 329.145 68.2289 328.575 68.4893 328.085C68.7496 327.595 69.1134 327.219 69.5805 326.959C70.0476 326.699 70.5799 326.568 71.1772 326.568C71.7745 326.568 72.2952 326.699 72.7394 326.959C73.1912 327.219 73.5358 327.572 73.7732 328.016C74.0182 328.452 74.1407 328.939 74.1407 329.475ZM73.3252 329.452C73.3328 328.985 73.2371 328.586 73.038 328.257C72.8466 327.928 72.5824 327.679 72.2454 327.51C71.9085 327.342 71.5409 327.258 71.1427 327.258C70.5454 327.258 70.0362 327.449 69.615 327.832C69.1938 328.215 68.9602 328.755 68.9143 329.452H73.3252Z" fill="#1A364A"/>
<path d="M167.11 324.903L164.537 329.808V332.932H163.733V329.808L161.137 324.903H162.045L164.135 329.073L166.215 324.903H167.11ZM173.962 329.475C173.962 329.75 173.954 329.961 173.939 330.106H168.735C168.758 330.581 168.873 330.987 169.08 331.324C169.287 331.661 169.559 331.917 169.895 332.094C170.232 332.262 170.6 332.346 170.998 332.346C171.519 332.346 171.955 332.22 172.308 331.967C172.668 331.715 172.905 331.374 173.02 330.945H173.87C173.717 331.558 173.387 332.059 172.882 332.45C172.384 332.833 171.756 333.024 170.998 333.024C170.409 333.024 169.88 332.894 169.413 332.633C168.946 332.365 168.578 331.99 168.31 331.508C168.05 331.018 167.92 330.447 167.92 329.796C167.92 329.145 168.05 328.575 168.31 328.085C168.571 327.595 168.934 327.219 169.402 326.959C169.869 326.699 170.401 326.568 170.998 326.568C171.596 326.568 172.116 326.699 172.56 326.959C173.012 327.219 173.357 327.572 173.594 328.016C173.839 328.452 173.962 328.939 173.962 329.475ZM173.146 329.452C173.154 328.985 173.058 328.586 172.859 328.257C172.668 327.928 172.403 327.679 172.066 327.51C171.73 327.342 171.362 327.258 170.964 327.258C170.366 327.258 169.857 327.449 169.436 327.832C169.015 328.215 168.781 328.755 168.735 329.452H173.146ZM175.065 329.785C175.065 329.142 175.192 328.579 175.444 328.096C175.705 327.606 176.061 327.231 176.513 326.971C176.972 326.703 177.489 326.568 178.063 326.568C178.661 326.568 179.174 326.706 179.603 326.982C180.039 327.258 180.353 327.61 180.544 328.039V326.66H181.349V332.932H180.544V331.542C180.345 331.971 180.028 332.327 179.591 332.611C179.162 332.886 178.649 333.024 178.052 333.024C177.485 333.024 176.972 332.89 176.513 332.622C176.061 332.354 175.705 331.975 175.444 331.485C175.192 330.995 175.065 330.428 175.065 329.785ZM180.544 329.796C180.544 329.291 180.441 328.847 180.234 328.464C180.028 328.081 179.744 327.786 179.384 327.579C179.032 327.373 178.641 327.269 178.213 327.269C177.768 327.269 177.37 327.369 177.018 327.568C176.666 327.767 176.386 328.058 176.18 328.441C175.98 328.816 175.881 329.264 175.881 329.785C175.881 330.298 175.98 330.75 176.18 331.14C176.386 331.523 176.666 331.818 177.018 332.025C177.37 332.224 177.768 332.323 178.213 332.323C178.641 332.323 179.032 332.22 179.384 332.013C179.744 331.806 180.028 331.512 180.234 331.129C180.441 330.746 180.544 330.302 180.544 329.796ZM183.988 327.775C184.164 327.384 184.432 327.082 184.792 326.867C185.16 326.653 185.608 326.546 186.136 326.546V327.384H185.918C185.336 327.384 184.869 327.541 184.517 327.855C184.164 328.169 183.988 328.694 183.988 329.429V332.932H183.184V326.66H183.988V327.775ZM189.935 325.42V324.696H191.888V332.932H191.072V325.42H189.935Z" fill="#1A364A"/>
<path d="M302.787 324.903L300.214 329.808V332.932H299.41V329.808L296.814 324.903H297.721L299.812 329.073L301.891 324.903H302.787ZM309.638 329.475C309.638 329.75 309.631 329.961 309.615 330.106H304.412C304.435 330.581 304.55 330.987 304.756 331.324C304.963 331.661 305.235 331.917 305.572 332.094C305.909 332.262 306.276 332.346 306.675 332.346C307.195 332.346 307.632 332.22 307.984 331.967C308.344 331.715 308.581 331.374 308.696 330.945H309.546C309.393 331.558 309.064 332.059 308.558 332.45C308.061 332.833 307.433 333.024 306.675 333.024C306.085 333.024 305.557 332.894 305.089 332.633C304.622 332.365 304.255 331.99 303.987 331.508C303.726 331.018 303.596 330.447 303.596 329.796C303.596 329.145 303.726 328.575 303.987 328.085C304.247 327.595 304.611 327.219 305.078 326.959C305.545 326.699 306.077 326.568 306.675 326.568C307.272 326.568 307.793 326.699 308.237 326.959C308.689 327.219 309.033 327.572 309.271 328.016C309.516 328.452 309.638 328.939 309.638 329.475ZM308.823 329.452C308.83 328.985 308.735 328.586 308.535 328.257C308.344 327.928 308.08 327.679 307.743 327.51C307.406 327.342 307.038 327.258 306.64 327.258C306.043 327.258 305.534 327.449 305.112 327.832C304.691 328.215 304.458 328.755 304.412 329.452H308.823ZM310.742 329.785C310.742 329.142 310.868 328.579 311.121 328.096C311.381 327.606 311.737 327.231 312.189 326.971C312.649 326.703 313.165 326.568 313.74 326.568C314.337 326.568 314.85 326.706 315.279 326.982C315.715 327.258 316.029 327.61 316.221 328.039V326.66H317.025V332.932H316.221V331.542C316.022 331.971 315.704 332.327 315.267 332.611C314.839 332.886 314.326 333.024 313.728 333.024C313.162 333.024 312.649 332.89 312.189 332.622C311.737 332.354 311.381 331.975 311.121 331.485C310.868 330.995 310.742 330.428 310.742 329.785ZM316.221 329.796C316.221 329.291 316.117 328.847 315.911 328.464C315.704 328.081 315.421 327.786 315.061 327.579C314.708 327.373 314.318 327.269 313.889 327.269C313.445 327.269 313.047 327.369 312.694 327.568C312.342 327.767 312.063 328.058 311.856 328.441C311.657 328.816 311.557 329.264 311.557 329.785C311.557 330.298 311.657 330.75 311.856 331.14C312.063 331.523 312.342 331.818 312.694 332.025C313.047 332.224 313.445 332.323 313.889 332.323C314.318 332.323 314.708 332.22 315.061 332.013C315.421 331.806 315.704 331.512 315.911 331.129C316.117 330.746 316.221 330.302 316.221 329.796ZM319.665 327.775C319.841 327.384 320.109 327.082 320.469 326.867C320.836 326.653 321.284 326.546 321.813 326.546V327.384H321.594C321.012 327.384 320.545 327.541 320.193 327.855C319.841 328.169 319.665 328.694 319.665 329.429V332.932H318.861V326.66H319.665V327.775ZM325.841 332.3C327.25 331.244 328.338 330.298 329.103 329.463C329.877 328.621 330.264 327.798 330.264 326.993C330.264 326.465 330.13 326.044 329.862 325.73C329.601 325.408 329.172 325.248 328.575 325.248C327.993 325.248 327.541 325.431 327.22 325.799C326.906 326.159 326.73 326.641 326.691 327.246H325.91C325.956 326.396 326.217 325.738 326.691 325.27C327.174 324.796 327.802 324.558 328.575 324.558C329.318 324.558 329.919 324.769 330.379 325.19C330.838 325.604 331.068 326.193 331.068 326.959C331.068 327.886 330.681 328.785 329.908 329.658C329.142 330.524 328.196 331.37 327.07 332.197H331.32V332.875H325.841V332.3Z" fill="#1A364A"/>
<path d="M460.023 324.903L457.45 329.808V332.932H456.646V329.808L454.05 324.903H454.957L457.048 329.073L459.127 324.903H460.023ZM466.874 329.475C466.874 329.75 466.867 329.961 466.851 330.106H461.648C461.671 330.581 461.786 330.987 461.993 331.324C462.199 331.661 462.471 331.917 462.808 332.094C463.145 332.262 463.513 332.346 463.911 332.346C464.432 332.346 464.868 332.22 465.22 331.967C465.58 331.715 465.818 331.374 465.932 330.945H466.782C466.629 331.558 466.3 332.059 465.795 332.45C465.297 332.833 464.669 333.024 463.911 333.024C463.321 333.024 462.793 332.894 462.326 332.633C461.858 332.365 461.491 331.99 461.223 331.508C460.963 331.018 460.832 330.447 460.832 329.796C460.832 329.145 460.963 328.575 461.223 328.085C461.483 327.595 461.847 327.219 462.314 326.959C462.781 326.699 463.313 326.568 463.911 326.568C464.508 326.568 465.029 326.699 465.473 326.959C465.925 327.219 466.269 327.572 466.507 328.016C466.752 328.452 466.874 328.939 466.874 329.475ZM466.059 329.452C466.066 328.985 465.971 328.586 465.772 328.257C465.58 327.928 465.316 327.679 464.979 327.51C464.642 327.342 464.275 327.258 463.876 327.258C463.279 327.258 462.77 327.449 462.349 327.832C461.927 328.215 461.694 328.755 461.648 329.452H466.059ZM467.978 329.785C467.978 329.142 468.104 328.579 468.357 328.096C468.617 327.606 468.973 327.231 469.425 326.971C469.885 326.703 470.402 326.568 470.976 326.568C471.573 326.568 472.086 326.706 472.515 326.982C472.952 327.258 473.266 327.61 473.457 328.039V326.66H474.261V332.932H473.457V331.542C473.258 331.971 472.94 332.327 472.504 332.611C472.075 332.886 471.562 333.024 470.964 333.024C470.398 333.024 469.885 332.89 469.425 332.622C468.973 332.354 468.617 331.975 468.357 331.485C468.104 330.995 467.978 330.428 467.978 329.785ZM473.457 329.796C473.457 329.291 473.354 328.847 473.147 328.464C472.94 328.081 472.657 327.786 472.297 327.579C471.945 327.373 471.554 327.269 471.125 327.269C470.681 327.269 470.283 327.369 469.931 327.568C469.578 327.767 469.299 328.058 469.092 328.441C468.893 328.816 468.793 329.264 468.793 329.785C468.793 330.298 468.893 330.75 469.092 331.14C469.299 331.523 469.578 331.818 469.931 332.025C470.283 332.224 470.681 332.323 471.125 332.323C471.554 332.323 471.945 332.22 472.297 332.013C472.657 331.806 472.94 331.512 473.147 331.129C473.354 330.746 473.457 330.302 473.457 329.796ZM476.901 327.775C477.077 327.384 477.345 327.082 477.705 326.867C478.072 326.653 478.52 326.546 479.049 326.546V327.384H478.831C478.249 327.384 477.781 327.541 477.429 327.855C477.077 328.169 476.901 328.694 476.901 329.429V332.932H476.097V326.66H476.901V327.775ZM483.204 326.798C483.257 326.101 483.525 325.554 484.008 325.156C484.498 324.75 485.13 324.547 485.903 324.547C486.416 324.547 486.857 324.639 487.224 324.823C487.592 325.006 487.867 325.259 488.051 325.581C488.243 325.895 488.338 326.251 488.338 326.649C488.338 327.131 488.197 327.549 487.913 327.901C487.63 328.253 487.228 328.471 486.707 328.556V328.613C487.251 328.72 487.684 328.958 488.005 329.325C488.327 329.685 488.488 330.16 488.488 330.75C488.488 331.408 488.266 331.948 487.821 332.369C487.385 332.783 486.749 332.99 485.915 332.99C485.118 332.99 484.464 332.783 483.95 332.369C483.437 331.948 483.143 331.355 483.066 330.589H483.847C483.916 331.102 484.13 331.519 484.49 331.841C484.85 332.155 485.325 332.312 485.915 332.312C486.497 332.312 486.941 332.159 487.247 331.852C487.561 331.546 487.718 331.156 487.718 330.681C487.718 329.517 486.88 328.935 485.202 328.935H484.95V328.257H485.214C486.776 328.257 487.557 327.748 487.557 326.729C487.557 326.285 487.412 325.929 487.121 325.661C486.83 325.385 486.416 325.248 485.88 325.248C485.359 325.248 484.927 325.385 484.582 325.661C484.245 325.929 484.046 326.308 483.985 326.798H483.204Z" fill="#1A364A"/>
<path d="M529.387 212.723L527.4 209.368H525.918V212.723H525.114V204.693H527.526C528.422 204.693 529.1 204.908 529.559 205.337C530.026 205.765 530.26 206.328 530.26 207.025C530.26 207.607 530.091 208.105 529.754 208.518C529.425 208.924 528.935 209.188 528.284 209.311L530.352 212.723H529.387ZM525.918 208.714H527.537C528.165 208.714 528.636 208.561 528.95 208.254C529.272 207.948 529.433 207.538 529.433 207.025C529.433 206.497 529.28 206.091 528.973 205.808C528.667 205.517 528.185 205.371 527.526 205.371H525.918V208.714ZM537.53 209.265C537.53 209.541 537.522 209.751 537.507 209.897H532.303C532.326 210.372 532.441 210.777 532.648 211.114C532.855 211.451 533.127 211.708 533.464 211.884C533.801 212.052 534.168 212.137 534.566 212.137C535.087 212.137 535.524 212.01 535.876 211.758C536.236 211.505 536.473 211.164 536.588 210.735H537.438C537.285 211.348 536.956 211.85 536.45 212.24C535.952 212.623 535.324 212.814 534.566 212.814C533.977 212.814 533.448 212.684 532.981 212.424C532.514 212.156 532.146 211.781 531.878 211.298C531.618 210.808 531.488 210.238 531.488 209.587C531.488 208.936 531.618 208.365 531.878 207.875C532.139 207.385 532.503 207.01 532.97 206.749C533.437 206.489 533.969 206.359 534.566 206.359C535.164 206.359 535.684 206.489 536.129 206.749C536.58 207.01 536.925 207.362 537.162 207.806C537.407 208.243 537.53 208.729 537.53 209.265ZM536.714 209.242C536.722 208.775 536.626 208.377 536.427 208.047C536.236 207.718 535.972 207.469 535.635 207.301C535.298 207.132 534.93 207.048 534.532 207.048C533.935 207.048 533.425 207.24 533.004 207.622C532.583 208.005 532.349 208.545 532.303 209.242H536.714ZM541.942 206.336C542.692 206.336 543.305 206.569 543.779 207.037C544.254 207.496 544.492 208.166 544.492 209.047V212.723H543.699V209.139C543.699 208.457 543.527 207.936 543.182 207.576C542.845 207.217 542.382 207.037 541.792 207.037C541.187 207.037 540.705 207.228 540.345 207.611C539.985 207.994 539.805 208.557 539.805 209.299V212.723H539.001V206.451H539.805V207.519C540.004 207.136 540.291 206.845 540.667 206.646C541.042 206.439 541.467 206.336 541.942 206.336ZM547.315 207.129V211.023C547.315 211.405 547.388 211.67 547.533 211.815C547.679 211.961 547.936 212.033 548.303 212.033H549.038V212.723H548.177C547.61 212.723 547.189 212.592 546.913 212.332C546.638 212.064 546.5 211.627 546.5 211.023V207.129H545.627V206.451H546.5V204.877H547.315V206.451H549.038V207.129H547.315ZM529.766 225.816H526.113L525.412 227.723H524.562L527.492 219.797H528.399L531.317 227.723H530.467L529.766 225.816ZM529.525 225.15L527.939 220.808L526.354 225.15H529.525ZM533.4 222.829C533.599 222.408 533.913 222.06 534.342 221.784C534.778 221.501 535.295 221.359 535.892 221.359C536.459 221.359 536.968 221.493 537.42 221.761C537.879 222.021 538.236 222.397 538.488 222.887C538.749 223.369 538.879 223.932 538.879 224.575C538.879 225.218 538.749 225.785 538.488 226.275C538.236 226.765 537.879 227.144 537.42 227.412C536.968 227.68 536.459 227.814 535.892 227.814C535.303 227.814 534.79 227.677 534.353 227.401C533.917 227.118 533.599 226.765 533.4 226.344V230.686H532.607V221.451H533.4V222.829ZM538.063 224.575C538.063 224.054 537.96 223.606 537.753 223.231C537.554 222.848 537.278 222.557 536.926 222.358C536.574 222.159 536.176 222.06 535.731 222.06C535.303 222.06 534.908 222.163 534.548 222.37C534.196 222.576 533.917 222.871 533.71 223.254C533.503 223.637 533.4 224.081 533.4 224.587C533.4 225.092 533.503 225.536 533.71 225.919C533.917 226.302 534.196 226.597 534.548 226.804C534.908 227.01 535.303 227.114 535.731 227.114C536.176 227.114 536.574 227.014 536.926 226.815C537.278 226.608 537.554 226.313 537.753 225.931C537.96 225.54 538.063 225.088 538.063 224.575ZM541.151 222.829C541.35 222.408 541.664 222.06 542.093 221.784C542.529 221.501 543.046 221.359 543.644 221.359C544.21 221.359 544.719 221.493 545.171 221.761C545.631 222.021 545.987 222.397 546.24 222.887C546.5 223.369 546.63 223.932 546.63 224.575C546.63 225.218 546.5 225.785 546.24 226.275C545.987 226.765 545.631 227.144 545.171 227.412C544.719 227.68 544.21 227.814 543.644 227.814C543.054 227.814 542.541 227.677 542.104 227.401C541.668 227.118 541.35 226.765 541.151 226.344V230.686H540.358V221.451H541.151V222.829ZM545.815 224.575C545.815 224.054 545.711 223.606 545.504 223.231C545.305 222.848 545.03 222.557 544.677 222.358C544.325 222.159 543.927 222.06 543.483 222.06C543.054 222.06 542.66 222.163 542.3 222.37C541.947 222.576 541.668 222.871 541.461 223.254C541.254 223.637 541.151 224.081 541.151 224.587C541.151 225.092 541.254 225.536 541.461 225.919C541.668 226.302 541.947 226.597 542.3 226.804C542.66 227.01 543.054 227.114 543.483 227.114C543.927 227.114 544.325 227.014 544.677 226.815C545.03 226.608 545.305 226.313 545.504 225.931C545.711 225.54 545.815 225.088 545.815 224.575ZM548.914 222.565C549.09 222.174 549.358 221.872 549.718 221.658C550.085 221.443 550.533 221.336 551.062 221.336V222.174H550.843C550.261 222.174 549.794 222.331 549.442 222.645C549.09 222.959 548.914 223.484 548.914 224.219V227.723H548.11V221.451H548.914V222.565ZM557.946 224.265C557.946 224.541 557.938 224.751 557.923 224.897H552.719C552.742 225.372 552.857 225.777 553.064 226.114C553.271 226.451 553.543 226.708 553.879 226.884C554.216 227.052 554.584 227.137 554.982 227.137C555.503 227.137 555.939 227.01 556.292 226.758C556.652 226.505 556.889 226.164 557.004 225.735H557.854C557.701 226.348 557.371 226.85 556.866 227.24C556.368 227.623 555.74 227.814 554.982 227.814C554.393 227.814 553.864 227.684 553.397 227.424C552.93 227.156 552.562 226.781 552.294 226.298C552.034 225.808 551.904 225.238 551.904 224.587C551.904 223.936 552.034 223.365 552.294 222.875C552.555 222.385 552.918 222.01 553.386 221.749C553.853 221.489 554.385 221.359 554.982 221.359C555.579 221.359 556.1 221.489 556.544 221.749C556.996 222.01 557.341 222.362 557.578 222.806C557.823 223.243 557.946 223.729 557.946 224.265ZM557.13 224.242C557.138 223.775 557.042 223.377 556.843 223.047C556.652 222.718 556.387 222.469 556.05 222.301C555.713 222.132 555.346 222.048 554.948 222.048C554.35 222.048 553.841 222.24 553.42 222.622C552.999 223.005 552.765 223.545 552.719 224.242H557.13ZM559.049 224.587C559.049 223.936 559.179 223.369 559.44 222.887C559.7 222.397 560.06 222.021 560.52 221.761C560.979 221.493 561.504 221.359 562.093 221.359C562.867 221.359 563.502 221.55 564 221.933C564.505 222.316 564.831 222.837 564.976 223.495H564.115C564.008 223.044 563.774 222.691 563.414 222.439C563.062 222.178 562.622 222.048 562.093 222.048C561.672 222.048 561.293 222.144 560.956 222.335C560.619 222.527 560.351 222.814 560.152 223.197C559.961 223.572 559.865 224.035 559.865 224.587C559.865 225.138 559.961 225.605 560.152 225.988C560.351 226.371 560.619 226.658 560.956 226.85C561.293 227.041 561.672 227.137 562.093 227.137C562.622 227.137 563.062 227.01 563.414 226.758C563.774 226.497 564.008 226.137 564.115 225.678H564.976C564.831 226.321 564.505 226.838 564 227.229C563.495 227.619 562.859 227.814 562.093 227.814C561.504 227.814 560.979 227.684 560.52 227.424C560.06 227.156 559.7 226.781 559.44 226.298C559.179 225.808 559.049 225.238 559.049 224.587ZM566.863 220.268C566.703 220.268 566.565 220.21 566.45 220.095C566.335 219.98 566.278 219.839 566.278 219.67C566.278 219.502 566.335 219.364 566.45 219.257C566.565 219.142 566.703 219.085 566.863 219.085C567.024 219.085 567.162 219.142 567.277 219.257C567.392 219.364 567.449 219.502 567.449 219.67C567.449 219.839 567.392 219.98 567.277 220.095C567.162 220.21 567.024 220.268 566.863 220.268ZM567.265 221.451V227.723H566.461V221.451H567.265ZM568.719 224.575C568.719 223.932 568.845 223.369 569.098 222.887C569.358 222.397 569.714 222.021 570.166 221.761C570.626 221.493 571.142 221.359 571.717 221.359C572.314 221.359 572.827 221.497 573.256 221.772C573.692 222.048 574.006 222.4 574.198 222.829V221.451H575.002V227.723H574.198V226.333C573.999 226.761 573.681 227.118 573.245 227.401C572.816 227.677 572.303 227.814 571.705 227.814C571.139 227.814 570.626 227.68 570.166 227.412C569.714 227.144 569.358 226.765 569.098 226.275C568.845 225.785 568.719 225.218 568.719 224.575ZM574.198 224.587C574.198 224.081 574.095 223.637 573.888 223.254C573.681 222.871 573.398 222.576 573.038 222.37C572.685 222.163 572.295 222.06 571.866 222.06C571.422 222.06 571.024 222.159 570.671 222.358C570.319 222.557 570.04 222.848 569.833 223.231C569.634 223.606 569.534 224.054 569.534 224.575C569.534 225.088 569.634 225.54 569.833 225.931C570.04 226.313 570.319 226.608 570.671 226.815C571.024 227.014 571.422 227.114 571.866 227.114C572.295 227.114 572.685 227.01 573.038 226.804C573.398 226.597 573.681 226.302 573.888 225.919C574.095 225.536 574.198 225.092 574.198 224.587ZM577.883 222.129V226.023C577.883 226.405 577.956 226.67 578.101 226.815C578.247 226.961 578.503 227.033 578.871 227.033H579.606V227.723H578.744C578.178 227.723 577.757 227.592 577.481 227.332C577.205 227.064 577.067 226.627 577.067 226.023V222.129H576.194V221.451H577.067V219.877H577.883V221.451H579.606V222.129H577.883ZM581.334 220.268C581.173 220.268 581.035 220.21 580.921 220.095C580.806 219.98 580.748 219.839 580.748 219.67C580.748 219.502 580.806 219.364 580.921 219.257C581.035 219.142 581.173 219.085 581.334 219.085C581.495 219.085 581.633 219.142 581.748 219.257C581.862 219.364 581.92 219.502 581.92 219.67C581.92 219.839 581.862 219.98 581.748 220.095C581.633 220.21 581.495 220.268 581.334 220.268ZM581.736 221.451V227.723H580.932V221.451H581.736ZM586.302 227.814C585.713 227.814 585.18 227.684 584.706 227.424C584.238 227.156 583.867 226.781 583.591 226.298C583.323 225.808 583.189 225.238 583.189 224.587C583.189 223.936 583.327 223.369 583.603 222.887C583.879 222.397 584.254 222.021 584.729 221.761C585.203 221.493 585.736 221.359 586.325 221.359C586.915 221.359 587.447 221.493 587.922 221.761C588.404 222.021 588.78 222.397 589.048 222.887C589.323 223.369 589.461 223.936 589.461 224.587C589.461 225.23 589.323 225.797 589.048 226.287C588.772 226.777 588.393 227.156 587.91 227.424C587.428 227.684 586.892 227.814 586.302 227.814ZM586.302 227.114C586.716 227.114 587.099 227.022 587.451 226.838C587.803 226.647 588.086 226.363 588.301 225.988C588.523 225.605 588.634 225.138 588.634 224.587C588.634 224.035 588.527 223.572 588.312 223.197C588.098 222.814 587.815 222.531 587.462 222.347C587.11 222.155 586.727 222.06 586.314 222.06C585.9 222.06 585.517 222.155 585.165 222.347C584.813 222.531 584.529 222.814 584.315 223.197C584.108 223.572 584.005 224.035 584.005 224.587C584.005 225.138 584.108 225.605 584.315 225.988C584.529 226.363 584.809 226.647 585.154 226.838C585.506 227.022 585.889 227.114 586.302 227.114ZM593.867 221.336C594.618 221.336 595.23 221.569 595.705 222.037C596.18 222.496 596.417 223.166 596.417 224.047V227.723H595.625V224.139C595.625 223.457 595.453 222.936 595.108 222.576C594.771 222.217 594.308 222.037 593.718 222.037C593.113 222.037 592.631 222.228 592.271 222.611C591.911 222.994 591.731 223.557 591.731 224.299V227.723H590.927V221.451H591.731V222.519C591.93 222.136 592.217 221.845 592.592 221.646C592.968 221.439 593.393 221.336 593.867 221.336Z" fill="#1A364A"/>
<path d="M525.396 64.2989C525.396 63.5101 525.568 62.8056 525.912 62.1853C526.257 61.5574 526.728 61.0711 527.325 60.7265C527.923 60.3742 528.589 60.1981 529.324 60.1981C530.22 60.1981 530.986 60.4125 531.621 60.8414C532.265 61.2625 532.732 61.8599 533.023 62.6333H532.081C531.851 62.0896 531.499 61.6646 531.024 61.3583C530.557 61.052 529.99 60.8988 529.324 60.8988C528.734 60.8988 528.202 61.0366 527.727 61.3123C527.26 61.588 526.893 61.9862 526.625 62.5069C526.357 63.02 526.223 63.6173 526.223 64.2989C526.223 64.9804 526.357 65.5777 526.625 66.0908C526.893 66.6039 527.26 66.9982 527.727 67.2739C528.202 67.5496 528.734 67.6874 529.324 67.6874C529.99 67.6874 530.557 67.5381 531.024 67.2395C531.499 66.9332 531.851 66.512 532.081 65.9759H533.023C532.732 66.7417 532.265 67.3352 531.621 67.7564C530.978 68.1775 530.212 68.3881 529.324 68.3881C528.589 68.3881 527.923 68.2158 527.325 67.8712C526.728 67.519 526.257 67.0327 525.912 66.4124C525.568 65.7921 525.396 65.0876 525.396 64.2989ZM534.257 65.1719C534.257 64.5286 534.384 63.9658 534.636 63.4833C534.897 62.9932 535.253 62.618 535.705 62.3576C536.164 62.0896 536.681 61.9556 537.255 61.9556C537.853 61.9556 538.366 62.0934 538.795 62.3691C539.231 62.6448 539.545 62.997 539.737 63.4259V62.0475H540.541V68.3192H539.737V66.9293C539.537 67.3582 539.22 67.7142 538.783 67.9976C538.354 68.2733 537.841 68.4111 537.244 68.4111C536.677 68.4111 536.164 68.2771 535.705 68.0091C535.253 67.741 534.897 67.362 534.636 66.8719C534.384 66.3818 534.257 65.8151 534.257 65.1719ZM539.737 65.1833C539.737 64.6779 539.633 64.2338 539.426 63.8509C539.22 63.468 538.936 63.1732 538.576 62.9664C538.224 62.7596 537.834 62.6563 537.405 62.6563C536.961 62.6563 536.562 62.7558 536.21 62.9549C535.858 63.154 535.578 63.445 535.372 63.8279C535.172 64.2031 535.073 64.6511 535.073 65.1719C535.073 65.6849 535.172 66.1367 535.372 66.5273C535.578 66.9102 535.858 67.205 536.21 67.4118C536.562 67.6109 536.961 67.7104 537.405 67.7104C537.834 67.7104 538.224 67.607 538.576 67.4003C538.936 67.1935 539.22 66.8987 539.426 66.5158C539.633 66.1329 539.737 65.6888 539.737 65.1833ZM543.169 63.4259C543.368 63.0047 543.682 62.6563 544.111 62.3806C544.547 62.0972 545.064 61.9556 545.661 61.9556C546.228 61.9556 546.737 62.0896 547.189 62.3576C547.649 62.618 548.005 62.9932 548.257 63.4833C548.518 63.9658 548.648 64.5286 548.648 65.1719C548.648 65.8151 548.518 66.3818 548.257 66.8719C548.005 67.362 547.649 67.741 547.189 68.0091C546.737 68.2771 546.228 68.4111 545.661 68.4111C545.072 68.4111 544.559 68.2733 544.122 67.9976C543.686 67.7142 543.368 67.362 543.169 66.9408V71.2828H542.376V62.0475H543.169V63.4259ZM547.832 65.1719C547.832 64.6511 547.729 64.2031 547.522 63.8279C547.323 63.445 547.048 63.154 546.695 62.9549C546.343 62.7558 545.945 62.6563 545.501 62.6563C545.072 62.6563 544.677 62.7596 544.317 62.9664C543.965 63.1732 543.686 63.468 543.479 63.8509C543.272 64.2338 543.169 64.6779 543.169 65.1833C543.169 65.6888 543.272 66.1329 543.479 66.5158C543.686 66.8987 543.965 67.1935 544.317 67.4003C544.677 67.607 545.072 67.7104 545.501 67.7104C545.945 67.7104 546.343 67.6109 546.695 67.4118C547.048 67.205 547.323 66.9102 547.522 66.5273C547.729 66.1367 547.832 65.6849 547.832 65.1719ZM550.53 60.8643C550.369 60.8643 550.231 60.8069 550.116 60.692C550.001 60.5772 549.944 60.4355 549.944 60.267C549.944 60.0986 550.001 59.9607 550.116 59.8535C550.231 59.7386 550.369 59.6812 550.53 59.6812C550.69 59.6812 550.828 59.7386 550.943 59.8535C551.058 59.9607 551.115 60.0986 551.115 60.267C551.115 60.4355 551.058 60.5772 550.943 60.692C550.828 60.8069 550.69 60.8643 550.53 60.8643ZM550.932 62.0475V68.3192H550.128V62.0475H550.932ZM553.798 62.7252V66.6192C553.798 67.0021 553.87 67.2663 554.016 67.4118C554.161 67.5573 554.418 67.63 554.786 67.63H555.521V68.3192H554.659C554.093 68.3192 553.671 68.189 553.396 67.9287C553.12 67.6606 552.982 67.2241 552.982 66.6192V62.7252H552.109V62.0475H552.982V60.4738H553.798V62.0475H555.521V62.7252H553.798ZM556.479 65.1719C556.479 64.5286 556.606 63.9658 556.858 63.4833C557.119 62.9932 557.475 62.618 557.927 62.3576C558.386 62.0896 558.903 61.9556 559.477 61.9556C560.075 61.9556 560.588 62.0934 561.016 62.3691C561.453 62.6448 561.767 62.997 561.958 63.4259V62.0475H562.762V68.3192H561.958V66.9293C561.759 67.3582 561.441 67.7142 561.005 67.9976C560.576 68.2733 560.063 68.4111 559.466 68.4111C558.899 68.4111 558.386 68.2771 557.927 68.0091C557.475 67.741 557.119 67.362 556.858 66.8719C556.606 66.3818 556.479 65.8151 556.479 65.1719ZM561.958 65.1833C561.958 64.6779 561.855 64.2338 561.648 63.8509C561.441 63.468 561.158 63.1732 560.798 62.9664C560.446 62.7596 560.055 62.6563 559.627 62.6563C559.182 62.6563 558.784 62.7558 558.432 62.9549C558.08 63.154 557.8 63.445 557.593 63.8279C557.394 64.2031 557.295 64.6511 557.295 65.1719C557.295 65.6849 557.394 66.1367 557.593 66.5273C557.8 66.9102 558.08 67.205 558.432 67.4118C558.784 67.6109 559.182 67.7104 559.627 67.7104C560.055 67.7104 560.446 67.607 560.798 67.4003C561.158 67.1935 561.441 66.8987 561.648 66.5158C561.855 66.1329 561.958 65.6888 561.958 65.1833ZM565.402 59.819V68.3192H564.598V59.819H565.402ZM567.625 60.8643C567.464 60.8643 567.326 60.8069 567.211 60.692C567.097 60.5772 567.039 60.4355 567.039 60.267C567.039 60.0986 567.097 59.9607 567.211 59.8535C567.326 59.7386 567.464 59.6812 567.625 59.6812C567.786 59.6812 567.924 59.7386 568.039 59.8535C568.153 59.9607 568.211 60.0986 568.211 60.267C568.211 60.4355 568.153 60.5772 568.039 60.692C567.924 60.8069 567.786 60.8643 567.625 60.8643ZM568.027 62.0475V68.3192H567.223V62.0475H568.027ZM570.273 67.653H573.558V68.3192H569.354V67.653L572.582 62.7137H569.411V62.0475H573.501V62.7137L570.273 67.653ZM574.551 65.1719C574.551 64.5286 574.677 63.9658 574.93 63.4833C575.19 62.9932 575.546 62.618 575.998 62.3576C576.457 62.0896 576.974 61.9556 577.549 61.9556C578.146 61.9556 578.659 62.0934 579.088 62.3691C579.524 62.6448 579.838 62.997 580.03 63.4259V62.0475H580.834V68.3192H580.03V66.9293C579.831 67.3582 579.513 67.7142 579.076 67.9976C578.648 68.2733 578.134 68.4111 577.537 68.4111C576.97 68.4111 576.457 68.2771 575.998 68.0091C575.546 67.741 575.19 67.362 574.93 66.8719C574.677 66.3818 574.551 65.8151 574.551 65.1719ZM580.03 65.1833C580.03 64.6779 579.926 64.2338 579.72 63.8509C579.513 63.468 579.23 63.1732 578.87 62.9664C578.517 62.7596 578.127 62.6563 577.698 62.6563C577.254 62.6563 576.856 62.7558 576.503 62.9549C576.151 63.154 575.872 63.445 575.665 63.8279C575.466 64.2031 575.366 64.6511 575.366 65.1719C575.366 65.6849 575.466 66.1367 575.665 66.5273C575.872 66.9102 576.151 67.205 576.503 67.4118C576.856 67.6109 577.254 67.7104 577.698 67.7104C578.127 67.7104 578.517 67.607 578.87 67.4003C579.23 67.1935 579.513 66.8987 579.72 66.5158C579.926 66.1329 580.03 65.6888 580.03 65.1833ZM583.715 62.7252V66.6192C583.715 67.0021 583.788 67.2663 583.933 67.4118C584.078 67.5573 584.335 67.63 584.703 67.63H585.438V68.3192H584.576C584.01 68.3192 583.588 68.189 583.313 67.9287C583.037 67.6606 582.899 67.2241 582.899 66.6192V62.7252H582.026V62.0475H582.899V60.4738H583.715V62.0475H585.438V62.7252H583.715ZM587.166 60.8643C587.005 60.8643 586.867 60.8069 586.752 60.692C586.637 60.5772 586.58 60.4355 586.58 60.267C586.58 60.0986 586.637 59.9607 586.752 59.8535C586.867 59.7386 587.005 59.6812 587.166 59.6812C587.327 59.6812 587.465 59.7386 587.579 59.8535C587.694 59.9607 587.752 60.0986 587.752 60.267C587.752 60.4355 587.694 60.5772 587.579 60.692C587.465 60.8069 587.327 60.8643 587.166 60.8643ZM587.568 62.0475V68.3192H586.764V62.0475H587.568ZM592.134 68.4111C591.544 68.4111 591.012 68.2809 590.537 68.0206C590.07 67.7525 589.699 67.3773 589.423 66.8949C589.155 66.4048 589.021 65.8343 589.021 65.1833C589.021 64.5324 589.159 63.9658 589.435 63.4833C589.71 62.9932 590.086 62.618 590.56 62.3576C591.035 62.0896 591.567 61.9556 592.157 61.9556C592.747 61.9556 593.279 62.0896 593.754 62.3576C594.236 62.618 594.611 62.9932 594.879 63.4833C595.155 63.9658 595.293 64.5324 595.293 65.1833C595.293 65.8266 595.155 66.3933 594.879 66.8834C594.604 67.3735 594.225 67.7525 593.742 68.0206C593.26 68.2809 592.724 68.4111 592.134 68.4111ZM592.134 67.7104C592.548 67.7104 592.93 67.6185 593.283 67.4347C593.635 67.2433 593.918 66.96 594.133 66.5847C594.355 66.2018 594.466 65.7347 594.466 65.1833C594.466 64.632 594.359 64.1687 594.144 63.7935C593.93 63.4106 593.646 63.1272 593.294 62.9434C592.942 62.752 592.559 62.6563 592.146 62.6563C591.732 62.6563 591.349 62.752 590.997 62.9434C590.645 63.1272 590.361 63.4106 590.147 63.7935C589.94 64.1687 589.837 64.632 589.837 65.1833C589.837 65.7347 589.94 66.2018 590.147 66.5847C590.361 66.96 590.641 67.2433 590.985 67.4347C591.338 67.6185 591.721 67.7104 592.134 67.7104ZM599.699 61.9326C600.45 61.9326 601.062 62.1662 601.537 62.6333C602.012 63.0928 602.249 63.7628 602.249 64.6435V68.3192H601.457V64.7354C601.457 64.0538 601.284 63.5331 600.94 63.1732C600.603 62.8133 600.14 62.6333 599.55 62.6333C598.945 62.6333 598.462 62.8247 598.103 63.2076C597.743 63.5905 597.563 64.1534 597.563 64.8962V68.3192H596.759V62.0475H597.563V63.1157C597.762 62.7328 598.049 62.4418 598.424 62.2427C598.799 62.036 599.224 61.9326 599.699 61.9326Z" fill="#1A364A"/>
<path d="M175.954 227.637L171.847 237.256H169.654L173.792 227.884H168.512V226.031H175.954V227.637ZM177.001 228.764C177.001 227.982 177.228 227.369 177.681 226.927C178.144 226.484 178.736 226.263 179.456 226.263C180.177 226.263 180.764 226.484 181.217 226.927C181.68 227.369 181.911 227.982 181.911 228.764C181.911 229.557 181.68 230.174 181.217 230.617C180.764 231.06 180.177 231.281 179.456 231.281C178.736 231.281 178.144 231.06 177.681 230.617C177.228 230.174 177.001 229.557 177.001 228.764ZM186.914 226.448L180.846 237.256H178.746L184.799 226.448H186.914ZM179.441 227.56C178.875 227.56 178.592 227.961 178.592 228.764C178.592 229.577 178.875 229.984 179.441 229.984C179.719 229.984 179.935 229.886 180.089 229.691C180.244 229.485 180.321 229.176 180.321 228.764C180.321 227.961 180.028 227.56 179.441 227.56ZM183.78 234.925C183.78 234.132 184.006 233.52 184.459 233.087C184.922 232.645 185.514 232.424 186.235 232.424C186.955 232.424 187.537 232.645 187.979 233.087C188.432 233.52 188.659 234.132 188.659 234.925C188.659 235.717 188.432 236.335 187.979 236.778C187.537 237.22 186.955 237.442 186.235 237.442C185.504 237.442 184.912 237.22 184.459 236.778C184.006 236.335 183.78 235.717 183.78 234.925ZM186.219 233.721C185.633 233.721 185.339 234.122 185.339 234.925C185.339 235.738 185.633 236.145 186.219 236.145C186.796 236.145 187.084 235.738 187.084 234.925C187.084 234.122 186.796 233.721 186.219 233.721Z" fill="#0D6EFD"/>
<path d="M297.814 167.215V165.223H301.535V176.479H299.312V167.215H297.814ZM303.578 174.286V172.588L308.627 165.362H311.144V172.403H312.503V174.286H311.144V176.479H308.982V174.286H303.578ZM309.121 167.678L305.956 172.403H309.121V167.678ZM313.632 167.987C313.632 167.204 313.858 166.592 314.311 166.149C314.774 165.707 315.366 165.485 316.087 165.485C316.807 165.485 317.394 165.707 317.847 166.149C318.31 166.592 318.542 167.204 318.542 167.987C318.542 168.779 318.31 169.397 317.847 169.84C317.394 170.282 316.807 170.504 316.087 170.504C315.366 170.504 314.774 170.282 314.311 169.84C313.858 169.397 313.632 168.779 313.632 167.987ZM323.544 165.671L317.476 176.479H315.376L321.429 165.671H323.544ZM316.071 166.782C315.505 166.782 315.222 167.184 315.222 167.987C315.222 168.8 315.505 169.207 316.071 169.207C316.349 169.207 316.565 169.109 316.72 168.913C316.874 168.707 316.951 168.398 316.951 167.987C316.951 167.184 316.658 166.782 316.071 166.782ZM320.41 174.147C320.41 173.355 320.636 172.742 321.089 172.31C321.553 171.867 322.144 171.646 322.865 171.646C323.585 171.646 324.167 171.867 324.61 172.31C325.063 172.742 325.289 173.355 325.289 174.147C325.289 174.94 325.063 175.558 324.61 176C324.167 176.443 323.585 176.664 322.865 176.664C322.134 176.664 321.542 176.443 321.089 176C320.636 175.558 320.41 174.94 320.41 174.147ZM322.85 172.943C322.263 172.943 321.969 173.345 321.969 174.147C321.969 174.961 322.263 175.367 322.85 175.367C323.426 175.367 323.714 174.961 323.714 174.147C323.714 173.345 323.426 172.943 322.85 172.943Z" fill="#0D6EFD"/>
<g filter="url(#filter0_d_6598_10838)">
<path d="M457.046 45.9254C458.232 44.9372 459.177 44.1158 459.881 43.4611C460.585 42.7941 461.171 42.1024 461.641 41.386C462.11 40.6695 462.345 39.9655 462.345 39.2737C462.345 38.6438 462.197 38.1497 461.9 37.7915C461.604 37.4333 461.147 37.2541 460.529 37.2541C459.911 37.2541 459.436 37.4641 459.102 37.8841C458.769 38.2917 458.596 38.8538 458.584 39.5702H456.064C456.113 38.0879 456.552 36.9639 457.379 36.198C458.219 35.4322 459.282 35.0493 460.566 35.0493C461.974 35.0493 463.055 35.426 463.809 36.1795C464.562 36.9206 464.939 37.9026 464.939 39.1255C464.939 40.089 464.679 41.0092 464.161 41.8862C463.642 42.7632 463.049 43.5291 462.382 44.1837C461.715 44.826 460.844 45.6042 459.769 46.5183H465.235V48.6676H456.082V46.7406L457.046 45.9254ZM473.873 38.7179C473.75 38.1991 473.534 37.81 473.225 37.5506C472.929 37.2912 472.496 37.1615 471.928 37.1615C471.076 37.1615 470.446 37.5074 470.038 38.1991C469.643 38.8785 469.439 39.9902 469.427 41.5342C469.723 41.0401 470.155 40.6572 470.724 40.3854C471.292 40.1013 471.91 39.9593 472.577 39.9593C473.379 39.9593 474.09 40.1322 474.707 40.4781C475.325 40.8239 475.807 41.3304 476.152 41.9974C476.498 42.6521 476.671 43.4426 476.671 44.369C476.671 45.246 476.492 46.0304 476.134 46.7221C475.788 47.4015 475.275 47.9326 474.596 48.3155C473.917 48.6984 473.108 48.8899 472.169 48.8899C470.884 48.8899 469.871 48.6058 469.13 48.0376C468.401 47.4694 467.889 46.6789 467.592 45.666C467.308 44.6408 467.166 43.3808 467.166 41.8862C467.166 39.6258 467.555 37.9212 468.334 36.7724C469.112 35.6113 470.341 35.0308 472.021 35.0308C473.318 35.0308 474.324 35.3828 475.041 36.0869C475.757 36.7909 476.171 37.6679 476.282 38.7179H473.873ZM471.984 42.09C471.329 42.09 470.779 42.2815 470.335 42.6644C469.89 43.0473 469.668 43.6032 469.668 44.3319C469.668 45.0607 469.871 45.6351 470.279 46.0551C470.699 46.475 471.286 46.685 472.039 46.685C472.706 46.685 473.231 46.4812 473.614 46.0736C474.009 45.666 474.207 45.1163 474.207 44.4246C474.207 43.7082 474.016 43.14 473.633 42.72C473.262 42.3 472.712 42.09 471.984 42.09ZM478.425 38.6623C478.425 37.7235 478.697 36.9886 479.24 36.4574C479.796 35.9263 480.506 35.6607 481.371 35.6607C482.236 35.6607 482.94 35.9263 483.483 36.4574C484.039 36.9886 484.317 37.7235 484.317 38.6623C484.317 39.6134 484.039 40.3545 483.483 40.8857C482.94 41.4168 482.236 41.6824 481.371 41.6824C480.506 41.6824 479.796 41.4168 479.24 40.8857C478.697 40.3545 478.425 39.6134 478.425 38.6623ZM490.32 35.8831L483.038 48.8528H480.519L487.782 35.8831H490.32ZM481.352 37.2171C480.673 37.2171 480.333 37.6988 480.333 38.6623C480.333 39.6381 480.673 40.126 481.352 40.126C481.686 40.126 481.945 40.0087 482.131 39.774C482.316 39.5269 482.409 39.1564 482.409 38.6623C482.409 37.6988 482.056 37.2171 481.352 37.2171ZM486.559 46.0551C486.559 45.104 486.831 44.369 487.374 43.8502C487.93 43.3191 488.64 43.0535 489.505 43.0535C490.369 43.0535 491.067 43.3191 491.599 43.8502C492.142 44.369 492.414 45.104 492.414 46.0551C492.414 47.0062 492.142 47.7473 491.599 48.2785C491.067 48.8096 490.369 49.0752 489.505 49.0752C488.628 49.0752 487.918 48.8096 487.374 48.2785C486.831 47.7473 486.559 47.0062 486.559 46.0551ZM489.486 44.6099C488.782 44.6099 488.43 45.0916 488.43 46.0551C488.43 47.0309 488.782 47.5188 489.486 47.5188C490.178 47.5188 490.524 47.0309 490.524 46.0551C490.524 45.0916 490.178 44.6099 489.486 44.6099Z" fill="#0D6EFD"/>
</g>
<path opacity="0.6" d="M495.815 311.994H511.904V117.504H495.815" stroke="#667986" stroke-width="0.715036"/>
<path opacity="0.6" d="M495.815 17.7562H511.904V110.353H495.815" stroke="#667986" stroke-width="0.715036"/>
<line opacity="0.25" x1="45.7002" y1="312.16" x2="474.361" y2="312.16" stroke="#FCFDFD" stroke-width="0.496135" stroke-dasharray="4.47 4.47"/>
<path d="M474.722 310.206H47.8452L474.722 118.934V310.206Z" fill="#0D6EFD" fill-opacity="0.15"/>
<path d="M474.365 119.649L314.197 191.511L474.365 118.118V119.649Z" fill="#0D6EFD" fill-opacity="0.3"/>
<path d="M460.845 105.933C461.834 105.109 462.621 104.425 463.208 103.879C463.794 103.323 464.283 102.747 464.675 102.15C465.066 101.553 465.261 100.966 465.261 100.39C465.261 99.8648 465.138 99.453 464.891 99.1545C464.644 98.856 464.263 98.7067 463.748 98.7067C463.233 98.7067 462.837 98.8817 462.559 99.2317C462.281 99.5714 462.137 100.04 462.127 100.637H460.027C460.068 99.4015 460.434 98.4648 461.123 97.8266C461.823 97.1884 462.708 96.8693 463.779 96.8693C464.952 96.8693 465.853 97.1833 466.481 97.8112C467.109 98.4288 467.423 99.2471 467.423 100.266C467.423 101.069 467.207 101.836 466.774 102.567C466.342 103.298 465.848 103.936 465.292 104.481C464.736 105.017 464.011 105.665 463.115 106.427H467.67V108.218H460.042V106.612L460.845 105.933ZM468.77 99.1082V97.1164H472.491V108.372H470.267V99.1082H468.77ZM474.379 99.8802C474.379 99.0979 474.606 98.4854 475.058 98.0428C475.522 97.6002 476.114 97.3789 476.834 97.3789C477.555 97.3789 478.141 97.6002 478.594 98.0428C479.057 98.4854 479.289 99.0979 479.289 99.8802C479.289 100.673 479.057 101.29 478.594 101.733C478.141 102.176 477.555 102.397 476.834 102.397C476.114 102.397 475.522 102.176 475.058 101.733C474.606 101.29 474.379 100.673 474.379 99.8802ZM484.292 97.5642L478.224 108.372H476.124L482.176 97.5642H484.292ZM476.819 98.6759C476.252 98.6759 475.969 99.0773 475.969 99.8802C475.969 100.693 476.252 101.1 476.819 101.1C477.097 101.1 477.313 101.002 477.467 100.807C477.622 100.601 477.699 100.292 477.699 99.8802C477.699 99.0773 477.405 98.6759 476.819 98.6759ZM481.157 106.041C481.157 105.248 481.384 104.636 481.837 104.203C482.3 103.761 482.892 103.54 483.612 103.54C484.333 103.54 484.914 103.761 485.357 104.203C485.81 104.636 486.036 105.248 486.036 106.041C486.036 106.833 485.81 107.451 485.357 107.894C484.914 108.336 484.333 108.558 483.612 108.558C482.881 108.558 482.29 108.336 481.837 107.894C481.384 107.451 481.157 106.833 481.157 106.041ZM483.597 104.837C483.01 104.837 482.717 105.238 482.717 106.041C482.717 106.854 483.01 107.261 483.597 107.261C484.173 107.261 484.462 106.854 484.462 106.041C484.462 105.238 484.173 104.837 483.597 104.837Z" fill="#1269E8"/>
<path d="M46.4167 310.564L178.341 251.931" stroke="#0D6EFD" stroke-width="2.14511" stroke-linecap="round"/>
<path d="M179.771 251.216L312.767 192.225L474.402 60.6033" stroke="#0D6EFD" stroke-width="2.14511" stroke-linecap="round"/>
<line opacity="0.15" x1="178.34" y1="252.289" x2="178.34" y2="311.637" stroke="#F7F8F9" stroke-width="0.715036"/>
<line opacity="0.15" x1="313.482" y1="189.365" x2="313.482" y2="311.637" stroke="#F7F8F9" stroke-width="0.715036"/>
<path opacity="0.15" d="M474.99 119.291C474.99 119.094 474.83 118.934 474.633 118.934C474.435 118.934 474.275 119.094 474.275 119.291H474.99ZM474.99 311.638V119.291H474.275V311.638H474.99Z" fill="#F7F8F9"/>
<circle cx="178.335" cy="251.676" r="3.86006" fill="#0D6EFD"/>
<circle cx="46.3215" cy="310.348" r="3.86006" fill="#0D6EFD"/>
<circle cx="474.402" cy="117.732" r="3.47405" fill="#1269E8"/>
<circle cx="313.437" cy="191.459" r="3.86006" fill="#0D6EFD"/>
<circle cx="474.015" cy="60.217" r="3.86006" fill="#0D6EFD"/>
<defs>
<filter id="filter0_d_6598_10838" x="439.08" y="18.0465" width="70.3181" height="48.0129" filterUnits="userSpaceOnUse" color-interpolation-filters="sRGB">
<feFlood flood-opacity="0" result="BackgroundImageFix"/>
<feColorMatrix in="SourceAlpha" type="matrix" values="0 0 0 0 0 0 0 0 0 0 0 0 0 0 0 0 0 0 127 0" result="hardAlpha"/>
<feOffset/>
<feGaussianBlur stdDeviation="8.49212"/>
<feComposite in2="hardAlpha" operator="out"/>
<feColorMatrix type="matrix" values="0 0 0 0 0.137255 0 0 0 0 0.511216 0 0 0 0 0.721569 0 0 0 0.25 0"/>
<feBlend mode="normal" in2="BackgroundImageFix" result="effect1_dropShadow_6598_10838"/>
<feBlend mode="normal" in="SourceGraphic" in2="effect1_dropShadow_6598_10838" result="shape"/>
</filter>
</defs>
</svg>
