<svg width="655" height="371" viewBox="0 0 655 371" fill="none" xmlns="http://www.w3.org/2000/svg">
<rect opacity="0.15" width="655" height="370.334" rx="13.8931" fill="#1A364A"/>
<path opacity="0.5" d="M53.7761 319.978C55.1361 318.886 56.2016 317.991 56.9726 317.295C57.7436 316.589 58.3914 315.855 58.9162 315.095C59.4516 314.324 59.7193 313.569 59.7193 312.83C59.7193 312.134 59.548 311.588 59.2053 311.192C58.8733 310.785 58.3326 310.581 57.583 310.581C56.8548 310.581 56.2872 310.811 55.8803 311.272C55.4841 311.722 55.2699 312.327 55.2378 313.087H53.8243C53.8671 311.888 54.2312 310.961 54.9166 310.308C55.6019 309.655 56.4853 309.328 57.5669 309.328C58.6699 309.328 59.5426 309.633 60.1851 310.244C60.8383 310.854 61.1649 311.695 61.1649 312.766C61.1649 313.654 60.8972 314.522 60.3618 315.368C59.8371 316.203 59.2374 316.942 58.5628 317.584C57.8881 318.216 57.0261 318.955 55.9767 319.801H61.5023V321.022H53.7761V319.978ZM63.192 315.223C63.192 313.381 63.4918 311.946 64.0915 310.918C64.6912 309.88 65.7406 309.36 67.2398 309.36C68.7282 309.36 69.7723 309.88 70.372 310.918C70.9717 311.946 71.2715 313.381 71.2715 315.223C71.2715 317.097 70.9717 318.554 70.372 319.592C69.7723 320.631 68.7282 321.15 67.2398 321.15C65.7406 321.15 64.6912 320.631 64.0915 319.592C63.4918 318.554 63.192 317.097 63.192 315.223ZM69.8259 315.223C69.8259 314.292 69.7616 313.505 69.6331 312.862C69.5153 312.209 69.2637 311.684 68.8782 311.288C68.5034 310.892 67.9572 310.694 67.2398 310.694C66.5116 310.694 65.9547 310.892 65.5692 311.288C65.1944 311.684 64.9428 312.209 64.8143 312.862C64.6965 313.505 64.6376 314.292 64.6376 315.223C64.6376 316.187 64.6965 316.996 64.8143 317.649C64.9428 318.302 65.1944 318.827 65.5692 319.223C65.9547 319.619 66.5116 319.817 67.2398 319.817C67.9572 319.817 68.5034 319.619 68.8782 319.223C69.2637 318.827 69.5153 318.302 69.6331 317.649C69.7616 316.996 69.8259 316.187 69.8259 315.223ZM72.8927 310.87V309.537H75.9125V321.15H74.4347V310.87H72.8927ZM85.8282 310.806H80.1902V314.468C80.4365 314.126 80.8005 313.847 81.2824 313.633C81.7643 313.408 82.2837 313.296 82.8405 313.296C83.7293 313.296 84.4521 313.483 85.009 313.858C85.5658 314.222 85.962 314.699 86.1976 315.288C86.4439 315.866 86.567 316.482 86.567 317.135C86.567 317.906 86.4225 318.596 86.1334 319.207C85.8442 319.817 85.3998 320.299 84.8002 320.652C84.2112 321.006 83.4777 321.183 82.5996 321.183C81.4752 321.183 80.565 320.893 79.8689 320.315C79.1729 319.737 78.7499 318.966 78.6 318.002H80.0295C80.1687 318.612 80.4632 319.089 80.913 319.432C81.3627 319.774 81.9303 319.946 82.6156 319.946C83.4616 319.946 84.0987 319.694 84.5271 319.191C84.9554 318.677 85.1696 318.002 85.1696 317.167C85.1696 316.332 84.9554 315.689 84.5271 315.239C84.0987 314.779 83.4669 314.549 82.6317 314.549C82.0641 314.549 81.5662 314.688 81.1379 314.966C80.7202 315.234 80.415 315.603 80.2223 316.075H78.8409V309.521H85.8282V310.806Z" fill="#FCFDFD"/>
<g filter="url(#filter0_b_6432_12058)">
<rect x="49.9343" y="143.417" width="40.6017" height="152.71" rx="5.35422" fill="#0D6EFD" fill-opacity="0.5"/>
<rect x="50.3805" y="143.863" width="39.7094" height="151.818" rx="4.90804" stroke="#0D6EFD" stroke-opacity="0.3" stroke-width="0.892371"/>
</g>
<g filter="url(#filter1_d_6432_12058)">
<path d="M60.7593 124.832C60.7593 125.398 60.618 125.929 60.3354 126.426C60.0641 126.923 59.6572 127.342 59.1147 127.681C58.5834 128.02 57.9504 128.223 57.2157 128.291V129.665H56.1136V128.291C55.0511 128.189 54.192 127.856 53.5364 127.291C52.8809 126.726 52.5531 125.98 52.5531 125.053H54.6216C54.6555 125.494 54.7968 125.861 55.0454 126.155C55.2941 126.437 55.6502 126.618 56.1136 126.697V122.967C55.3563 122.775 54.7403 122.583 54.2655 122.391C53.7908 122.187 53.3839 121.871 53.0447 121.441C52.717 121.012 52.5531 120.424 52.5531 119.678C52.5531 118.74 52.8809 117.966 53.5364 117.355C54.192 116.733 55.0511 116.372 56.1136 116.27V114.897H57.2157V116.27C58.2104 116.36 59.0073 116.677 59.6064 117.22C60.2167 117.751 60.5615 118.486 60.6406 119.424H58.5721C58.5382 119.073 58.4025 118.762 58.1652 118.491C57.9278 118.209 57.6113 118.016 57.2157 117.915V121.577C57.973 121.758 58.589 121.95 59.0638 122.153C59.5385 122.346 59.9398 122.656 60.2676 123.086C60.5954 123.504 60.7593 124.086 60.7593 124.832ZM54.5198 119.576C54.5198 120.04 54.6555 120.401 54.9268 120.661C55.2093 120.921 55.605 121.131 56.1136 121.289V117.864C55.6276 117.92 55.2376 118.096 54.9437 118.389C54.6611 118.683 54.5198 119.079 54.5198 119.576ZM57.2157 126.697C57.713 126.618 58.103 126.42 58.3856 126.104C58.6682 125.776 58.8095 125.386 58.8095 124.934C58.8095 124.482 58.6682 124.132 58.3856 123.883C58.1143 123.623 57.7243 123.414 57.2157 123.256V126.697ZM70.2268 118.695C70.1025 118.175 69.8764 117.785 69.5486 117.525C69.2208 117.265 68.763 117.135 68.1753 117.135C67.2823 117.135 66.6154 117.48 66.1746 118.169C65.7337 118.847 65.502 119.978 65.4794 121.56C65.7733 121.063 66.2028 120.678 66.768 120.407C67.3332 120.136 67.9435 120 68.5991 120C69.3452 120 70.0008 120.164 70.5659 120.492C71.1424 120.808 71.5889 121.272 71.9054 121.882C72.2332 122.493 72.3971 123.222 72.3971 124.069C72.3971 124.861 72.2388 125.567 71.9223 126.189C71.6171 126.81 71.1594 127.302 70.549 127.664C69.9386 128.014 69.2039 128.189 68.3448 128.189C67.1806 128.189 66.265 127.935 65.5981 127.426C64.9425 126.907 64.4791 126.177 64.2078 125.239C63.9478 124.301 63.8178 123.131 63.8178 121.73C63.8178 117.593 65.276 115.524 68.1922 115.524C69.3226 115.524 70.2099 115.829 70.8542 116.44C71.5098 117.05 71.8941 117.802 72.0071 118.695H70.2268ZM68.1753 121.628C67.4858 121.628 66.898 121.837 66.4119 122.255C65.9372 122.662 65.6998 123.256 65.6998 124.035C65.6998 124.815 65.9202 125.437 66.3611 125.901C66.8132 126.353 67.4406 126.579 68.2431 126.579C68.9552 126.579 69.5147 126.358 69.9216 125.917C70.3399 125.477 70.549 124.889 70.549 124.154C70.549 123.386 70.3455 122.775 69.9386 122.323C69.543 121.86 68.9552 121.628 68.1753 121.628ZM75.4931 128.308C75.1427 128.308 74.8488 128.189 74.6114 127.952C74.3741 127.715 74.2554 127.421 74.2554 127.07C74.2554 126.72 74.3741 126.426 74.6114 126.189C74.8488 125.951 75.1427 125.833 75.4931 125.833C75.8322 125.833 76.1204 125.951 76.3578 126.189C76.5952 126.426 76.7139 126.72 76.7139 127.07C76.7139 127.421 76.5952 127.715 76.3578 127.952C76.1204 128.189 75.8322 128.308 75.4931 128.308ZM79.6167 125.561C80.7019 124.623 81.5553 123.855 82.177 123.256C82.8099 122.645 83.3355 122.012 83.7538 121.357C84.172 120.701 84.3811 120.045 84.3811 119.39C84.3811 118.712 84.2172 118.18 83.8894 117.796C83.5729 117.412 83.0699 117.22 82.3804 117.22C81.7135 117.22 81.1936 117.434 80.8205 117.864C80.4588 118.282 80.2667 118.847 80.2441 119.559H78.379C78.4129 118.271 78.7972 117.287 79.532 116.609C80.278 115.92 81.2218 115.575 82.3635 115.575C83.5955 115.575 84.5563 115.914 85.2458 116.592C85.9466 117.27 86.297 118.175 86.297 119.305C86.297 120.119 86.0879 120.904 85.6697 121.662C85.2628 122.408 84.7711 123.08 84.1946 123.679C83.6294 124.267 82.906 124.951 82.0244 125.731L81.2614 126.409H86.6361V128.02H78.396V126.613L79.6167 125.561Z" fill="#FCFDFD"/>
</g>
<path opacity="0.5" d="M127.056 319.978C128.416 318.886 129.482 317.991 130.253 317.295C131.024 316.589 131.671 315.855 132.196 315.095C132.732 314.324 132.999 313.569 132.999 312.83C132.999 312.134 132.828 311.588 132.485 311.192C132.153 310.785 131.613 310.581 130.863 310.581C130.135 310.581 129.567 310.811 129.16 311.272C128.764 311.722 128.55 312.327 128.518 313.087H127.104C127.147 311.888 127.511 310.961 128.197 310.308C128.882 309.655 129.765 309.328 130.847 309.328C131.95 309.328 132.823 309.633 133.465 310.244C134.118 310.854 134.445 311.695 134.445 312.766C134.445 313.654 134.177 314.522 133.642 315.368C133.117 316.203 132.517 316.942 131.843 317.584C131.168 318.216 130.306 318.955 129.257 319.801H134.782V321.022H127.056V319.978ZM136.472 315.223C136.472 313.381 136.772 311.946 137.371 310.918C137.971 309.88 139.021 309.36 140.52 309.36C142.008 309.36 143.052 309.88 143.652 310.918C144.252 311.946 144.551 313.381 144.551 315.223C144.551 317.097 144.252 318.554 143.652 319.592C143.052 320.631 142.008 321.15 140.52 321.15C139.021 321.15 137.971 320.631 137.371 319.592C136.772 318.554 136.472 317.097 136.472 315.223ZM143.106 315.223C143.106 314.292 143.042 313.505 142.913 312.862C142.795 312.209 142.544 311.684 142.158 311.288C141.783 310.892 141.237 310.694 140.52 310.694C139.792 310.694 139.235 310.892 138.849 311.288C138.474 311.684 138.223 312.209 138.094 312.862C137.976 313.505 137.918 314.292 137.918 315.223C137.918 316.187 137.976 316.996 138.094 317.649C138.223 318.302 138.474 318.827 138.849 319.223C139.235 319.619 139.792 319.817 140.52 319.817C141.237 319.817 141.783 319.619 142.158 319.223C142.544 318.827 142.795 318.302 142.913 317.649C143.042 316.996 143.106 316.187 143.106 315.223ZM146.173 310.87V309.537H149.192V321.15H147.715V310.87H146.173ZM158.177 312.3C157.941 311.111 157.207 310.517 155.976 310.517C155.023 310.517 154.311 310.886 153.84 311.625C153.368 312.353 153.138 313.558 153.149 315.239C153.395 314.682 153.802 314.249 154.37 313.938C154.948 313.617 155.59 313.456 156.297 313.456C157.4 313.456 158.278 313.799 158.931 314.484C159.595 315.17 159.927 316.117 159.927 317.327C159.927 318.056 159.783 318.709 159.494 319.287C159.215 319.865 158.787 320.326 158.209 320.669C157.641 321.011 156.95 321.183 156.137 321.183C155.034 321.183 154.172 320.936 153.55 320.444C152.929 319.951 152.496 319.271 152.249 318.404C152.003 317.536 151.88 316.465 151.88 315.191C151.88 311.261 153.251 309.296 155.992 309.296C157.041 309.296 157.866 309.58 158.466 310.147C159.065 310.715 159.419 311.432 159.526 312.3H158.177ZM155.992 314.693C155.532 314.693 155.098 314.79 154.691 314.982C154.284 315.164 153.952 315.448 153.695 315.834C153.449 316.208 153.326 316.669 153.326 317.215C153.326 318.029 153.561 318.693 154.032 319.207C154.504 319.71 155.178 319.962 156.056 319.962C156.806 319.962 157.4 319.732 157.839 319.271C158.289 318.8 158.514 318.168 158.514 317.376C158.514 316.54 158.3 315.887 157.871 315.416C157.443 314.934 156.817 314.693 155.992 314.693Z" fill="#FCFDFD"/>
<g filter="url(#filter2_b_6432_12058)">
<rect x="122.829" y="143.416" width="40.6017" height="152.71" rx="5.35422" fill="#0D6EFD" fill-opacity="0.5"/>
<rect x="123.275" y="143.862" width="39.7094" height="151.818" rx="4.90804" stroke="#0D6EFD" stroke-opacity="0.3" stroke-width="0.892371"/>
</g>
<g filter="url(#filter3_d_6432_12058)">
<path d="M134.557 124.787C134.557 125.353 134.416 125.884 134.133 126.381C133.862 126.879 133.455 127.297 132.912 127.636C132.381 127.975 131.748 128.178 131.013 128.246V129.62H129.911V128.246C128.849 128.145 127.99 127.811 127.334 127.246C126.678 126.681 126.351 125.935 126.351 125.008H128.419C128.453 125.449 128.594 125.816 128.843 126.11C129.092 126.393 129.448 126.573 129.911 126.652V122.922C129.154 122.73 128.538 122.538 128.063 122.346C127.588 122.142 127.181 121.826 126.842 121.396C126.514 120.967 126.351 120.379 126.351 119.633C126.351 118.695 126.678 117.921 127.334 117.31C127.99 116.689 128.849 116.327 129.911 116.225V114.852H131.013V116.225C132.008 116.316 132.805 116.632 133.404 117.175C134.014 117.706 134.359 118.441 134.438 119.379H132.37C132.336 119.028 132.2 118.718 131.963 118.446C131.725 118.164 131.409 117.972 131.013 117.87V121.532C131.771 121.713 132.387 121.905 132.861 122.109C133.336 122.301 133.737 122.612 134.065 123.041C134.393 123.459 134.557 124.041 134.557 124.787ZM128.317 119.531C128.317 119.995 128.453 120.357 128.724 120.616C129.007 120.876 129.402 121.086 129.911 121.244V117.819C129.425 117.875 129.035 118.051 128.741 118.345C128.459 118.638 128.317 119.034 128.317 119.531ZM131.013 126.652C131.511 126.573 131.901 126.376 132.183 126.059C132.466 125.731 132.607 125.341 132.607 124.889C132.607 124.437 132.466 124.087 132.183 123.838C131.912 123.578 131.522 123.369 131.013 123.211V126.652ZM144.024 118.65C143.9 118.13 143.674 117.74 143.346 117.48C143.018 117.22 142.561 117.09 141.973 117.09C141.08 117.09 140.413 117.435 139.972 118.124C139.531 118.802 139.3 119.933 139.277 121.515C139.571 121.018 140 120.633 140.566 120.362C141.131 120.091 141.741 119.955 142.397 119.955C143.143 119.955 143.798 120.119 144.363 120.447C144.94 120.763 145.386 121.227 145.703 121.837C146.031 122.448 146.195 123.177 146.195 124.024C146.195 124.816 146.036 125.522 145.72 126.144C145.415 126.766 144.957 127.257 144.346 127.619C143.736 127.969 143.001 128.145 142.142 128.145C140.978 128.145 140.063 127.89 139.396 127.382C138.74 126.862 138.277 126.133 138.005 125.194C137.745 124.256 137.615 123.086 137.615 121.685C137.615 117.548 139.073 115.479 141.99 115.479C143.12 115.479 144.007 115.784 144.652 116.395C145.307 117.005 145.692 117.757 145.805 118.65H144.024ZM141.973 121.583C141.283 121.583 140.695 121.792 140.209 122.21C139.735 122.617 139.497 123.211 139.497 123.991C139.497 124.77 139.718 125.392 140.159 125.856C140.611 126.308 141.238 126.534 142.041 126.534C142.753 126.534 143.312 126.313 143.719 125.873C144.137 125.432 144.346 124.844 144.346 124.109C144.346 123.341 144.143 122.73 143.736 122.278C143.34 121.815 142.753 121.583 141.973 121.583ZM149.291 128.263C148.94 128.263 148.646 128.145 148.409 127.907C148.172 127.67 148.053 127.376 148.053 127.025C148.053 126.675 148.172 126.381 148.409 126.144C148.646 125.906 148.94 125.788 149.291 125.788C149.63 125.788 149.918 125.906 150.155 126.144C150.393 126.381 150.511 126.675 150.511 127.025C150.511 127.376 150.393 127.67 150.155 127.907C149.918 128.145 149.63 128.263 149.291 128.263ZM153.414 125.517C154.499 124.578 155.353 123.81 155.974 123.211C156.607 122.6 157.133 121.967 157.551 121.312C157.97 120.656 158.179 120 158.179 119.345C158.179 118.667 158.015 118.135 157.687 117.751C157.37 117.367 156.867 117.175 156.178 117.175C155.511 117.175 154.991 117.389 154.618 117.819C154.256 118.237 154.064 118.802 154.042 119.514H152.177C152.21 118.226 152.595 117.242 153.329 116.564C154.075 115.875 155.019 115.53 156.161 115.53C157.393 115.53 158.354 115.869 159.043 116.547C159.744 117.225 160.095 118.13 160.095 119.26C160.095 120.074 159.885 120.86 159.467 121.617C159.06 122.363 158.569 123.035 157.992 123.634C157.427 124.222 156.704 124.906 155.822 125.686L155.059 126.364H160.434V127.975H152.193V126.568L153.414 125.517Z" fill="#FCFDFD"/>
</g>
<path opacity="0.5" d="M200.663 319.979C202.023 318.887 203.089 317.992 203.86 317.296C204.631 316.59 205.278 315.856 205.803 315.096C206.339 314.325 206.606 313.57 206.606 312.831C206.606 312.135 206.435 311.589 206.092 311.193C205.76 310.786 205.219 310.582 204.47 310.582C203.742 310.582 203.174 310.812 202.767 311.273C202.371 311.723 202.157 312.328 202.125 313.088H200.711C200.754 311.889 201.118 310.962 201.803 310.309C202.489 309.656 203.372 309.329 204.454 309.329C205.557 309.329 206.43 309.634 207.072 310.245C207.725 310.855 208.052 311.696 208.052 312.767C208.052 313.655 207.784 314.523 207.249 315.369C206.724 316.204 206.124 316.943 205.45 317.585C204.775 318.217 203.913 318.956 202.864 319.802H208.389V321.023H200.663V319.979ZM210.079 315.224C210.079 313.382 210.379 311.947 210.978 310.919C211.578 309.881 212.628 309.361 214.127 309.361C215.615 309.361 216.659 309.881 217.259 310.919C217.859 311.947 218.158 313.382 218.158 315.224C218.158 317.098 217.859 318.555 217.259 319.593C216.659 320.632 215.615 321.151 214.127 321.151C212.628 321.151 211.578 320.632 210.978 319.593C210.379 318.555 210.079 317.098 210.079 315.224ZM216.713 315.224C216.713 314.293 216.649 313.506 216.52 312.863C216.402 312.21 216.151 311.685 215.765 311.289C215.39 310.893 214.844 310.695 214.127 310.695C213.399 310.695 212.842 310.893 212.456 311.289C212.081 311.685 211.83 312.21 211.701 312.863C211.583 313.506 211.525 314.293 211.525 315.224C211.525 316.188 211.583 316.996 211.701 317.65C211.83 318.303 212.081 318.828 212.456 319.224C212.842 319.62 213.399 319.818 214.127 319.818C214.844 319.818 215.39 319.62 215.765 319.224C216.151 318.828 216.402 318.303 216.52 317.65C216.649 316.996 216.713 316.188 216.713 315.224ZM219.78 310.871V309.538H222.799V321.151H221.322V310.871H219.78ZM232.458 310.679L227.993 321.151H226.515L231.045 310.823H224.844V309.57H232.458V310.679Z" fill="#FCFDFD"/>
<g filter="url(#filter4_b_6432_12058)">
<rect x="196.604" y="119.617" width="40.6017" height="176.51" rx="5.35422" fill="#0D6EFD" fill-opacity="0.5"/>
<rect x="197.05" y="120.063" width="39.7094" height="175.617" rx="4.90804" stroke="#0D6EFD" stroke-opacity="0.3" stroke-width="0.892371"/>
</g>
<g filter="url(#filter5_d_6432_12058)">
<path d="M210.981 102.068C210.981 102.633 210.84 103.164 210.557 103.661C210.286 104.159 209.879 104.577 209.336 104.916C208.805 105.255 208.172 105.459 207.437 105.527V106.9H206.335V105.527C205.273 105.425 204.414 105.091 203.758 104.526C203.102 103.961 202.775 103.215 202.775 102.288H204.843C204.877 102.729 205.018 103.096 205.267 103.39C205.516 103.673 205.872 103.854 206.335 103.933V100.203C205.578 100.01 204.962 99.8183 204.487 99.6262C204.012 99.4227 203.605 99.1062 203.266 98.6767C202.938 98.2472 202.775 97.6594 202.775 96.9134C202.775 95.9752 203.102 95.2009 203.758 94.5905C204.414 93.9688 205.273 93.6071 206.335 93.5054V92.1321H207.437V93.5054C208.432 93.5958 209.229 93.9123 209.828 94.4549C210.438 94.9862 210.783 95.7209 210.862 96.659H208.794C208.76 96.3086 208.624 95.9978 208.387 95.7265C208.149 95.4439 207.833 95.2518 207.437 95.1501V98.8123C208.195 98.9932 208.811 99.1853 209.285 99.3888C209.76 99.581 210.161 99.8918 210.489 100.321C210.817 100.74 210.981 101.322 210.981 102.068ZM204.741 96.8116C204.741 97.2751 204.877 97.6368 205.148 97.8968C205.431 98.1567 205.826 98.3659 206.335 98.5241V95.0992C205.849 95.1557 205.459 95.3309 205.165 95.6248C204.883 95.9187 204.741 96.3143 204.741 96.8116ZM207.437 103.933C207.935 103.854 208.325 103.656 208.607 103.339C208.89 103.012 209.031 102.622 209.031 102.169C209.031 101.717 208.89 101.367 208.607 101.118C208.336 100.858 207.946 100.649 207.437 100.491V103.933ZM221.635 94.5566L216.922 105.425H214.972L219.736 94.7601H213.463V93.1154H221.635V94.5566ZM224.324 105.543C223.973 105.543 223.679 105.425 223.442 105.187C223.205 104.95 223.086 104.656 223.086 104.306C223.086 103.955 223.205 103.661 223.442 103.424C223.679 103.187 223.973 103.068 224.324 103.068C224.663 103.068 224.951 103.187 225.188 103.424C225.426 103.661 225.545 103.955 225.545 104.306C225.545 104.656 225.426 104.95 225.188 105.187C224.951 105.425 224.663 105.543 224.324 105.543ZM227.125 94.8279V93.0646H230.652V105.425H228.702V94.8279H227.125Z" fill="#FCFDFD"/>
</g>
<path opacity="0.5" d="M272.874 319.978C274.234 318.886 275.299 317.991 276.07 317.295C276.841 316.589 277.489 315.855 278.014 315.095C278.549 314.324 278.817 313.569 278.817 312.83C278.817 312.134 278.645 311.588 278.303 311.192C277.971 310.785 277.43 310.581 276.68 310.581C275.952 310.581 275.385 310.811 274.978 311.272C274.582 311.722 274.367 312.327 274.335 313.087H272.922C272.965 311.888 273.329 310.961 274.014 310.308C274.699 309.655 275.583 309.328 276.664 309.328C277.767 309.328 278.64 309.633 279.283 310.244C279.936 310.854 280.262 311.695 280.262 312.766C280.262 313.654 279.995 314.522 279.459 315.368C278.935 316.203 278.335 316.942 277.66 317.584C276.986 318.216 276.124 318.955 275.074 319.801H280.6V321.022H272.874V319.978ZM282.289 315.223C282.289 313.381 282.589 311.946 283.189 310.918C283.789 309.88 284.838 309.36 286.337 309.36C287.826 309.36 288.87 309.88 289.469 310.918C290.069 311.946 290.369 313.381 290.369 315.223C290.369 317.097 290.069 318.554 289.469 319.592C288.87 320.631 287.826 321.15 286.337 321.15C284.838 321.15 283.789 320.631 283.189 319.592C282.589 318.554 282.289 317.097 282.289 315.223ZM288.923 315.223C288.923 314.292 288.859 313.505 288.731 312.862C288.613 312.209 288.361 311.684 287.976 311.288C287.601 310.892 287.055 310.694 286.337 310.694C285.609 310.694 285.052 310.892 284.667 311.288C284.292 311.684 284.04 312.209 283.912 312.862C283.794 313.505 283.735 314.292 283.735 315.223C283.735 316.187 283.794 316.996 283.912 317.649C284.04 318.302 284.292 318.827 284.667 319.223C285.052 319.619 285.609 319.817 286.337 319.817C287.055 319.817 287.601 319.619 287.976 319.223C288.361 318.827 288.613 318.302 288.731 317.649C288.859 316.996 288.923 316.187 288.923 315.223ZM291.99 310.87V309.537H295.01V321.15H293.532V310.87H291.99ZM299.641 315.111C299.041 314.875 298.581 314.533 298.26 314.083C297.938 313.633 297.778 313.087 297.778 312.444C297.778 311.866 297.922 311.347 298.211 310.886C298.501 310.415 298.929 310.046 299.496 309.778C300.075 309.5 300.771 309.36 301.585 309.36C302.398 309.36 303.089 309.5 303.657 309.778C304.235 310.046 304.669 310.415 304.958 310.886C305.258 311.347 305.408 311.866 305.408 312.444C305.408 313.066 305.242 313.612 304.91 314.083C304.578 314.543 304.123 314.886 303.544 315.111C304.208 315.314 304.733 315.673 305.118 316.187C305.515 316.69 305.713 317.301 305.713 318.018C305.713 318.714 305.541 319.325 305.199 319.849C304.856 320.363 304.369 320.765 303.737 321.054C303.116 321.332 302.398 321.472 301.585 321.472C300.771 321.472 300.053 321.332 299.432 321.054C298.822 320.765 298.345 320.363 298.003 319.849C297.66 319.325 297.489 318.714 297.489 318.018C297.489 317.301 297.681 316.685 298.067 316.171C298.452 315.657 298.977 315.304 299.641 315.111ZM303.994 312.621C303.994 311.968 303.78 311.465 303.352 311.111C302.923 310.758 302.334 310.581 301.585 310.581C300.846 310.581 300.262 310.758 299.834 311.111C299.405 311.465 299.191 311.973 299.191 312.637C299.191 313.237 299.411 313.719 299.85 314.083C300.3 314.447 300.878 314.629 301.585 314.629C302.302 314.629 302.88 314.447 303.319 314.083C303.769 313.708 303.994 313.221 303.994 312.621ZM301.585 315.753C300.792 315.753 300.144 315.941 299.641 316.316C299.138 316.68 298.886 317.231 298.886 317.97C298.886 318.655 299.127 319.207 299.609 319.624C300.101 320.042 300.76 320.251 301.585 320.251C302.409 320.251 303.062 320.042 303.544 319.624C304.026 319.207 304.267 318.655 304.267 317.97C304.267 317.253 304.021 316.706 303.528 316.332C303.036 315.946 302.388 315.753 301.585 315.753Z" fill="#FCFDFD"/>
<g filter="url(#filter6_b_6432_12058)">
<rect x="268.614" y="78.6309" width="40.6017" height="217.497" rx="5.35422" fill="#0D6EFD" fill-opacity="0.5"/>
<rect x="269.06" y="79.077" width="39.7094" height="216.604" rx="4.90804" stroke="#0D6EFD" stroke-opacity="0.3" stroke-width="0.892371"/>
</g>
<g filter="url(#filter7_d_6432_12058)">
<path d="M280.173 62.6644C280.173 63.2296 280.031 63.7608 279.749 64.2582C279.478 64.7555 279.071 65.1737 278.528 65.5128C277.997 65.8519 277.364 66.0554 276.629 66.1232V67.4966H275.527V66.1232C274.465 66.0215 273.606 65.688 272.95 65.1229C272.294 64.5577 271.967 63.8117 271.967 62.8848H274.035C274.069 63.3256 274.21 63.693 274.459 63.9869C274.708 64.2695 275.064 64.4503 275.527 64.5294V60.7993C274.77 60.6072 274.154 60.415 273.679 60.2229C273.204 60.0194 272.797 59.7029 272.458 59.2734C272.13 58.8439 271.967 58.2561 271.967 57.5101C271.967 56.5719 272.294 55.7976 272.95 55.1872C273.606 54.5655 274.465 54.2038 275.527 54.1021V52.7287H276.629V54.1021C277.624 54.1925 278.421 54.509 279.02 55.0516C279.63 55.5828 279.975 56.3175 280.054 57.2557H277.986C277.952 56.9053 277.816 56.5945 277.579 56.3232C277.341 56.0406 277.025 55.8485 276.629 55.7467V59.409C277.386 59.5899 278.003 59.782 278.477 59.9855C278.952 60.1776 279.353 60.4885 279.681 60.918C280.009 61.3362 280.173 61.9184 280.173 62.6644ZM273.933 57.4083C273.933 57.8718 274.069 58.2335 274.34 58.4934C274.623 58.7534 275.018 58.9625 275.527 59.1208V55.6959C275.041 55.7524 274.651 55.9276 274.357 56.2215C274.075 56.5154 273.933 56.911 273.933 57.4083ZM276.629 64.5294C277.127 64.4503 277.516 64.2525 277.799 63.936C278.082 63.6082 278.223 63.2183 278.223 62.7661C278.223 62.314 278.082 61.9636 277.799 61.7149C277.528 61.4549 277.138 61.2458 276.629 61.0876V64.5294ZM285.079 59.5616C283.904 58.9738 283.316 58.047 283.316 56.781C283.316 56.1706 283.469 55.6111 283.774 55.1024C284.079 54.5938 284.537 54.1925 285.147 53.8986C285.758 53.5934 286.504 53.4408 287.385 53.4408C288.256 53.4408 288.996 53.5934 289.606 53.8986C290.228 54.1925 290.692 54.5938 290.997 55.1024C291.302 55.6111 291.454 56.1706 291.454 56.781C291.454 57.414 291.291 57.9735 290.963 58.4595C290.646 58.9343 290.222 59.3016 289.691 59.5616C290.335 59.799 290.844 60.189 291.217 60.7315C291.59 61.2628 291.777 61.8901 291.777 62.6135C291.777 63.3482 291.59 63.9982 291.217 64.5634C290.844 65.1285 290.324 65.5637 289.657 65.8689C288.99 66.1741 288.233 66.3267 287.385 66.3267C286.538 66.3267 285.78 66.1741 285.113 65.8689C284.458 65.5637 283.943 65.1285 283.57 64.5634C283.197 63.9982 283.011 63.3482 283.011 62.6135C283.011 61.8788 283.197 61.2458 283.57 60.7146C283.943 60.1833 284.446 59.799 285.079 59.5616ZM289.606 57.0184C289.606 56.3854 289.409 55.8993 289.013 55.5602C288.617 55.2211 288.075 55.0516 287.385 55.0516C286.707 55.0516 286.17 55.2211 285.775 55.5602C285.379 55.8993 285.181 56.391 285.181 57.0353C285.181 57.6005 285.385 58.0639 285.792 58.4256C286.21 58.776 286.741 58.9512 287.385 58.9512C288.03 58.9512 288.561 58.7704 288.979 58.4087C289.397 58.047 289.606 57.5835 289.606 57.0184ZM287.385 60.4094C286.639 60.4094 286.029 60.5959 285.554 60.9689C285.091 61.3306 284.859 61.8562 284.859 62.5457C284.859 63.19 285.085 63.7156 285.537 64.1225C285.989 64.5181 286.605 64.7159 287.385 64.7159C288.154 64.7159 288.759 64.5125 289.199 64.1056C289.652 63.6986 289.878 63.1787 289.878 62.5457C289.878 61.8675 289.646 61.3419 289.183 60.9689C288.73 60.5959 288.131 60.4094 287.385 60.4094ZM294.84 66.1402C294.49 66.1402 294.196 66.0215 293.959 65.7841C293.721 65.5467 293.603 65.2529 293.603 64.9025C293.603 64.552 293.721 64.2582 293.959 64.0208C294.196 63.7834 294.49 63.6647 294.84 63.6647C295.179 63.6647 295.468 63.7834 295.705 64.0208C295.942 64.2582 296.061 64.552 296.061 64.9025C296.061 65.2529 295.942 65.5467 295.705 65.7841C295.468 66.0215 295.179 66.1402 294.84 66.1402ZM305.729 55.1533L301.016 66.0215H299.066L303.83 55.3568H297.557V53.7121H305.729V55.1533Z" fill="#FCFDFD"/>
</g>
<path opacity="0.5" d="M346.658 319.978C348.018 318.886 349.083 317.991 349.854 317.295C350.625 316.589 351.273 315.855 351.798 315.095C352.333 314.324 352.601 313.569 352.601 312.83C352.601 312.134 352.43 311.588 352.087 311.192C351.755 310.785 351.214 310.581 350.465 310.581C349.736 310.581 349.169 310.811 348.762 311.272C348.366 311.722 348.152 312.327 348.12 313.087H346.706C346.749 311.888 347.113 310.961 347.798 310.308C348.484 309.655 349.367 309.328 350.449 309.328C351.552 309.328 352.424 309.633 353.067 310.244C353.72 310.854 354.047 311.695 354.047 312.766C354.047 313.654 353.779 314.522 353.243 315.368C352.719 316.203 352.119 316.942 351.444 317.584C350.77 318.216 349.908 318.955 348.858 319.801H354.384V321.022H346.658V319.978ZM356.074 315.223C356.074 313.381 356.374 311.946 356.973 310.918C357.573 309.88 358.622 309.36 360.121 309.36C361.61 309.36 362.654 309.88 363.254 310.918C363.853 311.946 364.153 313.381 364.153 315.223C364.153 317.097 363.853 318.554 363.254 319.592C362.654 320.631 361.61 321.15 360.121 321.15C358.622 321.15 357.573 320.631 356.973 319.592C356.374 318.554 356.074 317.097 356.074 315.223ZM362.708 315.223C362.708 314.292 362.643 313.505 362.515 312.862C362.397 312.209 362.145 311.684 361.76 311.288C361.385 310.892 360.839 310.694 360.121 310.694C359.393 310.694 358.836 310.892 358.451 311.288C358.076 311.684 357.824 312.209 357.696 312.862C357.578 313.505 357.519 314.292 357.519 315.223C357.519 316.187 357.578 316.996 357.696 317.649C357.824 318.302 358.076 318.827 358.451 319.223C358.836 319.619 359.393 319.817 360.121 319.817C360.839 319.817 361.385 319.619 361.76 319.223C362.145 318.827 362.397 318.302 362.515 317.649C362.643 316.996 362.708 316.187 362.708 315.223ZM365.774 310.87V309.537H368.794V321.15H367.316V310.87H365.774ZM373.184 318.034C373.291 318.645 373.538 319.116 373.923 319.448C374.319 319.78 374.849 319.946 375.513 319.946C376.402 319.946 377.055 319.598 377.473 318.902C377.901 318.206 378.105 317.033 378.083 315.384C377.859 315.866 377.484 316.246 376.959 316.524C376.434 316.792 375.851 316.926 375.208 316.926C374.491 316.926 373.848 316.781 373.281 316.492C372.724 316.192 372.285 315.759 371.964 315.191C371.642 314.624 371.482 313.938 371.482 313.135C371.482 311.989 371.814 311.068 372.478 310.372C373.141 309.666 374.084 309.312 375.305 309.312C376.804 309.312 377.853 309.799 378.453 310.774C379.063 311.748 379.368 313.199 379.368 315.127C379.368 316.476 379.245 317.59 378.999 318.468C378.763 319.346 378.356 320.015 377.778 320.476C377.211 320.936 376.429 321.166 375.433 321.166C374.341 321.166 373.489 320.872 372.879 320.283C372.269 319.694 371.921 318.944 371.835 318.034H373.184ZM375.449 315.689C376.167 315.689 376.756 315.47 377.216 315.031C377.676 314.581 377.907 313.976 377.907 313.215C377.907 312.412 377.682 311.764 377.232 311.272C376.782 310.779 376.151 310.533 375.337 310.533C374.587 310.533 373.987 310.769 373.538 311.24C373.099 311.711 372.879 312.332 372.879 313.103C372.879 313.885 373.099 314.511 373.538 314.982C373.977 315.453 374.614 315.689 375.449 315.689Z" fill="#FCFDFD"/>
<g filter="url(#filter8_b_6432_12058)">
<rect x="343.281" y="125.566" width="40.6017" height="170.56" rx="5.35422" fill="#0D6EFD" fill-opacity="0.5"/>
<rect x="343.727" y="126.013" width="39.7094" height="169.667" rx="4.90804" stroke="#0D6EFD" stroke-opacity="0.3" stroke-width="0.892371"/>
</g>
<g filter="url(#filter9_d_6432_12058)">
<path d="M354.174 106.983C354.174 107.548 354.033 108.079 353.751 108.577C353.479 109.074 353.072 109.492 352.53 109.831C351.998 110.17 351.365 110.374 350.631 110.442V111.815H349.529V110.442C348.466 110.34 347.607 110.006 346.952 109.441C346.296 108.876 345.968 108.13 345.968 107.203H348.037C348.071 107.644 348.212 108.011 348.461 108.305C348.709 108.588 349.065 108.769 349.529 108.848V105.118C348.771 104.926 348.155 104.733 347.681 104.541C347.206 104.338 346.799 104.021 346.46 103.592C346.132 103.162 345.968 102.574 345.968 101.828C345.968 100.89 346.296 100.116 346.952 99.5056C347.607 98.8839 348.466 98.5222 349.529 98.4205V97.0471H350.631V98.4205C351.625 98.5109 352.422 98.8274 353.021 99.3699C353.632 99.9012 353.977 100.636 354.056 101.574H351.987C351.953 101.224 351.818 100.913 351.58 100.642C351.343 100.359 351.026 100.167 350.631 100.065V103.727C351.388 103.908 352.004 104.1 352.479 104.304C352.954 104.496 353.355 104.807 353.683 105.236C354.01 105.655 354.174 106.237 354.174 106.983ZM347.935 101.727C347.935 102.19 348.071 102.552 348.342 102.812C348.624 103.072 349.02 103.281 349.529 103.439V100.014C349.043 100.071 348.653 100.246 348.359 100.54C348.076 100.834 347.935 101.229 347.935 101.727ZM350.631 108.848C351.128 108.769 351.518 108.571 351.801 108.254C352.083 107.927 352.225 107.537 352.225 107.084C352.225 106.632 352.083 106.282 351.801 106.033C351.529 105.773 351.139 105.564 350.631 105.406V108.848ZM363.642 100.845C363.518 100.325 363.292 99.9351 362.964 99.6751C362.636 99.4151 362.178 99.2852 361.59 99.2852C360.697 99.2852 360.03 99.6299 359.59 100.319C359.149 100.998 358.917 102.128 358.895 103.71C359.188 103.213 359.618 102.829 360.183 102.557C360.748 102.286 361.359 102.151 362.014 102.151C362.76 102.151 363.416 102.314 363.981 102.642C364.557 102.959 365.004 103.422 365.32 104.033C365.648 104.643 365.812 105.372 365.812 106.22C365.812 107.011 365.654 107.717 365.337 108.339C365.032 108.961 364.574 109.453 363.964 109.814C363.354 110.165 362.619 110.34 361.76 110.34C360.596 110.34 359.68 110.086 359.013 109.577C358.358 109.057 357.894 108.328 357.623 107.39C357.363 106.451 357.233 105.282 357.233 103.88C357.233 99.7429 358.691 97.6744 361.607 97.6744C362.738 97.6744 363.625 97.9796 364.269 98.59C364.925 99.2004 365.309 99.9521 365.422 100.845H363.642ZM361.59 103.778C360.901 103.778 360.313 103.987 359.827 104.406C359.352 104.813 359.115 105.406 359.115 106.186C359.115 106.966 359.335 107.587 359.776 108.051C360.228 108.503 360.856 108.729 361.658 108.729C362.37 108.729 362.93 108.509 363.337 108.068C363.755 107.627 363.964 107.039 363.964 106.305C363.964 105.536 363.761 104.926 363.354 104.473C362.958 104.01 362.37 103.778 361.59 103.778ZM368.908 110.459C368.558 110.459 368.264 110.34 368.027 110.102C367.789 109.865 367.67 109.571 367.67 109.221C367.67 108.87 367.789 108.577 368.027 108.339C368.264 108.102 368.558 107.983 368.908 107.983C369.247 107.983 369.536 108.102 369.773 108.339C370.01 108.577 370.129 108.87 370.129 109.221C370.129 109.571 370.01 109.865 369.773 110.102C369.536 110.34 369.247 110.459 368.908 110.459ZM374.371 106.983C374.484 107.548 374.727 107.977 375.1 108.271C375.473 108.565 375.976 108.712 376.609 108.712C377.412 108.712 378 108.396 378.373 107.763C378.746 107.13 378.932 106.05 378.932 104.524C378.661 104.909 378.277 105.208 377.779 105.423C377.293 105.626 376.762 105.728 376.185 105.728C375.451 105.728 374.784 105.581 374.185 105.287C373.586 104.982 373.111 104.536 372.761 103.948C372.421 103.349 372.252 102.625 372.252 101.778C372.252 100.534 372.614 99.5451 373.337 98.8104C374.072 98.0644 375.078 97.6914 376.355 97.6914C377.892 97.6914 378.983 98.2057 379.627 99.2343C380.283 100.252 380.611 101.817 380.611 103.931C380.611 105.389 380.486 106.581 380.238 107.508C380 108.435 379.582 109.136 378.983 109.611C378.384 110.086 377.553 110.323 376.491 110.323C375.281 110.323 374.349 110.006 373.693 109.373C373.037 108.74 372.67 107.944 372.591 106.983H374.371ZM376.525 104.1C377.203 104.1 377.734 103.891 378.118 103.473C378.514 103.044 378.712 102.478 378.712 101.778C378.712 100.998 378.503 100.393 378.084 99.9634C377.678 99.5225 377.118 99.3021 376.406 99.3021C375.694 99.3021 375.129 99.5282 374.71 99.9803C374.303 100.421 374.1 101.003 374.1 101.727C374.1 102.416 374.298 102.987 374.693 103.439C375.1 103.88 375.711 104.1 376.525 104.1Z" fill="#FCFDFD"/>
</g>
<path opacity="0.5" d="M419.726 319.978C421.086 318.886 422.152 317.991 422.923 317.295C423.694 316.589 424.342 315.855 424.866 315.095C425.402 314.324 425.669 313.569 425.669 312.83C425.669 312.134 425.498 311.588 425.155 311.192C424.824 310.785 424.283 310.581 423.533 310.581C422.805 310.581 422.237 310.811 421.83 311.272C421.434 311.722 421.22 312.327 421.188 313.087H419.774C419.817 311.888 420.181 310.961 420.867 310.308C421.552 309.655 422.436 309.328 423.517 309.328C424.62 309.328 425.493 309.633 426.135 310.244C426.789 310.854 427.115 311.695 427.115 312.766C427.115 313.654 426.847 314.522 426.312 315.368C425.787 316.203 425.188 316.942 424.513 317.584C423.838 318.216 422.976 318.955 421.927 319.801H427.452V321.022H419.726V319.978ZM429.142 315.223C429.142 313.381 429.442 311.946 430.042 310.918C430.641 309.88 431.691 309.36 433.19 309.36C434.678 309.36 435.722 309.88 436.322 310.918C436.922 311.946 437.222 313.381 437.222 315.223C437.222 317.097 436.922 318.554 436.322 319.592C435.722 320.631 434.678 321.15 433.19 321.15C431.691 321.15 430.641 320.631 430.042 319.592C429.442 318.554 429.142 317.097 429.142 315.223ZM435.776 315.223C435.776 314.292 435.712 313.505 435.583 312.862C435.465 312.209 435.214 311.684 434.828 311.288C434.454 310.892 433.907 310.694 433.19 310.694C432.462 310.694 431.905 310.892 431.519 311.288C431.145 311.684 430.893 312.209 430.764 312.862C430.647 313.505 430.588 314.292 430.588 315.223C430.588 316.187 430.647 316.996 430.764 317.649C430.893 318.302 431.145 318.827 431.519 319.223C431.905 319.619 432.462 319.817 433.19 319.817C433.907 319.817 434.454 319.619 434.828 319.223C435.214 318.827 435.465 318.302 435.583 317.649C435.712 316.996 435.776 316.187 435.776 315.223ZM439.052 319.978C440.412 318.886 441.477 317.991 442.248 317.295C443.019 316.589 443.667 315.855 444.192 315.095C444.727 314.324 444.995 313.569 444.995 312.83C444.995 312.134 444.824 311.588 444.481 311.192C444.149 310.785 443.608 310.581 442.859 310.581C442.13 310.581 441.563 310.811 441.156 311.272C440.76 311.722 440.546 312.327 440.513 313.087H439.1C439.143 311.888 439.507 310.961 440.192 310.308C440.877 309.655 441.761 309.328 442.842 309.328C443.945 309.328 444.818 309.633 445.461 310.244C446.114 310.854 446.441 311.695 446.441 312.766C446.441 313.654 446.173 314.522 445.637 315.368C445.113 316.203 444.513 316.942 443.838 317.584C443.164 318.216 442.302 318.955 441.252 319.801H446.778V321.022H439.052V319.978ZM448.468 315.223C448.468 313.381 448.767 311.946 449.367 310.918C449.967 309.88 451.016 309.36 452.515 309.36C454.004 309.36 455.048 309.88 455.648 310.918C456.247 311.946 456.547 313.381 456.547 315.223C456.547 317.097 456.247 318.554 455.648 319.592C455.048 320.631 454.004 321.15 452.515 321.15C451.016 321.15 449.967 320.631 449.367 319.592C448.767 318.554 448.468 317.097 448.468 315.223ZM455.101 315.223C455.101 314.292 455.037 313.505 454.909 312.862C454.791 312.209 454.539 311.684 454.154 311.288C453.779 310.892 453.233 310.694 452.515 310.694C451.787 310.694 451.23 310.892 450.845 311.288C450.47 311.684 450.218 312.209 450.09 312.862C449.972 313.505 449.913 314.292 449.913 315.223C449.913 316.187 449.972 316.996 450.09 317.649C450.218 318.302 450.47 318.827 450.845 319.223C451.23 319.619 451.787 319.817 452.515 319.817C453.233 319.817 453.779 319.619 454.154 319.223C454.539 318.827 454.791 318.302 454.909 317.649C455.037 316.996 455.101 316.187 455.101 315.223Z" fill="#FCFDFD"/>
<g filter="url(#filter10_b_6432_12058)">
<rect x="417.951" y="157.299" width="40.6017" height="138.828" rx="5.35422" fill="#0D6EFD" fill-opacity="0.5"/>
<rect x="418.397" y="157.745" width="39.7094" height="137.935" rx="4.90804" stroke="#0D6EFD" stroke-opacity="0.3" stroke-width="0.892371"/>
</g>
<g filter="url(#filter11_d_6432_12058)">
<path d="M428.624 138.795C428.624 139.36 428.482 139.892 428.2 140.389C427.929 140.886 427.522 141.305 426.979 141.644C426.448 141.983 425.815 142.186 425.08 142.254V143.627H423.978V142.254C422.916 142.152 422.057 141.819 421.401 141.254C420.745 140.689 420.418 139.943 420.418 139.016H422.486C422.52 139.456 422.661 139.824 422.91 140.118C423.159 140.4 423.515 140.581 423.978 140.66V136.93C423.221 136.738 422.605 136.546 422.13 136.354C421.655 136.15 421.248 135.834 420.909 135.404C420.581 134.975 420.418 134.387 420.418 133.641C420.418 132.703 420.745 131.928 421.401 131.318C422.057 130.696 422.916 130.335 423.978 130.233V128.86H425.08V130.233C426.075 130.323 426.872 130.64 427.471 131.182C428.081 131.714 428.426 132.448 428.505 133.387H426.437C426.403 133.036 426.267 132.725 426.03 132.454C425.792 132.171 425.476 131.979 425.08 131.878V135.54C425.837 135.721 426.454 135.913 426.928 136.116C427.403 136.309 427.804 136.619 428.132 137.049C428.46 137.467 428.624 138.049 428.624 138.795ZM422.384 133.539C422.384 134.003 422.52 134.364 422.791 134.624C423.074 134.884 423.469 135.093 423.978 135.252V131.827C423.492 131.883 423.102 132.058 422.808 132.352C422.526 132.646 422.384 133.042 422.384 133.539ZM425.08 140.66C425.578 140.581 425.967 140.383 426.25 140.067C426.533 139.739 426.674 139.349 426.674 138.897C426.674 138.445 426.533 138.094 426.25 137.846C425.979 137.586 425.589 137.377 425.08 137.218V140.66ZM439.414 131.454H433.734V134.828C433.971 134.511 434.322 134.246 434.785 134.031C435.26 133.816 435.763 133.709 436.294 133.709C437.244 133.709 438.012 133.912 438.6 134.319C439.199 134.726 439.623 135.24 439.872 135.862C440.132 136.484 440.262 137.139 440.262 137.829C440.262 138.665 440.098 139.411 439.77 140.067C439.453 140.711 438.973 141.22 438.329 141.593C437.696 141.966 436.916 142.152 435.989 142.152C434.757 142.152 433.768 141.847 433.022 141.237C432.276 140.626 431.829 139.818 431.682 138.812H433.564C433.689 139.343 433.966 139.767 434.395 140.084C434.825 140.389 435.362 140.542 436.006 140.542C436.808 140.542 437.407 140.299 437.803 139.813C438.21 139.327 438.413 138.682 438.413 137.88C438.413 137.066 438.21 136.444 437.803 136.015C437.396 135.574 436.797 135.353 436.006 135.353C435.452 135.353 434.983 135.495 434.599 135.777C434.226 136.049 433.954 136.422 433.785 136.896H431.954V129.758H439.414V131.454ZM443.308 142.271C442.957 142.271 442.664 142.152 442.426 141.915C442.189 141.678 442.07 141.384 442.07 141.033C442.07 140.683 442.189 140.389 442.426 140.152C442.664 139.914 442.957 139.796 443.308 139.796C443.647 139.796 443.935 139.914 444.173 140.152C444.41 140.389 444.529 140.683 444.529 141.033C444.529 141.384 444.41 141.678 444.173 141.915C443.935 142.152 443.647 142.271 443.308 142.271ZM453.01 132.658C452.885 132.138 452.659 131.748 452.332 131.488C452.004 131.228 451.546 131.098 450.958 131.098C450.065 131.098 449.398 131.442 448.957 132.132C448.517 132.81 448.285 133.94 448.262 135.523C448.556 135.026 448.986 134.641 449.551 134.37C450.116 134.099 450.726 133.963 451.382 133.963C452.128 133.963 452.784 134.127 453.349 134.455C453.925 134.771 454.372 135.235 454.688 135.845C455.016 136.455 455.18 137.185 455.18 138.032C455.18 138.824 455.022 139.53 454.705 140.152C454.4 140.773 453.942 141.265 453.332 141.627C452.722 141.977 451.987 142.152 451.128 142.152C449.963 142.152 449.048 141.898 448.381 141.389C447.725 140.869 447.262 140.14 446.991 139.202C446.731 138.264 446.601 137.094 446.601 135.692C446.601 131.555 448.059 129.487 450.975 129.487C452.105 129.487 452.993 129.792 453.637 130.403C454.293 131.013 454.677 131.765 454.79 132.658H453.01ZM450.958 135.591C450.269 135.591 449.681 135.8 449.195 136.218C448.72 136.625 448.483 137.218 448.483 137.998C448.483 138.778 448.703 139.4 449.144 139.863C449.596 140.316 450.223 140.542 451.026 140.542C451.738 140.542 452.298 140.321 452.705 139.88C453.123 139.44 453.332 138.852 453.332 138.117C453.332 137.348 453.128 136.738 452.722 136.286C452.326 135.822 451.738 135.591 450.958 135.591Z" fill="#FCFDFD"/>
</g>
<path opacity="0.5" d="M496.855 319.979C498.215 318.887 499.281 317.992 500.052 317.296C500.823 316.59 501.471 315.856 501.995 315.096C502.531 314.325 502.799 313.57 502.799 312.831C502.799 312.135 502.627 311.589 502.285 311.193C501.953 310.786 501.412 310.582 500.662 310.582C499.934 310.582 499.367 310.812 498.96 311.273C498.563 311.723 498.349 312.328 498.317 313.088H496.904C496.946 311.889 497.311 310.962 497.996 310.309C498.681 309.656 499.565 309.329 500.646 309.329C501.749 309.329 502.622 309.634 503.264 310.245C503.918 310.855 504.244 311.696 504.244 312.767C504.244 313.655 503.977 314.523 503.441 315.369C502.916 316.204 502.317 316.943 501.642 317.585C500.967 318.217 500.105 318.956 499.056 319.802H504.582V321.023H496.855V319.979ZM506.271 315.224C506.271 313.382 506.571 311.947 507.171 310.919C507.77 309.881 508.82 309.361 510.319 309.361C511.808 309.361 512.852 309.881 513.451 310.919C514.051 311.947 514.351 313.382 514.351 315.224C514.351 317.098 514.051 318.555 513.451 319.593C512.852 320.632 511.808 321.151 510.319 321.151C508.82 321.151 507.77 320.632 507.171 319.593C506.571 318.555 506.271 317.098 506.271 315.224ZM512.905 315.224C512.905 314.293 512.841 313.506 512.712 312.863C512.595 312.21 512.343 311.685 511.957 311.289C511.583 310.893 511.037 310.695 510.319 310.695C509.591 310.695 509.034 310.893 508.649 311.289C508.274 311.685 508.022 312.21 507.894 312.863C507.776 313.506 507.717 314.293 507.717 315.224C507.717 316.188 507.776 316.996 507.894 317.65C508.022 318.303 508.274 318.828 508.649 319.224C509.034 319.62 509.591 319.818 510.319 319.818C511.037 319.818 511.583 319.62 511.957 319.224C512.343 318.828 512.595 318.303 512.712 317.65C512.841 316.996 512.905 316.188 512.905 315.224ZM516.181 319.979C517.541 318.887 518.606 317.992 519.377 317.296C520.148 316.59 520.796 315.856 521.321 315.096C521.856 314.325 522.124 313.57 522.124 312.831C522.124 312.135 521.953 311.589 521.61 311.193C521.278 310.786 520.737 310.582 519.988 310.582C519.259 310.582 518.692 310.812 518.285 311.273C517.889 311.723 517.675 312.328 517.642 313.088H516.229C516.272 311.889 516.636 310.962 517.321 310.309C518.007 309.656 518.89 309.329 519.972 309.329C521.075 309.329 521.947 309.634 522.59 310.245C523.243 310.855 523.57 311.696 523.57 312.767C523.57 313.655 523.302 314.523 522.766 315.369C522.242 316.204 521.642 316.943 520.967 317.585C520.293 318.217 519.431 318.956 518.381 319.802H523.907V321.023H516.181V319.979ZM525.211 310.871V309.538H528.231V321.151H526.753V310.871H525.211Z" fill="#FCFDFD"/>
<g filter="url(#filter12_b_6432_12058)">
<rect x="492.59" y="170.521" width="40.6017" height="125.606" rx="5.35422" fill="#0D6EFD" fill-opacity="0.5"/>
<rect x="493.036" y="170.968" width="39.7094" height="124.714" rx="4.90804" stroke="#0D6EFD" stroke-opacity="0.3" stroke-width="0.892371"/>
</g>
<g filter="url(#filter13_d_6432_12058)">
<path d="M506.176 151.938C506.176 152.503 506.035 153.034 505.752 153.532C505.481 154.029 505.074 154.447 504.532 154.786C504 155.125 503.367 155.329 502.633 155.397V156.77H501.531V155.397C500.468 155.295 499.609 154.961 498.953 154.396C498.298 153.831 497.97 153.085 497.97 152.158H500.038C500.072 152.599 500.214 152.966 500.462 153.26C500.711 153.543 501.067 153.724 501.531 153.803V150.073C500.773 149.881 500.157 149.688 499.682 149.496C499.208 149.293 498.801 148.976 498.462 148.547C498.134 148.117 497.97 147.53 497.97 146.783C497.97 145.845 498.298 145.071 498.953 144.461C499.609 143.839 500.468 143.477 501.531 143.376V142.002H502.633V143.376C503.627 143.466 504.424 143.782 505.023 144.325C505.634 144.856 505.978 145.591 506.058 146.529H503.989C503.955 146.179 503.819 145.868 503.582 145.597C503.345 145.314 503.028 145.122 502.633 145.02V148.682C503.39 148.863 504.006 149.055 504.481 149.259C504.955 149.451 505.357 149.762 505.685 150.191C506.012 150.61 506.176 151.192 506.176 151.938ZM499.937 146.682C499.937 147.145 500.072 147.507 500.344 147.767C500.626 148.027 501.022 148.236 501.531 148.394V144.969C501.044 145.026 500.655 145.201 500.361 145.495C500.078 145.789 499.937 146.184 499.937 146.682ZM502.633 153.803C503.13 153.724 503.52 153.526 503.803 153.209C504.085 152.882 504.226 152.492 504.226 152.04C504.226 151.587 504.085 151.237 503.803 150.988C503.531 150.728 503.141 150.519 502.633 150.361V153.803ZM516.966 144.596H511.286V147.97C511.524 147.654 511.874 147.388 512.338 147.173C512.812 146.959 513.315 146.851 513.847 146.851C514.796 146.851 515.565 147.055 516.152 147.462C516.751 147.869 517.175 148.383 517.424 149.005C517.684 149.626 517.814 150.282 517.814 150.971C517.814 151.808 517.65 152.554 517.322 153.209C517.006 153.854 516.525 154.362 515.881 154.735C515.248 155.108 514.468 155.295 513.541 155.295C512.309 155.295 511.32 154.99 510.574 154.379C509.828 153.769 509.382 152.961 509.235 151.955H511.117C511.241 152.486 511.518 152.91 511.948 153.226C512.377 153.532 512.914 153.684 513.558 153.684C514.361 153.684 514.96 153.441 515.356 152.955C515.762 152.469 515.966 151.825 515.966 151.022C515.966 150.208 515.762 149.587 515.356 149.157C514.949 148.716 514.35 148.496 513.558 148.496C513.004 148.496 512.535 148.637 512.151 148.92C511.778 149.191 511.507 149.564 511.337 150.039H509.506V142.901H516.966V144.596ZM520.86 155.414C520.51 155.414 520.216 155.295 519.979 155.058C519.741 154.82 519.623 154.526 519.623 154.176C519.623 153.825 519.741 153.532 519.979 153.294C520.216 153.057 520.51 152.938 520.86 152.938C521.199 152.938 521.488 153.057 521.725 153.294C521.962 153.532 522.081 153.825 522.081 154.176C522.081 154.526 521.962 154.82 521.725 155.058C521.488 155.295 521.199 155.414 520.86 155.414ZM523.661 144.698V142.935H527.188V155.295H525.238V144.698H523.661Z" fill="#FCFDFD"/>
</g>
<path opacity="0.5" d="M569.025 319.979C570.385 318.887 571.451 317.992 572.222 317.296C572.993 316.59 573.641 315.856 574.165 315.096C574.701 314.325 574.969 313.57 574.969 312.831C574.969 312.135 574.797 311.589 574.455 311.193C574.123 310.786 573.582 310.582 572.832 310.582C572.104 310.582 571.537 310.812 571.13 311.273C570.733 311.723 570.519 312.328 570.487 313.088H569.074C569.116 311.889 569.48 310.962 570.166 310.309C570.851 309.656 571.735 309.329 572.816 309.329C573.919 309.329 574.792 309.634 575.434 310.245C576.088 310.855 576.414 311.696 576.414 312.767C576.414 313.655 576.147 314.523 575.611 315.369C575.086 316.204 574.487 316.943 573.812 317.585C573.137 318.217 572.275 318.956 571.226 319.802H576.752V321.023H569.025V319.979ZM578.441 315.224C578.441 313.382 578.741 311.947 579.341 310.919C579.94 309.881 580.99 309.361 582.489 309.361C583.978 309.361 585.022 309.881 585.621 310.919C586.221 311.947 586.521 313.382 586.521 315.224C586.521 317.098 586.221 318.555 585.621 319.593C585.022 320.632 583.978 321.151 582.489 321.151C580.99 321.151 579.94 320.632 579.341 319.593C578.741 318.555 578.441 317.098 578.441 315.224ZM585.075 315.224C585.075 314.293 585.011 313.506 584.882 312.863C584.765 312.21 584.513 311.685 584.127 311.289C583.753 310.893 583.207 310.695 582.489 310.695C581.761 310.695 581.204 310.893 580.819 311.289C580.444 311.685 580.192 312.21 580.064 312.863C579.946 313.506 579.887 314.293 579.887 315.224C579.887 316.188 579.946 316.996 580.064 317.65C580.192 318.303 580.444 318.828 580.819 319.224C581.204 319.62 581.761 319.818 582.489 319.818C583.207 319.818 583.753 319.62 584.127 319.224C584.513 318.828 584.765 318.303 584.882 317.65C585.011 316.996 585.075 316.188 585.075 315.224ZM588.351 319.979C589.711 318.887 590.776 317.992 591.547 317.296C592.318 316.59 592.966 315.856 593.491 315.096C594.026 314.325 594.294 313.57 594.294 312.831C594.294 312.135 594.123 311.589 593.78 311.193C593.448 310.786 592.907 310.582 592.158 310.582C591.429 310.582 590.862 310.812 590.455 311.273C590.059 311.723 589.845 312.328 589.812 313.088H588.399C588.442 311.889 588.806 310.962 589.491 310.309C590.177 309.656 591.06 309.329 592.142 309.329C593.245 309.329 594.117 309.634 594.76 310.245C595.413 310.855 595.74 311.696 595.74 312.767C595.74 313.655 595.472 314.523 594.936 315.369C594.412 316.204 593.812 316.943 593.137 317.585C592.463 318.217 591.601 318.956 590.551 319.802H596.077V321.023H588.351V319.979ZM597.59 319.979C598.95 318.887 600.015 317.992 600.786 317.296C601.557 316.59 602.205 315.856 602.73 315.096C603.265 314.325 603.533 313.57 603.533 312.831C603.533 312.135 603.362 311.589 603.019 311.193C602.687 310.786 602.146 310.582 601.397 310.582C600.669 310.582 600.101 310.812 599.694 311.273C599.298 311.723 599.084 312.328 599.052 313.088H597.638C597.681 311.889 598.045 310.962 598.73 310.309C599.416 309.656 600.299 309.329 601.381 309.329C602.484 309.329 603.356 309.634 603.999 310.245C604.652 310.855 604.979 311.696 604.979 312.767C604.979 313.655 604.711 314.523 604.176 315.369C603.651 316.204 603.051 316.943 602.377 317.585C601.702 318.217 600.84 318.956 599.791 319.802H605.316V321.023H597.59V319.979Z" fill="#FCFDFD"/>
<g filter="url(#filter14_b_6432_12058)">
<rect x="567.268" y="128.212" width="40.6017" height="167.915" rx="5.35422" fill="#0D6EFD" fill-opacity="0.5"/>
<rect x="567.714" y="128.658" width="39.7094" height="167.023" rx="4.90804" stroke="#0D6EFD" stroke-opacity="0.3" stroke-width="0.892371"/>
</g>
<g filter="url(#filter15_d_6432_12058)">
<path d="M577.946 112.745C577.946 113.311 577.804 113.842 577.522 114.339C577.25 114.837 576.843 115.255 576.301 115.594C575.77 115.933 575.137 116.136 574.402 116.204V117.578H573.3V116.204C572.237 116.103 571.378 115.769 570.723 115.204C570.067 114.639 569.739 113.893 569.739 112.966H571.808C571.842 113.407 571.983 113.774 572.232 114.068C572.48 114.351 572.836 114.531 573.3 114.61V110.88C572.543 110.688 571.926 110.496 571.452 110.304C570.977 110.1 570.57 109.784 570.231 109.354C569.903 108.925 569.739 108.337 569.739 107.591C569.739 106.653 570.067 105.879 570.723 105.268C571.378 104.647 572.237 104.285 573.3 104.183V102.81H574.402V104.183C575.397 104.274 576.194 104.59 576.793 105.133C577.403 105.664 577.748 106.399 577.827 107.337H575.758C575.724 106.986 575.589 106.676 575.351 106.404C575.114 106.122 574.798 105.93 574.402 105.828V109.49C575.159 109.671 575.775 109.863 576.25 110.067C576.725 110.259 577.126 110.57 577.454 110.999C577.782 111.417 577.946 111.999 577.946 112.745ZM571.706 107.489C571.706 107.953 571.842 108.315 572.113 108.575C572.396 108.834 572.791 109.044 573.3 109.202V105.777C572.814 105.833 572.424 106.009 572.13 106.303C571.847 106.596 571.706 106.992 571.706 107.489ZM574.402 114.61C574.899 114.531 575.289 114.334 575.572 114.017C575.854 113.689 575.996 113.299 575.996 112.847C575.996 112.395 575.854 112.045 575.572 111.796C575.301 111.536 574.911 111.327 574.402 111.169V114.61ZM587.413 106.608C587.289 106.088 587.063 105.698 586.735 105.438C586.407 105.178 585.949 105.048 585.361 105.048C584.469 105.048 583.802 105.393 583.361 106.082C582.92 106.76 582.688 107.891 582.666 109.473C582.96 108.976 583.389 108.591 583.954 108.32C584.519 108.049 585.13 107.913 585.785 107.913C586.531 107.913 587.187 108.077 587.752 108.405C588.329 108.721 588.775 109.185 589.092 109.795C589.419 110.406 589.583 111.135 589.583 111.982C589.583 112.774 589.425 113.48 589.109 114.102C588.803 114.724 588.346 115.215 587.735 115.577C587.125 115.927 586.39 116.103 585.531 116.103C584.367 116.103 583.451 115.848 582.784 115.34C582.129 114.82 581.665 114.091 581.394 113.152C581.134 112.214 581.004 111.044 581.004 109.643C581.004 105.506 582.462 103.437 585.378 103.437C586.509 103.437 587.396 103.742 588.04 104.353C588.696 104.963 589.08 105.715 589.193 106.608H587.413ZM585.361 109.541C584.672 109.541 584.084 109.75 583.598 110.168C583.123 110.575 582.886 111.169 582.886 111.949C582.886 112.728 583.106 113.35 583.547 113.814C583.999 114.266 584.627 114.492 585.429 114.492C586.141 114.492 586.701 114.271 587.108 113.831C587.526 113.39 587.735 112.802 587.735 112.067C587.735 111.299 587.532 110.688 587.125 110.236C586.729 109.773 586.141 109.541 585.361 109.541ZM592.679 116.221C592.329 116.221 592.035 116.103 591.798 115.865C591.56 115.628 591.442 115.334 591.442 114.984C591.442 114.633 591.56 114.339 591.798 114.102C592.035 113.864 592.329 113.746 592.679 113.746C593.018 113.746 593.307 113.864 593.544 114.102C593.781 114.339 593.9 114.633 593.9 114.984C593.9 115.334 593.781 115.628 593.544 115.865C593.307 116.103 593.018 116.221 592.679 116.221ZM597.82 109.643C596.645 109.055 596.057 108.128 596.057 106.862C596.057 106.252 596.21 105.692 596.515 105.183C596.82 104.675 597.278 104.274 597.888 103.98C598.498 103.674 599.244 103.522 600.126 103.522C600.997 103.522 601.737 103.674 602.347 103.98C602.969 104.274 603.432 104.675 603.738 105.183C604.043 105.692 604.195 106.252 604.195 106.862C604.195 107.495 604.031 108.055 603.704 108.541C603.387 109.015 602.963 109.383 602.432 109.643C603.076 109.88 603.585 110.27 603.958 110.813C604.331 111.344 604.518 111.971 604.518 112.695C604.518 113.429 604.331 114.079 603.958 114.644C603.585 115.21 603.065 115.645 602.398 115.95C601.731 116.255 600.974 116.408 600.126 116.408C599.278 116.408 598.521 116.255 597.854 115.95C597.199 115.645 596.684 115.21 596.311 114.644C595.938 114.079 595.752 113.429 595.752 112.695C595.752 111.96 595.938 111.327 596.311 110.796C596.684 110.264 597.187 109.88 597.82 109.643ZM602.347 107.099C602.347 106.466 602.149 105.98 601.754 105.641C601.358 105.302 600.816 105.133 600.126 105.133C599.448 105.133 598.911 105.302 598.515 105.641C598.12 105.98 597.922 106.472 597.922 107.116C597.922 107.682 598.125 108.145 598.532 108.507C598.951 108.857 599.482 109.032 600.126 109.032C600.77 109.032 601.302 108.851 601.72 108.49C602.138 108.128 602.347 107.665 602.347 107.099ZM600.126 110.49C599.38 110.49 598.77 110.677 598.295 111.05C597.832 111.412 597.6 111.937 597.6 112.627C597.6 113.271 597.826 113.797 598.278 114.204C598.73 114.599 599.346 114.797 600.126 114.797C600.895 114.797 601.5 114.594 601.94 114.187C602.392 113.78 602.619 113.26 602.619 112.627C602.619 111.949 602.387 111.423 601.923 111.05C601.471 110.677 600.872 110.49 600.126 110.49Z" fill="#FCFDFD"/>
</g>
<defs>
<filter id="filter0_b_6432_12058" x="45.4725" y="138.955" width="49.5255" height="161.635" filterUnits="userSpaceOnUse" color-interpolation-filters="sRGB">
<feFlood flood-opacity="0" result="BackgroundImageFix"/>
<feGaussianBlur in="BackgroundImageFix" stdDeviation="2.23093"/>
<feComposite in2="SourceAlpha" operator="in" result="effect1_backgroundBlur_6432_12058"/>
<feBlend mode="normal" in="SourceGraphic" in2="effect1_backgroundBlur_6432_12058" result="shape"/>
</filter>
<filter id="filter1_d_6432_12058" x="32.9208" y="95.2643" width="73.3476" height="54.0319" filterUnits="userSpaceOnUse" color-interpolation-filters="sRGB">
<feFlood flood-opacity="0" result="BackgroundImageFix"/>
<feColorMatrix in="SourceAlpha" type="matrix" values="0 0 0 0 0 0 0 0 0 0 0 0 0 0 0 0 0 0 127 0" result="hardAlpha"/>
<feOffset/>
<feGaussianBlur stdDeviation="9.81608"/>
<feComposite in2="hardAlpha" operator="out"/>
<feColorMatrix type="matrix" values="0 0 0 0 1 0 0 0 0 1 0 0 0 0 1 0 0 0 0.21 0"/>
<feBlend mode="normal" in2="BackgroundImageFix" result="effect1_dropShadow_6432_12058"/>
<feBlend mode="normal" in="SourceGraphic" in2="effect1_dropShadow_6432_12058" result="shape"/>
</filter>
<filter id="filter2_b_6432_12058" x="118.367" y="138.954" width="49.5253" height="161.635" filterUnits="userSpaceOnUse" color-interpolation-filters="sRGB">
<feFlood flood-opacity="0" result="BackgroundImageFix"/>
<feGaussianBlur in="BackgroundImageFix" stdDeviation="2.23093"/>
<feComposite in2="SourceAlpha" operator="in" result="effect1_backgroundBlur_6432_12058"/>
<feBlend mode="normal" in="SourceGraphic" in2="effect1_backgroundBlur_6432_12058" result="shape"/>
</filter>
<filter id="filter3_d_6432_12058" x="106.718" y="95.2194" width="73.3473" height="54.0319" filterUnits="userSpaceOnUse" color-interpolation-filters="sRGB">
<feFlood flood-opacity="0" result="BackgroundImageFix"/>
<feColorMatrix in="SourceAlpha" type="matrix" values="0 0 0 0 0 0 0 0 0 0 0 0 0 0 0 0 0 0 127 0" result="hardAlpha"/>
<feOffset/>
<feGaussianBlur stdDeviation="9.81608"/>
<feComposite in2="hardAlpha" operator="out"/>
<feColorMatrix type="matrix" values="0 0 0 0 1 0 0 0 0 1 0 0 0 0 1 0 0 0 0.21 0"/>
<feBlend mode="normal" in2="BackgroundImageFix" result="effect1_dropShadow_6432_12058"/>
<feBlend mode="normal" in="SourceGraphic" in2="effect1_dropShadow_6432_12058" result="shape"/>
</filter>
<filter id="filter4_b_6432_12058" x="192.142" y="115.155" width="49.5253" height="185.433" filterUnits="userSpaceOnUse" color-interpolation-filters="sRGB">
<feFlood flood-opacity="0" result="BackgroundImageFix"/>
<feGaussianBlur in="BackgroundImageFix" stdDeviation="2.23093"/>
<feComposite in2="SourceAlpha" operator="in" result="effect1_backgroundBlur_6432_12058"/>
<feBlend mode="normal" in="SourceGraphic" in2="effect1_backgroundBlur_6432_12058" result="shape"/>
</filter>
<filter id="filter5_d_6432_12058" x="183.142" y="72.4997" width="67.1413" height="54.0319" filterUnits="userSpaceOnUse" color-interpolation-filters="sRGB">
<feFlood flood-opacity="0" result="BackgroundImageFix"/>
<feColorMatrix in="SourceAlpha" type="matrix" values="0 0 0 0 0 0 0 0 0 0 0 0 0 0 0 0 0 0 127 0" result="hardAlpha"/>
<feOffset/>
<feGaussianBlur stdDeviation="9.81608"/>
<feComposite in2="hardAlpha" operator="out"/>
<feColorMatrix type="matrix" values="0 0 0 0 1 0 0 0 0 1 0 0 0 0 1 0 0 0 0.21 0"/>
<feBlend mode="normal" in2="BackgroundImageFix" result="effect1_dropShadow_6432_12058"/>
<feBlend mode="normal" in="SourceGraphic" in2="effect1_dropShadow_6432_12058" result="shape"/>
</filter>
<filter id="filter6_b_6432_12058" x="264.152" y="74.169" width="49.5253" height="226.421" filterUnits="userSpaceOnUse" color-interpolation-filters="sRGB">
<feFlood flood-opacity="0" result="BackgroundImageFix"/>
<feGaussianBlur in="BackgroundImageFix" stdDeviation="2.23093"/>
<feComposite in2="SourceAlpha" operator="in" result="effect1_backgroundBlur_6432_12058"/>
<feBlend mode="normal" in="SourceGraphic" in2="effect1_backgroundBlur_6432_12058" result="shape"/>
</filter>
<filter id="filter7_d_6432_12058" x="252.334" y="33.0964" width="73.027" height="54.0319" filterUnits="userSpaceOnUse" color-interpolation-filters="sRGB">
<feFlood flood-opacity="0" result="BackgroundImageFix"/>
<feColorMatrix in="SourceAlpha" type="matrix" values="0 0 0 0 0 0 0 0 0 0 0 0 0 0 0 0 0 0 127 0" result="hardAlpha"/>
<feOffset/>
<feGaussianBlur stdDeviation="9.81608"/>
<feComposite in2="hardAlpha" operator="out"/>
<feColorMatrix type="matrix" values="0 0 0 0 1 0 0 0 0 1 0 0 0 0 1 0 0 0 0.21 0"/>
<feBlend mode="normal" in2="BackgroundImageFix" result="effect1_dropShadow_6432_12058"/>
<feBlend mode="normal" in="SourceGraphic" in2="effect1_dropShadow_6432_12058" result="shape"/>
</filter>
<filter id="filter8_b_6432_12058" x="338.819" y="121.105" width="49.5253" height="179.483" filterUnits="userSpaceOnUse" color-interpolation-filters="sRGB">
<feFlood flood-opacity="0" result="BackgroundImageFix"/>
<feGaussianBlur in="BackgroundImageFix" stdDeviation="2.23093"/>
<feComposite in2="SourceAlpha" operator="in" result="effect1_backgroundBlur_6432_12058"/>
<feBlend mode="normal" in="SourceGraphic" in2="effect1_backgroundBlur_6432_12058" result="shape"/>
</filter>
<filter id="filter9_d_6432_12058" x="326.336" y="77.4147" width="73.9069" height="54.0319" filterUnits="userSpaceOnUse" color-interpolation-filters="sRGB">
<feFlood flood-opacity="0" result="BackgroundImageFix"/>
<feColorMatrix in="SourceAlpha" type="matrix" values="0 0 0 0 0 0 0 0 0 0 0 0 0 0 0 0 0 0 127 0" result="hardAlpha"/>
<feOffset/>
<feGaussianBlur stdDeviation="9.81608"/>
<feComposite in2="hardAlpha" operator="out"/>
<feColorMatrix type="matrix" values="0 0 0 0 1 0 0 0 0 1 0 0 0 0 1 0 0 0 0.21 0"/>
<feBlend mode="normal" in2="BackgroundImageFix" result="effect1_dropShadow_6432_12058"/>
<feBlend mode="normal" in="SourceGraphic" in2="effect1_dropShadow_6432_12058" result="shape"/>
</filter>
<filter id="filter10_b_6432_12058" x="413.489" y="152.837" width="49.5253" height="147.752" filterUnits="userSpaceOnUse" color-interpolation-filters="sRGB">
<feFlood flood-opacity="0" result="BackgroundImageFix"/>
<feGaussianBlur in="BackgroundImageFix" stdDeviation="2.23093"/>
<feComposite in2="SourceAlpha" operator="in" result="effect1_backgroundBlur_6432_12058"/>
<feBlend mode="normal" in="SourceGraphic" in2="effect1_backgroundBlur_6432_12058" result="shape"/>
</filter>
<filter id="filter11_d_6432_12058" x="400.785" y="109.227" width="74.027" height="54.0319" filterUnits="userSpaceOnUse" color-interpolation-filters="sRGB">
<feFlood flood-opacity="0" result="BackgroundImageFix"/>
<feColorMatrix in="SourceAlpha" type="matrix" values="0 0 0 0 0 0 0 0 0 0 0 0 0 0 0 0 0 0 127 0" result="hardAlpha"/>
<feOffset/>
<feGaussianBlur stdDeviation="9.81608"/>
<feComposite in2="hardAlpha" operator="out"/>
<feColorMatrix type="matrix" values="0 0 0 0 1 0 0 0 0 1 0 0 0 0 1 0 0 0 0.21 0"/>
<feBlend mode="normal" in2="BackgroundImageFix" result="effect1_dropShadow_6432_12058"/>
<feBlend mode="normal" in="SourceGraphic" in2="effect1_dropShadow_6432_12058" result="shape"/>
</filter>
<filter id="filter12_b_6432_12058" x="488.128" y="166.06" width="49.5253" height="134.53" filterUnits="userSpaceOnUse" color-interpolation-filters="sRGB">
<feFlood flood-opacity="0" result="BackgroundImageFix"/>
<feGaussianBlur in="BackgroundImageFix" stdDeviation="2.23093"/>
<feComposite in2="SourceAlpha" operator="in" result="effect1_backgroundBlur_6432_12058"/>
<feBlend mode="normal" in="SourceGraphic" in2="effect1_backgroundBlur_6432_12058" result="shape"/>
</filter>
<filter id="filter13_d_6432_12058" x="478.338" y="122.37" width="68.4826" height="54.0319" filterUnits="userSpaceOnUse" color-interpolation-filters="sRGB">
<feFlood flood-opacity="0" result="BackgroundImageFix"/>
<feColorMatrix in="SourceAlpha" type="matrix" values="0 0 0 0 0 0 0 0 0 0 0 0 0 0 0 0 0 0 127 0" result="hardAlpha"/>
<feOffset/>
<feGaussianBlur stdDeviation="9.81608"/>
<feComposite in2="hardAlpha" operator="out"/>
<feColorMatrix type="matrix" values="0 0 0 0 1 0 0 0 0 1 0 0 0 0 1 0 0 0 0.21 0"/>
<feBlend mode="normal" in2="BackgroundImageFix" result="effect1_dropShadow_6432_12058"/>
<feBlend mode="normal" in="SourceGraphic" in2="effect1_dropShadow_6432_12058" result="shape"/>
</filter>
<filter id="filter14_b_6432_12058" x="562.806" y="123.75" width="49.5253" height="176.839" filterUnits="userSpaceOnUse" color-interpolation-filters="sRGB">
<feFlood flood-opacity="0" result="BackgroundImageFix"/>
<feGaussianBlur in="BackgroundImageFix" stdDeviation="2.23093"/>
<feComposite in2="SourceAlpha" operator="in" result="effect1_backgroundBlur_6432_12058"/>
<feBlend mode="normal" in="SourceGraphic" in2="effect1_backgroundBlur_6432_12058" result="shape"/>
</filter>
<filter id="filter15_d_6432_12058" x="550.107" y="83.1774" width="74.0426" height="54.0319" filterUnits="userSpaceOnUse" color-interpolation-filters="sRGB">
<feFlood flood-opacity="0" result="BackgroundImageFix"/>
<feColorMatrix in="SourceAlpha" type="matrix" values="0 0 0 0 0 0 0 0 0 0 0 0 0 0 0 0 0 0 127 0" result="hardAlpha"/>
<feOffset/>
<feGaussianBlur stdDeviation="9.81608"/>
<feComposite in2="hardAlpha" operator="out"/>
<feColorMatrix type="matrix" values="0 0 0 0 1 0 0 0 0 1 0 0 0 0 1 0 0 0 0.21 0"/>
<feBlend mode="normal" in2="BackgroundImageFix" result="effect1_dropShadow_6432_12058"/>
<feBlend mode="normal" in="SourceGraphic" in2="effect1_dropShadow_6432_12058" result="shape"/>
</filter>
</defs>
</svg>
