<svg width="655" height="371" viewBox="0 0 655 371" fill="none" xmlns="http://www.w3.org/2000/svg">
<rect opacity="0.2" width="655" height="370.334" rx="13.8931" fill="#CCD2D7"/>
<path opacity="0.5" d="M53.7761 319.978C55.1361 318.886 56.2016 317.992 56.9726 317.296C57.7436 316.589 58.3914 315.855 58.9162 315.095C59.4516 314.324 59.7193 313.569 59.7193 312.83C59.7193 312.134 59.548 311.588 59.2053 311.192C58.8733 310.785 58.3326 310.581 57.583 310.581C56.8548 310.581 56.2872 310.812 55.8803 311.272C55.4841 311.722 55.2699 312.327 55.2378 313.087H53.8243C53.8671 311.888 54.2312 310.962 54.9166 310.308C55.6019 309.655 56.4853 309.329 57.5669 309.329C58.6699 309.329 59.5426 309.634 60.1851 310.244C60.8383 310.854 61.1649 311.695 61.1649 312.766C61.1649 313.655 60.8972 314.522 60.3618 315.368C59.8371 316.203 59.2374 316.942 58.5628 317.585C57.8881 318.217 57.0261 318.955 55.9767 319.801H61.5023V321.022H53.7761V319.978ZM63.192 315.224C63.192 313.382 63.4918 311.947 64.0915 310.919C64.6912 309.88 65.7406 309.361 67.2398 309.361C68.7282 309.361 69.7723 309.88 70.372 310.919C70.9717 311.947 71.2715 313.382 71.2715 315.224C71.2715 317.097 70.9717 318.554 70.372 319.593C69.7723 320.631 68.7282 321.151 67.2398 321.151C65.7406 321.151 64.6912 320.631 64.0915 319.593C63.4918 318.554 63.192 317.097 63.192 315.224ZM69.8259 315.224C69.8259 314.292 69.7616 313.505 69.6331 312.862C69.5153 312.209 69.2637 311.684 68.8782 311.288C68.5034 310.892 67.9572 310.694 67.2398 310.694C66.5116 310.694 65.9547 310.892 65.5692 311.288C65.1944 311.684 64.9428 312.209 64.8143 312.862C64.6965 313.505 64.6376 314.292 64.6376 315.224C64.6376 316.187 64.6965 316.996 64.8143 317.649C64.9428 318.302 65.1944 318.827 65.5692 319.223C65.9547 319.619 66.5116 319.817 67.2398 319.817C67.9572 319.817 68.5034 319.619 68.8782 319.223C69.2637 318.827 69.5153 318.302 69.6331 317.649C69.7616 316.996 69.8259 316.187 69.8259 315.224ZM72.8927 310.871V309.537H75.9125V321.151H74.4347V310.871H72.8927ZM85.8282 310.806H80.1902V314.469C80.4365 314.126 80.8005 313.847 81.2824 313.633C81.7643 313.408 82.2837 313.296 82.8405 313.296C83.7293 313.296 84.4521 313.483 85.009 313.858C85.5658 314.222 85.962 314.699 86.1976 315.288C86.4439 315.866 86.567 316.482 86.567 317.135C86.567 317.906 86.4225 318.597 86.1334 319.207C85.8442 319.817 85.3998 320.299 84.8002 320.653C84.2112 321.006 83.4777 321.183 82.5996 321.183C81.4752 321.183 80.565 320.894 79.8689 320.315C79.1729 319.737 78.7499 318.966 78.6 318.002H80.0295C80.1687 318.613 80.4632 319.089 80.913 319.432C81.3627 319.775 81.9303 319.946 82.6156 319.946C83.4616 319.946 84.0987 319.694 84.5271 319.191C84.9554 318.677 85.1696 318.002 85.1696 317.167C85.1696 316.332 84.9554 315.689 84.5271 315.24C84.0987 314.779 83.4669 314.549 82.6317 314.549C82.0641 314.549 81.5662 314.688 81.1379 314.967C80.7202 315.234 80.415 315.604 80.2223 316.075H78.8409V309.521H85.8282V310.806Z" fill="#1A364A"/>
<g filter="url(#filter0_b_6598_10740)">
<rect x="49.9343" y="143.417" width="40.6017" height="152.71" rx="5.35422" fill="#0D6EFD" fill-opacity="0.5"/>
<rect x="50.3805" y="143.863" width="39.7094" height="151.818" rx="4.90804" stroke="#0D6EFD" stroke-opacity="0.3" stroke-width="0.892371"/>
</g>
<g filter="url(#filter1_d_6598_10740)">
<path d="M60.7593 124.832C60.7593 125.397 60.618 125.929 60.3354 126.426C60.0641 126.923 59.6572 127.342 59.1147 127.681C58.5834 128.02 57.9504 128.223 57.2157 128.291V129.664H56.1136V128.291C55.0511 128.189 54.192 127.856 53.5364 127.291C52.8809 126.726 52.5531 125.98 52.5531 125.053H54.6216C54.6555 125.494 54.7968 125.861 55.0454 126.155C55.2941 126.437 55.6502 126.618 56.1136 126.697V122.967C55.3563 122.775 54.7403 122.583 54.2655 122.391C53.7908 122.187 53.3839 121.871 53.0447 121.441C52.717 121.012 52.5531 120.424 52.5531 119.678C52.5531 118.74 52.8809 117.966 53.5364 117.355C54.192 116.733 55.0511 116.372 56.1136 116.27V114.897H57.2157V116.27C58.2104 116.36 59.0073 116.677 59.6064 117.219C60.2167 117.751 60.5615 118.485 60.6406 119.424H58.5721C58.5382 119.073 58.4025 118.762 58.1652 118.491C57.9278 118.209 57.6113 118.016 57.2157 117.915V121.577C57.973 121.758 58.589 121.95 59.0638 122.153C59.5385 122.346 59.9398 122.656 60.2676 123.086C60.5954 123.504 60.7593 124.086 60.7593 124.832ZM54.5198 119.576C54.5198 120.04 54.6555 120.401 54.9268 120.661C55.2093 120.921 55.605 121.13 56.1136 121.289V117.864C55.6276 117.92 55.2376 118.095 54.9437 118.389C54.6611 118.683 54.5198 119.079 54.5198 119.576ZM57.2157 126.697C57.713 126.618 58.103 126.42 58.3856 126.104C58.6682 125.776 58.8095 125.386 58.8095 124.934C58.8095 124.482 58.6682 124.131 58.3856 123.883C58.1143 123.623 57.7243 123.414 57.2157 123.255V126.697ZM70.2268 118.695C70.1025 118.175 69.8764 117.785 69.5486 117.525C69.2208 117.265 68.763 117.135 68.1753 117.135C67.2823 117.135 66.6154 117.479 66.1746 118.169C65.7337 118.847 65.502 119.978 65.4794 121.56C65.7733 121.063 66.2028 120.678 66.768 120.407C67.3332 120.136 67.9435 120 68.5991 120C69.3452 120 70.0008 120.164 70.5659 120.492C71.1424 120.808 71.5889 121.272 71.9054 121.882C72.2332 122.492 72.3971 123.222 72.3971 124.069C72.3971 124.861 72.2388 125.567 71.9223 126.189C71.6171 126.81 71.1594 127.302 70.549 127.664C69.9386 128.014 69.2039 128.189 68.3448 128.189C67.1806 128.189 66.265 127.935 65.5981 127.426C64.9425 126.906 64.4791 126.177 64.2078 125.239C63.9478 124.301 63.8178 123.131 63.8178 121.73C63.8178 117.592 65.276 115.524 68.1922 115.524C69.3226 115.524 70.2099 115.829 70.8542 116.44C71.5098 117.05 71.8941 117.802 72.0071 118.695H70.2268ZM68.1753 121.628C67.4858 121.628 66.898 121.837 66.4119 122.255C65.9372 122.662 65.6998 123.255 65.6998 124.035C65.6998 124.815 65.9202 125.437 66.3611 125.9C66.8132 126.353 67.4406 126.579 68.2431 126.579C68.9552 126.579 69.5147 126.358 69.9216 125.917C70.3399 125.477 70.549 124.889 70.549 124.154C70.549 123.385 70.3455 122.775 69.9386 122.323C69.543 121.86 68.9552 121.628 68.1753 121.628ZM75.4931 128.308C75.1427 128.308 74.8488 128.189 74.6114 127.952C74.3741 127.715 74.2554 127.421 74.2554 127.07C74.2554 126.72 74.3741 126.426 74.6114 126.189C74.8488 125.951 75.1427 125.833 75.4931 125.833C75.8322 125.833 76.1204 125.951 76.3578 126.189C76.5952 126.426 76.7139 126.72 76.7139 127.07C76.7139 127.421 76.5952 127.715 76.3578 127.952C76.1204 128.189 75.8322 128.308 75.4931 128.308ZM79.6167 125.561C80.7019 124.623 81.5553 123.855 82.177 123.255C82.8099 122.645 83.3355 122.012 83.7538 121.357C84.172 120.701 84.3811 120.045 84.3811 119.39C84.3811 118.712 84.2172 118.18 83.8894 117.796C83.5729 117.412 83.0699 117.219 82.3804 117.219C81.7135 117.219 81.1936 117.434 80.8205 117.864C80.4588 118.282 80.2667 118.847 80.2441 119.559H78.379C78.4129 118.271 78.7972 117.287 79.532 116.609C80.278 115.92 81.2218 115.575 82.3635 115.575C83.5955 115.575 84.5563 115.914 85.2458 116.592C85.9466 117.27 86.297 118.175 86.297 119.305C86.297 120.119 86.0879 120.904 85.6697 121.662C85.2628 122.408 84.7711 123.08 84.1946 123.679C83.6294 124.267 82.906 124.951 82.0244 125.731L81.2614 126.409H86.6361V128.02H78.396V126.613L79.6167 125.561Z" fill="#1A364A"/>
</g>
<path opacity="0.5" d="M127.056 319.978C128.416 318.886 129.482 317.992 130.253 317.296C131.024 316.589 131.671 315.856 132.196 315.095C132.732 314.324 132.999 313.569 132.999 312.83C132.999 312.134 132.828 311.588 132.485 311.192C132.153 310.785 131.613 310.582 130.863 310.582C130.135 310.582 129.567 310.812 129.16 311.272C128.764 311.722 128.55 312.327 128.518 313.087H127.104C127.147 311.888 127.511 310.962 128.197 310.309C128.882 309.655 129.765 309.329 130.847 309.329C131.95 309.329 132.823 309.634 133.465 310.244C134.118 310.855 134.445 311.695 134.445 312.766C134.445 313.655 134.177 314.522 133.642 315.368C133.117 316.204 132.517 316.943 131.843 317.585C131.168 318.217 130.306 318.956 129.257 319.802H134.782V321.022H127.056V319.978ZM136.472 315.224C136.472 313.382 136.772 311.947 137.371 310.919C137.971 309.88 139.021 309.361 140.52 309.361C142.008 309.361 143.052 309.88 143.652 310.919C144.252 311.947 144.551 313.382 144.551 315.224C144.551 317.098 144.252 318.554 143.652 319.593C143.052 320.632 142.008 321.151 140.52 321.151C139.021 321.151 137.971 320.632 137.371 319.593C136.772 318.554 136.472 317.098 136.472 315.224ZM143.106 315.224C143.106 314.292 143.042 313.505 142.913 312.863C142.795 312.209 142.544 311.685 142.158 311.288C141.783 310.892 141.237 310.694 140.52 310.694C139.792 310.694 139.235 310.892 138.849 311.288C138.474 311.685 138.223 312.209 138.094 312.863C137.976 313.505 137.918 314.292 137.918 315.224C137.918 316.188 137.976 316.996 138.094 317.649C138.223 318.302 138.474 318.827 138.849 319.223C139.235 319.62 139.792 319.818 140.52 319.818C141.237 319.818 141.783 319.62 142.158 319.223C142.544 318.827 142.795 318.302 142.913 317.649C143.042 316.996 143.106 316.188 143.106 315.224ZM146.173 310.871V309.538H149.192V321.151H147.715V310.871H146.173ZM158.177 312.3C157.941 311.112 157.207 310.517 155.976 310.517C155.023 310.517 154.311 310.887 153.84 311.626C153.368 312.354 153.138 313.559 153.149 315.24C153.395 314.683 153.802 314.249 154.37 313.939C154.948 313.618 155.59 313.457 156.297 313.457C157.4 313.457 158.278 313.8 158.931 314.485C159.595 315.17 159.927 316.118 159.927 317.328C159.927 318.056 159.783 318.709 159.494 319.288C159.215 319.866 158.787 320.326 158.209 320.669C157.641 321.012 156.95 321.183 156.137 321.183C155.034 321.183 154.172 320.937 153.55 320.444C152.929 319.952 152.496 319.272 152.249 318.404C152.003 317.537 151.88 316.466 151.88 315.192C151.88 311.262 153.251 309.297 155.992 309.297C157.041 309.297 157.866 309.58 158.466 310.148C159.065 310.716 159.419 311.433 159.526 312.3H158.177ZM155.992 314.694C155.532 314.694 155.098 314.79 154.691 314.983C154.284 315.165 153.952 315.449 153.695 315.834C153.449 316.209 153.326 316.669 153.326 317.216C153.326 318.029 153.561 318.693 154.032 319.207C154.504 319.711 155.178 319.962 156.056 319.962C156.806 319.962 157.4 319.732 157.839 319.272C158.289 318.8 158.514 318.169 158.514 317.376C158.514 316.541 158.3 315.888 157.871 315.417C157.443 314.935 156.817 314.694 155.992 314.694Z" fill="#1A364A"/>
<g filter="url(#filter2_b_6598_10740)">
<rect x="122.829" y="143.417" width="40.6017" height="152.71" rx="5.35422" fill="#0D6EFD" fill-opacity="0.5"/>
<rect x="123.275" y="143.863" width="39.7094" height="151.818" rx="4.90804" stroke="#0D6EFD" stroke-opacity="0.3" stroke-width="0.892371"/>
</g>
<g filter="url(#filter3_d_6598_10740)">
<path d="M134.557 124.788C134.557 125.353 134.416 125.884 134.133 126.382C133.862 126.879 133.455 127.297 132.912 127.636C132.381 127.975 131.748 128.179 131.013 128.247V129.62H129.911V128.247C128.849 128.145 127.99 127.811 127.334 127.246C126.678 126.681 126.351 125.935 126.351 125.008H128.419C128.453 125.449 128.594 125.816 128.843 126.11C129.092 126.393 129.448 126.574 129.911 126.653V122.923C129.154 122.731 128.538 122.538 128.063 122.346C127.588 122.143 127.181 121.826 126.842 121.397C126.514 120.967 126.351 120.38 126.351 119.633C126.351 118.695 126.678 117.921 127.334 117.311C127.99 116.689 128.849 116.327 129.911 116.226V114.852H131.013V116.226C132.008 116.316 132.805 116.632 133.404 117.175C134.014 117.706 134.359 118.441 134.438 119.379H132.37C132.336 119.029 132.2 118.718 131.963 118.447C131.725 118.164 131.409 117.972 131.013 117.87V121.532C131.771 121.713 132.387 121.905 132.861 122.109C133.336 122.301 133.737 122.612 134.065 123.041C134.393 123.46 134.557 124.042 134.557 124.788ZM128.317 119.532C128.317 119.995 128.453 120.357 128.724 120.617C129.007 120.877 129.402 121.086 129.911 121.244V117.819C129.425 117.876 129.035 118.051 128.741 118.345C128.459 118.639 128.317 119.034 128.317 119.532ZM131.013 126.653C131.511 126.574 131.901 126.376 132.183 126.059C132.466 125.732 132.607 125.342 132.607 124.89C132.607 124.437 132.466 124.087 132.183 123.838C131.912 123.578 131.522 123.369 131.013 123.211V126.653ZM144.024 118.65C143.9 118.13 143.674 117.74 143.346 117.48C143.018 117.22 142.561 117.09 141.973 117.09C141.08 117.09 140.413 117.435 139.972 118.124C139.531 118.803 139.3 119.933 139.277 121.516C139.571 121.018 140 120.634 140.566 120.363C141.131 120.091 141.741 119.956 142.397 119.956C143.143 119.956 143.798 120.12 144.363 120.447C144.94 120.764 145.386 121.227 145.703 121.838C146.031 122.448 146.195 123.177 146.195 124.025C146.195 124.816 146.036 125.523 145.72 126.144C145.415 126.766 144.957 127.258 144.346 127.619C143.736 127.97 143.001 128.145 142.142 128.145C140.978 128.145 140.063 127.891 139.396 127.382C138.74 126.862 138.277 126.133 138.005 125.195C137.745 124.257 137.615 123.087 137.615 121.685C137.615 117.548 139.073 115.48 141.99 115.48C143.12 115.48 144.007 115.785 144.652 116.395C145.307 117.005 145.692 117.757 145.805 118.65H144.024ZM141.973 121.583C141.283 121.583 140.695 121.792 140.209 122.211C139.735 122.618 139.497 123.211 139.497 123.991C139.497 124.771 139.718 125.393 140.159 125.856C140.611 126.308 141.238 126.534 142.041 126.534C142.753 126.534 143.312 126.314 143.719 125.873C144.137 125.432 144.346 124.844 144.346 124.11C144.346 123.341 144.143 122.731 143.736 122.278C143.34 121.815 142.753 121.583 141.973 121.583ZM149.291 128.264C148.94 128.264 148.646 128.145 148.409 127.908C148.172 127.67 148.053 127.376 148.053 127.026C148.053 126.675 148.172 126.382 148.409 126.144C148.646 125.907 148.94 125.788 149.291 125.788C149.63 125.788 149.918 125.907 150.155 126.144C150.393 126.382 150.511 126.675 150.511 127.026C150.511 127.376 150.393 127.67 150.155 127.908C149.918 128.145 149.63 128.264 149.291 128.264ZM153.414 125.517C154.499 124.579 155.353 123.81 155.974 123.211C156.607 122.601 157.133 121.968 157.551 121.312C157.97 120.656 158.179 120.001 158.179 119.345C158.179 118.667 158.015 118.136 157.687 117.751C157.37 117.367 156.867 117.175 156.178 117.175C155.511 117.175 154.991 117.39 154.618 117.819C154.256 118.238 154.064 118.803 154.042 119.515H152.177C152.21 118.226 152.595 117.243 153.329 116.565C154.075 115.875 155.019 115.53 156.161 115.53C157.393 115.53 158.354 115.869 159.043 116.548C159.744 117.226 160.095 118.13 160.095 119.26C160.095 120.074 159.885 120.86 159.467 121.617C159.06 122.363 158.569 123.036 157.992 123.635C157.427 124.223 156.704 124.907 155.822 125.686L155.059 126.365H160.434V127.975H152.193V126.568L153.414 125.517Z" fill="#1A364A"/>
</g>
<path opacity="0.5" d="M200.663 319.978C202.023 318.886 203.089 317.992 203.86 317.296C204.631 316.589 205.278 315.855 205.803 315.095C206.339 314.324 206.606 313.569 206.606 312.83C206.606 312.134 206.435 311.588 206.092 311.192C205.76 310.785 205.219 310.582 204.47 310.582C203.742 310.582 203.174 310.812 202.767 311.272C202.371 311.722 202.157 312.327 202.125 313.087H200.711C200.754 311.888 201.118 310.962 201.803 310.309C202.489 309.655 203.372 309.329 204.454 309.329C205.557 309.329 206.43 309.634 207.072 310.244C207.725 310.855 208.052 311.695 208.052 312.766C208.052 313.655 207.784 314.522 207.249 315.368C206.724 316.204 206.124 316.942 205.45 317.585C204.775 318.217 203.913 318.956 202.864 319.802H208.389V321.022H200.663V319.978ZM210.079 315.224C210.079 313.382 210.379 311.947 210.978 310.919C211.578 309.88 212.628 309.361 214.127 309.361C215.615 309.361 216.659 309.88 217.259 310.919C217.859 311.947 218.158 313.382 218.158 315.224C218.158 317.098 217.859 318.554 217.259 319.593C216.659 320.631 215.615 321.151 214.127 321.151C212.628 321.151 211.578 320.631 210.978 319.593C210.379 318.554 210.079 317.098 210.079 315.224ZM216.713 315.224C216.713 314.292 216.649 313.505 216.52 312.862C216.402 312.209 216.151 311.685 215.765 311.288C215.39 310.892 214.844 310.694 214.127 310.694C213.399 310.694 212.842 310.892 212.456 311.288C212.081 311.685 211.83 312.209 211.701 312.862C211.583 313.505 211.525 314.292 211.525 315.224C211.525 316.187 211.583 316.996 211.701 317.649C211.83 318.302 212.081 318.827 212.456 319.223C212.842 319.62 213.399 319.818 214.127 319.818C214.844 319.818 215.39 319.62 215.765 319.223C216.151 318.827 216.402 318.302 216.52 317.649C216.649 316.996 216.713 316.187 216.713 315.224ZM219.78 310.871V309.538H222.799V321.151H221.322V310.871H219.78ZM232.458 310.678L227.993 321.151H226.515L231.045 310.823H224.844V309.57H232.458V310.678Z" fill="#1A364A"/>
<g filter="url(#filter4_b_6598_10740)">
<rect x="196.604" y="119.617" width="40.6017" height="176.51" rx="5.35422" fill="#0D6EFD" fill-opacity="0.5"/>
<rect x="197.05" y="120.063" width="39.7094" height="175.617" rx="4.90804" stroke="#0D6EFD" stroke-opacity="0.3" stroke-width="0.892371"/>
</g>
<g filter="url(#filter5_d_6598_10740)">
<path d="M210.981 102.068C210.981 102.633 210.84 103.164 210.557 103.662C210.286 104.159 209.879 104.577 209.336 104.916C208.805 105.256 208.172 105.459 207.437 105.527V106.9H206.335V105.527C205.273 105.425 204.414 105.092 203.758 104.526C203.102 103.961 202.775 103.215 202.775 102.288H204.843C204.877 102.729 205.018 103.097 205.267 103.39C205.516 103.673 205.872 103.854 206.335 103.933V100.203C205.578 100.011 204.962 99.8186 204.487 99.6265C204.012 99.423 203.605 99.1065 203.266 98.677C202.938 98.2474 202.775 97.6597 202.775 96.9136C202.775 95.9755 203.102 95.2012 203.758 94.5908C204.414 93.9691 205.273 93.6074 206.335 93.5057V92.1323H207.437V93.5057C208.432 93.5961 209.229 93.9126 209.828 94.4552C210.438 94.9864 210.783 95.7211 210.862 96.6593H208.794C208.76 96.3089 208.624 95.9981 208.387 95.7268C208.149 95.4442 207.833 95.2521 207.437 95.1503V98.8126C208.195 98.9935 208.811 99.1856 209.285 99.3891C209.76 99.5812 210.161 99.8921 210.489 100.322C210.817 100.74 210.981 101.322 210.981 102.068ZM204.741 96.8119C204.741 97.2754 204.877 97.6371 205.148 97.897C205.431 98.157 205.826 98.3661 206.335 98.5244V95.0995C205.849 95.156 205.459 95.3312 205.165 95.6251C204.883 95.919 204.741 96.3146 204.741 96.8119ZM207.437 103.933C207.935 103.854 208.325 103.656 208.607 103.34C208.89 103.012 209.031 102.622 209.031 102.17C209.031 101.718 208.89 101.367 208.607 101.118C208.336 100.859 207.946 100.649 207.437 100.491V103.933ZM221.635 94.5569L216.922 105.425H214.972L219.736 94.7604H213.463V93.1157H221.635V94.5569ZM224.324 105.544C223.973 105.544 223.679 105.425 223.442 105.188C223.205 104.95 223.086 104.656 223.086 104.306C223.086 103.956 223.205 103.662 223.442 103.424C223.679 103.187 223.973 103.068 224.324 103.068C224.663 103.068 224.951 103.187 225.188 103.424C225.426 103.662 225.545 103.956 225.545 104.306C225.545 104.656 225.426 104.95 225.188 105.188C224.951 105.425 224.663 105.544 224.324 105.544ZM227.125 94.8282V93.0649H230.652V105.425H228.702V94.8282H227.125Z" fill="#1A364A"/>
</g>
<path opacity="0.5" d="M272.874 319.978C274.234 318.886 275.299 317.991 276.07 317.295C276.841 316.589 277.489 315.855 278.014 315.095C278.549 314.324 278.817 313.569 278.817 312.83C278.817 312.134 278.645 311.588 278.303 311.192C277.971 310.785 277.43 310.581 276.68 310.581C275.952 310.581 275.385 310.811 274.978 311.272C274.582 311.722 274.367 312.327 274.335 313.087H272.922C272.965 311.888 273.329 310.961 274.014 310.308C274.699 309.655 275.583 309.328 276.664 309.328C277.767 309.328 278.64 309.633 279.283 310.244C279.936 310.854 280.262 311.695 280.262 312.766C280.262 313.654 279.995 314.522 279.459 315.368C278.935 316.203 278.335 316.942 277.66 317.584C276.986 318.216 276.124 318.955 275.074 319.801H280.6V321.022H272.874V319.978ZM282.289 315.223C282.289 313.381 282.589 311.946 283.189 310.918C283.789 309.88 284.838 309.36 286.337 309.36C287.826 309.36 288.87 309.88 289.469 310.918C290.069 311.946 290.369 313.381 290.369 315.223C290.369 317.097 290.069 318.554 289.469 319.592C288.87 320.631 287.826 321.15 286.337 321.15C284.838 321.15 283.789 320.631 283.189 319.592C282.589 318.554 282.289 317.097 282.289 315.223ZM288.923 315.223C288.923 314.292 288.859 313.505 288.731 312.862C288.613 312.209 288.361 311.684 287.976 311.288C287.601 310.892 287.055 310.694 286.337 310.694C285.609 310.694 285.052 310.892 284.667 311.288C284.292 311.684 284.04 312.209 283.912 312.862C283.794 313.505 283.735 314.292 283.735 315.223C283.735 316.187 283.794 316.996 283.912 317.649C284.04 318.302 284.292 318.827 284.667 319.223C285.052 319.619 285.609 319.817 286.337 319.817C287.055 319.817 287.601 319.619 287.976 319.223C288.361 318.827 288.613 318.302 288.731 317.649C288.859 316.996 288.923 316.187 288.923 315.223ZM291.99 310.87V309.537H295.01V321.15H293.532V310.87H291.99ZM299.641 315.111C299.041 314.875 298.581 314.533 298.26 314.083C297.938 313.633 297.778 313.087 297.778 312.444C297.778 311.866 297.922 311.347 298.211 310.886C298.501 310.415 298.929 310.046 299.496 309.778C300.075 309.5 300.771 309.36 301.585 309.36C302.398 309.36 303.089 309.5 303.657 309.778C304.235 310.046 304.669 310.415 304.958 310.886C305.258 311.347 305.408 311.866 305.408 312.444C305.408 313.066 305.242 313.612 304.91 314.083C304.578 314.543 304.123 314.886 303.544 315.111C304.208 315.314 304.733 315.673 305.118 316.187C305.515 316.69 305.713 317.301 305.713 318.018C305.713 318.714 305.541 319.325 305.199 319.849C304.856 320.363 304.369 320.765 303.737 321.054C303.116 321.332 302.398 321.472 301.585 321.472C300.771 321.472 300.053 321.332 299.432 321.054C298.822 320.765 298.345 320.363 298.003 319.849C297.66 319.325 297.489 318.714 297.489 318.018C297.489 317.301 297.681 316.685 298.067 316.171C298.452 315.657 298.977 315.304 299.641 315.111ZM303.994 312.621C303.994 311.968 303.78 311.465 303.352 311.111C302.923 310.758 302.334 310.581 301.585 310.581C300.846 310.581 300.262 310.758 299.834 311.111C299.405 311.465 299.191 311.973 299.191 312.637C299.191 313.237 299.411 313.719 299.85 314.083C300.3 314.447 300.878 314.629 301.585 314.629C302.302 314.629 302.88 314.447 303.319 314.083C303.769 313.708 303.994 313.221 303.994 312.621ZM301.585 315.753C300.792 315.753 300.144 315.941 299.641 316.316C299.138 316.68 298.886 317.231 298.886 317.97C298.886 318.655 299.127 319.207 299.609 319.624C300.101 320.042 300.76 320.251 301.585 320.251C302.409 320.251 303.062 320.042 303.544 319.624C304.026 319.207 304.267 318.655 304.267 317.97C304.267 317.253 304.021 316.706 303.528 316.332C303.036 315.946 302.388 315.753 301.585 315.753Z" fill="#1A364A"/>
<g filter="url(#filter6_b_6598_10740)">
<rect x="268.614" y="78.6306" width="40.6017" height="217.497" rx="5.35422" fill="#0D6EFD" fill-opacity="0.5"/>
<rect x="269.06" y="79.0767" width="39.7094" height="216.604" rx="4.90804" stroke="#0D6EFD" stroke-opacity="0.3" stroke-width="0.892371"/>
</g>
<g filter="url(#filter7_d_6598_10740)">
<path d="M280.173 62.6637C280.173 63.2289 280.031 63.7601 279.749 64.2575C279.478 64.7548 279.071 65.173 278.528 65.5121C277.997 65.8512 277.364 66.0547 276.629 66.1225V67.4959H275.527V66.1225C274.465 66.0208 273.606 65.6873 272.95 65.1222C272.294 64.557 271.967 63.811 271.967 62.8841H274.035C274.069 63.3249 274.21 63.6923 274.459 63.9862C274.708 64.2688 275.064 64.4496 275.527 64.5287V60.7986C274.77 60.6065 274.154 60.4143 273.679 60.2222C273.204 60.0187 272.797 59.7022 272.458 59.2727C272.13 58.8431 271.967 58.2554 271.967 57.5094C271.967 56.5712 272.294 55.7969 272.95 55.1865C273.606 54.5648 274.465 54.2031 275.527 54.1014V52.728H276.629V54.1014C277.624 54.1918 278.421 54.5083 279.02 55.0509C279.63 55.5821 279.975 56.3168 280.054 57.255H277.986C277.952 56.9046 277.816 56.5938 277.579 56.3225C277.341 56.0399 277.025 55.8478 276.629 55.746V59.4083C277.386 59.5892 278.003 59.7813 278.477 59.9848C278.952 60.1769 279.353 60.4878 279.681 60.9173C280.009 61.3355 280.173 61.9177 280.173 62.6637ZM273.933 57.4076C273.933 57.8711 274.069 58.2328 274.34 58.4927C274.623 58.7527 275.018 58.9618 275.527 59.1201V55.6952C275.041 55.7517 274.651 55.9269 274.357 56.2208C274.075 56.5147 273.933 56.9103 273.933 57.4076ZM276.629 64.5287C277.127 64.4496 277.516 64.2518 277.799 63.9353C278.082 63.6075 278.223 63.2175 278.223 62.7654C278.223 62.3133 278.082 61.9629 277.799 61.7142C277.528 61.4542 277.138 61.2451 276.629 61.0869V64.5287ZM285.079 59.5609C283.904 58.9731 283.316 58.0463 283.316 56.7803C283.316 56.1699 283.469 55.6104 283.774 55.1017C284.079 54.5931 284.537 54.1918 285.147 53.8979C285.758 53.5927 286.504 53.4401 287.385 53.4401C288.256 53.4401 288.996 53.5927 289.606 53.8979C290.228 54.1918 290.692 54.5931 290.997 55.1017C291.302 55.6104 291.454 56.1699 291.454 56.7803C291.454 57.4133 291.291 57.9728 290.963 58.4588C290.646 58.9336 290.222 59.3009 289.691 59.5609C290.335 59.7983 290.844 60.1882 291.217 60.7308C291.59 61.2621 291.777 61.8894 291.777 62.6128C291.777 63.3475 291.59 63.9975 291.217 64.5626C290.844 65.1278 290.324 65.563 289.657 65.8682C288.99 66.1734 288.233 66.326 287.385 66.326C286.538 66.326 285.78 66.1734 285.113 65.8682C284.458 65.563 283.943 65.1278 283.57 64.5626C283.197 63.9975 283.011 63.3475 283.011 62.6128C283.011 61.8781 283.197 61.2451 283.57 60.7139C283.943 60.1826 284.446 59.7983 285.079 59.5609ZM289.606 57.0177C289.606 56.3847 289.409 55.8986 289.013 55.5595C288.617 55.2204 288.075 55.0509 287.385 55.0509C286.707 55.0509 286.17 55.2204 285.775 55.5595C285.379 55.8986 285.181 56.3903 285.181 57.0346C285.181 57.5998 285.385 58.0632 285.792 58.4249C286.21 58.7753 286.741 58.9505 287.385 58.9505C288.03 58.9505 288.561 58.7697 288.979 58.408C289.397 58.0463 289.606 57.5828 289.606 57.0177ZM287.385 60.4087C286.639 60.4087 286.029 60.5952 285.554 60.9682C285.091 61.3299 284.859 61.8555 284.859 62.545C284.859 63.1893 285.085 63.7149 285.537 64.1218C285.989 64.5174 286.605 64.7152 287.385 64.7152C288.154 64.7152 288.759 64.5118 289.199 64.1049C289.652 63.6979 289.878 63.178 289.878 62.545C289.878 61.8668 289.646 61.3412 289.183 60.9682C288.73 60.5952 288.131 60.4087 287.385 60.4087ZM294.84 66.1395C294.49 66.1395 294.196 66.0208 293.959 65.7834C293.721 65.546 293.603 65.2522 293.603 64.9017C293.603 64.5513 293.721 64.2575 293.959 64.0201C294.196 63.7827 294.49 63.664 294.84 63.664C295.179 63.664 295.468 63.7827 295.705 64.0201C295.942 64.2575 296.061 64.5513 296.061 64.9017C296.061 65.2522 295.942 65.546 295.705 65.7834C295.468 66.0208 295.179 66.1395 294.84 66.1395ZM305.729 55.1526L301.016 66.0208H299.066L303.83 55.3561H297.557V53.7114H305.729V55.1526Z" fill="#1A364A"/>
</g>
<path opacity="0.5" d="M346.658 319.978C348.018 318.886 349.083 317.992 349.854 317.296C350.625 316.589 351.273 315.855 351.798 315.095C352.333 314.324 352.601 313.569 352.601 312.83C352.601 312.134 352.43 311.588 352.087 311.192C351.755 310.785 351.214 310.582 350.465 310.582C349.736 310.582 349.169 310.812 348.762 311.272C348.366 311.722 348.152 312.327 348.12 313.087H346.706C346.749 311.888 347.113 310.962 347.798 310.308C348.484 309.655 349.367 309.329 350.449 309.329C351.552 309.329 352.424 309.634 353.067 310.244C353.72 310.855 354.047 311.695 354.047 312.766C354.047 313.655 353.779 314.522 353.243 315.368C352.719 316.203 352.119 316.942 351.444 317.585C350.77 318.217 349.908 318.956 348.858 319.801H354.384V321.022H346.658V319.978ZM356.074 315.224C356.074 313.382 356.374 311.947 356.973 310.919C357.573 309.88 358.622 309.361 360.121 309.361C361.61 309.361 362.654 309.88 363.254 310.919C363.853 311.947 364.153 313.382 364.153 315.224C364.153 317.098 363.853 318.554 363.254 319.593C362.654 320.631 361.61 321.151 360.121 321.151C358.622 321.151 357.573 320.631 356.973 319.593C356.374 318.554 356.074 317.098 356.074 315.224ZM362.708 315.224C362.708 314.292 362.643 313.505 362.515 312.862C362.397 312.209 362.145 311.684 361.76 311.288C361.385 310.892 360.839 310.694 360.121 310.694C359.393 310.694 358.836 310.892 358.451 311.288C358.076 311.684 357.824 312.209 357.696 312.862C357.578 313.505 357.519 314.292 357.519 315.224C357.519 316.187 357.578 316.996 357.696 317.649C357.824 318.302 358.076 318.827 358.451 319.223C358.836 319.619 359.393 319.818 360.121 319.818C360.839 319.818 361.385 319.619 361.76 319.223C362.145 318.827 362.397 318.302 362.515 317.649C362.643 316.996 362.708 316.187 362.708 315.224ZM365.774 310.871V309.537H368.794V321.151H367.316V310.871H365.774ZM373.184 318.035C373.291 318.645 373.538 319.116 373.923 319.448C374.319 319.78 374.849 319.946 375.513 319.946C376.402 319.946 377.055 319.598 377.473 318.902C377.901 318.206 378.105 317.033 378.083 315.384C377.859 315.866 377.484 316.246 376.959 316.525C376.434 316.792 375.851 316.926 375.208 316.926C374.491 316.926 373.848 316.782 373.281 316.493C372.724 316.193 372.285 315.759 371.964 315.192C371.642 314.624 371.482 313.939 371.482 313.135C371.482 311.99 371.814 311.069 372.478 310.373C373.141 309.666 374.084 309.313 375.305 309.313C376.804 309.313 377.853 309.8 378.453 310.774C379.063 311.749 379.368 313.2 379.368 315.127C379.368 316.477 379.245 317.59 378.999 318.468C378.763 319.346 378.356 320.016 377.778 320.476C377.211 320.937 376.429 321.167 375.433 321.167C374.341 321.167 373.489 320.872 372.879 320.283C372.269 319.694 371.921 318.945 371.835 318.035H373.184ZM375.449 315.689C376.167 315.689 376.756 315.47 377.216 315.031C377.676 314.581 377.907 313.976 377.907 313.216C377.907 312.413 377.682 311.765 377.232 311.272C376.782 310.78 376.151 310.533 375.337 310.533C374.587 310.533 373.987 310.769 373.538 311.24C373.099 311.711 372.879 312.332 372.879 313.103C372.879 313.885 373.099 314.512 373.538 314.983C373.977 315.454 374.614 315.689 375.449 315.689Z" fill="#1A364A"/>
<g filter="url(#filter8_b_6598_10740)">
<rect x="343.281" y="125.567" width="40.6017" height="170.56" rx="5.35422" fill="#0D6EFD" fill-opacity="0.5"/>
<rect x="343.727" y="126.013" width="39.7094" height="169.667" rx="4.90804" stroke="#0D6EFD" stroke-opacity="0.3" stroke-width="0.892371"/>
</g>
<g filter="url(#filter9_d_6598_10740)">
<path d="M354.174 106.983C354.174 107.548 354.033 108.079 353.751 108.577C353.479 109.074 353.072 109.492 352.53 109.831C351.998 110.171 351.365 110.374 350.631 110.442V111.815H349.529V110.442C348.466 110.34 347.607 110.007 346.952 109.441C346.296 108.876 345.968 108.13 345.968 107.203H348.037C348.071 107.644 348.212 108.012 348.461 108.305C348.709 108.588 349.065 108.769 349.529 108.848V105.118C348.771 104.926 348.155 104.734 347.681 104.541C347.206 104.338 346.799 104.022 346.46 103.592C346.132 103.162 345.968 102.575 345.968 101.829C345.968 100.89 346.296 100.116 346.952 99.5058C347.607 98.8841 348.466 98.5224 349.529 98.4207V97.0473H350.631V98.4207C351.625 98.5111 352.422 98.8276 353.021 99.3702C353.632 99.9014 353.977 100.636 354.056 101.574H351.987C351.953 101.224 351.818 100.913 351.58 100.642C351.343 100.359 351.026 100.167 350.631 100.065V103.728C351.388 103.908 352.004 104.101 352.479 104.304C352.954 104.496 353.355 104.807 353.683 105.237C354.01 105.655 354.174 106.237 354.174 106.983ZM347.935 101.727C347.935 102.19 348.071 102.552 348.342 102.812C348.624 103.072 349.02 103.281 349.529 103.439V100.014C349.043 100.071 348.653 100.246 348.359 100.54C348.076 100.834 347.935 101.23 347.935 101.727ZM350.631 108.848C351.128 108.769 351.518 108.571 351.801 108.255C352.083 107.927 352.225 107.537 352.225 107.085C352.225 106.633 352.083 106.282 351.801 106.034C351.529 105.774 351.139 105.564 350.631 105.406V108.848ZM363.642 100.845C363.518 100.325 363.292 99.9353 362.964 99.6754C362.636 99.4154 362.178 99.2854 361.59 99.2854C360.697 99.2854 360.03 99.6302 359.59 100.32C359.149 100.998 358.917 102.128 358.895 103.711C359.188 103.213 359.618 102.829 360.183 102.558C360.748 102.286 361.359 102.151 362.014 102.151C362.76 102.151 363.416 102.315 363.981 102.642C364.557 102.959 365.004 103.422 365.32 104.033C365.648 104.643 365.812 105.372 365.812 106.22C365.812 107.011 365.654 107.718 365.337 108.339C365.032 108.961 364.574 109.453 363.964 109.814C363.354 110.165 362.619 110.34 361.76 110.34C360.596 110.34 359.68 110.086 359.013 109.577C358.358 109.057 357.894 108.328 357.623 107.39C357.363 106.452 357.233 105.282 357.233 103.88C357.233 99.7432 358.691 97.6747 361.607 97.6747C362.738 97.6747 363.625 97.9799 364.269 98.5902C364.925 99.2006 365.309 99.9523 365.422 100.845H363.642ZM361.59 103.778C360.901 103.778 360.313 103.988 359.827 104.406C359.352 104.813 359.115 105.406 359.115 106.186C359.115 106.966 359.335 107.588 359.776 108.051C360.228 108.503 360.856 108.729 361.658 108.729C362.37 108.729 362.93 108.509 363.337 108.068C363.755 107.627 363.964 107.04 363.964 106.305C363.964 105.536 363.761 104.926 363.354 104.474C362.958 104.01 362.37 103.778 361.59 103.778ZM368.908 110.459C368.558 110.459 368.264 110.34 368.027 110.103C367.789 109.865 367.67 109.571 367.67 109.221C367.67 108.871 367.789 108.577 368.027 108.339C368.264 108.102 368.558 107.983 368.908 107.983C369.247 107.983 369.536 108.102 369.773 108.339C370.01 108.577 370.129 108.871 370.129 109.221C370.129 109.571 370.01 109.865 369.773 110.103C369.536 110.34 369.247 110.459 368.908 110.459ZM374.371 106.983C374.484 107.548 374.727 107.978 375.1 108.272C375.473 108.565 375.976 108.712 376.609 108.712C377.412 108.712 378 108.396 378.373 107.763C378.746 107.13 378.932 106.05 378.932 104.525C378.661 104.909 378.277 105.208 377.779 105.423C377.293 105.627 376.762 105.728 376.185 105.728C375.451 105.728 374.784 105.581 374.185 105.287C373.586 104.982 373.111 104.536 372.761 103.948C372.421 103.349 372.252 102.626 372.252 101.778C372.252 100.534 372.614 99.5454 373.337 98.8107C374.072 98.0646 375.078 97.6916 376.355 97.6916C377.892 97.6916 378.983 98.2059 379.627 99.2345C380.283 100.252 380.611 101.817 380.611 103.931C380.611 105.389 380.486 106.582 380.238 107.509C380 108.435 379.582 109.136 378.983 109.611C378.384 110.086 377.553 110.323 376.491 110.323C375.281 110.323 374.349 110.007 373.693 109.374C373.037 108.741 372.67 107.944 372.591 106.983H374.371ZM376.525 104.101C377.203 104.101 377.734 103.892 378.118 103.473C378.514 103.044 378.712 102.479 378.712 101.778C378.712 100.998 378.503 100.393 378.084 99.9636C377.678 99.5228 377.118 99.3024 376.406 99.3024C375.694 99.3024 375.129 99.5284 374.71 99.9806C374.303 100.421 374.1 101.004 374.1 101.727C374.1 102.416 374.298 102.987 374.693 103.439C375.1 103.88 375.711 104.101 376.525 104.101Z" fill="#1A364A"/>
</g>
<path opacity="0.5" d="M419.726 319.978C421.086 318.886 422.152 317.992 422.923 317.296C423.694 316.589 424.342 315.856 424.866 315.095C425.402 314.324 425.669 313.569 425.669 312.83C425.669 312.134 425.498 311.588 425.155 311.192C424.824 310.785 424.283 310.582 423.533 310.582C422.805 310.582 422.237 310.812 421.83 311.272C421.434 311.722 421.22 312.327 421.188 313.087H419.774C419.817 311.888 420.181 310.962 420.867 310.309C421.552 309.655 422.436 309.329 423.517 309.329C424.62 309.329 425.493 309.634 426.135 310.244C426.789 310.855 427.115 311.695 427.115 312.766C427.115 313.655 426.847 314.522 426.312 315.368C425.787 316.204 425.188 316.943 424.513 317.585C423.838 318.217 422.976 318.956 421.927 319.802H427.452V321.022H419.726V319.978ZM429.142 315.224C429.142 313.382 429.442 311.947 430.042 310.919C430.641 309.88 431.691 309.361 433.19 309.361C434.678 309.361 435.722 309.88 436.322 310.919C436.922 311.947 437.222 313.382 437.222 315.224C437.222 317.098 436.922 318.554 436.322 319.593C435.722 320.632 434.678 321.151 433.19 321.151C431.691 321.151 430.641 320.632 430.042 319.593C429.442 318.554 429.142 317.098 429.142 315.224ZM435.776 315.224C435.776 314.292 435.712 313.505 435.583 312.863C435.465 312.209 435.214 311.685 434.828 311.288C434.454 310.892 433.907 310.694 433.19 310.694C432.462 310.694 431.905 310.892 431.519 311.288C431.145 311.685 430.893 312.209 430.764 312.863C430.647 313.505 430.588 314.292 430.588 315.224C430.588 316.188 430.647 316.996 430.764 317.649C430.893 318.302 431.145 318.827 431.519 319.223C431.905 319.62 432.462 319.818 433.19 319.818C433.907 319.818 434.454 319.62 434.828 319.223C435.214 318.827 435.465 318.302 435.583 317.649C435.712 316.996 435.776 316.188 435.776 315.224ZM439.052 319.978C440.412 318.886 441.477 317.992 442.248 317.296C443.019 316.589 443.667 315.856 444.192 315.095C444.727 314.324 444.995 313.569 444.995 312.83C444.995 312.134 444.824 311.588 444.481 311.192C444.149 310.785 443.608 310.582 442.859 310.582C442.13 310.582 441.563 310.812 441.156 311.272C440.76 311.722 440.546 312.327 440.513 313.087H439.1C439.143 311.888 439.507 310.962 440.192 310.309C440.877 309.655 441.761 309.329 442.842 309.329C443.945 309.329 444.818 309.634 445.461 310.244C446.114 310.855 446.441 311.695 446.441 312.766C446.441 313.655 446.173 314.522 445.637 315.368C445.113 316.204 444.513 316.943 443.838 317.585C443.164 318.217 442.302 318.956 441.252 319.802H446.778V321.022H439.052V319.978ZM448.468 315.224C448.468 313.382 448.767 311.947 449.367 310.919C449.967 309.88 451.016 309.361 452.515 309.361C454.004 309.361 455.048 309.88 455.648 310.919C456.247 311.947 456.547 313.382 456.547 315.224C456.547 317.098 456.247 318.554 455.648 319.593C455.048 320.632 454.004 321.151 452.515 321.151C451.016 321.151 449.967 320.632 449.367 319.593C448.767 318.554 448.468 317.098 448.468 315.224ZM455.101 315.224C455.101 314.292 455.037 313.505 454.909 312.863C454.791 312.209 454.539 311.685 454.154 311.288C453.779 310.892 453.233 310.694 452.515 310.694C451.787 310.694 451.23 310.892 450.845 311.288C450.47 311.685 450.218 312.209 450.09 312.863C449.972 313.505 449.913 314.292 449.913 315.224C449.913 316.188 449.972 316.996 450.09 317.649C450.218 318.302 450.47 318.827 450.845 319.223C451.23 319.62 451.787 319.818 452.515 319.818C453.233 319.818 453.779 319.62 454.154 319.223C454.539 318.827 454.791 318.302 454.909 317.649C455.037 316.996 455.101 316.188 455.101 315.224Z" fill="#1A364A"/>
<g filter="url(#filter10_b_6598_10740)">
<rect x="417.951" y="157.299" width="40.6017" height="138.828" rx="5.35422" fill="#0D6EFD" fill-opacity="0.5"/>
<rect x="418.397" y="157.746" width="39.7094" height="137.935" rx="4.90804" stroke="#0D6EFD" stroke-opacity="0.3" stroke-width="0.892371"/>
</g>
<g filter="url(#filter11_d_6598_10740)">
<path d="M428.624 138.795C428.624 139.361 428.482 139.892 428.2 140.389C427.929 140.886 427.522 141.305 426.979 141.644C426.448 141.983 425.815 142.186 425.08 142.254V143.628H423.978V142.254C422.916 142.152 422.057 141.819 421.401 141.254C420.745 140.689 420.418 139.943 420.418 139.016H422.486C422.52 139.457 422.661 139.824 422.91 140.118C423.159 140.4 423.515 140.581 423.978 140.66V136.93C423.221 136.738 422.605 136.546 422.13 136.354C421.655 136.15 421.248 135.834 420.909 135.404C420.581 134.975 420.418 134.387 420.418 133.641C420.418 132.703 420.745 131.929 421.401 131.318C422.057 130.697 422.916 130.335 423.978 130.233V128.86H425.08V130.233C426.075 130.323 426.872 130.64 427.471 131.183C428.081 131.714 428.426 132.449 428.505 133.387H426.437C426.403 133.036 426.267 132.725 426.03 132.454C425.792 132.172 425.476 131.979 425.08 131.878V135.54C425.837 135.721 426.454 135.913 426.928 136.116C427.403 136.309 427.804 136.619 428.132 137.049C428.46 137.467 428.624 138.049 428.624 138.795ZM422.384 133.539C422.384 134.003 422.52 134.364 422.791 134.624C423.074 134.884 423.469 135.094 423.978 135.252V131.827C423.492 131.883 423.102 132.059 422.808 132.352C422.526 132.646 422.384 133.042 422.384 133.539ZM425.08 140.66C425.578 140.581 425.967 140.383 426.25 140.067C426.533 139.739 426.674 139.349 426.674 138.897C426.674 138.445 426.533 138.095 426.25 137.846C425.979 137.586 425.589 137.377 425.08 137.219V140.66ZM439.414 131.454H433.734V134.828C433.971 134.511 434.322 134.246 434.785 134.031C435.26 133.816 435.763 133.709 436.294 133.709C437.244 133.709 438.012 133.912 438.6 134.319C439.199 134.726 439.623 135.24 439.872 135.862C440.132 136.484 440.262 137.139 440.262 137.829C440.262 138.665 440.098 139.411 439.77 140.067C439.453 140.711 438.973 141.22 438.329 141.593C437.696 141.966 436.916 142.152 435.989 142.152C434.757 142.152 433.768 141.847 433.022 141.237C432.276 140.627 431.829 139.818 431.682 138.812H433.564C433.689 139.344 433.966 139.767 434.395 140.084C434.825 140.389 435.362 140.542 436.006 140.542C436.808 140.542 437.407 140.299 437.803 139.813C438.21 139.327 438.413 138.682 438.413 137.88C438.413 137.066 438.21 136.444 437.803 136.015C437.396 135.574 436.797 135.353 436.006 135.353C435.452 135.353 434.983 135.495 434.599 135.777C434.226 136.049 433.954 136.422 433.785 136.896H431.954V129.758H439.414V131.454ZM443.308 142.271C442.957 142.271 442.664 142.152 442.426 141.915C442.189 141.678 442.07 141.384 442.07 141.033C442.07 140.683 442.189 140.389 442.426 140.152C442.664 139.914 442.957 139.796 443.308 139.796C443.647 139.796 443.935 139.914 444.173 140.152C444.41 140.389 444.529 140.683 444.529 141.033C444.529 141.384 444.41 141.678 444.173 141.915C443.935 142.152 443.647 142.271 443.308 142.271ZM453.01 132.658C452.885 132.138 452.659 131.748 452.332 131.488C452.004 131.228 451.546 131.098 450.958 131.098C450.065 131.098 449.398 131.443 448.957 132.132C448.517 132.81 448.285 133.941 448.262 135.523C448.556 135.026 448.986 134.641 449.551 134.37C450.116 134.099 450.726 133.963 451.382 133.963C452.128 133.963 452.784 134.127 453.349 134.455C453.925 134.771 454.372 135.235 454.688 135.845C455.016 136.456 455.18 137.185 455.18 138.032C455.18 138.824 455.022 139.53 454.705 140.152C454.4 140.773 453.942 141.265 453.332 141.627C452.722 141.977 451.987 142.152 451.128 142.152C449.963 142.152 449.048 141.898 448.381 141.389C447.725 140.87 447.262 140.14 446.991 139.202C446.731 138.264 446.601 137.094 446.601 135.693C446.601 131.556 448.059 129.487 450.975 129.487C452.105 129.487 452.993 129.792 453.637 130.403C454.293 131.013 454.677 131.765 454.79 132.658H453.01ZM450.958 135.591C450.269 135.591 449.681 135.8 449.195 136.218C448.72 136.625 448.483 137.219 448.483 137.998C448.483 138.778 448.703 139.4 449.144 139.864C449.596 140.316 450.223 140.542 451.026 140.542C451.738 140.542 452.298 140.321 452.705 139.88C453.123 139.44 453.332 138.852 453.332 138.117C453.332 137.349 453.128 136.738 452.722 136.286C452.326 135.823 451.738 135.591 450.958 135.591Z" fill="#1A364A"/>
</g>
<path opacity="0.5" d="M496.855 319.978C498.215 318.886 499.281 317.992 500.052 317.296C500.823 316.589 501.471 315.856 501.995 315.095C502.531 314.324 502.799 313.569 502.799 312.83C502.799 312.134 502.627 311.588 502.285 311.192C501.953 310.785 501.412 310.582 500.662 310.582C499.934 310.582 499.367 310.812 498.96 311.272C498.563 311.722 498.349 312.327 498.317 313.087H496.904C496.946 311.888 497.311 310.962 497.996 310.309C498.681 309.655 499.565 309.329 500.646 309.329C501.749 309.329 502.622 309.634 503.264 310.244C503.918 310.855 504.244 311.695 504.244 312.766C504.244 313.655 503.977 314.522 503.441 315.368C502.916 316.204 502.317 316.942 501.642 317.585C500.967 318.217 500.105 318.956 499.056 319.802H504.582V321.022H496.855V319.978ZM506.271 315.224C506.271 313.382 506.571 311.947 507.171 310.919C507.77 309.88 508.82 309.361 510.319 309.361C511.808 309.361 512.852 309.88 513.451 310.919C514.051 311.947 514.351 313.382 514.351 315.224C514.351 317.098 514.051 318.554 513.451 319.593C512.852 320.632 511.808 321.151 510.319 321.151C508.82 321.151 507.77 320.632 507.171 319.593C506.571 318.554 506.271 317.098 506.271 315.224ZM512.905 315.224C512.905 314.292 512.841 313.505 512.712 312.863C512.595 312.209 512.343 311.685 511.957 311.288C511.583 310.892 511.037 310.694 510.319 310.694C509.591 310.694 509.034 310.892 508.649 311.288C508.274 311.685 508.022 312.209 507.894 312.863C507.776 313.505 507.717 314.292 507.717 315.224C507.717 316.188 507.776 316.996 507.894 317.649C508.022 318.302 508.274 318.827 508.649 319.223C509.034 319.62 509.591 319.818 510.319 319.818C511.037 319.818 511.583 319.62 511.957 319.223C512.343 318.827 512.595 318.302 512.712 317.649C512.841 316.996 512.905 316.188 512.905 315.224ZM516.181 319.978C517.541 318.886 518.606 317.992 519.377 317.296C520.148 316.589 520.796 315.856 521.321 315.095C521.856 314.324 522.124 313.569 522.124 312.83C522.124 312.134 521.953 311.588 521.61 311.192C521.278 310.785 520.737 310.582 519.988 310.582C519.259 310.582 518.692 310.812 518.285 311.272C517.889 311.722 517.675 312.327 517.642 313.087H516.229C516.272 311.888 516.636 310.962 517.321 310.309C518.007 309.655 518.89 309.329 519.972 309.329C521.075 309.329 521.947 309.634 522.59 310.244C523.243 310.855 523.57 311.695 523.57 312.766C523.57 313.655 523.302 314.522 522.766 315.368C522.242 316.204 521.642 316.942 520.967 317.585C520.293 318.217 519.431 318.956 518.381 319.802H523.907V321.022H516.181V319.978ZM525.211 310.871V309.538H528.231V321.151H526.753V310.871H525.211Z" fill="#1A364A"/>
<g filter="url(#filter12_b_6598_10740)">
<rect x="492.59" y="170.521" width="40.6017" height="125.606" rx="5.35422" fill="#0D6EFD" fill-opacity="0.5"/>
<rect x="493.036" y="170.967" width="39.7094" height="124.714" rx="4.90804" stroke="#0D6EFD" stroke-opacity="0.3" stroke-width="0.892371"/>
</g>
<g filter="url(#filter13_d_6598_10740)">
<path d="M506.176 151.937C506.176 152.503 506.035 153.034 505.752 153.531C505.481 154.029 505.074 154.447 504.532 154.786C504 155.125 503.367 155.328 502.633 155.396V156.77H501.531V155.396C500.468 155.294 499.609 154.961 498.953 154.396C498.298 153.831 497.97 153.085 497.97 152.158H500.038C500.072 152.599 500.214 152.966 500.462 153.26C500.711 153.542 501.067 153.723 501.531 153.802V150.072C500.773 149.88 500.157 149.688 499.682 149.496C499.208 149.292 498.801 148.976 498.462 148.546C498.134 148.117 497.97 147.529 497.97 146.783C497.97 145.845 498.298 145.071 498.953 144.46C499.609 143.839 500.468 143.477 501.531 143.375V142.002H502.633V143.375C503.627 143.466 504.424 143.782 505.023 144.325C505.634 144.856 505.978 145.591 506.058 146.529H503.989C503.955 146.178 503.819 145.867 503.582 145.596C503.345 145.314 503.028 145.121 502.633 145.02V148.682C503.39 148.863 504.006 149.055 504.481 149.259C504.955 149.451 505.357 149.761 505.685 150.191C506.012 150.609 506.176 151.191 506.176 151.937ZM499.937 146.681C499.937 147.145 500.072 147.506 500.344 147.766C500.626 148.026 501.022 148.236 501.531 148.394V144.969C501.044 145.025 500.655 145.201 500.361 145.494C500.078 145.788 499.937 146.184 499.937 146.681ZM502.633 153.802C503.13 153.723 503.52 153.526 503.803 153.209C504.085 152.881 504.226 152.491 504.226 152.039C504.226 151.587 504.085 151.237 503.803 150.988C503.531 150.728 503.141 150.519 502.633 150.361V153.802ZM516.966 144.596H511.286V147.97C511.524 147.653 511.874 147.388 512.338 147.173C512.812 146.958 513.315 146.851 513.847 146.851C514.796 146.851 515.565 147.054 516.152 147.461C516.751 147.868 517.175 148.382 517.424 149.004C517.684 149.626 517.814 150.281 517.814 150.971C517.814 151.807 517.65 152.553 517.322 153.209C517.006 153.853 516.525 154.362 515.881 154.735C515.248 155.108 514.468 155.294 513.541 155.294C512.309 155.294 511.32 154.989 510.574 154.379C509.828 153.769 509.382 152.96 509.235 151.954H511.117C511.241 152.486 511.518 152.909 511.948 153.226C512.377 153.531 512.914 153.684 513.558 153.684C514.361 153.684 514.96 153.441 515.356 152.955C515.762 152.469 515.966 151.824 515.966 151.022C515.966 150.208 515.762 149.586 515.356 149.157C514.949 148.716 514.35 148.496 513.558 148.496C513.004 148.496 512.535 148.637 512.151 148.919C511.778 149.191 511.507 149.564 511.337 150.038H509.506V142.9H516.966V144.596ZM520.86 155.413C520.51 155.413 520.216 155.294 519.979 155.057C519.741 154.82 519.623 154.526 519.623 154.175C519.623 153.825 519.741 153.531 519.979 153.294C520.216 153.056 520.51 152.938 520.86 152.938C521.199 152.938 521.488 153.056 521.725 153.294C521.962 153.531 522.081 153.825 522.081 154.175C522.081 154.526 521.962 154.82 521.725 155.057C521.488 155.294 521.199 155.413 520.86 155.413ZM523.661 144.698V142.934H527.188V155.294H525.238V144.698H523.661Z" fill="#1A364A"/>
</g>
<path opacity="0.5" d="M569.025 319.978C570.385 318.886 571.451 317.992 572.222 317.295C572.993 316.589 573.641 315.855 574.165 315.095C574.701 314.324 574.969 313.569 574.969 312.83C574.969 312.134 574.797 311.588 574.455 311.192C574.123 310.785 573.582 310.581 572.832 310.581C572.104 310.581 571.537 310.812 571.13 311.272C570.733 311.722 570.519 312.327 570.487 313.087H569.074C569.116 311.888 569.48 310.961 570.166 310.308C570.851 309.655 571.735 309.328 572.816 309.328C573.919 309.328 574.792 309.634 575.434 310.244C576.088 310.854 576.414 311.695 576.414 312.766C576.414 313.655 576.147 314.522 575.611 315.368C575.086 316.203 574.487 316.942 573.812 317.585C573.137 318.216 572.275 318.955 571.226 319.801H576.752V321.022H569.025V319.978ZM578.441 315.223C578.441 313.382 578.741 311.947 579.341 310.919C579.94 309.88 580.99 309.361 582.489 309.361C583.978 309.361 585.022 309.88 585.621 310.919C586.221 311.947 586.521 313.382 586.521 315.223C586.521 317.097 586.221 318.554 585.621 319.592C585.022 320.631 583.978 321.151 582.489 321.151C580.99 321.151 579.94 320.631 579.341 319.592C578.741 318.554 578.441 317.097 578.441 315.223ZM585.075 315.223C585.075 314.292 585.011 313.505 584.882 312.862C584.765 312.209 584.513 311.684 584.127 311.288C583.753 310.892 583.207 310.694 582.489 310.694C581.761 310.694 581.204 310.892 580.819 311.288C580.444 311.684 580.192 312.209 580.064 312.862C579.946 313.505 579.887 314.292 579.887 315.223C579.887 316.187 579.946 316.996 580.064 317.649C580.192 318.302 580.444 318.827 580.819 319.223C581.204 319.619 581.761 319.817 582.489 319.817C583.207 319.817 583.753 319.619 584.127 319.223C584.513 318.827 584.765 318.302 584.882 317.649C585.011 316.996 585.075 316.187 585.075 315.223ZM588.351 319.978C589.711 318.886 590.776 317.992 591.547 317.295C592.318 316.589 592.966 315.855 593.491 315.095C594.026 314.324 594.294 313.569 594.294 312.83C594.294 312.134 594.123 311.588 593.78 311.192C593.448 310.785 592.907 310.581 592.158 310.581C591.429 310.581 590.862 310.812 590.455 311.272C590.059 311.722 589.845 312.327 589.812 313.087H588.399C588.442 311.888 588.806 310.961 589.491 310.308C590.177 309.655 591.06 309.328 592.142 309.328C593.245 309.328 594.117 309.634 594.76 310.244C595.413 310.854 595.74 311.695 595.74 312.766C595.74 313.655 595.472 314.522 594.936 315.368C594.412 316.203 593.812 316.942 593.137 317.585C592.463 318.216 591.601 318.955 590.551 319.801H596.077V321.022H588.351V319.978ZM597.59 319.978C598.95 318.886 600.015 317.992 600.786 317.295C601.557 316.589 602.205 315.855 602.73 315.095C603.265 314.324 603.533 313.569 603.533 312.83C603.533 312.134 603.362 311.588 603.019 311.192C602.687 310.785 602.146 310.581 601.397 310.581C600.669 310.581 600.101 310.812 599.694 311.272C599.298 311.722 599.084 312.327 599.052 313.087H597.638C597.681 311.888 598.045 310.961 598.73 310.308C599.416 309.655 600.299 309.328 601.381 309.328C602.484 309.328 603.356 309.634 603.999 310.244C604.652 310.854 604.979 311.695 604.979 312.766C604.979 313.655 604.711 314.522 604.176 315.368C603.651 316.203 603.051 316.942 602.377 317.585C601.702 318.216 600.84 318.955 599.791 319.801H605.316V321.022H597.59V319.978Z" fill="#1A364A"/>
<g filter="url(#filter14_b_6598_10740)">
<rect x="567.268" y="128.211" width="40.6017" height="167.915" rx="5.35422" fill="#0D6EFD" fill-opacity="0.5"/>
<rect x="567.714" y="128.657" width="39.7094" height="167.023" rx="4.90804" stroke="#0D6EFD" stroke-opacity="0.3" stroke-width="0.892371"/>
</g>
<g filter="url(#filter15_d_6598_10740)">
<path d="M577.946 112.745C577.946 113.31 577.804 113.841 577.522 114.339C577.25 114.836 576.843 115.254 576.301 115.593C575.77 115.932 575.137 116.136 574.402 116.204V117.577H573.3V116.204C572.237 116.102 571.378 115.769 570.723 115.203C570.067 114.638 569.739 113.892 569.739 112.965H571.808C571.842 113.406 571.983 113.773 572.232 114.067C572.48 114.35 572.836 114.531 573.3 114.61V110.88C572.543 110.688 571.926 110.496 571.452 110.303C570.977 110.1 570.57 109.783 570.231 109.354C569.903 108.924 569.739 108.337 569.739 107.591C569.739 106.652 570.067 105.878 570.723 105.268C571.378 104.646 572.237 104.284 573.3 104.183V102.809H574.402V104.183C575.397 104.273 576.194 104.59 576.793 105.132C577.403 105.663 577.748 106.398 577.827 107.336H575.758C575.724 106.986 575.589 106.675 575.351 106.404C575.114 106.121 574.798 105.929 574.402 105.827V109.49C575.159 109.67 575.775 109.863 576.25 110.066C576.725 110.258 577.126 110.569 577.454 110.999C577.782 111.417 577.946 111.999 577.946 112.745ZM571.706 107.489C571.706 107.952 571.842 108.314 572.113 108.574C572.396 108.834 572.791 109.043 573.3 109.201V105.776C572.814 105.833 572.424 106.008 572.13 106.302C571.847 106.596 571.706 106.991 571.706 107.489ZM574.402 114.61C574.899 114.531 575.289 114.333 575.572 114.017C575.854 113.689 575.996 113.299 575.996 112.847C575.996 112.394 575.854 112.044 575.572 111.795C575.301 111.535 574.911 111.326 574.402 111.168V114.61ZM587.413 106.607C587.289 106.087 587.063 105.697 586.735 105.437C586.407 105.177 585.949 105.047 585.361 105.047C584.469 105.047 583.802 105.392 583.361 106.082C582.92 106.76 582.688 107.89 582.666 109.473C582.96 108.975 583.389 108.591 583.954 108.32C584.519 108.048 585.13 107.913 585.785 107.913C586.531 107.913 587.187 108.077 587.752 108.404C588.329 108.721 588.775 109.184 589.092 109.795C589.419 110.405 589.583 111.134 589.583 111.982C589.583 112.773 589.425 113.48 589.109 114.101C588.803 114.723 588.346 115.215 587.735 115.576C587.125 115.927 586.39 116.102 585.531 116.102C584.367 116.102 583.451 115.848 582.784 115.339C582.129 114.819 581.665 114.09 581.394 113.152C581.134 112.214 581.004 111.044 581.004 109.642C581.004 105.505 582.462 103.437 585.378 103.437C586.509 103.437 587.396 103.742 588.04 104.352C588.696 104.963 589.08 105.714 589.193 106.607H587.413ZM585.361 109.54C584.672 109.54 584.084 109.75 583.598 110.168C583.123 110.575 582.886 111.168 582.886 111.948C582.886 112.728 583.106 113.35 583.547 113.813C583.999 114.265 584.627 114.491 585.429 114.491C586.141 114.491 586.701 114.271 587.108 113.83C587.526 113.389 587.735 112.801 587.735 112.067C587.735 111.298 587.532 110.688 587.125 110.236C586.729 109.772 586.141 109.54 585.361 109.54ZM592.679 116.221C592.329 116.221 592.035 116.102 591.798 115.865C591.56 115.627 591.442 115.333 591.442 114.983C591.442 114.633 591.56 114.339 591.798 114.101C592.035 113.864 592.329 113.745 592.679 113.745C593.018 113.745 593.307 113.864 593.544 114.101C593.781 114.339 593.9 114.633 593.9 114.983C593.9 115.333 593.781 115.627 593.544 115.865C593.307 116.102 593.018 116.221 592.679 116.221ZM597.82 109.642C596.645 109.054 596.057 108.127 596.057 106.861C596.057 106.251 596.21 105.692 596.515 105.183C596.82 104.674 597.278 104.273 597.888 103.979C598.498 103.674 599.244 103.521 600.126 103.521C600.997 103.521 601.737 103.674 602.347 103.979C602.969 104.273 603.432 104.674 603.738 105.183C604.043 105.692 604.195 106.251 604.195 106.861C604.195 107.494 604.031 108.054 603.704 108.54C603.387 109.015 602.963 109.382 602.432 109.642C603.076 109.879 603.585 110.269 603.958 110.812C604.331 111.343 604.518 111.971 604.518 112.694C604.518 113.429 604.331 114.079 603.958 114.644C603.585 115.209 603.065 115.644 602.398 115.949C601.731 116.255 600.974 116.407 600.126 116.407C599.278 116.407 598.521 116.255 597.854 115.949C597.199 115.644 596.684 115.209 596.311 114.644C595.938 114.079 595.752 113.429 595.752 112.694C595.752 111.959 595.938 111.326 596.311 110.795C596.684 110.264 597.187 109.879 597.82 109.642ZM602.347 107.099C602.347 106.466 602.149 105.98 601.754 105.641C601.358 105.302 600.816 105.132 600.126 105.132C599.448 105.132 598.911 105.302 598.515 105.641C598.12 105.98 597.922 106.472 597.922 107.116C597.922 107.681 598.125 108.144 598.532 108.506C598.951 108.857 599.482 109.032 600.126 109.032C600.77 109.032 601.302 108.851 601.72 108.489C602.138 108.127 602.347 107.664 602.347 107.099ZM600.126 110.49C599.38 110.49 598.77 110.676 598.295 111.049C597.832 111.411 597.6 111.937 597.6 112.626C597.6 113.27 597.826 113.796 598.278 114.203C598.73 114.599 599.346 114.796 600.126 114.796C600.895 114.796 601.5 114.593 601.94 114.186C602.392 113.779 602.619 113.259 602.619 112.626C602.619 111.948 602.387 111.422 601.923 111.049C601.471 110.676 600.872 110.49 600.126 110.49Z" fill="#1A364A"/>
</g>
<defs>
<filter id="filter0_b_6598_10740" x="45.4725" y="138.955" width="49.5255" height="161.634" filterUnits="userSpaceOnUse" color-interpolation-filters="sRGB">
<feFlood flood-opacity="0" result="BackgroundImageFix"/>
<feGaussianBlur in="BackgroundImageFix" stdDeviation="2.23093"/>
<feComposite in2="SourceAlpha" operator="in" result="effect1_backgroundBlur_6598_10740"/>
<feBlend mode="normal" in="SourceGraphic" in2="effect1_backgroundBlur_6598_10740" result="shape"/>
</filter>
<filter id="filter1_d_6598_10740" x="32.9208" y="95.2645" width="73.3476" height="54.0322" filterUnits="userSpaceOnUse" color-interpolation-filters="sRGB">
<feFlood flood-opacity="0" result="BackgroundImageFix"/>
<feColorMatrix in="SourceAlpha" type="matrix" values="0 0 0 0 0 0 0 0 0 0 0 0 0 0 0 0 0 0 127 0" result="hardAlpha"/>
<feOffset/>
<feGaussianBlur stdDeviation="9.81608"/>
<feComposite in2="hardAlpha" operator="out"/>
<feColorMatrix type="matrix" values="0 0 0 0 1 0 0 0 0 1 0 0 0 0 1 0 0 0 0.21 0"/>
<feBlend mode="normal" in2="BackgroundImageFix" result="effect1_dropShadow_6598_10740"/>
<feBlend mode="normal" in="SourceGraphic" in2="effect1_dropShadow_6598_10740" result="shape"/>
</filter>
<filter id="filter2_b_6598_10740" x="118.367" y="138.955" width="49.5253" height="161.634" filterUnits="userSpaceOnUse" color-interpolation-filters="sRGB">
<feFlood flood-opacity="0" result="BackgroundImageFix"/>
<feGaussianBlur in="BackgroundImageFix" stdDeviation="2.23093"/>
<feComposite in2="SourceAlpha" operator="in" result="effect1_backgroundBlur_6598_10740"/>
<feBlend mode="normal" in="SourceGraphic" in2="effect1_backgroundBlur_6598_10740" result="shape"/>
</filter>
<filter id="filter3_d_6598_10740" x="106.718" y="95.22" width="73.3473" height="54.0322" filterUnits="userSpaceOnUse" color-interpolation-filters="sRGB">
<feFlood flood-opacity="0" result="BackgroundImageFix"/>
<feColorMatrix in="SourceAlpha" type="matrix" values="0 0 0 0 0 0 0 0 0 0 0 0 0 0 0 0 0 0 127 0" result="hardAlpha"/>
<feOffset/>
<feGaussianBlur stdDeviation="9.81608"/>
<feComposite in2="hardAlpha" operator="out"/>
<feColorMatrix type="matrix" values="0 0 0 0 1 0 0 0 0 1 0 0 0 0 1 0 0 0 0.21 0"/>
<feBlend mode="normal" in2="BackgroundImageFix" result="effect1_dropShadow_6598_10740"/>
<feBlend mode="normal" in="SourceGraphic" in2="effect1_dropShadow_6598_10740" result="shape"/>
</filter>
<filter id="filter4_b_6598_10740" x="192.142" y="115.155" width="49.5253" height="185.433" filterUnits="userSpaceOnUse" color-interpolation-filters="sRGB">
<feFlood flood-opacity="0" result="BackgroundImageFix"/>
<feGaussianBlur in="BackgroundImageFix" stdDeviation="2.23093"/>
<feComposite in2="SourceAlpha" operator="in" result="effect1_backgroundBlur_6598_10740"/>
<feBlend mode="normal" in="SourceGraphic" in2="effect1_backgroundBlur_6598_10740" result="shape"/>
</filter>
<filter id="filter5_d_6598_10740" x="183.142" y="72.5002" width="67.1413" height="54.0322" filterUnits="userSpaceOnUse" color-interpolation-filters="sRGB">
<feFlood flood-opacity="0" result="BackgroundImageFix"/>
<feColorMatrix in="SourceAlpha" type="matrix" values="0 0 0 0 0 0 0 0 0 0 0 0 0 0 0 0 0 0 127 0" result="hardAlpha"/>
<feOffset/>
<feGaussianBlur stdDeviation="9.81608"/>
<feComposite in2="hardAlpha" operator="out"/>
<feColorMatrix type="matrix" values="0 0 0 0 1 0 0 0 0 1 0 0 0 0 1 0 0 0 0.21 0"/>
<feBlend mode="normal" in2="BackgroundImageFix" result="effect1_dropShadow_6598_10740"/>
<feBlend mode="normal" in="SourceGraphic" in2="effect1_dropShadow_6598_10740" result="shape"/>
</filter>
<filter id="filter6_b_6598_10740" x="264.152" y="74.1687" width="49.5253" height="226.42" filterUnits="userSpaceOnUse" color-interpolation-filters="sRGB">
<feFlood flood-opacity="0" result="BackgroundImageFix"/>
<feGaussianBlur in="BackgroundImageFix" stdDeviation="2.23093"/>
<feComposite in2="SourceAlpha" operator="in" result="effect1_backgroundBlur_6598_10740"/>
<feBlend mode="normal" in="SourceGraphic" in2="effect1_backgroundBlur_6598_10740" result="shape"/>
</filter>
<filter id="filter7_d_6598_10740" x="252.334" y="33.0959" width="73.027" height="54.0322" filterUnits="userSpaceOnUse" color-interpolation-filters="sRGB">
<feFlood flood-opacity="0" result="BackgroundImageFix"/>
<feColorMatrix in="SourceAlpha" type="matrix" values="0 0 0 0 0 0 0 0 0 0 0 0 0 0 0 0 0 0 127 0" result="hardAlpha"/>
<feOffset/>
<feGaussianBlur stdDeviation="9.81608"/>
<feComposite in2="hardAlpha" operator="out"/>
<feColorMatrix type="matrix" values="0 0 0 0 1 0 0 0 0 1 0 0 0 0 1 0 0 0 0.21 0"/>
<feBlend mode="normal" in2="BackgroundImageFix" result="effect1_dropShadow_6598_10740"/>
<feBlend mode="normal" in="SourceGraphic" in2="effect1_dropShadow_6598_10740" result="shape"/>
</filter>
<filter id="filter8_b_6598_10740" x="338.819" y="121.105" width="49.5253" height="179.483" filterUnits="userSpaceOnUse" color-interpolation-filters="sRGB">
<feFlood flood-opacity="0" result="BackgroundImageFix"/>
<feGaussianBlur in="BackgroundImageFix" stdDeviation="2.23093"/>
<feComposite in2="SourceAlpha" operator="in" result="effect1_backgroundBlur_6598_10740"/>
<feBlend mode="normal" in="SourceGraphic" in2="effect1_backgroundBlur_6598_10740" result="shape"/>
</filter>
<filter id="filter9_d_6598_10740" x="326.336" y="77.4152" width="73.9069" height="54.0322" filterUnits="userSpaceOnUse" color-interpolation-filters="sRGB">
<feFlood flood-opacity="0" result="BackgroundImageFix"/>
<feColorMatrix in="SourceAlpha" type="matrix" values="0 0 0 0 0 0 0 0 0 0 0 0 0 0 0 0 0 0 127 0" result="hardAlpha"/>
<feOffset/>
<feGaussianBlur stdDeviation="9.81608"/>
<feComposite in2="hardAlpha" operator="out"/>
<feColorMatrix type="matrix" values="0 0 0 0 1 0 0 0 0 1 0 0 0 0 1 0 0 0 0.21 0"/>
<feBlend mode="normal" in2="BackgroundImageFix" result="effect1_dropShadow_6598_10740"/>
<feBlend mode="normal" in="SourceGraphic" in2="effect1_dropShadow_6598_10740" result="shape"/>
</filter>
<filter id="filter10_b_6598_10740" x="413.489" y="152.838" width="49.5253" height="147.751" filterUnits="userSpaceOnUse" color-interpolation-filters="sRGB">
<feFlood flood-opacity="0" result="BackgroundImageFix"/>
<feGaussianBlur in="BackgroundImageFix" stdDeviation="2.23093"/>
<feComposite in2="SourceAlpha" operator="in" result="effect1_backgroundBlur_6598_10740"/>
<feBlend mode="normal" in="SourceGraphic" in2="effect1_backgroundBlur_6598_10740" result="shape"/>
</filter>
<filter id="filter11_d_6598_10740" x="400.785" y="109.228" width="74.027" height="54.0322" filterUnits="userSpaceOnUse" color-interpolation-filters="sRGB">
<feFlood flood-opacity="0" result="BackgroundImageFix"/>
<feColorMatrix in="SourceAlpha" type="matrix" values="0 0 0 0 0 0 0 0 0 0 0 0 0 0 0 0 0 0 127 0" result="hardAlpha"/>
<feOffset/>
<feGaussianBlur stdDeviation="9.81608"/>
<feComposite in2="hardAlpha" operator="out"/>
<feColorMatrix type="matrix" values="0 0 0 0 1 0 0 0 0 1 0 0 0 0 1 0 0 0 0.21 0"/>
<feBlend mode="normal" in2="BackgroundImageFix" result="effect1_dropShadow_6598_10740"/>
<feBlend mode="normal" in="SourceGraphic" in2="effect1_dropShadow_6598_10740" result="shape"/>
</filter>
<filter id="filter12_b_6598_10740" x="488.128" y="166.059" width="49.5253" height="134.53" filterUnits="userSpaceOnUse" color-interpolation-filters="sRGB">
<feFlood flood-opacity="0" result="BackgroundImageFix"/>
<feGaussianBlur in="BackgroundImageFix" stdDeviation="2.23093"/>
<feComposite in2="SourceAlpha" operator="in" result="effect1_backgroundBlur_6598_10740"/>
<feBlend mode="normal" in="SourceGraphic" in2="effect1_backgroundBlur_6598_10740" result="shape"/>
</filter>
<filter id="filter13_d_6598_10740" x="478.338" y="122.37" width="68.4826" height="54.0322" filterUnits="userSpaceOnUse" color-interpolation-filters="sRGB">
<feFlood flood-opacity="0" result="BackgroundImageFix"/>
<feColorMatrix in="SourceAlpha" type="matrix" values="0 0 0 0 0 0 0 0 0 0 0 0 0 0 0 0 0 0 127 0" result="hardAlpha"/>
<feOffset/>
<feGaussianBlur stdDeviation="9.81608"/>
<feComposite in2="hardAlpha" operator="out"/>
<feColorMatrix type="matrix" values="0 0 0 0 1 0 0 0 0 1 0 0 0 0 1 0 0 0 0.21 0"/>
<feBlend mode="normal" in2="BackgroundImageFix" result="effect1_dropShadow_6598_10740"/>
<feBlend mode="normal" in="SourceGraphic" in2="effect1_dropShadow_6598_10740" result="shape"/>
</filter>
<filter id="filter14_b_6598_10740" x="562.806" y="123.749" width="49.5253" height="176.839" filterUnits="userSpaceOnUse" color-interpolation-filters="sRGB">
<feFlood flood-opacity="0" result="BackgroundImageFix"/>
<feGaussianBlur in="BackgroundImageFix" stdDeviation="2.23093"/>
<feComposite in2="SourceAlpha" operator="in" result="effect1_backgroundBlur_6598_10740"/>
<feBlend mode="normal" in="SourceGraphic" in2="effect1_backgroundBlur_6598_10740" result="shape"/>
</filter>
<filter id="filter15_d_6598_10740" x="550.107" y="83.1771" width="74.0426" height="54.0322" filterUnits="userSpaceOnUse" color-interpolation-filters="sRGB">
<feFlood flood-opacity="0" result="BackgroundImageFix"/>
<feColorMatrix in="SourceAlpha" type="matrix" values="0 0 0 0 0 0 0 0 0 0 0 0 0 0 0 0 0 0 127 0" result="hardAlpha"/>
<feOffset/>
<feGaussianBlur stdDeviation="9.81608"/>
<feComposite in2="hardAlpha" operator="out"/>
<feColorMatrix type="matrix" values="0 0 0 0 1 0 0 0 0 1 0 0 0 0 1 0 0 0 0.21 0"/>
<feBlend mode="normal" in2="BackgroundImageFix" result="effect1_dropShadow_6598_10740"/>
<feBlend mode="normal" in="SourceGraphic" in2="effect1_dropShadow_6598_10740" result="shape"/>
</filter>
</defs>
</svg>
