<svg width="812" height="489" viewBox="0 0 812 489" fill="none" xmlns="http://www.w3.org/2000/svg">
<path opacity="0.65" d="M-1 176.2C-1 175.632 -0.539832 175.172 0.0278128 175.172H810.972C811.54 175.172 812 175.632 812 176.2C812 176.768 811.54 177.228 810.972 177.228H0.0278549C-0.53979 177.228 -1 176.768 -1 176.2Z" fill="url(#paint0_linear_6780_10990)"/>
<path d="M259.126 442.166V444.591H250.41V442.166H259.126ZM266.964 439.678C267.032 438.308 267.512 437.253 268.403 436.513C269.307 435.759 270.493 435.382 271.959 435.382C272.959 435.382 273.816 435.56 274.529 435.917C275.241 436.259 275.776 436.732 276.132 437.335C276.502 437.924 276.687 438.596 276.687 439.349C276.687 440.213 276.461 440.946 276.009 441.549C275.57 442.138 275.043 442.536 274.426 442.741V442.823C275.221 443.07 275.837 443.509 276.276 444.139C276.728 444.769 276.954 445.578 276.954 446.565C276.954 447.387 276.762 448.12 276.379 448.764C276.009 449.408 275.454 449.915 274.714 450.285C273.987 450.642 273.11 450.82 272.082 450.82C270.534 450.82 269.273 450.429 268.3 449.648C267.327 448.867 266.813 447.716 266.758 446.195H269.554C269.581 446.866 269.808 447.407 270.232 447.819C270.671 448.216 271.267 448.415 272.021 448.415C272.72 448.415 273.254 448.223 273.624 447.839C274.008 447.442 274.2 446.935 274.2 446.318C274.2 445.496 273.939 444.906 273.419 444.55C272.898 444.194 272.089 444.016 270.993 444.016H270.397V441.652H270.993C272.939 441.652 273.912 441.001 273.912 439.699C273.912 439.11 273.734 438.651 273.377 438.322C273.035 437.993 272.535 437.828 271.877 437.828C271.233 437.828 270.733 438.006 270.376 438.363C270.034 438.705 269.835 439.144 269.78 439.678H266.964ZM279.27 439.678C279.338 438.308 279.818 437.253 280.709 436.513C281.613 435.759 282.798 435.382 284.265 435.382C285.265 435.382 286.122 435.56 286.834 435.917C287.547 436.259 288.081 436.732 288.438 437.335C288.808 437.924 288.993 438.596 288.993 439.349C288.993 440.213 288.767 440.946 288.314 441.549C287.876 442.138 287.348 442.536 286.731 442.741V442.823C287.526 443.07 288.143 443.509 288.582 444.139C289.034 444.769 289.26 445.578 289.26 446.565C289.26 447.387 289.068 448.12 288.684 448.764C288.314 449.408 287.759 449.915 287.019 450.285C286.293 450.642 285.416 450.82 284.388 450.82C282.84 450.82 281.579 450.429 280.606 449.648C279.633 448.867 279.119 447.716 279.064 446.195H281.86C281.887 446.866 282.113 447.407 282.538 447.819C282.977 448.216 283.573 448.415 284.326 448.415C285.025 448.415 285.56 448.223 285.93 447.839C286.314 447.442 286.505 446.935 286.505 446.318C286.505 445.496 286.245 444.906 285.724 444.55C285.203 444.194 284.395 444.016 283.299 444.016H282.702V441.652H283.299C285.245 441.652 286.218 441.001 286.218 439.699C286.218 439.11 286.039 438.651 285.683 438.322C285.341 437.993 284.84 437.828 284.183 437.828C283.538 437.828 283.038 438.006 282.682 438.363C282.339 438.705 282.141 439.144 282.086 439.678H279.27ZM295.008 447.695L292.603 453.472H290.753L292.089 447.695H295.008ZM296.753 443.029C296.753 440.658 297.178 438.801 298.028 437.458C298.891 436.115 300.317 435.444 302.304 435.444C304.291 435.444 305.709 436.115 306.559 437.458C307.422 438.801 307.854 440.658 307.854 443.029C307.854 445.414 307.422 447.284 306.559 448.641C305.709 449.998 304.291 450.676 302.304 450.676C300.317 450.676 298.891 449.998 298.028 448.641C297.178 447.284 296.753 445.414 296.753 443.029ZM305.017 443.029C305.017 442.015 304.949 441.165 304.812 440.48C304.688 439.781 304.428 439.212 304.03 438.774C303.647 438.335 303.071 438.116 302.304 438.116C301.536 438.116 300.954 438.335 300.556 438.774C300.173 439.212 299.912 439.781 299.775 440.48C299.652 441.165 299.59 442.015 299.59 443.029C299.59 444.071 299.652 444.948 299.775 445.66C299.899 446.359 300.159 446.928 300.556 447.366C300.954 447.791 301.536 448.004 302.304 448.004C303.071 448.004 303.654 447.791 304.051 447.366C304.448 446.928 304.709 446.359 304.832 445.66C304.955 444.948 305.017 444.071 305.017 443.029ZM309.919 447.798V445.537L316.641 435.917H319.992V445.29H321.801V447.798H319.992V450.717H317.114V447.798H309.919ZM317.299 439L313.085 445.29H317.299V439ZM323.304 439.411C323.304 438.37 323.606 437.554 324.209 436.965C324.825 436.376 325.613 436.081 326.573 436.081C327.532 436.081 328.313 436.376 328.916 436.965C329.533 437.554 329.841 438.37 329.841 439.411C329.841 440.466 329.533 441.289 328.916 441.878C328.313 442.467 327.532 442.762 326.573 442.762C325.613 442.762 324.825 442.467 324.209 441.878C323.606 441.289 323.304 440.466 323.304 439.411ZM336.501 436.328L328.423 450.717H325.627L333.685 436.328H336.501ZM326.552 437.808C325.798 437.808 325.422 438.342 325.422 439.411C325.422 440.494 325.798 441.035 326.552 441.035C326.922 441.035 327.21 440.905 327.416 440.644C327.621 440.37 327.724 439.959 327.724 439.411C327.724 438.342 327.333 437.808 326.552 437.808ZM332.328 447.613C332.328 446.558 332.63 445.742 333.233 445.167C333.85 444.578 334.638 444.283 335.597 444.283C336.556 444.283 337.331 444.578 337.92 445.167C338.523 445.742 338.824 446.558 338.824 447.613C338.824 448.668 338.523 449.491 337.92 450.08C337.331 450.669 336.556 450.964 335.597 450.964C334.624 450.964 333.836 450.669 333.233 450.08C332.63 449.491 332.328 448.668 332.328 447.613ZM335.576 446.01C334.795 446.01 334.405 446.544 334.405 447.613C334.405 448.696 334.795 449.237 335.576 449.237C336.344 449.237 336.728 448.696 336.728 447.613C336.728 446.544 336.344 446.01 335.576 446.01Z" fill="#0D2B40"/>
<path d="M273.017 418.675V408.13H274.312V421.08H273.202L265.986 410.535V421.08H264.691V408.13H265.801L273.017 418.675ZM285.036 413.643V411.83H286.257V421.08H285.036V419.267C284.185 420.624 282.939 421.302 281.299 421.302C279.979 421.302 278.851 420.834 277.913 419.896C276.988 418.959 276.526 417.812 276.526 416.455C276.526 415.098 276.988 413.951 277.913 413.014C278.851 412.077 279.979 411.608 281.299 411.608C282.939 411.608 284.185 412.286 285.036 413.643ZM278.801 419.064C279.504 419.767 280.368 420.118 281.392 420.118C282.415 420.118 283.279 419.767 283.982 419.064C284.685 418.336 285.036 417.467 285.036 416.455C285.036 415.431 284.685 414.568 283.982 413.865C283.279 413.15 282.415 412.792 281.392 412.792C280.368 412.792 279.504 413.15 278.801 413.865C278.098 414.568 277.747 415.431 277.747 416.455C277.747 417.467 278.098 418.336 278.801 419.064ZM289.805 414.254C289.805 414.969 290.44 415.493 291.71 415.826C292.068 415.912 292.302 415.974 292.413 416.011C292.524 416.036 292.74 416.104 293.061 416.215C293.394 416.313 293.622 416.4 293.745 416.474C293.881 416.548 294.066 416.665 294.3 416.825C294.535 416.973 294.701 417.127 294.8 417.288C294.898 417.436 294.991 417.633 295.077 417.88C295.164 418.114 295.207 418.367 295.207 418.638C295.207 419.428 294.892 420.069 294.263 420.562C293.659 421.056 292.857 421.302 291.858 421.302C290.995 421.302 290.249 421.111 289.62 420.729C288.991 420.334 288.546 419.816 288.287 419.175L289.324 418.564C289.496 419.045 289.805 419.428 290.249 419.711C290.705 419.983 291.241 420.118 291.858 420.118C292.487 420.118 292.999 419.995 293.394 419.748C293.788 419.502 293.986 419.132 293.986 418.638C293.986 417.923 293.35 417.399 292.08 417.066C291.722 416.979 291.488 416.924 291.377 416.899C291.266 416.862 291.044 416.794 290.711 416.696C290.39 416.585 290.162 416.492 290.027 416.418C289.903 416.344 289.724 416.233 289.49 416.085C289.256 415.925 289.089 415.771 288.991 415.623C288.892 415.462 288.799 415.265 288.713 415.031C288.627 414.784 288.583 414.525 288.583 414.254C288.583 413.501 288.88 412.872 289.472 412.367C290.088 411.861 290.847 411.608 291.747 411.608C292.487 411.608 293.141 411.775 293.708 412.108C294.288 412.441 294.713 412.903 294.985 413.495L293.967 414.087C293.622 413.224 292.882 412.792 291.747 412.792C291.192 412.792 290.73 412.922 290.36 413.181C289.99 413.44 289.805 413.797 289.805 414.254ZM304.928 413.643V408.13H306.149V421.08H304.928V419.267C304.077 420.624 302.831 421.302 301.191 421.302C299.871 421.302 298.743 420.834 297.805 419.896C296.88 418.959 296.418 417.812 296.418 416.455C296.418 415.098 296.88 413.951 297.805 413.014C298.743 412.077 299.871 411.608 301.191 411.608C302.831 411.608 304.077 412.286 304.928 413.643ZM298.693 419.064C299.396 419.767 300.26 420.118 301.283 420.118C302.307 420.118 303.17 419.767 303.873 419.064C304.576 418.336 304.928 417.467 304.928 416.455C304.928 415.431 304.576 414.568 303.873 413.865C303.17 413.15 302.307 412.792 301.283 412.792C300.26 412.792 299.396 413.15 298.693 413.865C297.99 414.568 297.639 415.431 297.639 416.455C297.639 417.467 297.99 418.336 298.693 419.064ZM316.69 413.643V411.83H317.911V421.08H316.69V419.267C315.839 420.624 314.593 421.302 312.952 421.302C311.633 421.302 310.504 420.834 309.567 419.896C308.642 418.959 308.179 417.812 308.179 416.455C308.179 415.098 308.642 413.951 309.567 413.014C310.504 412.077 311.633 411.608 312.952 411.608C314.593 411.608 315.839 412.286 316.69 413.643ZM310.455 419.064C311.158 419.767 312.021 420.118 313.045 420.118C314.069 420.118 314.932 419.767 315.635 419.064C316.338 418.336 316.69 417.467 316.69 416.455C316.69 415.431 316.338 414.568 315.635 413.865C314.932 413.15 314.069 412.792 313.045 412.792C312.021 412.792 311.158 413.15 310.455 413.865C309.752 414.568 309.4 415.431 309.4 416.455C309.4 417.467 309.752 418.336 310.455 419.064ZM328.451 413.643V411.83H329.672V424.78H328.451V419.267C327.6 420.624 326.354 421.302 324.714 421.302C323.394 421.302 322.266 420.834 321.328 419.896C320.403 418.959 319.941 417.812 319.941 416.455C319.941 415.098 320.403 413.951 321.328 413.014C322.266 412.077 323.394 411.608 324.714 411.608C326.354 411.608 327.6 412.286 328.451 413.643ZM322.216 419.064C322.92 419.767 323.783 420.118 324.807 420.118C325.83 420.118 326.694 419.767 327.397 419.064C328.1 418.336 328.451 417.467 328.451 416.455C328.451 415.431 328.1 414.568 327.397 413.865C326.694 413.15 325.83 412.792 324.807 412.792C323.783 412.792 322.92 413.15 322.216 413.865C321.513 414.568 321.162 415.431 321.162 416.455C321.162 417.467 321.513 418.336 322.216 419.064Z" fill="#1A364A"/>
<g filter="url(#filter0_b_6780_10990)">
<path d="M277.044 177.228H317.129V372.512C317.129 374.783 315.288 376.624 313.018 376.624H281.155C278.885 376.624 277.044 374.783 277.044 372.512V177.228Z" fill="#E2E5EC" fill-opacity="0.5"/>
<path d="M277.558 177.742H316.615V372.512C316.615 374.499 315.004 376.11 313.018 376.11H281.155C279.169 376.11 277.558 374.499 277.558 372.512V177.742Z" stroke="url(#paint1_linear_6780_10990)" stroke-width="1.02781"/>
</g>
<path d="M161.424 380.863V383.289H152.708V380.863H161.424ZM170.125 386.166C171.441 385.07 172.489 384.159 173.27 383.432C174.052 382.692 174.703 381.925 175.223 381.13C175.744 380.335 176.004 379.554 176.004 378.787C176.004 378.088 175.84 377.54 175.511 377.142C175.182 376.745 174.675 376.546 173.99 376.546C173.305 376.546 172.777 376.779 172.407 377.245C172.037 377.697 171.845 378.321 171.832 379.116H169.036C169.091 377.471 169.577 376.224 170.495 375.374C171.427 374.525 172.606 374.1 174.031 374.1C175.593 374.1 176.792 374.518 177.628 375.354C178.464 376.176 178.882 377.266 178.882 378.622C178.882 379.691 178.595 380.712 178.019 381.685C177.443 382.658 176.786 383.508 176.046 384.234C175.306 384.947 174.339 385.81 173.147 386.824H179.211V389.209H169.056V387.071L170.125 386.166ZM181.025 381.726C181.025 379.355 181.45 377.499 182.299 376.156C183.163 374.813 184.588 374.141 186.575 374.141C188.562 374.141 189.98 374.813 190.83 376.156C191.693 377.499 192.125 379.355 192.125 381.726C192.125 384.111 191.693 385.981 190.83 387.338C189.98 388.695 188.562 389.373 186.575 389.373C184.588 389.373 183.163 388.695 182.299 387.338C181.45 385.981 181.025 384.111 181.025 381.726ZM189.288 381.726C189.288 380.712 189.22 379.862 189.083 379.177C188.959 378.478 188.699 377.91 188.302 377.471C187.918 377.033 187.342 376.813 186.575 376.813C185.807 376.813 185.225 377.033 184.828 377.471C184.444 377.91 184.183 378.478 184.046 379.177C183.923 379.862 183.861 380.712 183.861 381.726C183.861 382.768 183.923 383.645 184.046 384.357C184.17 385.056 184.43 385.625 184.828 386.064C185.225 386.488 185.807 386.701 186.575 386.701C187.342 386.701 187.925 386.488 188.322 386.064C188.72 385.625 188.98 385.056 189.103 384.357C189.227 383.645 189.288 382.768 189.288 381.726ZM197.788 386.393L195.383 392.169H193.533L194.869 386.393H197.788ZM202.041 381.48C200.671 380.767 199.986 379.664 199.986 378.17C199.986 377.43 200.171 376.759 200.541 376.156C200.924 375.539 201.493 375.052 202.247 374.696C203.014 374.326 203.946 374.141 205.042 374.141C206.139 374.141 207.064 374.326 207.818 374.696C208.585 375.052 209.154 375.539 209.524 376.156C209.907 376.759 210.099 377.43 210.099 378.17C210.099 378.924 209.914 379.588 209.544 380.164C209.174 380.726 208.681 381.164 208.064 381.48C208.818 381.808 209.407 382.288 209.832 382.919C210.257 383.549 210.469 384.296 210.469 385.159C210.469 386.091 210.229 386.906 209.75 387.605C209.284 388.291 208.64 388.818 207.818 389.188C206.995 389.558 206.07 389.743 205.042 389.743C204.015 389.743 203.09 389.558 202.267 389.188C201.459 388.818 200.815 388.291 200.335 387.605C199.869 386.906 199.636 386.091 199.636 385.159C199.636 384.296 199.849 383.549 200.273 382.919C200.698 382.274 201.287 381.795 202.041 381.48ZM207.304 378.581C207.304 377.91 207.098 377.389 206.687 377.019C206.29 376.649 205.741 376.464 205.042 376.464C204.357 376.464 203.809 376.649 203.398 377.019C203.001 377.389 202.802 377.917 202.802 378.602C202.802 379.218 203.007 379.712 203.418 380.082C203.843 380.452 204.385 380.637 205.042 380.637C205.7 380.637 206.242 380.452 206.666 380.082C207.091 379.698 207.304 379.198 207.304 378.581ZM205.042 382.734C204.261 382.734 203.624 382.932 203.131 383.33C202.651 383.727 202.411 384.296 202.411 385.036C202.411 385.721 202.644 386.283 203.11 386.721C203.59 387.146 204.234 387.359 205.042 387.359C205.851 387.359 206.488 387.139 206.954 386.701C207.42 386.262 207.653 385.707 207.653 385.036C207.653 384.31 207.413 383.748 206.934 383.35C206.454 382.939 205.824 382.734 205.042 382.734ZM216.072 385.2C216.182 385.803 216.429 386.269 216.812 386.598C217.21 386.913 217.738 387.071 218.395 387.071C219.245 387.071 219.862 386.721 220.245 386.023C220.629 385.31 220.821 384.118 220.821 382.446C220.506 382.884 220.06 383.227 219.485 383.474C218.923 383.72 218.313 383.844 217.655 383.844C216.778 383.844 215.983 383.665 215.271 383.309C214.572 382.939 214.017 382.398 213.606 381.685C213.195 380.959 212.989 380.082 212.989 379.054C212.989 377.533 213.441 376.327 214.346 375.436C215.25 374.532 216.484 374.079 218.046 374.079C219.992 374.079 221.362 374.703 222.157 375.95C222.966 377.197 223.37 379.075 223.37 381.582C223.37 383.364 223.212 384.823 222.897 385.961C222.596 387.098 222.068 387.962 221.314 388.551C220.574 389.14 219.56 389.435 218.272 389.435C217.258 389.435 216.395 389.243 215.682 388.859C214.969 388.462 214.421 387.948 214.037 387.318C213.667 386.673 213.455 385.968 213.4 385.2H216.072ZM218.251 381.5C218.964 381.5 219.526 381.281 219.937 380.842C220.348 380.404 220.554 379.815 220.554 379.075C220.554 378.266 220.334 377.642 219.896 377.204C219.471 376.752 218.889 376.526 218.149 376.526C217.409 376.526 216.819 376.759 216.381 377.224C215.956 377.677 215.744 378.28 215.744 379.033C215.744 379.76 215.949 380.356 216.36 380.822C216.785 381.274 217.415 381.5 218.251 381.5ZM225.281 378.108C225.281 377.067 225.583 376.251 226.186 375.662C226.802 375.073 227.59 374.778 228.55 374.778C229.509 374.778 230.29 375.073 230.893 375.662C231.51 376.251 231.818 377.067 231.818 378.108C231.818 379.164 231.51 379.986 230.893 380.575C230.29 381.164 229.509 381.459 228.55 381.459C227.59 381.459 226.802 381.164 226.186 380.575C225.583 379.986 225.281 379.164 225.281 378.108ZM238.478 375.025L230.4 389.414H227.604L235.662 375.025H238.478ZM228.529 376.505C227.775 376.505 227.398 377.039 227.398 378.108C227.398 379.191 227.775 379.732 228.529 379.732C228.899 379.732 229.187 379.602 229.392 379.342C229.598 379.068 229.701 378.657 229.701 378.108C229.701 377.039 229.31 376.505 228.529 376.505ZM234.305 386.31C234.305 385.255 234.607 384.44 235.21 383.864C235.827 383.275 236.615 382.98 237.574 382.98C238.533 382.98 239.307 383.275 239.897 383.864C240.5 384.44 240.801 385.255 240.801 386.31C240.801 387.366 240.5 388.188 239.897 388.777C239.307 389.366 238.533 389.661 237.574 389.661C236.601 389.661 235.813 389.366 235.21 388.777C234.607 388.188 234.305 387.366 234.305 386.31ZM237.553 384.707C236.772 384.707 236.382 385.241 236.382 386.31C236.382 387.393 236.772 387.934 237.553 387.934C238.321 387.934 238.704 387.393 238.704 386.31C238.704 385.241 238.321 384.707 237.553 384.707Z" fill="#0D2B40"/>
<path d="M167.561 360.862C166.709 360.862 165.957 360.714 165.303 360.418C164.662 360.122 164.156 359.709 163.786 359.178C163.416 358.648 163.219 358.056 163.194 357.402H164.563C164.625 358.031 164.903 358.586 165.396 359.067C165.889 359.536 166.611 359.77 167.561 359.77C168.436 359.77 169.127 359.548 169.633 359.104C170.151 358.648 170.41 358.074 170.41 357.384C170.41 356.829 170.268 356.385 169.984 356.052C169.7 355.706 169.349 355.454 168.93 355.293C168.51 355.121 167.931 354.936 167.191 354.738C166.327 354.504 165.643 354.276 165.137 354.054C164.631 353.832 164.2 353.486 163.842 353.018C163.484 352.549 163.305 351.914 163.305 351.112C163.305 350.446 163.478 349.854 163.823 349.336C164.169 348.806 164.656 348.392 165.285 348.096C165.914 347.8 166.635 347.652 167.45 347.652C168.646 347.652 169.608 347.948 170.336 348.541C171.076 349.12 171.501 349.873 171.612 350.798H170.206C170.12 350.267 169.83 349.799 169.337 349.392C168.843 348.972 168.177 348.763 167.339 348.763C166.561 348.763 165.914 348.972 165.396 349.392C164.878 349.799 164.619 350.36 164.619 351.075C164.619 351.618 164.761 352.056 165.044 352.389C165.328 352.722 165.68 352.974 166.099 353.147C166.531 353.32 167.11 353.505 167.838 353.702C168.677 353.937 169.355 354.171 169.873 354.405C170.391 354.627 170.829 354.973 171.187 355.441C171.544 355.91 171.723 356.539 171.723 357.328C171.723 357.933 171.563 358.506 171.242 359.049C170.921 359.592 170.447 360.029 169.818 360.362C169.189 360.695 168.436 360.862 167.561 360.862ZM184.068 360.732L182.31 358.938C181.681 359.629 181.009 360.14 180.294 360.473C179.579 360.794 178.771 360.954 177.87 360.954C177.007 360.954 176.242 360.794 175.576 360.473C174.91 360.14 174.392 359.678 174.022 359.086C173.652 358.494 173.467 357.809 173.467 357.032C173.467 356.12 173.726 355.324 174.244 354.646C174.762 353.967 175.521 353.437 176.52 353.055C176.088 352.574 175.774 352.13 175.576 351.723C175.379 351.303 175.28 350.853 175.28 350.372C175.28 349.546 175.576 348.88 176.168 348.374C176.76 347.856 177.55 347.597 178.536 347.597C179.461 347.597 180.214 347.862 180.793 348.392C181.373 348.923 181.644 349.614 181.607 350.465H180.312C180.325 349.91 180.152 349.472 179.794 349.151C179.449 348.83 179.011 348.67 178.481 348.67C177.913 348.67 177.451 348.83 177.093 349.151C176.748 349.459 176.575 349.86 176.575 350.354C176.575 350.748 176.68 351.131 176.89 351.501C177.112 351.871 177.457 352.308 177.926 352.814L182.181 357.125C182.354 356.89 182.588 356.52 182.884 356.015L184.068 354.035H185.456L184.05 356.459C183.716 357.038 183.383 357.556 183.05 358.013L185.752 360.732H184.068ZM177.87 359.826C178.598 359.826 179.246 359.684 179.813 359.4C180.393 359.117 180.941 358.673 181.459 358.068L177.334 353.887C175.619 354.516 174.762 355.552 174.762 356.995C174.762 357.538 174.892 358.025 175.151 358.457C175.422 358.876 175.792 359.209 176.261 359.456C176.729 359.703 177.266 359.826 177.87 359.826ZM195.793 351.519C195.793 352.629 195.429 353.523 194.701 354.202C193.974 354.88 192.882 355.219 191.427 355.219H188.818V360.732H187.523V347.8H191.427C192.87 347.8 193.955 348.14 194.683 348.818C195.423 349.496 195.793 350.397 195.793 351.519ZM191.427 354.109C193.449 354.109 194.461 353.246 194.461 351.519C194.461 350.656 194.22 350.002 193.739 349.558C193.258 349.114 192.487 348.892 191.427 348.892H188.818V354.109H191.427ZM211.127 348.578H204.356V353.314C204.664 352.882 205.115 352.53 205.707 352.259C206.299 351.975 206.94 351.834 207.631 351.834C208.642 351.834 209.468 352.043 210.11 352.463C210.751 352.87 211.214 353.406 211.497 354.072C211.781 354.726 211.923 355.429 211.923 356.181C211.923 357.045 211.756 357.828 211.423 358.531C211.103 359.222 210.603 359.77 209.925 360.177C209.259 360.584 208.426 360.788 207.427 360.788C206.157 360.788 205.127 360.461 204.338 359.807C203.548 359.141 203.067 358.247 202.895 357.125H204.171C204.331 357.939 204.701 358.568 205.281 359.012C205.861 359.456 206.576 359.678 207.427 359.678C208.5 359.678 209.308 359.363 209.851 358.734C210.406 358.093 210.683 357.248 210.683 356.2C210.683 355.176 210.406 354.381 209.851 353.813C209.296 353.233 208.5 352.944 207.464 352.944C206.749 352.944 206.12 353.11 205.577 353.443C205.034 353.776 204.634 354.226 204.375 354.794H203.154V347.449H211.127V348.578ZM214.183 353.98C214.183 351.858 214.51 350.212 215.164 349.04C215.818 347.868 216.989 347.282 218.679 347.282C220.369 347.282 221.541 347.868 222.194 349.04C222.848 350.212 223.175 351.858 223.175 353.98C223.175 356.138 222.848 357.809 222.194 358.993C221.541 360.177 220.369 360.769 218.679 360.769C216.977 360.769 215.799 360.177 215.145 358.993C214.504 357.809 214.183 356.138 214.183 353.98ZM221.898 353.98C221.898 352.833 221.818 351.864 221.658 351.075C221.497 350.286 221.183 349.651 220.714 349.17C220.245 348.689 219.567 348.448 218.679 348.448C217.791 348.448 217.113 348.689 216.644 349.17C216.175 349.651 215.861 350.286 215.7 351.075C215.54 351.864 215.46 352.833 215.46 353.98C215.46 355.164 215.54 356.157 215.7 356.958C215.861 357.748 216.175 358.383 216.644 358.864C217.113 359.345 217.791 359.585 218.679 359.585C219.567 359.585 220.245 359.345 220.714 358.864C221.183 358.383 221.497 357.748 221.658 356.958C221.818 356.157 221.898 355.164 221.898 353.98ZM225.584 353.98C225.584 351.858 225.911 350.212 226.564 349.04C227.218 347.868 228.39 347.282 230.079 347.282C231.769 347.282 232.941 347.868 233.594 349.04C234.248 350.212 234.575 351.858 234.575 353.98C234.575 356.138 234.248 357.809 233.594 358.993C232.941 360.177 231.769 360.769 230.079 360.769C228.377 360.769 227.199 360.177 226.546 358.993C225.904 357.809 225.584 356.138 225.584 353.98ZM233.298 353.98C233.298 352.833 233.218 351.864 233.058 351.075C232.898 350.286 232.583 349.651 232.114 349.17C231.646 348.689 230.967 348.448 230.079 348.448C229.191 348.448 228.513 348.689 228.044 349.17C227.576 349.651 227.261 350.286 227.101 351.075C226.94 351.864 226.86 352.833 226.86 353.98C226.86 355.164 226.94 356.157 227.101 356.958C227.261 357.748 227.576 358.383 228.044 358.864C228.513 359.345 229.191 359.585 230.079 359.585C230.967 359.585 231.646 359.345 232.114 358.864C232.583 358.383 232.898 357.748 233.058 356.958C233.218 356.157 233.298 355.164 233.298 353.98Z" fill="#1A364A"/>
<g filter="url(#filter1_b_6780_10990)">
<path d="M178.926 177.228H219.011V314.954C219.011 317.225 217.17 319.066 214.899 319.066H183.037C180.767 319.066 178.926 317.225 178.926 314.954V177.228Z" fill="#E2E5EC" fill-opacity="0.5"/>
<path d="M179.44 177.741H218.497V314.954C218.497 316.941 216.886 318.552 214.899 318.552H183.037C181.051 318.552 179.44 316.941 179.44 314.954V177.741Z" stroke="url(#paint2_linear_6780_10990)" stroke-width="1.02781"/>
</g>
<path d="M462.104 281.254V283.679H453.388V281.254H462.104ZM469.551 277.471V274.82H474.505V289.805H471.545V277.471H469.551ZM477.348 282.117C477.348 279.746 477.773 277.889 478.622 276.546C479.486 275.203 480.911 274.532 482.898 274.532C484.885 274.532 486.304 275.203 487.153 276.546C488.017 277.889 488.448 279.746 488.448 282.117C488.448 284.502 488.017 286.372 487.153 287.729C486.304 289.086 484.885 289.764 482.898 289.764C480.911 289.764 479.486 289.086 478.622 287.729C477.773 286.372 477.348 284.502 477.348 282.117ZM485.612 282.117C485.612 281.103 485.543 280.253 485.406 279.568C485.283 278.869 485.022 278.301 484.625 277.862C484.241 277.423 483.666 277.204 482.898 277.204C482.131 277.204 481.548 277.423 481.151 277.862C480.767 278.301 480.507 278.869 480.37 279.568C480.246 280.253 480.185 281.103 480.185 282.117C480.185 283.159 480.246 284.036 480.37 284.748C480.493 285.447 480.753 286.016 481.151 286.455C481.548 286.879 482.131 287.092 482.898 287.092C483.666 287.092 484.248 286.879 484.645 286.455C485.043 286.016 485.303 285.447 485.427 284.748C485.55 284.036 485.612 283.159 485.612 282.117ZM494.111 286.783L491.706 292.56H489.856L491.192 286.783H494.111ZM498.364 281.87C496.994 281.158 496.309 280.055 496.309 278.561C496.309 277.821 496.494 277.149 496.864 276.546C497.248 275.93 497.816 275.443 498.57 275.087C499.337 274.717 500.269 274.532 501.366 274.532C502.462 274.532 503.387 274.717 504.141 275.087C504.908 275.443 505.477 275.93 505.847 276.546C506.231 277.149 506.423 277.821 506.423 278.561C506.423 279.315 506.238 279.979 505.868 280.555C505.498 281.117 505.004 281.555 504.387 281.87C505.141 282.199 505.73 282.679 506.155 283.309C506.58 283.94 506.793 284.687 506.793 285.55C506.793 286.482 506.553 287.297 506.073 287.996C505.607 288.681 504.963 289.209 504.141 289.579C503.319 289.949 502.394 290.134 501.366 290.134C500.338 290.134 499.413 289.949 498.591 289.579C497.782 289.209 497.138 288.681 496.658 287.996C496.192 287.297 495.959 286.482 495.959 285.55C495.959 284.687 496.172 283.94 496.597 283.309C497.021 282.665 497.611 282.186 498.364 281.87ZM503.627 278.972C503.627 278.301 503.421 277.78 503.01 277.41C502.613 277.04 502.065 276.855 501.366 276.855C500.681 276.855 500.132 277.04 499.721 277.41C499.324 277.78 499.125 278.307 499.125 278.993C499.125 279.609 499.331 280.103 499.742 280.473C500.167 280.843 500.708 281.028 501.366 281.028C502.024 281.028 502.565 280.843 502.99 280.473C503.414 280.089 503.627 279.589 503.627 278.972ZM501.366 283.124C500.585 283.124 499.947 283.323 499.454 283.721C498.974 284.118 498.735 284.687 498.735 285.427C498.735 286.112 498.967 286.674 499.433 287.112C499.913 287.537 500.557 287.75 501.366 287.75C502.174 287.75 502.812 287.53 503.277 287.092C503.743 286.653 503.976 286.098 503.976 285.427C503.976 284.7 503.737 284.138 503.257 283.741C502.777 283.33 502.147 283.124 501.366 283.124ZM509.107 278.766C509.175 277.396 509.655 276.341 510.546 275.601C511.45 274.847 512.636 274.47 514.102 274.47C515.102 274.47 515.959 274.648 516.671 275.005C517.384 275.347 517.919 275.82 518.275 276.423C518.645 277.012 518.83 277.684 518.83 278.438C518.83 279.301 518.604 280.034 518.152 280.637C517.713 281.226 517.185 281.624 516.569 281.829V281.912C517.364 282.158 517.98 282.597 518.419 283.227C518.871 283.858 519.097 284.666 519.097 285.653C519.097 286.475 518.905 287.208 518.522 287.852C518.152 288.496 517.596 289.003 516.856 289.373C516.13 289.73 515.253 289.908 514.225 289.908C512.677 289.908 511.416 289.517 510.443 288.736C509.47 287.955 508.956 286.804 508.901 285.283H511.697C511.724 285.954 511.95 286.496 512.375 286.907C512.814 287.304 513.41 287.503 514.164 287.503C514.863 287.503 515.397 287.311 515.767 286.927C516.151 286.53 516.343 286.023 516.343 285.406C516.343 284.584 516.082 283.995 515.561 283.638C515.041 283.282 514.232 283.104 513.136 283.104H512.54V280.74H513.136C515.082 280.74 516.055 280.089 516.055 278.787C516.055 278.198 515.877 277.739 515.52 277.41C515.178 277.081 514.677 276.916 514.02 276.916C513.376 276.916 512.875 277.095 512.519 277.451C512.176 277.793 511.978 278.232 511.923 278.766H509.107ZM521.042 278.499C521.042 277.458 521.344 276.642 521.947 276.053C522.564 275.464 523.352 275.169 524.311 275.169C525.27 275.169 526.051 275.464 526.654 276.053C527.271 276.642 527.579 277.458 527.579 278.499C527.579 279.554 527.271 280.377 526.654 280.966C526.051 281.555 525.27 281.85 524.311 281.85C523.352 281.85 522.564 281.555 521.947 280.966C521.344 280.377 521.042 279.554 521.042 278.499ZM534.24 275.416L526.161 289.805H523.365L531.423 275.416H534.24ZM524.29 276.896C523.537 276.896 523.16 277.43 523.16 278.499C523.16 279.582 523.537 280.123 524.29 280.123C524.66 280.123 524.948 279.993 525.154 279.733C525.359 279.459 525.462 279.047 525.462 278.499C525.462 277.43 525.071 276.896 524.29 276.896ZM530.067 286.701C530.067 285.646 530.368 284.831 530.971 284.255C531.588 283.666 532.376 283.371 533.335 283.371C534.294 283.371 535.069 283.666 535.658 284.255C536.261 284.831 536.562 285.646 536.562 286.701C536.562 287.756 536.261 288.579 535.658 289.168C535.069 289.757 534.294 290.052 533.335 290.052C532.362 290.052 531.574 289.757 530.971 289.168C530.368 288.579 530.067 287.756 530.067 286.701ZM533.314 285.098C532.533 285.098 532.143 285.632 532.143 286.701C532.143 287.784 532.533 288.325 533.314 288.325C534.082 288.325 534.466 287.784 534.466 286.701C534.466 285.632 534.082 285.098 533.314 285.098Z" fill="#0D2B40"/>
<path d="M479.7 249.114H484.695C486.459 249.114 487.915 249.743 489.062 251.001C490.221 252.234 490.801 253.764 490.801 255.589C490.801 257.414 490.221 258.95 489.062 260.196C487.915 261.441 486.459 262.064 484.695 262.064H479.7V249.114ZM480.995 260.843H484.695C486.114 260.843 487.273 260.337 488.174 259.326C489.086 258.302 489.543 257.057 489.543 255.589C489.543 254.121 489.086 252.876 488.174 251.852C487.273 250.84 486.114 250.335 484.695 250.335H480.995V260.843ZM500.582 260.899C499.633 261.824 498.486 262.286 497.141 262.286C495.772 262.286 494.619 261.824 493.682 260.899C492.744 259.961 492.276 258.808 492.276 257.439C492.276 256.07 492.744 254.923 493.682 253.998C494.619 253.061 495.772 252.592 497.141 252.592C498.498 252.592 499.645 253.061 500.582 253.998C501.532 254.923 502.007 256.07 502.007 257.439C502.007 258.796 501.532 259.949 500.582 260.899ZM494.551 260.048C495.254 260.751 496.118 261.102 497.141 261.102C498.165 261.102 499.028 260.751 499.731 260.048C500.434 259.32 500.786 258.45 500.786 257.439C500.786 256.415 500.434 255.552 499.731 254.849C499.028 254.134 498.165 253.776 497.141 253.776C496.118 253.776 495.254 254.134 494.551 254.849C493.848 255.552 493.497 256.415 493.497 257.439C493.497 258.45 493.848 259.32 494.551 260.048ZM512.551 260.492L514.826 252.814H516.084L513.235 262.064H511.903L509.517 254.608L507.13 262.064H505.798L502.949 252.814H504.207L506.483 260.492L508.906 252.814H510.127L512.551 260.492Z" fill="#1A364A"/>
<g filter="url(#filter2_b_6780_10990)">
<path d="M477.382 177.228H517.467V227.591C517.467 229.861 515.626 231.702 513.356 231.702H481.494C479.223 231.702 477.382 229.861 477.382 227.591V177.228Z" fill="#E2E5EC" fill-opacity="0.5"/>
<path d="M477.896 177.742H516.953V227.591C516.953 229.578 515.343 231.188 513.356 231.188H481.494C479.507 231.188 477.896 229.578 477.896 227.591V177.742Z" stroke="url(#paint3_linear_6780_10990)" stroke-width="1.02781"/>
</g>
<path d="M364.6 338.843V341.315H355.716V338.843H364.6ZM372.191 334.987V332.284H377.241V347.559H374.224V334.987H372.191ZM388.059 336.098C387.919 335.511 387.675 335.071 387.326 334.778C386.99 334.484 386.502 334.338 385.859 334.338C384.895 334.338 384.183 334.729 383.722 335.511C383.275 336.279 383.044 337.537 383.03 339.283C383.366 338.724 383.854 338.291 384.497 337.984C385.14 337.662 385.838 337.502 386.592 337.502C387.5 337.502 388.303 337.697 389.002 338.088C389.7 338.479 390.245 339.052 390.636 339.806C391.027 340.547 391.223 341.441 391.223 342.488C391.223 343.48 391.02 344.367 390.615 345.149C390.224 345.918 389.644 346.518 388.876 346.951C388.108 347.384 387.193 347.601 386.131 347.601C384.679 347.601 383.533 347.28 382.695 346.637C381.871 345.995 381.291 345.101 380.956 343.955C380.635 342.796 380.474 341.371 380.474 339.681C380.474 337.125 380.914 335.197 381.794 333.898C382.674 332.585 384.064 331.928 385.964 331.928C387.43 331.928 388.569 332.326 389.379 333.122C390.189 333.919 390.657 334.91 390.783 336.098H388.059ZM385.922 339.911C385.181 339.911 384.56 340.128 384.057 340.561C383.554 340.994 383.303 341.622 383.303 342.447C383.303 343.271 383.533 343.92 383.994 344.395C384.469 344.87 385.133 345.108 385.985 345.108C386.739 345.108 387.333 344.877 387.766 344.416C388.213 343.955 388.436 343.334 388.436 342.551C388.436 341.741 388.22 341.099 387.787 340.624C387.368 340.149 386.746 339.911 385.922 339.911ZM397.082 344.479L394.631 350.367H392.745L394.107 344.479H397.082ZM398.736 344.584V342.279L405.587 332.473H409.003V342.028H410.847V344.584H409.003V347.559H406.069V344.584H398.736ZM406.258 335.616L401.962 342.028H406.258V335.616ZM415.27 339.471C413.874 338.745 413.175 337.62 413.175 336.098C413.175 335.344 413.364 334.659 413.741 334.044C414.132 333.416 414.712 332.92 415.48 332.557C416.262 332.18 417.212 331.991 418.33 331.991C419.447 331.991 420.39 332.18 421.158 332.557C421.94 332.92 422.52 333.416 422.897 334.044C423.288 334.659 423.484 335.344 423.484 336.098C423.484 336.866 423.295 337.544 422.918 338.13C422.541 338.703 422.038 339.15 421.41 339.471C422.178 339.806 422.779 340.295 423.212 340.938C423.645 341.581 423.861 342.342 423.861 343.222C423.861 344.172 423.617 345.003 423.128 345.715C422.653 346.414 421.996 346.951 421.158 347.329C420.32 347.706 419.377 347.894 418.33 347.894C417.282 347.894 416.339 347.706 415.501 347.329C414.677 346.951 414.02 346.414 413.531 345.715C413.056 345.003 412.819 344.172 412.819 343.222C412.819 342.342 413.035 341.581 413.468 340.938C413.901 340.281 414.502 339.793 415.27 339.471ZM420.634 336.517C420.634 335.832 420.425 335.302 420.006 334.924C419.601 334.547 419.042 334.359 418.33 334.359C417.631 334.359 417.072 334.547 416.653 334.924C416.248 335.302 416.046 335.839 416.046 336.538C416.046 337.166 416.255 337.669 416.674 338.046C417.107 338.424 417.659 338.612 418.33 338.612C419 338.612 419.552 338.424 419.985 338.046C420.418 337.655 420.634 337.145 420.634 336.517ZM418.33 340.749C417.533 340.749 416.884 340.952 416.381 341.357C415.892 341.762 415.648 342.342 415.648 343.096C415.648 343.795 415.885 344.367 416.36 344.814C416.849 345.247 417.505 345.464 418.33 345.464C419.154 345.464 419.803 345.24 420.278 344.793C420.753 344.346 420.991 343.781 420.991 343.096C420.991 342.356 420.746 341.783 420.257 341.378C419.768 340.959 419.126 340.749 418.33 340.749ZM425.843 336.035C425.843 334.973 426.15 334.142 426.765 333.542C427.393 332.941 428.196 332.641 429.174 332.641C430.152 332.641 430.948 332.941 431.563 333.542C432.192 334.142 432.506 334.973 432.506 336.035C432.506 337.111 432.192 337.949 431.563 338.549C430.948 339.15 430.152 339.45 429.174 339.45C428.196 339.45 427.393 339.15 426.765 338.549C426.15 337.949 425.843 337.111 425.843 336.035ZM439.295 332.892L431.06 347.559H428.21L436.424 332.892H439.295ZM429.153 334.401C428.385 334.401 428.001 334.945 428.001 336.035C428.001 337.138 428.385 337.69 429.153 337.69C429.531 337.69 429.824 337.558 430.033 337.292C430.243 337.013 430.348 336.594 430.348 336.035C430.348 334.945 429.95 334.401 429.153 334.401ZM435.041 344.395C435.041 343.32 435.348 342.488 435.963 341.902C436.592 341.301 437.395 341.001 438.373 341.001C439.35 341.001 440.14 341.301 440.74 341.902C441.355 342.488 441.662 343.32 441.662 344.395C441.662 345.471 441.355 346.309 440.74 346.91C440.14 347.51 439.35 347.811 438.373 347.811C437.381 347.811 436.578 347.51 435.963 346.91C435.348 346.309 435.041 345.471 435.041 344.395ZM438.352 342.761C437.555 342.761 437.157 343.306 437.157 344.395C437.157 345.499 437.555 346.05 438.352 346.05C439.134 346.05 439.525 345.499 439.525 344.395C439.525 343.306 439.134 342.761 438.352 342.761Z" fill="#0D2B40"/>
<path d="M381.382 310.207C382.023 310.479 382.529 310.892 382.899 311.447C383.269 312.002 383.454 312.625 383.454 313.315C383.454 314.315 383.102 315.166 382.399 315.869C381.696 316.572 380.845 316.923 379.846 316.923H374.204V303.973H379.421C380.371 303.973 381.191 304.318 381.881 305.009C382.56 305.687 382.899 306.501 382.899 307.451C382.899 308.659 382.393 309.578 381.382 310.207ZM379.421 305.194H375.499V309.708H379.421C380.013 309.708 380.525 309.492 380.956 309.06C381.388 308.604 381.604 308.067 381.604 307.451C381.604 306.846 381.388 306.316 380.956 305.86C380.525 305.416 380.013 305.194 379.421 305.194ZM375.499 315.702H379.846C380.488 315.702 381.03 315.474 381.474 315.018C381.931 314.561 382.159 313.994 382.159 313.315C382.159 312.649 381.931 312.088 381.474 311.632C381.03 311.163 380.488 310.929 379.846 310.929H375.499V315.702ZM393.243 315.758C392.293 316.683 391.146 317.145 389.802 317.145C388.433 317.145 387.28 316.683 386.342 315.758C385.405 314.82 384.936 313.667 384.936 312.298C384.936 310.929 385.405 309.782 386.342 308.857C387.28 307.919 388.433 307.451 389.802 307.451C391.159 307.451 392.306 307.919 393.243 308.857C394.193 309.782 394.668 310.929 394.668 312.298C394.668 313.655 394.193 314.808 393.243 315.758ZM387.212 314.907C387.915 315.61 388.778 315.961 389.802 315.961C390.826 315.961 391.689 315.61 392.392 314.907C393.095 314.179 393.447 313.309 393.447 312.298C393.447 311.274 393.095 310.411 392.392 309.708C391.689 308.992 390.826 308.635 389.802 308.635C388.778 308.635 387.915 308.992 387.212 309.708C386.509 310.411 386.157 311.274 386.157 312.298C386.157 313.309 386.509 314.179 387.212 314.907ZM401.04 307.451C402.15 307.451 403.032 307.796 403.686 308.487C404.339 309.165 404.666 310.084 404.666 311.243V316.923H403.445V311.243C403.445 310.417 403.223 309.776 402.779 309.319C402.347 308.863 401.731 308.635 400.929 308.635C400.004 308.635 399.27 308.925 398.727 309.504C398.197 310.084 397.932 310.941 397.932 312.076V316.923H396.711V307.673H397.932V309.116C398.623 308.006 399.659 307.451 401.04 307.451ZM414.982 309.486V303.973H416.203V316.923H414.982V315.11C414.131 316.467 412.886 317.145 411.245 317.145C409.926 317.145 408.797 316.676 407.86 315.739C406.935 314.802 406.472 313.655 406.472 312.298C406.472 310.941 406.935 309.794 407.86 308.857C408.797 307.919 409.926 307.451 411.245 307.451C412.886 307.451 414.131 308.129 414.982 309.486ZM408.748 314.907C409.451 315.61 410.314 315.961 411.338 315.961C412.361 315.961 413.225 315.61 413.928 314.907C414.631 314.179 414.982 313.309 414.982 312.298C414.982 311.274 414.631 310.411 413.928 309.708C413.225 308.992 412.361 308.635 411.338 308.635C410.314 308.635 409.451 308.992 408.748 309.708C408.045 310.411 407.693 311.274 407.693 312.298C407.693 313.309 408.045 314.179 408.748 314.907ZM419.751 310.096C419.751 310.812 420.386 311.336 421.656 311.669C422.014 311.755 422.248 311.817 422.359 311.854C422.47 311.879 422.686 311.946 423.007 312.057C423.34 312.156 423.568 312.242 423.691 312.316C423.827 312.39 424.012 312.508 424.246 312.668C424.481 312.816 424.647 312.97 424.746 313.13C424.845 313.278 424.937 313.476 425.023 313.722C425.11 313.957 425.153 314.21 425.153 314.481C425.153 315.27 424.838 315.912 424.209 316.405C423.605 316.898 422.803 317.145 421.804 317.145C420.941 317.145 420.195 316.954 419.566 316.572C418.937 316.177 418.493 315.659 418.234 315.018L419.27 314.407C419.442 314.888 419.751 315.27 420.195 315.554C420.651 315.825 421.188 315.961 421.804 315.961C422.433 315.961 422.945 315.838 423.34 315.591C423.735 315.344 423.932 314.974 423.932 314.481C423.932 313.766 423.297 313.241 422.026 312.908C421.669 312.822 421.434 312.767 421.323 312.742C421.212 312.705 420.99 312.637 420.657 312.538C420.337 312.427 420.108 312.335 419.973 312.261C419.849 312.187 419.671 312.076 419.436 311.928C419.202 311.768 419.035 311.613 418.937 311.465C418.838 311.305 418.746 311.108 418.659 310.873C418.573 310.627 418.53 310.368 418.53 310.096C418.53 309.344 418.826 308.715 419.418 308.209C420.034 307.704 420.793 307.451 421.693 307.451C422.433 307.451 423.087 307.617 423.654 307.95C424.234 308.283 424.66 308.746 424.931 309.338L423.913 309.93C423.568 309.066 422.828 308.635 421.693 308.635C421.138 308.635 420.676 308.764 420.306 309.023C419.936 309.282 419.751 309.64 419.751 310.096Z" fill="#1A364A"/>
<g filter="url(#filter3_b_6780_10990)">
<path d="M379.268 177.228H419.353V269.731C419.353 272.001 417.512 273.842 415.242 273.842H383.38C381.109 273.842 379.268 272.001 379.268 269.731V177.228Z" fill="#E2E5EC" fill-opacity="0.5"/>
<path d="M379.782 177.741H418.839V269.731C418.839 271.717 417.229 273.328 415.242 273.328H383.38C381.393 273.328 379.782 271.717 379.782 269.731V177.741Z" stroke="url(#paint4_linear_6780_10990)" stroke-width="1.02781"/>
</g>
<g filter="url(#filter4_d_6780_10990)">
<path d="M564.777 48.6102V44.8977H571.713V65.8774H567.569V48.6102H564.777ZM575.52 61.7909V58.6252L584.931 45.1567H589.622V58.2798H592.155V61.7909H589.622V65.8774H585.593V61.7909H575.52ZM585.852 49.4735L579.952 58.2798H585.852V49.4735ZM599.583 61.647L596.216 69.7338H593.626L595.497 61.647H599.583ZM603.293 61.3304C605.135 59.7955 606.603 58.5197 607.696 57.5028C608.79 56.4668 609.701 55.3924 610.43 54.2796C611.159 53.1668 611.524 52.0732 611.524 50.9988C611.524 50.0203 611.294 49.2529 610.833 48.6965C610.373 48.1401 609.663 47.8619 608.704 47.8619C607.744 47.8619 607.006 48.1881 606.488 48.8404C605.97 49.4735 605.701 50.3465 605.682 51.4593H601.768C601.845 49.157 602.526 47.4111 603.811 46.2215C605.116 45.032 606.766 44.4373 608.761 44.4373C610.948 44.4373 612.627 45.0224 613.797 46.1928C614.968 47.3439 615.553 48.8692 615.553 50.7686C615.553 52.2651 615.15 53.6944 614.344 55.0566C613.538 56.4188 612.617 57.6083 611.581 58.6252C610.545 59.6229 609.193 60.8316 607.524 62.2513H616.013V65.5897H601.797V62.5967L603.293 61.3304ZM618.092 50.0491C618.092 48.591 618.514 47.4494 619.358 46.6244C620.221 45.7995 621.325 45.387 622.668 45.387C624.011 45.387 625.104 45.7995 625.948 46.6244C626.812 47.4494 627.243 48.591 627.243 50.0491C627.243 51.5264 626.812 52.6776 625.948 53.5026C625.104 54.3276 624.011 54.7401 622.668 54.7401C621.325 54.7401 620.221 54.3276 619.358 53.5026C618.514 52.6776 618.092 51.5264 618.092 50.0491ZM636.568 45.7323L625.258 65.8774H621.344L632.625 45.7323H636.568ZM622.639 47.8044C621.584 47.8044 621.056 48.5526 621.056 50.0491C621.056 51.5648 621.584 52.3226 622.639 52.3226C623.157 52.3226 623.56 52.1404 623.847 51.7758C624.135 51.3921 624.279 50.8166 624.279 50.0491C624.279 48.5526 623.732 47.8044 622.639 47.8044ZM630.726 61.5318C630.726 60.0545 631.148 58.913 631.992 58.1072C632.855 57.2822 633.958 56.8697 635.301 56.8697C636.644 56.8697 637.728 57.2822 638.553 58.1072C639.398 58.913 639.82 60.0545 639.82 61.5318C639.82 63.0092 639.398 64.1603 638.553 64.9853C637.728 65.8103 636.644 66.2228 635.301 66.2228C633.939 66.2228 632.836 65.8103 631.992 64.9853C631.148 64.1603 630.726 63.0092 630.726 61.5318ZM635.273 59.2871C634.179 59.2871 633.632 60.0354 633.632 61.5318C633.632 63.0475 634.179 63.8054 635.273 63.8054C636.347 63.8054 636.884 63.0475 636.884 61.5318C636.884 60.0354 636.347 59.2871 635.273 59.2871Z" fill="#0D6EFD"/>
</g>
<path d="M583.616 8.74504V25.7656H581.89V12.1738L575.821 25.7656H574.563L568.495 12.2232V25.7656H566.768V8.74504H568.594L575.18 23.4962L581.766 8.74504H583.616ZM588.397 9.75641C588.051 9.75641 587.755 9.63307 587.509 9.38639C587.262 9.13972 587.139 8.83549 587.139 8.4737C587.139 8.11191 587.262 7.8159 587.509 7.58567C587.755 7.33899 588.051 7.21565 588.397 7.21565C588.742 7.21565 589.038 7.33899 589.285 7.58567C589.531 7.8159 589.655 8.11191 589.655 8.4737C589.655 8.83549 589.531 9.13972 589.285 9.38639C589.038 9.63307 588.742 9.75641 588.397 9.75641ZM589.26 12.2972V25.7656H587.533V12.2972H589.26ZM592.381 19.0067C592.381 17.6253 592.652 16.4166 593.195 15.3806C593.754 14.3281 594.519 13.5223 595.489 12.9632C596.476 12.3876 597.586 12.0998 598.819 12.0998C600.102 12.0998 601.204 12.3958 602.125 12.9879C603.062 13.5799 603.736 14.3363 604.147 15.2573V12.2972H605.874V25.7656H604.147V22.7809C603.72 23.7018 603.037 24.4665 602.1 25.0749C601.179 25.667 600.077 25.963 598.794 25.963C597.578 25.963 596.476 25.6752 595.489 25.0996C594.519 24.524 593.754 23.71 593.195 22.6575C592.652 21.605 592.381 20.3881 592.381 19.0067ZM604.147 19.0314C604.147 17.946 603.925 16.9922 603.481 16.17C603.037 15.3477 602.429 14.7146 601.656 14.2706C600.899 13.8265 600.061 13.6045 599.14 13.6045C598.186 13.6045 597.331 13.8183 596.574 14.2459C595.818 14.6735 595.218 15.2984 594.774 16.1206C594.346 16.9264 594.132 17.8885 594.132 19.0067C594.132 20.1085 594.346 21.0788 594.774 21.9175C595.218 22.7397 595.818 23.3729 596.574 23.8169C597.331 24.2445 598.186 24.4582 599.14 24.4582C600.061 24.4582 600.899 24.2362 601.656 23.7922C602.429 23.3482 603.037 22.7151 603.481 21.8928C603.925 21.0706 604.147 20.1168 604.147 19.0314ZM625.85 12.0505C627.429 12.0505 628.711 12.5521 629.698 13.5552C630.701 14.5419 631.203 15.9808 631.203 17.872V25.7656H629.501V18.0694C629.501 16.6058 629.147 15.4875 628.44 14.7146C627.733 13.9417 626.771 13.5552 625.554 13.5552C624.288 13.5552 623.276 13.9746 622.52 14.8132C621.763 15.6519 621.385 16.8689 621.385 18.464V25.7656H619.683V18.0694C619.683 16.6058 619.329 15.4875 618.622 14.7146C617.915 13.9417 616.945 13.5552 615.712 13.5552C614.445 13.5552 613.434 13.9746 612.677 14.8132C611.921 15.6519 611.543 16.8689 611.543 18.464V25.7656H609.816V12.2972H611.543V14.6159C611.97 13.7772 612.579 13.1441 613.368 12.7165C614.158 12.2725 615.037 12.0505 616.008 12.0505C617.175 12.0505 618.195 12.3301 619.066 12.8892C619.954 13.4483 620.596 14.2706 620.99 15.3559C621.352 14.287 621.969 13.473 622.84 12.9138C623.729 12.3383 624.732 12.0505 625.85 12.0505ZM635.901 9.75641C635.556 9.75641 635.26 9.63307 635.013 9.38639C634.766 9.13972 634.643 8.83549 634.643 8.4737C634.643 8.11191 634.766 7.8159 635.013 7.58567C635.26 7.33899 635.556 7.21565 635.901 7.21565C636.246 7.21565 636.542 7.33899 636.789 7.58567C637.036 7.8159 637.159 8.11191 637.159 8.4737C637.159 8.83549 637.036 9.13972 636.789 9.38639C636.542 9.63307 636.246 9.75641 635.901 9.75641ZM636.764 12.2972V25.7656H635.038V12.2972H636.764Z" fill="#1A364A"/>
<g filter="url(#filter5_b_6780_10990)">
<path d="M575.027 175.172H629.501V88.8358C629.501 86.5652 627.66 84.7246 625.389 84.7246H579.138C576.867 84.7246 575.027 86.5652 575.027 88.8358V175.172Z" fill="#0D6EFD" fill-opacity="0.7"/>
<path d="M575.797 174.401H628.73V88.8358C628.73 86.991 627.234 85.4954 625.389 85.4954H579.138C577.293 85.4954 575.797 86.991 575.797 88.8358V174.401Z" stroke="#0D6EFD" stroke-opacity="0.6" stroke-width="1.54172"/>
</g>
<path opacity="0.6" d="M461.867 418.947V430.701H460.69V418.947H461.867ZM468.837 421.352C469.936 421.352 470.832 421.694 471.527 422.377C472.222 423.05 472.57 424.031 472.57 425.32V430.701H471.41V425.455C471.41 424.457 471.158 423.695 470.653 423.168C470.16 422.641 469.482 422.377 468.618 422.377C467.733 422.377 467.027 422.658 466.5 423.218C465.973 423.779 465.709 424.603 465.709 425.69V430.701H464.532V421.52H465.709V423.084C466.001 422.523 466.421 422.097 466.97 421.806C467.52 421.503 468.142 421.352 468.837 421.352ZM478.789 422.512H476.653V430.701H475.476V422.512H474.198V421.52H475.476V420.881C475.476 419.883 475.728 419.149 476.233 418.678C476.748 418.207 477.578 417.972 478.721 417.972V418.981C477.959 418.981 477.421 419.126 477.107 419.418C476.804 419.709 476.653 420.197 476.653 420.881V421.52H478.789V422.512ZM484.66 430.835C483.797 430.835 483.018 430.645 482.323 430.264C481.639 429.871 481.095 429.322 480.692 428.616C480.3 427.898 480.103 427.063 480.103 426.11C480.103 425.157 480.305 424.328 480.709 423.622C481.112 422.904 481.662 422.355 482.357 421.974C483.052 421.581 483.831 421.385 484.694 421.385C485.557 421.385 486.336 421.581 487.031 421.974C487.738 422.355 488.287 422.904 488.679 423.622C489.083 424.328 489.285 425.157 489.285 426.11C489.285 427.052 489.083 427.882 488.679 428.599C488.276 429.316 487.721 429.871 487.014 430.264C486.308 430.645 485.524 430.835 484.66 430.835ZM484.66 429.81C485.266 429.81 485.826 429.675 486.342 429.406C486.858 429.126 487.272 428.711 487.586 428.162C487.911 427.601 488.074 426.917 488.074 426.11C488.074 425.303 487.917 424.625 487.603 424.076C487.289 423.515 486.874 423.1 486.359 422.831C485.843 422.551 485.283 422.411 484.677 422.411C484.072 422.411 483.511 422.551 482.996 422.831C482.48 423.1 482.065 423.515 481.751 424.076C481.449 424.625 481.297 425.303 481.297 426.11C481.297 426.917 481.449 427.601 481.751 428.162C482.065 428.711 482.474 429.126 482.979 429.406C483.494 429.675 484.055 429.81 484.66 429.81ZM492.607 423.151C492.865 422.579 493.257 422.136 493.784 421.822C494.322 421.509 494.978 421.352 495.752 421.352V422.579H495.432C494.58 422.579 493.896 422.809 493.381 423.269C492.865 423.728 492.607 424.496 492.607 425.572V430.701H491.43V421.52H492.607V423.151ZM508.452 421.352C509.529 421.352 510.403 421.694 511.076 422.377C511.759 423.05 512.101 424.031 512.101 425.32V430.701H510.941V425.455C510.941 424.457 510.7 423.695 510.218 423.168C509.736 422.641 509.08 422.377 508.251 422.377C507.387 422.377 506.698 422.663 506.182 423.235C505.667 423.807 505.409 424.636 505.409 425.724V430.701H504.249V425.455C504.249 424.457 504.008 423.695 503.526 423.168C503.044 422.641 502.382 422.377 501.541 422.377C500.678 422.377 499.989 422.663 499.473 423.235C498.957 423.807 498.7 424.636 498.7 425.724V430.701H497.522V421.52H498.7V423.1C498.991 422.529 499.406 422.097 499.944 421.806C500.482 421.503 501.082 421.352 501.743 421.352C502.539 421.352 503.234 421.542 503.828 421.923C504.434 422.304 504.871 422.865 505.14 423.605C505.386 422.876 505.807 422.321 506.401 421.94C507.006 421.548 507.69 421.352 508.452 421.352ZM514.177 426.094C514.177 425.152 514.362 424.328 514.732 423.622C515.113 422.904 515.635 422.355 516.296 421.974C516.969 421.581 517.725 421.385 518.566 421.385C519.441 421.385 520.192 421.587 520.819 421.991C521.458 422.394 521.918 422.91 522.198 423.538V421.52H523.375V430.701H522.198V428.666C521.907 429.294 521.442 429.815 520.803 430.23C520.175 430.634 519.424 430.835 518.549 430.835C517.72 430.835 516.969 430.639 516.296 430.247C515.635 429.855 515.113 429.3 514.732 428.582C514.362 427.865 514.177 427.035 514.177 426.094ZM522.198 426.11C522.198 425.37 522.047 424.72 521.744 424.16C521.442 423.599 521.027 423.168 520.5 422.865C519.984 422.562 519.413 422.411 518.785 422.411C518.135 422.411 517.552 422.557 517.036 422.848C516.52 423.14 516.111 423.566 515.809 424.126C515.517 424.675 515.371 425.331 515.371 426.094C515.371 426.845 515.517 427.506 515.809 428.078C516.111 428.638 516.52 429.07 517.036 429.373C517.552 429.664 518.135 429.81 518.785 429.81C519.413 429.81 519.984 429.658 520.5 429.356C521.027 429.053 521.442 428.621 521.744 428.061C522.047 427.5 522.198 426.85 522.198 426.11ZM527.593 422.512V428.212C527.593 428.773 527.699 429.16 527.912 429.373C528.125 429.586 528.501 429.692 529.039 429.692H530.115V430.701H528.854C528.024 430.701 527.408 430.51 527.004 430.129C526.601 429.737 526.399 429.098 526.399 428.212V422.512H525.121V421.52H526.399V419.216H527.593V421.52H530.115V422.512H527.593ZM532.645 419.788C532.409 419.788 532.208 419.704 532.039 419.536C531.871 419.367 531.787 419.16 531.787 418.913C531.787 418.667 531.871 418.465 532.039 418.308C532.208 418.14 532.409 418.056 532.645 418.056C532.88 418.056 533.082 418.14 533.25 418.308C533.418 418.465 533.502 418.667 533.502 418.913C533.502 419.16 533.418 419.367 533.25 419.536C533.082 419.704 532.88 419.788 532.645 419.788ZM533.233 421.52V430.701H532.056V421.52H533.233ZM539.918 430.835C539.055 430.835 538.275 430.645 537.58 430.264C536.897 429.871 536.353 429.322 535.949 428.616C535.557 427.898 535.361 427.063 535.361 426.11C535.361 425.157 535.563 424.328 535.966 423.622C536.37 422.904 536.919 422.355 537.614 421.974C538.309 421.581 539.088 421.385 539.951 421.385C540.815 421.385 541.594 421.581 542.289 421.974C542.995 422.355 543.544 422.904 543.937 423.622C544.34 424.328 544.542 425.157 544.542 426.11C544.542 427.052 544.34 427.882 543.937 428.599C543.533 429.316 542.978 429.871 542.272 430.264C541.566 430.645 540.781 430.835 539.918 430.835ZM539.918 429.81C540.523 429.81 541.084 429.675 541.599 429.406C542.115 429.126 542.53 428.711 542.844 428.162C543.169 427.601 543.331 426.917 543.331 426.11C543.331 425.303 543.174 424.625 542.86 424.076C542.547 423.515 542.132 423.1 541.616 422.831C541.1 422.551 540.54 422.411 539.935 422.411C539.329 422.411 538.769 422.551 538.253 422.831C537.737 423.1 537.323 423.515 537.009 424.076C536.706 424.625 536.555 425.303 536.555 426.11C536.555 426.917 536.706 427.601 537.009 428.162C537.323 428.711 537.732 429.126 538.236 429.406C538.752 429.675 539.312 429.81 539.918 429.81ZM550.992 421.352C552.091 421.352 552.988 421.694 553.683 422.377C554.378 423.05 554.725 424.031 554.725 425.32V430.701H553.565V425.455C553.565 424.457 553.313 423.695 552.808 423.168C552.315 422.641 551.637 422.377 550.774 422.377C549.888 422.377 549.182 422.658 548.655 423.218C548.128 423.779 547.865 424.603 547.865 425.69V430.701H546.688V421.52H547.865V423.084C548.156 422.523 548.577 422.097 549.126 421.806C549.675 421.503 550.297 421.352 550.992 421.352ZM561.405 426.11C561.405 425.157 561.595 424.328 561.977 423.622C562.358 422.904 562.885 422.355 563.557 421.974C564.23 421.581 564.998 421.385 565.861 421.385C566.993 421.385 567.924 421.665 568.652 422.226C569.392 422.787 569.869 423.549 570.082 424.513H568.82C568.663 423.851 568.322 423.336 567.795 422.966C567.279 422.585 566.634 422.394 565.861 422.394C565.244 422.394 564.689 422.534 564.196 422.815C563.703 423.095 563.311 423.515 563.019 424.076C562.739 424.625 562.599 425.303 562.599 426.11C562.599 426.917 562.739 427.601 563.019 428.162C563.311 428.722 563.703 429.143 564.196 429.423C564.689 429.703 565.244 429.843 565.861 429.843C566.634 429.843 567.279 429.658 567.795 429.288C568.322 428.907 568.663 428.38 568.82 427.708H570.082C569.869 428.649 569.392 429.406 568.652 429.978C567.912 430.55 566.982 430.835 565.861 430.835C564.998 430.835 564.23 430.645 563.557 430.264C562.885 429.871 562.358 429.322 561.977 428.616C561.595 427.898 561.405 427.063 561.405 426.11ZM576.274 430.835C575.411 430.835 574.632 430.645 573.937 430.264C573.253 429.871 572.709 429.322 572.306 428.616C571.914 427.898 571.717 427.063 571.717 426.11C571.717 425.157 571.919 424.328 572.323 423.622C572.726 422.904 573.276 422.355 573.971 421.974C574.666 421.581 575.445 421.385 576.308 421.385C577.171 421.385 577.95 421.581 578.645 421.974C579.352 422.355 579.901 422.904 580.293 423.622C580.697 424.328 580.899 425.157 580.899 426.11C580.899 427.052 580.697 427.882 580.293 428.599C579.89 429.316 579.335 429.871 578.628 430.264C577.922 430.645 577.137 430.835 576.274 430.835ZM576.274 429.81C576.88 429.81 577.44 429.675 577.956 429.406C578.472 429.126 578.886 428.711 579.2 428.162C579.525 427.601 579.688 426.917 579.688 426.11C579.688 425.303 579.531 424.625 579.217 424.076C578.903 423.515 578.488 423.1 577.973 422.831C577.457 422.551 576.896 422.411 576.291 422.411C575.686 422.411 575.125 422.551 574.61 422.831C574.094 423.1 573.679 423.515 573.365 424.076C573.063 424.625 572.911 425.303 572.911 426.11C572.911 426.917 573.063 427.601 573.365 428.162C573.679 428.711 574.088 429.126 574.593 429.406C575.108 429.675 575.669 429.81 576.274 429.81ZM584.221 423.151C584.479 422.579 584.871 422.136 585.398 421.822C585.936 421.509 586.592 421.352 587.366 421.352V422.579H587.046C586.194 422.579 585.51 422.809 584.995 423.269C584.479 423.728 584.221 424.496 584.221 425.572V430.701H583.044V421.52H584.221V423.151ZM590.314 423.151C590.571 422.579 590.964 422.136 591.491 421.822C592.029 421.509 592.684 421.352 593.458 421.352V422.579H593.139C592.287 422.579 591.603 422.809 591.087 423.269C590.571 423.728 590.314 424.496 590.314 425.572V430.701H589.136V421.52H590.314V423.151ZM603.535 425.64C603.535 426.043 603.524 426.351 603.502 426.564H595.885C595.918 427.259 596.086 427.854 596.389 428.347C596.692 428.84 597.09 429.216 597.583 429.473C598.076 429.72 598.614 429.843 599.197 429.843C599.959 429.843 600.598 429.658 601.114 429.288C601.641 428.919 601.988 428.42 602.157 427.792H603.401C603.177 428.689 602.695 429.423 601.955 429.995C601.226 430.555 600.307 430.835 599.197 430.835C598.334 430.835 597.56 430.645 596.877 430.264C596.193 429.871 595.655 429.322 595.262 428.616C594.881 427.898 594.691 427.063 594.691 426.11C594.691 425.157 594.881 424.322 595.262 423.605C595.644 422.887 596.176 422.338 596.86 421.957C597.544 421.576 598.323 421.385 599.197 421.385C600.072 421.385 600.834 421.576 601.484 421.957C602.145 422.338 602.65 422.854 602.997 423.504C603.356 424.143 603.535 424.855 603.535 425.64ZM602.342 425.606C602.353 424.922 602.213 424.339 601.921 423.857C601.641 423.375 601.254 423.011 600.761 422.764C600.268 422.517 599.73 422.394 599.147 422.394C598.272 422.394 597.527 422.674 596.91 423.235C596.294 423.795 595.952 424.586 595.885 425.606H602.342ZM608.85 430.835C607.797 430.835 606.933 430.594 606.261 430.112C605.599 429.619 605.229 428.952 605.151 428.111H606.362C606.418 428.627 606.659 429.047 607.085 429.373C607.522 429.686 608.105 429.843 608.834 429.843C609.472 429.843 609.971 429.692 610.33 429.389C610.7 429.087 610.885 428.711 610.885 428.263C610.885 427.949 610.784 427.691 610.582 427.489C610.381 427.287 610.123 427.13 609.809 427.018C609.506 426.895 609.091 426.766 608.564 426.632C607.881 426.452 607.326 426.273 606.9 426.094C606.474 425.914 606.109 425.651 605.807 425.303C605.515 424.944 605.37 424.468 605.37 423.874C605.37 423.425 605.504 423.011 605.773 422.63C606.042 422.248 606.423 421.946 606.917 421.722C607.41 421.497 607.97 421.385 608.598 421.385C609.585 421.385 610.381 421.637 610.986 422.142C611.591 422.635 611.916 423.319 611.961 424.193H610.784C610.75 423.655 610.537 423.224 610.145 422.899C609.764 422.562 609.237 422.394 608.564 422.394C607.97 422.394 607.488 422.534 607.118 422.815C606.748 423.095 606.563 423.442 606.563 423.857C606.563 424.216 606.67 424.513 606.883 424.748C607.107 424.973 607.382 425.152 607.707 425.286C608.032 425.41 608.469 425.55 609.018 425.707C609.68 425.886 610.207 426.06 610.599 426.228C610.991 426.396 611.328 426.643 611.608 426.968C611.888 427.293 612.034 427.725 612.045 428.263C612.045 428.756 611.911 429.199 611.642 429.591C611.373 429.972 610.997 430.275 610.515 430.499C610.033 430.723 609.478 430.835 608.85 430.835ZM615.421 423.538C615.713 422.921 616.172 422.411 616.8 422.007C617.439 421.593 618.196 421.385 619.07 421.385C619.9 421.385 620.645 421.581 621.307 421.974C621.979 422.355 622.5 422.904 622.87 423.622C623.252 424.328 623.442 425.152 623.442 426.094C623.442 427.035 623.252 427.865 622.87 428.582C622.5 429.3 621.979 429.855 621.307 430.247C620.645 430.639 619.9 430.835 619.07 430.835C618.207 430.835 617.456 430.634 616.817 430.23C616.178 429.815 615.713 429.3 615.421 428.683V435.039H614.261V421.52H615.421V423.538ZM622.248 426.094C622.248 425.331 622.097 424.675 621.794 424.126C621.503 423.566 621.099 423.14 620.583 422.848C620.068 422.557 619.485 422.411 618.835 422.411C618.207 422.411 617.63 422.562 617.103 422.865C616.587 423.168 616.178 423.599 615.875 424.16C615.573 424.72 615.421 425.37 615.421 426.11C615.421 426.85 615.573 427.5 615.875 428.061C616.178 428.621 616.587 429.053 617.103 429.356C617.63 429.658 618.207 429.81 618.835 429.81C619.485 429.81 620.068 429.664 620.583 429.373C621.099 429.07 621.503 428.638 621.794 428.078C622.097 427.506 622.248 426.845 622.248 426.094ZM629.627 430.835C628.764 430.835 627.985 430.645 627.29 430.264C626.606 429.871 626.062 429.322 625.658 428.616C625.266 427.898 625.07 427.063 625.07 426.11C625.07 425.157 625.272 424.328 625.675 423.622C626.079 422.904 626.628 422.355 627.323 421.974C628.018 421.581 628.797 421.385 629.66 421.385C630.524 421.385 631.303 421.581 631.998 421.974C632.704 422.355 633.253 422.904 633.646 423.622C634.049 424.328 634.251 425.157 634.251 426.11C634.251 427.052 634.049 427.882 633.646 428.599C633.242 429.316 632.687 429.871 631.981 430.264C631.275 430.645 630.49 430.835 629.627 430.835ZM629.627 429.81C630.232 429.81 630.793 429.675 631.308 429.406C631.824 429.126 632.239 428.711 632.553 428.162C632.878 427.601 633.04 426.917 633.04 426.11C633.04 425.303 632.883 424.625 632.57 424.076C632.256 423.515 631.841 423.1 631.325 422.831C630.81 422.551 630.249 422.411 629.644 422.411C629.038 422.411 628.478 422.551 627.962 422.831C627.446 423.1 627.032 423.515 626.718 424.076C626.415 424.625 626.264 425.303 626.264 426.11C626.264 426.917 626.415 427.601 626.718 428.162C627.032 428.711 627.441 429.126 627.945 429.406C628.461 429.675 629.021 429.81 629.627 429.81ZM640.701 421.352C641.8 421.352 642.697 421.694 643.392 422.377C644.087 423.05 644.434 424.031 644.434 425.32V430.701H643.274V425.455C643.274 424.457 643.022 423.695 642.517 423.168C642.024 422.641 641.346 422.377 640.483 422.377C639.597 422.377 638.891 422.658 638.364 423.218C637.837 423.779 637.574 424.603 637.574 425.69V430.701H636.397V421.52H637.574V423.084C637.865 422.523 638.286 422.097 638.835 421.806C639.384 421.503 640.006 421.352 640.701 421.352ZM646.5 426.094C646.5 425.152 646.69 424.328 647.071 423.622C647.452 422.904 647.974 422.355 648.635 421.974C649.308 421.581 650.064 421.385 650.905 421.385C651.712 421.385 652.441 421.581 653.091 421.974C653.741 422.366 654.218 422.876 654.52 423.504V418.258H655.698V430.701H654.52V428.649C654.24 429.288 653.781 429.815 653.142 430.23C652.503 430.634 651.752 430.835 650.888 430.835C650.048 430.835 649.291 430.639 648.618 430.247C647.957 429.855 647.436 429.3 647.054 428.582C646.685 427.865 646.5 427.035 646.5 426.094ZM654.52 426.11C654.52 425.37 654.369 424.72 654.066 424.16C653.764 423.599 653.349 423.168 652.822 422.865C652.306 422.562 651.735 422.411 651.107 422.411C650.457 422.411 649.874 422.557 649.358 422.848C648.842 423.14 648.433 423.566 648.131 424.126C647.839 424.675 647.693 425.331 647.693 426.094C647.693 426.845 647.839 427.506 648.131 428.078C648.433 428.638 648.842 429.07 649.358 429.373C649.874 429.664 650.457 429.81 651.107 429.81C651.735 429.81 652.306 429.658 652.822 429.356C653.349 429.053 653.764 428.621 654.066 428.061C654.369 427.5 654.52 426.85 654.52 426.11ZM658.973 419.788C658.738 419.788 658.536 419.704 658.368 419.536C658.2 419.367 658.116 419.16 658.116 418.913C658.116 418.667 658.2 418.465 658.368 418.308C658.536 418.14 658.738 418.056 658.973 418.056C659.209 418.056 659.41 418.14 659.579 418.308C659.747 418.465 659.831 418.667 659.831 418.913C659.831 419.16 659.747 419.367 659.579 419.536C659.41 419.704 659.209 419.788 658.973 419.788ZM659.562 421.52V430.701H658.385V421.52H659.562ZM666.532 421.352C667.631 421.352 668.527 421.694 669.222 422.377C669.917 423.05 670.265 424.031 670.265 425.32V430.701H669.105V425.455C669.105 424.457 668.853 423.695 668.348 423.168C667.855 422.641 667.177 422.377 666.313 422.377C665.428 422.377 664.722 422.658 664.195 423.218C663.668 423.779 663.404 424.603 663.404 425.69V430.701H662.227V421.52H663.404V423.084C663.696 422.523 664.116 422.097 664.666 421.806C665.215 421.503 665.837 421.352 666.532 421.352ZM676.719 421.385C677.582 421.385 678.333 421.587 678.972 421.991C679.611 422.394 680.071 422.904 680.351 423.521V421.52H681.528V430.936C681.528 431.777 681.343 432.523 680.973 433.173C680.614 433.823 680.11 434.322 679.46 434.669C678.81 435.028 678.07 435.207 677.24 435.207C676.063 435.207 675.082 434.927 674.298 434.367C673.524 433.806 673.042 433.044 672.851 432.08H674.012C674.213 432.719 674.595 433.229 675.155 433.61C675.727 433.991 676.422 434.182 677.24 434.182C677.834 434.182 678.367 434.053 678.838 433.795C679.309 433.548 679.678 433.178 679.947 432.685C680.217 432.192 680.351 431.609 680.351 430.936V428.666C680.06 429.294 679.594 429.815 678.955 430.23C678.328 430.634 677.582 430.835 676.719 430.835C675.878 430.835 675.121 430.639 674.449 430.247C673.787 429.855 673.266 429.3 672.885 428.582C672.515 427.865 672.33 427.035 672.33 426.094C672.33 425.152 672.515 424.328 672.885 423.622C673.266 422.904 673.787 422.355 674.449 421.974C675.121 421.581 675.878 421.385 676.719 421.385ZM680.351 426.11C680.351 425.37 680.2 424.72 679.897 424.16C679.594 423.599 679.18 423.168 678.653 422.865C678.137 422.562 677.565 422.411 676.938 422.411C676.287 422.411 675.704 422.557 675.189 422.848C674.673 423.14 674.264 423.566 673.961 424.126C673.67 424.675 673.524 425.331 673.524 426.094C673.524 426.845 673.67 427.506 673.961 428.078C674.264 428.638 674.673 429.07 675.189 429.373C675.704 429.664 676.287 429.81 676.938 429.81C677.565 429.81 678.137 429.658 678.653 429.356C679.18 429.053 679.594 428.621 679.897 428.061C680.2 427.5 680.351 426.85 680.351 426.11ZM462.22 448.512V454.212C462.22 454.773 462.326 455.16 462.539 455.373C462.752 455.586 463.128 455.692 463.666 455.692H464.742V456.701H463.481C462.651 456.701 462.035 456.51 461.631 456.129C461.228 455.737 461.026 455.098 461.026 454.212V448.512H459.748V447.52H461.026V445.216H462.22V447.52H464.742V448.512H462.22ZM470.702 456.835C469.839 456.835 469.06 456.645 468.365 456.264C467.681 455.871 467.137 455.322 466.734 454.616C466.342 453.898 466.145 453.063 466.145 452.11C466.145 451.157 466.347 450.328 466.751 449.622C467.154 448.904 467.704 448.355 468.399 447.974C469.094 447.581 469.873 447.385 470.736 447.385C471.599 447.385 472.378 447.581 473.073 447.974C473.78 448.355 474.329 448.904 474.721 449.622C475.125 450.328 475.327 451.157 475.327 452.11C475.327 453.052 475.125 453.882 474.721 454.599C474.318 455.316 473.763 455.871 473.056 456.264C472.35 456.645 471.566 456.835 470.702 456.835ZM470.702 455.81C471.308 455.81 471.868 455.675 472.384 455.406C472.9 455.126 473.314 454.711 473.628 454.162C473.953 453.601 474.116 452.917 474.116 452.11C474.116 451.303 473.959 450.625 473.645 450.076C473.331 449.515 472.916 449.1 472.401 448.831C471.885 448.551 471.324 448.411 470.719 448.411C470.114 448.411 469.553 448.551 469.038 448.831C468.522 449.1 468.107 449.515 467.793 450.076C467.491 450.625 467.339 451.303 467.339 452.11C467.339 452.917 467.491 453.601 467.793 454.162C468.107 454.711 468.516 455.126 469.021 455.406C469.536 455.675 470.097 455.81 470.702 455.81ZM483.617 448.512V454.212C483.617 454.773 483.723 455.16 483.936 455.373C484.149 455.586 484.525 455.692 485.063 455.692H486.139V456.701H484.878C484.048 456.701 483.432 456.51 483.028 456.129C482.625 455.737 482.423 455.098 482.423 454.212V448.512H481.145V447.52H482.423V445.216H483.617V447.52H486.139V448.512H483.617ZM492.452 447.352C493.147 447.352 493.769 447.497 494.319 447.789C494.879 448.08 495.316 448.529 495.63 449.134C495.955 449.728 496.118 450.457 496.118 451.32V456.701H494.958V451.455C494.958 450.457 494.706 449.695 494.201 449.168C493.708 448.641 493.03 448.377 492.166 448.377C491.281 448.377 490.575 448.658 490.048 449.218C489.521 449.779 489.257 450.603 489.257 451.69V456.701H488.08V444.258H489.257V449.084C489.549 448.534 489.975 448.108 490.535 447.806C491.107 447.503 491.746 447.352 492.452 447.352ZM507.028 451.64C507.028 452.043 507.017 452.351 506.994 452.564H499.377C499.411 453.259 499.579 453.854 499.882 454.347C500.184 454.84 500.582 455.216 501.075 455.473C501.569 455.72 502.107 455.843 502.69 455.843C503.452 455.843 504.091 455.658 504.607 455.288C505.133 454.919 505.481 454.42 505.649 453.792H506.893C506.669 454.689 506.187 455.423 505.447 455.995C504.719 456.555 503.799 456.835 502.69 456.835C501.826 456.835 501.053 456.645 500.369 456.264C499.685 455.871 499.147 455.322 498.755 454.616C498.374 453.898 498.183 453.063 498.183 452.11C498.183 451.157 498.374 450.322 498.755 449.605C499.136 448.887 499.669 448.338 500.352 447.957C501.036 447.576 501.815 447.385 502.69 447.385C503.564 447.385 504.326 447.576 504.977 447.957C505.638 448.338 506.142 448.854 506.49 449.504C506.849 450.143 507.028 450.855 507.028 451.64ZM505.834 451.606C505.845 450.922 505.705 450.339 505.414 449.857C505.133 449.375 504.747 449.011 504.253 448.764C503.76 448.517 503.222 448.394 502.639 448.394C501.765 448.394 501.019 448.674 500.403 449.235C499.786 449.795 499.444 450.586 499.377 451.606H505.834ZM514.956 449.538C515.248 448.921 515.707 448.411 516.335 448.007C516.974 447.593 517.731 447.385 518.605 447.385C519.435 447.385 520.18 447.581 520.842 447.974C521.514 448.355 522.035 448.904 522.405 449.622C522.787 450.328 522.977 451.152 522.977 452.094C522.977 453.035 522.787 453.865 522.405 454.582C522.035 455.3 521.514 455.855 520.842 456.247C520.18 456.639 519.435 456.835 518.605 456.835C517.742 456.835 516.991 456.634 516.352 456.23C515.713 455.815 515.248 455.3 514.956 454.683V461.039H513.796V447.52H514.956V449.538ZM521.783 452.094C521.783 451.331 521.632 450.675 521.329 450.126C521.038 449.566 520.634 449.14 520.118 448.848C519.603 448.557 519.02 448.411 518.37 448.411C517.742 448.411 517.165 448.562 516.638 448.865C516.122 449.168 515.713 449.599 515.41 450.16C515.108 450.72 514.956 451.37 514.956 452.11C514.956 452.85 515.108 453.5 515.41 454.061C515.713 454.621 516.122 455.053 516.638 455.356C517.165 455.658 517.742 455.81 518.37 455.81C519.02 455.81 519.603 455.664 520.118 455.373C520.634 455.07 521.038 454.638 521.329 454.078C521.632 453.506 521.783 452.845 521.783 452.094ZM533.45 451.64C533.45 452.043 533.439 452.351 533.416 452.564H525.799C525.832 453.259 526.001 453.854 526.303 454.347C526.606 454.84 527.004 455.216 527.497 455.473C527.99 455.72 528.528 455.843 529.111 455.843C529.874 455.843 530.513 455.658 531.028 455.288C531.555 454.919 531.903 454.42 532.071 453.792H533.315C533.091 454.689 532.609 455.423 531.869 455.995C531.14 456.555 530.221 456.835 529.111 456.835C528.248 456.835 527.475 456.645 526.791 456.264C526.107 455.871 525.569 455.322 525.177 454.616C524.795 453.898 524.605 453.063 524.605 452.11C524.605 451.157 524.795 450.322 525.177 449.605C525.558 448.887 526.09 448.338 526.774 447.957C527.458 447.576 528.237 447.385 529.111 447.385C529.986 447.385 530.748 447.576 531.398 447.957C532.06 448.338 532.564 448.854 532.912 449.504C533.27 450.143 533.45 450.855 533.45 451.64ZM532.256 451.606C532.267 450.922 532.127 450.339 531.835 449.857C531.555 449.375 531.168 449.011 530.675 448.764C530.182 448.517 529.644 448.394 529.061 448.394C528.187 448.394 527.441 448.674 526.825 449.235C526.208 449.795 525.866 450.586 525.799 451.606H532.256ZM536.78 449.151C537.038 448.579 537.431 448.136 537.957 447.822C538.496 447.509 539.151 447.352 539.925 447.352V448.579H539.605C538.753 448.579 538.07 448.809 537.554 449.269C537.038 449.728 536.78 450.496 536.78 451.572V456.701H535.603V447.52H536.78V449.151ZM542.284 445.788C542.049 445.788 541.847 445.704 541.679 445.536C541.511 445.367 541.427 445.16 541.427 444.913C541.427 444.667 541.511 444.465 541.679 444.308C541.847 444.14 542.049 444.056 542.284 444.056C542.52 444.056 542.721 444.14 542.889 444.308C543.058 444.465 543.142 444.667 543.142 444.913C543.142 445.16 543.058 445.367 542.889 445.536C542.721 445.704 542.52 445.788 542.284 445.788ZM542.873 447.52V456.701H541.696V447.52H542.873ZM549.557 456.835C548.694 456.835 547.915 456.645 547.22 456.264C546.536 455.871 545.992 455.322 545.589 454.616C545.196 453.898 545 453.063 545 452.11C545 451.157 545.202 450.328 545.605 449.622C546.009 448.904 546.558 448.355 547.253 447.974C547.948 447.581 548.727 447.385 549.591 447.385C550.454 447.385 551.233 447.581 551.928 447.974C552.634 448.355 553.183 448.904 553.576 449.622C553.979 450.328 554.181 451.157 554.181 452.11C554.181 453.052 553.979 453.882 553.576 454.599C553.172 455.316 552.617 455.871 551.911 456.264C551.205 456.645 550.42 456.835 549.557 456.835ZM549.557 455.81C550.162 455.81 550.723 455.675 551.239 455.406C551.754 455.126 552.169 454.711 552.483 454.162C552.808 453.601 552.971 452.917 552.971 452.11C552.971 451.303 552.814 450.625 552.5 450.076C552.186 449.515 551.771 449.1 551.255 448.831C550.74 448.551 550.179 448.411 549.574 448.411C548.968 448.411 548.408 448.551 547.892 448.831C547.377 449.1 546.962 449.515 546.648 450.076C546.345 450.625 546.194 451.303 546.194 452.11C546.194 452.917 546.345 453.601 546.648 454.162C546.962 454.711 547.371 455.126 547.875 455.406C548.391 455.675 548.952 455.81 549.557 455.81ZM555.789 452.094C555.789 451.152 555.979 450.328 556.361 449.622C556.742 448.904 557.263 448.355 557.924 447.974C558.597 447.581 559.354 447.385 560.194 447.385C561.002 447.385 561.73 447.581 562.38 447.974C563.031 448.366 563.507 448.876 563.81 449.504V444.258H564.987V456.701H563.81V454.649C563.529 455.288 563.07 455.815 562.431 456.23C561.792 456.634 561.041 456.835 560.178 456.835C559.337 456.835 558.58 456.639 557.908 456.247C557.246 455.855 556.725 455.3 556.344 454.582C555.974 453.865 555.789 453.035 555.789 452.094ZM563.81 452.11C563.81 451.37 563.658 450.72 563.356 450.16C563.053 449.599 562.638 449.168 562.111 448.865C561.596 448.562 561.024 448.411 560.396 448.411C559.746 448.411 559.163 448.557 558.647 448.848C558.132 449.14 557.723 449.566 557.42 450.126C557.128 450.675 556.983 451.331 556.983 452.094C556.983 452.845 557.128 453.506 557.42 454.078C557.723 454.638 558.132 455.07 558.647 455.373C559.163 455.664 559.746 455.81 560.396 455.81C561.024 455.81 561.596 455.658 562.111 455.356C562.638 455.053 563.053 454.621 563.356 454.061C563.658 453.5 563.81 452.85 563.81 452.11ZM581.15 456.701H579.973L573.465 446.814V456.701H572.288V444.947H573.465L579.973 454.818V444.947H581.15V456.701ZM587.835 456.835C586.972 456.835 586.193 456.645 585.498 456.264C584.814 455.871 584.27 455.322 583.866 454.616C583.474 453.898 583.278 453.063 583.278 452.11C583.278 451.157 583.48 450.328 583.883 449.622C584.287 448.904 584.836 448.355 585.531 447.974C586.226 447.581 587.005 447.385 587.868 447.385C588.732 447.385 589.511 447.581 590.206 447.974C590.912 448.355 591.461 448.904 591.854 449.622C592.257 450.328 592.459 451.157 592.459 452.11C592.459 453.052 592.257 453.882 591.854 454.599C591.45 455.316 590.895 455.871 590.189 456.264C589.483 456.645 588.698 456.835 587.835 456.835ZM587.835 455.81C588.44 455.81 589.001 455.675 589.516 455.406C590.032 455.126 590.447 454.711 590.761 454.162C591.086 453.601 591.248 452.917 591.248 452.11C591.248 451.303 591.091 450.625 590.778 450.076C590.464 449.515 590.049 449.1 589.533 448.831C589.018 448.551 588.457 448.411 587.852 448.411C587.246 448.411 586.686 448.551 586.17 448.831C585.654 449.1 585.24 449.515 584.926 450.076C584.623 450.625 584.472 451.303 584.472 452.11C584.472 452.917 584.623 453.601 584.926 454.162C585.24 454.711 585.649 455.126 586.153 455.406C586.669 455.675 587.229 455.81 587.835 455.81ZM597.867 455.557L600.961 447.52H602.205L598.523 456.701H597.194L593.512 447.52H594.773L597.867 455.557ZM612.107 451.64C612.107 452.043 612.096 452.351 612.074 452.564H604.456C604.49 453.259 604.658 453.854 604.961 454.347C605.264 454.84 605.662 455.216 606.155 455.473C606.648 455.72 607.186 455.843 607.769 455.843C608.531 455.843 609.17 455.658 609.686 455.288C610.213 454.919 610.56 454.42 610.729 453.792H611.973C611.749 454.689 611.267 455.423 610.527 455.995C609.798 456.555 608.879 456.835 607.769 456.835C606.906 456.835 606.132 456.645 605.449 456.264C604.765 455.871 604.227 455.322 603.834 454.616C603.453 453.898 603.263 453.063 603.263 452.11C603.263 451.157 603.453 450.322 603.834 449.605C604.215 448.887 604.748 448.338 605.432 447.957C606.116 447.576 606.895 447.385 607.769 447.385C608.643 447.385 609.406 447.576 610.056 447.957C610.717 448.338 611.222 448.854 611.569 449.504C611.928 450.143 612.107 450.855 612.107 451.64ZM610.913 451.606C610.925 450.922 610.785 450.339 610.493 449.857C610.213 449.375 609.826 449.011 609.333 448.764C608.84 448.517 608.302 448.394 607.719 448.394C606.844 448.394 606.099 448.674 605.482 449.235C604.866 449.795 604.524 450.586 604.456 451.606H610.913ZM625.191 447.352C626.267 447.352 627.141 447.694 627.814 448.377C628.498 449.05 628.84 450.031 628.84 451.32V456.701H627.68V451.455C627.68 450.457 627.439 449.695 626.956 449.168C626.474 448.641 625.819 448.377 624.989 448.377C624.126 448.377 623.436 448.663 622.921 449.235C622.405 449.807 622.147 450.636 622.147 451.724V456.701H620.987V451.455C620.987 450.457 620.746 449.695 620.264 449.168C619.782 448.641 619.121 448.377 618.28 448.377C617.417 448.377 616.727 448.663 616.211 449.235C615.696 449.807 615.438 450.636 615.438 451.724V456.701H614.261V447.52H615.438V449.1C615.729 448.529 616.144 448.097 616.682 447.806C617.22 447.503 617.82 447.352 618.482 447.352C619.277 447.352 619.973 447.542 620.567 447.923C621.172 448.304 621.609 448.865 621.878 449.605C622.125 448.876 622.545 448.321 623.139 447.94C623.745 447.548 624.429 447.352 625.191 447.352ZM632.614 449.554C632.917 448.915 633.382 448.394 634.01 447.991C634.649 447.587 635.4 447.385 636.263 447.385C637.104 447.385 637.855 447.581 638.516 447.974C639.178 448.355 639.693 448.904 640.063 449.622C640.445 450.328 640.635 451.152 640.635 452.094C640.635 453.035 640.445 453.865 640.063 454.582C639.693 455.3 639.172 455.855 638.5 456.247C637.838 456.639 637.093 456.835 636.263 456.835C635.389 456.835 634.632 456.639 633.993 456.247C633.365 455.843 632.906 455.322 632.614 454.683V456.701H631.454V444.258H632.614V449.554ZM639.441 452.094C639.441 451.331 639.29 450.675 638.987 450.126C638.696 449.566 638.292 449.14 637.776 448.848C637.261 448.557 636.678 448.411 636.028 448.411C635.4 448.411 634.823 448.562 634.296 448.865C633.78 449.168 633.371 449.599 633.068 450.16C632.766 450.72 632.614 451.37 632.614 452.11C632.614 452.85 632.766 453.5 633.068 454.061C633.371 454.621 633.78 455.053 634.296 455.356C634.823 455.658 635.4 455.81 636.028 455.81C636.678 455.81 637.261 455.664 637.776 455.373C638.292 455.07 638.696 454.638 638.987 454.078C639.29 453.506 639.441 452.845 639.441 452.094ZM651.108 451.64C651.108 452.043 651.097 452.351 651.074 452.564H643.457C643.49 453.259 643.659 453.854 643.961 454.347C644.264 454.84 644.662 455.216 645.155 455.473C645.648 455.72 646.186 455.843 646.769 455.843C647.532 455.843 648.171 455.658 648.686 455.288C649.213 454.919 649.561 454.42 649.729 453.792H650.973C650.749 454.689 650.267 455.423 649.527 455.995C648.798 456.555 647.879 456.835 646.769 456.835C645.906 456.835 645.133 456.645 644.449 456.264C643.765 455.871 643.227 455.322 642.835 454.616C642.453 453.898 642.263 453.063 642.263 452.11C642.263 451.157 642.453 450.322 642.835 449.605C643.216 448.887 643.748 448.338 644.432 447.957C645.116 447.576 645.895 447.385 646.769 447.385C647.644 447.385 648.406 447.576 649.056 447.957C649.718 448.338 650.222 448.854 650.57 449.504C650.928 450.143 651.108 450.855 651.108 451.64ZM649.914 451.606C649.925 450.922 649.785 450.339 649.493 449.857C649.213 449.375 648.826 449.011 648.333 448.764C647.84 448.517 647.302 448.394 646.719 448.394C645.845 448.394 645.099 448.674 644.483 449.235C643.866 449.795 643.524 450.586 643.457 451.606H649.914ZM654.438 449.151C654.696 448.579 655.089 448.136 655.615 447.822C656.154 447.509 656.809 447.352 657.583 447.352V448.579H657.263C656.411 448.579 655.728 448.809 655.212 449.269C654.696 449.728 654.438 450.496 654.438 451.572V456.701H653.261V447.52H654.438V449.151ZM663.48 455.776C665.543 454.229 667.135 452.845 668.256 451.623C669.388 450.39 669.954 449.184 669.954 448.007C669.954 447.234 669.758 446.617 669.366 446.158C668.985 445.687 668.357 445.451 667.482 445.451C666.63 445.451 665.969 445.721 665.498 446.259C665.039 446.785 664.781 447.492 664.725 448.377H663.581C663.648 447.133 664.03 446.169 664.725 445.485C665.431 444.79 666.35 444.443 667.482 444.443C668.57 444.443 669.45 444.751 670.122 445.367C670.795 445.973 671.131 446.836 671.131 447.957C671.131 449.313 670.565 450.631 669.433 451.909C668.312 453.175 666.927 454.414 665.28 455.625H671.501V456.617H663.48V455.776ZM673.339 450.563C673.339 448.635 673.636 447.139 674.23 446.074C674.824 445.009 675.889 444.476 677.425 444.476C678.96 444.476 680.025 445.009 680.62 446.074C681.214 447.139 681.511 448.635 681.511 450.563C681.511 452.525 681.214 454.044 680.62 455.12C680.025 456.196 678.96 456.735 677.425 456.735C675.878 456.735 674.807 456.196 674.213 455.12C673.63 454.044 673.339 452.525 673.339 450.563ZM680.351 450.563C680.351 449.521 680.278 448.641 680.132 447.923C679.986 447.206 679.7 446.629 679.274 446.191C678.848 445.754 678.232 445.536 677.425 445.536C676.618 445.536 676.001 445.754 675.575 446.191C675.149 446.629 674.863 447.206 674.717 447.923C674.572 448.641 674.499 449.521 674.499 450.563C674.499 451.64 674.572 452.542 674.717 453.271C674.863 453.988 675.149 454.565 675.575 455.003C676.001 455.44 676.618 455.658 677.425 455.658C678.232 455.658 678.848 455.44 679.274 455.003C679.7 454.565 679.986 453.988 680.132 453.271C680.278 452.542 680.351 451.64 680.351 450.563ZM683.465 455.776C685.528 454.229 687.119 452.845 688.24 451.623C689.373 450.39 689.939 449.184 689.939 448.007C689.939 447.234 689.743 446.617 689.35 446.158C688.969 445.687 688.341 445.451 687.467 445.451C686.615 445.451 685.954 445.721 685.483 446.259C685.023 446.785 684.765 447.492 684.709 448.377H683.566C683.633 447.133 684.014 446.169 684.709 445.485C685.415 444.79 686.335 444.443 687.467 444.443C688.554 444.443 689.434 444.751 690.107 445.367C690.78 445.973 691.116 446.836 691.116 447.957C691.116 449.313 690.55 450.631 689.418 451.909C688.297 453.175 686.912 454.414 685.264 455.625H691.486V456.617H683.465V455.776ZM692.751 445.704V444.644H695.61V456.701H694.416V445.704H692.751ZM462.22 473.512V479.212C462.22 479.773 462.326 480.16 462.539 480.373C462.752 480.586 463.128 480.692 463.666 480.692H464.742V481.701H463.481C462.651 481.701 462.035 481.51 461.631 481.129C461.228 480.737 461.026 480.098 461.026 479.212V473.512H459.748V472.52H461.026V470.216H462.22V472.52H464.742V473.512H462.22ZM470.702 481.835C469.839 481.835 469.06 481.645 468.365 481.264C467.681 480.871 467.137 480.322 466.734 479.616C466.342 478.898 466.145 478.063 466.145 477.11C466.145 476.157 466.347 475.328 466.751 474.622C467.154 473.904 467.704 473.355 468.399 472.974C469.094 472.581 469.873 472.385 470.736 472.385C471.599 472.385 472.378 472.581 473.073 472.974C473.78 473.355 474.329 473.904 474.721 474.622C475.125 475.328 475.327 476.157 475.327 477.11C475.327 478.052 475.125 478.882 474.721 479.599C474.318 480.316 473.763 480.871 473.056 481.264C472.35 481.645 471.566 481.835 470.702 481.835ZM470.702 480.81C471.308 480.81 471.868 480.675 472.384 480.406C472.9 480.126 473.314 479.711 473.628 479.162C473.953 478.601 474.116 477.917 474.116 477.11C474.116 476.303 473.959 475.625 473.645 475.076C473.331 474.515 472.916 474.1 472.401 473.831C471.885 473.551 471.324 473.411 470.719 473.411C470.114 473.411 469.553 473.551 469.038 473.831C468.522 474.1 468.107 474.515 467.793 475.076C467.491 475.625 467.339 476.303 467.339 477.11C467.339 477.917 467.491 478.601 467.793 479.162C468.107 479.711 468.516 480.126 469.021 480.406C469.536 480.675 470.097 480.81 470.702 480.81ZM490.948 481.701H489.771L483.264 471.814V481.701H482.087V469.947H483.264L489.771 479.818V469.947H490.948V481.701ZM497.633 481.835C496.77 481.835 495.991 481.645 495.296 481.264C494.612 480.871 494.068 480.322 493.665 479.616C493.272 478.898 493.076 478.063 493.076 477.11C493.076 476.157 493.278 475.328 493.682 474.622C494.085 473.904 494.634 473.355 495.329 472.974C496.024 472.581 496.804 472.385 497.667 472.385C498.53 472.385 499.309 472.581 500.004 472.974C500.71 473.355 501.26 473.904 501.652 474.622C502.056 475.328 502.257 476.157 502.257 477.11C502.257 478.052 502.056 478.882 501.652 479.599C501.248 480.316 500.693 480.871 499.987 481.264C499.281 481.645 498.496 481.835 497.633 481.835ZM497.633 480.81C498.238 480.81 498.799 480.675 499.315 480.406C499.83 480.126 500.245 479.711 500.559 479.162C500.884 478.601 501.047 477.917 501.047 477.11C501.047 476.303 500.89 475.625 500.576 475.076C500.262 474.515 499.847 474.1 499.331 473.831C498.816 473.551 498.255 473.411 497.65 473.411C497.045 473.411 496.484 473.551 495.968 473.831C495.453 474.1 495.038 474.515 494.724 475.076C494.421 475.625 494.27 476.303 494.27 477.11C494.27 477.917 494.421 478.601 494.724 479.162C495.038 479.711 495.447 480.126 495.952 480.406C496.467 480.675 497.028 480.81 497.633 480.81ZM507.665 480.557L510.759 472.52H512.004L508.321 481.701H506.993L503.31 472.52H504.571L507.665 480.557ZM521.906 476.64C521.906 477.043 521.894 477.351 521.872 477.564H514.255C514.288 478.259 514.456 478.854 514.759 479.347C515.062 479.84 515.46 480.216 515.953 480.473C516.446 480.72 516.984 480.843 517.567 480.843C518.33 480.843 518.969 480.658 519.484 480.288C520.011 479.919 520.359 479.42 520.527 478.792H521.771C521.547 479.689 521.065 480.423 520.325 480.995C519.596 481.555 518.677 481.835 517.567 481.835C516.704 481.835 515.931 481.645 515.247 481.264C514.563 480.871 514.025 480.322 513.632 479.616C513.251 478.898 513.061 478.063 513.061 477.11C513.061 476.157 513.251 475.322 513.632 474.605C514.014 473.887 514.546 473.338 515.23 472.957C515.914 472.576 516.693 472.385 517.567 472.385C518.442 472.385 519.204 472.576 519.854 472.957C520.516 473.338 521.02 473.854 521.368 474.504C521.726 475.143 521.906 475.855 521.906 476.64ZM520.712 476.606C520.723 475.922 520.583 475.339 520.291 474.857C520.011 474.375 519.624 474.011 519.131 473.764C518.638 473.517 518.1 473.394 517.517 473.394C516.642 473.394 515.897 473.674 515.28 474.235C514.664 474.795 514.322 475.586 514.255 476.606H520.712ZM534.989 472.352C536.065 472.352 536.94 472.694 537.612 473.377C538.296 474.05 538.638 475.031 538.638 476.32V481.701H537.478V476.455C537.478 475.457 537.237 474.695 536.755 474.168C536.273 473.641 535.617 473.377 534.787 473.377C533.924 473.377 533.235 473.663 532.719 474.235C532.203 474.807 531.946 475.636 531.946 476.724V481.701H530.785V476.455C530.785 475.457 530.544 474.695 530.062 474.168C529.58 473.641 528.919 473.377 528.078 473.377C527.215 473.377 526.525 473.663 526.01 474.235C525.494 474.807 525.236 475.636 525.236 476.724V481.701H524.059V472.52H525.236V474.1C525.528 473.529 525.942 473.097 526.481 472.806C527.019 472.503 527.618 472.352 528.28 472.352C529.076 472.352 529.771 472.542 530.365 472.923C530.97 473.304 531.407 473.865 531.677 474.605C531.923 473.876 532.344 473.321 532.938 472.94C533.543 472.548 534.227 472.352 534.989 472.352ZM542.412 474.554C542.715 473.915 543.18 473.394 543.808 472.991C544.447 472.587 545.198 472.385 546.061 472.385C546.902 472.385 547.653 472.581 548.315 472.974C548.976 473.355 549.492 473.904 549.862 474.622C550.243 475.328 550.433 476.152 550.433 477.094C550.433 478.035 550.243 478.865 549.862 479.582C549.492 480.3 548.97 480.855 548.298 481.247C547.636 481.639 546.891 481.835 546.061 481.835C545.187 481.835 544.43 481.639 543.791 481.247C543.164 480.843 542.704 480.322 542.412 479.683V481.701H541.252V469.258H542.412V474.554ZM549.239 477.094C549.239 476.331 549.088 475.675 548.785 475.126C548.494 474.566 548.09 474.14 547.575 473.848C547.059 473.557 546.476 473.411 545.826 473.411C545.198 473.411 544.621 473.562 544.094 473.865C543.578 474.168 543.169 474.599 542.866 475.16C542.564 475.72 542.412 476.37 542.412 477.11C542.412 477.85 542.564 478.5 542.866 479.061C543.169 479.621 543.578 480.053 544.094 480.356C544.621 480.658 545.198 480.81 545.826 480.81C546.476 480.81 547.059 480.664 547.575 480.373C548.09 480.07 548.494 479.638 548.785 479.078C549.088 478.506 549.239 477.845 549.239 477.094ZM560.906 476.64C560.906 477.043 560.895 477.351 560.872 477.564H553.255C553.289 478.259 553.457 478.854 553.76 479.347C554.062 479.84 554.46 480.216 554.953 480.473C555.447 480.72 555.985 480.843 556.568 480.843C557.33 480.843 557.969 480.658 558.485 480.288C559.011 479.919 559.359 479.42 559.527 478.792H560.772C560.547 479.689 560.065 480.423 559.325 480.995C558.597 481.555 557.677 481.835 556.568 481.835C555.704 481.835 554.931 481.645 554.247 481.264C553.563 480.871 553.025 480.322 552.633 479.616C552.252 478.898 552.061 478.063 552.061 477.11C552.061 476.157 552.252 475.322 552.633 474.605C553.014 473.887 553.547 473.338 554.23 472.957C554.914 472.576 555.693 472.385 556.568 472.385C557.442 472.385 558.204 472.576 558.855 472.957C559.516 473.338 560.02 473.854 560.368 474.504C560.727 475.143 560.906 475.855 560.906 476.64ZM559.712 476.606C559.723 475.922 559.583 475.339 559.292 474.857C559.011 474.375 558.625 474.011 558.131 473.764C557.638 473.517 557.1 473.394 556.517 473.394C555.643 473.394 554.897 473.674 554.281 474.235C553.664 474.795 553.322 475.586 553.255 476.606H559.712ZM564.237 474.151C564.494 473.579 564.887 473.136 565.414 472.822C565.952 472.509 566.608 472.352 567.381 472.352V473.579H567.062C566.21 473.579 565.526 473.809 565.01 474.269C564.494 474.728 564.237 475.496 564.237 476.572V481.701H563.06V472.52H564.237V474.151ZM573.279 480.776C575.341 479.229 576.933 477.845 578.054 476.623C579.186 475.39 579.752 474.184 579.752 473.007C579.752 472.234 579.556 471.617 579.164 471.158C578.783 470.687 578.155 470.451 577.281 470.451C576.429 470.451 575.767 470.721 575.296 471.259C574.837 471.785 574.579 472.492 574.523 473.377H573.379C573.447 472.133 573.828 471.169 574.523 470.485C575.229 469.79 576.148 469.443 577.281 469.443C578.368 469.443 579.248 469.751 579.921 470.367C580.593 470.973 580.93 471.836 580.93 472.957C580.93 474.313 580.363 475.631 579.231 476.909C578.11 478.175 576.726 479.414 575.078 480.625H581.299V481.617H573.279V480.776ZM583.137 475.563C583.137 473.635 583.434 472.139 584.028 471.074C584.622 470.009 585.687 469.476 587.223 469.476C588.759 469.476 589.824 470.009 590.418 471.074C591.012 472.139 591.309 473.635 591.309 475.563C591.309 477.525 591.012 479.044 590.418 480.12C589.824 481.196 588.759 481.735 587.223 481.735C585.676 481.735 584.605 481.196 584.011 480.12C583.428 479.044 583.137 477.525 583.137 475.563ZM590.149 475.563C590.149 474.521 590.076 473.641 589.93 472.923C589.784 472.206 589.499 471.629 589.073 471.191C588.647 470.754 588.03 470.536 587.223 470.536C586.416 470.536 585.799 470.754 585.373 471.191C584.947 471.629 584.661 472.206 584.516 472.923C584.37 473.641 584.297 474.521 584.297 475.563C584.297 476.64 584.37 477.542 584.516 478.271C584.661 478.988 584.947 479.565 585.373 480.003C585.799 480.44 586.416 480.658 587.223 480.658C588.03 480.658 588.647 480.44 589.073 480.003C589.499 479.565 589.784 478.988 589.93 478.271C590.076 477.542 590.149 476.64 590.149 475.563ZM593.263 480.776C595.326 479.229 596.918 477.845 598.039 476.623C599.171 475.39 599.737 474.184 599.737 473.007C599.737 472.234 599.541 471.617 599.149 471.158C598.767 470.687 598.14 470.451 597.265 470.451C596.413 470.451 595.752 470.721 595.281 471.259C594.821 471.785 594.564 472.492 594.508 473.377H593.364C593.431 472.133 593.812 471.169 594.508 470.485C595.214 469.79 596.133 469.443 597.265 469.443C598.353 469.443 599.233 469.751 599.905 470.367C600.578 470.973 600.914 471.836 600.914 472.957C600.914 474.313 600.348 475.631 599.216 476.909C598.095 478.175 596.71 479.414 595.062 480.625H601.284V481.617H593.263V480.776ZM602.886 480.776C604.949 479.229 606.541 477.845 607.662 476.623C608.794 475.39 609.36 474.184 609.36 473.007C609.36 472.234 609.164 471.617 608.771 471.158C608.39 470.687 607.762 470.451 606.888 470.451C606.036 470.451 605.375 470.721 604.904 471.259C604.444 471.785 604.186 472.492 604.13 473.377H602.987C603.054 472.133 603.435 471.169 604.13 470.485C604.837 469.79 605.756 469.443 606.888 469.443C607.975 469.443 608.855 469.751 609.528 470.367C610.201 470.973 610.537 471.836 610.537 472.957C610.537 474.313 609.971 475.631 608.839 476.909C607.718 478.175 606.333 479.414 604.685 480.625H610.907V481.617H602.886V480.776Z" fill="#264154"/>
<path opacity="0.75" d="M99.9252 142.573H105.654V146.774H99.9252V152.502H95.7243V146.774H90.0305V142.573H95.7243V136.879H99.9252V142.573Z" fill="#1269E8"/>
<path opacity="0.75" d="M103.344 202.398H90.325V198.093H103.344V202.398Z" fill="#EB1E20"/>
<defs>
<filter id="filter0_b_6780_10990" x="256.488" y="156.672" width="81.1972" height="240.508" filterUnits="userSpaceOnUse" color-interpolation-filters="sRGB">
<feFlood flood-opacity="0" result="BackgroundImageFix"/>
<feGaussianBlur in="BackgroundImageFix" stdDeviation="10.2781"/>
<feComposite in2="SourceAlpha" operator="in" result="effect1_backgroundBlur_6780_10990"/>
<feBlend mode="normal" in="SourceGraphic" in2="effect1_backgroundBlur_6780_10990" result="shape"/>
</filter>
<filter id="filter1_b_6780_10990" x="158.37" y="156.671" width="81.1972" height="182.951" filterUnits="userSpaceOnUse" color-interpolation-filters="sRGB">
<feFlood flood-opacity="0" result="BackgroundImageFix"/>
<feGaussianBlur in="BackgroundImageFix" stdDeviation="10.2781"/>
<feComposite in2="SourceAlpha" operator="in" result="effect1_backgroundBlur_6780_10990"/>
<feBlend mode="normal" in="SourceGraphic" in2="effect1_backgroundBlur_6780_10990" result="shape"/>
</filter>
<filter id="filter2_b_6780_10990" x="456.826" y="156.672" width="81.1972" height="95.5866" filterUnits="userSpaceOnUse" color-interpolation-filters="sRGB">
<feFlood flood-opacity="0" result="BackgroundImageFix"/>
<feGaussianBlur in="BackgroundImageFix" stdDeviation="10.2781"/>
<feComposite in2="SourceAlpha" operator="in" result="effect1_backgroundBlur_6780_10990"/>
<feBlend mode="normal" in="SourceGraphic" in2="effect1_backgroundBlur_6780_10990" result="shape"/>
</filter>
<filter id="filter3_b_6780_10990" x="358.712" y="156.671" width="81.1972" height="137.727" filterUnits="userSpaceOnUse" color-interpolation-filters="sRGB">
<feFlood flood-opacity="0" result="BackgroundImageFix"/>
<feGaussianBlur in="BackgroundImageFix" stdDeviation="10.2781"/>
<feComposite in2="SourceAlpha" operator="in" result="effect1_backgroundBlur_6780_10990"/>
<feBlend mode="normal" in="SourceGraphic" in2="effect1_backgroundBlur_6780_10990" result="shape"/>
</filter>
<filter id="filter4_d_6780_10990" x="542.165" y="21.8254" width="120.266" height="70.5204" filterUnits="userSpaceOnUse" color-interpolation-filters="sRGB">
<feFlood flood-opacity="0" result="BackgroundImageFix"/>
<feColorMatrix in="SourceAlpha" type="matrix" values="0 0 0 0 0 0 0 0 0 0 0 0 0 0 0 0 0 0 127 0" result="hardAlpha"/>
<feOffset/>
<feGaussianBlur stdDeviation="11.3059"/>
<feComposite in2="hardAlpha" operator="out"/>
<feColorMatrix type="matrix" values="0 0 0 0 0.137255 0 0 0 0 0.511216 0 0 0 0 0.721569 0 0 0 0.32 0"/>
<feBlend mode="normal" in2="BackgroundImageFix" result="effect1_dropShadow_6780_10990"/>
<feBlend mode="normal" in="SourceGraphic" in2="effect1_dropShadow_6780_10990" result="shape"/>
</filter>
<filter id="filter5_b_6780_10990" x="554.47" y="64.1683" width="95.5866" height="131.56" filterUnits="userSpaceOnUse" color-interpolation-filters="sRGB">
<feFlood flood-opacity="0" result="BackgroundImageFix"/>
<feGaussianBlur in="BackgroundImageFix" stdDeviation="10.2781"/>
<feComposite in2="SourceAlpha" operator="in" result="effect1_backgroundBlur_6780_10990"/>
<feBlend mode="normal" in="SourceGraphic" in2="effect1_backgroundBlur_6780_10990" result="shape"/>
</filter>
<linearGradient id="paint0_linear_6780_10990" x1="753.928" y1="177.229" x2="39.5997" y2="176.324" gradientUnits="userSpaceOnUse">
<stop stop-color="white" stop-opacity="0"/>
<stop offset="0.473681" stop-color="#FEFEFE"/>
<stop offset="1" stop-color="white" stop-opacity="0"/>
</linearGradient>
<linearGradient id="paint1_linear_6780_10990" x1="297.087" y1="177.228" x2="297.087" y2="376.624" gradientUnits="userSpaceOnUse">
<stop stop-color="#E9EEF2"/>
<stop offset="1" stop-color="#7F8D9A" stop-opacity="0"/>
</linearGradient>
<linearGradient id="paint2_linear_6780_10990" x1="198.968" y1="177.228" x2="198.968" y2="319.066" gradientUnits="userSpaceOnUse">
<stop stop-color="#E9EEF2"/>
<stop offset="1" stop-color="#7F8D9A" stop-opacity="0"/>
</linearGradient>
<linearGradient id="paint3_linear_6780_10990" x1="497.425" y1="177.228" x2="497.425" y2="231.702" gradientUnits="userSpaceOnUse">
<stop stop-color="#E9EEF2"/>
<stop offset="1" stop-color="#7F8D9A" stop-opacity="0"/>
</linearGradient>
<linearGradient id="paint4_linear_6780_10990" x1="399.311" y1="177.228" x2="399.311" y2="273.842" gradientUnits="userSpaceOnUse">
<stop stop-color="#E9EEF2"/>
<stop offset="1" stop-color="#7F8D9A" stop-opacity="0"/>
</linearGradient>
</defs>
</svg>
