<svg width="813" height="476" viewBox="0 0 813 476" fill="none" xmlns="http://www.w3.org/2000/svg">
<path opacity="0.65" d="M-1 175.462C-1 174.894 -0.53976 174.434 0.0279746 174.434H811.1C811.667 174.434 812.128 174.894 812.128 175.462C812.128 176.029 811.667 176.49 811.1 176.49H0.0279678C-0.539767 176.49 -1 176.029 -1 175.462Z" fill="url(#paint0_linear_6432_12228)"/>
<g filter="url(#filter0_d_6432_12228)">
<path d="M250.173 441.467V443.893H241.456V441.467H250.173ZM258.012 438.979C258.081 437.608 258.561 436.553 259.452 435.813C260.356 435.059 261.542 434.682 263.008 434.682C264.009 434.682 264.866 434.86 265.578 435.217C266.291 435.559 266.826 436.032 267.182 436.635C267.552 437.225 267.737 437.896 267.737 438.65C267.737 439.514 267.511 440.247 267.059 440.85C266.62 441.439 266.092 441.837 265.475 442.042V442.125C266.27 442.371 266.887 442.81 267.326 443.44C267.778 444.071 268.004 444.88 268.004 445.867C268.004 446.689 267.812 447.422 267.429 448.066C267.059 448.711 266.503 449.218 265.763 449.588C265.037 449.944 264.16 450.122 263.132 450.122C261.583 450.122 260.322 449.732 259.349 448.95C258.376 448.169 257.862 447.018 257.807 445.496H260.603C260.63 446.168 260.856 446.709 261.281 447.121C261.72 447.518 262.316 447.717 263.07 447.717C263.769 447.717 264.304 447.525 264.674 447.141C265.057 446.744 265.249 446.237 265.249 445.62C265.249 444.797 264.989 444.208 264.468 443.852C263.947 443.495 263.139 443.317 262.042 443.317H261.446V440.953H262.042C263.988 440.953 264.962 440.302 264.962 439C264.962 438.41 264.783 437.951 264.427 437.622C264.084 437.293 263.584 437.129 262.926 437.129C262.282 437.129 261.782 437.307 261.425 437.663C261.083 438.006 260.884 438.445 260.829 438.979H258.012ZM270.32 438.979C270.389 437.608 270.868 436.553 271.759 435.813C272.664 435.059 273.849 434.682 275.316 434.682C276.316 434.682 277.173 434.86 277.886 435.217C278.599 435.559 279.133 436.032 279.49 436.635C279.86 437.225 280.045 437.896 280.045 438.65C280.045 439.514 279.818 440.247 279.366 440.85C278.928 441.439 278.4 441.837 277.783 442.042V442.125C278.578 442.371 279.195 442.81 279.633 443.44C280.086 444.071 280.312 444.88 280.312 445.867C280.312 446.689 280.12 447.422 279.736 448.066C279.366 448.711 278.811 449.218 278.071 449.588C277.344 449.944 276.467 450.122 275.439 450.122C273.89 450.122 272.629 449.732 271.656 448.95C270.683 448.169 270.169 447.018 270.114 445.496H272.91C272.938 446.168 273.164 446.709 273.589 447.121C274.028 447.518 274.624 447.717 275.378 447.717C276.077 447.717 276.611 447.525 276.981 447.141C277.365 446.744 277.557 446.237 277.557 445.62C277.557 444.797 277.297 444.208 276.776 443.852C276.255 443.495 275.446 443.317 274.35 443.317H273.753V440.953H274.35C276.296 440.953 277.269 440.302 277.269 439C277.269 438.41 277.091 437.951 276.735 437.622C276.392 437.293 275.892 437.129 275.234 437.129C274.59 437.129 274.089 437.307 273.733 437.663C273.39 438.006 273.191 438.445 273.137 438.979H270.32ZM286.061 446.997L283.656 452.775H281.805L283.142 446.997H286.061ZM287.807 442.33C287.807 439.959 288.232 438.102 289.081 436.759C289.945 435.415 291.37 434.744 293.358 434.744C295.345 434.744 296.764 435.415 297.614 436.759C298.477 438.102 298.909 439.959 298.909 442.33C298.909 444.715 298.477 446.586 297.614 447.943C296.764 449.3 295.345 449.978 293.358 449.978C291.37 449.978 289.945 449.3 289.081 447.943C288.232 446.586 287.807 444.715 287.807 442.33ZM296.072 442.33C296.072 441.316 296.003 440.466 295.866 439.781C295.743 439.082 295.482 438.513 295.085 438.074C294.701 437.636 294.125 437.417 293.358 437.417C292.59 437.417 292.008 437.636 291.61 438.074C291.226 438.513 290.966 439.082 290.829 439.781C290.706 440.466 290.644 441.316 290.644 442.33C290.644 443.372 290.706 444.249 290.829 444.962C290.952 445.661 291.213 446.23 291.61 446.668C292.008 447.093 292.59 447.306 293.358 447.306C294.125 447.306 294.708 447.093 295.105 446.668C295.503 446.23 295.763 445.661 295.887 444.962C296.01 444.249 296.072 443.372 296.072 442.33ZM300.975 447.1V444.839L307.698 435.217H311.049V444.592H312.858V447.1H311.049V450.02H308.17V447.1H300.975ZM308.356 438.301L304.141 444.592H308.356V438.301ZM314.362 438.712C314.362 437.67 314.663 436.855 315.266 436.265C315.883 435.676 316.671 435.381 317.631 435.381C318.59 435.381 319.371 435.676 319.974 436.265C320.591 436.855 320.9 437.67 320.9 438.712C320.9 439.767 320.591 440.59 319.974 441.179C319.371 441.768 318.59 442.063 317.631 442.063C316.671 442.063 315.883 441.768 315.266 441.179C314.663 440.59 314.362 439.767 314.362 438.712ZM327.561 435.628L319.481 450.02H316.685L324.744 435.628H327.561ZM317.61 437.108C316.856 437.108 316.479 437.643 316.479 438.712C316.479 439.795 316.856 440.336 317.61 440.336C317.98 440.336 318.268 440.206 318.474 439.945C318.679 439.671 318.782 439.26 318.782 438.712C318.782 437.643 318.391 437.108 317.61 437.108ZM323.387 446.915C323.387 445.86 323.689 445.044 324.292 444.468C324.909 443.879 325.697 443.584 326.656 443.584C327.616 443.584 328.39 443.879 328.979 444.468C329.582 445.044 329.884 445.86 329.884 446.915C329.884 447.97 329.582 448.793 328.979 449.382C328.39 449.972 327.616 450.266 326.656 450.266C325.683 450.266 324.895 449.972 324.292 449.382C323.689 448.793 323.387 447.97 323.387 446.915ZM326.636 445.311C325.854 445.311 325.464 445.846 325.464 446.915C325.464 447.998 325.854 448.539 326.636 448.539C327.403 448.539 327.787 447.998 327.787 446.915C327.787 445.846 327.403 445.311 326.636 445.311Z" fill="#FF531D"/>
</g>
<path d="M264.066 417.973V407.426H265.361V420.379H264.251L257.034 409.832V420.379H255.739V407.426H256.849L264.066 417.973ZM276.087 412.94V411.127H277.309V420.379H276.087V418.566C275.236 419.922 273.99 420.601 272.35 420.601C271.03 420.601 269.901 420.132 268.963 419.195C268.038 418.257 267.576 417.11 267.576 415.753C267.576 414.396 268.038 413.249 268.963 412.311C269.901 411.374 271.03 410.905 272.35 410.905C273.99 410.905 275.236 411.584 276.087 412.94ZM269.852 418.362C270.555 419.065 271.418 419.417 272.442 419.417C273.466 419.417 274.33 419.065 275.033 418.362C275.736 417.634 276.087 416.765 276.087 415.753C276.087 414.729 275.736 413.866 275.033 413.163C274.33 412.447 273.466 412.089 272.442 412.089C271.418 412.089 270.555 412.447 269.852 413.163C269.149 413.866 268.797 414.729 268.797 415.753C268.797 416.765 269.149 417.634 269.852 418.362ZM280.856 413.551C280.856 414.267 281.492 414.791 282.762 415.124C283.12 415.21 283.354 415.272 283.465 415.309C283.577 415.334 283.792 415.401 284.113 415.512C284.446 415.611 284.674 415.698 284.798 415.772C284.933 415.846 285.118 415.963 285.353 416.123C285.587 416.271 285.754 416.425 285.852 416.586C285.951 416.734 286.044 416.931 286.13 417.178C286.216 417.412 286.26 417.665 286.26 417.936C286.26 418.726 285.945 419.367 285.316 419.861C284.711 420.354 283.91 420.601 282.91 420.601C282.047 420.601 281.301 420.41 280.671 420.027C280.042 419.633 279.598 419.114 279.339 418.473L280.375 417.862C280.548 418.344 280.856 418.726 281.301 419.01C281.757 419.281 282.294 419.417 282.91 419.417C283.539 419.417 284.051 419.293 284.446 419.047C284.841 418.8 285.038 418.43 285.038 417.936C285.038 417.221 284.403 416.697 283.132 416.364C282.775 416.277 282.54 416.222 282.429 416.197C282.318 416.16 282.096 416.092 281.763 415.994C281.442 415.883 281.214 415.79 281.079 415.716C280.955 415.642 280.776 415.531 280.542 415.383C280.308 415.223 280.141 415.068 280.042 414.92C279.944 414.76 279.851 414.563 279.765 414.328C279.678 414.082 279.635 413.822 279.635 413.551C279.635 412.799 279.931 412.17 280.523 411.664C281.14 411.158 281.899 410.905 282.799 410.905C283.539 410.905 284.193 411.072 284.761 411.405C285.341 411.738 285.766 412.2 286.037 412.792L285.02 413.385C284.674 412.521 283.934 412.089 282.799 412.089C282.244 412.089 281.782 412.219 281.412 412.478C281.042 412.737 280.856 413.095 280.856 413.551ZM295.982 412.94V407.426H297.203V420.379H295.982V418.566C295.131 419.922 293.885 420.601 292.245 420.601C290.925 420.601 289.796 420.132 288.858 419.195C287.933 418.257 287.471 417.11 287.471 415.753C287.471 414.396 287.933 413.249 288.858 412.311C289.796 411.374 290.925 410.905 292.245 410.905C293.885 410.905 295.131 411.584 295.982 412.94ZM289.747 418.362C290.45 419.065 291.313 419.417 292.337 419.417C293.361 419.417 294.224 419.065 294.928 418.362C295.631 417.634 295.982 416.765 295.982 415.753C295.982 414.729 295.631 413.866 294.928 413.163C294.224 412.447 293.361 412.089 292.337 412.089C291.313 412.089 290.45 412.447 289.747 413.163C289.043 413.866 288.692 414.729 288.692 415.753C288.692 416.765 289.043 417.634 289.747 418.362ZM307.746 412.94V411.127H308.967V420.379H307.746V418.566C306.895 419.922 305.649 420.601 304.008 420.601C302.688 420.601 301.559 420.132 300.622 419.195C299.697 418.257 299.234 417.11 299.234 415.753C299.234 414.396 299.697 413.249 300.622 412.311C301.559 411.374 302.688 410.905 304.008 410.905C305.649 410.905 306.895 411.584 307.746 412.94ZM301.51 418.362C302.213 419.065 303.077 419.417 304.101 419.417C305.124 419.417 305.988 419.065 306.691 418.362C307.394 417.634 307.746 416.765 307.746 415.753C307.746 414.729 307.394 413.866 306.691 413.163C305.988 412.447 305.124 412.089 304.101 412.089C303.077 412.089 302.213 412.447 301.51 413.163C300.807 413.866 300.455 414.729 300.455 415.753C300.455 416.765 300.807 417.634 301.51 418.362ZM319.509 412.94V411.127H320.73V424.08H319.509V418.566C318.658 419.922 317.412 420.601 315.772 420.601C314.452 420.601 313.323 420.132 312.385 419.195C311.46 418.257 310.998 417.11 310.998 415.753C310.998 414.396 311.46 413.249 312.385 412.311C313.323 411.374 314.452 410.905 315.772 410.905C317.412 410.905 318.658 411.584 319.509 412.94ZM313.274 418.362C313.977 419.065 314.84 419.417 315.864 419.417C316.888 419.417 317.751 419.065 318.455 418.362C319.158 417.634 319.509 416.765 319.509 415.753C319.509 414.729 319.158 413.866 318.455 413.163C317.751 412.447 316.888 412.089 315.864 412.089C314.84 412.089 313.977 412.447 313.274 413.163C312.57 413.866 312.219 414.729 312.219 415.753C312.219 416.765 312.57 417.634 313.274 418.362Z" fill="#CCD2D7"/>
<g filter="url(#filter1_b_6432_12228)">
<path d="M268.094 176.49H308.185V371.805C308.185 374.076 306.344 375.917 304.073 375.917H272.205C269.934 375.917 268.094 374.076 268.094 371.805V176.49Z" fill="#FF531D" fill-opacity="0.5"/>
<path d="M268.607 177.004H307.671V371.805C307.671 373.792 306.06 375.403 304.073 375.403H272.205C270.218 375.403 268.607 373.792 268.607 371.805V177.004Z" stroke="url(#paint1_linear_6432_12228)" stroke-width="1.02797"/>
</g>
<g filter="url(#filter2_d_6432_12228)">
<path d="M157.461 380.154V382.58H148.743V380.154H157.461ZM166.163 385.459C167.479 384.362 168.528 383.451 169.309 382.724C170.09 381.984 170.741 381.217 171.262 380.422C171.783 379.627 172.043 378.845 172.043 378.078C172.043 377.379 171.879 376.83 171.55 376.433C171.221 376.036 170.714 375.837 170.028 375.837C169.343 375.837 168.815 376.07 168.445 376.536C168.075 376.988 167.883 377.612 167.87 378.407H165.074C165.128 376.762 165.615 375.515 166.533 374.665C167.465 373.815 168.644 373.39 170.07 373.39C171.632 373.39 172.831 373.808 173.667 374.644C174.504 375.467 174.922 376.556 174.922 377.913C174.922 378.982 174.634 380.004 174.058 380.977C173.482 381.95 172.825 382.8 172.084 383.526C171.344 384.239 170.378 385.102 169.185 386.117H175.251V388.501H165.094V386.363L166.163 385.459ZM177.064 381.018C177.064 378.647 177.489 376.789 178.339 375.446C179.202 374.103 180.628 373.431 182.615 373.431C184.603 373.431 186.021 374.103 186.871 375.446C187.735 376.789 188.166 378.647 188.166 381.018C188.166 383.403 187.735 385.274 186.871 386.631C186.021 387.987 184.603 388.666 182.615 388.666C180.628 388.666 179.202 387.987 178.339 386.631C177.489 385.274 177.064 383.403 177.064 381.018ZM185.329 381.018C185.329 380.004 185.261 379.154 185.124 378.468C185 377.769 184.74 377.201 184.342 376.762C183.959 376.323 183.383 376.104 182.615 376.104C181.848 376.104 181.265 376.323 180.868 376.762C180.484 377.201 180.224 377.769 180.087 378.468C179.963 379.154 179.901 380.004 179.901 381.018C179.901 382.059 179.963 382.937 180.087 383.649C180.21 384.348 180.47 384.917 180.868 385.356C181.265 385.781 181.848 385.993 182.615 385.993C183.383 385.993 183.965 385.781 184.363 385.356C184.76 384.917 185.021 384.348 185.144 383.649C185.268 382.937 185.329 382.059 185.329 381.018ZM193.83 385.685L191.425 391.462H189.574L190.911 385.685H193.83ZM198.084 380.771C196.713 380.058 196.028 378.955 196.028 377.461C196.028 376.721 196.213 376.049 196.583 375.446C196.967 374.829 197.536 374.343 198.29 373.986C199.057 373.616 199.989 373.431 201.086 373.431C202.182 373.431 203.107 373.616 203.861 373.986C204.629 374.343 205.198 374.829 205.568 375.446C205.952 376.049 206.143 376.721 206.143 377.461C206.143 378.215 205.958 378.88 205.588 379.455C205.218 380.017 204.725 380.456 204.108 380.771C204.862 381.1 205.451 381.58 205.876 382.21C206.301 382.841 206.513 383.588 206.513 384.451C206.513 385.383 206.274 386.199 205.794 386.898C205.328 387.583 204.684 388.111 203.861 388.481C203.039 388.851 202.114 389.036 201.086 389.036C200.058 389.036 199.133 388.851 198.31 388.481C197.502 388.111 196.857 387.583 196.378 386.898C195.912 386.199 195.679 385.383 195.679 384.451C195.679 383.588 195.891 382.841 196.316 382.21C196.741 381.566 197.33 381.086 198.084 380.771ZM203.347 377.872C203.347 377.201 203.142 376.68 202.731 376.31C202.333 375.94 201.785 375.755 201.086 375.755C200.4 375.755 199.852 375.94 199.441 376.31C199.044 376.68 198.845 377.207 198.845 377.893C198.845 378.51 199.05 379.003 199.462 379.373C199.886 379.743 200.428 379.928 201.086 379.928C201.744 379.928 202.285 379.743 202.71 379.373C203.135 378.989 203.347 378.489 203.347 377.872ZM201.086 382.025C200.305 382.025 199.667 382.224 199.174 382.621C198.694 383.019 198.454 383.588 198.454 384.328C198.454 385.013 198.687 385.575 199.153 386.014C199.633 386.439 200.277 386.651 201.086 386.651C201.894 386.651 202.532 386.432 202.998 385.993C203.464 385.555 203.697 384.999 203.697 384.328C203.697 383.601 203.457 383.039 202.977 382.642C202.498 382.231 201.867 382.025 201.086 382.025ZM212.118 384.492C212.227 385.095 212.474 385.561 212.858 385.89C213.255 386.206 213.783 386.363 214.441 386.363C215.291 386.363 215.907 386.014 216.291 385.315C216.675 384.602 216.867 383.41 216.867 381.737C216.552 382.176 216.106 382.519 215.53 382.765C214.968 383.012 214.359 383.135 213.701 383.135C212.823 383.135 212.028 382.957 211.316 382.601C210.617 382.231 210.062 381.689 209.65 380.977C209.239 380.25 209.034 379.373 209.034 378.345C209.034 376.824 209.486 375.617 210.391 374.727C211.295 373.822 212.529 373.37 214.091 373.37C216.038 373.37 217.408 373.993 218.203 375.241C219.012 376.488 219.416 378.366 219.416 380.874C219.416 382.656 219.259 384.115 218.943 385.253C218.642 386.391 218.114 387.254 217.36 387.844C216.62 388.433 215.606 388.728 214.317 388.728C213.303 388.728 212.44 388.536 211.727 388.152C211.014 387.754 210.466 387.24 210.082 386.61C209.712 385.966 209.5 385.26 209.445 384.492H212.118ZM214.297 380.792C215.01 380.792 215.572 380.572 215.983 380.134C216.394 379.695 216.6 379.106 216.6 378.366C216.6 377.557 216.38 376.933 215.942 376.495C215.517 376.042 214.934 375.816 214.194 375.816C213.454 375.816 212.865 376.049 212.426 376.515C212.001 376.968 211.789 377.571 211.789 378.324C211.789 379.051 211.994 379.647 212.405 380.113C212.83 380.565 213.461 380.792 214.297 380.792ZM221.328 377.399C221.328 376.358 221.629 375.542 222.232 374.953C222.849 374.363 223.637 374.069 224.597 374.069C225.556 374.069 226.337 374.363 226.94 374.953C227.557 375.542 227.866 376.358 227.866 377.399C227.866 378.455 227.557 379.277 226.94 379.866C226.337 380.456 225.556 380.751 224.597 380.751C223.637 380.751 222.849 380.456 222.232 379.866C221.629 379.277 221.328 378.455 221.328 377.399ZM234.527 374.315L226.447 388.707H223.651L231.71 374.315H234.527ZM224.576 375.796C223.822 375.796 223.445 376.33 223.445 377.399C223.445 378.482 223.822 379.024 224.576 379.024C224.946 379.024 225.234 378.893 225.44 378.633C225.645 378.359 225.748 377.948 225.748 377.399C225.748 376.33 225.357 375.796 224.576 375.796ZM230.353 385.603C230.353 384.547 230.655 383.732 231.258 383.156C231.875 382.567 232.663 382.272 233.622 382.272C234.582 382.272 235.356 382.567 235.946 383.156C236.549 383.732 236.85 384.547 236.85 385.603C236.85 386.658 236.549 387.48 235.946 388.07C235.356 388.659 234.582 388.954 233.622 388.954C232.649 388.954 231.861 388.659 231.258 388.07C230.655 387.48 230.353 386.658 230.353 385.603ZM233.602 383.999C232.82 383.999 232.43 384.533 232.43 385.603C232.43 386.685 232.82 387.227 233.602 387.227C234.369 387.227 234.753 386.685 234.753 385.603C234.753 384.533 234.369 383.999 233.602 383.999Z" fill="#FF531D"/>
</g>
<path d="M163.598 360.151C162.747 360.151 161.995 360.003 161.341 359.707C160.7 359.411 160.194 358.998 159.824 358.467C159.454 357.937 159.256 357.345 159.232 356.691H160.601C160.663 357.32 160.94 357.875 161.434 358.356C161.927 358.825 162.649 359.059 163.598 359.059C164.474 359.059 165.165 358.837 165.671 358.393C166.189 357.937 166.448 357.363 166.448 356.672C166.448 356.117 166.306 355.673 166.022 355.34C165.739 354.995 165.387 354.742 164.968 354.581C164.548 354.409 163.968 354.224 163.228 354.026C162.365 353.792 161.68 353.564 161.174 353.342C160.669 353.12 160.237 352.774 159.879 352.306C159.521 351.837 159.343 351.201 159.343 350.4C159.343 349.734 159.515 349.141 159.861 348.623C160.206 348.093 160.693 347.68 161.322 347.384C161.952 347.088 162.673 346.939 163.487 346.939C164.684 346.939 165.646 347.236 166.374 347.828C167.114 348.407 167.54 349.16 167.651 350.085H166.244C166.158 349.555 165.868 349.086 165.375 348.679C164.881 348.259 164.215 348.05 163.376 348.05C162.599 348.05 161.952 348.259 161.434 348.679C160.915 349.086 160.656 349.647 160.656 350.363C160.656 350.905 160.798 351.343 161.082 351.676C161.366 352.009 161.717 352.262 162.137 352.435C162.568 352.608 163.148 352.793 163.876 352.99C164.715 353.225 165.393 353.459 165.911 353.693C166.429 353.915 166.867 354.261 167.225 354.729C167.583 355.198 167.762 355.827 167.762 356.617C167.762 357.221 167.601 357.795 167.281 358.338C166.96 358.88 166.485 359.318 165.856 359.651C165.227 359.984 164.474 360.151 163.598 360.151ZM180.109 360.021L178.351 358.227C177.722 358.917 177.049 359.429 176.334 359.762C175.618 360.083 174.81 360.244 173.91 360.244C173.046 360.244 172.282 360.083 171.615 359.762C170.949 359.429 170.431 358.967 170.061 358.375C169.691 357.783 169.506 357.098 169.506 356.321C169.506 355.408 169.765 354.612 170.283 353.934C170.801 353.255 171.56 352.725 172.559 352.343C172.127 351.861 171.813 351.417 171.615 351.01C171.418 350.591 171.319 350.141 171.319 349.66C171.319 348.833 171.615 348.167 172.207 347.661C172.8 347.143 173.589 346.884 174.576 346.884C175.501 346.884 176.254 347.149 176.833 347.68C177.413 348.21 177.685 348.901 177.648 349.752H176.352C176.365 349.197 176.192 348.759 175.834 348.438C175.489 348.118 175.051 347.957 174.52 347.957C173.953 347.957 173.49 348.118 173.133 348.438C172.787 348.747 172.615 349.148 172.615 349.641C172.615 350.036 172.719 350.418 172.929 350.788C173.151 351.158 173.497 351.596 173.965 352.102L178.221 356.413C178.394 356.179 178.628 355.809 178.924 355.303L180.109 353.323H181.496L180.09 355.747C179.757 356.327 179.424 356.845 179.091 357.301L181.792 360.021H180.109ZM173.91 359.115C174.638 359.115 175.285 358.973 175.853 358.689C176.432 358.406 176.981 357.961 177.5 357.357L173.373 353.175C171.659 353.804 170.801 354.84 170.801 356.284C170.801 356.827 170.931 357.314 171.19 357.746C171.461 358.165 171.831 358.498 172.3 358.745C172.769 358.991 173.305 359.115 173.91 359.115ZM191.835 350.807C191.835 351.917 191.471 352.811 190.743 353.49C190.016 354.168 188.924 354.507 187.468 354.507H184.859V360.021H183.564V347.088H187.468C188.912 347.088 189.997 347.427 190.725 348.105C191.465 348.784 191.835 349.684 191.835 350.807ZM187.468 353.397C189.491 353.397 190.503 352.534 190.503 350.807C190.503 349.943 190.262 349.289 189.781 348.845C189.3 348.401 188.529 348.179 187.468 348.179H184.859V353.397H187.468ZM207.172 347.865H200.4V352.602C200.708 352.17 201.158 351.818 201.751 351.547C202.343 351.263 202.984 351.121 203.675 351.121C204.686 351.121 205.513 351.331 206.154 351.75C206.796 352.157 207.258 352.694 207.542 353.36C207.826 354.014 207.968 354.717 207.968 355.47C207.968 356.333 207.801 357.116 207.468 357.82C207.147 358.51 206.648 359.059 205.969 359.466C205.303 359.873 204.471 360.077 203.471 360.077C202.201 360.077 201.171 359.75 200.381 359.096C199.592 358.43 199.111 357.536 198.938 356.413H200.215C200.375 357.227 200.745 357.857 201.325 358.301C201.905 358.745 202.62 358.967 203.471 358.967C204.545 358.967 205.353 358.652 205.895 358.023C206.45 357.382 206.728 356.537 206.728 355.488C206.728 354.464 206.45 353.669 205.895 353.101C205.34 352.521 204.545 352.231 203.508 352.231C202.793 352.231 202.164 352.398 201.621 352.731C201.078 353.064 200.677 353.514 200.418 354.082H199.197V346.736H207.172V347.865ZM210.229 353.268C210.229 351.146 210.556 349.499 211.209 348.327C211.863 347.155 213.035 346.569 214.725 346.569C216.415 346.569 217.587 347.155 218.241 348.327C218.894 349.499 219.221 351.146 219.221 353.268C219.221 355.426 218.894 357.098 218.241 358.282C217.587 359.466 216.415 360.058 214.725 360.058C213.023 360.058 211.845 359.466 211.191 358.282C210.549 357.098 210.229 355.426 210.229 353.268ZM217.945 353.268C217.945 352.12 217.864 351.152 217.704 350.363C217.544 349.573 217.229 348.938 216.76 348.457C216.292 347.976 215.613 347.735 214.725 347.735C213.837 347.735 213.158 347.976 212.69 348.457C212.221 348.938 211.906 349.573 211.746 350.363C211.586 351.152 211.505 352.12 211.505 353.268C211.505 354.452 211.586 355.445 211.746 356.247C211.906 357.036 212.221 357.672 212.69 358.153C213.158 358.634 213.837 358.874 214.725 358.874C215.613 358.874 216.292 358.634 216.76 358.153C217.229 357.672 217.544 357.036 217.704 356.247C217.864 355.445 217.945 354.452 217.945 353.268ZM221.631 353.268C221.631 351.146 221.958 349.499 222.611 348.327C223.265 347.155 224.437 346.569 226.127 346.569C227.817 346.569 228.989 347.155 229.643 348.327C230.297 349.499 230.623 351.146 230.623 353.268C230.623 355.426 230.297 357.098 229.643 358.282C228.989 359.466 227.817 360.058 226.127 360.058C224.425 360.058 223.247 359.466 222.593 358.282C221.951 357.098 221.631 355.426 221.631 353.268ZM229.347 353.268C229.347 352.12 229.267 351.152 229.106 350.363C228.946 349.573 228.631 348.938 228.162 348.457C227.694 347.976 227.015 347.735 226.127 347.735C225.239 347.735 224.56 347.976 224.092 348.457C223.623 348.938 223.308 349.573 223.148 350.363C222.988 351.152 222.907 352.12 222.907 353.268C222.907 354.452 222.988 355.445 223.148 356.247C223.308 357.036 223.623 357.672 224.092 358.153C224.56 358.634 225.239 358.874 226.127 358.874C227.015 358.874 227.694 358.634 228.162 358.153C228.631 357.672 228.946 357.036 229.106 356.247C229.267 355.445 229.347 354.452 229.347 353.268Z" fill="#CCD2D7"/>
<g filter="url(#filter3_b_6432_12228)">
<path d="M174.966 176.49H215.057V314.239C215.057 316.51 213.216 318.351 210.945 318.351H179.078C176.807 318.351 174.966 316.51 174.966 314.239V176.49Z" fill="#FF531D" fill-opacity="0.5"/>
<path d="M175.48 177.004H214.543V314.239C214.543 316.226 212.932 317.837 210.945 317.837H179.078C177.091 317.837 175.48 316.226 175.48 314.239V177.004Z" stroke="url(#paint2_linear_6432_12228)" stroke-width="1.02797"/>
</g>
<g filter="url(#filter4_d_6432_12228)">
<path d="M434.176 280.529V282.955H425.459V280.529H434.176ZM441.624 276.746V274.094H446.579V289.082H443.619V276.746H441.624ZM449.423 281.393C449.423 279.022 449.848 277.164 450.697 275.821C451.561 274.478 452.986 273.806 454.974 273.806C456.961 273.806 458.38 274.478 459.23 275.821C460.093 277.164 460.525 279.022 460.525 281.393C460.525 283.778 460.093 285.649 459.23 287.006C458.38 288.362 456.961 289.041 454.974 289.041C452.986 289.041 451.561 288.362 450.697 287.006C449.848 285.649 449.423 283.778 449.423 281.393ZM457.688 281.393C457.688 280.379 457.619 279.529 457.482 278.843C457.359 278.144 457.098 277.576 456.701 277.137C456.317 276.698 455.741 276.479 454.974 276.479C454.206 276.479 453.624 276.698 453.226 277.137C452.842 277.576 452.582 278.144 452.445 278.843C452.322 279.529 452.26 280.379 452.26 281.393C452.26 282.434 452.322 283.312 452.445 284.024C452.568 284.723 452.829 285.292 453.226 285.731C453.624 286.156 454.206 286.368 454.974 286.368C455.741 286.368 456.324 286.156 456.721 285.731C457.119 285.292 457.379 284.723 457.503 284.024C457.626 283.312 457.688 282.434 457.688 281.393ZM466.189 286.06L463.783 291.837H461.933L463.269 286.06H466.189ZM470.443 281.146C469.072 280.433 468.387 279.33 468.387 277.836C468.387 277.096 468.572 276.424 468.942 275.821C469.326 275.204 469.894 274.718 470.648 274.361C471.416 273.991 472.348 273.806 473.444 273.806C474.541 273.806 475.466 273.991 476.22 274.361C476.987 274.718 477.556 275.204 477.926 275.821C478.31 276.424 478.502 277.096 478.502 277.836C478.502 278.59 478.317 279.255 477.947 279.83C477.577 280.392 477.083 280.831 476.467 281.146C477.22 281.475 477.81 281.955 478.235 282.585C478.66 283.216 478.872 283.963 478.872 284.826C478.872 285.758 478.632 286.574 478.152 287.273C477.686 287.958 477.042 288.486 476.22 288.856C475.397 289.226 474.472 289.411 473.444 289.411C472.416 289.411 471.491 289.226 470.669 288.856C469.86 288.486 469.216 287.958 468.736 287.273C468.27 286.574 468.037 285.758 468.037 284.826C468.037 283.963 468.25 283.216 468.674 282.585C469.099 281.941 469.689 281.461 470.443 281.146ZM475.706 278.247C475.706 277.576 475.5 277.055 475.089 276.685C474.692 276.315 474.143 276.13 473.444 276.13C472.759 276.13 472.211 276.315 471.8 276.685C471.402 277.055 471.203 277.582 471.203 278.268C471.203 278.885 471.409 279.378 471.82 279.748C472.245 280.118 472.786 280.303 473.444 280.303C474.102 280.303 474.644 280.118 475.068 279.748C475.493 279.364 475.706 278.864 475.706 278.247ZM473.444 282.4C472.663 282.4 472.026 282.599 471.532 282.996C471.053 283.394 470.813 283.963 470.813 284.703C470.813 285.388 471.046 285.95 471.512 286.389C471.991 286.814 472.636 287.026 473.444 287.026C474.253 287.026 474.89 286.807 475.356 286.368C475.822 285.93 476.055 285.374 476.055 284.703C476.055 283.976 475.815 283.414 475.336 283.017C474.856 282.606 474.226 282.4 473.444 282.4ZM481.187 278.042C481.255 276.671 481.735 275.616 482.626 274.875C483.53 274.122 484.716 273.745 486.182 273.745C487.183 273.745 488.04 273.923 488.752 274.279C489.465 274.622 490 275.095 490.356 275.698C490.726 276.287 490.911 276.959 490.911 277.713C490.911 278.576 490.685 279.309 490.233 279.912C489.794 280.502 489.266 280.899 488.65 281.105V281.187C489.445 281.434 490.061 281.873 490.5 282.503C490.952 283.133 491.178 283.942 491.178 284.929C491.178 285.751 490.987 286.485 490.603 287.129C490.233 287.773 489.678 288.28 488.937 288.65C488.211 289.007 487.334 289.185 486.306 289.185C484.757 289.185 483.496 288.794 482.523 288.013C481.55 287.232 481.036 286.08 480.981 284.559H483.777C483.804 285.231 484.031 285.772 484.455 286.183C484.894 286.581 485.49 286.779 486.244 286.779C486.943 286.779 487.478 286.587 487.848 286.204C488.232 285.806 488.423 285.299 488.423 284.682C488.423 283.86 488.163 283.271 487.642 282.914C487.121 282.558 486.313 282.38 485.216 282.38H484.62V280.015H485.216C487.162 280.015 488.136 279.364 488.136 278.062C488.136 277.473 487.957 277.014 487.601 276.685C487.258 276.356 486.758 276.191 486.1 276.191C485.456 276.191 484.956 276.369 484.599 276.726C484.257 277.068 484.058 277.507 484.003 278.042H481.187ZM493.124 277.774C493.124 276.733 493.426 275.917 494.029 275.328C494.645 274.738 495.434 274.444 496.393 274.444C497.352 274.444 498.134 274.738 498.737 275.328C499.354 275.917 499.662 276.733 499.662 277.774C499.662 278.83 499.354 279.652 498.737 280.241C498.134 280.831 497.352 281.126 496.393 281.126C495.434 281.126 494.645 280.831 494.029 280.241C493.426 279.652 493.124 278.83 493.124 277.774ZM506.323 274.69L498.243 289.082H495.447L503.507 274.69H506.323ZM496.372 276.171C495.619 276.171 495.242 276.705 495.242 277.774C495.242 278.857 495.619 279.399 496.372 279.399C496.743 279.399 497.03 279.268 497.236 279.008C497.442 278.734 497.544 278.323 497.544 277.774C497.544 276.705 497.154 276.171 496.372 276.171ZM502.15 285.978C502.15 284.922 502.451 284.107 503.054 283.531C503.671 282.942 504.459 282.647 505.419 282.647C506.378 282.647 507.152 282.942 507.742 283.531C508.345 284.107 508.646 284.922 508.646 285.978C508.646 287.033 508.345 287.855 507.742 288.445C507.152 289.034 506.378 289.329 505.419 289.329C504.445 289.329 503.657 289.034 503.054 288.445C502.451 287.855 502.15 287.033 502.15 285.978ZM505.398 284.374C504.617 284.374 504.226 284.908 504.226 285.978C504.226 287.06 504.617 287.602 505.398 287.602C506.166 287.602 506.549 287.06 506.549 285.978C506.549 284.908 506.166 284.374 505.398 284.374Z" fill="#FF531D"/>
</g>
<path d="M451.776 248.385H456.772C458.536 248.385 459.991 249.015 461.138 250.273C462.298 251.506 462.878 253.036 462.878 254.862C462.878 256.687 462.298 258.223 461.138 259.469C459.991 260.715 458.536 261.338 456.772 261.338H451.776V248.385ZM453.071 260.117H456.772C458.19 260.117 459.35 259.611 460.25 258.599C461.163 257.576 461.62 256.33 461.62 254.862C461.62 253.394 461.163 252.148 460.25 251.124C459.35 250.112 458.19 249.607 456.772 249.607H453.071V260.117ZM472.661 260.172C471.711 261.097 470.564 261.56 469.219 261.56C467.85 261.56 466.697 261.097 465.759 260.172C464.822 259.235 464.353 258.081 464.353 256.712C464.353 255.343 464.822 254.196 465.759 253.27C466.697 252.333 467.85 251.864 469.219 251.864C470.576 251.864 471.724 252.333 472.661 253.27C473.611 254.196 474.086 255.343 474.086 256.712C474.086 258.069 473.611 259.222 472.661 260.172ZM466.629 259.321C467.332 260.024 468.196 260.376 469.219 260.376C470.243 260.376 471.107 260.024 471.81 259.321C472.513 258.593 472.865 257.724 472.865 256.712C472.865 255.688 472.513 254.825 471.81 254.122C471.107 253.406 470.243 253.048 469.219 253.048C468.196 253.048 467.332 253.406 466.629 254.122C465.926 254.825 465.574 255.688 465.574 256.712C465.574 257.724 465.926 258.593 466.629 259.321ZM484.631 259.765L486.907 252.086H488.165L485.316 261.338H483.984L481.597 253.881L479.21 261.338H477.878L475.028 252.086H476.286L478.562 259.765L480.986 252.086H482.207L484.631 259.765Z" fill="#CCD2D7"/>
<g filter="url(#filter5_b_6432_12228)">
<path d="M449.459 176.49H489.55V226.861C489.55 229.132 487.709 230.973 485.438 230.973H453.571C451.3 230.973 449.459 229.132 449.459 226.861V176.49Z" fill="#FF531D" fill-opacity="0.5"/>
<path d="M449.973 177.004H489.036V226.861C489.036 228.848 487.425 230.459 485.438 230.459H453.571C451.584 230.459 449.973 228.848 449.973 226.861V177.004Z" stroke="url(#paint3_linear_6432_12228)" stroke-width="1.02797"/>
</g>
<g filter="url(#filter6_d_6432_12228)">
<path d="M342.663 338.128V340.601H333.777V338.128H342.663ZM350.255 334.272V331.569H355.305V346.846H352.288V334.272H350.255ZM366.125 335.383C365.985 334.796 365.741 334.356 365.392 334.062C365.056 333.769 364.567 333.622 363.925 333.622C362.961 333.622 362.248 334.013 361.787 334.796C361.34 335.564 361.11 336.822 361.096 338.568C361.431 338.009 361.92 337.576 362.563 337.269C363.205 336.947 363.904 336.787 364.658 336.787C365.566 336.787 366.37 336.982 367.068 337.373C367.767 337.765 368.312 338.337 368.703 339.092C369.094 339.832 369.29 340.726 369.29 341.774C369.29 342.766 369.087 343.653 368.682 344.436C368.291 345.204 367.711 345.805 366.942 346.238C366.174 346.671 365.259 346.888 364.197 346.888C362.744 346.888 361.599 346.566 360.76 345.924C359.936 345.281 359.356 344.387 359.021 343.241C358.7 342.082 358.539 340.657 358.539 338.966C358.539 336.409 358.979 334.482 359.859 333.182C360.739 331.869 362.129 331.212 364.03 331.212C365.496 331.212 366.635 331.611 367.445 332.407C368.256 333.203 368.724 334.195 368.849 335.383H366.125ZM363.988 339.197C363.247 339.197 362.625 339.413 362.122 339.846C361.62 340.279 361.368 340.908 361.368 341.732C361.368 342.557 361.599 343.206 362.06 343.681C362.535 344.156 363.198 344.394 364.05 344.394C364.805 344.394 365.399 344.163 365.832 343.702C366.279 343.241 366.502 342.62 366.502 341.837C366.502 341.027 366.286 340.384 365.853 339.909C365.434 339.434 364.812 339.197 363.988 339.197ZM375.15 343.765L372.698 349.654H370.812L372.174 343.765H375.15ZM376.803 343.87V341.565L383.656 331.757H387.072V341.313H388.916V343.87H387.072V346.846H384.138V343.87H376.803ZM384.327 334.901L380.031 341.313H384.327V334.901ZM393.341 338.757C391.944 338.03 391.245 336.905 391.245 335.383C391.245 334.628 391.434 333.944 391.811 333.329C392.202 332.7 392.782 332.204 393.55 331.841C394.333 331.464 395.283 331.275 396.4 331.275C397.518 331.275 398.461 331.464 399.229 331.841C400.012 332.204 400.592 332.7 400.969 333.329C401.36 333.944 401.556 334.628 401.556 335.383C401.556 336.151 401.367 336.829 400.99 337.415C400.613 337.988 400.11 338.435 399.481 338.757C400.249 339.092 400.85 339.581 401.283 340.224C401.716 340.866 401.933 341.628 401.933 342.508C401.933 343.458 401.688 344.289 401.199 345.002C400.724 345.7 400.068 346.238 399.229 346.615C398.391 346.992 397.448 347.181 396.4 347.181C395.353 347.181 394.41 346.992 393.571 346.615C392.747 346.238 392.09 345.7 391.601 345.002C391.126 344.289 390.889 343.458 390.889 342.508C390.889 341.628 391.105 340.866 391.539 340.224C391.972 339.567 392.572 339.078 393.341 338.757ZM398.706 335.802C398.706 335.117 398.496 334.586 398.077 334.209C397.672 333.832 397.113 333.643 396.4 333.643C395.702 333.643 395.143 333.832 394.724 334.209C394.319 334.586 394.116 335.124 394.116 335.823C394.116 336.451 394.326 336.954 394.745 337.332C395.178 337.709 395.73 337.897 396.4 337.897C397.071 337.897 397.623 337.709 398.056 337.332C398.489 336.94 398.706 336.43 398.706 335.802ZM396.4 340.035C395.604 340.035 394.954 340.237 394.451 340.643C393.962 341.048 393.718 341.628 393.718 342.382C393.718 343.081 393.955 343.653 394.43 344.1C394.919 344.534 395.576 344.75 396.4 344.75C397.225 344.75 397.874 344.527 398.349 344.079C398.824 343.632 399.062 343.067 399.062 342.382C399.062 341.642 398.817 341.069 398.328 340.664C397.839 340.244 397.197 340.035 396.4 340.035ZM403.915 335.32C403.915 334.258 404.222 333.427 404.837 332.826C405.466 332.225 406.269 331.925 407.247 331.925C408.225 331.925 409.021 332.225 409.636 332.826C410.265 333.427 410.579 334.258 410.579 335.32C410.579 336.396 410.265 337.234 409.636 337.835C409.021 338.435 408.225 338.736 407.247 338.736C406.269 338.736 405.466 338.435 404.837 337.835C404.222 337.234 403.915 336.396 403.915 335.32ZM417.369 332.176L409.133 346.846H406.283L414.498 332.176H417.369ZM407.226 333.685C406.458 333.685 406.073 334.23 406.073 335.32C406.073 336.423 406.458 336.975 407.226 336.975C407.603 336.975 407.897 336.843 408.106 336.577C408.316 336.298 408.42 335.879 408.42 335.32C408.42 334.23 408.022 333.685 407.226 333.685ZM413.115 343.681C413.115 342.606 413.422 341.774 414.037 341.188C414.665 340.587 415.469 340.286 416.447 340.286C417.425 340.286 418.214 340.587 418.815 341.188C419.429 341.774 419.737 342.606 419.737 343.681C419.737 344.757 419.429 345.595 418.815 346.196C418.214 346.797 417.425 347.097 416.447 347.097C415.455 347.097 414.651 346.797 414.037 346.196C413.422 345.595 413.115 344.757 413.115 343.681ZM416.426 342.047C415.629 342.047 415.231 342.592 415.231 343.681C415.231 344.785 415.629 345.337 416.426 345.337C417.208 345.337 417.599 344.785 417.599 343.681C417.599 342.592 417.208 342.047 416.426 342.047Z" fill="#FF531D"/>
</g>
<path d="M359.448 309.488C360.089 309.76 360.595 310.173 360.965 310.728C361.335 311.283 361.52 311.906 361.52 312.597C361.52 313.596 361.168 314.447 360.465 315.15C359.762 315.854 358.911 316.205 357.912 316.205H352.268V303.253H357.486C358.436 303.253 359.256 303.598 359.947 304.289C360.626 304.967 360.965 305.781 360.965 306.731C360.965 307.94 360.459 308.859 359.448 309.488ZM357.486 304.474H353.563V308.989H357.486C358.078 308.989 358.59 308.773 359.022 308.341C359.454 307.885 359.67 307.348 359.67 306.731C359.67 306.127 359.454 305.596 359.022 305.14C358.59 304.696 358.078 304.474 357.486 304.474ZM353.563 314.984H357.912C358.553 314.984 359.096 314.756 359.54 314.299C359.996 313.843 360.225 313.275 360.225 312.597C360.225 311.931 359.996 311.369 359.54 310.913C359.096 310.444 358.553 310.21 357.912 310.21H353.563V314.984ZM371.31 315.039C370.361 315.965 369.213 316.427 367.869 316.427C366.5 316.427 365.346 315.965 364.409 315.039C363.471 314.102 363.002 312.948 363.002 311.579C363.002 310.21 363.471 309.063 364.409 308.138C365.346 307.2 366.5 306.731 367.869 306.731C369.226 306.731 370.373 307.2 371.31 308.138C372.26 309.063 372.735 310.21 372.735 311.579C372.735 312.936 372.26 314.09 371.31 315.039ZM365.278 314.188C365.981 314.891 366.845 315.243 367.869 315.243C368.893 315.243 369.756 314.891 370.459 314.188C371.162 313.46 371.514 312.591 371.514 311.579C371.514 310.555 371.162 309.692 370.459 308.989C369.756 308.273 368.893 307.915 367.869 307.915C366.845 307.915 365.981 308.273 365.278 308.989C364.575 309.692 364.224 310.555 364.224 311.579C364.224 312.591 364.575 313.46 365.278 314.188ZM379.109 306.731C380.219 306.731 381.101 307.077 381.755 307.767C382.409 308.446 382.735 309.365 382.735 310.524V316.205H381.514V310.524C381.514 309.698 381.292 309.057 380.848 308.6C380.416 308.144 379.8 307.915 378.998 307.915C378.073 307.915 377.339 308.205 376.796 308.785C376.265 309.365 376 310.222 376 311.357V316.205H374.779V306.953H376V308.397C376.691 307.286 377.727 306.731 379.109 306.731ZM393.053 308.767V303.253H394.275V316.205H393.053V314.392C392.202 315.749 390.956 316.427 389.316 316.427C387.996 316.427 386.867 315.958 385.929 315.021C385.004 314.083 384.542 312.936 384.542 311.579C384.542 310.222 385.004 309.075 385.929 308.138C386.867 307.2 387.996 306.731 389.316 306.731C390.956 306.731 392.202 307.41 393.053 308.767ZM386.818 314.188C387.521 314.891 388.384 315.243 389.408 315.243C390.432 315.243 391.295 314.891 391.999 314.188C392.702 313.46 393.053 312.591 393.053 311.579C393.053 310.555 392.702 309.692 391.999 308.989C391.295 308.273 390.432 307.915 389.408 307.915C388.384 307.915 387.521 308.273 386.818 308.989C386.114 309.692 385.763 310.555 385.763 311.579C385.763 312.591 386.114 313.46 386.818 314.188ZM397.822 309.377C397.822 310.093 398.458 310.617 399.728 310.95C400.086 311.036 400.32 311.098 400.431 311.135C400.542 311.16 400.758 311.228 401.079 311.339C401.412 311.437 401.64 311.524 401.764 311.598C401.899 311.672 402.084 311.789 402.319 311.949C402.553 312.097 402.72 312.251 402.818 312.412C402.917 312.56 403.01 312.757 403.096 313.004C403.182 313.238 403.225 313.491 403.225 313.763C403.225 314.552 402.911 315.194 402.282 315.687C401.677 316.18 400.876 316.427 399.876 316.427C399.013 316.427 398.267 316.236 397.637 315.854C397.008 315.459 396.564 314.941 396.305 314.299L397.341 313.689C397.514 314.17 397.822 314.552 398.267 314.836C398.723 315.107 399.26 315.243 399.876 315.243C400.505 315.243 401.017 315.12 401.412 314.873C401.807 314.626 402.004 314.256 402.004 313.763C402.004 313.047 401.369 312.523 400.098 312.19C399.741 312.103 399.506 312.048 399.395 312.023C399.284 311.986 399.062 311.918 398.729 311.82C398.408 311.709 398.18 311.616 398.044 311.542C397.921 311.468 397.742 311.357 397.508 311.209C397.273 311.049 397.107 310.895 397.008 310.747C396.91 310.586 396.817 310.389 396.731 310.154C396.644 309.908 396.601 309.649 396.601 309.377C396.601 308.625 396.897 307.996 397.489 307.49C398.106 306.984 398.865 306.731 399.765 306.731C400.505 306.731 401.159 306.898 401.727 307.231C402.306 307.564 402.732 308.027 403.003 308.619L401.986 309.211C401.64 308.347 400.9 307.915 399.765 307.915C399.21 307.915 398.748 308.045 398.378 308.304C398.007 308.563 397.822 308.921 397.822 309.377Z" fill="#CCD2D7"/>
<g filter="url(#filter7_b_6432_12228)">
<path d="M357.332 176.49H397.423V269.008C397.423 271.279 395.582 273.12 393.311 273.12H361.444C359.173 273.12 357.332 271.279 357.332 269.008V176.49Z" fill="#FF531D" fill-opacity="0.5"/>
<path d="M357.846 177.004H396.909V269.008C396.909 270.995 395.298 272.606 393.311 272.606H361.444C359.457 272.606 357.846 270.995 357.846 269.008V177.004Z" stroke="url(#paint4_linear_6432_12228)" stroke-width="1.02797"/>
</g>
<g filter="url(#filter8_d_6432_12228)">
<path d="M564.866 47.8472V44.1342H571.803V65.1172H567.658V47.8472H564.866ZM575.611 61.03V57.8638L585.023 44.3932H589.715V57.5184H592.248V61.03H589.715V65.1172H585.685V61.03H575.611ZM585.944 48.7107L580.044 57.5184H585.944V48.7107ZM599.678 60.886L596.31 68.9741H593.72L595.591 60.886H599.678ZM603.388 60.5694C605.23 59.0343 606.698 57.7583 607.792 56.7413C608.886 55.7051 609.797 54.6305 610.526 53.5175C611.256 52.4046 611.62 51.3108 611.62 50.2362C611.62 49.2576 611.39 48.49 610.929 47.9336C610.469 47.3771 609.759 47.0988 608.799 47.0988C607.84 47.0988 607.101 47.4251 606.583 48.0775C606.065 48.7107 605.796 49.5838 605.777 50.6968H601.863C601.939 48.3941 602.621 46.6479 603.906 45.4582C605.211 44.2685 606.861 43.6736 608.857 43.6736C611.045 43.6736 612.724 44.2589 613.894 45.4294C615.065 46.5808 615.65 48.1063 615.65 50.006C615.65 51.5027 615.247 52.9323 614.441 54.2947C613.635 55.6571 612.714 56.8468 611.678 57.8638C610.642 58.8616 609.289 60.0705 607.619 61.4905H616.11V64.8294H601.891V61.8359L603.388 60.5694ZM618.189 49.2864C618.189 47.828 618.611 46.6863 619.456 45.8612C620.319 45.036 621.422 44.6235 622.766 44.6235C624.109 44.6235 625.203 45.036 626.047 45.8612C626.91 46.6863 627.342 47.828 627.342 49.2864C627.342 50.7639 626.91 51.9153 626.047 52.7404C625.203 53.5655 624.109 53.9781 622.766 53.9781C621.422 53.9781 620.319 53.5655 619.456 52.7404C618.611 51.9153 618.189 50.7639 618.189 49.2864ZM636.668 44.9689L625.356 65.1172H621.442L632.725 44.9689H636.668ZM622.737 47.0413C621.681 47.0413 621.154 47.7896 621.154 49.2864C621.154 50.8023 621.681 51.5603 622.737 51.5603C623.255 51.5603 623.658 51.378 623.946 51.0134C624.234 50.6296 624.378 50.0539 624.378 49.2864C624.378 47.7896 623.831 47.0413 622.737 47.0413ZM630.825 60.7709C630.825 59.2934 631.247 58.1516 632.091 57.3457C632.955 56.5206 634.058 56.108 635.402 56.108C636.745 56.108 637.829 56.5206 638.654 57.3457C639.498 58.1516 639.92 59.2934 639.92 60.7709C639.92 62.2485 639.498 63.3998 638.654 64.2249C637.829 65.05 636.745 65.4626 635.402 65.4626C634.039 65.4626 632.936 65.05 632.091 64.2249C631.247 63.3998 630.825 62.2485 630.825 60.7709ZM635.373 58.5258C634.279 58.5258 633.732 59.2742 633.732 60.7709C633.732 62.2868 634.279 63.0448 635.373 63.0448C636.447 63.0448 636.985 62.2868 636.985 60.7709C636.985 59.2742 636.447 58.5258 635.373 58.5258Z" fill="#0D6EFD"/>
</g>
<path d="M583.708 7.97674V25H581.981V11.4061L575.912 25H574.654L568.585 11.4554V25H566.858V7.97674H568.683L575.271 22.7302L581.858 7.97674H583.708ZM588.489 8.98827C588.144 8.98827 587.848 8.86491 587.601 8.6182C587.355 8.37148 587.231 8.0672 587.231 7.70535C587.231 7.34351 587.355 7.04745 587.601 6.81718C587.848 6.57047 588.144 6.44711 588.489 6.44711C588.835 6.44711 589.131 6.57047 589.378 6.81718C589.624 7.04745 589.748 7.34351 589.748 7.70535C589.748 8.0672 589.624 8.37148 589.378 8.6182C589.131 8.86491 588.835 8.98827 588.489 8.98827ZM589.353 11.5294V25H587.626V11.5294H589.353ZM592.474 18.24C592.474 16.8584 592.746 15.6495 593.288 14.6133C593.848 13.5607 594.612 12.7548 595.583 12.1955C596.57 11.6199 597.68 11.332 598.914 11.332C600.196 11.332 601.298 11.6281 602.219 12.2202C603.157 12.8123 603.831 13.5689 604.243 14.49V11.5294H605.97V25H604.243V22.0148C603.815 22.9358 603.132 23.7006 602.195 24.3092C601.274 24.9013 600.172 25.1974 598.889 25.1974C597.672 25.1974 596.57 24.9095 595.583 24.3339C594.612 23.7582 593.848 22.9441 593.288 21.8914C592.746 20.8388 592.474 19.6216 592.474 18.24ZM604.243 18.2647C604.243 17.1792 604.02 16.2252 603.576 15.4028C603.132 14.5804 602.524 13.9472 601.751 13.5031C600.994 13.059 600.155 12.837 599.234 12.837C598.28 12.837 597.425 13.0508 596.668 13.4785C595.912 13.9061 595.311 14.5311 594.867 15.3535C594.44 16.1594 594.226 17.1216 594.226 18.24C594.226 19.342 594.44 20.3124 594.867 21.1513C595.311 21.9736 595.912 22.6069 596.668 23.051C597.425 23.4786 598.28 23.6924 599.234 23.6924C600.155 23.6924 600.994 23.4704 601.751 23.0263C602.524 22.5822 603.132 21.949 603.576 21.1266C604.02 20.3042 604.243 19.3503 604.243 18.2647ZM625.949 11.2827C627.528 11.2827 628.81 11.7844 629.797 12.7877C630.801 13.7745 631.302 15.2137 631.302 17.1052V25H629.6V17.3025C629.6 15.8387 629.246 14.7203 628.539 13.9472C627.832 13.1742 626.87 12.7877 625.652 12.7877C624.386 12.7877 623.374 13.2071 622.618 14.0459C621.861 14.8847 621.483 16.1019 621.483 17.6973V25H619.781V17.3025C619.781 15.8387 619.427 14.7203 618.72 13.9472C618.013 13.1742 617.042 12.7877 615.809 12.7877C614.542 12.7877 613.531 13.2071 612.774 14.0459C612.017 14.8847 611.639 16.1019 611.639 17.6973V25H609.912V11.5294H611.639V13.8485C612.067 13.0097 612.675 12.3765 613.465 11.9488C614.254 11.5047 615.134 11.2827 616.105 11.2827C617.272 11.2827 618.292 11.5623 619.164 12.1215C620.052 12.6808 620.694 13.5031 621.088 14.5887C621.45 13.5196 622.067 12.7054 622.939 12.1462C623.827 11.5705 624.83 11.2827 625.949 11.2827ZM636.001 8.98827C635.656 8.98827 635.36 8.86491 635.113 8.6182C634.866 8.37148 634.743 8.0672 634.743 7.70535C634.743 7.34351 634.866 7.04745 635.113 6.81718C635.36 6.57047 635.656 6.44711 636.001 6.44711C636.347 6.44711 636.643 6.57047 636.889 6.81718C637.136 7.04745 637.259 7.34351 637.259 7.70535C637.259 8.0672 637.136 8.37148 636.889 8.6182C636.643 8.86491 636.347 8.98827 636.001 8.98827ZM636.865 11.5294V25H635.138V11.5294H636.865Z" fill="#CCD2D7"/>
<g filter="url(#filter9_b_6432_12228)">
<path d="M575.116 174.434H629.599V88.0838C629.599 85.8128 627.758 83.9718 625.487 83.9718H579.228C576.957 83.9718 575.116 85.8128 575.116 88.0837V174.434Z" fill="#0D6EFD" fill-opacity="0.7"/>
<path d="M575.887 173.663H628.828V88.0838C628.828 86.2386 627.332 84.7428 625.487 84.7428H579.228C577.383 84.7428 575.887 86.2386 575.887 88.0837V173.663Z" stroke="#0D6EFD" stroke-opacity="0.6" stroke-width="1.54196"/>
</g>
<path opacity="0.35" d="M480.1 417.214V427H479.12V417.214H480.1ZM485.903 419.216C486.818 419.216 487.565 419.501 488.143 420.07C488.722 420.63 489.011 421.447 489.011 422.52V427H488.045V422.632C488.045 421.801 487.835 421.167 487.415 420.728C487.005 420.289 486.44 420.07 485.721 420.07C484.984 420.07 484.396 420.303 483.957 420.77C483.519 421.237 483.299 421.923 483.299 422.828V427H482.319V419.356H483.299V420.658C483.542 420.191 483.892 419.837 484.349 419.594C484.807 419.342 485.325 419.216 485.903 419.216ZM494.189 420.182H492.411V427H491.431V420.182H490.367V419.356H491.431V418.824C491.431 417.993 491.641 417.382 492.061 416.99C492.49 416.598 493.181 416.402 494.133 416.402V417.242C493.498 417.242 493.05 417.363 492.789 417.606C492.537 417.849 492.411 418.255 492.411 418.824V419.356H494.189V420.182ZM499.077 427.112C498.359 427.112 497.71 426.953 497.131 426.636C496.562 426.309 496.109 425.852 495.773 425.264C495.447 424.667 495.283 423.971 495.283 423.178C495.283 422.385 495.451 421.694 495.787 421.106C496.123 420.509 496.581 420.051 497.159 419.734C497.738 419.407 498.387 419.244 499.105 419.244C499.824 419.244 500.473 419.407 501.051 419.734C501.639 420.051 502.097 420.509 502.423 421.106C502.759 421.694 502.927 422.385 502.927 423.178C502.927 423.962 502.759 424.653 502.423 425.25C502.087 425.847 501.625 426.309 501.037 426.636C500.449 426.953 499.796 427.112 499.077 427.112ZM499.077 426.258C499.581 426.258 500.048 426.146 500.477 425.922C500.907 425.689 501.252 425.343 501.513 424.886C501.784 424.419 501.919 423.85 501.919 423.178C501.919 422.506 501.789 421.941 501.527 421.484C501.266 421.017 500.921 420.672 500.491 420.448C500.062 420.215 499.595 420.098 499.091 420.098C498.587 420.098 498.121 420.215 497.691 420.448C497.262 420.672 496.917 421.017 496.655 421.484C496.403 421.941 496.277 422.506 496.277 423.178C496.277 423.85 496.403 424.419 496.655 424.886C496.917 425.343 497.257 425.689 497.677 425.922C498.107 426.146 498.573 426.258 499.077 426.258ZM505.694 420.714C505.908 420.238 506.235 419.869 506.674 419.608C507.122 419.347 507.668 419.216 508.312 419.216V420.238H508.046C507.336 420.238 506.767 420.429 506.338 420.812C505.908 421.195 505.694 421.834 505.694 422.73V427H504.714V419.356H505.694V420.714ZM518.886 419.216C519.782 419.216 520.51 419.501 521.07 420.07C521.639 420.63 521.924 421.447 521.924 422.52V427H520.958V422.632C520.958 421.801 520.757 421.167 520.356 420.728C519.955 420.289 519.409 420.07 518.718 420.07C517.999 420.07 517.425 420.308 516.996 420.784C516.567 421.26 516.352 421.951 516.352 422.856V427H515.386V422.632C515.386 421.801 515.185 421.167 514.784 420.728C514.383 420.289 513.832 420.07 513.132 420.07C512.413 420.07 511.839 420.308 511.41 420.784C510.981 421.26 510.766 421.951 510.766 422.856V427H509.786V419.356H510.766V420.672C511.009 420.196 511.354 419.837 511.802 419.594C512.25 419.342 512.749 419.216 513.3 419.216C513.963 419.216 514.541 419.375 515.036 419.692C515.54 420.009 515.904 420.476 516.128 421.092C516.333 420.485 516.683 420.023 517.178 419.706C517.682 419.379 518.251 419.216 518.886 419.216ZM523.652 423.164C523.652 422.38 523.806 421.694 524.114 421.106C524.432 420.509 524.866 420.051 525.416 419.734C525.976 419.407 526.606 419.244 527.306 419.244C528.034 419.244 528.66 419.412 529.182 419.748C529.714 420.084 530.097 420.513 530.33 421.036V419.356H531.31V427H530.33V425.306C530.088 425.829 529.7 426.263 529.168 426.608C528.646 426.944 528.02 427.112 527.292 427.112C526.602 427.112 525.976 426.949 525.416 426.622C524.866 426.295 524.432 425.833 524.114 425.236C523.806 424.639 523.652 423.948 523.652 423.164ZM530.33 423.178C530.33 422.562 530.204 422.021 529.952 421.554C529.7 421.087 529.355 420.728 528.916 420.476C528.487 420.224 528.011 420.098 527.488 420.098C526.947 420.098 526.462 420.219 526.032 420.462C525.603 420.705 525.262 421.059 525.01 421.526C524.768 421.983 524.646 422.529 524.646 423.164C524.646 423.789 524.768 424.34 525.01 424.816C525.262 425.283 525.603 425.642 526.032 425.894C526.462 426.137 526.947 426.258 527.488 426.258C528.011 426.258 528.487 426.132 528.916 425.88C529.355 425.628 529.7 425.269 529.952 424.802C530.204 424.335 530.33 423.794 530.33 423.178ZM534.822 420.182V424.928C534.822 425.395 534.91 425.717 535.088 425.894C535.265 426.071 535.578 426.16 536.026 426.16H536.922V427H535.872C535.181 427 534.668 426.841 534.332 426.524C533.996 426.197 533.828 425.665 533.828 424.928V420.182H532.764V419.356H533.828V417.438H534.822V419.356H536.922V420.182H534.822ZM539.028 417.914C538.832 417.914 538.664 417.844 538.524 417.704C538.384 417.564 538.314 417.391 538.314 417.186C538.314 416.981 538.384 416.813 538.524 416.682C538.664 416.542 538.832 416.472 539.028 416.472C539.224 416.472 539.392 416.542 539.532 416.682C539.672 416.813 539.742 416.981 539.742 417.186C539.742 417.391 539.672 417.564 539.532 417.704C539.392 417.844 539.224 417.914 539.028 417.914ZM539.518 419.356V427H538.538V419.356H539.518ZM545.083 427.112C544.365 427.112 543.716 426.953 543.137 426.636C542.568 426.309 542.115 425.852 541.779 425.264C541.453 424.667 541.289 423.971 541.289 423.178C541.289 422.385 541.457 421.694 541.793 421.106C542.129 420.509 542.587 420.051 543.165 419.734C543.744 419.407 544.393 419.244 545.111 419.244C545.83 419.244 546.479 419.407 547.057 419.734C547.645 420.051 548.103 420.509 548.429 421.106C548.765 421.694 548.933 422.385 548.933 423.178C548.933 423.962 548.765 424.653 548.429 425.25C548.093 425.847 547.631 426.309 547.043 426.636C546.455 426.953 545.802 427.112 545.083 427.112ZM545.083 426.258C545.587 426.258 546.054 426.146 546.483 425.922C546.913 425.689 547.258 425.343 547.519 424.886C547.79 424.419 547.925 423.85 547.925 423.178C547.925 422.506 547.795 421.941 547.533 421.484C547.272 421.017 546.927 420.672 546.497 420.448C546.068 420.215 545.601 420.098 545.097 420.098C544.593 420.098 544.127 420.215 543.697 420.448C543.268 420.672 542.923 421.017 542.661 421.484C542.409 421.941 542.283 422.506 542.283 423.178C542.283 423.85 542.409 424.419 542.661 424.886C542.923 425.343 543.263 425.689 543.683 425.922C544.113 426.146 544.579 426.258 545.083 426.258ZM554.304 419.216C555.218 419.216 555.965 419.501 556.544 420.07C557.122 420.63 557.412 421.447 557.412 422.52V427H556.446V422.632C556.446 421.801 556.236 421.167 555.816 420.728C555.405 420.289 554.84 420.07 554.122 420.07C553.384 420.07 552.796 420.303 552.358 420.77C551.919 421.237 551.7 421.923 551.7 422.828V427H550.72V419.356H551.7V420.658C551.942 420.191 552.292 419.837 552.75 419.594C553.207 419.342 553.725 419.216 554.304 419.216ZM562.973 423.178C562.973 422.385 563.131 421.694 563.449 421.106C563.766 420.509 564.205 420.051 564.765 419.734C565.325 419.407 565.964 419.244 566.683 419.244C567.625 419.244 568.4 419.477 569.007 419.944C569.623 420.411 570.019 421.045 570.197 421.848H569.147C569.016 421.297 568.731 420.868 568.293 420.56C567.863 420.243 567.327 420.084 566.683 420.084C566.169 420.084 565.707 420.201 565.297 420.434C564.886 420.667 564.559 421.017 564.317 421.484C564.083 421.941 563.967 422.506 563.967 423.178C563.967 423.85 564.083 424.419 564.317 424.886C564.559 425.353 564.886 425.703 565.297 425.936C565.707 426.169 566.169 426.286 566.683 426.286C567.327 426.286 567.863 426.132 568.293 425.824C568.731 425.507 569.016 425.068 569.147 424.508H570.197C570.019 425.292 569.623 425.922 569.007 426.398C568.391 426.874 567.616 427.112 566.683 427.112C565.964 427.112 565.325 426.953 564.765 426.636C564.205 426.309 563.766 425.852 563.449 425.264C563.131 424.667 562.973 423.971 562.973 423.178ZM575.353 427.112C574.634 427.112 573.985 426.953 573.407 426.636C572.837 426.309 572.385 425.852 572.049 425.264C571.722 424.667 571.559 423.971 571.559 423.178C571.559 422.385 571.727 421.694 572.063 421.106C572.399 420.509 572.856 420.051 573.435 419.734C574.013 419.407 574.662 419.244 575.381 419.244C576.099 419.244 576.748 419.407 577.327 419.734C577.915 420.051 578.372 420.509 578.699 421.106C579.035 421.694 579.203 422.385 579.203 423.178C579.203 423.962 579.035 424.653 578.699 425.25C578.363 425.847 577.901 426.309 577.313 426.636C576.725 426.953 576.071 427.112 575.353 427.112ZM575.353 426.258C575.857 426.258 576.323 426.146 576.753 425.922C577.182 425.689 577.527 425.343 577.789 424.886C578.059 424.419 578.195 423.85 578.195 423.178C578.195 422.506 578.064 421.941 577.803 421.484C577.541 421.017 577.196 420.672 576.767 420.448C576.337 420.215 575.871 420.098 575.367 420.098C574.863 420.098 574.396 420.215 573.967 420.448C573.537 420.672 573.192 421.017 572.931 421.484C572.679 421.941 572.553 422.506 572.553 423.178C572.553 423.85 572.679 424.419 572.931 424.886C573.192 425.343 573.533 425.689 573.953 425.922C574.382 426.146 574.849 426.258 575.353 426.258ZM581.969 420.714C582.184 420.238 582.51 419.869 582.949 419.608C583.397 419.347 583.943 419.216 584.587 419.216V420.238H584.321C583.612 420.238 583.042 420.429 582.613 420.812C582.184 421.195 581.969 421.834 581.969 422.73V427H580.989V419.356H581.969V420.714ZM587.041 420.714C587.256 420.238 587.583 419.869 588.021 419.608C588.469 419.347 589.015 419.216 589.659 419.216V420.238H589.393C588.684 420.238 588.115 420.429 587.685 420.812C587.256 421.195 587.041 421.834 587.041 422.73V427H586.061V419.356H587.041V420.714ZM598.05 422.786C598.05 423.122 598.04 423.379 598.022 423.556H591.68C591.708 424.135 591.848 424.629 592.1 425.04C592.352 425.451 592.683 425.763 593.094 425.978C593.504 426.183 593.952 426.286 594.438 426.286C595.072 426.286 595.604 426.132 596.034 425.824C596.472 425.516 596.762 425.101 596.902 424.578H597.938C597.751 425.325 597.35 425.936 596.734 426.412C596.127 426.879 595.362 427.112 594.438 427.112C593.719 427.112 593.075 426.953 592.506 426.636C591.936 426.309 591.488 425.852 591.162 425.264C590.844 424.667 590.686 423.971 590.686 423.178C590.686 422.385 590.844 421.689 591.162 421.092C591.479 420.495 591.922 420.037 592.492 419.72C593.061 419.403 593.71 419.244 594.438 419.244C595.166 419.244 595.8 419.403 596.342 419.72C596.892 420.037 597.312 420.467 597.602 421.008C597.9 421.54 598.05 422.133 598.05 422.786ZM597.056 422.758C597.065 422.189 596.948 421.703 596.706 421.302C596.472 420.901 596.15 420.597 595.74 420.392C595.329 420.187 594.881 420.084 594.396 420.084C593.668 420.084 593.047 420.317 592.534 420.784C592.02 421.251 591.736 421.909 591.68 422.758H597.056ZM602.475 427.112C601.597 427.112 600.879 426.911 600.319 426.51C599.768 426.099 599.46 425.544 599.395 424.844H600.403C600.449 425.273 600.65 425.623 601.005 425.894C601.369 426.155 601.854 426.286 602.461 426.286C602.993 426.286 603.408 426.16 603.707 425.908C604.015 425.656 604.169 425.343 604.169 424.97C604.169 424.709 604.085 424.494 603.917 424.326C603.749 424.158 603.534 424.027 603.273 423.934C603.021 423.831 602.675 423.724 602.237 423.612C601.667 423.463 601.205 423.313 600.851 423.164C600.496 423.015 600.193 422.795 599.941 422.506C599.698 422.207 599.577 421.811 599.577 421.316C599.577 420.943 599.689 420.597 599.913 420.28C600.137 419.963 600.454 419.711 600.865 419.524C601.275 419.337 601.742 419.244 602.265 419.244C603.086 419.244 603.749 419.454 604.253 419.874C604.757 420.285 605.027 420.854 605.065 421.582H604.085C604.057 421.134 603.879 420.775 603.553 420.504C603.235 420.224 602.797 420.084 602.237 420.084C601.742 420.084 601.341 420.201 601.033 420.434C600.725 420.667 600.571 420.957 600.571 421.302C600.571 421.601 600.659 421.848 600.837 422.044C601.023 422.231 601.252 422.38 601.523 422.492C601.793 422.595 602.157 422.711 602.615 422.842C603.165 422.991 603.604 423.136 603.931 423.276C604.257 423.416 604.537 423.621 604.771 423.892C605.004 424.163 605.125 424.522 605.135 424.97C605.135 425.381 605.023 425.749 604.799 426.076C604.575 426.393 604.262 426.645 603.861 426.832C603.459 427.019 602.997 427.112 602.475 427.112ZM607.945 421.036C608.188 420.523 608.571 420.098 609.093 419.762C609.625 419.417 610.255 419.244 610.983 419.244C611.674 419.244 612.295 419.407 612.845 419.734C613.405 420.051 613.839 420.509 614.147 421.106C614.465 421.694 614.623 422.38 614.623 423.164C614.623 423.948 614.465 424.639 614.147 425.236C613.839 425.833 613.405 426.295 612.845 426.622C612.295 426.949 611.674 427.112 610.983 427.112C610.265 427.112 609.639 426.944 609.107 426.608C608.575 426.263 608.188 425.833 607.945 425.32V430.612H606.979V419.356H607.945V421.036ZM613.629 423.164C613.629 422.529 613.503 421.983 613.251 421.526C613.009 421.059 612.673 420.705 612.243 420.462C611.814 420.219 611.329 420.098 610.787 420.098C610.265 420.098 609.784 420.224 609.345 420.476C608.916 420.728 608.575 421.087 608.323 421.554C608.071 422.021 607.945 422.562 607.945 423.178C607.945 423.794 608.071 424.335 608.323 424.802C608.575 425.269 608.916 425.628 609.345 425.88C609.784 426.132 610.265 426.258 610.787 426.258C611.329 426.258 611.814 426.137 612.243 425.894C612.673 425.642 613.009 425.283 613.251 424.816C613.503 424.34 613.629 423.789 613.629 423.164ZM619.773 427.112C619.054 427.112 618.405 426.953 617.827 426.636C617.257 426.309 616.805 425.852 616.469 425.264C616.142 424.667 615.979 423.971 615.979 423.178C615.979 422.385 616.147 421.694 616.483 421.106C616.819 420.509 617.276 420.051 617.855 419.734C618.433 419.407 619.082 419.244 619.801 419.244C620.519 419.244 621.168 419.407 621.747 419.734C622.335 420.051 622.792 420.509 623.119 421.106C623.455 421.694 623.623 422.385 623.623 423.178C623.623 423.962 623.455 424.653 623.119 425.25C622.783 425.847 622.321 426.309 621.733 426.636C621.145 426.953 620.491 427.112 619.773 427.112ZM619.773 426.258C620.277 426.258 620.743 426.146 621.173 425.922C621.602 425.689 621.947 425.343 622.209 424.886C622.479 424.419 622.615 423.85 622.615 423.178C622.615 422.506 622.484 421.941 622.223 421.484C621.961 421.017 621.616 420.672 621.187 420.448C620.757 420.215 620.291 420.098 619.787 420.098C619.283 420.098 618.816 420.215 618.387 420.448C617.957 420.672 617.612 421.017 617.351 421.484C617.099 421.941 616.973 422.506 616.973 423.178C616.973 423.85 617.099 424.419 617.351 424.886C617.612 425.343 617.953 425.689 618.373 425.922C618.802 426.146 619.269 426.258 619.773 426.258ZM628.993 419.216C629.908 419.216 630.654 419.501 631.233 420.07C631.812 420.63 632.101 421.447 632.101 422.52V427H631.135V422.632C631.135 421.801 630.925 421.167 630.505 420.728C630.094 420.289 629.53 420.07 628.811 420.07C628.074 420.07 627.486 420.303 627.047 420.77C626.608 421.237 626.389 421.923 626.389 422.828V427H625.409V419.356H626.389V420.658C626.632 420.191 626.982 419.837 627.439 419.594C627.896 419.342 628.414 419.216 628.993 419.216ZM633.82 423.164C633.82 422.38 633.979 421.694 634.296 421.106C634.614 420.509 635.048 420.051 635.598 419.734C636.158 419.407 636.788 419.244 637.488 419.244C638.16 419.244 638.767 419.407 639.308 419.734C639.85 420.061 640.246 420.485 640.498 421.008V416.64H641.478V427H640.498V425.292C640.265 425.824 639.882 426.263 639.35 426.608C638.818 426.944 638.193 427.112 637.474 427.112C636.774 427.112 636.144 426.949 635.584 426.622C635.034 426.295 634.6 425.833 634.282 425.236C633.974 424.639 633.82 423.948 633.82 423.164ZM640.498 423.178C640.498 422.562 640.372 422.021 640.12 421.554C639.868 421.087 639.523 420.728 639.084 420.476C638.655 420.224 638.179 420.098 637.656 420.098C637.115 420.098 636.63 420.219 636.2 420.462C635.771 420.705 635.43 421.059 635.178 421.526C634.936 421.983 634.814 422.529 634.814 423.164C634.814 423.789 634.936 424.34 635.178 424.816C635.43 425.283 635.771 425.642 636.2 425.894C636.63 426.137 637.115 426.258 637.656 426.258C638.179 426.258 638.655 426.132 639.084 425.88C639.523 425.628 639.868 425.269 640.12 424.802C640.372 424.335 640.498 423.794 640.498 423.178ZM644.206 417.914C644.01 417.914 643.842 417.844 643.702 417.704C643.562 417.564 643.492 417.391 643.492 417.186C643.492 416.981 643.562 416.813 643.702 416.682C643.842 416.542 644.01 416.472 644.206 416.472C644.402 416.472 644.57 416.542 644.71 416.682C644.85 416.813 644.92 416.981 644.92 417.186C644.92 417.391 644.85 417.564 644.71 417.704C644.57 417.844 644.402 417.914 644.206 417.914ZM644.696 419.356V427H643.716V419.356H644.696ZM650.499 419.216C651.414 419.216 652.16 419.501 652.739 420.07C653.318 420.63 653.607 421.447 653.607 422.52V427H652.641V422.632C652.641 421.801 652.431 421.167 652.011 420.728C651.6 420.289 651.036 420.07 650.317 420.07C649.58 420.07 648.992 420.303 648.553 420.77C648.114 421.237 647.895 421.923 647.895 422.828V427H646.915V419.356H647.895V420.658C648.138 420.191 648.488 419.837 648.945 419.594C649.402 419.342 649.92 419.216 650.499 419.216ZM658.98 419.244C659.699 419.244 660.324 419.412 660.856 419.748C661.388 420.084 661.771 420.509 662.004 421.022V419.356H662.984V427.196C662.984 427.896 662.83 428.517 662.522 429.058C662.224 429.599 661.804 430.015 661.262 430.304C660.721 430.603 660.105 430.752 659.414 430.752C658.434 430.752 657.618 430.519 656.964 430.052C656.32 429.585 655.919 428.951 655.76 428.148H656.726C656.894 428.68 657.212 429.105 657.678 429.422C658.154 429.739 658.733 429.898 659.414 429.898C659.909 429.898 660.352 429.791 660.744 429.576C661.136 429.371 661.444 429.063 661.668 428.652C661.892 428.241 662.004 427.756 662.004 427.196V425.306C661.762 425.829 661.374 426.263 660.842 426.608C660.32 426.944 659.699 427.112 658.98 427.112C658.28 427.112 657.65 426.949 657.09 426.622C656.54 426.295 656.106 425.833 655.788 425.236C655.48 424.639 655.326 423.948 655.326 423.164C655.326 422.38 655.48 421.694 655.788 421.106C656.106 420.509 656.54 420.051 657.09 419.734C657.65 419.407 658.28 419.244 658.98 419.244ZM662.004 423.178C662.004 422.562 661.878 422.021 661.626 421.554C661.374 421.087 661.029 420.728 660.59 420.476C660.161 420.224 659.685 420.098 659.162 420.098C658.621 420.098 658.136 420.219 657.706 420.462C657.277 420.705 656.936 421.059 656.684 421.526C656.442 421.983 656.32 422.529 656.32 423.164C656.32 423.789 656.442 424.34 656.684 424.816C656.936 425.283 657.277 425.642 657.706 425.894C658.136 426.137 658.621 426.258 659.162 426.258C659.685 426.258 660.161 426.132 660.59 425.88C661.029 425.628 661.374 425.269 661.626 424.802C661.878 424.335 662.004 423.794 662.004 423.178ZM480.394 441.182V445.928C480.394 446.395 480.483 446.717 480.66 446.894C480.837 447.071 481.15 447.16 481.598 447.16H482.494V448H481.444C480.753 448 480.24 447.841 479.904 447.524C479.568 447.197 479.4 446.665 479.4 445.928V441.182H478.336V440.356H479.4V438.438H480.394V440.356H482.494V441.182H480.394ZM487.456 448.112C486.738 448.112 486.089 447.953 485.51 447.636C484.941 447.309 484.488 446.852 484.152 446.264C483.826 445.667 483.662 444.971 483.662 444.178C483.662 443.385 483.83 442.694 484.166 442.106C484.502 441.509 484.96 441.051 485.538 440.734C486.117 440.407 486.766 440.244 487.484 440.244C488.203 440.244 488.852 440.407 489.43 440.734C490.018 441.051 490.476 441.509 490.802 442.106C491.138 442.694 491.306 443.385 491.306 444.178C491.306 444.962 491.138 445.653 490.802 446.25C490.466 446.847 490.004 447.309 489.416 447.636C488.828 447.953 488.175 448.112 487.456 448.112ZM487.456 447.258C487.96 447.258 488.427 447.146 488.856 446.922C489.286 446.689 489.631 446.343 489.892 445.886C490.163 445.419 490.298 444.85 490.298 444.178C490.298 443.506 490.168 442.941 489.906 442.484C489.645 442.017 489.3 441.672 488.87 441.448C488.441 441.215 487.974 441.098 487.47 441.098C486.966 441.098 486.5 441.215 486.07 441.448C485.641 441.672 485.296 442.017 485.034 442.484C484.782 442.941 484.656 443.506 484.656 444.178C484.656 444.85 484.782 445.419 485.034 445.886C485.296 446.343 485.636 446.689 486.056 446.922C486.486 447.146 486.952 447.258 487.456 447.258ZM498.208 441.182V445.928C498.208 446.395 498.297 446.717 498.474 446.894C498.652 447.071 498.964 447.16 499.412 447.16H500.308V448H499.258C498.568 448 498.054 447.841 497.718 447.524C497.382 447.197 497.214 446.665 497.214 445.928V441.182H496.15V440.356H497.214V438.438H498.208V440.356H500.308V441.182H498.208ZM505.565 440.216C506.143 440.216 506.661 440.337 507.119 440.58C507.585 440.823 507.949 441.196 508.211 441.7C508.481 442.195 508.617 442.801 508.617 443.52V448H507.651V443.632C507.651 442.801 507.441 442.167 507.021 441.728C506.61 441.289 506.045 441.07 505.327 441.07C504.589 441.07 504.001 441.303 503.563 441.77C503.124 442.237 502.905 442.923 502.905 443.828V448H501.925V437.64H502.905V441.658C503.147 441.201 503.502 440.846 503.969 440.594C504.445 440.342 504.977 440.216 505.565 440.216ZM517.7 443.786C517.7 444.122 517.691 444.379 517.672 444.556H511.33C511.358 445.135 511.498 445.629 511.75 446.04C512.002 446.451 512.333 446.763 512.744 446.978C513.155 447.183 513.603 447.286 514.088 447.286C514.723 447.286 515.255 447.132 515.684 446.824C516.123 446.516 516.412 446.101 516.552 445.578H517.588C517.401 446.325 517 446.936 516.384 447.412C515.777 447.879 515.012 448.112 514.088 448.112C513.369 448.112 512.725 447.953 512.156 447.636C511.587 447.309 511.139 446.852 510.812 446.264C510.495 445.667 510.336 444.971 510.336 444.178C510.336 443.385 510.495 442.689 510.812 442.092C511.129 441.495 511.573 441.037 512.142 440.72C512.711 440.403 513.36 440.244 514.088 440.244C514.816 440.244 515.451 440.403 515.992 440.72C516.543 441.037 516.963 441.467 517.252 442.008C517.551 442.54 517.7 443.133 517.7 443.786ZM516.706 443.758C516.715 443.189 516.599 442.703 516.356 442.302C516.123 441.901 515.801 441.597 515.39 441.392C514.979 441.187 514.531 441.084 514.046 441.084C513.318 441.084 512.697 441.317 512.184 441.784C511.671 442.251 511.386 442.909 511.33 443.758H516.706ZM524.301 442.036C524.544 441.523 524.926 441.098 525.449 440.762C525.981 440.417 526.611 440.244 527.339 440.244C528.03 440.244 528.65 440.407 529.201 440.734C529.761 441.051 530.195 441.509 530.503 442.106C530.82 442.694 530.979 443.38 530.979 444.164C530.979 444.948 530.82 445.639 530.503 446.236C530.195 446.833 529.761 447.295 529.201 447.622C528.65 447.949 528.03 448.112 527.339 448.112C526.62 448.112 525.995 447.944 525.463 447.608C524.931 447.263 524.544 446.833 524.301 446.32V451.612H523.335V440.356H524.301V442.036ZM529.985 444.164C529.985 443.529 529.859 442.983 529.607 442.526C529.364 442.059 529.028 441.705 528.599 441.462C528.17 441.219 527.684 441.098 527.143 441.098C526.62 441.098 526.14 441.224 525.701 441.476C525.272 441.728 524.931 442.087 524.679 442.554C524.427 443.021 524.301 443.562 524.301 444.178C524.301 444.794 524.427 445.335 524.679 445.802C524.931 446.269 525.272 446.628 525.701 446.88C526.14 447.132 526.62 447.258 527.143 447.258C527.684 447.258 528.17 447.137 528.599 446.894C529.028 446.642 529.364 446.283 529.607 445.816C529.859 445.34 529.985 444.789 529.985 444.164ZM539.698 443.786C539.698 444.122 539.689 444.379 539.67 444.556H533.328C533.356 445.135 533.496 445.629 533.748 446.04C534 446.451 534.331 446.763 534.742 446.978C535.153 447.183 535.601 447.286 536.086 447.286C536.721 447.286 537.253 447.132 537.682 446.824C538.121 446.516 538.41 446.101 538.55 445.578H539.586C539.399 446.325 538.998 446.936 538.382 447.412C537.775 447.879 537.01 448.112 536.086 448.112C535.367 448.112 534.723 447.953 534.154 447.636C533.585 447.309 533.137 446.852 532.81 446.264C532.493 445.667 532.334 444.971 532.334 444.178C532.334 443.385 532.493 442.689 532.81 442.092C533.127 441.495 533.571 441.037 534.14 440.72C534.709 440.403 535.358 440.244 536.086 440.244C536.814 440.244 537.449 440.403 537.99 440.72C538.541 441.037 538.961 441.467 539.25 442.008C539.549 442.54 539.698 443.133 539.698 443.786ZM538.704 443.758C538.713 443.189 538.597 442.703 538.354 442.302C538.121 441.901 537.799 441.597 537.388 441.392C536.977 441.187 536.529 441.084 536.044 441.084C535.316 441.084 534.695 441.317 534.182 441.784C533.669 442.251 533.384 442.909 533.328 443.758H538.704ZM542.471 441.714C542.686 441.238 543.012 440.869 543.451 440.608C543.899 440.347 544.445 440.216 545.089 440.216V441.238H544.823C544.114 441.238 543.544 441.429 543.115 441.812C542.686 442.195 542.471 442.834 542.471 443.73V448H541.491V440.356H542.471V441.714ZM547.053 438.914C546.857 438.914 546.689 438.844 546.549 438.704C546.409 438.564 546.339 438.391 546.339 438.186C546.339 437.981 546.409 437.813 546.549 437.682C546.689 437.542 546.857 437.472 547.053 437.472C547.249 437.472 547.417 437.542 547.557 437.682C547.697 437.813 547.767 437.981 547.767 438.186C547.767 438.391 547.697 438.564 547.557 438.704C547.417 438.844 547.249 438.914 547.053 438.914ZM547.543 440.356V448H546.563V440.356H547.543ZM553.109 448.112C552.39 448.112 551.741 447.953 551.163 447.636C550.593 447.309 550.141 446.852 549.805 446.264C549.478 445.667 549.315 444.971 549.315 444.178C549.315 443.385 549.483 442.694 549.819 442.106C550.155 441.509 550.612 441.051 551.191 440.734C551.769 440.407 552.418 440.244 553.137 440.244C553.855 440.244 554.504 440.407 555.083 440.734C555.671 441.051 556.128 441.509 556.455 442.106C556.791 442.694 556.959 443.385 556.959 444.178C556.959 444.962 556.791 445.653 556.455 446.25C556.119 446.847 555.657 447.309 555.069 447.636C554.481 447.953 553.827 448.112 553.109 448.112ZM553.109 447.258C553.613 447.258 554.079 447.146 554.509 446.922C554.938 446.689 555.283 446.343 555.545 445.886C555.815 445.419 555.951 444.85 555.951 444.178C555.951 443.506 555.82 442.941 555.559 442.484C555.297 442.017 554.952 441.672 554.523 441.448C554.093 441.215 553.627 441.098 553.123 441.098C552.619 441.098 552.152 441.215 551.723 441.448C551.293 441.672 550.948 442.017 550.687 442.484C550.435 442.941 550.309 443.506 550.309 444.178C550.309 444.85 550.435 445.419 550.687 445.886C550.948 446.343 551.289 446.689 551.709 446.922C552.138 447.146 552.605 447.258 553.109 447.258ZM558.297 444.164C558.297 443.38 558.456 442.694 558.773 442.106C559.09 441.509 559.524 441.051 560.075 440.734C560.635 440.407 561.265 440.244 561.965 440.244C562.637 440.244 563.244 440.407 563.785 440.734C564.326 441.061 564.723 441.485 564.975 442.008V437.64H565.955V448H564.975V446.292C564.742 446.824 564.359 447.263 563.827 447.608C563.295 447.944 562.67 448.112 561.951 448.112C561.251 448.112 560.621 447.949 560.061 447.622C559.51 447.295 559.076 446.833 558.759 446.236C558.451 445.639 558.297 444.948 558.297 444.164ZM564.975 444.178C564.975 443.562 564.849 443.021 564.597 442.554C564.345 442.087 564 441.728 563.561 441.476C563.132 441.224 562.656 441.098 562.133 441.098C561.592 441.098 561.106 441.219 560.677 441.462C560.248 441.705 559.907 442.059 559.655 442.526C559.412 442.983 559.291 443.529 559.291 444.164C559.291 444.789 559.412 445.34 559.655 445.816C559.907 446.283 560.248 446.642 560.677 446.894C561.106 447.137 561.592 447.258 562.133 447.258C562.656 447.258 563.132 447.132 563.561 446.88C564 446.628 564.345 446.269 564.597 445.802C564.849 445.335 564.975 444.794 564.975 444.178ZM579.412 448H578.432L573.014 439.768V448H572.034V438.214H573.014L578.432 446.432V438.214H579.412V448ZM584.978 448.112C584.259 448.112 583.61 447.953 583.032 447.636C582.462 447.309 582.01 446.852 581.674 446.264C581.347 445.667 581.184 444.971 581.184 444.178C581.184 443.385 581.352 442.694 581.688 442.106C582.024 441.509 582.481 441.051 583.06 440.734C583.638 440.407 584.287 440.244 585.006 440.244C585.724 440.244 586.373 440.407 586.952 440.734C587.54 441.051 587.997 441.509 588.324 442.106C588.66 442.694 588.828 443.385 588.828 444.178C588.828 444.962 588.66 445.653 588.324 446.25C587.988 446.847 587.526 447.309 586.938 447.636C586.35 447.953 585.696 448.112 584.978 448.112ZM584.978 447.258C585.482 447.258 585.948 447.146 586.378 446.922C586.807 446.689 587.152 446.343 587.414 445.886C587.684 445.419 587.82 444.85 587.82 444.178C587.82 443.506 587.689 442.941 587.428 442.484C587.166 442.017 586.821 441.672 586.392 441.448C585.962 441.215 585.496 441.098 584.992 441.098C584.488 441.098 584.021 441.215 583.592 441.448C583.162 441.672 582.817 442.017 582.556 442.484C582.304 442.941 582.178 443.506 582.178 444.178C582.178 444.85 582.304 445.419 582.556 445.886C582.817 446.343 583.158 446.689 583.578 446.922C584.007 447.146 584.474 447.258 584.978 447.258ZM593.33 447.048L595.906 440.356H596.942L593.876 448H592.77L589.704 440.356H590.754L593.33 447.048ZM605.186 443.786C605.186 444.122 605.177 444.379 605.158 444.556H598.816C598.844 445.135 598.984 445.629 599.236 446.04C599.488 446.451 599.82 446.763 600.23 446.978C600.641 447.183 601.089 447.286 601.574 447.286C602.209 447.286 602.741 447.132 603.17 446.824C603.609 446.516 603.898 446.101 604.038 445.578H605.074C604.888 446.325 604.486 446.936 603.87 447.412C603.264 447.879 602.498 448.112 601.574 448.112C600.856 448.112 600.212 447.953 599.642 447.636C599.073 447.309 598.625 446.852 598.298 446.264C597.981 445.667 597.822 444.971 597.822 444.178C597.822 443.385 597.981 442.689 598.298 442.092C598.616 441.495 599.059 441.037 599.628 440.72C600.198 440.403 600.846 440.244 601.574 440.244C602.302 440.244 602.937 440.403 603.478 440.72C604.029 441.037 604.449 441.467 604.738 442.008C605.037 442.54 605.186 443.133 605.186 443.786ZM604.192 443.758C604.202 443.189 604.085 442.703 603.842 442.302C603.609 441.901 603.287 441.597 602.876 441.392C602.466 441.187 602.018 441.084 601.532 441.084C600.804 441.084 600.184 441.317 599.67 441.784C599.157 442.251 598.872 442.909 598.816 443.758H604.192ZM616.079 440.216C616.975 440.216 617.703 440.501 618.263 441.07C618.833 441.63 619.117 442.447 619.117 443.52V448H618.151V443.632C618.151 442.801 617.951 442.167 617.549 441.728C617.148 441.289 616.602 441.07 615.911 441.07C615.193 441.07 614.619 441.308 614.189 441.784C613.76 442.26 613.545 442.951 613.545 443.856V448H612.579V443.632C612.579 442.801 612.379 442.167 611.977 441.728C611.576 441.289 611.025 441.07 610.325 441.07C609.607 441.07 609.033 441.308 608.603 441.784C608.174 442.26 607.959 442.951 607.959 443.856V448H606.979V440.356H607.959V441.672C608.202 441.196 608.547 440.837 608.995 440.594C609.443 440.342 609.943 440.216 610.493 440.216C611.156 440.216 611.735 440.375 612.229 440.692C612.733 441.009 613.097 441.476 613.321 442.092C613.527 441.485 613.877 441.023 614.371 440.706C614.875 440.379 615.445 440.216 616.079 440.216ZM622.26 442.05C622.512 441.518 622.899 441.084 623.422 440.748C623.954 440.412 624.579 440.244 625.298 440.244C625.998 440.244 626.623 440.407 627.174 440.734C627.724 441.051 628.154 441.509 628.462 442.106C628.779 442.694 628.938 443.38 628.938 444.164C628.938 444.948 628.779 445.639 628.462 446.236C628.154 446.833 627.72 447.295 627.16 447.622C626.609 447.949 625.988 448.112 625.298 448.112C624.57 448.112 623.94 447.949 623.408 447.622C622.885 447.286 622.502 446.852 622.26 446.32V448H621.294V437.64H622.26V442.05ZM627.944 444.164C627.944 443.529 627.818 442.983 627.566 442.526C627.323 442.059 626.987 441.705 626.558 441.462C626.128 441.219 625.643 441.098 625.102 441.098C624.579 441.098 624.098 441.224 623.66 441.476C623.23 441.728 622.89 442.087 622.638 442.554C622.386 443.021 622.26 443.562 622.26 444.178C622.26 444.794 622.386 445.335 622.638 445.802C622.89 446.269 623.23 446.628 623.66 446.88C624.098 447.132 624.579 447.258 625.102 447.258C625.643 447.258 626.128 447.137 626.558 446.894C626.987 446.642 627.323 446.283 627.566 445.816C627.818 445.34 627.944 444.789 627.944 444.164ZM637.657 443.786C637.657 444.122 637.648 444.379 637.629 444.556H631.287C631.315 445.135 631.455 445.629 631.707 446.04C631.959 446.451 632.29 446.763 632.701 446.978C633.112 447.183 633.56 447.286 634.045 447.286C634.68 447.286 635.212 447.132 635.641 446.824C636.08 446.516 636.369 446.101 636.509 445.578H637.545C637.358 446.325 636.957 446.936 636.341 447.412C635.734 447.879 634.969 448.112 634.045 448.112C633.326 448.112 632.682 447.953 632.113 447.636C631.544 447.309 631.096 446.852 630.769 446.264C630.452 445.667 630.293 444.971 630.293 444.178C630.293 443.385 630.452 442.689 630.769 442.092C631.086 441.495 631.53 441.037 632.099 440.72C632.668 440.403 633.317 440.244 634.045 440.244C634.773 440.244 635.408 440.403 635.949 440.72C636.5 441.037 636.92 441.467 637.209 442.008C637.508 442.54 637.657 443.133 637.657 443.786ZM636.663 443.758C636.672 443.189 636.556 442.703 636.313 442.302C636.08 441.901 635.758 441.597 635.347 441.392C634.936 441.187 634.488 441.084 634.003 441.084C633.275 441.084 632.654 441.317 632.141 441.784C631.628 442.251 631.343 442.909 631.287 443.758H636.663ZM640.43 441.714C640.645 441.238 640.971 440.869 641.41 440.608C641.858 440.347 642.404 440.216 643.048 440.216V441.238H642.782C642.073 441.238 641.503 441.429 641.074 441.812C640.645 442.195 640.43 442.834 640.43 443.73V448H639.45V440.356H640.43V441.714ZM647.958 447.23C649.675 445.942 651.001 444.789 651.934 443.772C652.877 442.745 653.348 441.742 653.348 440.762C653.348 440.118 653.185 439.605 652.858 439.222C652.541 438.83 652.018 438.634 651.29 438.634C650.581 438.634 650.03 438.858 649.638 439.306C649.255 439.745 649.041 440.333 648.994 441.07H648.042C648.098 440.034 648.415 439.231 648.994 438.662C649.582 438.083 650.347 437.794 651.29 437.794C652.195 437.794 652.928 438.051 653.488 438.564C654.048 439.068 654.328 439.787 654.328 440.72C654.328 441.849 653.857 442.946 652.914 444.01C651.981 445.065 650.828 446.096 649.456 447.104H654.636V447.93H647.958V447.23ZM656.166 442.89C656.166 441.285 656.413 440.039 656.908 439.152C657.403 438.265 658.289 437.822 659.568 437.822C660.847 437.822 661.733 438.265 662.228 439.152C662.723 440.039 662.97 441.285 662.97 442.89C662.97 444.523 662.723 445.788 662.228 446.684C661.733 447.58 660.847 448.028 659.568 448.028C658.28 448.028 657.389 447.58 656.894 446.684C656.409 445.788 656.166 444.523 656.166 442.89ZM662.004 442.89C662.004 442.022 661.943 441.289 661.822 440.692C661.701 440.095 661.463 439.614 661.108 439.25C660.753 438.886 660.24 438.704 659.568 438.704C658.896 438.704 658.383 438.886 658.028 439.25C657.673 439.614 657.435 440.095 657.314 440.692C657.193 441.289 657.132 442.022 657.132 442.89C657.132 443.786 657.193 444.537 657.314 445.144C657.435 445.741 657.673 446.222 658.028 446.586C658.383 446.95 658.896 447.132 659.568 447.132C660.24 447.132 660.753 446.95 661.108 446.586C661.463 446.222 661.701 445.741 661.822 445.144C661.943 444.537 662.004 443.786 662.004 442.89ZM664.597 447.23C666.314 445.942 667.639 444.789 668.573 443.772C669.515 442.745 669.987 441.742 669.987 440.762C669.987 440.118 669.823 439.605 669.497 439.222C669.179 438.83 668.657 438.634 667.929 438.634C667.219 438.634 666.669 438.858 666.277 439.306C665.894 439.745 665.679 440.333 665.633 441.07H664.681C664.737 440.034 665.054 439.231 665.633 438.662C666.221 438.083 666.986 437.794 667.929 437.794C668.834 437.794 669.567 438.051 670.127 438.564C670.687 439.068 670.967 439.787 670.967 440.72C670.967 441.849 670.495 442.946 669.553 444.01C668.619 445.065 667.467 446.096 666.095 447.104H671.275V447.93H664.597V447.23ZM672.329 438.844V437.962H674.709V448H673.715V438.844H672.329ZM480.394 462.182V466.928C480.394 467.395 480.483 467.717 480.66 467.894C480.837 468.071 481.15 468.16 481.598 468.16H482.494V469H481.444C480.753 469 480.24 468.841 479.904 468.524C479.568 468.197 479.4 467.665 479.4 466.928V462.182H478.336V461.356H479.4V459.438H480.394V461.356H482.494V462.182H480.394ZM487.456 469.112C486.738 469.112 486.089 468.953 485.51 468.636C484.941 468.309 484.488 467.852 484.152 467.264C483.826 466.667 483.662 465.971 483.662 465.178C483.662 464.385 483.83 463.694 484.166 463.106C484.502 462.509 484.96 462.051 485.538 461.734C486.117 461.407 486.766 461.244 487.484 461.244C488.203 461.244 488.852 461.407 489.43 461.734C490.018 462.051 490.476 462.509 490.802 463.106C491.138 463.694 491.306 464.385 491.306 465.178C491.306 465.962 491.138 466.653 490.802 467.25C490.466 467.847 490.004 468.309 489.416 468.636C488.828 468.953 488.175 469.112 487.456 469.112ZM487.456 468.258C487.96 468.258 488.427 468.146 488.856 467.922C489.286 467.689 489.631 467.343 489.892 466.886C490.163 466.419 490.298 465.85 490.298 465.178C490.298 464.506 490.168 463.941 489.906 463.484C489.645 463.017 489.3 462.672 488.87 462.448C488.441 462.215 487.974 462.098 487.47 462.098C486.966 462.098 486.5 462.215 486.07 462.448C485.641 462.672 485.296 463.017 485.034 463.484C484.782 463.941 484.656 464.506 484.656 465.178C484.656 465.85 484.782 466.419 485.034 466.886C485.296 467.343 485.636 467.689 486.056 467.922C486.486 468.146 486.952 468.258 487.456 468.258ZM504.312 469H503.332L497.914 460.768V469H496.934V459.214H497.914L503.332 467.432V459.214H504.312V469ZM509.878 469.112C509.159 469.112 508.511 468.953 507.932 468.636C507.363 468.309 506.91 467.852 506.574 467.264C506.247 466.667 506.084 465.971 506.084 465.178C506.084 464.385 506.252 463.694 506.588 463.106C506.924 462.509 507.381 462.051 507.96 461.734C508.539 461.407 509.187 461.244 509.906 461.244C510.625 461.244 511.273 461.407 511.852 461.734C512.44 462.051 512.897 462.509 513.224 463.106C513.56 463.694 513.728 464.385 513.728 465.178C513.728 465.962 513.56 466.653 513.224 467.25C512.888 467.847 512.426 468.309 511.838 468.636C511.25 468.953 510.597 469.112 509.878 469.112ZM509.878 468.258C510.382 468.258 510.849 468.146 511.278 467.922C511.707 467.689 512.053 467.343 512.314 466.886C512.585 466.419 512.72 465.85 512.72 465.178C512.72 464.506 512.589 463.941 512.328 463.484C512.067 463.017 511.721 462.672 511.292 462.448C510.863 462.215 510.396 462.098 509.892 462.098C509.388 462.098 508.921 462.215 508.492 462.448C508.063 462.672 507.717 463.017 507.456 463.484C507.204 463.941 507.078 464.506 507.078 465.178C507.078 465.85 507.204 466.419 507.456 466.886C507.717 467.343 508.058 467.689 508.478 467.922C508.907 468.146 509.374 468.258 509.878 468.258ZM518.231 468.048L520.807 461.356H521.843L518.777 469H517.671L514.605 461.356H515.655L518.231 468.048ZM530.087 464.786C530.087 465.122 530.077 465.379 530.059 465.556H523.717C523.745 466.135 523.885 466.629 524.137 467.04C524.389 467.451 524.72 467.763 525.131 467.978C525.541 468.183 525.989 468.286 526.475 468.286C527.109 468.286 527.641 468.132 528.071 467.824C528.509 467.516 528.799 467.101 528.939 466.578H529.975C529.788 467.325 529.387 467.936 528.771 468.412C528.164 468.879 527.399 469.112 526.475 469.112C525.756 469.112 525.112 468.953 524.543 468.636C523.973 468.309 523.525 467.852 523.199 467.264C522.881 466.667 522.723 465.971 522.723 465.178C522.723 464.385 522.881 463.689 523.199 463.092C523.516 462.495 523.959 462.037 524.529 461.72C525.098 461.403 525.747 461.244 526.475 461.244C527.203 461.244 527.837 461.403 528.379 461.72C528.929 462.037 529.349 462.467 529.639 463.008C529.937 463.54 530.087 464.133 530.087 464.786ZM529.093 464.758C529.102 464.189 528.985 463.703 528.743 463.302C528.509 462.901 528.187 462.597 527.777 462.392C527.366 462.187 526.918 462.084 526.433 462.084C525.705 462.084 525.084 462.317 524.571 462.784C524.057 463.251 523.773 463.909 523.717 464.758H529.093ZM540.98 461.216C541.876 461.216 542.604 461.501 543.164 462.07C543.733 462.63 544.018 463.447 544.018 464.52V469H543.052V464.632C543.052 463.801 542.851 463.167 542.45 462.728C542.048 462.289 541.502 462.07 540.812 462.07C540.093 462.07 539.519 462.308 539.09 462.784C538.66 463.26 538.446 463.951 538.446 464.856V469H537.48V464.632C537.48 463.801 537.279 463.167 536.878 462.728C536.476 462.289 535.926 462.07 535.226 462.07C534.507 462.07 533.933 462.308 533.504 462.784C533.074 463.26 532.86 463.951 532.86 464.856V469H531.88V461.356H532.86V462.672C533.102 462.196 533.448 461.837 533.896 461.594C534.344 461.342 534.843 461.216 535.394 461.216C536.056 461.216 536.635 461.375 537.13 461.692C537.634 462.009 537.998 462.476 538.222 463.092C538.427 462.485 538.777 462.023 539.272 461.706C539.776 461.379 540.345 461.216 540.98 461.216ZM547.16 463.05C547.412 462.518 547.8 462.084 548.322 461.748C548.854 461.412 549.48 461.244 550.198 461.244C550.898 461.244 551.524 461.407 552.074 461.734C552.625 462.051 553.054 462.509 553.362 463.106C553.68 463.694 553.838 464.38 553.838 465.164C553.838 465.948 553.68 466.639 553.362 467.236C553.054 467.833 552.62 468.295 552.06 468.622C551.51 468.949 550.889 469.112 550.198 469.112C549.47 469.112 548.84 468.949 548.308 468.622C547.786 468.286 547.403 467.852 547.16 467.32V469H546.194V458.64H547.16V463.05ZM552.844 465.164C552.844 464.529 552.718 463.983 552.466 463.526C552.224 463.059 551.888 462.705 551.458 462.462C551.029 462.219 550.544 462.098 550.002 462.098C549.48 462.098 548.999 462.224 548.56 462.476C548.131 462.728 547.79 463.087 547.538 463.554C547.286 464.021 547.16 464.562 547.16 465.178C547.16 465.794 547.286 466.335 547.538 466.802C547.79 467.269 548.131 467.628 548.56 467.88C548.999 468.132 549.48 468.258 550.002 468.258C550.544 468.258 551.029 468.137 551.458 467.894C551.888 467.642 552.224 467.283 552.466 466.816C552.718 466.34 552.844 465.789 552.844 465.164ZM562.557 464.786C562.557 465.122 562.548 465.379 562.529 465.556H556.187C556.215 466.135 556.355 466.629 556.607 467.04C556.859 467.451 557.191 467.763 557.601 467.978C558.012 468.183 558.46 468.286 558.945 468.286C559.58 468.286 560.112 468.132 560.541 467.824C560.98 467.516 561.269 467.101 561.409 466.578H562.445C562.259 467.325 561.857 467.936 561.241 468.412C560.635 468.879 559.869 469.112 558.945 469.112C558.227 469.112 557.583 468.953 557.013 468.636C556.444 468.309 555.996 467.852 555.669 467.264C555.352 466.667 555.193 465.971 555.193 465.178C555.193 464.385 555.352 463.689 555.669 463.092C555.987 462.495 556.43 462.037 556.999 461.72C557.569 461.403 558.217 461.244 558.945 461.244C559.673 461.244 560.308 461.403 560.849 461.72C561.4 462.037 561.82 462.467 562.109 463.008C562.408 463.54 562.557 464.133 562.557 464.786ZM561.563 464.758C561.573 464.189 561.456 463.703 561.213 463.302C560.98 462.901 560.658 462.597 560.247 462.392C559.837 462.187 559.389 462.084 558.903 462.084C558.175 462.084 557.555 462.317 557.041 462.784C556.528 463.251 556.243 463.909 556.187 464.758H561.563ZM565.33 462.714C565.545 462.238 565.872 461.869 566.31 461.608C566.758 461.347 567.304 461.216 567.948 461.216V462.238H567.682C566.973 462.238 566.404 462.429 565.974 462.812C565.545 463.195 565.33 463.834 565.33 464.73V469H564.35V461.356H565.33V462.714ZM572.859 468.23C574.576 466.942 575.901 465.789 576.835 464.772C577.777 463.745 578.249 462.742 578.249 461.762C578.249 461.118 578.085 460.605 577.759 460.222C577.441 459.83 576.919 459.634 576.191 459.634C575.481 459.634 574.931 459.858 574.539 460.306C574.156 460.745 573.941 461.333 573.895 462.07H572.943C572.999 461.034 573.316 460.231 573.895 459.662C574.483 459.083 575.248 458.794 576.191 458.794C577.096 458.794 577.829 459.051 578.389 459.564C578.949 460.068 579.229 460.787 579.229 461.72C579.229 462.849 578.757 463.946 577.815 465.01C576.881 466.065 575.729 467.096 574.357 468.104H579.537V468.93H572.859V468.23ZM581.066 463.89C581.066 462.285 581.314 461.039 581.808 460.152C582.303 459.265 583.19 458.822 584.468 458.822C585.747 458.822 586.634 459.265 587.128 460.152C587.623 461.039 587.87 462.285 587.87 463.89C587.87 465.523 587.623 466.788 587.128 467.684C586.634 468.58 585.747 469.028 584.468 469.028C583.18 469.028 582.289 468.58 581.794 467.684C581.309 466.788 581.066 465.523 581.066 463.89ZM586.904 463.89C586.904 463.022 586.844 462.289 586.722 461.692C586.601 461.095 586.363 460.614 586.008 460.25C585.654 459.886 585.14 459.704 584.468 459.704C583.796 459.704 583.283 459.886 582.928 460.25C582.574 460.614 582.336 461.095 582.214 461.692C582.093 462.289 582.032 463.022 582.032 463.89C582.032 464.786 582.093 465.537 582.214 466.144C582.336 466.741 582.574 467.222 582.928 467.586C583.283 467.95 583.796 468.132 584.468 468.132C585.14 468.132 585.654 467.95 586.008 467.586C586.363 467.222 586.601 466.741 586.722 466.144C586.844 465.537 586.904 464.786 586.904 463.89ZM589.497 468.23C591.215 466.942 592.54 465.789 593.473 464.772C594.416 463.745 594.887 462.742 594.887 461.762C594.887 461.118 594.724 460.605 594.397 460.222C594.08 459.83 593.557 459.634 592.829 459.634C592.12 459.634 591.569 459.858 591.177 460.306C590.795 460.745 590.58 461.333 590.533 462.07H589.581C589.637 461.034 589.955 460.231 590.533 459.662C591.121 459.083 591.887 458.794 592.829 458.794C593.735 458.794 594.467 459.051 595.027 459.564C595.587 460.068 595.867 460.787 595.867 461.72C595.867 462.849 595.396 463.946 594.453 465.01C593.52 466.065 592.367 467.096 590.995 468.104H596.175V468.93H589.497V468.23ZM597.509 468.23C599.226 466.942 600.552 465.789 601.485 464.772C602.428 463.745 602.899 462.742 602.899 461.762C602.899 461.118 602.736 460.605 602.409 460.222C602.092 459.83 601.569 459.634 600.841 459.634C600.132 459.634 599.581 459.858 599.189 460.306C598.806 460.745 598.592 461.333 598.545 462.07H597.593C597.649 461.034 597.966 460.231 598.545 459.662C599.133 459.083 599.898 458.794 600.841 458.794C601.746 458.794 602.479 459.051 603.039 459.564C603.599 460.068 603.879 460.787 603.879 461.72C603.879 462.849 603.408 463.946 602.465 465.01C601.532 466.065 600.379 467.096 599.007 468.104H604.187V468.93H597.509V468.23Z" fill="#99A6AF"/>
<path opacity="0.75" d="M99.9407 141.824H105.67V146.026H99.9407V151.755H95.7391V146.026H90.0445V141.824H95.7391V136.13H99.9407V141.824Z" fill="#1269E8"/>
<path opacity="0.75" d="M103.361 201.659H90.34V197.353H103.361V201.659Z" fill="#8B402E"/>
<defs>
<filter id="filter0_d_6432_12228" x="218.841" y="412.066" width="133.659" height="63.3246" filterUnits="userSpaceOnUse" color-interpolation-filters="sRGB">
<feFlood flood-opacity="0" result="BackgroundImageFix"/>
<feColorMatrix in="SourceAlpha" type="matrix" values="0 0 0 0 0 0 0 0 0 0 0 0 0 0 0 0 0 0 127 0" result="hardAlpha"/>
<feOffset/>
<feGaussianBlur stdDeviation="11.3077"/>
<feComposite in2="hardAlpha" operator="out"/>
<feColorMatrix type="matrix" values="0 0 0 0 0.905882 0 0 0 0 0.313726 0 0 0 0 0.129412 0 0 0 0.32 0"/>
<feBlend mode="normal" in2="BackgroundImageFix" result="effect1_dropShadow_6432_12228"/>
<feBlend mode="normal" in="SourceGraphic" in2="effect1_dropShadow_6432_12228" result="shape"/>
</filter>
<filter id="filter1_b_6432_12228" x="247.534" y="155.931" width="81.21" height="240.547" filterUnits="userSpaceOnUse" color-interpolation-filters="sRGB">
<feFlood flood-opacity="0" result="BackgroundImageFix"/>
<feGaussianBlur in="BackgroundImageFix" stdDeviation="10.2797"/>
<feComposite in2="SourceAlpha" operator="in" result="effect1_backgroundBlur_6432_12228"/>
<feBlend mode="normal" in="SourceGraphic" in2="effect1_backgroundBlur_6432_12228" result="shape"/>
</filter>
<filter id="filter2_d_6432_12228" x="126.128" y="350.754" width="133.338" height="63.3246" filterUnits="userSpaceOnUse" color-interpolation-filters="sRGB">
<feFlood flood-opacity="0" result="BackgroundImageFix"/>
<feColorMatrix in="SourceAlpha" type="matrix" values="0 0 0 0 0 0 0 0 0 0 0 0 0 0 0 0 0 0 127 0" result="hardAlpha"/>
<feOffset/>
<feGaussianBlur stdDeviation="11.3077"/>
<feComposite in2="hardAlpha" operator="out"/>
<feColorMatrix type="matrix" values="0 0 0 0 0.890196 0 0 0 0 0.309804 0 0 0 0 0.129412 0 0 0 0.32 0"/>
<feBlend mode="normal" in2="BackgroundImageFix" result="effect1_dropShadow_6432_12228"/>
<feBlend mode="normal" in="SourceGraphic" in2="effect1_dropShadow_6432_12228" result="shape"/>
</filter>
<filter id="filter3_b_6432_12228" x="154.406" y="155.931" width="81.21" height="182.98" filterUnits="userSpaceOnUse" color-interpolation-filters="sRGB">
<feFlood flood-opacity="0" result="BackgroundImageFix"/>
<feGaussianBlur in="BackgroundImageFix" stdDeviation="10.2797"/>
<feComposite in2="SourceAlpha" operator="in" result="effect1_backgroundBlur_6432_12228"/>
<feBlend mode="normal" in="SourceGraphic" in2="effect1_backgroundBlur_6432_12228" result="shape"/>
</filter>
<filter id="filter4_d_6432_12228" x="402.843" y="251.129" width="128.419" height="63.3246" filterUnits="userSpaceOnUse" color-interpolation-filters="sRGB">
<feFlood flood-opacity="0" result="BackgroundImageFix"/>
<feColorMatrix in="SourceAlpha" type="matrix" values="0 0 0 0 0 0 0 0 0 0 0 0 0 0 0 0 0 0 127 0" result="hardAlpha"/>
<feOffset/>
<feGaussianBlur stdDeviation="11.3077"/>
<feComposite in2="hardAlpha" operator="out"/>
<feColorMatrix type="matrix" values="0 0 0 0 0.913725 0 0 0 0 0.313726 0 0 0 0 0.12549 0 0 0 0.32 0"/>
<feBlend mode="normal" in2="BackgroundImageFix" result="effect1_dropShadow_6432_12228"/>
<feBlend mode="normal" in="SourceGraphic" in2="effect1_dropShadow_6432_12228" result="shape"/>
</filter>
<filter id="filter5_b_6432_12228" x="428.899" y="155.931" width="81.21" height="95.6014" filterUnits="userSpaceOnUse" color-interpolation-filters="sRGB">
<feFlood flood-opacity="0" result="BackgroundImageFix"/>
<feGaussianBlur in="BackgroundImageFix" stdDeviation="10.2797"/>
<feComposite in2="SourceAlpha" operator="in" result="effect1_backgroundBlur_6432_12228"/>
<feBlend mode="normal" in="SourceGraphic" in2="effect1_backgroundBlur_6432_12228" result="shape"/>
</filter>
<filter id="filter6_d_6432_12228" x="311.162" y="308.597" width="131.191" height="63.6723" filterUnits="userSpaceOnUse" color-interpolation-filters="sRGB">
<feFlood flood-opacity="0" result="BackgroundImageFix"/>
<feColorMatrix in="SourceAlpha" type="matrix" values="0 0 0 0 0 0 0 0 0 0 0 0 0 0 0 0 0 0 127 0" result="hardAlpha"/>
<feOffset/>
<feGaussianBlur stdDeviation="11.3077"/>
<feComposite in2="hardAlpha" operator="out"/>
<feColorMatrix type="matrix" values="0 0 0 0 0.917647 0 0 0 0 0.313726 0 0 0 0 0.12549 0 0 0 0.32 0"/>
<feBlend mode="normal" in2="BackgroundImageFix" result="effect1_dropShadow_6432_12228"/>
<feBlend mode="normal" in="SourceGraphic" in2="effect1_dropShadow_6432_12228" result="shape"/>
</filter>
<filter id="filter7_b_6432_12228" x="336.773" y="155.931" width="81.21" height="137.748" filterUnits="userSpaceOnUse" color-interpolation-filters="sRGB">
<feFlood flood-opacity="0" result="BackgroundImageFix"/>
<feGaussianBlur in="BackgroundImageFix" stdDeviation="10.2797"/>
<feComposite in2="SourceAlpha" operator="in" result="effect1_backgroundBlur_6432_12228"/>
<feBlend mode="normal" in="SourceGraphic" in2="effect1_backgroundBlur_6432_12228" result="shape"/>
</filter>
<filter id="filter8_d_6432_12228" x="542.251" y="21.0584" width="120.285" height="70.5317" filterUnits="userSpaceOnUse" color-interpolation-filters="sRGB">
<feFlood flood-opacity="0" result="BackgroundImageFix"/>
<feColorMatrix in="SourceAlpha" type="matrix" values="0 0 0 0 0 0 0 0 0 0 0 0 0 0 0 0 0 0 127 0" result="hardAlpha"/>
<feOffset/>
<feGaussianBlur stdDeviation="11.3077"/>
<feComposite in2="hardAlpha" operator="out"/>
<feColorMatrix type="matrix" values="0 0 0 0 0.137255 0 0 0 0 0.511216 0 0 0 0 0.721569 0 0 0 0.32 0"/>
<feBlend mode="normal" in2="BackgroundImageFix" result="effect1_dropShadow_6432_12228"/>
<feBlend mode="normal" in="SourceGraphic" in2="effect1_dropShadow_6432_12228" result="shape"/>
</filter>
<filter id="filter9_b_6432_12228" x="554.557" y="63.4132" width="95.6016" height="131.58" filterUnits="userSpaceOnUse" color-interpolation-filters="sRGB">
<feFlood flood-opacity="0" result="BackgroundImageFix"/>
<feGaussianBlur in="BackgroundImageFix" stdDeviation="10.2797"/>
<feComposite in2="SourceAlpha" operator="in" result="effect1_backgroundBlur_6432_12228"/>
<feBlend mode="normal" in="SourceGraphic" in2="effect1_backgroundBlur_6432_12228" result="shape"/>
</filter>
<linearGradient id="paint0_linear_6432_12228" x1="754.047" y1="176.491" x2="39.6061" y2="175.586" gradientUnits="userSpaceOnUse">
<stop stop-color="white" stop-opacity="0"/>
<stop offset="0.473681" stop-color="#A8D5FF"/>
<stop offset="1" stop-color="white" stop-opacity="0"/>
</linearGradient>
<linearGradient id="paint1_linear_6432_12228" x1="288.139" y1="176.49" x2="288.139" y2="375.917" gradientUnits="userSpaceOnUse">
<stop stop-color="#FF531D"/>
<stop offset="1" stop-color="#FF531D" stop-opacity="0"/>
</linearGradient>
<linearGradient id="paint2_linear_6432_12228" x1="195.011" y1="176.49" x2="195.011" y2="318.351" gradientUnits="userSpaceOnUse">
<stop stop-color="#FF531D"/>
<stop offset="1" stop-color="#FF531D" stop-opacity="0"/>
</linearGradient>
<linearGradient id="paint3_linear_6432_12228" x1="469.504" y1="176.49" x2="469.504" y2="230.973" gradientUnits="userSpaceOnUse">
<stop stop-color="#FF531D"/>
<stop offset="1" stop-color="#FF531D" stop-opacity="0"/>
</linearGradient>
<linearGradient id="paint4_linear_6432_12228" x1="377.378" y1="176.49" x2="377.378" y2="273.12" gradientUnits="userSpaceOnUse">
<stop stop-color="#FF531D"/>
<stop offset="1" stop-color="#FF531D" stop-opacity="0"/>
</linearGradient>
</defs>
</svg>
