<svg width="727" height="403" viewBox="0 0 727 403" fill="none" xmlns="http://www.w3.org/2000/svg">
<path opacity="0.15" d="M0 15.6765C0 7.0186 7.01863 0 15.6766 0H711.323C719.981 0 727 7.01863 727 15.6765V387.18C727 395.838 719.981 402.857 711.323 402.857H15.6766C7.01864 402.857 0 395.838 0 387.18V15.6765Z" fill="#CCD2D7"/>
<line opacity="0.25" x1="85.1436" y1="77.4324" x2="688.79" y2="77.4324" stroke="#264154" stroke-width="0.698664" stroke-dasharray="6.29 6.29"/>
<line opacity="0.25" x1="85.1436" y1="217.166" x2="688.79" y2="217.166" stroke="#264154" stroke-width="0.698664" stroke-dasharray="6.29 6.29"/>
<path opacity="0.25" d="M85.1436 335.553H688.79" stroke="#667986" stroke-width="1.46968" stroke-linecap="round"/>
<g opacity="0.8">
<path d="M120.024 311.12L83.2812 336.504H682.5V67.584L679.705 78.064L667.478 96.2292L655.95 135.354L640.929 159.109L628.023 171.96L610.079 173.455L599.612 183.922L585.158 182.925L573.195 194.887L560.236 197.38L546.779 211.336L532.324 213.329L516.374 225.292L503.913 225.79L489.319 239.455L474.298 237.01L461.547 247.721L448.098 249.237L435.628 270.151L419.453 270.546L409.212 281.116H404.227L391.506 272.991L380.302 278.624L363.21 267.402L352.39 269.154L337.359 261.463L330.459 266.163L324.478 265.665L309.525 240.743L300.055 237.254L285.102 219.311L249.975 211.56L242.341 218.248L234.306 220.242L216.817 243.235L198.325 258.669L190.4 270.151L172.457 281.614L164.142 290.16L144.128 299.242L130.955 311.12H120.024Z" fill="#0D6EFD" fill-opacity="0.3"/>
<path d="M83.283 335.523L117.425 312.229C118.47 311.517 119.705 311.136 120.969 311.136H129.237C130.971 311.136 132.628 310.42 133.816 309.157L142.204 300.245C142.816 299.594 143.559 299.082 144.384 298.742L163.716 290.764C164.652 290.377 165.48 289.771 166.132 288.996L171.879 282.153C172.275 281.682 172.738 281.271 173.253 280.934L189.527 270.294C190.262 269.813 190.888 269.184 191.365 268.447L197.764 258.557C198.137 257.981 198.601 257.471 199.138 257.045L216.181 243.54C216.619 243.192 217.01 242.787 217.341 242.336L232.424 221.824C233.608 220.213 235.489 219.261 237.489 219.261H239.465C241.292 219.261 243.029 218.466 244.224 217.083L246.553 214.386C248.05 212.653 250.372 211.87 252.613 212.344L283.191 218.813C284.564 219.103 285.801 219.845 286.704 220.92L298.993 235.55C299.643 236.324 300.47 236.93 301.404 237.316L308.065 240.072C309.39 240.621 310.489 241.606 311.177 242.865L322.22 263.056C324.084 266.464 328.561 267.384 331.617 264.987L333.944 263.162C336.001 261.549 338.841 261.377 341.078 262.73L350.023 268.139C351.527 269.048 353.342 269.286 355.03 268.796L360.106 267.323C362.055 266.757 364.158 267.167 365.752 268.423L376.848 277.17C379.088 278.936 382.236 278.973 384.516 277.26L387.677 274.886C389.94 273.187 393.059 273.209 395.298 274.939L402.205 280.277C404.832 282.307 408.584 281.944 410.775 279.45L417.378 271.93C418.685 270.441 420.617 269.656 422.592 269.81L431.91 270.537C434.398 270.732 436.766 269.436 437.943 267.235L446.322 251.577C447.416 249.532 449.547 248.256 451.866 248.256H459.171C460.808 248.256 462.38 247.617 463.554 246.476L471.798 238.461C473.354 236.948 475.58 236.345 477.686 236.864L486.604 239.062C488.92 239.633 491.359 238.845 492.903 237.027L501.061 227.418C502.256 226.011 504.009 225.2 505.854 225.2H515.564C517.111 225.2 518.603 224.63 519.756 223.598L529.748 214.658C530.719 213.789 531.936 213.244 533.231 213.096L544.291 211.84C545.788 211.669 547.174 210.968 548.197 209.862L558.106 199.15C559.034 198.146 560.265 197.472 561.611 197.23L571.024 195.541C572.408 195.292 573.669 194.587 574.605 193.537L582.528 184.655C583.883 183.135 585.891 182.366 587.915 182.59L597.048 183.605C599.146 183.838 601.221 183.003 602.573 181.381L607.431 175.551C608.524 174.239 610.103 173.429 611.806 173.305L625.83 172.285C627.45 172.167 628.962 171.427 630.048 170.22L640.575 158.524C640.812 158.26 641.026 157.978 641.215 157.678L655.483 135.115C655.794 134.623 656.036 134.09 656.2 133.532L667.206 96.178C667.388 95.5618 667.663 94.9771 668.021 94.4442L679.119 77.9565C679.508 77.3782 679.798 76.7392 679.978 76.0656L682.501 66.603" stroke="#0D6EFD" stroke-opacity="0.6" stroke-width="1.49529" stroke-linecap="round"/>
</g>
<path opacity="0.5" d="M97.0297 329.091L84.2593 335.524H682.908V232.646L648.668 255.36L629.646 259.903L622.04 256.693L582.61 263.746L545.949 270.036L526.581 273.531L501.42 275.278L489.458 279.122L479.545 275.278L434.238 279.471L418.856 281.146L406.718 285.602L402.172 284.167L371.984 291.002L343.278 292.75L321.486 297.564L312.515 291.583L301.084 295.196L268.228 304.631L253.702 303.582L241.943 308.125L231.769 307.034L225.688 313.017L169.963 321.987L163.088 319.656L134.728 325.597H123.315L97.0297 329.091Z" fill="#0D6EFD" fill-opacity="0.6"/>
<g filter="url(#filter0_d_6598_10952)">
<path d="M83.2812 335.523L95.6931 329.108C96.3394 328.774 97.0388 328.554 97.7602 328.459L123.219 325.109H134.102C134.531 325.109 134.959 325.066 135.379 324.979L161.337 319.597C162.671 319.32 164.059 319.484 165.291 320.064L167.562 321.133C168.714 321.675 170.004 321.855 171.261 321.648L224.411 312.898C225.841 312.662 227.145 311.94 228.104 310.853L229.745 308.994C231.075 307.486 233.045 306.706 235.047 306.893L241.579 307.506C242.54 307.596 243.509 307.463 244.411 307.119L253.615 303.6C254.473 303.272 255.392 303.135 256.308 303.201L268.486 304.071C269.216 304.123 269.949 304.047 270.653 303.847L302.04 294.927C302.529 294.788 302.999 294.59 303.44 294.338L308.039 291.71C310.66 290.212 313.977 290.789 315.938 293.084L317.885 295.362C319.421 297.16 321.837 297.943 324.136 297.39L344.855 292.402C345.214 292.316 345.58 292.261 345.948 292.239L373.891 290.556C374.223 290.536 374.552 290.489 374.876 290.417L401.538 284.498C402.575 284.268 403.66 284.448 404.567 285.001V285.001C405.656 285.665 406.991 285.786 408.181 285.328L419.531 280.962C420.059 280.759 420.613 280.628 421.176 280.572L437.269 278.998L477.376 274.98C478.513 274.866 479.66 275.064 480.693 275.553L486.953 278.516C488.516 279.256 490.315 279.32 491.927 278.692L500.978 275.163C501.586 274.926 502.227 274.785 502.879 274.746L530.541 273.059L550.103 269.566L587.132 263.278L620.532 256.677C622.201 256.347 623.932 256.707 625.33 257.676L626.991 258.825C628.582 259.926 630.591 260.234 632.438 259.659L650.624 254.002C651.242 253.809 651.826 253.523 652.357 253.153L682.419 232.156" stroke="#0D6EFD" stroke-opacity="0.7" stroke-width="1.49529" stroke-linecap="round" shape-rendering="crispEdges"/>
</g>
<path opacity="0.5" d="M33.7877 49.339C33.8595 48.4065 34.2181 47.6738 34.8637 47.141C35.5195 46.5979 36.3649 46.3263 37.3998 46.3263C38.0864 46.3263 38.6756 46.4493 39.1674 46.6952C39.6593 46.9411 40.0282 47.2793 40.2741 47.7097C40.5303 48.1298 40.6584 48.6063 40.6584 49.1391C40.6584 49.7847 40.4688 50.3432 40.0897 50.8145C39.7105 51.2859 39.1726 51.578 38.4758 51.6907V51.7675C39.2033 51.911 39.7823 52.2286 40.2127 52.7205C40.643 53.2021 40.8582 53.8374 40.8582 54.6265C40.8582 55.5077 40.5611 56.2301 39.9667 56.7937C39.3826 57.3471 38.5321 57.6237 37.4152 57.6237C36.3495 57.6237 35.4734 57.3471 34.7868 56.7937C34.1003 56.2301 33.7058 55.436 33.6033 54.4113H34.6485C34.7407 55.0978 35.0276 55.6563 35.5092 56.0867C35.9909 56.5068 36.6262 56.7169 37.4152 56.7169C38.194 56.7169 38.7883 56.5119 39.1982 56.102C39.6183 55.6922 39.8284 55.1696 39.8284 54.5342C39.8284 52.9767 38.7063 52.1979 36.4622 52.1979H36.1241V51.291H36.4776C38.568 51.291 39.6132 50.6096 39.6132 49.2467C39.6132 48.6524 39.4185 48.1759 39.0291 47.8173C38.6397 47.4484 38.0864 47.2639 37.3691 47.2639C36.6723 47.2639 36.0933 47.4484 35.6322 47.8173C35.1813 48.1759 34.9149 48.6832 34.8329 49.339H33.7877ZM42.8251 51.9366C42.8251 50.1741 43.0966 48.8061 43.6397 47.8326C44.1828 46.8592 45.1563 46.3724 46.5601 46.3724C47.964 46.3724 48.9374 46.8592 49.4805 47.8326C50.0236 48.8061 50.2952 50.1741 50.2952 51.9366C50.2952 53.7298 50.0236 55.1183 49.4805 56.102C48.9374 57.0858 47.964 57.5776 46.5601 57.5776C45.146 57.5776 44.1674 57.0858 43.6243 56.102C43.0915 55.1183 42.8251 53.7298 42.8251 51.9366ZM49.2346 51.9366C49.2346 50.9836 49.168 50.1792 49.0348 49.5234C48.9016 48.8676 48.6403 48.3399 48.2509 47.9402C47.8615 47.5406 47.2979 47.3408 46.5601 47.3408C45.8223 47.3408 45.2587 47.5406 44.8693 47.9402C44.48 48.3399 44.2187 48.8676 44.0854 49.5234C43.9522 50.1792 43.8856 50.9836 43.8856 51.9366C43.8856 52.9203 43.9522 53.7452 44.0854 54.4113C44.2187 55.0671 44.48 55.5948 44.8693 55.9944C45.2587 56.3941 45.8223 56.5939 46.5601 56.5939C47.2979 56.5939 47.8615 56.3941 48.2509 55.9944C48.6403 55.5948 48.9016 55.0671 49.0348 54.4113C49.168 53.7452 49.2346 52.9203 49.2346 51.9366ZM52.2966 51.9366C52.2966 50.1741 52.5681 48.8061 53.1112 47.8326C53.6543 46.8592 54.6278 46.3724 56.0317 46.3724C57.4355 46.3724 58.409 46.8592 58.9521 47.8326C59.4952 48.8061 59.7667 50.1741 59.7667 51.9366C59.7667 53.7298 59.4952 55.1183 58.9521 56.102C58.409 57.0858 57.4355 57.5776 56.0317 57.5776C54.6176 57.5776 53.639 57.0858 53.0959 56.102C52.563 55.1183 52.2966 53.7298 52.2966 51.9366ZM58.7061 51.9366C58.7061 50.9836 58.6395 50.1792 58.5063 49.5234C58.3731 48.8676 58.1118 48.3399 57.7224 47.9402C57.333 47.5406 56.7694 47.3408 56.0317 47.3408C55.2939 47.3408 54.7303 47.5406 54.3409 47.9402C53.9515 48.3399 53.6902 48.8676 53.557 49.5234C53.4238 50.1792 53.3572 50.9836 53.3572 51.9366C53.3572 52.9203 53.4238 53.7452 53.557 54.4113C53.6902 55.0671 53.9515 55.5948 54.3409 55.9944C54.7303 56.3941 55.2939 56.5939 56.0317 56.5939C56.7694 56.5939 57.333 56.3941 57.7224 55.9944C58.1118 55.5948 58.3731 55.0671 58.5063 54.4113C58.6395 53.7452 58.7061 52.9203 58.7061 51.9366Z" fill="#1A364A"/>
<path d="M33.6562 83.95C35.5416 82.5359 36.9967 81.2704 38.0214 80.1535C39.0564 79.0263 39.5739 77.9247 39.5739 76.8488C39.5739 76.1418 39.3945 75.5782 39.0359 75.158C38.6875 74.7277 38.1137 74.5125 37.3144 74.5125C36.5356 74.5125 35.931 74.7584 35.5007 75.2503C35.0805 75.7319 34.8448 76.3774 34.7936 77.187H33.7484C33.8099 76.0495 34.1583 75.1683 34.7936 74.5432C35.4392 73.9079 36.2794 73.5902 37.3144 73.5902C38.3084 73.5902 39.1128 73.872 39.7276 74.4356C40.3424 74.989 40.6498 75.778 40.6498 76.8027C40.6498 78.0426 40.1323 79.2466 39.0974 80.4148C38.0727 81.5727 36.8072 82.705 35.3008 83.8117H40.988V84.7186H33.6562V83.95ZM44.804 79.0775C44.1686 78.8726 43.6819 78.5498 43.3438 78.1092C43.0158 77.6686 42.8519 77.1357 42.8519 76.5106C42.8519 75.9573 42.9902 75.4654 43.2669 75.0351C43.5538 74.5944 43.9688 74.2512 44.5119 74.0052C45.055 73.7491 45.7057 73.621 46.464 73.621C47.2223 73.621 47.873 73.7491 48.4161 74.0052C48.9592 74.2512 49.369 74.5944 49.6457 75.0351C49.9326 75.4654 50.0761 75.9573 50.0761 76.5106C50.0761 77.1255 49.907 77.6583 49.5689 78.1092C49.2409 78.5601 48.7593 78.8828 48.124 79.0775C48.8208 79.2517 49.369 79.5848 49.7687 80.0766C50.1683 80.5685 50.3681 81.1679 50.3681 81.875C50.3681 82.5308 50.2042 83.1046 49.8763 83.5965C49.5586 84.0781 49.1026 84.4521 48.5083 84.7186C47.9242 84.985 47.2428 85.1182 46.464 85.1182C45.6852 85.1182 44.9987 84.985 44.4043 84.7186C43.8202 84.4521 43.3642 84.0781 43.0363 83.5965C42.7187 83.1046 42.5599 82.5308 42.5599 81.875C42.5599 81.1679 42.7597 80.5685 43.1593 80.0766C43.5589 79.5848 44.1072 79.2517 44.804 79.0775ZM49.0309 76.6336C49.0309 75.9573 48.8003 75.4347 48.3392 75.0658C47.8781 74.6969 47.253 74.5125 46.464 74.5125C45.675 74.5125 45.0499 74.6969 44.5888 75.0658C44.1277 75.4245 43.8971 75.9471 43.8971 76.6336C43.8971 77.2689 44.1328 77.7762 44.6041 78.1553C45.0755 78.5344 45.6955 78.724 46.464 78.724C47.2325 78.724 47.8525 78.5344 48.3238 78.1553C48.7952 77.7762 49.0309 77.2689 49.0309 76.6336ZM46.464 79.554C45.6237 79.554 44.9372 79.7436 44.4043 80.1227C43.8715 80.5019 43.6051 81.0757 43.6051 81.8443C43.6051 82.582 43.8612 83.161 44.3736 83.5811C44.8859 84.0013 45.5827 84.2113 46.464 84.2113C47.335 84.2113 48.0267 84.0013 48.539 83.5811C49.0514 83.1508 49.3076 82.5718 49.3076 81.8443C49.3076 81.086 49.0411 80.5173 48.5083 80.1381C47.9857 79.7487 47.3043 79.554 46.464 79.554ZM52.2591 79.1851C52.2591 77.4226 52.5306 76.0547 53.0737 75.0812C53.6168 74.1077 54.5903 73.621 55.9941 73.621C57.398 73.621 58.3715 74.1077 58.9146 75.0812C59.4576 76.0547 59.7292 77.4226 59.7292 79.1851C59.7292 80.9784 59.4576 82.3669 58.9146 83.3506C58.3715 84.3343 57.398 84.8262 55.9941 84.8262C54.58 84.8262 53.6014 84.3343 53.0583 83.3506C52.5255 82.3669 52.2591 80.9784 52.2591 79.1851ZM58.6686 79.1851C58.6686 78.2322 58.602 77.4278 58.4688 76.7719C58.3356 76.1161 58.0743 75.5884 57.6849 75.1888C57.2955 74.7891 56.7319 74.5893 55.9941 74.5893C55.2563 74.5893 54.6928 74.7891 54.3034 75.1888C53.914 75.5884 53.6527 76.1161 53.5195 76.7719C53.3863 77.4278 53.3196 78.2322 53.3196 79.1851C53.3196 80.1689 53.3863 80.9937 53.5195 81.6598C53.6527 82.3156 53.914 82.8433 54.3034 83.243C54.6928 83.6426 55.2563 83.8424 55.9941 83.8424C56.7319 83.8424 57.2955 83.6426 57.6849 83.243C58.0743 82.8433 58.3356 82.3156 58.4688 81.6598C58.602 80.9937 58.6686 80.1689 58.6686 79.1851Z" fill="#1A364A"/>
<path opacity="0.5" d="M33.6187 111.199C35.5041 109.784 36.9592 108.519 37.9839 107.402C39.0189 106.275 39.5363 105.173 39.5363 104.097C39.5363 103.39 39.357 102.827 38.9984 102.407C38.65 101.976 38.0761 101.761 37.2769 101.761C36.4981 101.761 35.8935 102.007 35.4631 102.499C35.043 102.98 34.8073 103.626 34.7561 104.435H33.7109C33.7724 103.298 34.1208 102.417 34.7561 101.792C35.4016 101.156 36.2419 100.839 37.2769 100.839C38.2708 100.839 39.0752 101.121 39.69 101.684C40.3049 102.237 40.6123 103.027 40.6123 104.051C40.6123 105.291 40.0948 106.495 39.0599 107.663C38.0351 108.821 36.7696 109.954 35.2633 111.06H40.9504V111.967H33.6187V111.199ZM48.9626 103.713C48.7372 102.381 47.9635 101.715 46.6417 101.715C45.6374 101.715 44.8843 102.104 44.3822 102.883C43.8801 103.662 43.6495 104.938 43.6905 106.71C43.8954 106.096 44.2848 105.614 44.8587 105.266C45.4427 104.907 46.1088 104.728 46.8568 104.728C47.9328 104.728 48.7833 105.061 49.4084 105.727C50.0437 106.382 50.3613 107.289 50.3613 108.447C50.3613 109.124 50.2281 109.738 49.9617 110.292C49.7055 110.835 49.3059 111.27 48.7628 111.598C48.2299 111.926 47.5639 112.09 46.7646 112.09C45.2378 112.09 44.1824 111.603 43.5983 110.63C43.0244 109.656 42.7375 108.278 42.7375 106.495C42.7375 102.704 44.0389 100.808 46.6417 100.808C47.6254 100.808 48.399 101.08 48.9626 101.623C49.5262 102.156 49.8592 102.852 49.9617 103.713H48.9626ZM46.657 105.65C46.1754 105.65 45.7194 105.747 45.289 105.942C44.8587 106.137 44.5051 106.434 44.2285 106.833C43.962 107.223 43.8288 107.704 43.8288 108.278C43.8288 109.108 44.0748 109.8 44.5666 110.353C45.0585 110.907 45.7758 111.183 46.7185 111.183C47.5075 111.183 48.1377 110.942 48.6091 110.461C49.0805 109.979 49.3161 109.323 49.3161 108.493C49.3161 107.602 49.0856 106.905 48.6245 106.403C48.1633 105.901 47.5075 105.65 46.657 105.65ZM52.2966 106.434C52.2966 104.671 52.5681 103.303 53.1112 102.33C53.6543 101.356 54.6278 100.87 56.0317 100.87C57.4355 100.87 58.409 101.356 58.9521 102.33C59.4952 103.303 59.7667 104.671 59.7667 106.434C59.7667 108.227 59.4952 109.615 58.9521 110.599C58.409 111.583 57.4355 112.075 56.0317 112.075C54.6176 112.075 53.639 111.583 53.0959 110.599C52.563 109.615 52.2966 108.227 52.2966 106.434ZM58.7061 106.434C58.7061 105.481 58.6395 104.676 58.5063 104.02C58.3731 103.365 58.1118 102.837 57.7224 102.437C57.333 102.038 56.7694 101.838 56.0317 101.838C55.2939 101.838 54.7303 102.038 54.3409 102.437C53.9515 102.837 53.6902 103.365 53.557 104.02C53.4238 104.676 53.3572 105.481 53.3572 106.434C53.3572 107.417 53.4238 108.242 53.557 108.908C53.6902 109.564 53.9515 110.092 54.3409 110.492C54.7303 110.891 55.2939 111.091 56.0317 111.091C56.7694 111.091 57.333 110.891 57.7224 110.492C58.1118 110.092 58.3731 109.564 58.5063 108.908C58.6395 108.242 58.7061 107.417 58.7061 106.434Z" fill="#1A364A"/>
<path opacity="0.5" d="M33.7387 138.446C35.6242 137.032 37.0793 135.766 38.104 134.649C39.1389 133.522 39.6564 132.42 39.6564 131.344C39.6564 130.637 39.4771 130.074 39.1185 129.654C38.7701 129.223 38.1962 129.008 37.3969 129.008C36.6182 129.008 36.0136 129.254 35.5832 129.746C35.1631 130.227 34.9274 130.873 34.8762 131.683H33.831C33.8924 130.545 34.2408 129.664 34.8762 129.039C35.5217 128.403 36.362 128.086 37.3969 128.086C38.3909 128.086 39.1953 128.368 39.8101 128.931C40.425 129.485 40.7324 130.274 40.7324 131.298C40.7324 132.538 40.2149 133.742 39.1799 134.91C38.1552 136.068 36.8897 137.201 35.3834 138.307H41.0705V139.214H33.7387V138.446ZM42.2735 136.678V135.863L47.8684 128.332H49.1442V135.74H50.7888V136.678H49.1442V139.291H48.0836V136.678H42.2735ZM48.1297 129.515L43.5185 135.74H48.1297V129.515ZM52.1765 133.681C52.1765 131.918 52.4481 130.55 52.9912 129.577C53.5343 128.603 54.5077 128.117 55.9116 128.117C57.3154 128.117 58.2889 128.603 58.832 129.577C59.3751 130.55 59.6466 131.918 59.6466 133.681C59.6466 135.474 59.3751 136.862 58.832 137.846C58.2889 138.83 57.3154 139.322 55.9116 139.322C54.4975 139.322 53.5189 138.83 52.9758 137.846C52.4429 136.862 52.1765 135.474 52.1765 133.681ZM58.5861 133.681C58.5861 132.728 58.5195 131.923 58.3862 131.268C58.253 130.612 57.9917 130.084 57.6023 129.684C57.213 129.285 56.6494 129.085 55.9116 129.085C55.1738 129.085 54.6102 129.285 54.2208 129.684C53.8314 130.084 53.5701 130.612 53.4369 131.268C53.3037 131.923 53.2371 132.728 53.2371 133.681C53.2371 134.664 53.3037 135.489 53.4369 136.155C53.5701 136.811 53.8314 137.339 54.2208 137.739C54.6102 138.138 55.1738 138.338 55.9116 138.338C56.6494 138.338 57.213 138.138 57.6023 137.739C57.9917 137.339 58.253 136.811 58.3862 136.155C58.5195 135.489 58.5861 134.664 58.5861 133.681Z" fill="#1A364A"/>
<path opacity="0.5" d="M34.054 166.393C35.9394 164.979 37.3945 163.713 38.4192 162.596C39.4542 161.469 39.9716 160.368 39.9716 159.292C39.9716 158.585 39.7923 158.021 39.4337 157.601C39.0853 157.171 38.5114 156.955 37.7122 156.955C36.9334 156.955 36.3288 157.201 35.8984 157.693C35.4783 158.175 35.2426 158.82 35.1914 159.63H34.1462C34.2077 158.492 34.5561 157.611 35.1914 156.986C35.8369 156.351 36.6772 156.033 37.7122 156.033C38.7061 156.033 39.5105 156.315 40.1254 156.878C40.7402 157.432 41.0476 158.221 41.0476 159.246C41.0476 160.485 40.5301 161.689 39.4952 162.858C38.4704 164.016 37.2049 165.148 35.6986 166.255H41.3857V167.161H34.054V166.393ZM42.85 166.393C44.7355 164.979 46.1906 163.713 47.2153 162.596C48.2502 161.469 48.7677 160.368 48.7677 159.292C48.7677 158.585 48.5884 158.021 48.2297 157.601C47.8813 157.171 47.3075 156.955 46.5082 156.955C45.7295 156.955 45.1249 157.201 44.6945 157.693C44.2744 158.175 44.0387 158.82 43.9875 159.63H42.9423C43.0037 158.492 43.3521 157.611 43.9875 156.986C44.633 156.351 45.4733 156.033 46.5082 156.033C47.5022 156.033 48.3066 156.315 48.9214 156.878C49.5363 157.432 49.8437 158.221 49.8437 159.246C49.8437 160.485 49.3262 161.689 48.2912 162.858C47.2665 164.016 46.001 165.148 44.4947 166.255H50.1818V167.161H42.85V166.393ZM51.8613 161.628C51.8613 159.866 52.1328 158.498 52.6759 157.524C53.219 156.551 54.1925 156.064 55.5964 156.064C57.0002 156.064 57.9737 156.551 58.5168 157.524C59.0599 158.498 59.3314 159.866 59.3314 161.628C59.3314 163.421 59.0599 164.81 58.5168 165.793C57.9737 166.777 57.0002 167.269 55.5964 167.269C54.1823 167.269 53.2037 166.777 52.6606 165.793C52.1277 164.81 51.8613 163.421 51.8613 161.628ZM58.2708 161.628C58.2708 160.675 58.2042 159.871 58.071 159.215C57.9378 158.559 57.6765 158.031 57.2871 157.632C56.8977 157.232 56.3341 157.032 55.5964 157.032C54.8586 157.032 54.295 157.232 53.9056 157.632C53.5162 158.031 53.2549 158.559 53.1217 159.215C52.9885 159.871 52.9219 160.675 52.9219 161.628C52.9219 162.612 52.9885 163.437 53.1217 164.103C53.2549 164.758 53.5162 165.286 53.9056 165.686C54.295 166.085 54.8586 166.285 55.5964 166.285C56.3341 166.285 56.8977 166.085 57.2871 165.686C57.6765 165.286 57.9378 164.758 58.071 164.103C58.2042 163.437 58.2708 162.612 58.2708 161.628Z" fill="#1A364A"/>
<path opacity="0.5" d="M33.7162 194.34C35.6017 192.926 37.0568 191.66 38.0815 190.543C39.1164 189.416 39.6339 188.314 39.6339 187.238C39.6339 186.531 39.4546 185.968 39.0959 185.548C38.7475 185.117 38.1737 184.902 37.3744 184.902C36.5957 184.902 35.9911 185.148 35.5607 185.64C35.1406 186.122 34.9049 186.767 34.8536 187.577H33.8084C33.8699 186.439 34.2183 185.558 34.8536 184.933C35.4992 184.298 36.3395 183.98 37.3744 183.98C38.3684 183.98 39.1728 184.262 39.7876 184.825C40.4024 185.379 40.7099 186.168 40.7099 187.192C40.7099 188.432 40.1924 189.636 39.1574 190.804C38.1327 191.962 36.8672 193.095 35.3609 194.201H41.048V195.108H33.7162V194.34ZM42.7275 189.575C42.7275 187.812 42.999 186.444 43.5421 185.471C44.0852 184.497 45.0587 184.011 46.4625 184.011C47.8664 184.011 48.8399 184.497 49.383 185.471C49.9261 186.444 50.1976 187.812 50.1976 189.575C50.1976 191.368 49.9261 192.757 49.383 193.74C48.8399 194.724 47.8664 195.216 46.4625 195.216C45.0485 195.216 44.0699 194.724 43.5268 193.74C42.9939 192.757 42.7275 191.368 42.7275 189.575ZM49.137 189.575C49.137 188.622 49.0704 187.817 48.9372 187.162C48.804 186.506 48.5427 185.978 48.1533 185.578C47.7639 185.179 47.2003 184.979 46.4625 184.979C45.7248 184.979 45.1612 185.179 44.7718 185.578C44.3824 185.978 44.1211 186.506 43.9879 187.162C43.8547 187.817 43.7881 188.622 43.7881 189.575C43.7881 190.559 43.8547 191.383 43.9879 192.049C44.1211 192.705 44.3824 193.233 44.7718 193.633C45.1612 194.032 45.7248 194.232 46.4625 194.232C47.2003 194.232 47.7639 194.032 48.1533 193.633C48.5427 193.233 48.804 192.705 48.9372 192.049C49.0704 191.383 49.137 190.559 49.137 189.575ZM52.199 189.575C52.199 187.812 52.4706 186.444 53.0137 185.471C53.5568 184.497 54.5302 184.011 55.9341 184.011C57.3379 184.011 58.3114 184.497 58.8545 185.471C59.3976 186.444 59.6692 187.812 59.6692 189.575C59.6692 191.368 59.3976 192.757 58.8545 193.74C58.3114 194.724 57.3379 195.216 55.9341 195.216C54.52 195.216 53.5414 194.724 52.9983 193.74C52.4655 192.757 52.199 191.368 52.199 189.575ZM58.6086 189.575C58.6086 188.622 58.542 187.817 58.4088 187.162C58.2756 186.506 58.0142 185.978 57.6249 185.578C57.2355 185.179 56.6719 184.979 55.9341 184.979C55.1963 184.979 54.6327 185.179 54.2433 185.578C53.8539 185.978 53.5926 186.506 53.4594 187.162C53.3262 187.817 53.2596 188.622 53.2596 189.575C53.2596 190.559 53.3262 191.383 53.4594 192.049C53.5926 192.705 53.8539 193.233 54.2433 193.633C54.6327 194.032 55.1963 194.232 55.9341 194.232C56.6719 194.232 57.2355 194.032 57.6249 193.633C58.0142 193.233 58.2756 192.705 58.4088 192.049C58.542 191.383 58.6086 190.559 58.6086 189.575Z" fill="#1A364A"/>
<path d="M35.5028 213.079V212.111H38.1158V223.131H37.0244V213.079H35.5028ZM42.65 217.413C42.0147 217.209 41.5279 216.886 41.1898 216.445C40.8619 216.005 40.6979 215.472 40.6979 214.847C40.6979 214.293 40.8362 213.801 41.1129 213.371C41.3998 212.93 41.8148 212.587 42.3579 212.341C42.901 212.085 43.5517 211.957 44.31 211.957C45.0683 211.957 45.719 212.085 46.2621 212.341C46.8052 212.587 47.215 212.93 47.4917 213.371C47.7786 213.801 47.9221 214.293 47.9221 214.847C47.9221 215.461 47.753 215.994 47.4149 216.445C47.087 216.896 46.6053 217.219 45.97 217.413C46.6668 217.588 47.215 217.921 47.6147 218.413C48.0143 218.904 48.2141 219.504 48.2141 220.211C48.2141 220.867 48.0502 221.441 47.7223 221.932C47.4046 222.414 46.9486 222.788 46.3543 223.054C45.7702 223.321 45.0888 223.454 44.31 223.454C43.5312 223.454 42.8447 223.321 42.2503 223.054C41.6663 222.788 41.2103 222.414 40.8824 221.932C40.5647 221.441 40.4059 220.867 40.4059 220.211C40.4059 219.504 40.6057 218.904 41.0053 218.413C41.405 217.921 41.9532 217.588 42.65 217.413ZM46.8769 214.97C46.8769 214.293 46.6463 213.771 46.1852 213.402C45.7241 213.033 45.099 212.848 44.31 212.848C43.521 212.848 42.8959 213.033 42.4348 213.402C41.9737 213.76 41.7431 214.283 41.7431 214.97C41.7431 215.605 41.9788 216.112 42.4502 216.491C42.9215 216.87 43.5415 217.06 44.31 217.06C45.0785 217.06 45.6985 216.87 46.1698 216.491C46.6412 216.112 46.8769 215.605 46.8769 214.97ZM44.31 217.89C43.4697 217.89 42.7832 218.08 42.2503 218.459C41.7175 218.838 41.4511 219.412 41.4511 220.18C41.4511 220.918 41.7072 221.497 42.2196 221.917C42.732 222.337 43.4288 222.547 44.31 222.547C45.181 222.547 45.8727 222.337 46.385 221.917C46.8974 221.487 47.1536 220.908 47.1536 220.18C47.1536 219.422 46.8871 218.853 46.3543 218.474C45.8317 218.085 45.1503 217.89 44.31 217.89ZM50.1051 217.521C50.1051 215.759 50.3766 214.391 50.9197 213.417C51.4628 212.444 52.4363 211.957 53.8401 211.957C55.244 211.957 56.2175 212.444 56.7606 213.417C57.3037 214.391 57.5752 215.759 57.5752 217.521C57.5752 219.314 57.3037 220.703 56.7606 221.687C56.2175 222.67 55.244 223.162 53.8401 223.162C52.426 223.162 51.4475 222.67 50.9044 221.687C50.3715 220.703 50.1051 219.314 50.1051 217.521ZM56.5146 217.521C56.5146 216.568 56.448 215.764 56.3148 215.108C56.1816 214.452 55.9203 213.924 55.5309 213.525C55.1415 213.125 54.5779 212.925 53.8401 212.925C53.1024 212.925 52.5388 213.125 52.1494 213.525C51.76 213.924 51.4987 214.452 51.3655 215.108C51.2323 215.764 51.1657 216.568 51.1657 217.521C51.1657 218.505 51.2323 219.33 51.3655 219.996C51.4987 220.652 51.76 221.179 52.1494 221.579C52.5388 221.979 53.1024 222.178 53.8401 222.178C54.5779 222.178 55.1415 221.979 55.5309 221.579C55.9203 221.179 56.1816 220.652 56.3148 219.996C56.448 219.33 56.5146 218.505 56.5146 217.521Z" fill="#1A364A"/>
<path opacity="0.5" d="M35.4652 241.025V240.056H38.0782V251.077H36.9869V241.025H35.4652ZM46.8086 242.746C46.5832 241.414 45.8095 240.748 44.4877 240.748C43.4835 240.748 42.7303 241.137 42.2282 241.916C41.7261 242.695 41.4955 243.971 41.5365 245.744C41.7414 245.129 42.1308 244.647 42.7047 244.299C43.2888 243.94 43.9548 243.761 44.7029 243.761C45.7788 243.761 46.6293 244.094 47.2544 244.76C47.8897 245.416 48.2074 246.323 48.2074 247.48C48.2074 248.157 48.0741 248.772 47.8077 249.325C47.5515 249.868 47.1519 250.303 46.6088 250.631C46.076 250.959 45.4099 251.123 44.6106 251.123C43.0838 251.123 42.0284 250.637 41.4443 249.663C40.8704 248.69 40.5835 247.311 40.5835 245.528C40.5835 241.737 41.8849 239.841 44.4877 239.841C45.4714 239.841 46.245 240.113 46.8086 240.656C47.3722 241.189 47.7052 241.886 47.8077 242.746H46.8086ZM44.503 244.683C44.0214 244.683 43.5654 244.78 43.1351 244.975C42.7047 245.17 42.3511 245.467 42.0745 245.867C41.8081 246.256 41.6748 246.738 41.6748 247.311C41.6748 248.141 41.9208 248.833 42.4126 249.386C42.9045 249.94 43.6218 250.216 44.5645 250.216C45.3535 250.216 45.9837 249.976 46.4551 249.494C46.9265 249.012 47.1622 248.357 47.1622 247.527C47.1622 246.635 46.9316 245.938 46.4705 245.436C46.0094 244.934 45.3535 244.683 44.503 244.683ZM50.1426 245.467C50.1426 243.704 50.4142 242.336 50.9573 241.363C51.5003 240.389 52.4738 239.903 53.8777 239.903C55.2815 239.903 56.255 240.389 56.7981 241.363C57.3412 242.336 57.6127 243.704 57.6127 245.467C57.6127 247.26 57.3412 248.649 56.7981 249.632C56.255 250.616 55.2815 251.108 53.8777 251.108C52.4636 251.108 51.485 250.616 50.9419 249.632C50.409 248.649 50.1426 247.26 50.1426 245.467ZM56.5522 245.467C56.5522 244.514 56.4856 243.709 56.3523 243.054C56.2191 242.398 55.9578 241.87 55.5684 241.471C55.1791 241.071 54.6155 240.871 53.8777 240.871C53.1399 240.871 52.5763 241.071 52.1869 241.471C51.7975 241.87 51.5362 242.398 51.403 243.054C51.2698 243.709 51.2032 244.514 51.2032 245.467C51.2032 246.451 51.2698 247.275 51.403 247.942C51.5362 248.597 51.7975 249.125 52.1869 249.525C52.5763 249.924 53.1399 250.124 53.8777 250.124C54.6155 250.124 55.1791 249.924 55.5684 249.525C55.9578 249.125 56.2191 248.597 56.3523 247.942C56.4856 247.275 56.5522 246.451 56.5522 245.467Z" fill="#1A364A"/>
<path opacity="0.5" d="M35.5853 269.67V268.702H38.1983V279.723H37.107V269.67H35.5853ZM40.1195 277.11V276.295L45.7144 268.763H46.9902V276.172H48.6348V277.11H46.9902V279.723H45.9296V277.11H40.1195ZM45.9757 269.947L41.3645 276.172H45.9757V269.947ZM50.0225 274.112C50.0225 272.35 50.2941 270.982 50.8372 270.008C51.3803 269.035 52.3537 268.548 53.7576 268.548C55.1614 268.548 56.1349 269.035 56.678 270.008C57.2211 270.982 57.4926 272.35 57.4926 274.112C57.4926 275.906 57.2211 277.294 56.678 278.278C56.1349 279.262 55.1614 279.753 53.7576 279.753C52.3435 279.753 51.3649 279.262 50.8218 278.278C50.289 277.294 50.0225 275.906 50.0225 274.112ZM56.4321 274.112C56.4321 273.159 56.3655 272.355 56.2323 271.699C56.099 271.043 55.8377 270.516 55.4484 270.116C55.059 269.716 54.4954 269.517 53.7576 269.517C53.0198 269.517 52.4562 269.716 52.0668 270.116C51.6774 270.516 51.4161 271.043 51.2829 271.699C51.1497 272.355 51.0831 273.159 51.0831 274.112C51.0831 275.096 51.1497 275.921 51.2829 276.587C51.4161 277.243 51.6774 277.771 52.0668 278.17C52.4562 278.57 53.0198 278.77 53.7576 278.77C54.4954 278.77 55.059 278.57 55.4484 278.17C55.8377 277.771 56.099 277.243 56.2323 276.587C56.3655 275.921 56.4321 275.096 56.4321 274.112Z" fill="#1A364A"/>
<path opacity="0.5" d="M35.9005 297.617V296.649H38.5135V307.669H37.4222V297.617H35.9005ZM40.696 306.824C42.5815 305.41 44.0366 304.144 45.0613 303.028C46.0963 301.9 46.6137 300.799 46.6137 299.723C46.6137 299.016 46.4344 298.452 46.0758 298.032C45.7274 297.602 45.1535 297.386 44.3543 297.386C43.5755 297.386 42.9709 297.632 42.5405 298.124C42.1204 298.606 41.8847 299.251 41.8335 300.061H40.7883C40.8498 298.924 41.1982 298.042 41.8335 297.417C42.479 296.782 43.3193 296.464 44.3543 296.464C45.3482 296.464 46.1526 296.746 46.7674 297.31C47.3823 297.863 47.6897 298.652 47.6897 299.677C47.6897 300.917 47.1722 302.121 46.1372 303.289C45.1125 304.447 43.847 305.579 42.3407 306.686H48.0278V307.593H40.696V306.824ZM49.7073 302.059C49.7073 300.297 49.9789 298.929 50.522 297.955C51.065 296.982 52.0385 296.495 53.4424 296.495C54.8462 296.495 55.8197 296.982 56.3628 297.955C56.9059 298.929 57.1774 300.297 57.1774 302.059C57.1774 303.852 56.9059 305.241 56.3628 306.225C55.8197 307.208 54.8462 307.7 53.4424 307.7C52.0283 307.7 51.0497 307.208 50.5066 306.225C49.9737 305.241 49.7073 303.852 49.7073 302.059ZM56.1169 302.059C56.1169 301.106 56.0503 300.302 55.917 299.646C55.7838 298.99 55.5225 298.462 55.1331 298.063C54.7438 297.663 54.1802 297.463 53.4424 297.463C52.7046 297.463 52.141 297.663 51.7516 298.063C51.3622 298.462 51.1009 298.99 50.9677 299.646C50.8345 300.302 50.7679 301.106 50.7679 302.059C50.7679 303.043 50.8345 303.868 50.9677 304.534C51.1009 305.19 51.3622 305.717 51.7516 306.117C52.141 306.517 52.7046 306.716 53.4424 306.716C54.1802 306.716 54.7438 306.517 55.1331 306.117C55.5225 305.717 55.7838 305.19 55.917 304.534C56.0503 303.868 56.1169 303.043 56.1169 302.059Z" fill="#1A364A"/>
<path d="M35.5628 326.263V325.294H38.1758V336.315H37.0845V326.263H35.5628ZM40.5735 330.705C40.5735 328.942 40.845 327.574 41.3881 326.601C41.9312 325.627 42.9047 325.141 44.3086 325.141C45.7124 325.141 46.6859 325.627 47.229 326.601C47.7721 327.574 48.0436 328.942 48.0436 330.705C48.0436 332.498 47.7721 333.886 47.229 334.87C46.6859 335.854 45.7124 336.346 44.3086 336.346C42.8945 336.346 41.9159 335.854 41.3728 334.87C40.8399 333.886 40.5735 332.498 40.5735 330.705ZM46.983 330.705C46.983 329.752 46.9164 328.947 46.7832 328.291C46.65 327.636 46.3887 327.108 45.9993 326.708C45.6099 326.309 45.0464 326.109 44.3086 326.109C43.5708 326.109 43.0072 326.309 42.6178 326.708C42.2284 327.108 41.9671 327.636 41.8339 328.291C41.7007 328.947 41.6341 329.752 41.6341 330.705C41.6341 331.688 41.7007 332.513 41.8339 333.179C41.9671 333.835 42.2284 334.363 42.6178 334.763C43.0072 335.162 43.5708 335.362 44.3086 335.362C45.0464 335.362 45.6099 335.162 45.9993 334.763C46.3887 334.363 46.65 333.835 46.7832 333.179C46.9164 332.513 46.983 331.688 46.983 330.705ZM50.045 330.705C50.045 328.942 50.3166 327.574 50.8597 326.601C51.4028 325.627 52.3763 325.141 53.7801 325.141C55.184 325.141 56.1574 325.627 56.7005 326.601C57.2436 327.574 57.5152 328.942 57.5152 330.705C57.5152 332.498 57.2436 333.886 56.7005 334.87C56.1574 335.854 55.184 336.346 53.7801 336.346C52.366 336.346 51.3874 335.854 50.8443 334.87C50.3115 333.886 50.045 332.498 50.045 330.705ZM56.4546 330.705C56.4546 329.752 56.388 328.947 56.2548 328.291C56.1216 327.636 55.8603 327.108 55.4709 326.708C55.0815 326.309 54.5179 326.109 53.7801 326.109C53.0423 326.109 52.4787 326.309 52.0893 326.708C51.6999 327.108 51.4386 327.636 51.3054 328.291C51.1722 328.947 51.1056 329.752 51.1056 330.705C51.1056 331.688 51.1722 332.513 51.3054 333.179C51.4386 333.835 51.6999 334.363 52.0893 334.763C52.4787 335.162 53.0423 335.362 53.7801 335.362C54.5179 335.362 55.0815 335.162 55.4709 334.763C55.8603 334.363 56.1216 333.835 56.2548 333.179C56.388 332.513 56.4546 331.688 56.4546 330.705Z" fill="#1A364A"/>
<path d="M78.5798 351.897H77.3348L78.6721 348.577H79.456L78.5798 351.897ZM80.9971 353.711C80.9971 351.948 81.2687 350.58 81.8118 349.607C82.3548 348.633 83.3283 348.146 84.7322 348.146C86.136 348.146 87.1095 348.633 87.6526 349.607C88.1957 350.58 88.4672 351.948 88.4672 353.711C88.4672 355.504 88.1957 356.892 87.6526 357.876C87.1095 358.86 86.136 359.352 84.7322 359.352C83.3181 359.352 82.3395 358.86 81.7964 357.876C81.2635 356.892 80.9971 355.504 80.9971 353.711ZM87.4067 353.711C87.4067 352.758 87.3401 351.953 87.2068 351.297C87.0736 350.642 86.8123 350.114 86.4229 349.714C86.0335 349.315 85.47 349.115 84.7322 349.115C83.9944 349.115 83.4308 349.315 83.0414 349.714C82.652 350.114 82.3907 350.642 82.2575 351.297C82.1243 351.953 82.0577 352.758 82.0577 353.711C82.0577 354.694 82.1243 355.519 82.2575 356.185C82.3907 356.841 82.652 357.369 83.0414 357.768C83.4308 358.168 83.9944 358.368 84.7322 358.368C85.47 358.368 86.0335 358.168 86.4229 357.768C86.8123 357.369 87.0736 356.841 87.2068 356.185C87.3401 355.519 87.4067 354.694 87.4067 353.711ZM90.4687 353.711C90.4687 351.948 90.7402 350.58 91.2833 349.607C91.8264 348.633 92.7999 348.146 94.2037 348.146C95.6076 348.146 96.581 348.633 97.1241 349.607C97.6672 350.58 97.9388 351.948 97.9388 353.711C97.9388 355.504 97.6672 356.892 97.1241 357.876C96.581 358.86 95.6076 359.352 94.2037 359.352C92.7896 359.352 91.811 358.86 91.2679 357.876C90.7351 356.892 90.4687 355.504 90.4687 353.711ZM96.8782 353.711C96.8782 352.758 96.8116 351.953 96.6784 351.297C96.5452 350.642 96.2839 350.114 95.8945 349.714C95.5051 349.315 94.9415 349.115 94.2037 349.115C93.4659 349.115 92.9023 349.315 92.5129 349.714C92.1236 350.114 91.8623 350.642 91.729 351.297C91.5958 351.953 91.5292 352.758 91.5292 353.711C91.5292 354.694 91.5958 355.519 91.729 356.185C91.8623 356.841 92.1236 357.369 92.5129 357.768C92.9023 358.168 93.4659 358.368 94.2037 358.368C94.9415 358.368 95.5051 358.168 95.8945 357.768C96.2839 357.369 96.5452 356.841 96.6784 356.185C96.8116 355.519 96.8782 354.694 96.8782 353.711Z" fill="#1A364A"/>
<path d="M204.963 351.897H203.718L205.055 348.577H205.839L204.963 351.897ZM207.38 353.711C207.38 351.948 207.652 350.58 208.195 349.607C208.738 348.633 209.711 348.146 211.115 348.146C212.519 348.146 213.493 348.633 214.036 349.607C214.579 350.58 214.85 351.948 214.85 353.711C214.85 355.504 214.579 356.892 214.036 357.876C213.493 358.86 212.519 359.352 211.115 359.352C209.701 359.352 208.723 358.86 208.18 357.876C207.647 356.892 207.38 355.504 207.38 353.711ZM213.79 353.711C213.79 352.758 213.723 351.953 213.59 351.297C213.457 350.642 213.195 350.114 212.806 349.714C212.417 349.315 211.853 349.115 211.115 349.115C210.377 349.115 209.814 349.315 209.425 349.714C209.035 350.114 208.774 350.642 208.641 351.297C208.507 351.953 208.441 352.758 208.441 353.711C208.441 354.694 208.507 355.519 208.641 356.185C208.774 356.841 209.035 357.369 209.425 357.768C209.814 358.168 210.377 358.368 211.115 358.368C211.853 358.368 212.417 358.168 212.806 357.768C213.195 357.369 213.457 356.841 213.59 356.185C213.723 355.519 213.79 354.694 213.79 353.711ZM223.799 349.222H218.174V353.157C218.43 352.799 218.804 352.506 219.296 352.281C219.788 352.045 220.32 351.928 220.894 351.928C221.735 351.928 222.421 352.102 222.954 352.45C223.487 352.788 223.871 353.234 224.107 353.787C224.342 354.33 224.46 354.915 224.46 355.54C224.46 356.257 224.322 356.908 224.045 357.492C223.779 358.066 223.364 358.522 222.8 358.86C222.247 359.198 221.555 359.367 220.725 359.367C219.67 359.367 218.814 359.095 218.158 358.552C217.502 357.999 217.103 357.256 216.959 356.324H218.02C218.153 357 218.461 357.522 218.942 357.891C219.424 358.26 220.018 358.445 220.725 358.445C221.617 358.445 222.288 358.183 222.739 357.661C223.2 357.128 223.43 356.426 223.43 355.555C223.43 354.704 223.2 354.044 222.739 353.572C222.278 353.091 221.617 352.85 220.756 352.85C220.162 352.85 219.639 352.988 219.188 353.265C218.737 353.541 218.404 353.915 218.189 354.387H217.175V348.285H223.799V349.222Z" fill="#1A364A"/>
<path d="M615.289 191.749V202.493H614.213V191.749H615.289ZM621.66 193.947C622.664 193.947 623.484 194.259 624.119 194.884C624.755 195.499 625.072 196.396 625.072 197.574V202.493H624.012V197.697C624.012 196.785 623.781 196.088 623.32 195.607C622.869 195.125 622.249 194.884 621.46 194.884C620.651 194.884 620.005 195.14 619.523 195.653C619.042 196.165 618.801 196.918 618.801 197.912V202.493H617.725V194.1H618.801V195.53C619.067 195.017 619.452 194.628 619.954 194.362C620.456 194.085 621.025 193.947 621.66 193.947ZM626.96 198.296C626.96 197.425 627.134 196.667 627.483 196.022C627.831 195.366 628.313 194.864 628.927 194.515C629.542 194.157 630.244 193.977 631.033 193.977C632.068 193.977 632.919 194.234 633.585 194.746C634.261 195.258 634.697 195.955 634.891 196.836H633.738C633.595 196.232 633.282 195.76 632.801 195.422C632.329 195.074 631.74 194.9 631.033 194.9C630.47 194.9 629.962 195.028 629.511 195.284C629.061 195.54 628.702 195.924 628.436 196.437C628.179 196.939 628.051 197.559 628.051 198.296C628.051 199.034 628.179 199.659 628.436 200.172C628.702 200.684 629.061 201.068 629.511 201.325C629.962 201.581 630.47 201.709 631.033 201.709C631.74 201.709 632.329 201.54 632.801 201.202C633.282 200.853 633.595 200.372 633.738 199.757H634.891C634.697 200.617 634.261 201.309 633.585 201.832C632.908 202.354 632.058 202.616 631.033 202.616C630.244 202.616 629.542 202.441 628.927 202.093C628.313 201.734 627.831 201.232 627.483 200.587C627.134 199.931 626.96 199.167 626.96 198.296ZM640.552 202.616C639.763 202.616 639.051 202.441 638.415 202.093C637.79 201.734 637.293 201.232 636.924 200.587C636.566 199.931 636.386 199.167 636.386 198.296C636.386 197.425 636.571 196.667 636.94 196.022C637.309 195.366 637.811 194.864 638.446 194.515C639.081 194.157 639.794 193.977 640.583 193.977C641.372 193.977 642.084 194.157 642.719 194.515C643.365 194.864 643.867 195.366 644.225 196.022C644.594 196.667 644.779 197.425 644.779 198.296C644.779 199.157 644.594 199.916 644.225 200.571C643.857 201.227 643.349 201.734 642.704 202.093C642.058 202.441 641.341 202.616 640.552 202.616ZM640.552 201.678C641.105 201.678 641.618 201.555 642.089 201.309C642.56 201.053 642.939 200.674 643.226 200.172C643.524 199.659 643.672 199.034 643.672 198.296C643.672 197.559 643.529 196.939 643.242 196.437C642.955 195.924 642.576 195.545 642.104 195.299C641.633 195.043 641.121 194.915 640.567 194.915C640.014 194.915 639.502 195.043 639.03 195.299C638.559 195.545 638.18 195.924 637.893 196.437C637.616 196.939 637.478 197.559 637.478 198.296C637.478 199.034 637.616 199.659 637.893 200.172C638.18 200.674 638.554 201.053 639.015 201.309C639.486 201.555 639.999 201.678 640.552 201.678ZM656.731 193.947C657.715 193.947 658.514 194.259 659.129 194.884C659.754 195.499 660.066 196.396 660.066 197.574V202.493H659.006V197.697C659.006 196.785 658.786 196.088 658.345 195.607C657.904 195.125 657.305 194.884 656.547 194.884C655.758 194.884 655.127 195.146 654.656 195.668C654.185 196.191 653.949 196.949 653.949 197.943V202.493H652.888V197.697C652.888 196.785 652.668 196.088 652.227 195.607C651.787 195.125 651.182 194.884 650.414 194.884C649.625 194.884 648.995 195.146 648.523 195.668C648.052 196.191 647.816 196.949 647.816 197.943V202.493H646.74V194.1H647.816V195.545C648.083 195.023 648.462 194.628 648.954 194.362C649.445 194.085 649.994 193.947 650.598 193.947C651.326 193.947 651.961 194.121 652.504 194.469C653.057 194.818 653.457 195.33 653.703 196.006C653.928 195.34 654.313 194.833 654.856 194.485C655.409 194.126 656.034 193.947 656.731 193.947ZM670.049 197.866C670.049 198.235 670.039 198.517 670.018 198.712H663.055C663.086 199.347 663.24 199.89 663.517 200.341C663.793 200.792 664.157 201.135 664.608 201.371C665.059 201.596 665.551 201.709 666.083 201.709C666.78 201.709 667.364 201.54 667.836 201.202C668.317 200.863 668.635 200.407 668.789 199.834H669.926C669.721 200.653 669.281 201.325 668.604 201.847C667.938 202.359 667.098 202.616 666.083 202.616C665.294 202.616 664.587 202.441 663.962 202.093C663.337 201.734 662.845 201.232 662.487 200.587C662.138 199.931 661.964 199.167 661.964 198.296C661.964 197.425 662.138 196.662 662.487 196.006C662.835 195.35 663.322 194.848 663.947 194.5C664.572 194.152 665.284 193.977 666.083 193.977C666.883 193.977 667.58 194.152 668.174 194.5C668.778 194.848 669.24 195.32 669.557 195.914C669.885 196.498 670.049 197.149 670.049 197.866ZM668.958 197.835C668.968 197.21 668.84 196.677 668.574 196.237C668.317 195.796 667.964 195.463 667.513 195.238C667.062 195.012 666.57 194.9 666.037 194.9C665.238 194.9 664.557 195.156 663.993 195.668C663.429 196.18 663.117 196.903 663.055 197.835H668.958Z" fill="#1A364A"/>
<path d="M612.276 293.387V304.131H611.2V293.387H612.276ZM618.647 295.585C619.651 295.585 620.471 295.897 621.106 296.522C621.742 297.137 622.059 298.034 622.059 299.212V304.131H620.999V299.335C620.999 298.423 620.768 297.726 620.307 297.245C619.856 296.763 619.236 296.522 618.447 296.522C617.638 296.522 616.992 296.779 616.511 297.291C616.029 297.803 615.788 298.556 615.788 299.55V304.131H614.712V295.739H615.788V297.168C616.055 296.656 616.439 296.266 616.941 296C617.443 295.723 618.012 295.585 618.647 295.585ZM627.744 296.645H625.792V304.131H624.716V296.645H623.548V295.739H624.716V295.154C624.716 294.242 624.946 293.571 625.407 293.141C625.879 292.71 626.637 292.495 627.682 292.495V293.418C626.985 293.418 626.494 293.551 626.207 293.817C625.93 294.084 625.792 294.529 625.792 295.154V295.739H627.744V296.645ZM630.513 292.757V304.131H629.437V292.757H630.513ZM632.458 299.919C632.458 299.059 632.627 298.305 632.965 297.66C633.314 297.004 633.79 296.502 634.395 296.154C635.01 295.795 635.701 295.616 636.47 295.616C637.269 295.616 637.956 295.8 638.529 296.169C639.114 296.538 639.534 297.009 639.79 297.583V295.739H640.866V304.131H639.79V302.271C639.523 302.845 639.098 303.321 638.514 303.7C637.94 304.069 637.254 304.254 636.454 304.254C635.696 304.254 635.01 304.075 634.395 303.716C633.79 303.357 633.314 302.85 632.965 302.194C632.627 301.538 632.458 300.78 632.458 299.919ZM639.79 299.935C639.79 299.258 639.651 298.664 639.375 298.152C639.098 297.639 638.719 297.245 638.237 296.968C637.766 296.691 637.243 296.553 636.67 296.553C636.075 296.553 635.542 296.686 635.071 296.953C634.6 297.219 634.226 297.609 633.949 298.121C633.683 298.623 633.549 299.223 633.549 299.919C633.549 300.606 633.683 301.21 633.949 301.733C634.226 302.245 634.6 302.64 635.071 302.917C635.542 303.183 636.075 303.316 636.67 303.316C637.243 303.316 637.766 303.178 638.237 302.901C638.719 302.625 639.098 302.23 639.375 301.718C639.651 301.205 639.79 300.611 639.79 299.935ZM644.721 296.645V301.856C644.721 302.368 644.818 302.722 645.013 302.917C645.208 303.111 645.551 303.209 646.043 303.209H647.026V304.131H645.874C645.115 304.131 644.552 303.957 644.183 303.608C643.814 303.25 643.629 302.666 643.629 301.856V296.645H642.461V295.739H643.629V293.633H644.721V295.739H647.026V296.645H644.721ZM649.339 294.155C649.124 294.155 648.939 294.078 648.785 293.925C648.632 293.771 648.555 293.581 648.555 293.356C648.555 293.131 648.632 292.946 648.785 292.803C648.939 292.649 649.124 292.572 649.339 292.572C649.554 292.572 649.738 292.649 649.892 292.803C650.046 292.946 650.123 293.131 650.123 293.356C650.123 293.581 650.046 293.771 649.892 293.925C649.738 294.078 649.554 294.155 649.339 294.155ZM649.877 295.739V304.131H648.801V295.739H649.877ZM655.987 304.254C655.198 304.254 654.486 304.08 653.85 303.731C653.225 303.373 652.728 302.87 652.359 302.225C652.001 301.569 651.821 300.806 651.821 299.935C651.821 299.064 652.006 298.305 652.375 297.66C652.744 297.004 653.246 296.502 653.881 296.154C654.516 295.795 655.229 295.616 656.018 295.616C656.807 295.616 657.519 295.795 658.154 296.154C658.8 296.502 659.302 297.004 659.66 297.66C660.029 298.305 660.214 299.064 660.214 299.935C660.214 300.795 660.029 301.554 659.66 302.21C659.292 302.865 658.784 303.373 658.139 303.731C657.493 304.08 656.776 304.254 655.987 304.254ZM655.987 303.316C656.54 303.316 657.053 303.193 657.524 302.947C657.995 302.691 658.374 302.312 658.661 301.81C658.959 301.298 659.107 300.672 659.107 299.935C659.107 299.197 658.964 298.577 658.677 298.075C658.39 297.562 658.011 297.183 657.539 296.937C657.068 296.681 656.556 296.553 656.002 296.553C655.449 296.553 654.937 296.681 654.465 296.937C653.994 297.183 653.615 297.562 653.328 298.075C653.051 298.577 652.913 299.197 652.913 299.935C652.913 300.672 653.051 301.298 653.328 301.81C653.615 302.312 653.989 302.691 654.45 302.947C654.921 303.193 655.434 303.316 655.987 303.316ZM666.11 295.585C667.114 295.585 667.934 295.897 668.569 296.522C669.205 297.137 669.522 298.034 669.522 299.212V304.131H668.462V299.335C668.462 298.423 668.231 297.726 667.77 297.245C667.319 296.763 666.699 296.522 665.91 296.522C665.101 296.522 664.455 296.779 663.973 297.291C663.492 297.803 663.251 298.556 663.251 299.55V304.131H662.175V295.739H663.251V297.168C663.517 296.656 663.902 296.266 664.404 296C664.906 295.723 665.475 295.585 666.11 295.585Z" fill="#1A364A"/>
<path d="M333.855 351.897H332.61L333.947 348.577H334.731L333.855 351.897ZM335.75 349.268V348.3H338.363V359.321H337.272V349.268H335.75ZM340.761 353.711C340.761 351.948 341.032 350.58 341.575 349.607C342.118 348.633 343.092 348.146 344.496 348.146C345.9 348.146 346.873 348.633 347.416 349.607C347.959 350.58 348.231 351.948 348.231 353.711C348.231 355.504 347.959 356.892 347.416 357.876C346.873 358.86 345.9 359.352 344.496 359.352C343.082 359.352 342.103 358.86 341.56 357.876C341.027 356.892 340.761 355.504 340.761 353.711ZM347.17 353.711C347.17 352.758 347.104 351.953 346.97 351.297C346.837 350.642 346.576 350.114 346.186 349.714C345.797 349.315 345.233 349.115 344.496 349.115C343.758 349.115 343.194 349.315 342.805 349.714C342.416 350.114 342.154 350.642 342.021 351.297C341.888 351.953 341.821 352.758 341.821 353.711C341.821 354.694 341.888 355.519 342.021 356.185C342.154 356.841 342.416 357.369 342.805 357.768C343.194 358.168 343.758 358.368 344.496 358.368C345.233 358.368 345.797 358.168 346.186 357.768C346.576 357.369 346.837 356.841 346.97 356.185C347.104 355.519 347.17 354.694 347.17 353.711Z" fill="#1A364A"/>
<path d="M460.24 351.897H458.995L460.333 348.577H461.116L460.24 351.897ZM462.135 349.268V348.3H464.748V359.321H463.657V349.268H462.135ZM474.093 349.222H468.468V353.157C468.724 352.799 469.098 352.506 469.59 352.281C470.081 352.045 470.614 351.928 471.188 351.928C472.028 351.928 472.715 352.102 473.248 352.45C473.781 352.788 474.165 353.234 474.401 353.787C474.636 354.33 474.754 354.915 474.754 355.54C474.754 356.257 474.616 356.908 474.339 357.492C474.073 358.066 473.658 358.522 473.094 358.86C472.541 359.198 471.849 359.367 471.019 359.367C469.964 359.367 469.108 359.095 468.452 358.552C467.796 357.999 467.397 357.256 467.253 356.324H468.314C468.447 357 468.754 357.522 469.236 357.891C469.718 358.26 470.312 358.445 471.019 358.445C471.911 358.445 472.582 358.183 473.033 357.661C473.494 357.128 473.724 356.426 473.724 355.555C473.724 354.704 473.494 354.044 473.033 353.572C472.572 353.091 471.911 352.85 471.05 352.85C470.455 352.85 469.933 352.988 469.482 353.265C469.031 353.541 468.698 353.915 468.483 354.387H467.468V348.285H474.093V349.222Z" fill="#1A364A"/>
<path d="M575.259 351.897H574.014L575.352 348.577H576.135L575.259 351.897ZM577.461 358.475C579.347 357.061 580.802 355.796 581.827 354.679C582.862 353.552 583.379 352.45 583.379 351.374C583.379 350.667 583.2 350.104 582.841 349.683C582.493 349.253 581.919 349.038 581.12 349.038C580.341 349.038 579.736 349.284 579.306 349.776C578.886 350.257 578.65 350.903 578.599 351.712H577.554C577.615 350.575 577.964 349.694 578.599 349.069C579.244 348.433 580.085 348.116 581.12 348.116C582.114 348.116 582.918 348.397 583.533 348.961C584.148 349.514 584.455 350.303 584.455 351.328C584.455 352.568 583.938 353.772 582.903 354.94C581.878 356.098 580.612 357.23 579.106 358.337H584.793V359.244H577.461V358.475ZM586.473 353.711C586.473 351.948 586.744 350.58 587.287 349.607C587.83 348.633 588.804 348.146 590.208 348.146C591.612 348.146 592.585 348.633 593.128 349.607C593.671 350.58 593.943 351.948 593.943 353.711C593.943 355.504 593.671 356.892 593.128 357.876C592.585 358.86 591.612 359.352 590.208 359.352C588.794 359.352 587.815 358.86 587.272 357.876C586.739 356.892 586.473 355.504 586.473 353.711ZM592.882 353.711C592.882 352.758 592.816 351.953 592.682 351.297C592.549 350.642 592.288 350.114 591.899 349.714C591.509 349.315 590.946 349.115 590.208 349.115C589.47 349.115 588.906 349.315 588.517 349.714C588.128 350.114 587.866 350.642 587.733 351.297C587.6 351.953 587.533 352.758 587.533 353.711C587.533 354.694 587.6 355.519 587.733 356.185C587.866 356.841 588.128 357.369 588.517 357.768C588.906 358.168 589.47 358.368 590.208 358.368C590.946 358.368 591.509 358.168 591.899 357.768C592.288 357.369 592.549 356.841 592.682 356.185C592.816 355.519 592.882 354.694 592.882 353.711Z" fill="#1A364A"/>
<path d="M672.15 351.897H670.905L672.242 348.577H673.026L672.15 351.897ZM674.352 358.475C676.237 357.061 677.692 355.796 678.717 354.679C679.752 353.552 680.27 352.45 680.27 351.374C680.27 350.667 680.09 350.104 679.732 349.683C679.383 349.253 678.809 349.038 678.01 349.038C677.231 349.038 676.627 349.284 676.196 349.776C675.776 350.257 675.541 350.903 675.489 351.712H674.444C674.506 350.575 674.854 349.694 675.489 349.069C676.135 348.433 676.975 348.116 678.01 348.116C679.004 348.116 679.808 348.397 680.423 348.961C681.038 349.514 681.346 350.303 681.346 351.328C681.346 352.568 680.828 353.772 679.793 354.94C678.768 356.098 677.503 357.23 675.997 358.337H681.684V359.244H674.352V358.475ZM683.148 358.475C685.033 357.061 686.489 355.796 687.513 354.679C688.548 353.552 689.066 352.45 689.066 351.374C689.066 350.667 688.886 350.104 688.528 349.683C688.179 349.253 687.605 349.038 686.806 349.038C686.027 349.038 685.423 349.284 684.992 349.776C684.572 350.257 684.337 350.903 684.285 351.712H683.24C683.302 350.575 683.65 349.694 684.285 349.069C684.931 348.433 685.771 348.116 686.806 348.116C687.8 348.116 688.605 348.397 689.219 348.961C689.834 349.514 690.142 350.303 690.142 351.328C690.142 352.568 689.624 353.772 688.589 354.94C687.564 356.098 686.299 357.23 684.793 358.337H690.48V359.244H683.148V358.475Z" fill="#1A364A"/>
<defs>
<filter id="filter0_d_6598_10952" x="62.9378" y="215.732" width="639.825" height="144.054" filterUnits="userSpaceOnUse" color-interpolation-filters="sRGB">
<feFlood flood-opacity="0" result="BackgroundImageFix"/>
<feColorMatrix in="SourceAlpha" type="matrix" values="0 0 0 0 0 0 0 0 0 0 0 0 0 0 0 0 0 0 127 0" result="hardAlpha"/>
<feOffset dy="3.91914"/>
<feGaussianBlur stdDeviation="9.79784"/>
<feComposite in2="hardAlpha" operator="out"/>
<feColorMatrix type="matrix" values="0 0 0 0 0.137255 0 0 0 0 0.694118 0 0 0 0 0.721569 0 0 0 0.25 0"/>
<feBlend mode="normal" in2="BackgroundImageFix" result="effect1_dropShadow_6598_10952"/>
<feBlend mode="normal" in="SourceGraphic" in2="effect1_dropShadow_6598_10952" result="shape"/>
</filter>
</defs>
</svg>
