<svg width="747" height="423" viewBox="0 0 747 423" fill="none" xmlns="http://www.w3.org/2000/svg">
<g filter="url(#filter0_d_6432_12269)">
<path opacity="0.15" d="M10 25.6765C10 17.0186 17.0186 10 25.6766 10H721.323C729.981 10 737 17.0186 737 25.6765V397.18C737 405.838 729.981 412.857 721.323 412.857H25.6766C17.0186 412.857 10 405.838 10 397.18V25.6765Z" fill="#1A364A"/>
<line opacity="0.25" x1="95.1436" y1="87.4319" x2="698.79" y2="87.4319" stroke="#CCD2D7" stroke-width="0.698664" stroke-dasharray="6.29 6.29"/>
<line opacity="0.25" x1="95.1436" y1="227.166" x2="698.79" y2="227.166" stroke="#CCD2D7" stroke-width="0.698664" stroke-dasharray="6.29 6.29"/>
<path opacity="0.25" d="M95.1436 345.553H698.79" stroke="#667986" stroke-width="1.46968" stroke-linecap="round"/>
<g opacity="0.8">
<g filter="url(#filter1_d_6432_12269)">
<path d="M130.024 321.12L93.2812 346.504H692.5V77.584L689.705 88.064L677.478 106.229L665.95 145.354L650.929 169.109L638.023 181.96L620.079 183.455L609.612 193.922L595.158 192.925L583.195 204.887L570.236 207.38L556.779 221.336L542.324 223.329L526.374 235.292L513.913 235.79L499.319 249.455L484.298 247.01L471.547 257.721L458.098 259.237L445.628 280.151L429.453 280.546L419.212 291.116H414.227L401.506 282.991L390.302 288.624L373.21 277.402L362.39 279.154L347.359 271.463L340.459 276.163L334.478 275.665L319.525 250.743L310.055 247.254L295.102 229.311L259.975 221.56L252.341 228.248L244.306 230.242L226.817 253.235L208.325 268.669L200.4 280.151L182.457 291.614L174.142 300.16L154.128 309.242L140.955 321.12H130.024Z" fill="#0D6EFD" fill-opacity="0.3" shape-rendering="crispEdges"/>
</g>
<g filter="url(#filter2_d_6432_12269)">
<path d="M93.283 345.523L127.425 322.23C128.47 321.517 129.705 321.136 130.969 321.136H139.237C140.971 321.136 142.628 320.42 143.816 319.158L152.204 310.245C152.816 309.595 153.559 309.083 154.384 308.742L173.716 300.764C174.652 300.378 175.48 299.771 176.132 298.996L181.879 292.153C182.275 291.682 182.738 291.272 183.253 290.935L199.527 280.294C200.262 279.814 200.888 279.185 201.365 278.447L207.764 268.557C208.137 267.982 208.601 267.471 209.138 267.045L226.181 253.54C226.619 253.192 227.01 252.788 227.341 252.337L242.424 231.825C243.608 230.213 245.489 229.262 247.489 229.262H249.465C251.292 229.262 253.029 228.467 254.224 227.084L256.553 224.387C258.05 222.653 260.372 221.871 262.613 222.345L293.191 228.813C294.564 229.104 295.801 229.846 296.704 230.921L308.993 245.551C309.643 246.324 310.47 246.93 311.404 247.316L318.065 250.073C319.39 250.621 320.489 251.607 321.177 252.866L332.22 273.057C334.084 276.465 338.561 277.385 341.617 274.988L343.944 273.163C346.001 271.55 348.841 271.378 351.078 272.73L360.023 278.139C361.527 279.048 363.342 279.287 365.03 278.797L370.106 277.323C372.055 276.757 374.158 277.167 375.752 278.424L386.848 287.17C389.088 288.936 392.236 288.973 394.516 287.26L397.677 284.887C399.94 283.188 403.059 283.209 405.298 284.94L412.205 290.277C414.832 292.307 418.584 291.945 420.775 289.45L427.378 281.931C428.685 280.442 430.617 279.656 432.592 279.81L441.91 280.538C444.398 280.732 446.766 279.436 447.943 277.236L456.322 261.578C457.416 259.533 459.547 258.256 461.866 258.256H469.171C470.808 258.256 472.38 257.618 473.554 256.477L481.798 248.461C483.354 246.949 485.58 246.345 487.686 246.865L496.604 249.063C498.92 249.634 501.359 248.845 502.903 247.027L511.061 237.418C512.256 236.011 514.009 235.2 515.854 235.2H525.564C527.111 235.2 528.603 234.63 529.756 233.598L539.748 224.659C540.719 223.79 541.936 223.244 543.231 223.097L554.291 221.84C555.788 221.67 557.174 220.968 558.197 219.862L568.106 209.15C569.034 208.146 570.265 207.472 571.611 207.231L581.024 205.541C582.408 205.293 583.669 204.587 584.605 203.538L592.528 194.655C593.883 193.135 595.891 192.366 597.915 192.591L607.048 193.606C609.146 193.839 611.221 193.004 612.573 191.382L617.431 185.551C618.524 184.24 620.103 183.429 621.806 183.305L635.83 182.285C637.45 182.168 638.962 181.428 640.048 180.22L650.575 168.524C650.812 168.261 651.026 167.978 651.215 167.679L665.483 145.116C665.794 144.624 666.036 144.091 666.2 143.532L677.206 106.179C677.388 105.562 677.663 104.978 678.021 104.445L689.119 87.957C689.508 87.3787 689.798 86.7397 689.978 86.0661L692.501 76.6035" stroke="#0D6EFD" stroke-width="1.49529" stroke-linecap="round"/>
</g>
</g>
<path opacity="0.5" d="M107.03 339.091L94.2593 345.524H692.908V242.646L658.668 265.36L639.646 269.903L632.04 266.693L592.61 273.746L555.949 280.036L536.581 283.531L511.42 285.278L499.458 289.122L489.545 285.278L444.238 289.471L428.856 291.146L416.718 295.602L412.172 294.167L381.984 301.002L353.278 302.75L331.486 307.564L322.515 301.583L311.084 305.196L278.228 314.631L263.702 313.582L251.943 318.125L241.769 317.034L235.688 323.017L179.963 331.987L173.088 329.656L144.728 335.597H133.315L107.03 339.091Z" fill="#0D2B40"/>
<g filter="url(#filter3_d_6432_12269)">
<path d="M93.2812 345.523L105.693 339.108C106.339 338.774 107.039 338.554 107.76 338.459L133.219 335.109H144.102C144.531 335.109 144.959 335.066 145.379 334.979L171.337 329.597C172.671 329.32 174.059 329.484 175.291 330.064L177.562 331.133C178.714 331.675 180.004 331.855 181.261 331.648L234.411 322.898C235.841 322.662 237.145 321.94 238.104 320.853L239.745 318.994C241.075 317.486 243.045 316.706 245.047 316.893L251.579 317.506C252.54 317.596 253.509 317.463 254.411 317.119L263.615 313.6C264.473 313.272 265.392 313.135 266.308 313.201L278.486 314.071C279.216 314.123 279.949 314.047 280.653 313.847L312.04 304.927C312.529 304.788 312.999 304.59 313.44 304.338L318.039 301.71C320.66 300.212 323.977 300.789 325.938 303.084L327.885 305.362C329.421 307.16 331.837 307.943 334.136 307.39L354.855 302.402C355.214 302.316 355.58 302.261 355.948 302.239L383.891 300.556C384.223 300.536 384.552 300.489 384.876 300.417L411.538 294.498C412.575 294.268 413.66 294.448 414.567 295.001V295.001C415.656 295.665 416.991 295.786 418.181 295.328L429.531 290.962C430.059 290.759 430.613 290.628 431.176 290.572L447.269 288.998L487.376 284.98C488.513 284.866 489.66 285.064 490.693 285.553L496.953 288.516C498.516 289.256 500.315 289.32 501.927 288.692L510.978 285.163C511.586 284.926 512.227 284.785 512.879 284.746L540.541 283.059L560.103 279.566L597.132 273.278L630.532 266.677C632.201 266.347 633.932 266.707 635.33 267.676L636.991 268.825C638.582 269.926 640.591 270.234 642.438 269.659L660.624 264.002C661.242 263.809 661.826 263.523 662.357 263.153L692.419 242.156" stroke="#1269E8" stroke-width="1.49529" stroke-linecap="round"/>
</g>
<path opacity="0.5" d="M43.7877 59.339C43.8595 58.4065 44.2181 57.6738 44.8637 57.141C45.5195 56.5979 46.3649 56.3263 47.3998 56.3263C48.0864 56.3263 48.6756 56.4493 49.1674 56.6952C49.6593 56.9411 50.0282 57.2793 50.2741 57.7097C50.5303 58.1298 50.6584 58.6063 50.6584 59.1391C50.6584 59.7847 50.4688 60.3432 50.0897 60.8145C49.7105 61.2859 49.1726 61.578 48.4758 61.6907V61.7675C49.2033 61.911 49.7823 62.2286 50.2127 62.7205C50.643 63.2021 50.8582 63.8374 50.8582 64.6265C50.8582 65.5077 50.5611 66.2301 49.9667 66.7937C49.3826 67.3471 48.5321 67.6237 47.4152 67.6237C46.3495 67.6237 45.4734 67.3471 44.7868 66.7937C44.1003 66.2301 43.7058 65.436 43.6033 64.4113H44.6485C44.7407 65.0978 45.0276 65.6563 45.5092 66.0867C45.9909 66.5068 46.6262 66.7169 47.4152 66.7169C48.194 66.7169 48.7883 66.5119 49.1982 66.102C49.6183 65.6922 49.8284 65.1696 49.8284 64.5342C49.8284 62.9767 48.7063 62.1979 46.4622 62.1979H46.1241V61.291H46.4776C48.568 61.291 49.6132 60.6096 49.6132 59.2467C49.6132 58.6524 49.4185 58.1759 49.0291 57.8173C48.6397 57.4484 48.0864 57.2639 47.3691 57.2639C46.6723 57.2639 46.0933 57.4484 45.6322 57.8173C45.1813 58.1759 44.9149 58.6832 44.8329 59.339H43.7877ZM52.8251 61.9366C52.8251 60.1741 53.0966 58.8061 53.6397 57.8326C54.1828 56.8592 55.1563 56.3724 56.5601 56.3724C57.964 56.3724 58.9374 56.8592 59.4805 57.8326C60.0236 58.8061 60.2952 60.1741 60.2952 61.9366C60.2952 63.7298 60.0236 65.1183 59.4805 66.102C58.9374 67.0858 57.964 67.5776 56.5601 67.5776C55.146 67.5776 54.1674 67.0858 53.6243 66.102C53.0915 65.1183 52.8251 63.7298 52.8251 61.9366ZM59.2346 61.9366C59.2346 60.9836 59.168 60.1792 59.0348 59.5234C58.9016 58.8676 58.6403 58.3399 58.2509 57.9402C57.8615 57.5406 57.2979 57.3408 56.5601 57.3408C55.8223 57.3408 55.2587 57.5406 54.8693 57.9402C54.48 58.3399 54.2187 58.8676 54.0854 59.5234C53.9522 60.1792 53.8856 60.9836 53.8856 61.9366C53.8856 62.9203 53.9522 63.7452 54.0854 64.4113C54.2187 65.0671 54.48 65.5948 54.8693 65.9944C55.2587 66.3941 55.8223 66.5939 56.5601 66.5939C57.2979 66.5939 57.8615 66.3941 58.2509 65.9944C58.6403 65.5948 58.9016 65.0671 59.0348 64.4113C59.168 63.7452 59.2346 62.9203 59.2346 61.9366ZM62.2966 61.9366C62.2966 60.1741 62.5681 58.8061 63.1112 57.8326C63.6543 56.8592 64.6278 56.3724 66.0317 56.3724C67.4355 56.3724 68.409 56.8592 68.9521 57.8326C69.4952 58.8061 69.7667 60.1741 69.7667 61.9366C69.7667 63.7298 69.4952 65.1183 68.9521 66.102C68.409 67.0858 67.4355 67.5776 66.0317 67.5776C64.6176 67.5776 63.639 67.0858 63.0959 66.102C62.563 65.1183 62.2966 63.7298 62.2966 61.9366ZM68.7061 61.9366C68.7061 60.9836 68.6395 60.1792 68.5063 59.5234C68.3731 58.8676 68.1118 58.3399 67.7224 57.9402C67.333 57.5406 66.7694 57.3408 66.0317 57.3408C65.2939 57.3408 64.7303 57.5406 64.3409 57.9402C63.9515 58.3399 63.6902 58.8676 63.557 59.5234C63.4238 60.1792 63.3572 60.9836 63.3572 61.9366C63.3572 62.9203 63.4238 63.7452 63.557 64.4113C63.6902 65.0671 63.9515 65.5948 64.3409 65.9944C64.7303 66.3941 65.2939 66.5939 66.0317 66.5939C66.7694 66.5939 67.333 66.3941 67.7224 65.9944C68.1118 65.5948 68.3731 65.0671 68.5063 64.4113C68.6395 63.7452 68.7061 62.9203 68.7061 61.9366Z" fill="#CCD2D7"/>
<path d="M43.6562 93.9495C45.5416 92.5354 46.9967 91.2699 48.0214 90.153C49.0564 89.0258 49.5739 87.9243 49.5739 86.8483C49.5739 86.1413 49.3945 85.5777 49.0359 85.1575C48.6875 84.7272 48.1137 84.512 47.3144 84.512C46.5356 84.512 45.931 84.7579 45.5007 85.2498C45.0805 85.7314 44.8448 86.3769 44.7936 87.1865H43.7484C43.8099 86.049 44.1583 85.1678 44.7936 84.5427C45.4392 83.9074 46.2794 83.5897 47.3144 83.5897C48.3084 83.5897 49.1128 83.8715 49.7276 84.4351C50.3424 84.9885 50.6498 85.7775 50.6498 86.8022C50.6498 88.0421 50.1323 89.2461 49.0974 90.4143C48.0727 91.5722 46.8072 92.7045 45.3008 93.8112H50.988V94.7181H43.6562V93.9495ZM54.804 89.0771C54.1686 88.8721 53.6819 88.5493 53.3438 88.1087C53.0158 87.6681 52.8519 87.1352 52.8519 86.5102C52.8519 85.9568 52.9902 85.465 53.2669 85.0346C53.5538 84.594 53.9688 84.2507 54.5119 84.0047C55.055 83.7486 55.7057 83.6205 56.464 83.6205C57.2223 83.6205 57.873 83.7486 58.4161 84.0047C58.9592 84.2507 59.369 84.594 59.6457 85.0346C59.9326 85.465 60.0761 85.9568 60.0761 86.5102C60.0761 87.125 59.907 87.6578 59.5689 88.1087C59.2409 88.5596 58.7593 88.8824 58.124 89.0771C58.8208 89.2513 59.369 89.5843 59.7687 90.0761C60.1683 90.568 60.3681 91.1675 60.3681 91.8745C60.3681 92.5303 60.2042 93.1042 59.8763 93.596C59.5586 94.0776 59.1026 94.4516 58.5083 94.7181C57.9242 94.9845 57.2428 95.1177 56.464 95.1177C55.6852 95.1177 54.9987 94.9845 54.4043 94.7181C53.8202 94.4516 53.3642 94.0776 53.0363 93.596C52.7187 93.1042 52.5599 92.5303 52.5599 91.8745C52.5599 91.1675 52.7597 90.568 53.1593 90.0761C53.5589 89.5843 54.1072 89.2513 54.804 89.0771ZM59.0309 86.6331C59.0309 85.9568 58.8003 85.4342 58.3392 85.0653C57.8781 84.6964 57.253 84.512 56.464 84.512C55.675 84.512 55.0499 84.6964 54.5888 85.0653C54.1277 85.424 53.8971 85.9466 53.8971 86.6331C53.8971 87.2684 54.1328 87.7757 54.6041 88.1548C55.0755 88.534 55.6955 88.7235 56.464 88.7235C57.2325 88.7235 57.8525 88.534 58.3238 88.1548C58.7952 87.7757 59.0309 87.2684 59.0309 86.6331ZM56.464 89.5535C55.6237 89.5535 54.9372 89.7431 54.4043 90.1223C53.8715 90.5014 53.6051 91.0752 53.6051 91.8438C53.6051 92.5816 53.8612 93.1605 54.3736 93.5806C54.8859 94.0008 55.5827 94.2108 56.464 94.2108C57.335 94.2108 58.0267 94.0008 58.539 93.5806C59.0514 93.1503 59.3076 92.5713 59.3076 91.8438C59.3076 91.0855 59.0411 90.5168 58.5083 90.1376C57.9857 89.7482 57.3043 89.5535 56.464 89.5535ZM62.2591 89.1846C62.2591 87.4221 62.5306 86.0542 63.0737 85.0807C63.6168 84.1072 64.5903 83.6205 65.9941 83.6205C67.398 83.6205 68.3715 84.1072 68.9146 85.0807C69.4576 86.0542 69.7292 87.4221 69.7292 89.1846C69.7292 90.9779 69.4576 92.3664 68.9146 93.3501C68.3715 94.3338 67.398 94.8257 65.9941 94.8257C64.58 94.8257 63.6014 94.3338 63.0583 93.3501C62.5255 92.3664 62.2591 90.9779 62.2591 89.1846ZM68.6686 89.1846C68.6686 88.2317 68.602 87.4273 68.4688 86.7715C68.3356 86.1156 68.0743 85.5879 67.6849 85.1883C67.2955 84.7886 66.7319 84.5888 65.9941 84.5888C65.2563 84.5888 64.6928 84.7886 64.3034 85.1883C63.914 85.5879 63.6527 86.1156 63.5195 86.7715C63.3863 87.4273 63.3196 88.2317 63.3196 89.1846C63.3196 90.1684 63.3863 90.9933 63.5195 91.6593C63.6527 92.3151 63.914 92.8429 64.3034 93.2425C64.6928 93.6421 65.2563 93.8419 65.9941 93.8419C66.7319 93.8419 67.2955 93.6421 67.6849 93.2425C68.0743 92.8429 68.3356 92.3151 68.4688 91.6593C68.602 90.9933 68.6686 90.1684 68.6686 89.1846Z" fill="#CCD2D7"/>
<path opacity="0.5" d="M43.6187 121.198C45.5041 119.783 46.9592 118.518 47.9839 117.401C49.0189 116.274 49.5363 115.172 49.5363 114.096C49.5363 113.389 49.357 112.826 48.9984 112.406C48.65 111.975 48.0761 111.76 47.2769 111.76C46.4981 111.76 45.8935 112.006 45.4631 112.498C45.043 112.979 44.8073 113.625 44.7561 114.435H43.7109C43.7724 113.297 44.1208 112.416 44.7561 111.791C45.4016 111.155 46.2419 110.838 47.2769 110.838C48.2708 110.838 49.0752 111.12 49.69 111.683C50.3049 112.237 50.6123 113.026 50.6123 114.05C50.6123 115.29 50.0948 116.494 49.0599 117.662C48.0351 118.82 46.7696 119.953 45.2633 121.059H50.9504V121.966H43.6187V121.198ZM58.9626 113.712C58.7372 112.38 57.9635 111.714 56.6417 111.714C55.6374 111.714 54.8843 112.103 54.3822 112.882C53.8801 113.661 53.6495 114.937 53.6905 116.709C53.8954 116.095 54.2848 115.613 54.8587 115.265C55.4427 114.906 56.1088 114.727 56.8568 114.727C57.9328 114.727 58.7833 115.06 59.4084 115.726C60.0437 116.381 60.3613 117.288 60.3613 118.446C60.3613 119.123 60.2281 119.737 59.9617 120.291C59.7055 120.834 59.3059 121.269 58.7628 121.597C58.2299 121.925 57.5639 122.089 56.7646 122.089C55.2378 122.089 54.1824 121.602 53.5983 120.629C53.0244 119.655 52.7375 118.277 52.7375 116.494C52.7375 112.703 54.0389 110.807 56.6417 110.807C57.6254 110.807 58.399 111.079 58.9626 111.622C59.5262 112.155 59.8592 112.851 59.9617 113.712H58.9626ZM56.657 115.649C56.1754 115.649 55.7194 115.746 55.289 115.941C54.8587 116.136 54.5051 116.433 54.2285 116.832C53.962 117.222 53.8288 117.703 53.8288 118.277C53.8288 119.107 54.0748 119.799 54.5666 120.352C55.0585 120.906 55.7758 121.182 56.7185 121.182C57.5075 121.182 58.1377 120.941 58.6091 120.46C59.0805 119.978 59.3161 119.322 59.3161 118.492C59.3161 117.601 59.0856 116.904 58.6245 116.402C58.1633 115.9 57.5075 115.649 56.657 115.649ZM62.2966 116.433C62.2966 114.67 62.5681 113.302 63.1112 112.329C63.6543 111.355 64.6278 110.869 66.0317 110.869C67.4355 110.869 68.409 111.355 68.9521 112.329C69.4952 113.302 69.7667 114.67 69.7667 116.433C69.7667 118.226 69.4952 119.614 68.9521 120.598C68.409 121.582 67.4355 122.074 66.0317 122.074C64.6176 122.074 63.639 121.582 63.0959 120.598C62.563 119.614 62.2966 118.226 62.2966 116.433ZM68.7061 116.433C68.7061 115.48 68.6395 114.675 68.5063 114.02C68.3731 113.364 68.1118 112.836 67.7224 112.436C67.333 112.037 66.7694 111.837 66.0317 111.837C65.2939 111.837 64.7303 112.037 64.3409 112.436C63.9515 112.836 63.6902 113.364 63.557 114.02C63.4238 114.675 63.3572 115.48 63.3572 116.433C63.3572 117.416 63.4238 118.241 63.557 118.907C63.6902 119.563 63.9515 120.091 64.3409 120.491C64.7303 120.89 65.2939 121.09 66.0317 121.09C66.7694 121.09 67.333 120.89 67.7224 120.491C68.1118 120.091 68.3731 119.563 68.5063 118.907C68.6395 118.241 68.7061 117.416 68.7061 116.433Z" fill="#CCD2D7"/>
<path opacity="0.5" d="M43.7387 148.446C45.6242 147.032 47.0793 145.766 48.104 144.649C49.1389 143.522 49.6564 142.42 49.6564 141.344C49.6564 140.637 49.4771 140.074 49.1185 139.654C48.7701 139.223 48.1962 139.008 47.3969 139.008C46.6182 139.008 46.0136 139.254 45.5832 139.746C45.1631 140.227 44.9274 140.873 44.8762 141.683H43.831C43.8924 140.545 44.2408 139.664 44.8762 139.039C45.5217 138.403 46.362 138.086 47.3969 138.086C48.3909 138.086 49.1953 138.368 49.8101 138.931C50.425 139.485 50.7324 140.274 50.7324 141.298C50.7324 142.538 50.2149 143.742 49.1799 144.91C48.1552 146.068 46.8897 147.201 45.3834 148.307H51.0705V149.214H43.7387V148.446ZM52.2735 146.678V145.863L57.8684 138.332H59.1442V145.74H60.7888V146.678H59.1442V149.291H58.0836V146.678H52.2735ZM58.1297 139.515L53.5185 145.74H58.1297V139.515ZM62.1765 143.681C62.1765 141.918 62.4481 140.55 62.9912 139.577C63.5343 138.603 64.5077 138.117 65.9116 138.117C67.3154 138.117 68.2889 138.603 68.832 139.577C69.3751 140.55 69.6466 141.918 69.6466 143.681C69.6466 145.474 69.3751 146.862 68.832 147.846C68.2889 148.83 67.3154 149.322 65.9116 149.322C64.4975 149.322 63.5189 148.83 62.9758 147.846C62.4429 146.862 62.1765 145.474 62.1765 143.681ZM68.5861 143.681C68.5861 142.728 68.5195 141.923 68.3862 141.268C68.253 140.612 67.9917 140.084 67.6023 139.684C67.213 139.285 66.6494 139.085 65.9116 139.085C65.1738 139.085 64.6102 139.285 64.2208 139.684C63.8314 140.084 63.5701 140.612 63.4369 141.268C63.3037 141.923 63.2371 142.728 63.2371 143.681C63.2371 144.664 63.3037 145.489 63.4369 146.155C63.5701 146.811 63.8314 147.339 64.2208 147.739C64.6102 148.138 65.1738 148.338 65.9116 148.338C66.6494 148.338 67.213 148.138 67.6023 147.739C67.9917 147.339 68.253 146.811 68.3862 146.155C68.5195 145.489 68.5861 144.664 68.5861 143.681Z" fill="#CCD2D7"/>
<path opacity="0.5" d="M44.054 176.393C45.9394 174.979 47.3945 173.713 48.4192 172.596C49.4542 171.469 49.9716 170.368 49.9716 169.292C49.9716 168.585 49.7923 168.021 49.4337 167.601C49.0853 167.171 48.5114 166.955 47.7122 166.955C46.9334 166.955 46.3288 167.201 45.8984 167.693C45.4783 168.175 45.2426 168.82 45.1914 169.63H44.1462C44.2077 168.492 44.5561 167.611 45.1914 166.986C45.8369 166.351 46.6772 166.033 47.7122 166.033C48.7061 166.033 49.5105 166.315 50.1254 166.878C50.7402 167.432 51.0476 168.221 51.0476 169.246C51.0476 170.485 50.5301 171.689 49.4952 172.858C48.4704 174.016 47.2049 175.148 45.6986 176.255H51.3857V177.161H44.054V176.393ZM52.85 176.393C54.7355 174.979 56.1906 173.713 57.2153 172.596C58.2502 171.469 58.7677 170.368 58.7677 169.292C58.7677 168.585 58.5884 168.021 58.2297 167.601C57.8813 167.171 57.3075 166.955 56.5082 166.955C55.7295 166.955 55.1249 167.201 54.6945 167.693C54.2744 168.175 54.0387 168.82 53.9875 169.63H52.9423C53.0037 168.492 53.3521 167.611 53.9875 166.986C54.633 166.351 55.4733 166.033 56.5082 166.033C57.5022 166.033 58.3066 166.315 58.9214 166.878C59.5363 167.432 59.8437 168.221 59.8437 169.246C59.8437 170.485 59.3262 171.689 58.2912 172.858C57.2665 174.016 56.001 175.148 54.4947 176.255H60.1818V177.161H52.85V176.393ZM61.8613 171.628C61.8613 169.866 62.1328 168.498 62.6759 167.524C63.219 166.551 64.1925 166.064 65.5964 166.064C67.0002 166.064 67.9737 166.551 68.5168 167.524C69.0599 168.498 69.3314 169.866 69.3314 171.628C69.3314 173.421 69.0599 174.81 68.5168 175.793C67.9737 176.777 67.0002 177.269 65.5964 177.269C64.1823 177.269 63.2037 176.777 62.6606 175.793C62.1277 174.81 61.8613 173.421 61.8613 171.628ZM68.2708 171.628C68.2708 170.675 68.2042 169.871 68.071 169.215C67.9378 168.559 67.6765 168.031 67.2871 167.632C66.8977 167.232 66.3341 167.032 65.5964 167.032C64.8586 167.032 64.295 167.232 63.9056 167.632C63.5162 168.031 63.2549 168.559 63.1217 169.215C62.9885 169.871 62.9219 170.675 62.9219 171.628C62.9219 172.612 62.9885 173.437 63.1217 174.103C63.2549 174.758 63.5162 175.286 63.9056 175.686C64.295 176.085 64.8586 176.285 65.5964 176.285C66.3341 176.285 66.8977 176.085 67.2871 175.686C67.6765 175.286 67.9378 174.758 68.071 174.103C68.2042 173.437 68.2708 172.612 68.2708 171.628Z" fill="#CCD2D7"/>
<path opacity="0.5" d="M43.7162 204.34C45.6017 202.926 47.0568 201.661 48.0815 200.544C49.1164 199.416 49.6339 198.315 49.6339 197.239C49.6339 196.532 49.4546 195.968 49.0959 195.548C48.7475 195.118 48.1737 194.903 47.3744 194.903C46.5957 194.903 45.9911 195.149 45.5607 195.64C45.1406 196.122 44.9049 196.768 44.8536 197.577H43.8084C43.8699 196.44 44.2183 195.558 44.8536 194.933C45.4992 194.298 46.3395 193.98 47.3744 193.98C48.3684 193.98 49.1728 194.262 49.7876 194.826C50.4024 195.379 50.7099 196.168 50.7099 197.193C50.7099 198.433 50.1924 199.637 49.1574 200.805C48.1327 201.963 46.8672 203.095 45.3609 204.202H51.048V205.109H43.7162V204.34ZM52.7275 199.575C52.7275 197.813 52.999 196.445 53.5421 195.471C54.0852 194.498 55.0587 194.011 56.4625 194.011C57.8664 194.011 58.8399 194.498 59.383 195.471C59.9261 196.445 60.1976 197.813 60.1976 199.575C60.1976 201.369 59.9261 202.757 59.383 203.741C58.8399 204.724 57.8664 205.216 56.4625 205.216C55.0485 205.216 54.0699 204.724 53.5268 203.741C52.9939 202.757 52.7275 201.369 52.7275 199.575ZM59.137 199.575C59.137 198.622 59.0704 197.818 58.9372 197.162C58.804 196.506 58.5427 195.979 58.1533 195.579C57.7639 195.179 57.2003 194.979 56.4625 194.979C55.7248 194.979 55.1612 195.179 54.7718 195.579C54.3824 195.979 54.1211 196.506 53.9879 197.162C53.8547 197.818 53.7881 198.622 53.7881 199.575C53.7881 200.559 53.8547 201.384 53.9879 202.05C54.1211 202.706 54.3824 203.233 54.7718 203.633C55.1612 204.033 55.7248 204.233 56.4625 204.233C57.2003 204.233 57.7639 204.033 58.1533 203.633C58.5427 203.233 58.804 202.706 58.9372 202.05C59.0704 201.384 59.137 200.559 59.137 199.575ZM62.199 199.575C62.199 197.813 62.4706 196.445 63.0137 195.471C63.5568 194.498 64.5302 194.011 65.9341 194.011C67.3379 194.011 68.3114 194.498 68.8545 195.471C69.3976 196.445 69.6692 197.813 69.6692 199.575C69.6692 201.369 69.3976 202.757 68.8545 203.741C68.3114 204.724 67.3379 205.216 65.9341 205.216C64.52 205.216 63.5414 204.724 62.9983 203.741C62.4655 202.757 62.199 201.369 62.199 199.575ZM68.6086 199.575C68.6086 198.622 68.542 197.818 68.4088 197.162C68.2756 196.506 68.0142 195.979 67.6249 195.579C67.2355 195.179 66.6719 194.979 65.9341 194.979C65.1963 194.979 64.6327 195.179 64.2433 195.579C63.8539 195.979 63.5926 196.506 63.4594 197.162C63.3262 197.818 63.2596 198.622 63.2596 199.575C63.2596 200.559 63.3262 201.384 63.4594 202.05C63.5926 202.706 63.8539 203.233 64.2433 203.633C64.6327 204.033 65.1963 204.233 65.9341 204.233C66.6719 204.233 67.2355 204.033 67.6249 203.633C68.0142 203.233 68.2756 202.706 68.4088 202.05C68.542 201.384 68.6086 200.559 68.6086 199.575Z" fill="#CCD2D7"/>
<path d="M45.5028 223.078V222.11H48.1158V233.131H47.0244V223.078H45.5028ZM52.65 227.413C52.0147 227.208 51.5279 226.885 51.1898 226.445C50.8619 226.004 50.6979 225.471 50.6979 224.846C50.6979 224.293 50.8362 223.801 51.1129 223.371C51.3998 222.93 51.8148 222.587 52.3579 222.341C52.901 222.085 53.5517 221.956 54.31 221.956C55.0683 221.956 55.719 222.085 56.2621 222.341C56.8052 222.587 57.215 222.93 57.4917 223.371C57.7786 223.801 57.9221 224.293 57.9221 224.846C57.9221 225.461 57.753 225.994 57.4149 226.445C57.087 226.896 56.6053 227.218 55.97 227.413C56.6668 227.587 57.215 227.92 57.6147 228.412C58.0143 228.904 58.2141 229.503 58.2141 230.21C58.2141 230.866 58.0502 231.44 57.7223 231.932C57.4046 232.414 56.9486 232.788 56.3543 233.054C55.7702 233.32 55.0888 233.454 54.31 233.454C53.5312 233.454 52.8447 233.32 52.2503 233.054C51.6663 232.788 51.2103 232.414 50.8824 231.932C50.5647 231.44 50.4059 230.866 50.4059 230.21C50.4059 229.503 50.6057 228.904 51.0053 228.412C51.405 227.92 51.9532 227.587 52.65 227.413ZM56.8769 224.969C56.8769 224.293 56.6463 223.77 56.1852 223.401C55.7241 223.032 55.099 222.848 54.31 222.848C53.521 222.848 52.8959 223.032 52.4348 223.401C51.9737 223.76 51.7431 224.283 51.7431 224.969C51.7431 225.604 51.9788 226.112 52.4502 226.491C52.9215 226.87 53.5415 227.059 54.31 227.059C55.0785 227.059 55.6985 226.87 56.1698 226.491C56.6412 226.112 56.8769 225.604 56.8769 224.969ZM54.31 227.889C53.4697 227.889 52.7832 228.079 52.2503 228.458C51.7175 228.837 51.4511 229.411 51.4511 230.18C51.4511 230.917 51.7072 231.496 52.2196 231.917C52.732 232.337 53.4288 232.547 54.31 232.547C55.181 232.547 55.8727 232.337 56.385 231.917C56.8974 231.486 57.1536 230.907 57.1536 230.18C57.1536 229.421 56.8871 228.853 56.3543 228.474C55.8317 228.084 55.1503 227.889 54.31 227.889ZM60.1051 227.521C60.1051 225.758 60.3766 224.39 60.9197 223.417C61.4628 222.443 62.4363 221.956 63.8401 221.956C65.244 221.956 66.2175 222.443 66.7606 223.417C67.3037 224.39 67.5752 225.758 67.5752 227.521C67.5752 229.314 67.3037 230.702 66.7606 231.686C66.2175 232.67 65.244 233.162 63.8401 233.162C62.426 233.162 61.4475 232.67 60.9044 231.686C60.3715 230.702 60.1051 229.314 60.1051 227.521ZM66.5146 227.521C66.5146 226.568 66.448 225.763 66.3148 225.107C66.1816 224.452 65.9203 223.924 65.5309 223.524C65.1415 223.125 64.5779 222.925 63.8401 222.925C63.1024 222.925 62.5388 223.125 62.1494 223.524C61.76 223.924 61.4987 224.452 61.3655 225.107C61.2323 225.763 61.1657 226.568 61.1657 227.521C61.1657 228.504 61.2323 229.329 61.3655 229.995C61.4987 230.651 61.76 231.179 62.1494 231.578C62.5388 231.978 63.1024 232.178 63.8401 232.178C64.5779 232.178 65.1415 231.978 65.5309 231.578C65.9203 231.179 66.1816 230.651 66.3148 229.995C66.448 229.329 66.5146 228.504 66.5146 227.521Z" fill="#CCD2D7"/>
<path opacity="0.5" d="M45.4652 251.026V250.057H48.0782V261.078H46.9869V251.026H45.4652ZM56.8086 252.747C56.5832 251.415 55.8095 250.749 54.4877 250.749C53.4835 250.749 52.7303 251.138 52.2282 251.917C51.7261 252.696 51.4955 253.972 51.5365 255.745C51.7414 255.13 52.1308 254.648 52.7047 254.3C53.2888 253.941 53.9548 253.762 54.7029 253.762C55.7788 253.762 56.6293 254.095 57.2544 254.761C57.8897 255.417 58.2074 256.323 58.2074 257.481C58.2074 258.158 58.0741 258.773 57.8077 259.326C57.5515 259.869 57.1519 260.304 56.6088 260.632C56.076 260.96 55.4099 261.124 54.6106 261.124C53.0838 261.124 52.0284 260.638 51.4443 259.664C50.8704 258.691 50.5835 257.312 50.5835 255.529C50.5835 251.738 51.8849 249.842 54.4877 249.842C55.4714 249.842 56.245 250.114 56.8086 250.657C57.3722 251.19 57.7052 251.886 57.8077 252.747H56.8086ZM54.503 254.684C54.0214 254.684 53.5654 254.781 53.1351 254.976C52.7047 255.171 52.3511 255.468 52.0745 255.867C51.8081 256.257 51.6748 256.738 51.6748 257.312C51.6748 258.142 51.9208 258.834 52.4126 259.387C52.9045 259.941 53.6218 260.217 54.5645 260.217C55.3535 260.217 55.9837 259.977 56.4551 259.495C56.9265 259.013 57.1622 258.358 57.1622 257.528C57.1622 256.636 56.9316 255.939 56.4705 255.437C56.0094 254.935 55.3535 254.684 54.503 254.684ZM60.1426 255.468C60.1426 253.705 60.4142 252.337 60.9573 251.364C61.5003 250.39 62.4738 249.904 63.8777 249.904C65.2815 249.904 66.255 250.39 66.7981 251.364C67.3412 252.337 67.6127 253.705 67.6127 255.468C67.6127 257.261 67.3412 258.65 66.7981 259.633C66.255 260.617 65.2815 261.109 63.8777 261.109C62.4636 261.109 61.485 260.617 60.9419 259.633C60.409 258.65 60.1426 257.261 60.1426 255.468ZM66.5522 255.468C66.5522 254.515 66.4856 253.71 66.3523 253.055C66.2191 252.399 65.9578 251.871 65.5684 251.471C65.1791 251.072 64.6155 250.872 63.8777 250.872C63.1399 250.872 62.5763 251.072 62.1869 251.471C61.7975 251.871 61.5362 252.399 61.403 253.055C61.2698 253.71 61.2032 254.515 61.2032 255.468C61.2032 256.452 61.2698 257.276 61.403 257.943C61.5362 258.598 61.7975 259.126 62.1869 259.526C62.5763 259.925 63.1399 260.125 63.8777 260.125C64.6155 260.125 65.1791 259.925 65.5684 259.526C65.9578 259.126 66.2191 258.598 66.3523 257.943C66.4856 257.276 66.5522 256.452 66.5522 255.468Z" fill="#CCD2D7"/>
<path opacity="0.5" d="M45.5853 279.67V278.702H48.1983V289.723H47.107V279.67H45.5853ZM50.1195 287.11V286.295L55.7144 278.763H56.9902V286.172H58.6348V287.11H56.9902V289.723H55.9296V287.11H50.1195ZM55.9757 279.947L51.3645 286.172H55.9757V279.947ZM60.0225 284.112C60.0225 282.35 60.2941 280.982 60.8372 280.008C61.3803 279.035 62.3537 278.548 63.7576 278.548C65.1614 278.548 66.1349 279.035 66.678 280.008C67.2211 280.982 67.4926 282.35 67.4926 284.112C67.4926 285.906 67.2211 287.294 66.678 288.278C66.1349 289.262 65.1614 289.753 63.7576 289.753C62.3435 289.753 61.3649 289.262 60.8218 288.278C60.289 287.294 60.0225 285.906 60.0225 284.112ZM66.4321 284.112C66.4321 283.159 66.3655 282.355 66.2323 281.699C66.099 281.043 65.8377 280.516 65.4484 280.116C65.059 279.716 64.4954 279.517 63.7576 279.517C63.0198 279.517 62.4562 279.716 62.0668 280.116C61.6774 280.516 61.4161 281.043 61.2829 281.699C61.1497 282.355 61.0831 283.159 61.0831 284.112C61.0831 285.096 61.1497 285.921 61.2829 286.587C61.4161 287.243 61.6774 287.771 62.0668 288.17C62.4562 288.57 63.0198 288.77 63.7576 288.77C64.4954 288.77 65.059 288.57 65.4484 288.17C65.8377 287.771 66.099 287.243 66.2323 286.587C66.3655 285.921 66.4321 285.096 66.4321 284.112Z" fill="#CCD2D7"/>
<path opacity="0.5" d="M45.9005 307.618V306.649H48.5135V317.67H47.4222V307.618H45.9005ZM50.696 316.825C52.5815 315.41 54.0366 314.145 55.0613 313.028C56.0963 311.901 56.6137 310.799 56.6137 309.723C56.6137 309.016 56.4344 308.453 56.0758 308.033C55.7274 307.602 55.1535 307.387 54.3543 307.387C53.5755 307.387 52.9709 307.633 52.5405 308.125C52.1204 308.606 51.8847 309.252 51.8335 310.061H50.7883C50.8498 308.924 51.1982 308.043 51.8335 307.418C52.479 306.782 53.3193 306.465 54.3543 306.465C55.3482 306.465 56.1526 306.747 56.7674 307.31C57.3823 307.863 57.6897 308.652 57.6897 309.677C57.6897 310.917 57.1722 312.121 56.1372 313.289C55.1125 314.447 53.847 315.58 52.3407 316.686H58.0278V317.593H50.696V316.825ZM59.7073 312.06C59.7073 310.297 59.9789 308.929 60.522 307.956C61.065 306.982 62.0385 306.495 63.4424 306.495C64.8462 306.495 65.8197 306.982 66.3628 307.956C66.9059 308.929 67.1774 310.297 67.1774 312.06C67.1774 313.853 66.9059 315.241 66.3628 316.225C65.8197 317.209 64.8462 317.701 63.4424 317.701C62.0283 317.701 61.0497 317.209 60.5066 316.225C59.9737 315.241 59.7073 313.853 59.7073 312.06ZM66.1169 312.06C66.1169 311.107 66.0503 310.302 65.917 309.646C65.7838 308.991 65.5225 308.463 65.1331 308.063C64.7438 307.664 64.1802 307.464 63.4424 307.464C62.7046 307.464 62.141 307.664 61.7516 308.063C61.3622 308.463 61.1009 308.991 60.9677 309.646C60.8345 310.302 60.7679 311.107 60.7679 312.06C60.7679 313.043 60.8345 313.868 60.9677 314.534C61.1009 315.19 61.3622 315.718 61.7516 316.117C62.141 316.517 62.7046 316.717 63.4424 316.717C64.1802 316.717 64.7438 316.517 65.1331 316.117C65.5225 315.718 65.7838 315.19 65.917 314.534C66.0503 313.868 66.1169 313.043 66.1169 312.06Z" fill="#CCD2D7"/>
<path d="M45.5628 336.262V335.294H48.1758V346.314H47.0845V336.262H45.5628ZM50.5735 340.704C50.5735 338.942 50.845 337.574 51.3881 336.6C51.9312 335.627 52.9047 335.14 54.3086 335.14C55.7124 335.14 56.6859 335.627 57.229 336.6C57.7721 337.574 58.0436 338.942 58.0436 340.704C58.0436 342.497 57.7721 343.886 57.229 344.87C56.6859 345.853 55.7124 346.345 54.3086 346.345C52.8945 346.345 51.9159 345.853 51.3728 344.87C50.8399 343.886 50.5735 342.497 50.5735 340.704ZM56.983 340.704C56.983 339.751 56.9164 338.947 56.7832 338.291C56.65 337.635 56.3887 337.107 55.9993 336.708C55.6099 336.308 55.0464 336.108 54.3086 336.108C53.5708 336.108 53.0072 336.308 52.6178 336.708C52.2284 337.107 51.9671 337.635 51.8339 338.291C51.7007 338.947 51.6341 339.751 51.6341 340.704C51.6341 341.688 51.7007 342.513 51.8339 343.179C51.9671 343.835 52.2284 344.362 52.6178 344.762C53.0072 345.162 53.5708 345.361 54.3086 345.361C55.0464 345.361 55.6099 345.162 55.9993 344.762C56.3887 344.362 56.65 343.835 56.7832 343.179C56.9164 342.513 56.983 341.688 56.983 340.704ZM60.045 340.704C60.045 338.942 60.3166 337.574 60.8597 336.6C61.4028 335.627 62.3763 335.14 63.7801 335.14C65.184 335.14 66.1574 335.627 66.7005 336.6C67.2436 337.574 67.5152 338.942 67.5152 340.704C67.5152 342.497 67.2436 343.886 66.7005 344.87C66.1574 345.853 65.184 346.345 63.7801 346.345C62.366 346.345 61.3874 345.853 60.8443 344.87C60.3115 343.886 60.045 342.497 60.045 340.704ZM66.4546 340.704C66.4546 339.751 66.388 338.947 66.2548 338.291C66.1216 337.635 65.8603 337.107 65.4709 336.708C65.0815 336.308 64.5179 336.108 63.7801 336.108C63.0423 336.108 62.4787 336.308 62.0893 336.708C61.6999 337.107 61.4386 337.635 61.3054 338.291C61.1722 338.947 61.1056 339.751 61.1056 340.704C61.1056 341.688 61.1722 342.513 61.3054 343.179C61.4386 343.835 61.6999 344.362 62.0893 344.762C62.4787 345.162 63.0423 345.361 63.7801 345.361C64.5179 345.361 65.0815 345.162 65.4709 344.762C65.8603 344.362 66.1216 343.835 66.2548 343.179C66.388 342.513 66.4546 341.688 66.4546 340.704Z" fill="#CCD2D7"/>
<path d="M88.5798 361.896H87.3348L88.6721 358.576H89.456L88.5798 361.896ZM90.9971 363.71C90.9971 361.948 91.2687 360.58 91.8118 359.606C92.3548 358.633 93.3283 358.146 94.7322 358.146C96.136 358.146 97.1095 358.633 97.6526 359.606C98.1957 360.58 98.4672 361.948 98.4672 363.71C98.4672 365.503 98.1957 366.892 97.6526 367.875C97.1095 368.859 96.136 369.351 94.7322 369.351C93.3181 369.351 92.3395 368.859 91.7964 367.875C91.2635 366.892 90.9971 365.503 90.9971 363.71ZM97.4067 363.71C97.4067 362.757 97.3401 361.953 97.2068 361.297C97.0736 360.641 96.8123 360.113 96.4229 359.714C96.0335 359.314 95.47 359.114 94.7322 359.114C93.9944 359.114 93.4308 359.314 93.0414 359.714C92.652 360.113 92.3907 360.641 92.2575 361.297C92.1243 361.953 92.0577 362.757 92.0577 363.71C92.0577 364.694 92.1243 365.519 92.2575 366.185C92.3907 366.841 92.652 367.368 93.0414 367.768C93.4308 368.168 93.9944 368.367 94.7322 368.367C95.47 368.367 96.0335 368.168 96.4229 367.768C96.8123 367.368 97.0736 366.841 97.2068 366.185C97.3401 365.519 97.4067 364.694 97.4067 363.71ZM100.469 363.71C100.469 361.948 100.74 360.58 101.283 359.606C101.826 358.633 102.8 358.146 104.204 358.146C105.608 358.146 106.581 358.633 107.124 359.606C107.667 360.58 107.939 361.948 107.939 363.71C107.939 365.503 107.667 366.892 107.124 367.875C106.581 368.859 105.608 369.351 104.204 369.351C102.79 369.351 101.811 368.859 101.268 367.875C100.735 366.892 100.469 365.503 100.469 363.71ZM106.878 363.71C106.878 362.757 106.812 361.953 106.678 361.297C106.545 360.641 106.284 360.113 105.894 359.714C105.505 359.314 104.942 359.114 104.204 359.114C103.466 359.114 102.902 359.314 102.513 359.714C102.124 360.113 101.862 360.641 101.729 361.297C101.596 361.953 101.529 362.757 101.529 363.71C101.529 364.694 101.596 365.519 101.729 366.185C101.862 366.841 102.124 367.368 102.513 367.768C102.902 368.168 103.466 368.367 104.204 368.367C104.942 368.367 105.505 368.168 105.894 367.768C106.284 367.368 106.545 366.841 106.678 366.185C106.812 365.519 106.878 364.694 106.878 363.71Z" fill="#CCD2D7"/>
<path d="M214.963 361.896H213.718L215.055 358.576H215.839L214.963 361.896ZM217.38 363.71C217.38 361.948 217.652 360.58 218.195 359.606C218.738 358.633 219.711 358.146 221.115 358.146C222.519 358.146 223.493 358.633 224.036 359.606C224.579 360.58 224.85 361.948 224.85 363.71C224.85 365.503 224.579 366.892 224.036 367.875C223.493 368.859 222.519 369.351 221.115 369.351C219.701 369.351 218.723 368.859 218.18 367.875C217.647 366.892 217.38 365.503 217.38 363.71ZM223.79 363.71C223.79 362.757 223.723 361.953 223.59 361.297C223.457 360.641 223.195 360.113 222.806 359.714C222.417 359.314 221.853 359.114 221.115 359.114C220.377 359.114 219.814 359.314 219.425 359.714C219.035 360.113 218.774 360.641 218.641 361.297C218.507 361.953 218.441 362.757 218.441 363.71C218.441 364.694 218.507 365.519 218.641 366.185C218.774 366.841 219.035 367.368 219.425 367.768C219.814 368.168 220.377 368.367 221.115 368.367C221.853 368.367 222.417 368.168 222.806 367.768C223.195 367.368 223.457 366.841 223.59 366.185C223.723 365.519 223.79 364.694 223.79 363.71ZM233.799 359.222H228.174V363.157C228.43 362.798 228.804 362.506 229.296 362.281C229.788 362.045 230.32 361.927 230.894 361.927C231.735 361.927 232.421 362.101 232.954 362.45C233.487 362.788 233.871 363.234 234.107 363.787C234.342 364.33 234.46 364.914 234.46 365.539C234.46 366.256 234.322 366.907 234.045 367.491C233.779 368.065 233.364 368.521 232.8 368.859C232.247 369.197 231.555 369.366 230.725 369.366C229.67 369.366 228.814 369.095 228.158 368.552C227.502 367.998 227.103 367.256 226.959 366.323H228.02C228.153 366.999 228.461 367.522 228.942 367.891C229.424 368.26 230.018 368.444 230.725 368.444C231.617 368.444 232.288 368.183 232.739 367.66C233.2 367.127 233.43 366.426 233.43 365.555C233.43 364.704 233.2 364.043 232.739 363.572C232.278 363.09 231.617 362.849 230.756 362.849C230.162 362.849 229.639 362.988 229.188 363.264C228.737 363.541 228.404 363.915 228.189 364.386H227.175V358.284H233.799V359.222Z" fill="#CCD2D7"/>
<path d="M625.289 201.748V212.492H624.213V201.748H625.289ZM631.66 203.946C632.664 203.946 633.484 204.259 634.119 204.884C634.755 205.499 635.072 206.395 635.072 207.574V212.492H634.012V207.697C634.012 206.785 633.781 206.088 633.32 205.606C632.869 205.125 632.249 204.884 631.46 204.884C630.651 204.884 630.005 205.14 629.523 205.652C629.042 206.165 628.801 206.918 628.801 207.912V212.492H627.725V204.1H628.801V205.529C629.067 205.017 629.452 204.628 629.954 204.361C630.456 204.084 631.025 203.946 631.66 203.946ZM636.96 208.296C636.96 207.425 637.134 206.667 637.483 206.021C637.831 205.365 638.313 204.863 638.927 204.515C639.542 204.156 640.244 203.977 641.033 203.977C642.068 203.977 642.919 204.233 643.585 204.745C644.261 205.258 644.697 205.955 644.891 206.836H643.738C643.595 206.231 643.282 205.76 642.801 205.422C642.329 205.073 641.74 204.899 641.033 204.899C640.47 204.899 639.962 205.027 639.511 205.283C639.061 205.54 638.702 205.924 638.436 206.436C638.179 206.938 638.051 207.558 638.051 208.296C638.051 209.034 638.179 209.659 638.436 210.171C638.702 210.684 639.061 211.068 639.511 211.324C639.962 211.58 640.47 211.708 641.033 211.708C641.74 211.708 642.329 211.539 642.801 211.201C643.282 210.853 643.595 210.371 643.738 209.756H644.891C644.697 210.617 644.261 211.309 643.585 211.831C642.908 212.354 642.058 212.615 641.033 212.615C640.244 212.615 639.542 212.441 638.927 212.093C638.313 211.734 637.831 211.232 637.483 210.586C637.134 209.93 636.96 209.167 636.96 208.296ZM650.552 212.615C649.763 212.615 649.051 212.441 648.415 212.093C647.79 211.734 647.293 211.232 646.924 210.586C646.566 209.93 646.386 209.167 646.386 208.296C646.386 207.425 646.571 206.667 646.94 206.021C647.309 205.365 647.811 204.863 648.446 204.515C649.081 204.156 649.794 203.977 650.583 203.977C651.372 203.977 652.084 204.156 652.719 204.515C653.365 204.863 653.867 205.365 654.225 206.021C654.594 206.667 654.779 207.425 654.779 208.296C654.779 209.157 654.594 209.915 654.225 210.571C653.857 211.227 653.349 211.734 652.704 212.093C652.058 212.441 651.341 212.615 650.552 212.615ZM650.552 211.678C651.105 211.678 651.618 211.555 652.089 211.309C652.56 211.052 652.939 210.673 653.226 210.171C653.524 209.659 653.672 209.034 653.672 208.296C653.672 207.558 653.529 206.938 653.242 206.436C652.955 205.924 652.576 205.545 652.104 205.299C651.633 205.043 651.121 204.914 650.567 204.914C650.014 204.914 649.502 205.043 649.03 205.299C648.559 205.545 648.18 205.924 647.893 206.436C647.616 206.938 647.478 207.558 647.478 208.296C647.478 209.034 647.616 209.659 647.893 210.171C648.18 210.673 648.554 211.052 649.015 211.309C649.486 211.555 649.999 211.678 650.552 211.678ZM666.731 203.946C667.715 203.946 668.514 204.259 669.129 204.884C669.754 205.499 670.066 206.395 670.066 207.574V212.492H669.006V207.697C669.006 206.785 668.786 206.088 668.345 205.606C667.904 205.125 667.305 204.884 666.547 204.884C665.758 204.884 665.127 205.145 664.656 205.668C664.185 206.19 663.949 206.949 663.949 207.942V212.492H662.888V207.697C662.888 206.785 662.668 206.088 662.227 205.606C661.787 205.125 661.182 204.884 660.414 204.884C659.625 204.884 658.995 205.145 658.523 205.668C658.052 206.19 657.816 206.949 657.816 207.942V212.492H656.74V204.1H657.816V205.545C658.083 205.022 658.462 204.628 658.954 204.361C659.445 204.084 659.994 203.946 660.598 203.946C661.326 203.946 661.961 204.12 662.504 204.469C663.057 204.817 663.457 205.329 663.703 206.006C663.928 205.34 664.313 204.832 664.856 204.484C665.409 204.125 666.034 203.946 666.731 203.946ZM680.049 207.866C680.049 208.235 680.039 208.516 680.018 208.711H673.055C673.086 209.346 673.24 209.889 673.517 210.34C673.793 210.791 674.157 211.134 674.608 211.37C675.059 211.596 675.551 211.708 676.083 211.708C676.78 211.708 677.364 211.539 677.836 211.201C678.317 210.863 678.635 210.407 678.789 209.833H679.926C679.721 210.653 679.281 211.324 678.604 211.847C677.938 212.359 677.098 212.615 676.083 212.615C675.294 212.615 674.587 212.441 673.962 212.093C673.337 211.734 672.845 211.232 672.487 210.586C672.138 209.93 671.964 209.167 671.964 208.296C671.964 207.425 672.138 206.662 672.487 206.006C672.835 205.35 673.322 204.848 673.947 204.499C674.572 204.151 675.284 203.977 676.083 203.977C676.883 203.977 677.58 204.151 678.174 204.499C678.778 204.848 679.24 205.319 679.557 205.914C679.885 206.498 680.049 207.148 680.049 207.866ZM678.958 207.835C678.968 207.21 678.84 206.677 678.574 206.236C678.317 205.796 677.964 205.463 677.513 205.237C677.062 205.012 676.57 204.899 676.037 204.899C675.238 204.899 674.557 205.155 673.993 205.668C673.429 206.18 673.117 206.902 673.055 207.835H678.958Z" fill="#CCD2D7"/>
<path d="M622.276 303.387V314.131H621.2V303.387H622.276ZM628.647 305.585C629.651 305.585 630.471 305.897 631.106 306.522C631.742 307.137 632.059 308.034 632.059 309.212V314.131H630.999V309.335C630.999 308.423 630.768 307.726 630.307 307.245C629.856 306.763 629.236 306.522 628.447 306.522C627.638 306.522 626.992 306.779 626.511 307.291C626.029 307.803 625.788 308.556 625.788 309.55V314.131H624.712V305.739H625.788V307.168C626.055 306.656 626.439 306.266 626.941 306C627.443 305.723 628.012 305.585 628.647 305.585ZM637.744 306.645H635.792V314.131H634.716V306.645H633.548V305.739H634.716V305.154C634.716 304.242 634.946 303.571 635.407 303.141C635.879 302.71 636.637 302.495 637.682 302.495V303.418C636.985 303.418 636.494 303.551 636.207 303.817C635.93 304.084 635.792 304.529 635.792 305.154V305.739H637.744V306.645ZM640.513 302.757V314.131H639.437V302.757H640.513ZM642.458 309.919C642.458 309.059 642.627 308.305 642.965 307.66C643.314 307.004 643.79 306.502 644.395 306.154C645.01 305.795 645.701 305.616 646.47 305.616C647.269 305.616 647.956 305.8 648.529 306.169C649.114 306.538 649.534 307.009 649.79 307.583V305.739H650.866V314.131H649.79V312.271C649.523 312.845 649.098 313.321 648.514 313.7C647.94 314.069 647.254 314.254 646.454 314.254C645.696 314.254 645.01 314.075 644.395 313.716C643.79 313.357 643.314 312.85 642.965 312.194C642.627 311.538 642.458 310.78 642.458 309.919ZM649.79 309.935C649.79 309.258 649.651 308.664 649.375 308.152C649.098 307.639 648.719 307.245 648.237 306.968C647.766 306.691 647.243 306.553 646.67 306.553C646.075 306.553 645.542 306.686 645.071 306.953C644.6 307.219 644.226 307.609 643.949 308.121C643.683 308.623 643.549 309.223 643.549 309.919C643.549 310.606 643.683 311.21 643.949 311.733C644.226 312.245 644.6 312.64 645.071 312.917C645.542 313.183 646.075 313.316 646.67 313.316C647.243 313.316 647.766 313.178 648.237 312.901C648.719 312.625 649.098 312.23 649.375 311.718C649.651 311.205 649.79 310.611 649.79 309.935ZM654.721 306.645V311.856C654.721 312.368 654.818 312.722 655.013 312.917C655.208 313.111 655.551 313.209 656.043 313.209H657.026V314.131H655.874C655.115 314.131 654.552 313.957 654.183 313.608C653.814 313.25 653.629 312.666 653.629 311.856V306.645H652.461V305.739H653.629V303.633H654.721V305.739H657.026V306.645H654.721ZM659.339 304.155C659.124 304.155 658.939 304.078 658.785 303.925C658.632 303.771 658.555 303.581 658.555 303.356C658.555 303.131 658.632 302.946 658.785 302.803C658.939 302.649 659.124 302.572 659.339 302.572C659.554 302.572 659.738 302.649 659.892 302.803C660.046 302.946 660.123 303.131 660.123 303.356C660.123 303.581 660.046 303.771 659.892 303.925C659.738 304.078 659.554 304.155 659.339 304.155ZM659.877 305.739V314.131H658.801V305.739H659.877ZM665.987 314.254C665.198 314.254 664.486 314.08 663.85 313.731C663.225 313.373 662.728 312.87 662.359 312.225C662.001 311.569 661.821 310.806 661.821 309.935C661.821 309.064 662.006 308.305 662.375 307.66C662.744 307.004 663.246 306.502 663.881 306.154C664.516 305.795 665.229 305.616 666.018 305.616C666.807 305.616 667.519 305.795 668.154 306.154C668.8 306.502 669.302 307.004 669.66 307.66C670.029 308.305 670.214 309.064 670.214 309.935C670.214 310.795 670.029 311.554 669.66 312.21C669.292 312.865 668.784 313.373 668.139 313.731C667.493 314.08 666.776 314.254 665.987 314.254ZM665.987 313.316C666.54 313.316 667.053 313.193 667.524 312.947C667.995 312.691 668.374 312.312 668.661 311.81C668.959 311.298 669.107 310.672 669.107 309.935C669.107 309.197 668.964 308.577 668.677 308.075C668.39 307.562 668.011 307.183 667.539 306.937C667.068 306.681 666.556 306.553 666.002 306.553C665.449 306.553 664.937 306.681 664.465 306.937C663.994 307.183 663.615 307.562 663.328 308.075C663.051 308.577 662.913 309.197 662.913 309.935C662.913 310.672 663.051 311.298 663.328 311.81C663.615 312.312 663.989 312.691 664.45 312.947C664.921 313.193 665.434 313.316 665.987 313.316ZM676.11 305.585C677.114 305.585 677.934 305.897 678.569 306.522C679.205 307.137 679.522 308.034 679.522 309.212V314.131H678.462V309.335C678.462 308.423 678.231 307.726 677.77 307.245C677.319 306.763 676.699 306.522 675.91 306.522C675.101 306.522 674.455 306.779 673.973 307.291C673.492 307.803 673.251 308.556 673.251 309.55V314.131H672.175V305.739H673.251V307.168C673.517 306.656 673.902 306.266 674.404 306C674.906 305.723 675.475 305.585 676.11 305.585Z" fill="#CCD2D7"/>
<path d="M343.855 361.896H342.61L343.947 358.576H344.731L343.855 361.896ZM345.75 359.268V358.3H348.363V369.32H347.272V359.268H345.75ZM350.761 363.71C350.761 361.948 351.032 360.58 351.575 359.606C352.118 358.633 353.092 358.146 354.496 358.146C355.9 358.146 356.873 358.633 357.416 359.606C357.959 360.58 358.231 361.948 358.231 363.71C358.231 365.503 357.959 366.892 357.416 367.875C356.873 368.859 355.9 369.351 354.496 369.351C353.082 369.351 352.103 368.859 351.56 367.875C351.027 366.892 350.761 365.503 350.761 363.71ZM357.17 363.71C357.17 362.757 357.104 361.953 356.97 361.297C356.837 360.641 356.576 360.113 356.186 359.714C355.797 359.314 355.233 359.114 354.496 359.114C353.758 359.114 353.194 359.314 352.805 359.714C352.416 360.113 352.154 360.641 352.021 361.297C351.888 361.953 351.821 362.757 351.821 363.71C351.821 364.694 351.888 365.519 352.021 366.185C352.154 366.841 352.416 367.368 352.805 367.768C353.194 368.168 353.758 368.367 354.496 368.367C355.233 368.367 355.797 368.168 356.186 367.768C356.576 367.368 356.837 366.841 356.97 366.185C357.104 365.519 357.17 364.694 357.17 363.71Z" fill="#CCD2D7"/>
<path d="M470.24 361.896H468.995L470.333 358.576H471.116L470.24 361.896ZM472.135 359.268V358.3H474.748V369.32H473.657V359.268H472.135ZM484.093 359.222H478.468V363.157C478.724 362.798 479.098 362.506 479.59 362.281C480.081 362.045 480.614 361.927 481.188 361.927C482.028 361.927 482.715 362.101 483.248 362.45C483.781 362.788 484.165 363.234 484.401 363.787C484.636 364.33 484.754 364.914 484.754 365.539C484.754 366.256 484.616 366.907 484.339 367.491C484.073 368.065 483.658 368.521 483.094 368.859C482.541 369.197 481.849 369.366 481.019 369.366C479.964 369.366 479.108 369.095 478.452 368.552C477.796 367.998 477.397 367.256 477.253 366.323H478.314C478.447 366.999 478.754 367.522 479.236 367.891C479.718 368.26 480.312 368.444 481.019 368.444C481.911 368.444 482.582 368.183 483.033 367.66C483.494 367.127 483.724 366.426 483.724 365.555C483.724 364.704 483.494 364.043 483.033 363.572C482.572 363.09 481.911 362.849 481.05 362.849C480.455 362.849 479.933 362.988 479.482 363.264C479.031 363.541 478.698 363.915 478.483 364.386H477.468V358.284H484.093V359.222Z" fill="#CCD2D7"/>
<path d="M585.259 361.896H584.014L585.352 358.576H586.135L585.259 361.896ZM587.461 368.475C589.347 367.061 590.802 365.795 591.827 364.678C592.862 363.551 593.379 362.45 593.379 361.374C593.379 360.667 593.2 360.103 592.841 359.683C592.493 359.253 591.919 359.037 591.12 359.037C590.341 359.037 589.736 359.283 589.306 359.775C588.886 360.257 588.65 360.902 588.599 361.712H587.554C587.615 360.574 587.964 359.693 588.599 359.068C589.244 358.433 590.085 358.115 591.12 358.115C592.114 358.115 592.918 358.397 593.533 358.961C594.148 359.514 594.455 360.303 594.455 361.328C594.455 362.567 593.938 363.772 592.903 364.94C591.878 366.098 590.612 367.23 589.106 368.337H594.793V369.243H587.461V368.475ZM596.473 363.71C596.473 361.948 596.744 360.58 597.287 359.606C597.83 358.633 598.804 358.146 600.208 358.146C601.612 358.146 602.585 358.633 603.128 359.606C603.671 360.58 603.943 361.948 603.943 363.71C603.943 365.503 603.671 366.892 603.128 367.875C602.585 368.859 601.612 369.351 600.208 369.351C598.794 369.351 597.815 368.859 597.272 367.875C596.739 366.892 596.473 365.503 596.473 363.71ZM602.882 363.71C602.882 362.757 602.816 361.953 602.682 361.297C602.549 360.641 602.288 360.113 601.899 359.714C601.509 359.314 600.946 359.114 600.208 359.114C599.47 359.114 598.906 359.314 598.517 359.714C598.128 360.113 597.866 360.641 597.733 361.297C597.6 361.953 597.533 362.757 597.533 363.71C597.533 364.694 597.6 365.519 597.733 366.185C597.866 366.841 598.128 367.368 598.517 367.768C598.906 368.168 599.47 368.367 600.208 368.367C600.946 368.367 601.509 368.168 601.899 367.768C602.288 367.368 602.549 366.841 602.682 366.185C602.816 365.519 602.882 364.694 602.882 363.71Z" fill="#CCD2D7"/>
<path d="M682.15 361.896H680.905L682.242 358.576H683.026L682.15 361.896ZM684.352 368.475C686.237 367.061 687.692 365.795 688.717 364.678C689.752 363.551 690.27 362.45 690.27 361.374C690.27 360.667 690.09 360.103 689.732 359.683C689.383 359.253 688.809 359.037 688.01 359.037C687.231 359.037 686.627 359.283 686.196 359.775C685.776 360.257 685.541 360.902 685.489 361.712H684.444C684.506 360.574 684.854 359.693 685.489 359.068C686.135 358.433 686.975 358.115 688.01 358.115C689.004 358.115 689.808 358.397 690.423 358.961C691.038 359.514 691.346 360.303 691.346 361.328C691.346 362.567 690.828 363.772 689.793 364.94C688.768 366.098 687.503 367.23 685.997 368.337H691.684V369.243H684.352V368.475ZM693.148 368.475C695.033 367.061 696.489 365.795 697.513 364.678C698.548 363.551 699.066 362.45 699.066 361.374C699.066 360.667 698.886 360.103 698.528 359.683C698.179 359.253 697.605 359.037 696.806 359.037C696.027 359.037 695.423 359.283 694.992 359.775C694.572 360.257 694.337 360.902 694.285 361.712H693.24C693.302 360.574 693.65 359.693 694.285 359.068C694.931 358.433 695.771 358.115 696.806 358.115C697.8 358.115 698.605 358.397 699.219 358.961C699.834 359.514 700.142 360.303 700.142 361.328C700.142 362.567 699.624 363.772 698.589 364.94C697.564 366.098 696.299 367.23 694.793 368.337H700.48V369.243H693.148V368.475Z" fill="#CCD2D7"/>
</g>
<defs>
<filter id="filter0_d_6432_12269" x="0.202156" y="0.202156" width="746.596" height="422.453" filterUnits="userSpaceOnUse" color-interpolation-filters="sRGB">
<feFlood flood-opacity="0" result="BackgroundImageFix"/>
<feColorMatrix in="SourceAlpha" type="matrix" values="0 0 0 0 0 0 0 0 0 0 0 0 0 0 0 0 0 0 127 0" result="hardAlpha"/>
<feOffset/>
<feGaussianBlur stdDeviation="4.89892"/>
<feComposite in2="hardAlpha" operator="out"/>
<feColorMatrix type="matrix" values="0 0 0 0 0.0941176 0 0 0 0 0.188235 0 0 0 0 0.262745 0 0 0 0.25 0"/>
<feBlend mode="normal" in2="BackgroundImageFix" result="effect1_dropShadow_6432_12269"/>
<feBlend mode="normal" in="SourceGraphic" in2="effect1_dropShadow_6432_12269" result="shape"/>
</filter>
<filter id="filter1_d_6432_12269" x="73.6856" y="61.9074" width="638.41" height="308.111" filterUnits="userSpaceOnUse" color-interpolation-filters="sRGB">
<feFlood flood-opacity="0" result="BackgroundImageFix"/>
<feColorMatrix in="SourceAlpha" type="matrix" values="0 0 0 0 0 0 0 0 0 0 0 0 0 0 0 0 0 0 127 0" result="hardAlpha"/>
<feOffset dy="3.91914"/>
<feGaussianBlur stdDeviation="9.79784"/>
<feComposite in2="hardAlpha" operator="out"/>
<feColorMatrix type="matrix" values="0 0 0 0 0.137255 0 0 0 0 0.616392 0 0 0 0 0.721569 0 0 0 0.25 0"/>
<feBlend mode="normal" in2="BackgroundImageFix" result="effect1_dropShadow_6432_12269"/>
<feBlend mode="normal" in="SourceGraphic" in2="effect1_dropShadow_6432_12269" result="shape"/>
</filter>
<filter id="filter2_d_6432_12269" x="72.9395" y="60.1789" width="639.905" height="309.607" filterUnits="userSpaceOnUse" color-interpolation-filters="sRGB">
<feFlood flood-opacity="0" result="BackgroundImageFix"/>
<feColorMatrix in="SourceAlpha" type="matrix" values="0 0 0 0 0 0 0 0 0 0 0 0 0 0 0 0 0 0 127 0" result="hardAlpha"/>
<feOffset dy="3.91914"/>
<feGaussianBlur stdDeviation="9.79784"/>
<feComposite in2="hardAlpha" operator="out"/>
<feColorMatrix type="matrix" values="0 0 0 0 0.137255 0 0 0 0 0.694118 0 0 0 0 0.721569 0 0 0 0.25 0"/>
<feBlend mode="normal" in2="BackgroundImageFix" result="effect1_dropShadow_6432_12269"/>
<feBlend mode="normal" in="SourceGraphic" in2="effect1_dropShadow_6432_12269" result="shape"/>
</filter>
<filter id="filter3_d_6432_12269" x="72.9378" y="225.732" width="639.825" height="144.055" filterUnits="userSpaceOnUse" color-interpolation-filters="sRGB">
<feFlood flood-opacity="0" result="BackgroundImageFix"/>
<feColorMatrix in="SourceAlpha" type="matrix" values="0 0 0 0 0 0 0 0 0 0 0 0 0 0 0 0 0 0 127 0" result="hardAlpha"/>
<feOffset dy="3.91914"/>
<feGaussianBlur stdDeviation="9.79784"/>
<feComposite in2="hardAlpha" operator="out"/>
<feColorMatrix type="matrix" values="0 0 0 0 0.137255 0 0 0 0 0.694118 0 0 0 0 0.721569 0 0 0 0.25 0"/>
<feBlend mode="normal" in2="BackgroundImageFix" result="effect1_dropShadow_6432_12269"/>
<feBlend mode="normal" in="SourceGraphic" in2="effect1_dropShadow_6432_12269" result="shape"/>
</filter>
</defs>
</svg>
