<svg width="12" height="16" viewBox="0 0 12 16" fill="none" xmlns="http://www.w3.org/2000/svg">
<path opacity="0.35" d="M5.05986 0.484396C4.12719 0.630991 3.35964 0.918319 2.6135 1.39622C1.3414 2.21129 0.457652 3.47787 0.13351 4.94383C0.0356558 5.37775 -0.0010395 6.25146 0.0570614 6.70883C0.225248 8.01353 0.940807 9.60263 2.12423 11.2943C2.65937 12.0566 3.50336 13.1004 4.18223 13.8422C4.56447 14.2556 5.3626 15.0765 5.57359 15.2729C5.75401 15.4371 5.78459 15.4547 5.90691 15.4547C6.03534 15.4547 6.04452 15.4488 6.44205 15.0618C7.92821 13.6047 9.33487 11.8954 10.2186 10.4734C11.0626 9.11593 11.5611 7.90505 11.7292 6.80559C11.8026 6.30716 11.7751 5.42466 11.6681 4.94383C11.1757 2.71265 9.40826 1.018 7.0781 0.543034C6.75702 0.4756 6.62247 0.463874 6.00782 0.45801C5.52467 0.449214 5.22805 0.458009 5.05986 0.484396ZM6.57354 3.59515C6.87628 3.66845 7.35638 3.903 7.59795 4.09944C8.79667 5.06697 8.89452 6.76747 7.81507 7.85521C7.02612 8.64976 5.69897 8.85792 4.68373 8.34484C3.98346 7.99008 3.48196 7.37731 3.30154 6.65899C3.21898 6.31889 3.21898 5.82633 3.30154 5.48623C3.43303 4.96435 3.77552 4.43954 4.21281 4.09064C4.44521 3.90593 4.93448 3.66551 5.22805 3.59222C5.62864 3.49253 6.16378 3.49253 6.57354 3.59515Z" fill="#4D6372"/>
</svg>
