<svg width="111" height="107" viewBox="0 0 111 107" fill="none" xmlns="http://www.w3.org/2000/svg">
<g filter="url(#filter0_d_7776_1879)">
<path d="M69.7796 22.2814C69.5574 22.4295 69.2316 22.7554 69.0835 22.9775C68.7132 23.5551 68.6984 24.8881 69.0835 25.4509C69.587 26.2211 69.9425 26.3692 71.5273 26.4432L72.9935 26.5173L49.8295 38.9436C37.0922 45.7861 25.7471 51.8734 24.6215 52.4806C22.2814 53.7691 22 54.0654 22 55.3391C22 56.7313 22.8146 57.5459 24.192 57.5459C24.9622 57.5459 25.7916 57.1016 50.259 43.9792C64.1663 36.5146 75.8224 30.2496 76.1778 30.0423L76.8147 29.6868L76.1334 31.0198C75.6002 32.101 75.4669 32.5157 75.4669 33.1377C75.4669 34.5151 76.2963 35.3297 77.6737 35.3297C79.1548 35.3297 79.1696 35.3149 81.9096 29.8349C84.146 25.3769 84.3534 24.9029 84.3534 24.192C84.3534 23.3182 84.0572 22.7257 83.3759 22.2814C82.976 22.0148 82.5613 22 76.5777 22C70.5942 22 70.1795 22.0148 69.7796 22.2814Z" fill="#0D6EFD"/>
<path d="M76.4463 40.0541C76.2242 40.2022 75.8983 40.528 75.7502 40.7502C75.4836 41.1649 75.4688 41.861 75.4688 62.0629C75.4688 82.2648 75.4836 82.9609 75.7502 83.3756C75.8983 83.5978 76.2242 83.9236 76.4463 84.0717C76.8462 84.3383 77.2313 84.3531 82.2077 84.3531C87.1841 84.3531 87.5692 84.3383 87.9691 84.0717C88.1913 83.9236 88.5171 83.5978 88.6652 83.3756C88.9318 82.9609 88.9466 82.2648 88.9466 62.0629C88.9466 41.861 88.9318 41.1649 88.6652 40.7502C88.5171 40.528 88.1913 40.2022 87.9691 40.0541C87.5692 39.7875 87.1841 39.7727 82.2077 39.7727C77.2313 39.7727 76.8462 39.7875 76.4463 40.0541Z" fill="#0D6EFD"/>
<path d="M58.6707 48.9406C58.4486 49.0887 58.1228 49.4145 57.9746 49.6367C57.708 50.0514 57.6932 50.6438 57.6932 66.5062C57.6932 82.3685 57.708 82.9609 57.9746 83.3756C58.1228 83.5978 58.4486 83.9236 58.6707 84.0717C59.0706 84.3383 59.4557 84.3531 64.3581 84.3531C69.2605 84.3531 69.6455 84.3383 70.0454 84.0717C70.2676 83.9236 70.5934 83.5978 70.7415 83.3756C71.0081 82.9609 71.0229 82.3685 71.0229 66.5062C71.0229 50.6438 71.0081 50.0514 70.7415 49.6367C70.5934 49.4145 70.2676 49.0887 70.0454 48.9406C69.6455 48.674 69.2605 48.6592 64.3581 48.6592C59.4557 48.6592 59.0706 48.674 58.6707 48.9406Z" fill="#1269E8"/>
<path d="M40.8974 57.827C40.6753 57.9751 40.3494 58.301 40.2013 58.5231C39.9347 58.9378 39.9199 59.4414 39.9199 70.9494C39.9199 82.4574 39.9347 82.9609 40.2013 83.3756C40.3494 83.5978 40.6753 83.9236 40.8974 84.0717C41.2973 84.3383 41.6824 84.3531 46.5848 84.3531C51.4871 84.3531 51.8722 84.3383 52.2721 84.0717C52.4943 83.9236 52.8201 83.5978 52.9682 83.3756C53.2348 82.9609 53.2496 82.4574 53.2496 70.9494C53.2496 59.4414 53.2348 58.9378 52.9682 58.5231C52.8201 58.301 52.4943 57.9751 52.2721 57.827C51.8722 57.5604 51.4871 57.5456 46.5848 57.5456C41.6824 57.5456 41.2973 57.5604 40.8974 57.827Z" fill="#0D6EFD"/>
<path d="M22.9775 66.7135C22.7554 66.8616 22.4295 67.1874 22.2814 67.4096C22.0148 67.8095 22 68.239 22 75.3926C22 82.5462 22.0148 82.9757 22.2814 83.3756C22.4295 83.5978 22.7554 83.9236 22.9775 84.0717C23.3774 84.3383 23.7625 84.3531 28.7389 84.3531C33.7153 84.3531 34.1004 84.3383 34.5003 84.0717C34.7225 83.9236 35.0483 83.5978 35.1964 83.3756C35.463 82.9757 35.4778 82.5462 35.4778 75.3926C35.4778 68.239 35.463 67.8095 35.1964 67.4096C35.0483 67.1874 34.7225 66.8616 34.5003 66.7135C34.1004 66.4469 33.7153 66.4321 28.7389 66.4321C23.7625 66.4321 23.3774 66.4469 22.9775 66.7135Z" fill="#1269E8"/>
</g>
<defs>
<filter id="filter0_d_7776_1879" x="0" y="0" width="110.947" height="106.353" filterUnits="userSpaceOnUse" color-interpolation-filters="sRGB">
<feFlood flood-opacity="0" result="BackgroundImageFix"/>
<feColorMatrix in="SourceAlpha" type="matrix" values="0 0 0 0 0 0 0 0 0 0 0 0 0 0 0 0 0 0 127 0" result="hardAlpha"/>
<feOffset/>
<feGaussianBlur stdDeviation="11"/>
<feComposite in2="hardAlpha" operator="out"/>
<feColorMatrix type="matrix" values="0 0 0 0 0.0509804 0 0 0 0 0.431373 0 0 0 0 0.992157 0 0 0 0.25 0"/>
<feBlend mode="normal" in2="BackgroundImageFix" result="effect1_dropShadow_7776_1879"/>
<feBlend mode="normal" in="SourceGraphic" in2="effect1_dropShadow_7776_1879" result="shape"/>
</filter>
</defs>
</svg>
