<svg width="108" height="108" viewBox="0 0 108 108" fill="none" xmlns="http://www.w3.org/2000/svg">
<g filter="url(#filter0_d_7776_1890)">
<path d="M83.8442 54.0001C83.8442 70.4826 70.4825 83.8443 54 83.8443C37.5175 83.8443 24.1558 70.4826 24.1558 54.0001C24.1558 37.5175 37.5175 24.1558 54 24.1558C70.4825 24.1558 83.8442 37.5175 83.8442 54.0001Z" stroke="#1269E8" stroke-width="4.31164"/>
<path fill-rule="evenodd" clip-rule="evenodd" d="M53.9999 83.9362C70.5328 83.9362 83.9354 70.5336 83.9354 54.0006C83.9354 37.4676 70.5328 24.065 53.9999 24.065C37.467 24.065 24.0645 37.4676 24.0645 54.0006C24.0645 70.5336 37.467 83.9362 53.9999 83.9362ZM51.9455 38.1831C51.9455 36.3669 52.1656 35.9396 53.2796 35.539C54.201 35.2185 55.3287 35.5657 55.7963 36.3269C56.0301 36.6741 56.0713 37.0079 56.0713 38.1831C56.0713 39.4785 56.0988 39.6254 56.3189 39.6254C56.8277 39.6254 58.2442 40.0527 59.2207 40.5068C62.5351 42.0158 64.4467 44.6333 64.2954 47.4377C64.2541 48.2656 64.1991 48.4793 63.9103 48.7731C62.5351 50.202 60.3759 49.5076 60.1283 47.5445C59.9221 45.9019 58.8769 44.7802 56.869 44.059L56.0713 43.7652V47.7048C56.0713 51.4039 56.0851 51.6443 56.3189 51.6443C56.8277 51.6443 58.2442 52.0716 59.2207 52.5257C62.5626 54.0481 64.3229 56.4786 64.3229 59.5367C64.3229 61.66 63.5527 63.2492 61.7374 64.8918C60.5547 65.9468 59.0144 66.7213 57.2816 67.162L56.0713 67.4692V68.8714C56.0713 70.4071 55.9201 70.7944 55.1637 71.2885C54.6273 71.6357 53.3896 71.6357 52.8532 71.2885C52.0968 70.7944 51.9455 70.4071 51.9455 68.8714V67.4692L50.7491 67.162C46.5958 66.1204 43.694 63.0622 43.694 59.737C43.694 58.228 44.3816 57.4668 45.7569 57.4668C46.9946 57.4668 47.7097 58.1612 47.8885 59.4966C47.9435 59.9106 48.0948 60.4715 48.2323 60.7252C48.7274 61.6734 50.2815 62.7685 51.5742 63.0622L51.9455 63.1557V59.3097V55.4503L50.7491 55.1431C47.4622 54.3285 44.7804 52.1117 43.969 49.5343C43.4464 47.9184 43.639 45.8485 44.4504 44.286C45.5368 42.2295 48.1498 40.3866 50.8728 39.799L51.9455 39.5586V38.1831ZM51.9455 51.1368V47.451C51.9455 45.4212 51.9318 43.7652 51.918 43.7786C50.9416 44.0323 49.6076 44.7401 49.0162 45.301C47.971 46.2892 47.6547 47.6113 48.2186 48.6796C48.7274 49.6545 50.2677 50.7362 51.5742 51.0433L51.9455 51.1368ZM59.7983 60.6985C60.4997 59.3497 59.8258 57.6804 58.148 56.6655C57.8729 56.4919 57.2953 56.2248 56.869 56.0779L56.0713 55.7841V59.4699V63.1557L56.4564 63.0622C57.7491 62.7551 59.2894 61.6734 59.7983 60.6985Z" fill="#0D6EFD"/>
</g>
<defs>
<filter id="filter0_d_7776_1890" x="0" y="0" width="108" height="108" filterUnits="userSpaceOnUse" color-interpolation-filters="sRGB">
<feFlood flood-opacity="0" result="BackgroundImageFix"/>
<feColorMatrix in="SourceAlpha" type="matrix" values="0 0 0 0 0 0 0 0 0 0 0 0 0 0 0 0 0 0 127 0" result="hardAlpha"/>
<feOffset/>
<feGaussianBlur stdDeviation="11"/>
<feComposite in2="hardAlpha" operator="out"/>
<feColorMatrix type="matrix" values="0 0 0 0 0.0509804 0 0 0 0 0.431373 0 0 0 0 0.992157 0 0 0 0.25 0"/>
<feBlend mode="normal" in2="BackgroundImageFix" result="effect1_dropShadow_7776_1890"/>
<feBlend mode="normal" in="SourceGraphic" in2="effect1_dropShadow_7776_1890" result="shape"/>
</filter>
</defs>
</svg>
