<svg width="57" height="46" viewBox="0 0 57 46" fill="none" xmlns="http://www.w3.org/2000/svg">
<path d="M0 10.308C0 10.4944 0.0623446 10.5566 0.255613 10.5566H43.3857C44.9044 10.5566 45.6028 10.8098 45.9191 11.2512C46.2308 11.5676 46.5486 12.1999 46.5486 13.7151V32.3412C46.5486 34.8046 45.8523 35.438 43.3857 35.438H0.255613C0.0623446 35.438 0 35.5009 0 35.693V42.6371C0 44.0895 1.01395 45.1023 2.47113 45.1023H44.8423C52.9477 45.1023 57 41.0615 57 32.9127V13.0827C57 4.9394 52.9477 0.898193 44.8423 0.898193H2.47113C1.96158 0.898193 1.51895 1.02304 1.07686 1.33959L0.573003 1.7798C0.380301 1.96628 0.255613 2.22061 0.192702 2.41333C0.124689 2.47538 0.124689 2.53758 0.124689 2.66201C0.0623446 3.10788 0 3.29436 0 3.35642V10.308Z" fill="#0D6EFD"/>
</svg>
