<svg width="566" height="671" viewBox="0 0 566 671" fill="none" xmlns="http://www.w3.org/2000/svg">
<g opacity="0.5">
<path d="M213.331 25.5457C179.801 39.5605 120.86 64.0537 82.3516 80.0333C7.56212 111.075 3.89469 113.04 1.01314 122.864C0.0962786 126.138 -0.165681 155.478 0.0962786 217.3C0.751178 316.583 0.882157 318.94 10.5747 361.378C40.831 494.977 135.66 609.454 261.663 664.596C280.262 672.717 285.632 672.717 303.969 664.465C404.038 620.194 484.853 539.641 528.469 440.752C544.448 404.47 555.451 366.486 562 324.704C564.881 306.235 565.012 302.961 565.012 213.895V128.051C565.012 124.18 563.722 120.419 561.345 117.362C559.249 114.612 556.237 111.599 554.534 110.421C552.7 109.242 492.58 83.9626 420.803 54.0992C295.849 2.2312 289.824 -0.126404 282.227 0.00457764C274.892 0.135559 268.867 2.36224 213.331 25.5457ZM399.192 103.61L488.707 140.788C503.788 147.052 513.547 161.853 513.362 178.182L512.882 220.575C512.096 294.316 511.179 307.021 504.761 338.325C486.948 425.951 438.224 506.504 368.935 562.432C345.49 581.293 291.002 614.169 283.013 614.169C277.642 614.169 245.16 596.618 222.369 581.293C146.925 530.735 89.0316 449.134 66.1101 361.378C54.9768 318.417 53.536 304.009 52.6192 220.575L52.1389 178.151C51.9542 161.838 61.695 147.047 76.7547 140.774L165.655 103.741C228.263 77.6756 280.655 56.3259 282.096 56.3259C283.537 56.1949 336.19 77.5446 399.192 103.61Z" fill="url(#paint0_linear_6432_10406)"/>
</g>
<defs>
<linearGradient id="paint0_linear_6432_10406" x1="292" y1="31.1705" x2="97.5" y2="740.17" gradientUnits="userSpaceOnUse">
<stop stop-color="#0D6EFD" stop-opacity="0.24"/>
<stop offset="1" stop-color="#0D6EFD" stop-opacity="0"/>
</linearGradient>
</defs>
</svg>
