<svg width="121" height="112" viewBox="0 0 121 112" fill="none" xmlns="http://www.w3.org/2000/svg">
<g filter="url(#filter0_d_6432_12872)">
<path d="M28.8864 22.1863C26.4642 22.7195 24.1639 24.4562 23.0365 26.6195C21.9397 28.7218 22.0006 27.1831 22.0006 50.3695C22.0006 70.5547 22.0158 71.2555 22.2901 71.682C22.7623 72.3981 23.3412 72.6875 24.3162 72.6875H25.1693L29.9528 69.2903C32.5731 67.4317 35.6656 65.2228 36.8082 64.4001C40.1749 62.0084 37.9355 62.2673 55.9727 62.1759L71.4354 62.0998L72.4561 61.7037C75.2744 60.6068 77.3615 58.2303 78.0775 55.3206C78.2451 54.635 78.2908 51.5577 78.2908 39.0962C78.2908 23.9839 78.2908 23.6945 77.9861 23.1918C77.8185 22.9023 77.4834 22.5367 77.2548 22.3539L76.8283 22.034L53.3372 22.0035C33.868 21.9883 29.6786 22.0187 28.8864 22.1863ZM65.8749 34.9221C67.3526 35.7447 67.3984 37.5576 65.9663 38.624C65.555 38.9439 65.4484 38.9439 51.631 38.9439C37.8136 38.9439 37.707 38.9439 37.2957 38.624C36.5797 38.0908 36.275 37.5576 36.275 36.8416C36.275 36.0189 36.6559 35.3334 37.3719 34.9221C37.9203 34.6174 38.0117 34.6021 51.6158 34.6021C65.2199 34.6021 65.296 34.6021 65.8749 34.9221ZM65.8749 45.586C67.3526 46.4086 67.3984 48.2215 65.9663 49.2879C65.555 49.6078 65.4484 49.6078 51.631 49.6078C37.8136 49.6078 37.707 49.6078 37.2957 49.2879C36.5797 48.7547 36.275 48.2215 36.275 47.5055C36.275 46.6828 36.6559 45.9973 37.3719 45.586C37.9203 45.2813 38.0117 45.266 51.6158 45.266C65.2199 45.266 65.296 45.266 65.8749 45.586Z" fill="#0D6EFD"/>
<path d="M81.7396 46.338C81.6787 53.6809 81.6635 54.1532 81.3435 55.3871C80.14 60.0335 76.8342 63.5374 72.1878 65.0913L70.8929 65.5178L56.7404 65.5635L42.5879 65.6092L42.6793 68.5342C42.7707 71.8248 42.9383 72.6626 43.8066 74.3232C44.8425 76.2731 46.7925 77.8423 49.1843 78.6344C49.9612 78.8934 51.0581 78.9239 65.4086 79C80.1553 79.0762 80.8256 79.0915 81.4654 79.3657C81.831 79.5332 85.1673 81.8184 88.854 84.4539C92.5559 87.0894 95.7246 89.2983 95.9226 89.3745C96.8671 89.7401 98.0554 89.3288 98.6648 88.4452L98.9999 87.9425V67.0869C98.9999 44.0529 99.0456 45.2717 98.0402 43.4436C97.0956 41.7526 95.9074 40.5795 94.2773 39.7112C92.6168 38.8276 92.0684 38.7514 86.706 38.6753L81.8158 38.5991L81.7396 46.338Z" fill="#1269E8"/>
</g>
<defs>
<filter id="filter0_d_6432_12872" x="0" y="0" width="121" height="111.508" filterUnits="userSpaceOnUse" color-interpolation-filters="sRGB">
<feFlood flood-opacity="0" result="BackgroundImageFix"/>
<feColorMatrix in="SourceAlpha" type="matrix" values="0 0 0 0 0 0 0 0 0 0 0 0 0 0 0 0 0 0 127 0" result="hardAlpha"/>
<feOffset/>
<feGaussianBlur stdDeviation="11"/>
<feComposite in2="hardAlpha" operator="out"/>
<feColorMatrix type="matrix" values="0 0 0 0 0.137255 0 0 0 0 0.511216 0 0 0 0 0.721569 0 0 0 0.25 0"/>
<feBlend mode="normal" in2="BackgroundImageFix" result="effect1_dropShadow_6432_12872"/>
<feBlend mode="normal" in="SourceGraphic" in2="effect1_dropShadow_6432_12872" result="shape"/>
</filter>
</defs>
</svg>
