<svg width="110" height="95" viewBox="0 0 110 95" fill="none" xmlns="http://www.w3.org/2000/svg">
<g filter="url(#filter0_d_6432_12878)">
<path d="M30.2706 22.2462C29.6608 22.5246 29.2233 22.9621 29.0244 23.4925C28.8255 24.0228 28.8255 61.3296 29.0244 61.8599C29.21 62.377 29.9127 63.0664 30.3899 63.2122C30.6153 63.2917 31.9411 63.4111 33.3199 63.4906C41.2877 63.9546 47.3862 66.2747 52.0661 70.5967L53.0074 71.4717V52.0228C53.0074 34.2576 52.9941 32.5474 52.7953 32.1629C51.9865 30.5985 49.3615 27.7747 47.4922 26.4754C44.1911 24.1553 39.9884 22.7235 34.9771 22.1932C32.3786 21.9148 30.9467 21.9413 30.2706 22.2462Z" fill="#0D6EFD"/>
<path d="M74.6178 22.1932C69.739 22.7368 65.4701 24.2084 62.2618 26.4489C60.3659 27.7747 57.7542 30.5853 56.9322 32.1629C56.7334 32.5474 56.7201 34.2576 56.7201 52.0228V71.4717L57.6614 70.5967C62.3413 66.2747 68.4398 63.9546 76.4076 63.4906C77.7997 63.4111 79.1122 63.2917 79.3375 63.2122C79.8148 63.0664 80.5175 62.377 80.7031 61.8599C80.9019 61.3296 80.9019 24.0228 80.7031 23.4925C80.5042 22.9621 80.0667 22.5246 79.4569 22.2462C78.8205 21.9546 77.0042 21.9281 74.6178 22.1932Z" fill="#0D6EFD"/>
<path d="M23.7082 29.5781C23.0453 29.7637 22.5415 30.1614 22.2498 30.758C21.9847 31.2618 21.9847 31.5402 22.0112 51.4133L22.051 71.5649L22.3294 71.9361C22.7139 72.4399 23.3767 72.8774 23.9468 72.9834C24.2783 73.0497 25.2328 72.9171 26.9563 72.5857C31.7555 71.6709 35.2688 71.313 39.7101 71.313C43.7802 71.313 46.7499 71.6312 50.4222 72.4399C50.8067 72.5194 50.7802 72.4929 50.1173 71.8565C48.4866 70.3054 45.4506 68.6217 42.6003 67.6936C39.7234 66.7524 37.3502 66.3546 33.5851 66.1425C32.1798 66.0762 30.9733 65.9436 30.6552 65.8243C28.64 65.1217 27.3275 63.8357 26.5453 61.8205C26.3067 61.1974 26.2934 60.455 26.2536 45.2883L26.2139 29.419L25.193 29.4322C24.6362 29.4322 23.9601 29.4985 23.7082 29.5781Z" fill="#1269E8"/>
<path d="M83.3412 45.1555C83.3015 60.3222 83.2882 61.0646 83.0496 61.6877C82.2674 63.7029 80.9549 64.9889 78.9397 65.6915C78.6215 65.8108 77.4151 65.9434 76.0098 66.0097C69.8715 66.3411 65.2711 67.6669 61.4795 70.1858C59.9416 71.2067 58.576 72.4396 59.1064 72.3203C62.5401 71.5381 65.881 71.1802 69.8715 71.1802C74.3261 71.1802 77.8393 71.5381 82.6386 72.4529C84.3621 72.7843 85.3166 72.9169 85.6481 72.8506C86.2181 72.7446 86.881 72.3071 87.2655 71.8033L87.5439 71.4321L87.5837 51.2805C87.6102 31.4074 87.6102 31.129 87.345 30.6252C86.8678 29.6706 85.9928 29.2862 84.3356 29.2862H83.381L83.3412 45.1555Z" fill="#1269E8"/>
</g>
<defs>
<filter id="filter0_d_6432_12878" x="0" y="0" width="109.595" height="95" filterUnits="userSpaceOnUse" color-interpolation-filters="sRGB">
<feFlood flood-opacity="0" result="BackgroundImageFix"/>
<feColorMatrix in="SourceAlpha" type="matrix" values="0 0 0 0 0 0 0 0 0 0 0 0 0 0 0 0 0 0 127 0" result="hardAlpha"/>
<feOffset/>
<feGaussianBlur stdDeviation="11"/>
<feComposite in2="hardAlpha" operator="out"/>
<feColorMatrix type="matrix" values="0 0 0 0 0.137255 0 0 0 0 0.511216 0 0 0 0 0.721569 0 0 0 0.25 0"/>
<feBlend mode="normal" in2="BackgroundImageFix" result="effect1_dropShadow_6432_12878"/>
<feBlend mode="normal" in="SourceGraphic" in2="effect1_dropShadow_6432_12878" result="shape"/>
</filter>
</defs>
</svg>
