<svg width="86" height="101" viewBox="0 0 86 101" fill="none" xmlns="http://www.w3.org/2000/svg">
<g filter="url(#filter0_d_6598_17960)">
<path d="M23.5159 20.1005C22.1143 20.6113 21.0571 21.5615 20.3801 22.9393L20 23.7233V50.2704V76.8175L20.3801 77.6014C21.069 79.0149 22.138 79.9532 23.5752 80.4402C24.2642 80.6778 24.5849 80.6778 43.3401 80.654L62.4041 80.6184L63.2355 80.2145C64.3283 79.68 65.2666 78.7417 65.8011 77.6489L66.205 76.8175L66.2406 57.2427L66.2644 37.6798H60.1829C56.8333 37.6798 53.6857 37.6204 53.2106 37.561C50.7637 37.2403 48.887 35.3636 48.5663 32.9168C48.5069 32.4417 48.4475 29.294 48.4475 25.9445V19.863H36.3083C24.6205 19.8748 24.1335 19.8748 23.5159 20.1005ZM54.5884 45.1866C55.0992 45.4717 55.4555 46.0894 55.4555 46.707C55.4555 47.3247 55.1704 47.8354 54.6241 48.168L54.2083 48.4293H43.1025C32.2105 48.4293 31.9848 48.4293 31.6047 48.1917C31.0702 47.871 30.7495 47.3247 30.7495 46.7189C30.7495 45.8518 31.2484 45.246 32.1154 45.0322C32.3055 44.9847 37.3655 44.961 43.3401 44.961C53.3888 44.9847 54.2321 44.9966 54.5884 45.1866ZM54.5884 52.3134C55.0992 52.5984 55.4555 53.2161 55.4555 53.8337C55.4555 54.4514 55.1704 54.9621 54.6241 55.2947L54.2083 55.556H43.1025C32.2105 55.556 31.9848 55.556 31.6047 55.3185C31.0702 54.9978 30.7495 54.4514 30.7495 53.8456C30.7495 52.9785 31.2484 52.3728 32.1154 52.159C32.3055 52.1114 37.3655 52.0877 43.3401 52.0877C53.3888 52.1114 54.2321 52.1233 54.5884 52.3134ZM54.5884 59.4401C55.0992 59.7252 55.4555 60.3428 55.4555 60.9605C55.4555 61.5781 55.1704 62.0889 54.6241 62.4215L54.2083 62.6828H43.1025C32.2105 62.6828 31.9848 62.6828 31.6047 62.4452C31.0702 62.1245 30.7495 61.5781 30.7495 60.9724C30.7495 60.1053 31.2484 59.4995 32.1154 59.2857C32.3055 59.2382 37.3655 59.2144 43.3401 59.2144C53.3888 59.2382 54.2321 59.2501 54.5884 59.4401ZM47.4617 66.5668C48.602 67.1964 48.6138 68.883 47.4736 69.5719C47.0935 69.7976 46.8678 69.8095 39.5391 69.8095C32.2105 69.8095 31.9848 69.7976 31.6047 69.5719C31.0702 69.2512 30.7495 68.7049 30.7495 68.0991C30.7495 67.232 31.2365 66.6262 32.1154 66.4124C32.3055 66.3649 35.762 66.3293 39.7767 66.3412C46.4521 66.3649 47.1172 66.3768 47.4617 66.5668Z" fill="#0D6EFD"/>
<path d="M51.0381 26.2748C51.0381 33.2895 51.0523 33.5877 51.3231 34.0279C51.9217 34.9934 51.7222 34.965 59.7746 34.9224L64.8717 34.8924C65.66 34.8877 66.0508 33.9338 65.4924 33.3774L59.0192 26.928L52.5508 20.4833C51.9917 19.9263 51.0381 20.3223 51.0381 21.1116V26.2748Z" fill="#1269E8"/>
</g>
<defs>
<filter id="filter0_d_6598_17960" x="0.490566" y="0.353481" width="85.2835" height="99.82" filterUnits="userSpaceOnUse" color-interpolation-filters="sRGB">
<feFlood flood-opacity="0" result="BackgroundImageFix"/>
<feColorMatrix in="SourceAlpha" type="matrix" values="0 0 0 0 0 0 0 0 0 0 0 0 0 0 0 0 0 0 127 0" result="hardAlpha"/>
<feOffset/>
<feGaussianBlur stdDeviation="9.75472"/>
<feComposite in2="hardAlpha" operator="out"/>
<feColorMatrix type="matrix" values="0 0 0 0 0.137255 0 0 0 0 0.511216 0 0 0 0 0.721569 0 0 0 0.25 0"/>
<feBlend mode="normal" in2="BackgroundImageFix" result="effect1_dropShadow_6598_17960"/>
<feBlend mode="normal" in="SourceGraphic" in2="effect1_dropShadow_6598_17960" result="shape"/>
</filter>
</defs>
</svg>
