<?xml version="1.0" encoding="utf-8"?>
<!-- Generator: Adobe Illustrator 26.0.2, SVG Export Plug-In . SVG Version: 6.00 Build 0)  -->
<svg version="1.1" id="Layer_1" xmlns="http://www.w3.org/2000/svg" xmlns:xlink="http://www.w3.org/1999/xlink" x="0px" y="0px"
	 viewBox="0 0 611 569" style="enable-background:new 0 0 611 569;" xml:space="preserve">
<style type="text/css">
	.st0{opacity:0.5;fill:none;stroke:#99A6AF;stroke-width:0.6045;enable-background:new    ;}
	.st1{fill:#0D6EFD;}
	.st2{fill:#F7F8F9;}
	.st3{fill:#E5E9EB;}
	.st4{fill:#FCFDFD;}
	.st5{fill:#F8FAFC;}
</style>
<path class="st0" d="M450.4,188.7l-256.7-24.5"/>
<path class="st0" d="M450.4,188.7l-233.7,226"/>
<path class="st0" d="M459.7,183.5l131.2-64.2"/>
<path class="st0" d="M546,380.4l-329.7,34.7"/>
<path class="st0" d="M51.3,309l165.1,106.1"/>
<path class="st0" d="M544.8,380.8L450,193.5"/>
<g>
	<circle class="st1" cx="449.5" cy="184.2" r="41.1"/>
</g>
<path class="st2" d="M447.6,162.4c-3.7,0.8-6.5,3.8-7.1,7.7c-0.4,2.9,0.9,6.1,3.2,8c0.8,0.6,2.5,1.5,3.6,1.8c1.1,0.3,3.6,0.3,4.6,0
	c3.1-0.9,5.7-3.4,6.5-6.4c1-3.8-0.7-8-4-10C452.4,162.3,449.9,161.9,447.6,162.4z M451.5,164.5c2.4,0.7,4.3,2.7,4.9,5
	c0.3,1,0.2,2.9-0.2,3.8c-1,2.8-3.7,4.7-6.6,4.7c-2,0-3.5-0.6-5-2.1c-1.8-1.8-2.5-4.2-1.8-6.6C443.9,165.7,447.8,163.4,451.5,164.5z"
	/>
<path class="st2" d="M466.3,168.5c-2.5,0.7-4.4,2.7-5,5.1c-0.7,3.2,0.8,6.5,3.7,7.9c1.2,0.6,1.9,0.7,3.2,0.7c3.1,0,5.9-2.1,6.8-5.1
	c0.3-0.9,0.3-2.7,0-3.7c-0.7-2.2-2.3-4-4.5-4.8C469.6,168.3,467.4,168.2,466.3,168.5z M469.4,170.5c0.9,0.2,1.7,0.7,2.4,1.4
	c1.9,2,1.9,5-0.1,6.9c-2,1.9-5,1.9-7,0c-1.2-1.2-1.7-2.8-1.4-4.4C464,171.6,466.7,169.8,469.4,170.5z"/>
<path class="st2" d="M429.8,169c-2.5,0.7-4.3,2.5-5,5c-0.3,0.9-0.3,2.7,0,3.7c0.7,2.2,2.4,4,4.5,4.8c1,0.4,3.1,0.5,4.1,0.2
	c2.5-0.7,4.6-2.7,5.2-5.2c0.2-1,0.2-2.3,0-3.3c-0.6-2.4-2.7-4.6-5.2-5.2C432.4,168.7,430.7,168.8,429.8,169z M432.8,171
	c2,0.4,3.4,2,3.8,4.1c0.5,3.1-2.5,6.2-5.7,5.6c-3.3-0.6-5.2-4.1-3.7-7.1c0.6-1.2,2.1-2.4,3.5-2.6C431.5,170.8,431.9,170.8,432.8,171
	z"/>
<path class="st2" d="M447.5,181.3c-1.9,0.3-4.1,1-5.8,2c-1.1,0.6-2.7,1.8-3.3,2.5l-0.3,0.4l-1-0.5c-0.6-0.3-1.5-0.7-2.1-0.8
	c-1-0.3-1.2-0.3-3.3-0.3c-2.1,0-2.3,0-3.3,0.3c-4.1,1.3-7.1,4.2-8.3,8.2c-0.3,1-0.3,1.1-0.3,4.3v3.2l0.3,0.5
	c0.2,0.3,0.6,0.6,0.9,0.8l0.6,0.3h5.9h5.9l0.1,0.3c0.2,0.9,0.3,1.2,0.8,1.7c0.3,0.3,0.7,0.7,1,0.8l0.5,0.3H450h14.3l0.5-0.3
	c0.6-0.3,1.3-1.1,1.5-1.6c0.1-0.2,0.2-0.7,0.2-1.2l0.1-0.8h5.8c6.4,0,6.3,0,7.1-0.7c0.2-0.2,0.4-0.5,0.6-0.8
	c0.2-0.4,0.2-0.6,0.2-3.5c0-2.9-0.1-3.1-0.4-4.1c-0.6-2.1-1.5-3.6-3.1-5.1c-3.5-3.6-9.1-4.6-13.7-2.4c-0.5,0.2-1.1,0.6-1.3,0.7
	l-0.4,0.2l-1-0.8c-2.4-1.9-5.2-3.2-8.1-3.5C451.2,181.2,448.5,181.2,447.5,181.3z M451.5,183.3c2.3,0.3,4.7,1.2,6.7,2.5
	c2.4,1.6,4.5,4.4,5.4,7.1c0.6,1.8,0.7,2.3,0.7,5.9c0.1,3.7,0.1,3.7-0.6,4.1c-0.4,0.2-0.7,0.2-13.8,0.2c-13.1,0-13.4,0-13.8-0.2
	c-0.7-0.4-0.7-0.4-0.6-4.1c0.1-3.6,0.1-4.1,0.7-5.9C438.4,186.7,444.9,182.6,451.5,183.3z M470.1,185.9c3.3,0.6,6.2,3,7.4,6
	c0.6,1.5,0.7,2,0.7,4.6l0.1,2.5l-0.3,0.2c-0.2,0.2-0.9,0.2-5.9,0.2h-5.6l-0.1-1.8c-0.2-3.8-1-6.4-2.8-9.2l-0.8-1.1l0.8-0.4
	C465.8,185.8,467.9,185.5,470.1,185.9z M434.1,186.8c0.5,0.1,1.3,0.4,1.7,0.6l0.8,0.4l-0.7,1c-1.2,1.8-2,3.9-2.3,6
	c-0.1,0.6-0.2,2.1-0.3,3.2l-0.1,2.1h-5.6c-5.5,0-5.7,0-5.9-0.2c-0.2-0.2-0.2-0.4-0.1-2.7c0-2,0.1-2.6,0.3-3.3c1.1-3.8,4-6.5,7.9-7.2
	C431,186.4,432.9,186.5,434.1,186.8z"/>
<circle class="st3" cx="546.4" cy="380.4" r="28.2"/>
<circle class="st3" cx="44.8" cy="306.5" r="44.8"/>
<circle class="st3" cx="590" cy="122.1" r="21"/>
<g>
	<circle class="st1" cx="211.1" cy="408.3" r="60.1"/>
</g>
<g>
	<circle class="st1" cx="194.1" cy="161" r="60.1"/>
</g>
<g>
	<g>
		<path class="st4" d="M208.5,153.6c-2.9-5.3-8.8-8.8-14.9-8.8c-6.1,0-12,3.5-14.9,8.8c-3,5.4-2.6,12.5,0.8,17.6
			c1.6,2.4,3.9,4.5,4.4,7.2c0.2,1.3,0.1,2.6,0.5,3.8c0.4,1.3,1.3,2.5,1.7,3.8c0.4,1.4,0.2,2.8,0.4,4.2c0.5,3.4,4,4.4,7.1,4.3
			c3.1,0.1,6.6-0.9,7.1-4.3c0.2-1.4,0-2.8,0.4-4.2c0.4-1.3,1.3-2.5,1.7-3.8c0.4-1.2,0.3-2.5,0.5-3.8c0.5-2.7,2.8-4.8,4.4-7.2
			C211.1,166.1,211.5,159,208.5,153.6z M198.2,186.8l-0.1,1.8c0,0.7-0.1,1.3-0.3,1.7c-0.2,0.5-0.5,0.9-1,1.1
			c-0.3,0.2-0.6,0.3-1.1,0.3h-4.2c-0.5,0-0.8-0.1-1.1-0.3c-0.5-0.2-0.8-0.6-1-1.1c-0.2-0.4-0.3-1-0.3-1.7l-0.1-1.8v-0.2h9.2
			L198.2,186.8L198.2,186.8z M206.3,167.6c-1.6,3.3-4.5,6-5.7,9.5c-0.3,0.9-0.5,1.8-0.6,2.8c0,0.5-0.1,1-0.1,1.5c0,0.3,0,0.7-0.1,1
			c-0.2,0.4-0.5,0.6-0.7,0.9c-0.6,0.5-1.4,0.8-2.2,0.9c-1.1,0.1-2.2,0.2-3.3,0.1c-1.1,0.1-2.2,0-3.3-0.1c-0.8-0.1-1.6-0.4-2.2-0.9
			c-0.2-0.3-0.5-0.5-0.7-0.9c-0.1-0.3-0.1-0.7-0.1-1c0-0.5-0.1-1-0.1-1.5c-0.1-1-0.3-1.9-0.6-2.8c-1.2-3.5-4.1-6.2-5.7-9.5
			c-2.3-4.8-1.5-11,2-15c2.7-2.9,6.7-4.7,10.7-4.8c4,0.1,8,1.9,10.7,4.8C207.8,156.6,208.6,162.8,206.3,167.6z"/>
	</g>
	<g>
		<path class="st4" d="M193.6,142.7c-1,0-1.8-0.8-1.8-1.8v-11.5c0-1,0.8-1.8,1.8-1.8s1.8,0.8,1.8,1.8v11.5
			C195.4,141.9,194.6,142.7,193.6,142.7z"/>
	</g>
	<g>
		<path class="st4" d="M207.5,146.6c-0.4,0-0.8-0.1-1.1-0.4c-0.8-0.6-0.9-1.8-0.3-2.6l6.4-7.8c0.6-0.8,1.8-0.9,2.6-0.3
			c0.8,0.6,0.9,1.8,0.3,2.6l-6.4,7.8C208.5,146.4,208,146.6,207.5,146.6z"/>
	</g>
	<g>
		<path class="st4" d="M215.7,154.9c-0.7,0-1.4-0.5-1.7-1.2c-0.3-0.9,0.1-2,1.1-2.3l8-2.9c0.9-0.3,2,0.1,2.3,1.1
			c0.3,0.9-0.1,2-1.1,2.3l-8,2.9C216.1,154.9,215.9,154.9,215.7,154.9z"/>
	</g>
	<g>
		<path class="st4" d="M180.9,146.1c-0.5,0-1-0.2-1.4-0.7l-6.4-7.8c-0.6-0.8-0.5-1.9,0.3-2.6c0.8-0.6,1.9-0.5,2.6,0.3l6.4,7.8
			c0.6,0.8,0.5,1.9-0.3,2.6C181.7,146,181.3,146.1,180.9,146.1z"/>
	</g>
	<g>
		<path class="st4" d="M170.8,154.4c-0.2,0-0.4,0-0.6-0.1l-8-2.9c-0.9-0.3-1.4-1.4-1.1-2.3c0.3-0.9,1.4-1.4,2.3-1.1l8,2.9
			c0.9,0.3,1.4,1.4,1.1,2.3C172.2,154,171.5,154.4,170.8,154.4z"/>
	</g>
</g>
<g id="RmjRwM.tif">
	<g>
		<path class="st5" d="M221.2,381.4c0.1-0.6,0.2-1,0.3-1.4c0.4-2,0.5-2.2,2.5-2.2c4.4-0.1,8.7-0.1,13.1-0.1c1.2,0,1.8,0.6,1.9,1.9
			c0.1,3.9,0.1,7.8,0.1,11.7c0,1.9,0.1,3.7,0.1,5.6c0,0.6,0.2,1,0.7,1.4c1.9,1.7,3.6,3.3,5.4,5c1.3,1.3,1.3,3,0.1,4.3
			c-0.5,0.6-1.2,0.9-1.9,0.9c-1.6,0-3.1,0.1-4.7,0.1c-0.9,0-1.2,0.2-1.2,1.1c0,7.9,0,15.9,0,23.8c0,1.5-0.1,2.9-0.1,4.4
			c0,1.3-0.5,1.7-1.8,1.8c-3.2,0-6.5,0-9.7,0c-2.2,0-4.6,0-6.8-0.1c-1.5,0-1.8-0.3-1.8-1.8c0-5.6-0.1-11.2,0-16.8
			c0-1-0.3-1.2-1.2-1.2c-3.1,0.1-6.1,0.1-9.3,0c-0.9,0-1,0.3-1,1.1c0,5.6,0,11.1,0,16.7c0,1.7-0.3,1.9-1.9,1.9c-5.6,0-11.1,0-16.7,0
			c-1.1,0-1.5-0.3-1.5-1.5c-0.1-1.9-0.1-3.9-0.1-5.8c0-7.5-0.1-15-0.1-22.5c0-0.9-0.2-1.2-1.1-1.2c-1.5,0.1-3-0.1-4.5-0.1
			c-1.3,0-2.2-0.6-2.7-1.8c-0.5-1.2-0.3-2.2,0.7-3.2c2.7-2.7,5.7-5.4,8.6-8c7.5-6.8,15-13.6,22.4-20.5c0.2-0.2,0.4-0.4,0.6-0.6
			c1.3-1.1,2.8-1.1,4.1,0c2.3,2,4.6,4.1,6.8,6.1C220.5,380.9,220.8,381.1,221.2,381.4z M180,405.3c0.3,0.3,0.6,0.2,0.8,0.2
			c1.9,0.1,3.8,0.1,5.8,0.2c1.5,0.1,1.8,0.4,1.8,1.8c0,0.2,0,0.5,0,0.7c0,9.2,0.1,18.2,0.1,27.4c0,1,0.3,1.2,1.2,1.2c4,0,8,0,11.9,0
			c0.9,0,1.1-0.3,1.1-1.1c0-5.6,0.1-11.2,0.1-16.8c0-1.5,0.3-1.8,1.8-1.8c4.6-0.1,9.2-0.1,13.7,0c1.4,0,1.7,0.3,1.8,1.7
			c0.2,5.6,0.1,11.1,0.2,16.7c0,1.5-0.2,1.3,1.4,1.3c3.9,0,7.7,0,11.6,0c1,0,1.3-0.3,1.3-1.3c0-9,0-17.8,0.1-26.8c0-3,0-3,3-3
			c1.8,0,3.5,0,5.3,0c0-0.5-0.3-0.6-0.4-0.8c-1.9-1.7-3.6-3.4-5.5-5.1c-0.6-0.5-0.8-1.1-0.8-1.8c0-5.5,0-10.8,0-16.3
			c0-0.7-0.1-1-0.9-1c-3.2,0-6.4,0-9.6,0c-0.7,0-0.9,0.2-0.9,0.9c0,1.2,0,2.3-0.1,3.5c0,0.6-0.2,1.2-0.9,1.5s-1.1,0-1.6-0.4
			c-0.3-0.2-0.5-0.4-0.8-0.7c-2.9-2.6-5.9-5.3-8.9-8c-0.8-0.7-1.3-0.7-2,0c-6.8,6.2-13.7,12.5-20.6,18.7
			C186.4,399.4,183.2,402.3,180,405.3z"/>
	</g>
</g>
</svg>
