<svg width="390" height="411" viewBox="0 0 390 411" fill="none" xmlns="http://www.w3.org/2000/svg">
<path opacity="0.5" d="M276.518 150.898L130.33 136.931" stroke="#667986" stroke-width="0.344307"/>
<path opacity="0.5" d="M276.518 150.898L143.432 279.617" stroke="#667986" stroke-width="0.344307"/>
<path opacity="0.5" d="M281.805 147.911L356.507 111.364" stroke="#667986" stroke-width="0.344307"/>
<path opacity="0.5" d="M330.994 260.08L143.202 279.847" stroke="#667986" stroke-width="0.344307"/>
<path opacity="0.5" d="M49.1914 219.395L143.202 279.847" stroke="#667986" stroke-width="0.344307"/>
<path opacity="0.5" d="M330.304 260.311L276.288 153.658" stroke="#667986" stroke-width="0.344307"/>
<circle cx="331.224" cy="260.08" r="16.0898" fill="#1A364A"/>
<circle cx="45.5139" cy="217.996" r="25.5139" fill="#1A364A"/>
<circle cx="356.047" cy="112.952" r="11.9524" fill="#1A364A"/>
<g filter="url(#filter0_d_6451_16062)">
<circle cx="140.224" cy="275.95" r="34.2586" fill="#0D6EFD"/>
</g>
<path d="M139.647 256.077L139.647 256.077C140.065 255.926 140.582 255.952 141.023 256.149C141.053 256.162 141.13 256.212 141.263 256.314C141.391 256.411 141.556 256.546 141.756 256.715C142.156 257.052 142.688 257.521 143.318 258.094L145.331 259.933L145.567 260.148L145.617 259.833L145.693 259.355C145.693 259.355 145.693 259.355 145.693 259.354C145.741 259.063 145.803 258.876 145.889 258.742C145.971 258.613 146.084 258.52 146.262 258.436C146.382 258.385 146.498 258.35 147.08 258.33C147.666 258.31 148.702 258.306 150.652 258.306H154.76L155.056 258.454C155.236 258.551 155.41 258.705 155.479 258.827C155.48 258.827 155.48 258.827 155.48 258.827L155.48 258.828C155.529 258.915 155.567 258.984 155.592 259.678C155.617 260.371 155.628 261.656 155.647 264.153L155.685 269.29L155.686 269.365L155.741 269.416L157.466 270.989L157.466 270.989C158.503 271.934 159.022 272.422 159.282 272.794C159.407 272.973 159.466 273.119 159.494 273.272C159.523 273.431 159.521 273.606 159.507 273.854L159.679 273.863M139.647 256.077L125.516 283.87L125.688 283.87M139.647 256.077C139.442 256.15 139.205 256.271 139.125 256.332L139.647 256.077ZM159.679 273.863L159.507 273.853C159.492 274.12 159.476 274.265 159.441 274.38C159.408 274.49 159.356 274.582 159.249 274.738L159.247 274.74C159.185 274.833 159.1 274.938 159.014 275.031C158.926 275.125 158.845 275.197 158.794 275.232L158.791 275.234C158.559 275.394 158.397 275.476 158.101 275.524C157.791 275.575 157.339 275.587 156.525 275.591C156.525 275.591 156.525 275.591 156.525 275.591L154.983 275.591H154.812L154.811 275.762L154.796 283.87V283.87L154.796 283.928C154.785 287.884 154.779 289.898 154.757 290.955C154.746 291.488 154.731 291.771 154.711 291.935C154.701 292.015 154.69 292.061 154.68 292.091C154.671 292.118 154.661 292.136 154.645 292.164L154.644 292.166C154.574 292.288 154.399 292.442 154.222 292.531L154.22 292.532L154.22 292.532L153.923 292.687H148.981C146.608 292.687 145.364 292.685 144.673 292.665C143.979 292.645 143.874 292.607 143.758 292.552L143.754 292.55L143.754 292.55C143.592 292.479 143.424 292.334 143.352 292.222C143.326 292.177 143.307 292.143 143.291 292.046C143.272 291.936 143.258 291.754 143.248 291.415C143.228 290.741 143.226 289.483 143.226 287.024V281.993V281.821H143.054H140.242H137.431H137.259V281.993V287.024C137.259 289.487 137.257 290.745 137.237 291.418C137.227 291.756 137.212 291.937 137.194 292.047C137.177 292.143 137.159 292.177 137.133 292.221C137.054 292.341 136.892 292.479 136.715 292.558C136.586 292.615 136.489 292.651 135.791 292.667C135.095 292.683 133.827 292.68 131.375 292.672L126.353 292.649L126.148 292.506C126.11 292.479 126.075 292.456 126.045 292.437L126.045 292.437C126.014 292.417 125.992 292.403 125.971 292.388C125.935 292.361 125.911 292.337 125.889 292.296C125.836 292.198 125.789 291.998 125.757 291.485C125.704 290.602 125.7 288.893 125.692 285.454C125.691 284.962 125.69 284.435 125.688 283.87C125.688 283.87 125.688 283.87 125.688 283.87M159.679 273.863C159.732 272.875 159.641 272.738 157.582 270.862L159.391 274.836C159.611 274.517 159.649 274.395 159.679 273.863ZM125.688 283.87L125.673 275.762L125.673 275.591H125.501L123.959 275.591M125.688 283.87L123.959 275.591M123.959 275.591L123.959 275.763V275.591H123.959C123.146 275.587 122.693 275.575 122.383 275.524C122.088 275.476 121.925 275.394 121.693 275.234L121.691 275.232L121.691 275.232C121.639 275.197 121.559 275.125 121.471 275.031C121.384 274.938 121.299 274.833 121.237 274.74L121.236 274.738L121.236 274.738C121.128 274.582 121.076 274.49 121.043 274.38C121.009 274.265 120.992 274.12 120.977 273.853C120.977 273.853 120.977 273.853 120.977 273.853L120.805 273.863C120.796 273.687 120.77 273.557 120.772 273.428C120.782 272.736 121.595 272.058 129.999 264.395L123.959 275.591ZM143.246 260.796L143.246 260.795C142.474 260.092 141.761 259.451 141.234 258.987C140.97 258.755 140.752 258.566 140.597 258.436C140.519 258.371 140.455 258.319 140.408 258.283C140.385 258.265 140.364 258.249 140.345 258.237C140.337 258.232 140.325 258.224 140.312 258.218C140.305 258.215 140.295 258.21 140.281 258.206C140.272 258.203 140.242 258.194 140.203 258.199L140.203 258.199C140.173 258.204 140.152 258.214 140.151 258.215C140.142 258.219 140.135 258.224 140.131 258.226C140.122 258.231 140.115 258.237 140.109 258.241C140.097 258.25 140.082 258.262 140.066 258.275C140.032 258.302 139.986 258.342 139.927 258.392C139.81 258.493 139.641 258.642 139.426 258.832C138.996 259.214 138.382 259.765 137.628 260.444C136.12 261.804 134.055 263.679 131.798 265.742L123.577 273.242L123.259 273.532L123.689 273.541L125.429 273.579L125.429 273.579M143.246 260.796L127.743 274.023C127.416 273.46 127.363 273.453 125.433 273.407L125.429 273.579M143.246 260.796C144.195 261.662 144.923 262.314 145.442 262.761C145.701 262.985 145.907 263.157 146.061 263.278C146.221 263.404 146.31 263.462 146.343 263.477L143.246 260.796ZM125.429 273.579C125.912 273.591 126.274 273.6 126.552 273.615C126.832 273.631 127.015 273.653 127.145 273.688C127.269 273.72 127.338 273.762 127.394 273.818C127.456 273.88 127.51 273.966 127.594 274.109L127.595 274.112L127.595 274.112C127.611 274.138 127.621 274.156 127.629 274.182C127.639 274.211 127.65 274.257 127.66 274.338C127.68 274.503 127.695 274.786 127.706 275.32C127.728 276.378 127.734 278.387 127.745 282.322L127.745 282.389L127.745 282.389L127.76 290.504L127.761 290.676H127.933H131.504H135.068H135.239L135.24 290.505L135.263 285.505C135.274 283.072 135.282 281.825 135.304 281.154C135.316 280.817 135.331 280.634 135.35 280.521C135.367 280.422 135.386 280.383 135.413 280.334C135.491 280.213 135.65 280.053 135.771 279.976C135.822 279.947 135.861 279.929 135.948 279.912C136.048 279.894 136.206 279.88 136.498 279.87C137.08 279.85 138.151 279.848 140.242 279.848C142.334 279.848 143.405 279.85 143.986 279.87C144.278 279.88 144.437 279.894 144.536 279.912C144.624 279.929 144.662 279.947 144.713 279.976M125.429 273.579L144.713 279.976M147.932 260.49L147.902 261.683C147.871 263.02 147.795 263.263 147.362 263.529M147.932 260.49L147.362 263.529M147.932 260.49H150.698H153.291H147.932ZM147.362 263.529L147.272 263.382C147.272 263.382 147.272 263.382 147.272 263.382C147.272 263.382 147.273 263.382 147.273 263.382L147.362 263.529ZM144.713 279.976C144.712 279.975 144.711 279.974 144.709 279.973L144.801 279.828L144.717 279.978C144.716 279.977 144.715 279.977 144.713 279.976ZM156.792 273.369L156.607 273.201L156.788 273.197L156.792 273.369ZM156.792 273.369L156.676 273.496L156.542 273.375L156.792 273.369ZM152.739 282.389V282.389L152.567 282.389L152.739 282.389ZM145.219 280.246L145.074 280.338C145.073 280.336 145.072 280.335 145.071 280.334C145.071 280.333 145.07 280.331 145.069 280.33L145.219 280.246ZM155.063 273.579L155.063 273.579L155.059 273.407L155.063 273.579ZM153.585 270.36L153.733 270.272C153.733 270.271 153.733 270.271 153.733 270.272C153.733 270.272 153.734 270.273 153.734 270.273L153.585 270.36Z" fill="#FCFDFD" stroke="#0D6EFD" stroke-width="0.344307"/>
<g filter="url(#filter1_d_6451_16062)">
<circle cx="276.026" cy="148.339" r="23.4129" fill="#0D6EFD"/>
</g>
<path d="M274.304 137.103C272.401 137.509 270.965 139.066 270.692 141.036C270.486 142.527 271.14 144.17 272.334 145.158C272.735 145.485 273.613 145.934 274.153 146.073C274.698 146.219 275.971 146.219 276.511 146.067C278.105 145.631 279.408 144.334 279.82 142.788C280.329 140.842 279.469 138.703 277.765 137.672C276.759 137.066 275.462 136.854 274.304 137.103ZM276.274 138.188C277.48 138.527 278.475 139.545 278.79 140.758C278.929 141.291 278.893 142.224 278.711 142.721C278.184 144.176 276.838 145.134 275.335 145.128C274.292 145.128 273.535 144.806 272.789 144.061C271.85 143.121 271.522 141.933 271.856 140.685C272.365 138.806 274.395 137.66 276.274 138.188Z" fill="#FCFDFD"/>
<path d="M283.881 140.26C282.608 140.641 281.626 141.66 281.335 142.89C280.953 144.509 281.765 146.218 283.244 146.927C283.857 147.218 284.232 147.303 284.905 147.303C286.511 147.303 287.912 146.236 288.372 144.666C288.512 144.181 288.512 143.272 288.372 142.793C288.033 141.642 287.172 140.72 286.087 140.332C285.542 140.144 284.402 140.102 283.881 140.26ZM285.457 141.272C285.942 141.399 286.336 141.623 286.687 141.981C287.681 142.981 287.657 144.539 286.633 145.515C285.596 146.509 284.063 146.497 283.056 145.49C282.444 144.872 282.19 144.066 282.359 143.248C282.656 141.817 284.075 140.914 285.457 141.272Z" fill="#FCFDFD"/>
<path d="M265.183 140.49C263.922 140.83 262.976 141.757 262.601 143.03C262.461 143.515 262.461 144.424 262.601 144.909C262.934 146.049 263.807 146.982 264.898 147.364C265.425 147.552 266.462 147.594 266.995 147.455C268.292 147.115 269.341 146.067 269.638 144.806C269.753 144.315 269.753 143.618 269.638 143.127C269.341 141.872 268.244 140.781 266.989 140.484C266.504 140.369 265.619 140.375 265.183 140.49ZM266.698 141.521C267.698 141.745 268.456 142.563 268.638 143.612C268.916 145.224 267.334 146.77 265.71 146.467C263.995 146.146 263.061 144.351 263.825 142.842C264.146 142.212 264.922 141.624 265.619 141.491C266.019 141.412 266.243 141.418 266.698 141.521Z" fill="#FCFDFD"/>
<path d="M274.244 146.824C273.268 146.969 272.147 147.357 271.274 147.854C270.71 148.176 269.892 148.788 269.589 149.109L269.413 149.291L268.892 149.024C268.601 148.879 268.122 148.685 267.819 148.594C267.31 148.442 267.201 148.43 266.122 148.43C265.037 148.43 264.94 148.436 264.425 148.594C262.309 149.242 260.812 150.721 260.17 152.794C260.006 153.328 260.006 153.358 260 154.976V156.619L260.17 156.861C260.261 156.995 260.473 157.177 260.63 157.267L260.927 157.425H263.964H267.001L267.031 157.595C267.128 158.049 267.201 158.219 267.431 158.48C267.57 158.637 267.795 158.825 267.934 158.898L268.183 159.031H275.486H282.79L283.039 158.898C283.33 158.74 283.706 158.34 283.827 158.061C283.869 157.952 283.924 157.686 283.948 157.461L283.99 157.061H286.985C290.246 157.061 290.227 157.061 290.597 156.71C290.694 156.619 290.827 156.443 290.894 156.31C291.009 156.092 291.009 155.982 290.991 154.522C290.967 153.043 290.955 152.946 290.797 152.424C290.476 151.364 290.015 150.588 289.233 149.806C287.421 147.969 284.584 147.472 282.233 148.576C281.954 148.703 281.651 148.867 281.554 148.939L281.372 149.061L280.839 148.636C279.626 147.66 278.153 147.018 276.681 146.824C276.123 146.745 274.765 146.751 274.244 146.824ZM276.28 147.848C277.481 147.988 278.705 148.442 279.711 149.133C280.936 149.964 282.02 151.4 282.487 152.782C282.802 153.716 282.833 153.964 282.863 155.795C282.893 157.686 282.893 157.71 282.56 157.91C282.372 158.025 282.19 158.031 275.486 158.031C268.783 158.031 268.601 158.025 268.413 157.91C268.08 157.71 268.08 157.686 268.11 155.795C268.14 153.964 268.171 153.716 268.486 152.782C269.559 149.582 272.91 147.46 276.28 147.848ZM285.803 149.145C287.476 149.467 288.967 150.673 289.585 152.2C289.882 152.946 289.924 153.212 289.955 154.552L289.985 155.831L289.846 155.934C289.718 156.019 289.391 156.031 286.845 156.031H283.99L283.948 155.134C283.857 153.164 283.451 151.837 282.499 150.436L282.099 149.848L282.505 149.642C283.609 149.097 284.687 148.933 285.803 149.145ZM267.389 149.606C267.655 149.673 268.055 149.812 268.28 149.915L268.686 150.103L268.352 150.612C267.758 151.527 267.346 152.588 267.158 153.667C267.104 153.982 267.043 154.728 267.019 155.316L266.983 156.395H264.091C261.297 156.395 261.194 156.389 261.091 156.273C260.994 156.17 260.988 156.043 261.018 154.897C261.043 153.855 261.067 153.564 261.176 153.2C261.746 151.255 263.231 149.897 265.213 149.509C265.776 149.4 266.77 149.442 267.389 149.606Z" fill="#FCFDFD"/>
<g filter="url(#filter2_d_6451_16062)">
<circle cx="130.57" cy="135.102" r="34.2586" fill="#0D6EFD"/>
</g>
<path d="M132.021 127.975L132.021 127.975C131.551 127.852 130.87 127.783 130.2 127.768C129.531 127.753 128.854 127.792 128.391 127.892L128.39 127.892C126.842 128.232 125.563 128.929 124.467 130.025C122.962 131.531 122.19 133.417 122.19 135.585C122.19 136.891 122.462 138.057 123.022 139.17C123.342 139.81 123.789 140.423 124.49 141.205L124.49 141.205C125.18 141.976 125.66 142.687 125.984 143.455C126.308 144.222 126.481 145.055 126.547 146.074L126.547 146.074C126.583 146.635 126.623 147.001 126.718 147.261C126.82 147.542 126.985 147.695 127.227 147.844C127.227 147.844 127.227 147.844 127.227 147.844L127.318 147.698L132.021 127.975ZM132.021 127.975C133.233 128.294 134.567 129.041 135.519 129.932C136.341 130.693 137.169 132.013 137.54 133.119L137.54 133.12M132.021 127.975L137.54 133.12M137.54 133.12C138.054 134.693 138.055 136.589 137.525 138.149C137.259 138.932 136.723 139.875 136.178 140.541L136.178 140.541M137.54 133.12L136.178 140.541M136.178 140.541C134.874 142.12 134.687 142.372 134.394 142.945L134.394 142.945M136.178 140.541L134.394 142.945M134.394 142.945C133.844 144.016 133.642 144.784 133.554 146.147M134.394 142.945L133.554 146.147M133.554 146.147C133.521 146.669 133.482 147.018 133.386 147.272C133.284 147.544 133.12 147.698 132.881 147.844M133.554 146.147L132.881 147.844M132.881 147.844C132.881 147.844 132.881 147.844 132.881 147.844L132.791 147.698L132.881 147.845C132.881 147.845 132.881 147.844 132.881 147.844ZM121.142 131.36L121.142 131.36C120.533 132.645 120.241 134.01 120.241 135.578C120.241 136.806 120.38 137.726 120.713 138.712L120.713 138.712C121.193 140.145 121.831 141.212 122.948 142.439C123.531 143.079 123.916 143.608 124.172 144.223C124.428 144.837 124.552 145.523 124.634 146.469C124.663 146.784 124.702 147.104 124.741 147.367C124.782 147.638 124.82 147.828 124.846 147.896L124.846 147.896L124.847 147.899C124.903 148.058 125.034 148.303 125.183 148.538C125.334 148.775 125.488 148.977 125.584 149.064C125.628 149.104 125.674 149.152 125.708 149.228C125.74 149.298 125.756 149.38 125.766 149.481C125.787 149.68 125.789 150.011 125.789 150.598C125.789 151.662 125.812 151.913 125.92 152.221L125.92 152.222C126.25 153.193 126.98 153.923 127.943 154.253L127.944 154.253C128.272 154.367 128.496 154.384 130.054 154.384C131.612 154.384 131.836 154.367 132.165 154.253L132.165 154.253C133.128 153.923 133.858 153.193 134.188 152.222L134.189 152.221C134.296 151.913 134.32 151.662 134.32 150.598C134.32 150.011 134.321 149.68 134.342 149.481C134.352 149.38 134.369 149.298 134.401 149.228C134.435 149.152 134.48 149.104 134.524 149.065C134.631 148.967 134.787 148.759 134.938 148.513C135.087 148.27 135.219 148.01 135.283 147.82L135.283 147.82L135.284 147.818C135.356 147.613 135.43 147.117 135.467 146.592C135.565 144.934 135.997 143.778 136.922 142.73C137.885 141.634 138.415 140.892 138.849 140.015L138.85 140.015C139.569 138.567 139.867 137.269 139.867 135.585C139.867 133.925 139.585 132.708 138.842 131.215L138.842 131.215C137.897 129.302 136.445 127.835 134.525 126.852C133.682 126.424 132.626 126.067 131.69 125.907C131.261 125.835 130.606 125.802 129.945 125.808C129.283 125.813 128.629 125.857 128.2 125.936C125.065 126.533 122.486 128.503 121.142 131.36ZM132.43 150.815L132.43 150.815C132.408 151.213 132.366 151.509 132.267 151.742C132.163 151.984 132.001 152.144 131.772 152.283C131.708 152.324 131.643 152.362 131.561 152.391C131.48 152.419 131.389 152.437 131.273 152.448C131.046 152.47 130.69 152.472 130.054 152.472C129.44 152.472 129.083 152.469 128.852 152.447C128.61 152.425 128.49 152.381 128.353 152.3L128.352 152.299C128.123 152.159 127.958 151.996 127.85 151.752C127.746 151.517 127.701 151.219 127.678 150.822L127.678 150.822L127.641 150.126L127.632 149.945H127.813H130.054H132.295H132.477L132.467 150.126L132.43 150.815Z" fill="#FCFDFD" stroke="#0D6EFD" stroke-width="0.344307"/>
<path d="M130.054 115.65V122.192" stroke="#FCFDFD" stroke-width="2.06584" stroke-linecap="round"/>
<path d="M141.626 119.973L137.984 124.44" stroke="#FCFDFD" stroke-width="2.06584" stroke-linecap="round"/>
<path d="M148.302 127.512L143.75 129.187" stroke="#FCFDFD" stroke-width="2.06584" stroke-linecap="round"/>
<path d="M119.17 119.693L122.811 124.16" stroke="#FCFDFD" stroke-width="2.06584" stroke-linecap="round"/>
<path d="M112.494 127.232L117.046 128.908" stroke="#FCFDFD" stroke-width="2.06584" stroke-linecap="round"/>
<defs>
<filter id="filter0_d_6451_16062" x="5.96582" y="141.691" width="268.518" height="268.518" filterUnits="userSpaceOnUse" color-interpolation-filters="sRGB">
<feFlood flood-opacity="0" result="BackgroundImageFix"/>
<feColorMatrix in="SourceAlpha" type="matrix" values="0 0 0 0 0 0 0 0 0 0 0 0 0 0 0 0 0 0 127 0" result="hardAlpha"/>
<feOffset/>
<feGaussianBlur stdDeviation="50"/>
<feComposite in2="hardAlpha" operator="out"/>
<feColorMatrix type="matrix" values="0 0 0 0 0.0392157 0 0 0 0 0.356863 0 0 0 0 0.796078 0 0 0 0.5 0"/>
<feBlend mode="normal" in2="BackgroundImageFix" result="effect1_dropShadow_6451_16062"/>
<feBlend mode="normal" in="SourceGraphic" in2="effect1_dropShadow_6451_16062" result="shape"/>
</filter>
<filter id="filter1_d_6451_16062" x="152.613" y="24.9258" width="246.826" height="246.826" filterUnits="userSpaceOnUse" color-interpolation-filters="sRGB">
<feFlood flood-opacity="0" result="BackgroundImageFix"/>
<feColorMatrix in="SourceAlpha" type="matrix" values="0 0 0 0 0 0 0 0 0 0 0 0 0 0 0 0 0 0 127 0" result="hardAlpha"/>
<feOffset/>
<feGaussianBlur stdDeviation="50"/>
<feComposite in2="hardAlpha" operator="out"/>
<feColorMatrix type="matrix" values="0 0 0 0 0.0392157 0 0 0 0 0.356863 0 0 0 0 0.796078 0 0 0 0.5 0"/>
<feBlend mode="normal" in2="BackgroundImageFix" result="effect1_dropShadow_6451_16062"/>
<feBlend mode="normal" in="SourceGraphic" in2="effect1_dropShadow_6451_16062" result="shape"/>
</filter>
<filter id="filter2_d_6451_16062" x="-3.68848" y="0.84375" width="268.518" height="268.518" filterUnits="userSpaceOnUse" color-interpolation-filters="sRGB">
<feFlood flood-opacity="0" result="BackgroundImageFix"/>
<feColorMatrix in="SourceAlpha" type="matrix" values="0 0 0 0 0 0 0 0 0 0 0 0 0 0 0 0 0 0 127 0" result="hardAlpha"/>
<feOffset/>
<feGaussianBlur stdDeviation="50"/>
<feComposite in2="hardAlpha" operator="out"/>
<feColorMatrix type="matrix" values="0 0 0 0 0.0392157 0 0 0 0 0.356863 0 0 0 0 0.796078 0 0 0 0.5 0"/>
<feBlend mode="normal" in2="BackgroundImageFix" result="effect1_dropShadow_6451_16062"/>
<feBlend mode="normal" in="SourceGraphic" in2="effect1_dropShadow_6451_16062" result="shape"/>
</filter>
</defs>
</svg>
