<svg width="517" height="517" viewBox="0 0 517 517" fill="none" xmlns="http://www.w3.org/2000/svg">
<path d="M246.582 53.1197C216.992 55.1197 186.582 63.5697 161.922 76.8397C151.632 82.3097 138.772 90.7497 137.722 92.7597C136.112 95.6497 136.722 99.9897 138.852 102.08C142.062 105.38 145.922 105.08 152.032 100.88C167.283 90.8489 183.806 82.8987 201.162 77.2397C209.842 74.5097 225.272 70.8897 225.842 71.4497C226.002 71.6097 224.392 74.1897 222.382 77.2397C211.772 93.0797 201.162 121.24 195.452 148.71C194.452 153.54 193.362 157.96 192.952 158.44C192.542 158.92 190.862 159.57 189.182 159.81C180.492 160.94 170.122 168.81 165.782 177.5C164.492 180.15 163.372 182.8 163.372 183.45C163.372 184.33 156.212 184.45 123.172 184.45H82.9915L87.9015 174.72C90.5515 169.34 94.7315 161.78 97.1415 157.92C102.212 149.72 102.772 146.26 99.5515 143.05C95.4515 138.95 89.9015 140.05 86.2115 145.7C69.7315 170.86 58.6315 201.17 54.3715 232.7C52.7415 244.79 52.5015 269.63 53.9915 281.37C58.0915 315.46 69.2615 345.69 87.9915 373.67L91.1215 378.25L88.7115 383.31C81.9615 396.9 84.6115 412.18 95.4615 422.39C106.072 432.44 120.222 434.53 133.462 428.02L138.522 425.6L142.992 428.74C170.58 447.316 202.235 458.978 235.282 462.74C248.392 464.35 273.472 463.94 287.142 461.93C320.342 456.93 349.292 445.53 375.662 427.04C416.414 398.646 445.524 356.473 457.622 308.3C464.765 279.062 465.573 248.635 459.992 219.06C454.982 193.823 445.346 169.731 431.572 148L425.462 138.51L427.882 133.51C434.552 120 431.882 104.73 421.042 94.5097C410.512 84.5097 396.281 82.3697 383.172 88.7997L378.172 91.2097L368.682 85.0997C343.042 68.6997 311.842 57.5197 282.342 54.3097C273.352 53.3597 253.412 52.7197 246.582 53.1197Z" fill="#0D6EFD" fill-opacity="0.3" stroke="#0D6EFD" stroke-opacity="0.3"/>
<path d="M266.122 70.7997C266.966 71.2238 267.784 71.6979 268.572 72.2197C272.118 74.7465 275.223 77.8414 277.762 81.3797C288.122 94.9997 294.382 111.19 299.312 127.53C304.931 146.16 308.992 165.226 311.452 184.53C311.452 184 236.982 185.01 230.252 184.31C227.542 184.03 227.382 182.17 226.342 179.92C222.744 172.084 216.64 165.67 208.992 161.69C211.95 142.798 217.174 124.331 224.552 106.69C229.112 95.7997 234.612 85.0597 242.892 76.6897C246.562 72.9497 251.032 69.5797 256.232 68.9597C259.637 68.5954 263.075 69.235 266.122 70.7997Z" fill="#FCFDFD" stroke="#0D6EFD" stroke-opacity="0.3"/>
<path d="M303.992 74.0697C327.014 79.8663 348.787 89.8123 368.242 103.42C362.072 115.93 364.782 132.24 374.652 142.1C379.702 146.949 386.106 150.152 393.016 151.284C399.926 152.416 407.017 151.424 413.352 148.44C421.064 159.858 427.778 171.919 433.422 184.49H330.682C327.832 184.49 327.522 184.85 327.012 182.06C321.312 150.68 315.842 119.36 301.612 90.4697C299.932 87.0697 298.162 83.7297 296.262 80.4697C295.582 79.2897 291.662 71.1997 290.482 71.1997C295.022 71.993 299.525 72.9497 303.992 74.0697Z" fill="#FCFDFD" stroke="#0D6EFD" stroke-opacity="0.3"/>
<g filter="url(#filter0_d_6598_11227)">
<path d="M407.612 103.67C409.715 105.043 411.512 106.837 412.889 108.938C414.265 111.039 415.192 113.403 415.612 115.88C416.025 118.644 415.778 121.466 414.892 124.117C414.006 126.768 412.506 129.171 410.513 131.131C408.521 133.091 406.093 134.552 403.428 135.395C400.763 136.237 397.937 136.438 395.18 135.979C392.423 135.521 389.813 134.417 387.565 132.757C385.316 131.098 383.491 128.93 382.24 126.431C380.989 123.931 380.347 121.172 380.367 118.377C380.386 115.582 381.066 112.831 382.351 110.35C384.129 107.072 386.87 104.418 390.203 102.746C393.536 101.074 397.301 100.465 400.992 101C403.36 101.419 405.615 102.328 407.612 103.67Z" fill="#0D6EFD" shape-rendering="crispEdges"/>
<path d="M407.612 103.67C409.715 105.043 411.512 106.837 412.889 108.938C414.265 111.039 415.192 113.403 415.612 115.88C416.025 118.644 415.778 121.466 414.892 124.117C414.006 126.768 412.506 129.171 410.513 131.131C408.521 133.091 406.093 134.552 403.428 135.395C400.763 136.237 397.937 136.438 395.18 135.979C392.423 135.521 389.813 134.417 387.565 132.757C385.316 131.098 383.491 128.93 382.24 126.431C380.989 123.931 380.347 121.172 380.367 118.377C380.386 115.582 381.066 112.831 382.351 110.35C384.129 107.072 386.87 104.418 390.203 102.746C393.536 101.074 397.301 100.465 400.992 101C403.36 101.419 405.615 102.328 407.612 103.67Z" stroke="#0D6EFD" stroke-opacity="0.3" shape-rendering="crispEdges"/>
</g>
<path d="M163.372 201.62C163.953 203.686 164.761 205.681 165.782 207.57C168.782 213.43 175.432 220.03 181.222 222.68L185.482 224.61L184.832 238.92C184.032 258.3 185.402 301.79 187.172 313.29L187.652 316.29H77.3415L76.6215 314.44C75.3315 311.15 71.8015 295.95 70.5115 288.15C67.6115 271.43 68.1015 241.52 71.3915 223.84C72.6015 217.84 76.4615 202.29 77.1015 201.08C77.2615 200.76 96.8015 200.52 120.442 200.52C155.812 200.57 163.372 200.73 163.372 201.62Z" fill="#FCFDFD" stroke="#0D6EFD" stroke-opacity="0.3"/>
<path d="M313.992 206.36C315.992 229.03 316.892 273.89 315.602 286.36L315.042 291.18L311.182 292.18C306.182 293.47 298.722 298.29 295.022 302.64C292.966 305.305 291.212 308.189 289.792 311.24L287.622 316.38H202.992L202.432 310.11C200.822 291.22 200.432 280.77 200.342 259.22C200.342 246.12 200.582 233.22 200.822 230.6L201.392 225.7L204.682 224.7C209.93 223.171 214.712 220.352 218.592 216.5C222.452 212.72 227.682 204.36 227.682 201.63C227.682 200.74 235.232 200.58 270.612 200.58H313.462L313.992 206.36Z" fill="#FCFDFD" stroke="#0D6EFD" stroke-opacity="0.3"/>
<path d="M439.862 202.42C441.222 205.96 444.862 221.55 446.132 229.67C447.132 235.95 447.492 243.02 447.572 258.46C447.572 280.81 446.572 289.25 441.702 307.46L439.452 315.9L396.282 316.14C355.682 316.3 353.032 316.22 352.622 314.94C349.732 306.25 342.902 298.13 335.422 294.44L331.002 292.34L331.642 278.34C332.442 259.04 331.082 214.9 329.312 203.49L328.832 200.49H439.132L439.862 202.42Z" fill="#FCFDFD" stroke="#0D6EFD" stroke-opacity="0.3"/>
<g filter="url(#filter1_d_6598_11227)">
<path d="M327.222 308C330.446 309.359 333.196 311.641 335.127 314.559C337.057 317.477 338.082 320.901 338.072 324.4C338.072 334.53 330.272 342.09 319.902 342.09C310.742 342.09 302.462 333.73 302.462 324.4C302.462 315.07 310.742 306.72 319.902 306.72C322.396 306.732 324.871 307.164 327.222 308Z" fill="#0D6EFD" shape-rendering="crispEdges"/>
<path d="M327.222 308C330.446 309.359 333.196 311.641 335.127 314.559C337.057 317.477 338.082 320.901 338.072 324.4C338.072 334.53 330.272 342.09 319.902 342.09C310.742 342.09 302.462 333.73 302.462 324.4C302.462 315.07 310.742 306.72 319.902 306.72C322.396 306.732 324.871 307.164 327.222 308Z" stroke="#0D6EFD" stroke-opacity="0.3" shape-rendering="crispEdges"/>
</g>
<path d="M189.422 334.19C189.661 335.24 190.542 340.95 191.512 346.89C197.222 384.44 209.362 420.62 222.782 440.56C224.552 443.13 225.922 445.46 225.782 445.56C225.211 446.21 206.782 441.62 198.042 438.65C182.629 433.532 167.951 426.422 154.382 417.5L148.192 413.56L149.482 410.67C154.482 398.61 151.092 383.58 141.282 374.33C131.712 365.25 117.642 362.43 106.062 367.25L103.172 368.54L99.2315 362.35C94.2387 354.65 89.7525 346.633 85.8015 338.35L83.0715 332.48H189.102L189.422 334.19Z" fill="#FCFDFD" stroke="#0D6EFD" stroke-opacity="0.3"/>
<path d="M289.912 337.65C292.647 343.991 297.284 349.326 303.182 352.92C305.752 354.45 307.282 355.92 307.282 356.86C307.282 359.44 303.342 376.24 300.042 387.41C290.992 418.53 277.772 441 265.232 446.59C246.502 455.11 225.762 426.49 212.892 374.23C210.162 362.97 206.702 345.45 205.502 336.6L204.932 332.42H287.662L289.912 337.65Z" fill="#FCFDFD" stroke="#0D6EFD" stroke-opacity="0.3"/>
<path d="M432.702 333.23C432.702 334.59 424.702 350.11 420.082 357.75C406.492 379.94 384.542 402.61 362.432 417.16C350.982 424.474 338.869 430.691 326.252 435.73C315.562 439.83 290.402 446.67 290.402 445.46C290.402 445.3 292.082 442.73 294.092 439.67C305.992 421.91 314.032 399.67 322.962 359.28C323.282 357.91 324.162 357.43 326.962 357.1C332.182 356.38 339.902 352.2 344.322 347.62C347.979 343.61 350.795 338.907 352.602 333.79C353.012 332.5 355.662 332.42 392.882 332.42C419.352 332.42 432.702 332.66 432.702 333.23Z" fill="#FCFDFD" stroke="#0D6EFD" stroke-opacity="0.3"/>
<g filter="url(#filter2_d_6598_11227)">
<path d="M127.752 383.57C129.737 384.79 131.459 386.394 132.817 388.287C134.175 390.181 135.143 392.326 135.663 394.597C136.183 396.869 136.245 399.221 135.846 401.517C135.446 403.813 134.594 406.006 133.338 407.968C132.081 409.931 130.446 411.623 128.529 412.947C126.611 414.271 124.449 415.199 122.168 415.678C119.888 416.156 117.534 416.176 115.246 415.735C112.958 415.294 110.781 414.402 108.842 413.11C106.284 411.441 104.203 409.137 102.801 406.424C101.399 403.711 100.724 400.681 100.842 397.63C100.896 395.159 101.487 392.73 102.572 390.51C104.272 387.226 106.94 384.543 110.215 382.825C113.49 381.106 117.213 380.434 120.882 380.9C123.338 381.28 125.683 382.191 127.752 383.57Z" fill="#0D6EFD" shape-rendering="crispEdges"/>
<path d="M127.752 383.57C129.737 384.79 131.459 386.394 132.817 388.287C134.175 390.181 135.143 392.326 135.663 394.597C136.183 396.869 136.245 399.221 135.846 401.517C135.446 403.813 134.594 406.006 133.338 407.968C132.081 409.931 130.446 411.623 128.529 412.947C126.611 414.271 124.449 415.199 122.168 415.678C119.888 416.156 117.534 416.176 115.246 415.735C112.958 415.294 110.781 414.402 108.842 413.11C106.284 411.441 104.203 409.137 102.801 406.424C101.399 403.711 100.724 400.681 100.842 397.63C100.896 395.159 101.487 392.73 102.572 390.51C104.272 387.226 106.94 384.543 110.215 382.825C113.49 381.106 117.213 380.434 120.882 380.9C123.338 381.28 125.683 382.191 127.752 383.57Z" stroke="#0D6EFD" stroke-opacity="0.3" shape-rendering="crispEdges"/>
</g>
<g filter="url(#filter3_d_6598_11227)">
<path d="M204.892 177.82C207.551 179.478 209.705 181.834 211.122 184.63C212.744 187.909 213.287 191.618 212.672 195.225C212.056 198.832 210.314 202.151 207.695 204.707C205.077 207.262 201.716 208.923 198.095 209.451C194.475 209.978 190.78 209.345 187.541 207.643C184.302 205.941 181.685 203.257 180.066 199.975C178.447 196.694 177.909 192.984 178.529 189.378C179.148 185.772 180.894 182.455 183.516 179.902C186.137 177.35 189.5 175.693 193.122 175.17C197.235 174.635 201.404 175.574 204.892 177.82Z" fill="#0D6EFD" shape-rendering="crispEdges"/>
<path d="M204.892 177.82C207.551 179.478 209.705 181.834 211.122 184.63C212.744 187.909 213.287 191.618 212.672 195.225C212.056 198.832 210.314 202.151 207.695 204.707C205.077 207.262 201.716 208.923 198.095 209.451C194.475 209.978 190.78 209.345 187.541 207.643C184.302 205.941 181.685 203.257 180.066 199.975C178.447 196.694 177.909 192.984 178.529 189.378C179.148 185.772 180.894 182.455 183.516 179.902C186.137 177.35 189.5 175.693 193.122 175.17C197.235 174.635 201.404 175.574 204.892 177.82Z" stroke="#0D6EFD" stroke-opacity="0.3" shape-rendering="crispEdges"/>
</g>
<defs>
<filter id="filter0_d_6598_11227" x="279.866" y="0.311035" width="236.44" height="236.408" filterUnits="userSpaceOnUse" color-interpolation-filters="sRGB">
<feFlood flood-opacity="0" result="BackgroundImageFix"/>
<feColorMatrix in="SourceAlpha" type="matrix" values="0 0 0 0 0 0 0 0 0 0 0 0 0 0 0 0 0 0 127 0" result="hardAlpha"/>
<feOffset/>
<feGaussianBlur stdDeviation="50"/>
<feComposite in2="hardAlpha" operator="out"/>
<feColorMatrix type="matrix" values="0 0 0 0 0.0509804 0 0 0 0 0.431373 0 0 0 0 0.992157 0 0 0 1 0"/>
<feBlend mode="normal" in2="BackgroundImageFix" result="effect1_dropShadow_6598_11227"/>
<feBlend mode="normal" in="SourceGraphic" in2="effect1_dropShadow_6598_11227" result="shape"/>
</filter>
<filter id="filter1_d_6598_11227" x="201.962" y="206.22" width="236.61" height="236.37" filterUnits="userSpaceOnUse" color-interpolation-filters="sRGB">
<feFlood flood-opacity="0" result="BackgroundImageFix"/>
<feColorMatrix in="SourceAlpha" type="matrix" values="0 0 0 0 0 0 0 0 0 0 0 0 0 0 0 0 0 0 127 0" result="hardAlpha"/>
<feOffset/>
<feGaussianBlur stdDeviation="50"/>
<feComposite in2="hardAlpha" operator="out"/>
<feColorMatrix type="matrix" values="0 0 0 0 0.0509804 0 0 0 0 0.431373 0 0 0 0 0.992157 0 0 0 1 0"/>
<feBlend mode="normal" in2="BackgroundImageFix" result="effect1_dropShadow_6598_11227"/>
<feBlend mode="normal" in="SourceGraphic" in2="effect1_dropShadow_6598_11227" result="shape"/>
</filter>
<filter id="filter2_d_6598_11227" x="0.328331" y="280.256" width="236.277" height="236.296" filterUnits="userSpaceOnUse" color-interpolation-filters="sRGB">
<feFlood flood-opacity="0" result="BackgroundImageFix"/>
<feColorMatrix in="SourceAlpha" type="matrix" values="0 0 0 0 0 0 0 0 0 0 0 0 0 0 0 0 0 0 127 0" result="hardAlpha"/>
<feOffset/>
<feGaussianBlur stdDeviation="50"/>
<feComposite in2="hardAlpha" operator="out"/>
<feColorMatrix type="matrix" values="0 0 0 0 0.0509804 0 0 0 0 0.431373 0 0 0 0 0.992157 0 0 0 1 0"/>
<feBlend mode="normal" in2="BackgroundImageFix" result="effect1_dropShadow_6598_11227"/>
<feBlend mode="normal" in="SourceGraphic" in2="effect1_dropShadow_6598_11227" result="shape"/>
</filter>
<filter id="filter3_d_6598_11227" x="77.7783" y="74.5232" width="235.64" height="235.608" filterUnits="userSpaceOnUse" color-interpolation-filters="sRGB">
<feFlood flood-opacity="0" result="BackgroundImageFix"/>
<feColorMatrix in="SourceAlpha" type="matrix" values="0 0 0 0 0 0 0 0 0 0 0 0 0 0 0 0 0 0 127 0" result="hardAlpha"/>
<feOffset/>
<feGaussianBlur stdDeviation="50"/>
<feComposite in2="hardAlpha" operator="out"/>
<feColorMatrix type="matrix" values="0 0 0 0 0.0509804 0 0 0 0 0.431373 0 0 0 0 0.992157 0 0 0 1 0"/>
<feBlend mode="normal" in2="BackgroundImageFix" result="effect1_dropShadow_6598_11227"/>
<feBlend mode="normal" in="SourceGraphic" in2="effect1_dropShadow_6598_11227" result="shape"/>
</filter>
</defs>
</svg>
