<svg width="348" height="392" viewBox="0 0 348 392" fill="none" xmlns="http://www.w3.org/2000/svg">
<path d="M144.907 72.0722C127.037 73.28 108.672 78.3831 93.7795 86.3971C87.5652 89.7005 79.7988 94.7976 79.1647 96.0115C78.1924 97.7568 78.5608 100.378 79.8471 101.64C81.7857 103.633 84.1168 103.452 87.8068 100.915C97.0176 94.8575 106.996 90.0562 117.477 86.6387C122.719 84.99 132.038 82.8038 132.382 83.142C132.478 83.2386 131.506 84.7967 130.292 86.6387C123.885 96.2047 117.477 113.211 114.029 129.801C113.425 132.718 112.767 135.387 112.519 135.677C112.271 135.967 111.257 136.359 110.242 136.504C104.994 137.186 98.7316 141.939 96.1106 147.187C95.3316 148.788 94.6552 150.388 94.6552 150.781C94.6552 151.312 90.3311 151.385 70.3777 151.385H46.1124L49.0776 145.508C50.678 142.259 53.2023 137.694 54.6578 135.363C57.7196 130.411 58.0578 128.321 56.1132 126.382C53.6372 123.906 50.2854 124.571 48.057 127.983C38.1044 143.177 31.401 161.482 28.8283 180.524C27.8439 187.825 27.699 202.826 28.5988 209.916C31.0748 230.504 37.8206 248.76 49.1319 265.658L51.0222 268.424L49.5668 271.479C45.4903 279.687 47.0907 288.914 53.6432 295.08C60.0508 301.15 68.5962 302.412 76.592 298.48L79.6478 297.019L82.3474 298.915C99.0085 310.134 118.126 317.177 138.083 319.448C146 320.421 161.146 320.173 169.402 318.959C189.452 315.94 206.935 309.055 222.861 297.889C247.472 280.741 265.052 255.272 272.358 226.18C276.672 208.523 277.16 190.147 273.789 172.286C270.763 157.045 264.944 142.496 256.626 129.372L252.936 123.641L254.397 120.621C258.425 112.462 256.813 103.24 250.266 97.0683C243.907 91.0291 235.313 89.7368 227.396 93.6199L224.376 95.0754L218.645 91.3855C203.161 81.4812 184.319 74.7294 166.503 72.7909C161.074 72.2171 149.032 71.8306 144.907 72.0722Z" fill="#0D2B40" stroke="#264154"/>
<path d="M156.708 82.7495C157.218 83.0056 157.712 83.2919 158.187 83.6071C160.329 85.133 162.204 87.0021 163.737 89.1389C169.994 97.3643 173.774 107.142 176.752 117.01C180.145 128.261 182.598 139.775 184.083 151.433C184.083 151.113 139.11 151.723 135.045 151.3C133.409 151.131 133.312 150.008 132.684 148.649C130.512 143.917 126.825 140.043 122.206 137.639C123.993 126.23 127.148 115.078 131.603 104.424C134.357 97.8474 137.678 91.3613 142.679 86.3066C144.895 84.0479 147.595 82.0127 150.735 81.6383C152.792 81.4183 154.868 81.8045 156.708 82.7495Z" fill="#002036" stroke="#264154"/>
<path d="M179.579 84.7245C193.483 88.2251 206.632 94.2317 218.38 102.449C214.654 110.004 216.291 119.854 222.252 125.809C225.302 128.738 229.169 130.672 233.342 131.355C237.515 132.039 241.798 131.44 245.623 129.638C250.281 136.534 254.336 143.817 257.744 151.409H195.697C193.976 151.409 193.789 151.626 193.481 149.941C190.039 130.99 186.735 112.076 178.142 94.6287C177.127 92.5754 176.058 90.5583 174.911 88.5895C174.5 87.8769 172.133 82.9912 171.42 82.9912C174.162 83.4703 176.881 84.0481 179.579 84.7245Z" fill="#002036" stroke="#264154"/>
<g filter="url(#filter0_d_6598_10561)">
<path d="M242.155 102.6C243.425 103.43 244.51 104.513 245.342 105.782C246.173 107.051 246.733 108.478 246.986 109.974C247.236 111.644 247.087 113.348 246.552 114.949C246.017 116.55 245.111 118.001 243.907 119.185C242.704 120.369 241.238 121.251 239.629 121.76C238.019 122.269 236.312 122.39 234.647 122.113C232.982 121.836 231.406 121.169 230.048 120.167C228.69 119.165 227.588 117.855 226.833 116.346C226.078 114.837 225.69 113.17 225.701 111.482C225.713 109.794 226.124 108.133 226.9 106.635C227.974 104.655 229.629 103.052 231.642 102.043C233.654 101.033 235.928 100.665 238.157 100.988C239.588 101.241 240.949 101.79 242.155 102.6Z" fill="#0D6EFD"/>
<path d="M242.155 102.6C243.425 103.43 244.51 104.513 245.342 105.782C246.173 107.051 246.733 108.478 246.986 109.974C247.236 111.644 247.087 113.348 246.552 114.949C246.017 116.55 245.111 118.001 243.907 119.185C242.704 120.369 241.238 121.251 239.629 121.76C238.019 122.269 236.312 122.39 234.647 122.113C232.982 121.836 231.406 121.169 230.048 120.167C228.69 119.165 227.588 117.855 226.833 116.346C226.078 114.837 225.69 113.17 225.701 111.482C225.713 109.794 226.124 108.133 226.9 106.635C227.974 104.655 229.629 103.052 231.642 102.043C233.654 101.033 235.928 100.665 238.157 100.988C239.588 101.241 240.949 101.79 242.155 102.6Z" stroke="#264154"/>
</g>
<path d="M94.6548 161.754C95.0061 163.002 95.4942 164.207 96.1102 165.347C97.922 168.886 101.938 172.872 105.435 174.473L108.007 175.638L107.615 184.28C107.132 195.984 107.959 222.248 109.028 229.194L109.318 231.005H42.6998L42.265 229.888C41.486 227.901 39.3542 218.722 38.5751 214.011C36.8237 203.914 37.1197 185.85 39.1065 175.173C39.8373 171.55 42.1684 162.159 42.5549 161.428C42.6515 161.235 54.4521 161.09 68.7286 161.09C90.0892 161.12 94.6548 161.217 94.6548 161.754Z" fill="#002036" stroke="#264154"/>
<path d="M185.618 164.617C186.825 178.307 187.369 205.399 186.59 212.93L186.252 215.841L183.921 216.445C180.901 217.224 176.396 220.135 174.161 222.762C172.92 224.371 171.861 226.113 171.003 227.955L169.692 231.06H118.583L118.245 227.273C117.272 215.865 117.037 209.554 116.982 196.54C116.982 188.628 117.127 180.838 117.272 179.256L117.617 176.296L119.603 175.692C122.773 174.769 125.661 173.067 128.004 170.74C130.335 168.458 133.493 163.409 133.493 161.76C133.493 161.223 138.053 161.126 159.42 161.126H185.297L185.618 164.617Z" fill="#002036" stroke="#264154"/>
<path d="M261.632 162.238C262.453 164.376 264.652 173.791 265.419 178.695C266.022 182.487 266.24 186.757 266.288 196.081C266.288 209.579 265.684 214.676 262.743 225.673L261.384 230.77L235.313 230.915C210.794 231.012 209.194 230.964 208.946 230.191C207.201 224.942 203.076 220.039 198.559 217.81L195.89 216.542L196.276 208.087C196.759 196.432 195.938 169.775 194.869 162.884L194.579 161.072H261.191L261.632 162.238Z" fill="#002036" stroke="#264154"/>
<g filter="url(#filter1_d_6598_10561)">
<path d="M193.607 225.999C195.554 226.819 197.215 228.197 198.381 229.96C199.547 231.722 200.166 233.79 200.16 235.903C200.16 242.02 195.449 246.586 189.187 246.586C183.655 246.586 178.654 241.537 178.654 235.903C178.654 230.268 183.655 225.226 189.187 225.226C190.693 225.233 192.188 225.494 193.607 225.999Z" fill="#0D6EFD"/>
<path d="M193.607 225.999C195.554 226.819 197.215 228.197 198.381 229.96C199.547 231.722 200.166 233.79 200.16 235.903C200.16 242.02 195.449 246.586 189.187 246.586C183.655 246.586 178.654 241.537 178.654 235.903C178.654 230.268 183.655 225.226 189.187 225.226C190.693 225.233 192.188 225.494 193.607 225.999Z" stroke="#264154"/>
</g>
<path d="M110.388 241.816C110.533 242.45 111.064 245.898 111.65 249.486C115.098 272.163 122.43 294.012 130.534 306.054C131.603 307.607 132.431 309.014 132.346 309.074C132.002 309.467 120.872 306.695 115.593 304.901C106.286 301.81 97.4215 297.516 89.2264 292.128L85.4882 289.749L86.2672 288.003C89.2868 280.72 87.2395 271.643 81.3151 266.057C75.5356 260.574 67.0385 258.87 60.0452 261.781L58.2999 262.56L55.9204 258.822C52.9052 254.172 50.1959 249.33 47.8098 244.328L46.1611 240.783H110.194L110.388 241.816Z" fill="#002036" stroke="#264154"/>
<path d="M171.075 243.905C172.727 247.734 175.527 250.956 179.089 253.126C180.641 254.05 181.565 254.938 181.565 255.506C181.565 257.064 179.185 267.21 177.192 273.955C171.727 292.749 163.743 306.319 156.17 309.695C144.859 314.841 132.333 297.557 124.561 265.996C122.912 259.196 120.823 248.615 120.098 243.27L119.754 240.746H169.716L171.075 243.905Z" fill="#002036" stroke="#264154"/>
<path d="M257.308 241.235C257.308 242.057 252.477 251.429 249.687 256.043C241.48 269.444 228.224 283.135 214.871 291.922C207.957 296.339 200.641 300.094 193.022 303.137C186.566 305.613 171.371 309.744 171.371 309.013C171.371 308.916 172.386 307.364 173.6 305.516C180.786 294.791 185.642 281.359 191.035 256.967C191.228 256.14 191.759 255.85 193.45 255.651C196.603 255.216 201.265 252.692 203.934 249.926C206.143 247.504 207.844 244.664 208.935 241.573C209.182 240.794 210.783 240.746 233.26 240.746C249.246 240.746 257.308 240.891 257.308 241.235Z" fill="#002036" stroke="#264154"/>
<g filter="url(#filter2_d_6598_10561)">
<path d="M73.1431 271.637C74.342 272.374 75.3819 273.342 76.2022 274.486C77.0225 275.629 77.6068 276.925 77.9208 278.296C78.2349 279.668 78.2725 281.089 78.0314 282.475C77.7903 283.862 77.2753 285.186 76.5166 286.371C75.7579 287.557 74.7706 288.579 73.6125 289.378C72.4543 290.178 71.1485 290.738 69.7712 291.027C68.394 291.316 66.9729 291.328 65.5911 291.062C64.2092 290.795 62.8943 290.257 61.7231 289.476C60.1786 288.469 58.9217 287.077 58.0749 285.439C57.2282 283.801 56.8205 281.971 56.8917 280.128C56.9248 278.636 57.2813 277.169 57.9365 275.828C58.9637 273.845 60.575 272.225 62.5525 271.187C64.5301 270.149 66.7786 269.743 68.9942 270.024C70.478 270.254 71.8938 270.804 73.1431 271.637Z" fill="#0D6EFD"/>
<path d="M73.1431 271.637C74.342 272.374 75.3819 273.342 76.2022 274.486C77.0225 275.629 77.6068 276.925 77.9208 278.296C78.2349 279.668 78.2725 281.089 78.0314 282.475C77.7903 283.862 77.2753 285.186 76.5166 286.371C75.7579 287.557 74.7706 288.579 73.6125 289.378C72.4543 290.178 71.1485 290.738 69.7712 291.027C68.394 291.316 66.9729 291.328 65.5911 291.062C64.2092 290.795 62.8943 290.257 61.7231 289.476C60.1786 288.469 58.9217 287.077 58.0749 285.439C57.2282 283.801 56.8205 281.971 56.8917 280.128C56.9248 278.636 57.2813 277.169 57.9365 275.828C58.9637 273.845 60.575 272.225 62.5525 271.187C64.5301 270.149 66.7786 269.743 68.9942 270.024C70.478 270.254 71.8938 270.804 73.1431 271.637Z" stroke="#264154"/>
</g>
<g filter="url(#filter3_d_6598_10561)">
<path d="M119.729 147.38C121.335 148.382 122.637 149.804 123.492 151.493C124.472 153.473 124.8 155.713 124.428 157.892C124.056 160.07 123.004 162.074 121.423 163.618C119.841 165.161 117.812 166.164 115.625 166.483C113.438 166.801 111.207 166.419 109.251 165.391C107.295 164.363 105.715 162.742 104.737 160.76C103.759 158.779 103.434 156.538 103.808 154.361C104.183 152.183 105.237 150.179 106.82 148.638C108.403 147.096 110.434 146.096 112.621 145.78C115.105 145.457 117.623 146.024 119.729 147.38Z" fill="#0D6EFD"/>
<path d="M119.729 147.38C121.335 148.382 122.637 149.804 123.492 151.493C124.472 153.473 124.8 155.713 124.428 157.892C124.056 160.07 123.004 162.074 121.423 163.618C119.841 165.161 117.812 166.164 115.625 166.483C113.438 166.801 111.207 166.419 109.251 165.391C107.295 164.363 105.715 162.742 104.737 160.76C103.759 158.779 103.434 156.538 103.808 154.361C104.183 152.183 105.237 150.179 106.82 148.638C108.403 147.096 110.434 146.096 112.621 145.78C115.105 145.457 117.623 146.024 119.729 147.38Z" stroke="#264154"/>
</g>
<defs>
<filter id="filter0_d_6598_10561" x="125.201" y="0.374023" width="222.402" height="222.384" filterUnits="userSpaceOnUse" color-interpolation-filters="sRGB">
<feFlood flood-opacity="0" result="BackgroundImageFix"/>
<feColorMatrix in="SourceAlpha" type="matrix" values="0 0 0 0 0 0 0 0 0 0 0 0 0 0 0 0 0 0 127 0" result="hardAlpha"/>
<feOffset/>
<feGaussianBlur stdDeviation="50"/>
<feComposite in2="hardAlpha" operator="out"/>
<feColorMatrix type="matrix" values="0 0 0 0 0.0509804 0 0 0 0 0.431373 0 0 0 0 0.992157 0 0 0 1 0"/>
<feBlend mode="normal" in2="BackgroundImageFix" result="effect1_dropShadow_6598_10561"/>
<feBlend mode="normal" in="SourceGraphic" in2="effect1_dropShadow_6598_10561" result="shape"/>
</filter>
<filter id="filter1_d_6598_10561" x="78.1543" y="124.726" width="222.506" height="222.36" filterUnits="userSpaceOnUse" color-interpolation-filters="sRGB">
<feFlood flood-opacity="0" result="BackgroundImageFix"/>
<feColorMatrix in="SourceAlpha" type="matrix" values="0 0 0 0 0 0 0 0 0 0 0 0 0 0 0 0 0 0 127 0" result="hardAlpha"/>
<feOffset/>
<feGaussianBlur stdDeviation="50"/>
<feComposite in2="hardAlpha" operator="out"/>
<feColorMatrix type="matrix" values="0 0 0 0 0.0509804 0 0 0 0 0.431373 0 0 0 0 0.992157 0 0 0 1 0"/>
<feBlend mode="normal" in2="BackgroundImageFix" result="effect1_dropShadow_6598_10561"/>
<feBlend mode="normal" in="SourceGraphic" in2="effect1_dropShadow_6598_10561" result="shape"/>
</filter>
<filter id="filter2_d_6598_10561" x="-43.6162" y="169.438" width="222.305" height="222.315" filterUnits="userSpaceOnUse" color-interpolation-filters="sRGB">
<feFlood flood-opacity="0" result="BackgroundImageFix"/>
<feColorMatrix in="SourceAlpha" type="matrix" values="0 0 0 0 0 0 0 0 0 0 0 0 0 0 0 0 0 0 127 0" result="hardAlpha"/>
<feOffset/>
<feGaussianBlur stdDeviation="50"/>
<feComposite in2="hardAlpha" operator="out"/>
<feColorMatrix type="matrix" values="0 0 0 0 0.0509804 0 0 0 0 0.431373 0 0 0 0 0.992157 0 0 0 1 0"/>
<feBlend mode="normal" in2="BackgroundImageFix" result="effect1_dropShadow_6598_10561"/>
<feBlend mode="normal" in="SourceGraphic" in2="effect1_dropShadow_6598_10561" result="shape"/>
</filter>
<filter id="filter3_d_6598_10561" x="3.15723" y="45.1914" width="221.92" height="221.9" filterUnits="userSpaceOnUse" color-interpolation-filters="sRGB">
<feFlood flood-opacity="0" result="BackgroundImageFix"/>
<feColorMatrix in="SourceAlpha" type="matrix" values="0 0 0 0 0 0 0 0 0 0 0 0 0 0 0 0 0 0 127 0" result="hardAlpha"/>
<feOffset/>
<feGaussianBlur stdDeviation="50"/>
<feComposite in2="hardAlpha" operator="out"/>
<feColorMatrix type="matrix" values="0 0 0 0 0.0509804 0 0 0 0 0.431373 0 0 0 0 0.992157 0 0 0 1 0"/>
<feBlend mode="normal" in2="BackgroundImageFix" result="effect1_dropShadow_6598_10561"/>
<feBlend mode="normal" in="SourceGraphic" in2="effect1_dropShadow_6598_10561" result="shape"/>
</filter>
</defs>
</svg>
