<svg width="312" height="321" viewBox="0 0 312 321" fill="none" xmlns="http://www.w3.org/2000/svg">
<path d="M144.207 33.0753C125.833 34.3172 106.949 39.5643 91.6362 47.8045C85.2465 51.2011 77.2609 56.4421 76.6089 57.6902C75.6091 59.4848 75.9879 62.1798 77.3106 63.4776C79.3039 65.5267 81.7008 65.3405 85.4949 62.7324C94.9657 56.5036 105.226 51.5669 116.003 48.0529C121.393 46.3576 130.974 44.1098 131.328 44.4575C131.427 44.5568 130.428 46.1589 129.18 48.0529C122.591 57.8889 116.003 75.3752 112.457 92.4331C111.836 95.4323 111.159 98.177 110.905 98.475C110.65 98.7731 109.607 99.1767 108.564 99.3257C103.167 100.027 96.7281 104.914 94.0331 110.311C93.232 111.956 92.5366 113.602 92.5366 114.005C92.5366 114.552 88.0905 114.626 67.5739 114.626H42.6236L45.6725 108.584C47.3181 105.244 49.9137 100.549 51.4102 98.1521C54.5585 93.0602 54.9062 90.9117 52.9067 88.9184C50.3608 86.3725 46.9145 87.0555 44.6231 90.564C34.3896 106.187 27.497 125.009 24.8517 144.588C23.8395 152.095 23.6905 167.52 24.6157 174.81C27.1616 195.979 34.0978 214.75 45.7284 232.125L47.672 234.969L46.1755 238.111C41.984 246.55 43.6296 256.038 50.367 262.378C56.9554 268.619 65.742 269.917 73.9636 265.874L77.1056 264.371L79.8814 266.321C97.0127 277.857 116.669 285.098 137.19 287.434C145.331 288.434 160.905 288.179 169.393 286.931C190.009 283.826 207.986 276.747 224.361 265.266C249.666 247.634 267.742 221.446 275.255 191.532C279.691 173.377 280.192 154.483 276.726 136.118C273.616 120.447 267.632 105.486 259.079 91.9922L255.285 86.0992L256.787 82.9944C260.929 74.6052 259.271 65.1231 252.54 58.7769C246.001 52.5673 237.165 51.2384 229.024 55.2312L225.919 56.7277L220.026 52.9336C204.105 42.7498 184.731 35.8075 166.412 33.8142C160.83 33.2243 148.448 32.8269 144.207 33.0753Z" fill="#0D6EFD" fill-opacity="0.3" stroke="#0D6EFD" stroke-opacity="0.3" stroke-width="0.620962"/>
<path d="M156.34 44.0538C156.864 44.3171 157.372 44.6116 157.861 44.9356C160.064 46.5046 161.992 48.4264 163.568 50.6236C170.001 59.0811 173.888 69.1345 176.95 79.281C180.439 90.85 182.961 102.689 184.488 114.676C184.488 114.347 138.245 114.974 134.066 114.539C132.383 114.365 132.284 113.21 131.638 111.813C129.404 106.948 125.613 102.965 120.864 100.493C122.701 88.762 125.945 77.295 130.526 66.3401C133.358 59.5779 136.773 52.9087 141.915 47.7113C144.194 45.3889 146.97 43.2962 150.199 42.9112C152.313 42.685 154.448 43.0822 156.34 44.0538Z" fill="#FCFDFD" stroke="#0D6EFD" stroke-opacity="0.3" stroke-width="0.620962"/>
<path d="M179.856 46.0844C194.152 49.6839 207.672 55.86 219.753 64.3097C215.921 72.0779 217.604 82.2058 223.733 88.3285C226.87 91.3399 230.846 93.3286 235.137 94.0316C239.428 94.7345 243.831 94.1187 247.764 92.2654C252.553 99.3558 256.723 106.845 260.227 114.651H196.429C194.66 114.651 194.467 114.875 194.151 113.142C190.611 93.6563 187.214 74.2078 178.378 56.2682C177.335 54.1569 176.236 52.0829 175.056 50.0586C174.634 49.3258 172.2 44.3022 171.467 44.3022C174.286 44.7949 177.082 45.3889 179.856 46.0844Z" fill="#FCFDFD" stroke="#0D6EFD" stroke-opacity="0.3" stroke-width="0.620962"/>
<g filter="url(#filter0_d_6603_13050)">
<path d="M244.201 64.4648C245.507 65.3175 246.622 66.4314 247.477 67.7362C248.332 69.041 248.908 70.5086 249.168 72.0467C249.425 73.7632 249.272 75.516 248.722 77.1619C248.171 78.8079 247.24 80.3004 246.002 81.5175C244.765 82.7346 243.258 83.6418 241.603 84.165C239.948 84.6882 238.193 84.8125 236.481 84.5279C234.769 84.2432 233.149 83.5577 231.752 82.5272C230.356 81.4967 229.223 80.1505 228.446 78.5985C227.669 77.0465 227.27 75.3328 227.282 73.5974C227.294 71.8619 227.717 70.1539 228.515 68.6128C229.619 66.5774 231.321 64.9295 233.39 63.8913C235.46 62.8531 237.798 62.4746 240.09 62.8068C241.561 63.067 242.961 63.6317 244.201 64.4648Z" fill="#0D6EFD" shape-rendering="crispEdges"/>
<path d="M244.201 64.4648C245.507 65.3175 246.622 66.4314 247.477 67.7362C248.332 69.041 248.908 70.5086 249.168 72.0467C249.425 73.7632 249.272 75.516 248.722 77.1619C248.171 78.8079 247.24 80.3004 246.002 81.5175C244.765 82.7346 243.258 83.6418 241.603 84.165C239.948 84.6882 238.193 84.8125 236.481 84.5279C234.769 84.2432 233.149 83.5577 231.752 82.5272C230.356 81.4967 229.223 80.1505 228.446 78.5985C227.669 77.0465 227.27 75.3328 227.282 73.5974C227.294 71.8619 227.717 70.1539 228.515 68.6128C229.619 66.5774 231.321 64.9295 233.39 63.8913C235.46 62.8531 237.798 62.4746 240.09 62.8068C241.561 63.067 242.961 63.6317 244.201 64.4648Z" stroke="#0D6EFD" stroke-opacity="0.3" stroke-width="0.620962" shape-rendering="crispEdges"/>
</g>
<path d="M92.5359 125.288C92.897 126.571 93.3989 127.81 94.0324 128.983C95.8953 132.622 100.025 136.72 103.62 138.366L106.265 139.564L105.862 148.45C105.365 160.484 106.216 187.49 107.315 194.631L107.613 196.494H39.1144L38.6674 195.345C37.8663 193.302 35.6743 183.863 34.8733 179.02C33.0725 168.637 33.3768 150.064 35.4197 139.086C36.1711 135.36 38.568 125.704 38.9654 124.953C39.0648 124.754 51.1984 124.605 65.8779 124.605C87.8414 124.636 92.5359 124.735 92.5359 125.288Z" fill="#FCFDFD" stroke="#0D6EFD" stroke-opacity="0.3" stroke-width="0.620962"/>
<path d="M186.066 128.231C187.307 142.309 187.866 170.165 187.065 177.908L186.718 180.902L184.321 181.522C181.216 182.324 176.583 185.317 174.286 188.018C173.01 189.673 171.921 191.464 171.038 193.358L169.691 196.55H117.139L116.791 192.656C115.791 180.926 115.549 174.437 115.493 161.056C115.493 152.921 115.642 144.911 115.791 143.284L116.145 140.241L118.188 139.62C121.447 138.671 124.417 136.92 126.826 134.528C129.223 132.181 132.47 126.99 132.47 125.294C132.47 124.742 137.159 124.642 159.128 124.642H185.736L186.066 128.231Z" fill="#FCFDFD" stroke="#0D6EFD" stroke-opacity="0.3" stroke-width="0.620962"/>
<path d="M264.227 125.785C265.071 127.983 267.332 137.664 268.12 142.706C268.741 146.606 268.965 150.996 269.014 160.584C269.014 174.462 268.393 179.703 265.369 191.011L263.972 196.252L237.165 196.401C211.954 196.5 210.309 196.45 210.054 195.656C208.259 190.259 204.018 185.217 199.373 182.926L196.629 181.622L197.026 172.928C197.523 160.944 196.678 133.534 195.579 126.449L195.281 124.586H263.773L264.227 125.785Z" fill="#FCFDFD" stroke="#0D6EFD" stroke-opacity="0.3" stroke-width="0.620962"/>
<g filter="url(#filter1_d_6603_13050)">
<path d="M194.281 191.346C196.283 192.19 197.991 193.607 199.19 195.419C200.389 197.231 201.025 199.357 201.019 201.53C201.019 207.82 196.175 212.515 189.736 212.515C184.048 212.515 178.906 207.323 178.906 201.53C178.906 195.736 184.048 190.551 189.736 190.551C191.285 190.559 192.822 190.827 194.281 191.346Z" fill="#0D6EFD" shape-rendering="crispEdges"/>
<path d="M194.281 191.346C196.283 192.19 197.991 193.607 199.19 195.419C200.389 197.231 201.025 199.357 201.019 201.53C201.019 207.82 196.175 212.515 189.736 212.515C184.048 212.515 178.906 207.323 178.906 201.53C178.906 195.736 184.048 190.551 189.736 190.551C191.285 190.559 192.822 190.827 194.281 191.346Z" stroke="#0D6EFD" stroke-opacity="0.3" stroke-width="0.620962" shape-rendering="crispEdges"/>
</g>
<path d="M108.712 207.609C108.861 208.261 109.408 211.807 110.01 215.495C113.556 238.812 121.094 261.279 129.428 273.661C130.527 275.257 131.377 276.703 131.29 276.766C130.936 277.169 119.492 274.319 114.065 272.475C104.494 269.297 95.3801 264.881 86.9537 259.341L83.1099 256.895L83.911 255.1C87.0158 247.611 84.9107 238.278 78.8191 232.534C72.8765 226.896 64.1395 225.145 56.9488 228.138L55.1542 228.939L52.7076 225.095C49.6072 220.314 46.8215 215.336 44.3681 210.192L42.6729 206.547H108.514L108.712 207.609Z" fill="#FCFDFD" stroke="#0D6EFD" stroke-opacity="0.3" stroke-width="0.620962"/>
<path d="M171.114 209.758C172.813 213.695 175.692 217.008 179.354 219.24C180.95 220.19 181.9 221.103 181.9 221.686C181.9 223.288 179.454 233.721 177.404 240.657C171.785 259.981 163.576 273.934 155.789 277.405C144.158 282.696 131.279 264.924 123.288 232.472C121.592 225.48 119.444 214.601 118.699 209.106L118.345 206.51H169.717L171.114 209.758Z" fill="#FCFDFD" stroke="#0D6EFD" stroke-opacity="0.3" stroke-width="0.620962"/>
<path d="M259.78 207.013C259.78 207.857 254.812 217.495 251.943 222.239C243.505 236.018 229.874 250.095 216.145 259.13C209.035 263.672 201.513 267.533 193.679 270.662C187.04 273.208 171.417 277.455 171.417 276.704C171.417 276.604 172.46 275.008 173.708 273.108C181.098 262.08 186.09 248.27 191.636 223.189C191.834 222.338 192.381 222.04 194.119 221.835C197.361 221.388 202.155 218.793 204.899 215.949C207.171 213.459 208.919 210.539 210.041 207.361C210.295 206.56 211.941 206.51 235.053 206.51C251.49 206.51 259.78 206.659 259.78 207.013Z" fill="#FCFDFD" stroke="#0D6EFD" stroke-opacity="0.3" stroke-width="0.620962"/>
<g filter="url(#filter2_d_6603_13050)">
<path d="M70.4175 238.272C71.6502 239.03 72.7194 240.026 73.5629 241.202C74.4064 242.377 75.0071 243.709 75.33 245.12C75.653 246.53 75.6916 247.991 75.4437 249.417C75.1958 250.842 74.6663 252.204 73.8862 253.423C73.1061 254.642 72.0909 255.693 70.9001 256.515C69.7092 257.336 68.3665 257.913 66.9504 258.21C65.5343 258.507 64.0731 258.519 62.6523 258.246C61.2314 257.972 59.8794 257.418 58.6751 256.616C57.087 255.579 55.7946 254.149 54.924 252.464C54.0533 250.78 53.6342 248.898 53.7074 247.003C53.7414 245.469 54.108 243.961 54.7817 242.582C55.8379 240.543 57.4946 238.877 59.528 237.81C61.5613 236.743 63.8733 236.325 66.1515 236.614C67.6771 236.85 69.1329 237.416 70.4175 238.272Z" fill="#0D6EFD" shape-rendering="crispEdges"/>
<path d="M70.4175 238.272C71.6502 239.03 72.7194 240.026 73.5629 241.202C74.4064 242.377 75.0071 243.709 75.33 245.12C75.653 246.53 75.6916 247.991 75.4437 249.417C75.1958 250.842 74.6663 252.204 73.8862 253.423C73.1061 254.642 72.0909 255.693 70.9001 256.515C69.7092 257.336 68.3665 257.913 66.9504 258.21C65.5343 258.507 64.0731 258.519 62.6523 258.246C61.2314 257.972 59.8794 257.418 58.6751 256.616C57.087 255.579 55.7946 254.149 54.924 252.464C54.0533 250.78 53.6342 248.898 53.7074 247.003C53.7414 245.469 54.108 243.961 54.7817 242.582C55.8379 240.543 57.4946 238.877 59.528 237.81C61.5613 236.743 63.8733 236.325 66.1515 236.614C67.6771 236.85 69.1329 237.416 70.4175 238.272Z" stroke="#0D6EFD" stroke-opacity="0.3" stroke-width="0.620962" shape-rendering="crispEdges"/>
</g>
<g filter="url(#filter3_d_6603_13050)">
<path d="M118.319 110.509C119.97 111.539 121.308 113.002 122.187 114.738C123.195 116.774 123.532 119.078 123.15 121.317C122.768 123.557 121.686 125.618 120.06 127.205C118.434 128.792 116.347 129.823 114.099 130.151C111.85 130.478 109.556 130.086 107.545 129.028C105.533 127.971 103.908 126.305 102.903 124.267C101.898 122.229 101.564 119.926 101.948 117.687C102.333 115.447 103.417 113.387 105.045 111.802C106.673 110.217 108.761 109.189 111.01 108.864C113.564 108.532 116.153 109.115 118.319 110.509Z" fill="#0D6EFD" shape-rendering="crispEdges"/>
<path d="M118.319 110.509C119.97 111.539 121.308 113.002 122.187 114.738C123.195 116.774 123.532 119.078 123.15 121.317C122.768 123.557 121.686 125.618 120.06 127.205C118.434 128.792 116.347 129.823 114.099 130.151C111.85 130.478 109.556 130.086 107.545 129.028C105.533 127.971 103.908 126.305 102.903 124.267C101.898 122.229 101.564 119.926 101.948 117.687C102.333 115.447 103.417 113.387 105.045 111.802C106.673 110.217 108.761 109.189 111.01 108.864C113.564 108.532 116.153 109.115 118.319 110.509Z" stroke="#0D6EFD" stroke-opacity="0.3" stroke-width="0.620962" shape-rendering="crispEdges"/>
</g>
<defs>
<filter id="filter0_d_6603_13050" x="164.875" y="0.282906" width="146.82" height="146.801" filterUnits="userSpaceOnUse" color-interpolation-filters="sRGB">
<feFlood flood-opacity="0" result="BackgroundImageFix"/>
<feColorMatrix in="SourceAlpha" type="matrix" values="0 0 0 0 0 0 0 0 0 0 0 0 0 0 0 0 0 0 127 0" result="hardAlpha"/>
<feOffset/>
<feGaussianBlur stdDeviation="31.0481"/>
<feComposite in2="hardAlpha" operator="out"/>
<feColorMatrix type="matrix" values="0 0 0 0 0.0509804 0 0 0 0 0.431373 0 0 0 0 0.992157 0 0 0 1 0"/>
<feBlend mode="normal" in2="BackgroundImageFix" result="effect1_dropShadow_6603_13050"/>
<feBlend mode="normal" in="SourceGraphic" in2="effect1_dropShadow_6603_13050" result="shape"/>
</filter>
<filter id="filter1_d_6603_13050" x="116.499" y="128.144" width="146.926" height="146.777" filterUnits="userSpaceOnUse" color-interpolation-filters="sRGB">
<feFlood flood-opacity="0" result="BackgroundImageFix"/>
<feColorMatrix in="SourceAlpha" type="matrix" values="0 0 0 0 0 0 0 0 0 0 0 0 0 0 0 0 0 0 127 0" result="hardAlpha"/>
<feOffset/>
<feGaussianBlur stdDeviation="31.0481"/>
<feComposite in2="hardAlpha" operator="out"/>
<feColorMatrix type="matrix" values="0 0 0 0 0.0509804 0 0 0 0 0.431373 0 0 0 0 0.992157 0 0 0 1 0"/>
<feBlend mode="normal" in2="BackgroundImageFix" result="effect1_dropShadow_6603_13050"/>
<feBlend mode="normal" in="SourceGraphic" in2="effect1_dropShadow_6603_13050" result="shape"/>
</filter>
<filter id="filter2_d_6603_13050" x="-8.70757" y="174.118" width="146.719" height="146.731" filterUnits="userSpaceOnUse" color-interpolation-filters="sRGB">
<feFlood flood-opacity="0" result="BackgroundImageFix"/>
<feColorMatrix in="SourceAlpha" type="matrix" values="0 0 0 0 0 0 0 0 0 0 0 0 0 0 0 0 0 0 127 0" result="hardAlpha"/>
<feOffset/>
<feGaussianBlur stdDeviation="31.0481"/>
<feComposite in2="hardAlpha" operator="out"/>
<feColorMatrix type="matrix" values="0 0 0 0 0.0509804 0 0 0 0 0.431373 0 0 0 0 0.992157 0 0 0 1 0"/>
<feBlend mode="normal" in2="BackgroundImageFix" result="effect1_dropShadow_6603_13050"/>
<feBlend mode="normal" in="SourceGraphic" in2="effect1_dropShadow_6603_13050" result="shape"/>
</filter>
<filter id="filter3_d_6603_13050" x="39.3862" y="46.3659" width="146.323" height="146.304" filterUnits="userSpaceOnUse" color-interpolation-filters="sRGB">
<feFlood flood-opacity="0" result="BackgroundImageFix"/>
<feColorMatrix in="SourceAlpha" type="matrix" values="0 0 0 0 0 0 0 0 0 0 0 0 0 0 0 0 0 0 127 0" result="hardAlpha"/>
<feOffset/>
<feGaussianBlur stdDeviation="31.0481"/>
<feComposite in2="hardAlpha" operator="out"/>
<feColorMatrix type="matrix" values="0 0 0 0 0.0509804 0 0 0 0 0.431373 0 0 0 0 0.992157 0 0 0 1 0"/>
<feBlend mode="normal" in2="BackgroundImageFix" result="effect1_dropShadow_6603_13050"/>
<feBlend mode="normal" in="SourceGraphic" in2="effect1_dropShadow_6603_13050" result="shape"/>
</filter>
</defs>
</svg>
