<svg width="517" height="517" viewBox="0 0 517 517" fill="none" xmlns="http://www.w3.org/2000/svg">
<path d="M246.582 53.1192C216.992 55.1192 186.582 63.5692 161.922 76.8392C151.632 82.3092 138.772 90.7492 137.722 92.7592C136.112 95.6492 136.722 99.9892 138.852 102.079C142.062 105.379 145.922 105.079 152.032 100.879C167.283 90.8484 183.806 82.8982 201.162 77.2392C209.842 74.5092 225.272 70.8892 225.842 71.4492C226.002 71.6092 224.392 74.1892 222.382 77.2392C211.772 93.0792 201.162 121.239 195.452 148.709C194.452 153.539 193.362 157.959 192.952 158.439C192.542 158.919 190.862 159.569 189.182 159.809C180.492 160.939 170.122 168.809 165.782 177.499C164.492 180.149 163.372 182.799 163.372 183.449C163.372 184.329 156.212 184.449 123.172 184.449H82.9915L87.9015 174.719C90.5515 169.339 94.7315 161.779 97.1415 157.919C102.212 149.719 102.772 146.259 99.5515 143.049C95.4515 138.949 89.9015 140.049 86.2115 145.699C69.7315 170.859 58.6315 201.169 54.3715 232.699C52.7415 244.789 52.5015 269.629 53.9915 281.369C58.0915 315.459 69.2615 345.689 87.9915 373.669L91.1215 378.249L88.7115 383.309C81.9615 396.899 84.6115 412.179 95.4615 422.389C106.072 432.439 120.222 434.529 133.462 428.019L138.522 425.599L142.992 428.739C170.58 447.316 202.235 458.978 235.282 462.739C248.392 464.349 273.472 463.939 287.142 461.929C320.342 456.929 349.292 445.529 375.662 427.039C416.414 398.645 445.524 356.472 457.622 308.299C464.765 279.062 465.573 248.635 459.992 219.059C454.982 193.823 445.346 169.73 431.572 147.999L425.462 138.509L427.882 133.509C434.552 119.999 431.882 104.729 421.042 94.5092C410.512 84.5092 396.281 82.3692 383.172 88.7992L378.172 91.2092L368.682 85.0992C343.042 68.6992 311.842 57.5192 282.342 54.3092C273.352 53.3592 253.412 52.7192 246.582 53.1192Z" fill="#0D2B40" stroke="#264154"/>
<path d="M266.122 70.799C266.966 71.223 267.784 71.6972 268.572 72.219C272.118 74.7457 275.223 77.8407 277.762 81.379C288.122 94.999 294.382 111.189 299.312 127.529C304.931 146.16 308.992 165.225 311.452 184.529C311.452 183.999 236.982 185.009 230.252 184.309C227.542 184.029 227.382 182.169 226.342 179.919C222.744 172.083 216.64 165.669 208.992 161.689C211.95 142.797 217.174 124.331 224.552 106.689C229.112 95.799 234.612 85.059 242.892 76.689C246.562 72.949 251.032 69.579 256.232 68.959C259.637 68.5947 263.075 69.2343 266.122 70.799Z" fill="#002036" stroke="#264154"/>
<path d="M303.992 74.0692C327.014 79.8658 348.787 89.8118 368.242 103.419C362.072 115.929 364.782 132.239 374.652 142.099C379.702 146.949 386.106 150.151 393.016 151.283C399.926 152.416 407.017 151.424 413.352 148.439C421.064 159.858 427.778 171.919 433.422 184.489H330.682C327.832 184.489 327.522 184.849 327.012 182.059C321.312 150.679 315.842 119.359 301.612 90.4692C299.932 87.0692 298.162 83.7292 296.262 80.4692C295.582 79.2892 291.662 71.1992 290.482 71.1992C295.022 71.9926 299.525 72.9492 303.992 74.0692Z" fill="#002036" stroke="#264154"/>
<g filter="url(#filter0_d_6598_10547)">
<path d="M407.612 103.669C409.715 105.042 411.512 106.836 412.889 108.937C414.265 111.039 415.192 113.402 415.612 115.879C416.025 118.643 415.778 121.466 414.892 124.117C414.006 126.767 412.506 129.171 410.513 131.131C408.521 133.091 406.093 134.552 403.428 135.394C400.763 136.237 397.937 136.437 395.18 135.979C392.423 135.52 389.813 134.416 387.565 132.757C385.316 131.097 383.491 128.929 382.24 126.43C380.989 123.931 380.347 121.171 380.367 118.376C380.386 115.581 381.066 112.831 382.351 110.349C384.129 107.071 386.87 104.418 390.203 102.746C393.536 101.074 397.301 100.464 400.992 100.999C403.36 101.418 405.615 102.328 407.612 103.669Z" fill="#0D6EFD"/>
<path d="M407.612 103.669C409.715 105.042 411.512 106.836 412.889 108.937C414.265 111.039 415.192 113.402 415.612 115.879C416.025 118.643 415.778 121.466 414.892 124.117C414.006 126.767 412.506 129.171 410.513 131.131C408.521 133.091 406.093 134.552 403.428 135.394C400.763 136.237 397.937 136.437 395.18 135.979C392.423 135.52 389.813 134.416 387.565 132.757C385.316 131.097 383.491 128.929 382.24 126.43C380.989 123.931 380.347 121.171 380.367 118.376C380.386 115.581 381.066 112.831 382.351 110.349C384.129 107.071 386.87 104.418 390.203 102.746C393.536 101.074 397.301 100.464 400.992 100.999C403.36 101.418 405.615 102.328 407.612 103.669Z" stroke="#264154"/>
</g>
<path d="M163.372 201.62C163.953 203.686 164.761 205.681 165.782 207.57C168.782 213.43 175.432 220.03 181.222 222.68L185.482 224.61L184.832 238.92C184.032 258.3 185.402 301.79 187.172 313.29L187.652 316.29H77.3415L76.6215 314.44C75.3315 311.15 71.8015 295.95 70.5115 288.15C67.6115 271.43 68.1015 241.52 71.3915 223.84C72.6015 217.84 76.4615 202.29 77.1015 201.08C77.2615 200.76 96.8015 200.52 120.442 200.52C155.812 200.57 163.372 200.73 163.372 201.62Z" fill="#002036" stroke="#264154"/>
<path d="M313.992 206.36C315.992 229.03 316.892 273.89 315.602 286.36L315.042 291.18L311.182 292.18C306.182 293.47 298.722 298.29 295.022 302.64C292.966 305.305 291.212 308.189 289.792 311.24L287.622 316.38H202.992L202.432 310.11C200.822 291.22 200.432 280.77 200.342 259.22C200.342 246.12 200.582 233.22 200.822 230.6L201.392 225.7L204.682 224.7C209.93 223.171 214.712 220.352 218.592 216.5C222.452 212.72 227.682 204.36 227.682 201.63C227.682 200.74 235.232 200.58 270.612 200.58H313.462L313.992 206.36Z" fill="#002036" stroke="#264154"/>
<path d="M439.862 202.418C441.222 205.958 444.862 221.548 446.132 229.668C447.132 235.948 447.492 243.018 447.572 258.458C447.572 280.808 446.572 289.248 441.702 307.458L439.452 315.898L396.282 316.138C355.682 316.298 353.032 316.218 352.622 314.938C349.732 306.248 342.902 298.128 335.422 294.438L331.002 292.338L331.642 278.338C332.442 259.038 331.082 214.898 329.312 203.488L328.832 200.488H439.132L439.862 202.418Z" fill="#002036" stroke="#264154"/>
<g filter="url(#filter1_d_6598_10547)">
<path d="M327.222 307.999C330.446 309.358 333.196 311.64 335.127 314.558C337.057 317.476 338.082 320.9 338.072 324.399C338.072 334.529 330.272 342.089 319.902 342.089C310.742 342.089 302.462 333.729 302.462 324.399C302.462 315.069 310.742 306.719 319.902 306.719C322.396 306.731 324.871 307.163 327.222 307.999Z" fill="#0D6EFD"/>
<path d="M327.222 307.999C330.446 309.358 333.196 311.64 335.127 314.558C337.057 317.476 338.082 320.9 338.072 324.399C338.072 334.529 330.272 342.089 319.902 342.089C310.742 342.089 302.462 333.729 302.462 324.399C302.462 315.069 310.742 306.719 319.902 306.719C322.396 306.731 324.871 307.163 327.222 307.999Z" stroke="#264154"/>
</g>
<path d="M189.422 334.189C189.661 335.239 190.542 340.949 191.512 346.889C197.222 384.439 209.362 420.618 222.782 440.559C224.552 443.129 225.922 445.459 225.782 445.559C225.211 446.209 206.782 441.618 198.042 438.648C182.629 433.531 167.951 426.42 154.382 417.499L148.192 413.559L149.482 410.669C154.482 398.609 151.092 383.578 141.282 374.328C131.712 365.248 117.642 362.429 106.062 367.249L103.172 368.539L99.2315 362.349C94.2387 354.648 89.7525 346.632 85.8015 338.349L83.0715 332.479H189.102L189.422 334.189Z" fill="#002036" stroke="#264154"/>
<path d="M289.912 337.65C292.647 343.991 297.284 349.327 303.182 352.92C305.752 354.45 307.282 355.92 307.282 356.86C307.282 359.44 303.342 376.24 300.042 387.41C290.992 418.53 277.772 441 265.232 446.59C246.502 455.11 225.762 426.49 212.892 374.23C210.162 362.97 206.702 345.45 205.502 336.6L204.932 332.42H287.662L289.912 337.65Z" fill="#002036" stroke="#264154"/>
<path d="M432.702 333.23C432.702 334.59 424.702 350.11 420.082 357.75C406.492 379.94 384.542 402.61 362.432 417.16C350.982 424.474 338.869 430.692 326.252 435.73C315.562 439.83 290.402 446.67 290.402 445.46C290.402 445.3 292.082 442.73 294.092 439.67C305.992 421.91 314.032 399.67 322.962 359.28C323.282 357.91 324.162 357.43 326.962 357.1C332.182 356.38 339.902 352.2 344.322 347.62C347.979 343.61 350.795 338.908 352.602 333.79C353.012 332.5 355.662 332.42 392.882 332.42C419.352 332.42 432.702 332.66 432.702 333.23Z" fill="#002036" stroke="#264154"/>
<g filter="url(#filter2_d_6598_10547)">
<path d="M127.752 383.57C129.737 384.79 131.459 386.394 132.817 388.287C134.175 390.181 135.143 392.326 135.663 394.597C136.183 396.868 136.245 399.221 135.846 401.517C135.446 403.812 134.594 406.005 133.338 407.968C132.081 409.931 130.446 411.623 128.529 412.947C126.611 414.27 124.449 415.199 122.168 415.677C119.888 416.156 117.534 416.176 115.246 415.735C112.958 415.294 110.781 414.401 108.842 413.11C106.284 411.441 104.203 409.137 102.801 406.424C101.399 403.711 100.724 400.681 100.842 397.63C100.896 395.159 101.487 392.73 102.572 390.51C104.272 387.226 106.94 384.543 110.215 382.825C113.49 381.106 117.213 380.434 120.882 380.9C123.338 381.28 125.683 382.191 127.752 383.57Z" fill="#0D6EFD"/>
<path d="M127.752 383.57C129.737 384.79 131.459 386.394 132.817 388.287C134.175 390.181 135.143 392.326 135.663 394.597C136.183 396.868 136.245 399.221 135.846 401.517C135.446 403.812 134.594 406.005 133.338 407.968C132.081 409.931 130.446 411.623 128.529 412.947C126.611 414.27 124.449 415.199 122.168 415.677C119.888 416.156 117.534 416.176 115.246 415.735C112.958 415.294 110.781 414.401 108.842 413.11C106.284 411.441 104.203 409.137 102.801 406.424C101.399 403.711 100.724 400.681 100.842 397.63C100.896 395.159 101.487 392.73 102.572 390.51C104.272 387.226 106.94 384.543 110.215 382.825C113.49 381.106 117.213 380.434 120.882 380.9C123.338 381.28 125.683 382.191 127.752 383.57Z" stroke="#264154"/>
</g>
<g filter="url(#filter3_d_6598_10547)">
<path d="M204.892 177.82C207.551 179.479 209.705 181.834 211.122 184.63C212.744 187.909 213.287 191.618 212.672 195.225C212.056 198.832 210.314 202.151 207.695 204.707C205.077 207.263 201.716 208.923 198.095 209.451C194.475 209.978 190.78 209.346 187.541 207.643C184.302 205.941 181.685 203.257 180.066 199.976C178.447 196.694 177.909 192.984 178.529 189.378C179.148 185.772 180.894 182.455 183.516 179.902C186.137 177.35 189.5 175.693 193.122 175.17C197.235 174.635 201.404 175.574 204.892 177.82Z" fill="#0D6EFD"/>
<path d="M204.892 177.82C207.551 179.479 209.705 181.834 211.122 184.63C212.744 187.909 213.287 191.618 212.672 195.225C212.056 198.832 210.314 202.151 207.695 204.707C205.077 207.263 201.716 208.923 198.095 209.451C194.475 209.978 190.78 209.346 187.541 207.643C184.302 205.941 181.685 203.257 180.066 199.976C178.447 196.694 177.909 192.984 178.529 189.378C179.148 185.772 180.894 182.455 183.516 179.902C186.137 177.35 189.5 175.693 193.122 175.17C197.235 174.635 201.404 175.574 204.892 177.82Z" stroke="#264154"/>
</g>
<defs>
<filter id="filter0_d_6598_10547" x="279.866" y="0.310547" width="236.44" height="236.408" filterUnits="userSpaceOnUse" color-interpolation-filters="sRGB">
<feFlood flood-opacity="0" result="BackgroundImageFix"/>
<feColorMatrix in="SourceAlpha" type="matrix" values="0 0 0 0 0 0 0 0 0 0 0 0 0 0 0 0 0 0 127 0" result="hardAlpha"/>
<feOffset/>
<feGaussianBlur stdDeviation="50"/>
<feComposite in2="hardAlpha" operator="out"/>
<feColorMatrix type="matrix" values="0 0 0 0 0.0509804 0 0 0 0 0.431373 0 0 0 0 0.992157 0 0 0 1 0"/>
<feBlend mode="normal" in2="BackgroundImageFix" result="effect1_dropShadow_6598_10547"/>
<feBlend mode="normal" in="SourceGraphic" in2="effect1_dropShadow_6598_10547" result="shape"/>
</filter>
<filter id="filter1_d_6598_10547" x="201.962" y="206.219" width="236.61" height="236.369" filterUnits="userSpaceOnUse" color-interpolation-filters="sRGB">
<feFlood flood-opacity="0" result="BackgroundImageFix"/>
<feColorMatrix in="SourceAlpha" type="matrix" values="0 0 0 0 0 0 0 0 0 0 0 0 0 0 0 0 0 0 127 0" result="hardAlpha"/>
<feOffset/>
<feGaussianBlur stdDeviation="50"/>
<feComposite in2="hardAlpha" operator="out"/>
<feColorMatrix type="matrix" values="0 0 0 0 0.0509804 0 0 0 0 0.431373 0 0 0 0 0.992157 0 0 0 1 0"/>
<feBlend mode="normal" in2="BackgroundImageFix" result="effect1_dropShadow_6598_10547"/>
<feBlend mode="normal" in="SourceGraphic" in2="effect1_dropShadow_6598_10547" result="shape"/>
</filter>
<filter id="filter2_d_6598_10547" x="0.328331" y="280.256" width="236.277" height="236.295" filterUnits="userSpaceOnUse" color-interpolation-filters="sRGB">
<feFlood flood-opacity="0" result="BackgroundImageFix"/>
<feColorMatrix in="SourceAlpha" type="matrix" values="0 0 0 0 0 0 0 0 0 0 0 0 0 0 0 0 0 0 127 0" result="hardAlpha"/>
<feOffset/>
<feGaussianBlur stdDeviation="50"/>
<feComposite in2="hardAlpha" operator="out"/>
<feColorMatrix type="matrix" values="0 0 0 0 0.0509804 0 0 0 0 0.431373 0 0 0 0 0.992157 0 0 0 1 0"/>
<feBlend mode="normal" in2="BackgroundImageFix" result="effect1_dropShadow_6598_10547"/>
<feBlend mode="normal" in="SourceGraphic" in2="effect1_dropShadow_6598_10547" result="shape"/>
</filter>
<filter id="filter3_d_6598_10547" x="77.7783" y="74.5234" width="235.64" height="235.609" filterUnits="userSpaceOnUse" color-interpolation-filters="sRGB">
<feFlood flood-opacity="0" result="BackgroundImageFix"/>
<feColorMatrix in="SourceAlpha" type="matrix" values="0 0 0 0 0 0 0 0 0 0 0 0 0 0 0 0 0 0 127 0" result="hardAlpha"/>
<feOffset/>
<feGaussianBlur stdDeviation="50"/>
<feComposite in2="hardAlpha" operator="out"/>
<feColorMatrix type="matrix" values="0 0 0 0 0.0509804 0 0 0 0 0.431373 0 0 0 0 0.992157 0 0 0 1 0"/>
<feBlend mode="normal" in2="BackgroundImageFix" result="effect1_dropShadow_6598_10547"/>
<feBlend mode="normal" in="SourceGraphic" in2="effect1_dropShadow_6598_10547" result="shape"/>
</filter>
</defs>
</svg>
