<svg width="155" height="100" viewBox="0 0 155 100" fill="none" xmlns="http://www.w3.org/2000/svg">
<g filter="url(#filter0_b_6598_10593)">
<path d="M0.209961 0.740234L11.938 3.08584C12.6193 3.22211 13.3124 3.29074 14.0072 3.29074H143.987C149.814 3.29074 154.538 8.01458 154.538 13.8417V89.4492C154.538 95.2764 149.814 100 143.987 100H13.3114C7.4843 100 2.76046 95.2764 2.76046 89.4492V15.1263C2.76046 14.4638 2.69807 13.8028 2.57412 13.1521L0.209961 0.740234Z" fill="#052034" fill-opacity="0.25"/>
<path d="M2.82955 13.1034L0.537651 1.07094L11.887 3.34082C12.5851 3.48044 13.2953 3.55076 14.0072 3.55076H143.987C149.67 3.55076 154.278 8.15818 154.278 13.8417V89.4492C154.278 95.1328 149.67 99.7402 143.987 99.7402H13.3114C7.62791 99.7402 3.02049 95.1328 3.02049 89.4492V15.1263C3.02049 14.4475 2.95656 13.7702 2.82955 13.1034Z" stroke="#0D6EFD" stroke-opacity="0.5" stroke-width="0.520045"/>
</g>
<path opacity="0.75" d="M73.6202 63.6369L71.7563 67.1899V69.4531H71.1739V67.1899L69.2934 63.6369H69.9507L71.4651 66.6574L72.9712 63.6369H73.6202ZM74.7639 64.053C74.6474 64.053 74.5476 64.0114 74.4643 63.9282C74.3811 63.845 74.3395 63.7423 74.3395 63.6203C74.3395 63.4983 74.3811 63.3984 74.4643 63.3207C74.5476 63.2375 74.6474 63.1959 74.7639 63.1959C74.8804 63.1959 74.9802 63.2375 75.0634 63.3207C75.1466 63.3984 75.1883 63.4983 75.1883 63.6203C75.1883 63.7423 75.1466 63.845 75.0634 63.9282C74.9802 64.0114 74.8804 64.053 74.7639 64.053ZM75.0551 64.91V69.4531H74.4727V64.91H75.0551ZM80.4845 66.9486C80.4845 67.1483 80.479 67.3008 80.4679 67.4062H76.6986C76.7152 67.7501 76.7984 68.0441 76.9482 68.2882C77.098 68.5323 77.2949 68.7181 77.539 68.8457C77.7831 68.9677 78.0493 69.0288 78.3378 69.0288C78.715 69.0288 79.0312 68.9372 79.2863 68.7542C79.5471 68.5711 79.719 68.3243 79.8022 68.0136H80.418C80.307 68.4574 80.0685 68.8207 79.7024 69.1037C79.3418 69.381 78.8869 69.5197 78.3378 69.5197C77.9106 69.5197 77.5279 69.4254 77.1895 69.2368C76.8511 69.0426 76.5849 68.7708 76.3907 68.4214C76.2021 68.0663 76.1078 67.6531 76.1078 67.1816C76.1078 66.7101 76.2021 66.2968 76.3907 65.9418C76.5793 65.5868 76.8428 65.315 77.1812 65.1263C77.5196 64.9377 77.9051 64.8434 78.3378 64.8434C78.7705 64.8434 79.1477 64.9377 79.4694 65.1263C79.7967 65.315 80.0463 65.5701 80.2183 65.8919C80.3958 66.208 80.4845 66.5603 80.4845 66.9486ZM79.8938 66.9319C79.8993 66.5936 79.83 66.3051 79.6857 66.0666C79.5471 65.8281 79.3557 65.6478 79.1116 65.5257C78.8675 65.4037 78.6013 65.3427 78.3128 65.3427C77.8801 65.3427 77.5113 65.4814 77.2062 65.7587C76.9011 66.0361 76.7319 66.4272 76.6986 66.9319H79.8938ZM82.1326 63.2958V69.4531H81.5502V63.2958H82.1326ZM83.1853 67.1732C83.1853 66.7073 83.2796 66.2996 83.4682 65.9501C83.6568 65.5951 83.9148 65.3233 84.242 65.1347C84.5749 64.9405 84.9493 64.8434 85.3653 64.8434C85.7647 64.8434 86.1253 64.9405 86.447 65.1347C86.7688 65.3288 87.0045 65.5812 87.1543 65.8919V63.2958H87.7368V69.4531H87.1543V68.438C87.0156 68.7542 86.7882 69.0149 86.472 69.2201C86.1558 69.4198 85.7842 69.5197 85.357 69.5197C84.941 69.5197 84.5666 69.4226 84.2337 69.2285C83.9064 69.0343 83.6485 68.7597 83.4599 68.4047C83.2768 68.0497 83.1853 67.6392 83.1853 67.1732ZM87.1543 67.1816C87.1543 66.8155 87.0794 66.4937 86.9296 66.2164C86.7799 65.939 86.5746 65.7254 86.3139 65.5757C86.0587 65.4259 85.7758 65.351 85.4652 65.351C85.1435 65.351 84.855 65.4231 84.5998 65.5673C84.3447 65.7116 84.1422 65.9224 83.9924 66.1997C83.8482 66.4715 83.7761 66.796 83.7761 67.1732C83.7761 67.5449 83.8482 67.8722 83.9924 68.1551C84.1422 68.4324 84.3447 68.646 84.5998 68.7958C84.855 68.94 85.1435 69.0121 85.4652 69.0121C85.7758 69.0121 86.0587 68.9372 86.3139 68.7875C86.5746 68.6377 86.7799 68.4241 86.9296 68.1468C87.0794 67.8694 87.1543 67.5477 87.1543 67.1816Z" fill="#CCD2D7"/>
<path d="M69.6346 80.7574V78.879H73.1438V89.4941H71.047V80.7574H69.6346ZM75.7984 87.1935C76.7303 86.4169 77.473 85.7713 78.0263 85.2568C78.5796 84.7326 79.0407 84.189 79.4096 83.6259C79.7785 83.0629 79.9629 82.5096 79.9629 81.966C79.9629 81.4709 79.8464 81.0826 79.6135 80.8011C79.3805 80.5195 79.0213 80.3788 78.5359 80.3788C78.0506 80.3788 77.6768 80.5438 77.4147 80.8739C77.1526 81.1942 77.0167 81.6359 77.007 82.1989H75.0267C75.0655 81.034 75.4101 80.1507 76.0605 79.5488C76.7206 78.9469 77.5555 78.646 78.5651 78.646C79.6717 78.646 80.5211 78.9421 81.1133 79.5342C81.7054 80.1167 82.0015 80.8884 82.0015 81.8495C82.0015 82.6067 81.7977 83.3299 81.3899 84.0191C80.9822 84.7083 80.5163 85.3102 79.9921 85.8247C79.4679 86.3295 78.7835 86.9411 77.9389 87.6594H82.2345V89.3485H75.0412V87.8342L75.7984 87.1935ZM84.6548 89.5961C84.286 89.5961 83.9802 89.4844 83.7375 89.2612C83.5045 89.0282 83.388 88.7418 83.388 88.402C83.388 88.0623 83.5045 87.7808 83.7375 87.5575C83.9802 87.3245 84.286 87.208 84.6548 87.208C85.014 87.208 85.3101 87.3245 85.5431 87.5575C85.7761 87.7808 85.8926 88.0623 85.8926 88.402C85.8926 88.7418 85.7761 89.0282 85.5431 89.2612C85.3101 89.4844 85.014 89.5961 84.6548 89.5961ZM94.4366 80.6409H89.7188V83.1309C89.9226 82.8785 90.2138 82.6746 90.5924 82.5193C90.971 82.3543 91.3739 82.2718 91.801 82.2718C92.5776 82.2718 93.2135 82.4416 93.7085 82.7814C94.2036 83.1212 94.5628 83.558 94.7861 84.0919C95.0094 84.6161 95.121 85.1792 95.121 85.781C95.121 86.8974 94.8006 87.7953 94.1599 88.4749C93.529 89.1544 92.6262 89.4941 91.4516 89.4941C90.3449 89.4941 89.4615 89.2175 88.8014 88.6641C88.1413 88.1108 87.7675 87.3876 87.6802 86.4945H89.6605C89.7479 86.8828 89.942 87.1935 90.243 87.4264C90.5536 87.6594 90.9468 87.7759 91.4224 87.7759C91.9952 87.7759 92.4272 87.5963 92.7184 87.2371C93.0096 86.878 93.1552 86.4023 93.1552 85.8101C93.1552 85.2083 93.0048 84.752 92.7038 84.4414C92.4126 84.121 91.9806 83.9609 91.4079 83.9609C91.0002 83.9609 90.6604 84.0628 90.3886 84.2666C90.1168 84.4705 89.9226 84.7423 89.8061 85.0821H87.8549V78.8499H94.4366V80.6409ZM96.4396 81.4854C96.4396 80.7477 96.6531 80.1701 97.0803 79.7527C97.5171 79.3352 98.0753 79.1265 98.7548 79.1265C99.4343 79.1265 99.9877 79.3352 100.415 79.7527C100.852 80.1701 101.07 80.7477 101.07 81.4854C101.07 82.2329 100.852 82.8154 100.415 83.2328C99.9877 83.6502 99.4343 83.8589 98.7548 83.8589C98.0753 83.8589 97.5171 83.6502 97.0803 83.2328C96.6531 82.8154 96.4396 82.2329 96.4396 81.4854ZM105.788 79.3013L100.065 89.4941H98.085L103.793 79.3013H105.788ZM98.7403 80.3497C98.2063 80.3497 97.9394 80.7283 97.9394 81.4854C97.9394 82.2523 98.2063 82.6358 98.7403 82.6358C99.0024 82.6358 99.2062 82.5436 99.3518 82.3591C99.4974 82.165 99.5703 81.8737 99.5703 81.4854C99.5703 80.7283 99.2936 80.3497 98.7403 80.3497ZM102.832 87.2954C102.832 86.5479 103.046 85.9703 103.473 85.5626C103.91 85.1452 104.468 84.9365 105.147 84.9365C105.827 84.9365 106.375 85.1452 106.793 85.5626C107.22 85.9703 107.433 86.5479 107.433 87.2954C107.433 88.0429 107.22 88.6253 106.793 89.0427C106.375 89.4602 105.827 89.6689 105.147 89.6689C104.458 89.6689 103.9 89.4602 103.473 89.0427C103.046 88.6253 102.832 88.0429 102.832 87.2954ZM105.133 86.1596C104.579 86.1596 104.303 86.5382 104.303 87.2954C104.303 88.0623 104.579 88.4457 105.133 88.4457C105.676 88.4457 105.948 88.0623 105.948 87.2954C105.948 86.5382 105.676 86.1596 105.133 86.1596Z" fill="#0D6EFD"/>
<path opacity="0.75" d="M17.8091 63.3127V66.9738C17.8091 67.5507 17.945 67.9779 18.2168 68.2552C18.4942 68.5326 18.8714 68.6713 19.3484 68.6713C19.8255 68.6713 20.1971 68.5354 20.4634 68.2636C20.7352 67.9862 20.8711 67.5563 20.8711 66.9738V63.3127H21.4536V66.9655C21.4536 67.7033 21.2566 68.258 20.8628 68.6297C20.4745 69.0013 19.9669 69.1872 19.3401 69.1872C18.7133 69.1872 18.2029 69.0013 17.8091 68.6297C17.4208 68.258 17.2266 67.7033 17.2266 66.9655V63.3127H17.8091ZM24.8828 64.5026C25.4264 64.5026 25.8702 64.6718 26.2141 65.0101C26.558 65.343 26.73 65.8284 26.73 66.4663V69.1289H26.1559V66.5328C26.1559 66.0391 26.0311 65.6619 25.7814 65.4012C25.5374 65.1405 25.2018 65.0101 24.7746 65.0101C24.3364 65.0101 23.9869 65.1488 23.7262 65.4262C23.4655 65.7035 23.3352 66.1113 23.3352 66.6493V69.1289H22.7527V64.5858H23.3352V65.3596C23.4794 65.0823 23.6874 64.8715 23.9592 64.7272C24.231 64.5775 24.5389 64.5026 24.8828 64.5026ZM28.3094 63.7288C28.1929 63.7288 28.093 63.6872 28.0098 63.6039C27.9266 63.5207 27.885 63.4181 27.885 63.2961C27.885 63.174 27.9266 63.0742 28.0098 62.9965C28.093 62.9133 28.1929 62.8717 28.3094 62.8717C28.4259 62.8717 28.5257 62.9133 28.6089 62.9965C28.6921 63.0742 28.7337 63.174 28.7337 63.2961C28.7337 63.4181 28.6921 63.5207 28.6089 63.6039C28.5257 63.6872 28.4259 63.7288 28.3094 63.7288ZM28.6006 64.5858V69.1289H28.0182V64.5858H28.6006ZM30.6768 65.0767V67.8974C30.6768 68.1748 30.7295 68.3662 30.8349 68.4716C30.9403 68.577 31.1261 68.6297 31.3923 68.6297H31.9249V69.1289H31.3008C30.8903 69.1289 30.5852 69.0346 30.3855 68.846C30.1858 68.6519 30.086 68.3357 30.086 67.8974V65.0767H29.4536V64.5858H30.086V63.4459H30.6768V64.5858H31.9249V65.0767H30.6768ZM35.7429 65.5843C35.8871 65.2792 36.1146 65.0268 36.4252 64.8271C36.7414 64.6218 37.1158 64.5192 37.5485 64.5192C37.959 64.5192 38.3279 64.6163 38.6552 64.8104C38.988 64.9991 39.2459 65.2709 39.429 65.6259C39.6176 65.9754 39.7119 66.3831 39.7119 66.849C39.7119 67.315 39.6176 67.7255 39.429 68.0805C39.2459 68.4355 38.988 68.7101 38.6552 68.9042C38.3279 69.0984 37.959 69.1955 37.5485 69.1955C37.1214 69.1955 36.7497 69.0956 36.4335 68.8959C36.1173 68.6907 35.8871 68.4355 35.7429 68.1304V71.2757H35.1688V64.5858H35.7429V65.5843ZM39.1211 66.849C39.1211 66.4718 39.0462 66.1473 38.8965 65.8755C38.7522 65.5981 38.5525 65.3874 38.2974 65.2431C38.0422 65.0989 37.7538 65.0268 37.432 65.0268C37.1214 65.0268 36.8357 65.1017 36.575 65.2514C36.3198 65.4012 36.1173 65.6148 35.9676 65.8921C35.8178 66.1695 35.7429 66.4912 35.7429 66.8573C35.7429 67.2235 35.8178 67.5452 35.9676 67.8226C36.1173 68.0999 36.3198 68.3135 36.575 68.4632C36.8357 68.613 37.1214 68.6879 37.432 68.6879C37.7538 68.6879 38.0422 68.6158 38.2974 68.4716C38.5525 68.3218 38.7522 68.1082 38.8965 67.8309C39.0462 67.548 39.1211 67.2207 39.1211 66.849ZM41.3661 65.3929C41.4937 65.11 41.6878 64.8909 41.9485 64.7356C42.2148 64.5802 42.5393 64.5026 42.9221 64.5026V65.11H42.764C42.3424 65.11 42.004 65.2237 41.7489 65.4511C41.4937 65.6786 41.3661 66.0586 41.3661 66.5911V69.1289H40.7836V64.5858H41.3661V65.3929ZM44.0895 63.7288C43.973 63.7288 43.8732 63.6872 43.79 63.6039C43.7068 63.5207 43.6652 63.4181 43.6652 63.2961C43.6652 63.174 43.7068 63.0742 43.79 62.9965C43.8732 62.9133 43.973 62.8717 44.0895 62.8717C44.206 62.8717 44.3058 62.9133 44.3891 62.9965C44.4723 63.0742 44.5139 63.174 44.5139 63.2961C44.5139 63.4181 44.4723 63.5207 44.3891 63.6039C44.3058 63.6872 44.206 63.7288 44.0895 63.7288ZM44.3807 64.5858V69.1289H43.7983V64.5858H44.3807ZM45.4334 66.8573C45.4334 66.3858 45.5277 65.9754 45.7163 65.6259C45.9049 65.2709 46.1657 64.9991 46.4985 64.8104C46.8313 64.6163 47.2113 64.5192 47.6384 64.5192C48.1987 64.5192 48.6591 64.6579 49.0197 64.9353C49.3858 65.2126 49.6215 65.5898 49.7269 66.0669H49.1029C49.0252 65.7396 48.856 65.4844 48.5953 65.3014C48.3401 65.1128 48.0212 65.0185 47.6384 65.0185C47.3333 65.0185 47.0588 65.0878 46.8147 65.2265C46.5706 65.3652 46.3765 65.5732 46.2322 65.8505C46.0935 66.1224 46.0242 66.458 46.0242 66.8573C46.0242 67.2567 46.0935 67.5951 46.2322 67.8725C46.3765 68.1498 46.5706 68.3579 46.8147 68.4965C47.0588 68.6352 47.3333 68.7045 47.6384 68.7045C48.0212 68.7045 48.3401 68.613 48.5953 68.43C48.856 68.2414 49.0252 67.9806 49.1029 67.6478H49.7269C49.6215 68.1138 49.3858 68.4882 49.0197 68.7711C48.6536 69.054 48.1931 69.1955 47.6384 69.1955C47.2113 69.1955 46.8313 69.1012 46.4985 68.9126C46.1657 68.7184 45.9049 68.4466 45.7163 68.0971C45.5277 67.7421 45.4334 67.3289 45.4334 66.8573ZM54.9131 66.6244C54.9131 66.8241 54.9075 66.9766 54.8964 67.082H51.1272C51.1438 67.4259 51.227 67.7199 51.3768 67.964C51.5265 68.2081 51.7235 68.3939 51.9675 68.5215C52.2116 68.6435 52.4779 68.7045 52.7663 68.7045C53.1435 68.7045 53.4597 68.613 53.7149 68.43C53.9756 68.2469 54.1476 68.0001 54.2308 67.6894H54.8465C54.7356 68.1332 54.497 68.4965 54.1309 68.7794C53.7704 69.0568 53.3155 69.1955 52.7663 69.1955C52.3392 69.1955 51.9565 69.1012 51.6181 68.9126C51.2797 68.7184 51.0134 68.4466 50.8193 68.0971C50.6307 67.7421 50.5364 67.3289 50.5364 66.8573C50.5364 66.3858 50.6307 65.9726 50.8193 65.6176C51.0079 65.2625 51.2714 64.9907 51.6098 64.8021C51.9481 64.6135 52.3337 64.5192 52.7663 64.5192C53.199 64.5192 53.5762 64.6135 53.898 64.8021C54.2252 64.9907 54.4749 65.2459 54.6468 65.5676C54.8243 65.8838 54.9131 66.2361 54.9131 66.6244ZM54.3223 66.6077C54.3279 66.2694 54.2585 65.9809 54.1143 65.7424C53.9756 65.5038 53.7842 65.3236 53.5402 65.2015C53.2961 65.0795 53.0298 65.0185 52.7414 65.0185C52.3087 65.0185 51.9398 65.1571 51.6347 65.4345C51.3296 65.7119 51.1604 66.1029 51.1272 66.6077H54.3223Z" fill="#CCD2D7"/>
<path d="M24.216 83.3159C24.216 84.1508 23.9491 84.84 23.4152 85.3836C22.8813 85.9175 22.1678 86.2379 21.2747 86.3447V87.626H20.2991V86.3592C19.4836 86.301 18.7847 86.0728 18.2022 85.6748C17.6198 85.2768 17.2024 84.7381 16.95 84.0585L18.6828 83.0538C18.9934 83.8401 19.5322 84.2818 20.2991 84.3789V81.8598H20.2845L20.2554 81.8452C19.6632 81.6317 19.1342 81.3793 18.6682 81.088C17.8819 80.593 17.4596 79.8066 17.4014 78.7291C17.4014 77.8651 17.678 77.1808 18.2314 76.676C18.8138 76.1518 19.503 75.8557 20.2991 75.7877V74.5209H21.2747V75.8169C22.5949 75.9819 23.5268 76.6663 24.0704 77.87L22.3813 78.8602C22.1483 78.2777 21.7795 77.9234 21.2747 77.7972V80.2289C22.2163 80.6075 22.823 80.8939 23.0948 81.088C23.8423 81.6317 24.216 82.3743 24.216 83.3159ZM19.3963 78.7437C19.3963 78.9572 19.4642 79.1465 19.6001 79.3116C19.736 79.4669 19.969 79.6271 20.2991 79.7921V77.7535C19.6972 77.87 19.3963 78.2001 19.3963 78.7437ZM21.2747 82.2529V84.3498C21.8959 84.2236 22.2066 83.8838 22.2066 83.3305C22.2066 82.8936 21.8959 82.5345 21.2747 82.2529ZM24.7377 76.9235L27.417 75.977H29.1644V86.1699H27.1549V78.103L25.2328 78.6417L24.7377 76.9235ZM34.7955 86.3738C33.5238 86.3738 32.5239 85.8933 31.7959 84.9322C31.0775 83.9518 30.7183 82.6655 30.7183 81.0735C30.7183 79.4814 31.0775 78.2001 31.7959 77.2293C32.5239 76.2585 33.5238 75.7732 34.7955 75.7732C36.0866 75.7732 37.0865 76.2585 37.7951 77.2293C38.5135 78.2001 38.8726 79.4814 38.8726 81.0735C38.8726 82.6655 38.5135 83.9518 37.7951 84.9322C37.0865 85.8933 36.0866 86.3738 34.7955 86.3738ZM36.8778 81.0735C36.8778 79.9862 36.6982 79.1562 36.339 78.5835C35.9895 78.0108 35.475 77.7244 34.7955 77.7244C34.116 77.7244 33.6015 78.0108 33.252 78.5835C32.9025 79.1562 32.7278 79.9862 32.7278 81.0735C32.7278 82.1607 32.9025 82.9907 33.252 83.5635C33.6015 84.1265 34.116 84.408 34.7955 84.408C35.475 84.408 35.9895 84.1216 36.339 83.5489C36.6982 82.9761 36.8778 82.151 36.8778 81.0735ZM43.9674 86.3738C42.6957 86.3738 41.6958 85.8933 40.9678 84.9322C40.2494 83.9518 39.8902 82.6655 39.8902 81.0735C39.8902 79.4814 40.2494 78.2001 40.9678 77.2293C41.6958 76.2585 42.6957 75.7732 43.9674 75.7732C45.2585 75.7732 46.2584 76.2585 46.967 77.2293C47.6854 78.2001 48.0445 79.4814 48.0445 81.0735C48.0445 82.6655 47.6854 83.9518 46.967 84.9322C46.2584 85.8933 45.2585 86.3738 43.9674 86.3738ZM46.0496 81.0735C46.0496 79.9862 45.8701 79.1562 45.5109 78.5835C45.1614 78.0108 44.6469 77.7244 43.9674 77.7244C43.2879 77.7244 42.7734 78.0108 42.4239 78.5835C42.0744 79.1562 41.8997 79.9862 41.8997 81.0735C41.8997 82.1607 42.0744 82.9907 42.4239 83.5635C42.7734 84.1265 43.2879 84.408 43.9674 84.408C44.6469 84.408 45.1614 84.1216 45.5109 83.5489C45.8701 82.9761 46.0496 82.151 46.0496 81.0735Z" fill="#0D6EFD"/>
<path opacity="0.15" fill-rule="evenodd" clip-rule="evenodd" d="M16.335 52.5881C16.335 52.4445 16.4483 52.3281 16.5881 52.3281H139.853C139.992 52.3281 140.106 52.4445 140.106 52.5881C140.106 52.7318 139.992 52.8482 139.853 52.8482H16.5881C16.4483 52.8482 16.335 52.7318 16.335 52.5881Z" fill="#99A6AF" stroke="#0D6EFD" stroke-opacity="0.5" stroke-width="0.520045" stroke-linecap="round"/>
<path d="M23.105 36.5546C23.6777 36.6614 24.1485 36.9478 24.5174 37.4138C24.8863 37.8797 25.0707 38.4136 25.0707 39.0155C25.0707 39.5591 24.9348 40.0396 24.663 40.4571C24.4009 40.8648 24.0175 41.1851 23.5127 41.4181C23.0079 41.6511 22.4109 41.7676 21.7217 41.7676H17.3387V31.6038H21.5324C22.2216 31.6038 22.8138 31.7154 23.3088 31.9387C23.8136 32.162 24.1922 32.4726 24.4446 32.8706C24.7067 33.2686 24.8378 33.72 24.8378 34.2248C24.8378 34.817 24.6776 35.3121 24.3572 35.7101C24.0466 36.1081 23.6292 36.3896 23.105 36.5546ZM19.3773 35.7975H21.2411C21.7265 35.7975 22.1002 35.6907 22.3624 35.4771C22.6245 35.2538 22.7555 34.9383 22.7555 34.5306C22.7555 34.1229 22.6245 33.8074 22.3624 33.5841C22.1002 33.3609 21.7265 33.2492 21.2411 33.2492H19.3773V35.7975ZM21.4304 40.1076C21.9255 40.1076 22.309 39.9911 22.5808 39.7581C22.8623 39.5251 23.003 39.1951 23.003 38.768C23.003 38.3311 22.8574 37.9914 22.5662 37.7487C22.275 37.4963 21.8818 37.3701 21.3867 37.3701H19.3773V40.1076H21.4304ZM27.7293 32.7396C27.3701 32.7396 27.0692 32.628 26.8265 32.4047C26.5935 32.1717 26.477 31.8853 26.477 31.5456C26.477 31.2058 26.5935 30.9243 26.8265 30.701C27.0692 30.468 27.3701 30.3515 27.7293 30.3515C28.0885 30.3515 28.3846 30.468 28.6176 30.701C28.8602 30.9243 28.9816 31.2058 28.9816 31.5456C28.9816 31.8853 28.8602 32.1717 28.6176 32.4047C28.3846 32.628 28.0885 32.7396 27.7293 32.7396ZM28.734 33.7006V41.7676H26.6955V33.7006H28.734ZM33.8352 41.8986C33.175 41.8986 32.5829 41.7821 32.0587 41.5492C31.5345 41.3065 31.117 40.9813 30.8064 40.5736C30.5055 40.1658 30.3404 39.7144 30.3113 39.2194H32.3645C32.4033 39.53 32.5538 39.7872 32.8159 39.9911C33.0877 40.195 33.4226 40.2969 33.8206 40.2969C34.2089 40.2969 34.5098 40.2192 34.7234 40.0639C34.9467 39.9086 35.0583 39.7096 35.0583 39.4669C35.0583 39.2048 34.9224 39.0106 34.6506 38.8844C34.3885 38.7485 33.9662 38.6029 33.3838 38.4476C32.7819 38.302 32.2868 38.1515 31.8985 37.9962C31.5199 37.8409 31.1899 37.6031 30.9083 37.2827C30.6365 36.9624 30.5006 36.5304 30.5006 35.9868C30.5006 35.5402 30.6268 35.1325 30.8792 34.7636C31.1413 34.3947 31.5102 34.1035 31.9859 33.8899C32.4712 33.6764 33.0391 33.5696 33.6895 33.5696C34.6506 33.5696 35.4175 33.8123 35.9902 34.2976C36.563 34.7733 36.8785 35.4189 36.9367 36.2343H34.9855C34.9564 35.9139 34.8205 35.6616 34.5778 35.4771C34.3448 35.283 34.0293 35.1859 33.6313 35.1859C33.2624 35.1859 32.976 35.2538 32.7722 35.3897C32.578 35.5256 32.481 35.7149 32.481 35.9576C32.481 36.2294 32.6169 36.4382 32.8887 36.5838C33.1605 36.7197 33.5828 36.8604 34.1555 37.006C34.738 37.1517 35.2185 37.3021 35.5971 37.4574C35.9757 37.6128 36.3009 37.8555 36.5727 38.1855C36.8542 38.5059 36.9998 38.933 37.0095 39.4669C37.0095 39.9329 36.8785 40.3503 36.6164 40.7192C36.364 41.0881 35.9951 41.3793 35.5097 41.5928C35.034 41.7967 34.4758 41.8986 33.8352 41.8986ZM38.1587 37.7341C38.1587 36.8993 38.3286 36.1712 38.6684 35.5499C39.0081 34.9189 39.4789 34.4336 40.0808 34.0938C40.6827 33.7443 41.3719 33.5696 42.1485 33.5696C43.1484 33.5696 43.9735 33.822 44.6239 34.3268C45.284 34.8219 45.7257 35.5208 45.949 36.4236H43.7502C43.6338 36.0741 43.4347 35.8023 43.1532 35.6082C42.8814 35.4043 42.5417 35.3024 42.1339 35.3024C41.5515 35.3024 41.0904 35.5159 40.7506 35.9431C40.4109 36.3605 40.241 36.9575 40.241 37.7341C40.241 38.501 40.4109 39.098 40.7506 39.5251C41.0904 39.9426 41.5515 40.1513 42.1339 40.1513C42.9591 40.1513 43.4978 39.7824 43.7502 39.0446H45.949C45.7257 39.9183 45.284 40.6124 44.6239 41.1269C43.9638 41.6414 43.1387 41.8986 42.1485 41.8986C41.3719 41.8986 40.6827 41.7287 40.0808 41.389C39.4789 41.0395 39.0081 40.5541 38.6684 39.9329C38.3286 39.3019 38.1587 38.569 38.1587 37.7341ZM46.9182 37.705C46.9182 36.8896 47.0784 36.1663 47.3987 35.5354C47.7288 34.9044 48.1705 34.419 48.7238 34.0792C49.2869 33.7395 49.913 33.5696 50.6022 33.5696C51.2041 33.5696 51.7283 33.6909 52.1748 33.9336C52.6311 34.1763 52.9951 34.4821 53.2669 34.851V33.7006H55.3201V41.7676H53.2669V40.5881C53.0048 40.9667 52.6408 41.2822 52.1748 41.5346C51.7186 41.7773 51.1895 41.8986 50.5877 41.8986C49.9081 41.8986 49.2869 41.7239 48.7238 41.3744C48.1705 41.025 47.7288 40.5347 47.3987 39.9037C47.0784 39.263 46.9182 38.5301 46.9182 37.705ZM53.2669 37.7341C53.2669 37.239 53.1699 36.8167 52.9757 36.4673C52.7816 36.1081 52.5195 35.8363 52.1894 35.6518C51.8594 35.4577 51.505 35.3606 51.1264 35.3606C50.7478 35.3606 50.3984 35.4528 50.078 35.6373C49.7577 35.8217 49.4956 36.0935 49.2917 36.4527C49.0976 36.8022 49.0005 37.2196 49.0005 37.705C49.0005 38.1904 49.0976 38.6175 49.2917 38.9864C49.4956 39.3456 49.7577 39.6222 50.078 39.8164C50.4081 40.0105 50.7575 40.1076 51.1264 40.1076C51.505 40.1076 51.8594 40.0154 52.1894 39.8309C52.5195 39.6368 52.7816 39.365 52.9757 39.0155C53.1699 38.6563 53.2669 38.2292 53.2669 37.7341ZM65.0286 33.7006L60.0341 45.5826H57.8644L59.6118 41.5637L56.3792 33.7006H58.6653L60.7476 39.3358L62.8589 33.7006H65.0286ZM70.5978 33.5841C71.5589 33.5841 72.3355 33.8899 72.9276 34.5015C73.5198 35.1034 73.8159 35.9479 73.8159 37.0352V41.7676H71.7773V37.3118C71.7773 36.6711 71.6171 36.1809 71.2968 35.8411C70.9764 35.4917 70.5396 35.3169 69.9862 35.3169C69.4232 35.3169 68.9767 35.4917 68.6466 35.8411C68.3263 36.1809 68.1661 36.6711 68.1661 37.3118V41.7676H66.1275V33.7006H68.1661V34.7054C68.4379 34.3559 68.7825 34.0841 69.1999 33.8899C69.6271 33.6861 70.093 33.5841 70.5978 33.5841ZM83.2535 37.5594C83.2535 37.8506 83.2341 38.1127 83.1952 38.3457H77.2979C77.3465 38.9281 77.5503 39.3844 77.9095 39.7144C78.2687 40.0445 78.7104 40.2095 79.2346 40.2095C79.9918 40.2095 80.5305 39.8843 80.8509 39.2339H83.0496C82.8167 40.0105 82.3701 40.6512 81.71 41.156C81.0499 41.6511 80.2393 41.8986 79.2783 41.8986C78.5017 41.8986 77.8027 41.7287 77.1814 41.389C76.5699 41.0395 76.0893 40.5493 75.7399 39.9183C75.4001 39.2873 75.2302 38.5592 75.2302 37.7341C75.2302 36.8993 75.4001 36.1663 75.7399 35.5354C76.0796 34.9044 76.5553 34.419 77.1669 34.0792C77.7785 33.7395 78.4822 33.5696 79.2783 33.5696C80.0452 33.5696 80.7295 33.7346 81.3314 34.0647C81.943 34.3947 82.4138 34.8655 82.7438 35.4771C83.0836 36.079 83.2535 36.7731 83.2535 37.5594ZM81.1421 36.9769C81.1324 36.4527 80.9431 36.0353 80.5742 35.7247C80.2053 35.4043 79.7539 35.2441 79.22 35.2441C78.7152 35.2441 78.2881 35.3994 77.9386 35.7101C77.5989 36.011 77.3902 36.4333 77.3125 36.9769H81.1421ZM93.9774 36.5546C94.5502 36.6614 95.021 36.9478 95.3899 37.4138C95.7587 37.8797 95.9432 38.4136 95.9432 39.0155C95.9432 39.5591 95.8073 40.0396 95.5355 40.4571C95.2734 40.8648 94.8899 41.1851 94.3851 41.4181C93.8803 41.6511 93.2833 41.7676 92.5941 41.7676H88.2111V31.6038H92.4048C93.094 31.6038 93.6862 31.7154 94.1813 31.9387C94.6861 32.162 95.0647 32.4726 95.317 32.8706C95.5792 33.2686 95.7102 33.72 95.7102 34.2248C95.7102 34.817 95.55 35.3121 95.2297 35.7101C94.919 36.1081 94.5016 36.3896 93.9774 36.5546ZM90.2497 35.7975H92.1136C92.5989 35.7975 92.9727 35.6907 93.2348 35.4771C93.4969 35.2538 93.6279 34.9383 93.6279 34.5306C93.6279 34.1229 93.4969 33.8074 93.2348 33.5841C92.9727 33.3609 92.5989 33.2492 92.1136 33.2492H90.2497V35.7975ZM92.3029 40.1076C92.7979 40.1076 93.1814 39.9911 93.4532 39.7581C93.7347 39.5251 93.8755 39.1951 93.8755 38.768C93.8755 38.3311 93.7299 37.9914 93.4386 37.7487C93.1474 37.4963 92.7543 37.3701 92.2592 37.3701H90.2497V40.1076H92.3029ZM99.6065 30.9922V41.7676H97.5679V30.9922H99.6065ZM104.984 39.8892L107.023 33.7006H109.192L106.207 41.7676H103.732L100.761 33.7006H102.946L104.984 39.8892ZM109.813 37.705C109.813 36.8896 109.973 36.1663 110.294 35.5354C110.624 34.9044 111.07 34.419 111.633 34.0792C112.196 33.7395 112.823 33.5696 113.512 33.5696C114.036 33.5696 114.536 33.6861 115.012 33.9191C115.487 34.1423 115.866 34.4433 116.147 34.8219V30.9922H118.215V41.7676H116.147V40.5736C115.895 40.9716 115.541 41.2919 115.084 41.5346C114.628 41.7773 114.099 41.8986 113.497 41.8986C112.818 41.8986 112.196 41.7239 111.633 41.3744C111.07 41.025 110.624 40.5347 110.294 39.9037C109.973 39.263 109.813 38.5301 109.813 37.705ZM116.162 37.7341C116.162 37.239 116.065 36.8167 115.871 36.4673C115.677 36.1081 115.414 35.8363 115.084 35.6518C114.754 35.4577 114.4 35.3606 114.021 35.3606C113.643 35.3606 113.293 35.4528 112.973 35.6373C112.653 35.8217 112.391 36.0935 112.187 36.4527C111.993 36.8022 111.896 37.2196 111.896 37.705C111.896 38.1904 111.993 38.6175 112.187 38.9864C112.391 39.3456 112.653 39.6222 112.973 39.8164C113.303 40.0105 113.653 40.1076 114.021 40.1076C114.4 40.1076 114.754 40.0154 115.084 39.8309C115.414 39.6368 115.677 39.365 115.871 39.0155C116.065 38.6563 116.162 38.2292 116.162 37.7341Z" fill="#FCFDFD" stroke="#0d6efd80"/>
<path d="M23.105 36.5546L22.7965 35.5749L22.9167 37.5644L23.105 36.5546ZM24.5174 37.4138L25.3228 36.7762L24.5174 37.4138ZM24.663 40.4571L23.8022 39.8966L23.799 39.9016L24.663 40.4571ZM23.5127 41.4181L23.9431 42.3507H23.9431L23.5127 41.4181ZM17.3387 41.7676H16.3115V42.7948H17.3387V41.7676ZM17.3387 31.6038V30.5766H16.3115V31.6038H17.3387ZM23.3088 31.9387L22.8865 32.8751L22.8933 32.8781L23.3088 31.9387ZM24.4446 32.8706L23.5772 33.4207L23.5819 33.4282L23.5867 33.4356L24.4446 32.8706ZM24.3572 35.7101L23.5571 35.066L23.5522 35.072L23.5475 35.0781L24.3572 35.7101ZM19.3773 35.7975H18.3501V36.8246H19.3773V35.7975ZM22.3624 35.4771L23.0112 36.2734L23.0199 36.2663L23.0284 36.259L22.3624 35.4771ZM22.3624 33.5841L23.0284 32.8022H23.0284L22.3624 33.5841ZM19.3773 33.2492V32.2221H18.3501V33.2492H19.3773ZM22.5808 39.7581L21.9259 38.9668L21.919 38.9725L21.9123 38.9782L22.5808 39.7581ZM22.5662 37.7487L21.8935 38.5249L21.901 38.5314L21.9086 38.5378L22.5662 37.7487ZM19.3773 37.3701V36.3429H18.3501V37.3701H19.3773ZM19.3773 40.1076H18.3501V41.1348H19.3773V40.1076ZM22.9167 37.5644C23.2402 37.6247 23.4938 37.7756 23.7121 38.0513L25.3228 36.7762C24.8033 36.12 24.1152 35.6981 23.2932 35.5449L22.9167 37.5644ZM23.7121 38.0513C23.9353 38.3333 24.0436 38.6419 24.0436 39.0155H26.0979C26.0979 38.1854 25.8373 37.4261 25.3228 36.7762L23.7121 38.0513ZM24.0436 39.0155C24.0436 39.379 23.9556 39.6611 23.8023 39.8966L25.5238 41.0176C25.9141 40.4182 26.0979 39.7392 26.0979 39.0155H24.0436ZM23.799 39.9016C23.6575 40.1218 23.4363 40.3221 23.0822 40.4855L23.9431 42.3507C24.5987 42.0482 25.1444 41.6078 25.5271 41.0125L23.799 39.9016ZM23.0822 40.4855C22.7407 40.6431 22.297 40.7404 21.7217 40.7404V42.7948C22.5248 42.7948 23.2751 42.6591 23.9431 42.3507L23.0822 40.4855ZM21.7217 40.7404H17.3387V42.7948H21.7217V40.7404ZM18.3659 41.7676V31.6038H16.3115V41.7676H18.3659ZM17.3387 32.631H21.5324V30.5766H17.3387V32.631ZM21.5324 32.631C22.1138 32.631 22.5548 32.7255 22.8866 32.8751L23.7311 31.0024C23.0727 30.7054 22.3294 30.5766 21.5324 30.5766V32.631ZM22.8933 32.8781C23.2448 33.0336 23.4512 33.2221 23.5772 33.4207L25.3121 32.3205C24.9332 31.7232 24.3824 31.2904 23.7243 30.9993L22.8933 32.8781ZM23.5867 33.4356C23.7317 33.6557 23.8106 33.9084 23.8106 34.2248H25.8649C25.8649 33.5317 25.6817 32.8816 25.3025 32.3057L23.5867 33.4356ZM23.8106 34.2248C23.8106 34.6218 23.7078 34.8788 23.5571 35.066L25.1574 36.3541C25.6474 35.7453 25.8649 35.0122 25.8649 34.2248H23.8106ZM23.5475 35.0781C23.3763 35.2975 23.1407 35.4665 22.7965 35.5749L23.4134 37.5344C24.1177 37.3127 24.7169 36.9187 25.167 36.3421L23.5475 35.0781ZM19.3773 36.8246H21.2411V34.7703H19.3773V36.8246ZM21.2411 36.8246C21.8623 36.8246 22.5006 36.6894 23.0112 36.2734L21.7135 34.6808C21.6999 34.6919 21.5907 34.7703 21.2411 34.7703V36.8246ZM23.0284 36.259C23.5624 35.8042 23.7827 35.1781 23.7827 34.5306H21.7283C21.7283 34.6249 21.7133 34.6678 21.7086 34.679C21.7062 34.6848 21.7048 34.6867 21.7046 34.6869C21.7044 34.6871 21.7025 34.6899 21.6963 34.6952L23.0284 36.259ZM23.7827 34.5306C23.7827 33.8831 23.5624 33.2571 23.0284 32.8022L21.6963 34.3661C21.7025 34.3714 21.7044 34.3741 21.7046 34.3744C21.7048 34.3746 21.7062 34.3765 21.7086 34.3822C21.7133 34.3934 21.7283 34.4364 21.7283 34.5306H23.7827ZM23.0284 32.8022C22.517 32.3665 21.8717 32.2221 21.2411 32.2221V34.2764C21.5813 34.2764 21.6835 34.3552 21.6963 34.3661L23.0284 32.8022ZM21.2411 32.2221H19.3773V34.2764H21.2411V32.2221ZM18.3501 33.2492V35.7975H20.4045V33.2492H18.3501ZM21.4304 41.1348C22.0771 41.1348 22.7308 40.9824 23.2492 40.538L21.9123 38.9782C21.8872 38.9998 21.7739 39.0804 21.4304 39.0804V41.1348ZM23.2357 40.5495C23.794 40.0874 24.0302 39.4436 24.0302 38.768H21.9759C21.9759 38.8689 21.9594 38.9171 21.9526 38.9329C21.9478 38.9443 21.9428 38.9528 21.9259 38.9668L23.2357 40.5495ZM24.0302 38.768C24.0302 38.0782 23.7863 37.4284 23.2238 36.9596L21.9086 38.5378C21.9285 38.5544 21.9759 38.5841 21.9759 38.768H24.0302ZM23.2389 36.9724C22.7129 36.5165 22.0569 36.3429 21.3867 36.3429V38.3972C21.7068 38.3972 21.8371 38.476 21.8935 38.5249L23.2389 36.9724ZM21.3867 36.3429H19.3773V38.3972H21.3867V36.3429ZM18.3501 37.3701V40.1076H20.4045V37.3701H18.3501ZM19.3773 41.1348H21.4304V39.0804H19.3773V41.1348ZM26.8265 32.4047L26.1002 33.131L26.1153 33.1461L26.1311 33.1606L26.8265 32.4047ZM26.8265 30.701L27.5372 31.4426L27.5379 31.442L26.8265 30.701ZM28.6176 30.701L27.8912 31.4273L27.9064 31.4425L27.9221 31.4569L28.6176 30.701ZM28.6176 32.4047L29.3283 33.1463L29.3289 33.1457L28.6176 32.4047ZM28.734 33.7006H29.7612V32.6735H28.734V33.7006ZM28.734 41.7676V42.7948H29.7612V41.7676H28.734ZM26.6955 41.7676H25.6683V42.7948H26.6955V41.7676ZM26.6955 33.7006V32.6735H25.6683V33.7006H26.6955ZM27.7293 31.7124C27.6028 31.7124 27.5574 31.6814 27.522 31.6488L26.1311 33.1606C26.581 33.5745 27.1375 33.7668 27.7293 33.7668V31.7124ZM27.5528 31.6784C27.5268 31.6523 27.5191 31.6361 27.5159 31.6281C27.5124 31.6195 27.5042 31.5959 27.5042 31.5456H25.4499C25.4499 32.1482 25.668 32.6988 26.1002 33.131L27.5528 31.6784ZM27.5042 31.5456C27.5042 31.4949 27.5124 31.475 27.5135 31.4723C27.5145 31.47 27.5157 31.4675 27.5182 31.4641C27.5207 31.4604 27.5262 31.4532 27.5372 31.4426L26.1158 29.9594C25.669 30.3876 25.4499 30.9424 25.4499 31.5456H27.5042ZM27.5379 31.442C27.5755 31.4059 27.6156 31.3787 27.7293 31.3787V29.3244C27.1247 29.3244 26.5629 29.5302 26.1152 29.96L27.5379 31.442ZM27.7293 31.3787C27.8431 31.3787 27.8692 31.4053 27.8912 31.4273L29.3439 29.9747C28.8999 29.5308 28.3339 29.3244 27.7293 29.3244V31.3787ZM27.9221 31.4569C27.9348 31.4686 27.9411 31.4766 27.9437 31.4802C27.9462 31.4837 27.947 31.4854 27.9473 31.4862C27.9477 31.487 27.9491 31.4906 27.9507 31.4986C27.9523 31.5068 27.9544 31.5219 27.9544 31.5456H30.0088C30.0088 30.9284 29.7743 30.3694 29.313 29.9451L27.9221 31.4569ZM27.9544 31.5456C27.9544 31.5906 27.947 31.6093 27.9448 31.6144C27.9427 31.6193 27.9355 31.6356 27.9062 31.6637L29.3289 33.1457C29.7756 32.7168 30.0088 32.1619 30.0088 31.5456H27.9544ZM27.9068 31.6631C27.8874 31.6817 27.8562 31.7124 27.7293 31.7124V33.7668C28.3208 33.7668 28.8818 33.5742 29.3283 33.1463L27.9068 31.6631ZM27.7069 33.7006V41.7676H29.7612V33.7006H27.7069ZM28.734 40.7404H26.6955V42.7948H28.734V40.7404ZM27.7226 41.7676V33.7006H25.6683V41.7676H27.7226ZM26.6955 34.7278H28.734V32.6735H26.6955V34.7278ZM32.0587 41.5492L31.6271 42.4813L31.6343 42.4846L31.6415 42.4878L32.0587 41.5492ZM30.8064 40.5736L29.98 41.1835L29.9846 41.1898L29.9894 41.1961L30.8064 40.5736ZM30.3113 39.2194V38.1922H29.222L29.2859 39.2797L30.3113 39.2194ZM32.3645 39.2194L33.3837 39.092L33.2712 38.1922H32.3645V39.2194ZM32.8159 39.9911L32.1852 40.8019L32.1924 40.8074L32.1996 40.8128L32.8159 39.9911ZM34.7234 40.0639L34.1368 39.2207L34.128 39.2269L34.1192 39.2332L34.7234 40.0639ZM34.6506 38.8844L34.1778 39.7963L34.1977 39.8067L34.218 39.8161L34.6506 38.8844ZM33.3838 38.4476L33.6484 37.4551L33.6369 37.452L33.6253 37.4492L33.3838 38.4476ZM31.8985 37.9962L31.5086 38.9466L31.517 38.9499L31.8985 37.9962ZM30.9083 37.2827L30.1251 37.9473L30.1309 37.9541L30.1368 37.9608L30.9083 37.2827ZM30.8792 34.7636L30.0419 34.1687L30.0366 34.1761L30.0315 34.1836L30.8792 34.7636ZM31.9859 33.8899L31.5722 32.9497L31.5652 32.9529L31.9859 33.8899ZM35.9902 34.2976L35.3261 35.0813L35.334 35.0878L35.9902 34.2976ZM36.9367 36.2343V37.2615H38.0399L37.9613 36.1611L36.9367 36.2343ZM34.9855 36.2343L33.9625 36.3273L34.0475 37.2615H34.9855V36.2343ZM34.5778 35.4771L33.9202 36.2662L33.9379 36.281L33.9563 36.2949L34.5778 35.4771ZM32.7722 35.3897L32.2024 34.5351L32.1927 34.5416L32.1831 34.5482L32.7722 35.3897ZM32.8887 36.5838L32.4036 37.4892L32.4164 37.496L32.4293 37.5025L32.8887 36.5838ZM34.1555 37.006L33.9024 38.0016L33.9064 38.0025L34.1555 37.006ZM36.5727 38.1855L35.7798 38.8385L35.7902 38.8512L35.8011 38.8636L36.5727 38.1855ZM37.0095 39.4669H38.0367V39.4576L38.0365 39.4482L37.0095 39.4669ZM36.6164 40.7192L35.779 40.1242L35.7738 40.1316L35.7686 40.1391L36.6164 40.7192ZM35.5097 41.5928L35.9143 42.537L35.9234 42.533L35.5097 41.5928ZM33.8352 40.8715C33.2972 40.8715 32.8504 40.777 32.4759 40.6105L31.6415 42.4878C32.3154 42.7873 33.0529 42.9258 33.8352 42.9258V40.8715ZM32.4902 40.617C32.0983 40.4356 31.8204 40.2096 31.6235 39.951L29.9894 41.1961C30.4137 41.753 30.9707 42.1774 31.6271 42.4813L32.4902 40.617ZM31.6328 39.9636C31.4473 39.7122 31.3539 39.451 31.3367 39.159L29.2859 39.2797C29.327 39.9779 29.5636 40.6194 29.98 41.1835L31.6328 39.9636ZM30.3113 40.2465H32.3645V38.1922H30.3113V40.2465ZM31.3452 39.3468C31.4201 39.9454 31.7226 40.4421 32.1852 40.8019L33.4465 39.1803C33.4068 39.1495 33.3952 39.1303 33.3931 39.1267C33.3916 39.1241 33.3868 39.1163 33.3837 39.092L31.3452 39.3468ZM32.1996 40.8128C32.6784 41.1719 33.2398 41.3241 33.8206 41.3241V39.2697C33.6054 39.2697 33.497 39.218 33.4322 39.1694L32.1996 40.8128ZM33.8206 41.3241C34.3285 41.3241 34.8733 41.225 35.3275 40.8946L34.1192 39.2332C34.1464 39.2135 34.0893 39.2697 33.8206 39.2697V41.3241ZM35.31 40.9071C35.7705 40.5868 36.0855 40.0905 36.0855 39.4669H34.0311C34.0311 39.4238 34.0429 39.3594 34.0787 39.2956C34.1121 39.2361 34.1452 39.2149 34.1368 39.2207L35.31 40.9071ZM36.0855 39.4669C36.0855 39.1484 35.9994 38.8236 35.7979 38.5357C35.6021 38.256 35.3404 38.0722 35.0831 37.9528L34.218 39.8161C34.2326 39.8229 34.1747 39.7993 34.1149 39.7138C34.0492 39.62 34.0311 39.5232 34.0311 39.4669H36.0855ZM35.1234 37.9726C34.7571 37.7826 34.2447 37.6141 33.6484 37.4551L33.1191 39.4401C33.6878 39.5917 34.0198 39.7144 34.1778 39.7963L35.1234 37.9726ZM33.6253 37.4492C33.0508 37.3102 32.6068 37.1732 32.28 37.0425L31.517 38.9499C31.9668 39.1298 32.513 39.2938 33.1422 39.446L33.6253 37.4492ZM32.2884 37.0459C32.0625 36.9532 31.8614 36.8112 31.6799 36.6047L30.1368 37.9608C30.5183 38.3949 30.9773 38.7285 31.5086 38.9465L32.2884 37.0459ZM31.6916 36.6181C31.6188 36.5323 31.5278 36.3599 31.5278 35.9868H29.4734C29.4734 36.7009 29.6543 37.3924 30.1251 37.9473L31.6916 36.6181ZM31.5278 35.9868C31.5278 35.7474 31.5913 35.5418 31.7269 35.3436L30.0315 34.1836C29.6623 34.7231 29.4734 35.333 29.4734 35.9868H31.5278ZM31.7165 35.3586C31.8575 35.1602 32.072 34.9772 32.4066 34.827L31.5652 32.9529C30.9484 33.2298 30.4252 33.6292 30.0419 34.1687L31.7165 35.3586ZM32.3996 34.8301C32.7286 34.6854 33.1501 34.5968 33.6895 34.5968V32.5424C32.9282 32.5424 32.2139 32.6674 31.5722 32.9497L32.3996 34.8301ZM33.6895 34.5968C34.4771 34.5968 34.986 34.793 35.3261 35.0813L36.6543 33.514C35.849 32.8316 34.8241 32.5424 33.6895 32.5424V34.5968ZM35.334 35.0878C35.6691 35.3662 35.8717 35.741 35.9121 36.3075L37.9613 36.1611C37.8852 35.0968 37.4569 34.1805 36.6465 33.5075L35.334 35.0878ZM36.9367 35.2071H34.9855V37.2615H36.9367V35.2071ZM36.0084 36.1413C35.9548 35.5516 35.6856 35.0289 35.1993 34.6593L33.9563 36.2949C33.9636 36.3005 33.9651 36.3027 33.9635 36.3009C33.9619 36.299 33.9594 36.2956 33.9573 36.2917C33.9553 36.2879 33.9554 36.2871 33.9566 36.2912C33.9579 36.2955 33.9607 36.3069 33.9625 36.3273L36.0084 36.1413ZM35.2354 34.688C34.7668 34.2976 34.1936 34.1587 33.6313 34.1587V36.2131C33.7482 36.2131 33.8222 36.2275 33.8643 36.2404C33.9036 36.2525 33.9172 36.2637 33.9202 36.2662L35.2354 34.688ZM33.6313 34.1587C33.1557 34.1587 32.6403 34.2432 32.2024 34.5351L33.342 36.2444C33.3244 36.2561 33.3292 36.2476 33.377 36.2363C33.4258 36.2247 33.5076 36.2131 33.6313 36.2131V34.1587ZM32.1831 34.5482C31.7066 34.8818 31.4538 35.3894 31.4538 35.9576H33.5081C33.5081 35.9762 33.5035 36.0327 33.4678 36.1024C33.4316 36.1729 33.3853 36.2144 33.3612 36.2312L32.1831 34.5482ZM31.4538 35.9576C31.4538 36.2736 31.5357 36.5922 31.7221 36.8785C31.9042 37.1582 32.1512 37.354 32.4036 37.4892L33.3737 35.6783C33.3543 35.6679 33.3975 35.6866 33.4437 35.7575C33.4942 35.8351 33.5081 35.9135 33.5081 35.9576H31.4538ZM32.4293 37.5025C32.8027 37.6892 33.3119 37.8514 33.9024 38.0015L34.4086 36.0105C33.8536 35.8694 33.5183 35.7502 33.348 35.665L32.4293 37.5025ZM33.9064 38.0025C34.4608 38.1412 34.8901 38.2777 35.2072 38.4078L35.9869 36.5071C35.5469 36.3266 35.0151 36.1622 34.4046 36.0095L33.9064 38.0025ZM35.2072 38.4078C35.4218 38.4958 35.6107 38.6332 35.7798 38.8385L37.3656 37.5325C36.991 37.0777 36.5295 36.7297 35.9869 36.5071L35.2072 38.4078ZM35.8011 38.8636C35.8848 38.9588 35.9761 39.1316 35.9825 39.4856L38.0365 39.4482C38.0235 38.7344 37.8235 38.0529 37.3442 37.5075L35.8011 38.8636ZM35.9823 39.4669C35.9823 39.7264 35.9138 39.9346 35.779 40.1242L37.4537 41.3141C37.8431 40.766 38.0367 40.1393 38.0367 39.4669H35.9823ZM35.7686 40.1391C35.6432 40.3224 35.439 40.5017 35.096 40.6527L35.9234 42.533C36.5511 42.2568 37.0847 41.8537 37.4641 41.2992L35.7686 40.1391ZM35.1051 40.6487C34.7838 40.7864 34.3689 40.8715 33.8352 40.8715V42.9258C34.5828 42.9258 35.2842 42.807 35.9143 42.537L35.1051 40.6487ZM38.6684 35.5499L39.5696 36.0428L39.5728 36.0369L38.6684 35.5499ZM40.0808 34.0938L40.5858 34.9883L40.5966 34.9821L40.0808 34.0938ZM44.6239 34.3268L43.9941 35.1382L44.0008 35.1434L44.0076 35.1485L44.6239 34.3268ZM45.949 36.4236V37.4508H47.2611L46.9461 36.177L45.949 36.4236ZM43.7502 36.4236L42.7758 36.7484L43.0099 37.4508H43.7502V36.4236ZM43.1532 35.6082L42.5369 36.4299L42.5533 36.4422L42.5701 36.4537L43.1532 35.6082ZM40.7506 35.9431L41.5473 36.5915L41.5545 36.5825L40.7506 35.9431ZM40.7506 39.5251L39.9467 40.1646L39.954 40.1736L40.7506 39.5251ZM43.7502 39.0446V38.0174H43.016L42.7784 38.7121L43.7502 39.0446ZM45.949 39.0446L46.9442 39.2989L47.2717 38.0174H45.949V39.0446ZM44.6239 41.1269L45.2554 41.937L44.6239 41.1269ZM40.0808 41.389L39.565 42.2773L39.5758 42.2835L40.0808 41.389ZM38.6684 39.9329L37.7639 40.4199L37.7671 40.4257L38.6684 39.9329ZM39.1859 37.7341C39.1859 37.0406 39.3261 36.488 39.5696 36.0428L37.7671 35.0571C37.3311 35.8544 37.1315 36.7579 37.1315 37.7341H39.1859ZM39.5728 36.0369C39.8241 35.5701 40.1593 35.229 40.5858 34.9883L39.5758 33.1993C38.7986 33.6381 38.1921 34.2677 37.764 35.0629L39.5728 36.0369ZM40.5966 34.9821C41.0242 34.7338 41.5316 34.5968 42.1485 34.5968V32.5424C41.2122 32.5424 40.3411 32.7548 39.565 33.2055L40.5966 34.9821ZM42.1485 34.5968C42.9706 34.5968 43.56 34.8013 43.9941 35.1382L45.2537 33.5153C44.3871 32.8427 43.3261 32.5424 42.1485 32.5424V34.5968ZM44.0076 35.1485C44.4543 35.4835 44.7778 35.9663 44.9519 36.6702L46.9461 36.177C46.6737 35.0753 46.1138 34.1602 45.2402 33.505L44.0076 35.1485ZM45.949 35.3964H43.7502V37.4508H45.949V35.3964ZM44.7247 36.0988C44.5435 35.5552 44.2159 35.0933 43.7364 34.7626L42.5701 36.4537C42.6536 36.5114 42.724 36.593 42.7758 36.7484L44.7247 36.0988ZM43.7695 34.7864C43.2865 34.4242 42.7182 34.2752 42.1339 34.2752V36.3295C42.3651 36.3295 42.4763 36.3844 42.5369 36.4299L43.7695 34.7864ZM42.1339 34.2752C41.2627 34.2752 40.496 34.6132 39.9468 35.3036L41.5545 36.5825C41.6848 36.4187 41.8403 36.3295 42.1339 36.3295V34.2752ZM39.954 35.2946C39.4114 35.9612 39.2138 36.8233 39.2138 37.7341H41.2681C41.2681 37.0918 41.4103 36.7598 41.5473 36.5915L39.954 35.2946ZM39.2138 37.7341C39.2138 38.6409 39.4138 39.4946 39.9468 40.1646L41.5545 38.8857C41.4079 38.7014 41.2681 38.3611 41.2681 37.7341H39.2138ZM39.954 40.1736C40.5064 40.8523 41.2715 41.1785 42.1339 41.1785V39.1241C41.8315 39.1241 41.6744 39.0329 41.5473 38.8767L39.954 40.1736ZM42.1339 41.1785C42.699 41.1785 43.2567 41.0511 43.7372 40.7222C44.2226 40.3898 44.5386 39.9135 44.7221 39.3771L42.7784 38.7121C42.7095 38.9135 42.6299 38.9905 42.5766 39.0271C42.5182 39.067 42.3941 39.1241 42.1339 39.1241V41.1785ZM43.7502 40.0718H45.949V38.0174H43.7502V40.0718ZM44.9538 38.7903C44.7822 39.4617 44.4588 39.9532 43.9925 40.3167L45.2554 41.937C46.1092 41.2715 46.6692 40.3749 46.9442 39.2989L44.9538 38.7903ZM43.9925 40.3167C43.5443 40.666 42.9534 40.8715 42.1485 40.8715V42.9258C43.324 42.9258 44.3833 42.6168 45.2554 41.937L43.9925 40.3167ZM42.1485 40.8715C41.5265 40.8715 41.0152 40.7369 40.5858 40.4945L39.5758 42.2835C40.3501 42.7206 41.2173 42.9258 42.1485 42.9258V40.8715ZM40.5966 40.5007C40.1598 40.2471 39.821 39.8998 39.5696 39.44L37.7671 40.4257C38.1952 41.2085 38.798 41.8319 39.565 42.2773L40.5966 40.5007ZM39.5728 39.4459C39.326 38.9875 39.1859 38.4271 39.1859 37.7341H37.1315C37.1315 38.7108 37.3312 39.6162 37.764 40.4198L39.5728 39.4459ZM47.3988 35.5354L46.4885 35.0592L46.4829 35.0704L47.3988 35.5354ZM48.7238 34.0792L48.1931 33.1997L48.1863 33.2039L48.7238 34.0792ZM52.1748 33.9336L51.6843 34.8362L51.6925 34.8405L52.1748 33.9336ZM53.2669 34.851L52.44 35.4603L54.2941 37.9766V34.851H53.2669ZM53.2669 33.7006V32.6735H52.2398V33.7006H53.2669ZM55.3201 33.7006H56.3473V32.6735H55.3201V33.7006ZM55.3201 41.7676V42.7948H56.3473V41.7676H55.3201ZM53.2669 41.7676H52.2398V42.7948H53.2669V41.7676ZM53.2669 40.5881H54.2941V37.2999L52.4224 40.0034L53.2669 40.5881ZM52.1748 41.5346L52.6572 42.4415L52.6641 42.4378L52.1748 41.5346ZM48.7238 41.3744L48.1753 42.2429L48.1821 42.2472L48.7238 41.3744ZM47.3988 39.9037L46.48 40.3631L46.4842 40.3715L46.4886 40.3798L47.3988 39.9037ZM52.9757 36.4673L52.072 36.9557L52.0778 36.9661L52.9757 36.4673ZM52.1894 35.6518L51.6686 36.5372L51.6784 36.543L51.6883 36.5485L52.1894 35.6518ZM50.078 35.6373L49.5655 34.7471L49.5655 34.7471L50.078 35.6373ZM49.2917 36.4527L48.3984 35.9457L48.3938 35.9539L49.2917 36.4527ZM49.2917 38.9864L48.3828 39.4648L48.3903 39.4792L48.3984 39.4934L49.2917 38.9864ZM50.078 39.8164L49.5456 40.6949L49.5572 40.7017L50.078 39.8164ZM52.1894 39.8309L52.6905 40.7276L52.7004 40.722L52.7102 40.7163L52.1894 39.8309ZM52.9757 39.0155L53.8737 39.5144L53.8793 39.5039L52.9757 39.0155ZM47.9454 37.705C47.9454 37.0265 48.0779 36.4667 48.3146 36.0003L46.4829 35.0704C46.0789 35.8659 45.8911 36.7526 45.8911 37.705H47.9454ZM48.3089 36.0114C48.5616 35.5284 48.881 35.1881 49.2613 34.9546L48.1863 33.2039C47.46 33.6499 46.896 34.2804 46.4886 35.0593L48.3089 36.0114ZM49.2545 34.9587C49.6496 34.7203 50.0906 34.5968 50.6022 34.5968V32.5424C49.7353 32.5424 48.9242 32.7586 48.1931 33.1998L49.2545 34.9587ZM50.6022 34.5968C51.0643 34.5968 51.4138 34.6891 51.6844 34.8361L52.6653 33.0311C52.0428 32.6928 51.3439 32.5424 50.6022 32.5424V34.5968ZM51.6925 34.8405C52.0305 35.0203 52.2704 35.2301 52.44 35.4603L54.0939 34.2417C53.7199 33.7341 53.2317 33.3323 52.6572 33.0268L51.6925 34.8405ZM54.2941 34.851V33.7006H52.2398V34.851H54.2941ZM53.2669 34.7278H55.3201V32.6735H53.2669V34.7278ZM54.2929 33.7006V41.7676H56.3473V33.7006H54.2929ZM55.3201 40.7404H53.2669V42.7948H55.3201V40.7404ZM54.2941 41.7676V40.5881H52.2398V41.7676H54.2941ZM52.4224 40.0034C52.265 40.2307 52.0312 40.4442 51.6856 40.6314L52.6641 42.4378C53.2504 42.1202 53.7446 41.7027 54.1115 41.1728L52.4224 40.0034ZM51.6925 40.6277C51.4075 40.7793 51.0491 40.8715 50.5877 40.8715V42.9258C51.33 42.9258 52.0297 42.7752 52.6572 42.4415L51.6925 40.6277ZM50.5877 40.8715C50.0944 40.8715 49.6616 40.7475 49.2655 40.5017L48.1821 42.2472C48.9121 42.7002 49.7218 42.9258 50.5877 42.9258V40.8715ZM49.2723 40.506C48.8853 40.2615 48.5627 39.9128 48.3089 39.4276L46.4886 40.3798C46.8949 41.1566 47.4557 41.7884 48.1753 42.2429L49.2723 40.506ZM48.3175 39.4444C48.0786 38.9665 47.9454 38.3949 47.9454 37.705H45.8911C45.8911 38.6653 46.0782 39.5595 46.48 40.3631L48.3175 39.4444ZM54.2941 37.7341C54.2941 37.1056 54.1705 36.5028 53.8736 35.9684L52.0778 36.9661C52.1692 37.1307 52.2398 37.3725 52.2398 37.7341H54.2941ZM53.8793 35.9788C53.6002 35.4624 53.2044 35.0424 52.6905 34.7552L51.6883 36.5485C51.8346 36.6302 51.963 36.7538 52.0721 36.9557L53.8793 35.9788ZM52.7102 34.7665C52.2242 34.4806 51.6904 34.3334 51.1264 34.3334V36.3878C51.3197 36.3878 51.4945 36.4348 51.6686 36.5372L52.7102 34.7665ZM51.1264 34.3334C50.5725 34.3334 50.0456 34.4707 49.5655 34.7471L50.5905 36.5275C50.7511 36.435 50.9232 36.3878 51.1264 36.3878V34.3334ZM49.5655 34.7471C49.0683 35.0334 48.6819 35.4463 48.3984 35.9457L50.185 36.9597C50.3093 36.7408 50.4471 36.61 50.5905 36.5275L49.5655 34.7471ZM48.3938 35.9539C48.0985 36.4854 47.9733 37.0822 47.9733 37.705H50.0277C50.0277 37.357 50.0966 37.1189 50.1896 36.9516L48.3938 35.9539ZM47.9733 37.705C47.9733 38.3296 48.0991 38.9258 48.3828 39.4648L50.2007 38.508C50.096 38.3091 50.0277 38.0511 50.0277 37.705H47.9733ZM48.3984 39.4934C48.6798 39.9892 49.0602 40.4006 49.5456 40.6948L50.6104 38.9379C50.4551 38.8438 50.3114 38.702 50.185 38.4794L48.3984 39.4934ZM49.5572 40.7017C50.0389 40.985 50.5673 41.1348 51.1264 41.1348V39.0804C50.9478 39.0804 50.7773 39.036 50.5988 38.931L49.5572 40.7017ZM51.1264 41.1348C51.6802 41.1348 52.2071 40.9977 52.6905 40.7276L51.6883 38.9343C51.5116 39.033 51.3298 39.0804 51.1264 39.0804V41.1348ZM52.7102 40.7163C53.2053 40.4251 53.5946 40.0166 53.8736 39.5143L52.0778 38.5167C51.9685 38.7133 51.8336 38.8485 51.6686 38.9456L52.7102 40.7163ZM53.8793 39.5039C54.1701 38.966 54.2941 38.3638 54.2941 37.7341H52.2398C52.2398 38.0946 52.1696 38.3467 52.0721 38.5271L53.8793 39.5039ZM65.0286 33.7006L65.9755 34.0987L66.5746 32.6735H65.0286V33.7006ZM60.0341 45.5826V46.6098H60.7165L60.981 45.9807L60.0341 45.5826ZM57.8644 45.5826L56.9224 45.1731L56.2978 46.6098H57.8644V45.5826ZM59.6118 41.5637L60.5538 41.9733L60.727 41.5749L60.5618 41.1732L59.6118 41.5637ZM56.3792 33.7006V32.6735H54.8463L55.4292 34.0912L56.3792 33.7006ZM58.6653 33.7006L59.6288 33.3446L59.3808 32.6735H58.6653V33.7006ZM60.7476 39.3358L59.7841 39.6919L60.7409 42.2813L61.7094 39.6962L60.7476 39.3358ZM62.8589 33.7006V32.6735H62.1469L61.8971 33.3402L62.8589 33.7006ZM64.0817 33.3026L59.0871 45.1846L60.981 45.9807L65.9755 34.0987L64.0817 33.3026ZM60.0341 44.5555H57.8644V46.6098H60.0341V44.5555ZM58.8064 45.9922L60.5538 41.9733L58.6698 41.1542L56.9224 45.1731L58.8064 45.9922ZM60.5618 41.1732L57.3292 33.3101L55.4292 34.0912L58.6618 41.9543L60.5618 41.1732ZM56.3792 34.7278H58.6653V32.6735H56.3792V34.7278ZM57.7018 34.0567L59.7841 39.6919L61.7111 38.9798L59.6288 33.3446L57.7018 34.0567ZM61.7094 39.6962L63.8208 34.061L61.8971 33.3402L59.7857 38.9755L61.7094 39.6962ZM62.8589 34.7278H65.0286V32.6735H62.8589V34.7278ZM72.9276 34.5015L72.1896 35.216L72.1954 35.2219L72.9276 34.5015ZM73.8158 41.7676V42.7948H74.843V41.7676H73.8158ZM71.7773 41.7676H70.7501V42.7948H71.7773V41.7676ZM71.2968 35.8411L70.5396 36.5352L70.5444 36.5405L70.5494 36.5458L71.2968 35.8411ZM68.6466 35.8411L67.8998 35.1359L67.8992 35.1365L68.6466 35.8411ZM68.1661 41.7676V42.7948H69.1933V41.7676H68.1661ZM66.1275 41.7676H65.1003V42.7948H66.1275V41.7676ZM66.1275 33.7006V32.6735H65.1003V33.7006H66.1275ZM68.1661 33.7006H69.1933V32.6735H68.1661V33.7006ZM68.1661 34.7054H67.1389V37.6991L68.9769 35.336L68.1661 34.7054ZM69.1999 33.8899L69.6331 34.8213L69.6424 34.8169L69.1999 33.8899ZM70.5978 34.6113C71.32 34.6113 71.8167 34.8309 72.1897 35.216L73.6656 33.787C72.8542 32.949 71.7977 32.557 70.5978 32.557V34.6113ZM72.1954 35.2219C72.5485 35.5808 72.7887 36.1366 72.7887 37.0352H74.843C74.843 35.7593 74.491 34.6259 73.6598 33.7811L72.1954 35.2219ZM72.7887 37.0352V41.7676H74.843V37.0352H72.7887ZM73.8158 40.7404H71.7773V42.7948H73.8158V40.7404ZM72.8044 41.7676V37.3118H70.7501V41.7676H72.8044ZM72.8044 37.3118C72.8044 36.5079 72.6021 35.7283 72.0441 35.1365L70.5494 36.5458C70.6321 36.6335 70.7501 36.8343 70.7501 37.3118H72.8044ZM72.0539 35.1471C71.5061 34.5494 70.7748 34.2898 69.9862 34.2898V36.3441C70.3043 36.3441 70.4467 36.434 70.5396 36.5352L72.0539 35.1471ZM69.9862 34.2898C69.1933 34.2898 68.4574 34.5455 67.8998 35.1359L69.3934 36.5464C69.496 36.4378 69.6531 36.3441 69.9862 36.3441V34.2898ZM67.8992 35.1365C67.3413 35.7283 67.1389 36.5079 67.1389 37.3118H69.1933C69.1933 36.8343 69.3112 36.6335 69.394 36.5458L67.8992 35.1365ZM67.1389 37.3118V41.7676H69.1933V37.3118H67.1389ZM68.1661 40.7404H66.1275V42.7948H68.1661V40.7404ZM67.1547 41.7676V33.7006H65.1003V41.7676H67.1547ZM66.1275 34.7278H68.1661V32.6735H66.1275V34.7278ZM67.1389 33.7006V34.7054H69.1933V33.7006H67.1389ZM68.9769 35.336C69.1445 35.1205 69.3576 34.9494 69.6331 34.8213L68.7667 32.9586C68.2074 33.2187 67.7313 33.5912 67.3553 34.0747L68.9769 35.336ZM69.6424 34.8169C69.9222 34.6834 70.2357 34.6113 70.5978 34.6113V32.557C69.9503 32.557 69.3319 32.6888 68.7575 32.9629L69.6424 34.8169ZM83.1952 38.3457V39.3729H84.0654L84.2084 38.5145L83.1952 38.3457ZM77.2979 38.3457V37.3185H76.1816L76.2743 38.431L77.2979 38.3457ZM77.9095 39.7144L77.2145 40.4708L77.9095 39.7144ZM80.8509 39.2339V38.2067H80.2118L79.9294 38.7801L80.8509 39.2339ZM83.0496 39.2339L84.0335 39.5291L84.4302 38.2067H83.0496V39.2339ZM81.71 41.156L82.3263 41.9778L82.334 41.9719L81.71 41.156ZM77.1814 41.389L76.6718 42.2808L76.6802 42.2856L76.6886 42.2902L77.1814 41.389ZM75.7399 39.9183L74.8354 40.4053L74.8413 40.416L75.7399 39.9183ZM75.7399 35.5354L74.8355 35.0484V35.0484L75.7399 35.5354ZM77.1669 34.0792L77.6657 34.9771L77.1669 34.0792ZM81.3314 34.0647L80.8375 34.9653L80.8436 34.9686L81.3314 34.0647ZM82.7438 35.4771L81.8399 35.9649L81.8446 35.9735L81.8494 35.9821L82.7438 35.4771ZM81.1421 36.9769V38.0041H82.1885L82.1691 36.9579L81.1421 36.9769ZM80.5742 35.7247L79.9007 36.5002L79.9066 36.5053L79.9126 36.5103L80.5742 35.7247ZM77.9386 35.7101L78.6197 36.479L78.621 36.4778L77.9386 35.7101ZM77.3125 36.9769L76.2956 36.8317L76.1281 38.0041H77.3125V36.9769ZM82.2263 37.5594C82.2263 37.8065 82.2097 38.0107 82.182 38.1768L84.2084 38.5145C84.2584 38.2147 84.2807 37.8947 84.2807 37.5594H82.2263ZM83.1952 37.3185H77.2979V39.3729H83.1952V37.3185ZM76.2743 38.431C76.3398 39.2166 76.6291 39.9328 77.2145 40.4708L78.6045 38.9581C78.4716 38.836 78.3532 38.6397 78.3216 38.2604L76.2743 38.431ZM77.2145 40.4708C77.7781 40.9887 78.4739 41.2367 79.2346 41.2367V39.1823C78.9468 39.1823 78.7592 39.1003 78.6045 38.9581L77.2145 40.4708ZM79.2346 41.2367C79.7621 41.2367 80.278 41.1223 80.7374 40.845C81.1994 40.5661 81.5389 40.1618 81.7723 39.6878L79.9294 38.7801C79.8426 38.9564 79.7525 39.0399 79.6757 39.0862C79.5963 39.1342 79.4643 39.1823 79.2346 39.1823V41.2367ZM80.8509 40.2611H83.0496V38.2067H80.8509V40.2611ZM82.0658 38.9388C81.8966 39.5027 81.5789 39.9631 81.086 40.3401L82.334 41.9719C83.1613 41.3393 83.7367 40.5183 84.0335 39.5291L82.0658 38.9388ZM81.0937 40.3343C80.6395 40.6749 80.055 40.8715 79.2783 40.8715V42.9258C80.4236 42.9258 81.4602 42.6273 82.3263 41.9777L81.0937 40.3343ZM79.2783 40.8715C78.6569 40.8715 78.1302 40.7371 77.6743 40.4878L76.6886 42.2902C77.4753 42.7204 78.3465 42.9258 79.2783 42.9258V40.8715ZM77.6911 40.4971C77.2469 40.2433 76.8991 39.8913 76.6384 39.4206L74.8413 40.416C75.2796 41.2073 75.8929 41.8357 76.6718 42.2808L77.6911 40.4971ZM76.6443 39.4313C76.3966 38.9713 76.2574 38.4152 76.2574 37.7341H74.2031C74.2031 38.7033 74.4037 39.6033 74.8355 40.4053L76.6443 39.4313ZM76.2574 37.7341C76.2574 37.0411 76.3975 36.4807 76.6443 36.0223L74.8355 35.0484C74.4028 35.852 74.2031 36.7574 74.2031 37.7341H76.2574ZM76.6443 36.0223C76.8933 35.5598 77.2302 35.2191 77.6657 34.9771L76.668 33.1813C75.8804 33.6189 75.266 34.2489 74.8355 35.0484L76.6443 36.0223ZM77.6657 34.9771C78.1047 34.7333 78.6324 34.5968 79.2783 34.5968V32.5424C78.3321 32.5424 77.4522 32.7457 76.668 33.1813L77.6657 34.9771ZM79.2783 34.5968C79.8931 34.5968 80.4041 34.7276 80.8375 34.9653L81.8253 33.164C81.055 32.7416 80.1972 32.5424 79.2783 32.5424V34.5968ZM80.8436 34.9686C81.2788 35.2035 81.605 35.5297 81.8399 35.9649L83.6478 34.9893C83.2226 34.2014 82.6071 33.5859 81.8192 33.1607L80.8436 34.9686ZM81.8494 35.9821C82.0907 36.4097 82.2263 36.9253 82.2263 37.5594H84.2807C84.2807 36.6209 84.0765 35.7483 83.6383 34.9722L81.8494 35.9821ZM82.1691 36.9579C82.1544 36.1665 81.8528 35.4585 81.2359 34.939L79.9126 36.5103C80.0334 36.6121 80.1103 36.7389 80.1151 36.9959L82.1691 36.9579ZM81.2477 34.9491C80.6741 34.451 79.9767 34.217 79.22 34.217V36.2713C79.5312 36.2713 79.7366 36.3577 79.9007 36.5002L81.2477 34.9491ZM79.22 34.217C78.4854 34.217 77.8093 34.4507 77.2562 34.9424L78.621 36.4778C78.7669 36.3482 78.9451 36.2713 79.22 36.2713V34.217ZM77.2576 34.9412C76.6992 35.4357 76.4002 36.0997 76.2956 36.8317L78.3293 37.1222C78.3801 36.7669 78.4985 36.5863 78.6197 36.479L77.2576 34.9412ZM77.3125 38.0041H81.1421V35.9497H77.3125V38.0041ZM93.9774 36.5546L93.669 35.5749L93.7891 37.5644L93.9774 36.5546ZM95.3899 37.4138L96.1952 36.7762L95.3899 37.4138ZM95.5355 40.4571L94.6747 39.8966L94.6714 39.9016L95.5355 40.4571ZM94.3851 41.4181L94.8156 42.3507L94.3851 41.4181ZM88.2112 41.7676H87.184V42.7948H88.2112V41.7676ZM88.2112 31.6038V30.5766H87.184V31.6038H88.2112ZM94.1813 31.9387L93.759 32.8751L93.7658 32.8781L94.1813 31.9387ZM95.317 32.8706L94.4496 33.4207L94.4543 33.4282L94.4592 33.4356L95.317 32.8706ZM95.2297 35.7101L94.4295 35.066L94.4247 35.072L94.4199 35.0781L95.2297 35.7101ZM90.2497 35.7975H89.2225V36.8246H90.2497V35.7975ZM93.2348 35.4771L93.8836 36.2734L93.8923 36.2663L93.9009 36.259L93.2348 35.4771ZM93.2348 33.5841L93.9009 32.8022L93.2348 33.5841ZM90.2497 33.2492V32.2221H89.2225V33.2492H90.2497ZM93.4532 39.7581L92.7983 38.9668L92.7915 38.9725L92.7847 38.9782L93.4532 39.7581ZM93.4386 37.7487L92.7659 38.5249L92.7734 38.5314L92.7811 38.5378L93.4386 37.7487ZM90.2497 37.3701V36.3429H89.2225V37.3701H90.2497ZM90.2497 40.1076H89.2225V41.1348H90.2497V40.1076ZM93.7891 37.5644C94.1127 37.6247 94.3662 37.7756 94.5845 38.0513L96.1952 36.7762C95.6757 36.12 94.9876 35.6981 94.1657 35.5449L93.7891 37.5644ZM94.5845 38.0513C94.8078 38.3333 94.916 38.6419 94.916 39.0155H96.9704C96.9704 38.1854 96.7097 37.4261 96.1952 36.7762L94.5845 38.0513ZM94.916 39.0155C94.916 39.379 94.828 39.6611 94.6747 39.8966L96.3962 41.0176C96.7865 40.4182 96.9704 39.7392 96.9704 39.0155H94.916ZM94.6714 39.9016C94.5299 40.1218 94.3087 40.3221 93.9547 40.4855L94.8156 42.3507C95.4711 42.0482 96.0168 41.6078 96.3995 41.0125L94.6714 39.9016ZM93.9547 40.4855C93.6132 40.6431 93.1694 40.7404 92.5941 40.7404V42.7948C93.3972 42.7948 94.1475 42.6591 94.8156 42.3507L93.9547 40.4855ZM92.5941 40.7404H88.2112V42.7948H92.5941V40.7404ZM89.2383 41.7676V31.6038H87.184V41.7676H89.2383ZM88.2112 32.631H92.4048V30.5766H88.2112V32.631ZM92.4048 32.631C92.9863 32.631 93.4273 32.7255 93.759 32.8751L94.6035 31.0024C93.9451 30.7054 93.2018 30.5766 92.4048 30.5766V32.631ZM93.7658 32.8781C94.1173 33.0336 94.3236 33.2221 94.4496 33.4207L96.1845 32.3205C95.8057 31.7232 95.2549 31.2904 94.5968 30.9993L93.7658 32.8781ZM94.4592 33.4356C94.6042 33.6557 94.683 33.9084 94.683 34.2248H96.7374C96.7374 33.5317 96.5541 32.8816 96.1749 32.3057L94.4592 33.4356ZM94.683 34.2248C94.683 34.6218 94.5802 34.8788 94.4295 35.066L96.0299 36.3541C96.5199 35.7453 96.7374 35.0122 96.7374 34.2248H94.683ZM94.4199 35.0781C94.2487 35.2975 94.0131 35.4665 93.669 35.5749L94.2859 37.5344C94.9901 37.3127 95.5894 36.9187 96.0394 36.3421L94.4199 35.0781ZM90.2497 36.8246H92.1136V34.7703H90.2497V36.8246ZM92.1136 36.8246C92.7348 36.8246 93.3731 36.6894 93.8836 36.2734L92.586 34.6808C92.5723 34.6919 92.4631 34.7703 92.1136 34.7703V36.8246ZM93.9009 36.259C94.4349 35.8042 94.6551 35.1781 94.6551 34.5306H92.6008C92.6008 34.6249 92.5857 34.6678 92.5811 34.679C92.5787 34.6848 92.5772 34.6867 92.577 34.6869C92.5769 34.6871 92.5749 34.6899 92.5687 34.6952L93.9009 36.259ZM94.6551 34.5306C94.6551 33.8831 94.4349 33.2571 93.9009 32.8022L92.5687 34.3661C92.5749 34.3714 92.5769 34.3741 92.577 34.3744C92.5772 34.3746 92.5787 34.3765 92.5811 34.3822C92.5857 34.3934 92.6008 34.4364 92.6008 34.5306H94.6551ZM93.9009 32.8022C93.3894 32.3665 92.7441 32.2221 92.1136 32.2221V34.2764C92.4538 34.2764 92.5559 34.3552 92.5687 34.3661L93.9009 32.8022ZM92.1136 32.2221H90.2497V34.2764H92.1136V32.2221ZM89.2225 33.2492V35.7975H91.2769V33.2492H89.2225ZM92.3029 41.1348C92.9495 41.1348 93.6032 40.9824 94.1217 40.538L92.7847 38.9782C92.7596 38.9998 92.6464 39.0804 92.3029 39.0804V41.1348ZM94.1081 40.5495C94.6664 40.0874 94.9027 39.4436 94.9027 38.768H92.8483C92.8483 38.8689 92.8318 38.9171 92.8251 38.9329C92.8202 38.9443 92.8152 38.9528 92.7983 38.9668L94.1081 40.5495ZM94.9027 38.768C94.9027 38.0782 94.6588 37.4284 94.0962 36.9596L92.7811 38.5378C92.801 38.5544 92.8483 38.5841 92.8483 38.768H94.9027ZM94.1114 36.9724C93.5853 36.5165 92.9293 36.3429 92.2592 36.3429V38.3972C92.5792 38.3972 92.7095 38.476 92.7659 38.5249L94.1114 36.9724ZM92.2592 36.3429H90.2497V38.3972H92.2592V36.3429ZM89.2225 37.3701V40.1076H91.2769V37.3701H89.2225ZM90.2497 41.1348H92.3029V39.0804H90.2497V41.1348ZM99.6065 30.9922H100.634V29.9651H99.6065V30.9922ZM99.6065 41.7676V42.7948H100.634V41.7676H99.6065ZM97.5679 41.7676H96.5407V42.7948H97.5679V41.7676ZM97.5679 30.9922V29.9651H96.5407V30.9922H97.5679ZM98.5793 30.9922V41.7676H100.634V30.9922H98.5793ZM99.6065 40.7404H97.5679V42.7948H99.6065V40.7404ZM98.5951 41.7676V30.9922H96.5407V41.7676H98.5951ZM97.5679 32.0194H99.6065V29.9651H97.5679V32.0194ZM104.984 39.8892L104.009 40.2105L104.984 43.1722L105.96 40.2105L104.984 39.8892ZM107.023 33.7006V32.6735H106.28L106.047 33.3793L107.023 33.7006ZM109.192 33.7006L110.156 34.0571L110.668 32.6735H109.192V33.7006ZM106.207 41.7676V42.7948H106.923L107.171 42.124L106.207 41.7676ZM103.732 41.7676L102.768 42.1225L103.016 42.7948H103.732V41.7676ZM100.761 33.7006V32.6735H99.2886L99.7976 34.0556L100.761 33.7006ZM102.946 33.7006L103.921 33.3793L103.689 32.6735H102.946V33.7006ZM105.96 40.2105L107.998 34.022L106.047 33.3793L104.009 39.5678L105.96 40.2105ZM107.023 34.7278H109.192V32.6735H107.023V34.7278ZM108.229 33.3442L105.244 41.4111L107.171 42.124L110.156 34.0571L108.229 33.3442ZM106.207 40.7404H103.732V42.7948H106.207V40.7404ZM104.696 41.4126L101.725 33.3457L99.7976 34.0556L102.768 42.1225L104.696 41.4126ZM100.761 34.7278H102.946V32.6735H100.761V34.7278ZM101.97 34.022L104.009 40.2105L105.96 39.5678L103.921 33.3793L101.97 34.022ZM110.294 35.5354L109.384 35.0592L109.378 35.0704L110.294 35.5354ZM111.633 34.0792L112.164 34.9587L111.633 34.0792ZM115.012 33.9191L114.56 34.8415L114.567 34.8453L114.575 34.8489L115.012 33.9191ZM116.147 34.8219L115.323 35.4348L117.175 37.9246V34.8219H116.147ZM116.147 30.9922V29.9651H115.12V30.9922H116.147ZM118.215 30.9922H119.242V29.9651H118.215V30.9922ZM118.215 41.7676V42.7948H119.242V41.7676H118.215ZM116.147 41.7676H115.12V42.7948H116.147V41.7676ZM116.147 40.5736H117.175V37.0358L115.28 40.0235L116.147 40.5736ZM115.084 41.5346L114.602 40.6277L115.084 41.5346ZM111.633 41.3744L112.175 40.5017L111.633 41.3744ZM110.294 39.9037L109.375 40.3631L109.379 40.3715L109.384 40.3798L110.294 39.9037ZM115.871 36.4673L114.967 36.9557L114.973 36.9661L115.871 36.4673ZM115.084 35.6518L114.564 36.5372L114.573 36.543L114.583 36.5485L115.084 35.6518ZM112.973 35.6373L112.461 34.7471V34.7471L112.973 35.6373ZM112.187 36.4527L111.293 35.9457L111.289 35.9539L112.187 36.4527ZM112.187 38.9864L111.278 39.4648L111.285 39.4792L111.293 39.4934L112.187 38.9864ZM112.973 39.8164L112.441 40.6949L112.452 40.7017L112.973 39.8164ZM115.084 39.8309L115.586 40.7276L115.595 40.722L115.605 40.7163L115.084 39.8309ZM115.871 39.0155L116.769 39.5144L116.774 39.5039L115.871 39.0155ZM110.84 37.705C110.84 37.0265 110.973 36.4667 111.21 36.0003L109.378 35.0704C108.974 35.8659 108.786 36.7526 108.786 37.705H110.84ZM111.204 36.0114C111.454 35.5328 111.775 35.1932 112.164 34.9587L111.103 33.1998C110.365 33.6447 109.793 34.2759 109.384 35.0593L111.204 36.0114ZM112.164 34.9587C112.559 34.7203 113 34.5968 113.512 34.5968V32.5424C112.645 32.5424 111.834 32.7586 111.103 33.1998L112.164 34.9587ZM113.512 34.5968C113.878 34.5968 114.223 34.6767 114.56 34.8415L115.463 32.9966C114.849 32.6955 114.194 32.5424 113.512 32.5424V34.5968ZM114.575 34.8489C114.915 35.0085 115.154 35.2071 115.323 35.4348L116.972 34.2089C116.578 33.6794 116.059 33.2762 115.448 32.9892L114.575 34.8489ZM117.175 34.8219V30.9922H115.12V34.8219H117.175ZM116.147 32.0194H118.215V29.9651H116.147V32.0194ZM117.188 30.9922V41.7676H119.242V30.9922H117.188ZM118.215 40.7404H116.147V42.7948H118.215V40.7404ZM117.175 41.7676V40.5736H115.12V41.7676H117.175ZM115.28 40.0235C115.132 40.257 114.917 40.4603 114.602 40.6277L115.567 42.4415C116.165 42.1235 116.658 41.6861 117.015 41.1236L115.28 40.0235ZM114.602 40.6277C114.317 40.7793 113.959 40.8715 113.497 40.8715V42.9258C114.24 42.9258 114.939 42.7752 115.567 42.4415L114.602 40.6277ZM113.497 40.8715C113.004 40.8715 112.571 40.7475 112.175 40.5017L111.092 42.2472C111.822 42.7002 112.631 42.9258 113.497 42.9258V40.8715ZM112.175 40.5017C111.78 40.2563 111.455 39.9084 111.204 39.4276L109.384 40.3798C109.792 41.161 110.361 41.7936 111.092 42.2472L112.175 40.5017ZM111.213 39.4444C110.974 38.9665 110.84 38.3949 110.84 37.705H108.786C108.786 38.6653 108.973 39.5595 109.375 40.3631L111.213 39.4444ZM117.189 37.7341C117.189 37.1056 117.066 36.5028 116.769 35.9684L114.973 36.9661C115.064 37.1307 115.135 37.3725 115.135 37.7341H117.189ZM116.774 35.9788C116.495 35.4624 116.099 35.0424 115.586 34.7552L114.583 36.5485C114.73 36.6302 114.858 36.7538 114.967 36.9557L116.774 35.9788ZM115.605 34.7665C115.119 34.4806 114.585 34.3334 114.021 34.3334V36.3878C114.215 36.3878 114.39 36.4348 114.564 36.5372L115.605 34.7665ZM114.021 34.3334C113.468 34.3334 112.941 34.4707 112.461 34.7471L113.486 36.5275C113.646 36.435 113.818 36.3878 114.021 36.3878V34.3334ZM112.461 34.7471C111.963 35.0334 111.577 35.4463 111.293 35.9457L113.08 36.9597C113.204 36.7408 113.342 36.61 113.486 36.5275L112.461 34.7471ZM111.289 35.9539C110.994 36.4854 110.868 37.0822 110.868 37.705H112.923C112.923 37.357 112.992 37.1189 113.085 36.9516L111.289 35.9539ZM110.868 37.705C110.868 38.3296 110.994 38.9258 111.278 39.4648L113.096 38.508C112.991 38.3091 112.923 38.0511 112.923 37.705H110.868ZM111.293 39.4934C111.575 39.9892 111.955 40.4006 112.441 40.6948L113.505 38.9379C113.35 38.8438 113.206 38.702 113.08 38.4794L111.293 39.4934ZM112.452 40.7017C112.934 40.985 113.462 41.1348 114.021 41.1348V39.0804C113.843 39.0804 113.672 39.036 113.494 38.931L112.452 40.7017ZM114.021 41.1348C114.575 41.1348 115.102 40.9977 115.586 40.7276L114.583 38.9343C114.407 39.033 114.225 39.0804 114.021 39.0804V41.1348ZM115.605 40.7163C116.1 40.4251 116.49 40.0166 116.769 39.5143L114.973 38.5167C114.864 38.7133 114.729 38.8485 114.564 38.9456L115.605 40.7163ZM116.774 39.5039C117.065 38.966 117.189 38.3638 117.189 37.7341H115.135C115.135 38.0946 115.065 38.3467 114.967 38.5271L116.774 39.5039Z"  fill-opacity="0.5"/>
<g opacity="0.75">
<path d="M22.8302 16.5849V22.3262H22.2477V17.7415L20.2008 22.3262H19.7765L17.7296 17.7581V22.3262H17.1471V16.5849H17.7628L19.9845 21.5607L22.2061 16.5849H22.8302ZM24.4427 16.926C24.3262 16.926 24.2264 16.8844 24.1431 16.8012C24.0599 16.718 24.0183 16.6154 24.0183 16.4933C24.0183 16.3713 24.0599 16.2715 24.1431 16.1938C24.2264 16.1106 24.3262 16.069 24.4427 16.069C24.5592 16.069 24.659 16.1106 24.7422 16.1938C24.8254 16.2715 24.867 16.3713 24.867 16.4933C24.867 16.6154 24.8254 16.718 24.7422 16.8012C24.659 16.8844 24.5592 16.926 24.4427 16.926ZM24.7339 17.7831V22.3262H24.1515V17.7831H24.7339ZM25.7866 20.0463C25.7866 19.5803 25.8781 19.1726 26.0612 18.8231C26.2498 18.4681 26.5077 18.1963 26.835 18.0077C27.1679 17.8136 27.5423 17.7165 27.9583 17.7165C28.391 17.7165 28.7627 17.8163 29.0733 18.016C29.3895 18.2157 29.6169 18.4709 29.7556 18.7815V17.7831H30.3381V22.3262H29.7556V21.3194C29.6114 21.63 29.3812 21.8879 29.065 22.0932C28.7543 22.2929 28.3827 22.3927 27.95 22.3927C27.5395 22.3927 27.1679 22.2957 26.835 22.1015C26.5077 21.9074 26.2498 21.6328 26.0612 21.2778C25.8781 20.9227 25.7866 20.5123 25.7866 20.0463ZM29.7556 20.0546C29.7556 19.6885 29.6807 19.3668 29.5309 19.0894C29.3812 18.8121 29.1759 18.5985 28.9152 18.4487C28.66 18.2989 28.3771 18.2241 28.0665 18.2241C27.7448 18.2241 27.4563 18.2962 27.2011 18.4404C26.946 18.5846 26.7435 18.7954 26.5937 19.0728C26.4495 19.3446 26.3774 19.6691 26.3774 20.0463C26.3774 20.418 26.4495 20.7452 26.5937 21.0281C26.7435 21.3055 26.946 21.5191 27.2011 21.6688C27.4563 21.8131 27.7448 21.8852 28.0665 21.8852C28.3771 21.8852 28.66 21.8103 28.9152 21.6605C29.1759 21.5107 29.3812 21.2972 29.5309 21.0198C29.6807 20.7425 29.7556 20.4207 29.7556 20.0546ZM37.0762 17.6998C37.6087 17.6998 38.0414 17.869 38.3742 18.2074C38.7126 18.5402 38.8818 19.0256 38.8818 19.6635V22.3262H38.3077V19.7301C38.3077 19.2364 38.1884 18.8592 37.9499 18.5985C37.7114 18.3378 37.3869 18.2074 36.9764 18.2074C36.5492 18.2074 36.2081 18.3489 35.9529 18.6318C35.6977 18.9147 35.5702 19.3252 35.5702 19.8632V22.3262H34.996V19.7301C34.996 19.2364 34.8768 18.8592 34.6382 18.5985C34.3997 18.3378 34.0724 18.2074 33.6564 18.2074C33.2293 18.2074 32.8881 18.3489 32.6329 18.6318C32.3778 18.9147 32.2502 19.3252 32.2502 19.8632V22.3262H31.6677V17.7831H32.2502V18.5652C32.3944 18.2823 32.5997 18.0687 32.8659 17.9245C33.1322 17.7747 33.429 17.6998 33.7562 17.6998C34.1501 17.6998 34.494 17.7941 34.788 17.9828C35.0876 18.1714 35.3039 18.4487 35.437 18.8148C35.5591 18.4543 35.7671 18.1797 36.0611 17.9911C36.3606 17.7969 36.699 17.6998 37.0762 17.6998ZM40.4666 16.926C40.3501 16.926 40.2502 16.8844 40.167 16.8012C40.0838 16.718 40.0422 16.6154 40.0422 16.4933C40.0422 16.3713 40.0838 16.2715 40.167 16.1938C40.2502 16.1106 40.3501 16.069 40.4666 16.069C40.5831 16.069 40.6829 16.1106 40.7661 16.1938C40.8493 16.2715 40.8909 16.3713 40.8909 16.4933C40.8909 16.6154 40.8493 16.718 40.7661 16.8012C40.6829 16.8844 40.5831 16.926 40.4666 16.926ZM40.7578 17.7831V22.3262H40.1754V17.7831H40.7578ZM42.6093 21.361L41.7439 23.541H41.3446L41.9603 21.361H42.6093ZM48.9436 16.51V16.9926H46.3808V19.1643H48.5442V19.6469H46.3808V22.3262H45.7984V16.51H48.9436ZM50.4843 21.8519H52.5728V22.3262H49.9018V16.51H50.4843V21.8519Z" fill="#CCD2D7"/>
<path d="M22.8302 16.5849H23.4216V15.9935H22.8302V16.5849ZM22.8302 22.3262V22.9176H23.4216V22.3262H22.8302ZM22.2477 22.3262H21.6563V22.9176H22.2477V22.3262ZM22.2477 17.7415H22.8391L21.7077 17.5004L22.2477 17.7415ZM20.2008 22.3262V22.9176H20.5844L20.7408 22.5673L20.2008 22.3262ZM19.7765 22.3262L19.2368 22.568L19.3934 22.9176H19.7765V22.3262ZM17.7296 17.7581L18.2693 17.5163L17.1382 17.7581H17.7296ZM17.7296 22.3262V22.9176H18.321V22.3262H17.7296ZM17.1471 22.3262H16.5557V22.9176H17.1471V22.3262ZM17.1471 16.5849V15.9935H16.5557V16.5849H17.1471ZM17.7628 16.5849L18.3029 16.3438L18.1465 15.9935H17.7628V16.5849ZM19.9845 21.5607L19.4445 21.8018L19.9845 23.0113L20.5245 21.8018L19.9845 21.5607ZM22.2061 16.5849V15.9935H21.8225L21.6661 16.3438L22.2061 16.5849ZM22.2388 16.5849V22.3262H23.4216V16.5849H22.2388ZM22.8302 21.7348H22.2477V22.9176H22.8302V21.7348ZM22.8391 22.3262V17.7415H21.6563V22.3262H22.8391ZM21.7077 17.5004L19.6608 22.0851L20.7408 22.5673L22.7877 17.9826L21.7077 17.5004ZM20.2008 21.7348H19.7765V22.9176H20.2008V21.7348ZM20.3162 22.0843L18.2693 17.5163L17.1899 17.9999L19.2368 22.568L20.3162 22.0843ZM17.1382 17.7581V22.3262H18.321V17.7581H17.1382ZM17.7296 21.7348H17.1471V22.9176H17.7296V21.7348ZM17.7385 22.3262V16.5849H16.5557V22.3262H17.7385ZM17.1471 17.1763H17.7628V15.9935H17.1471V17.1763ZM17.2228 16.826L19.4445 21.8018L20.5245 21.3196L18.3029 16.3438L17.2228 16.826ZM20.5245 21.8018L22.7461 16.826L21.6661 16.3438L19.4445 21.3196L20.5245 21.8018ZM22.2061 17.1763H22.8302V15.9935H22.2061V17.1763ZM24.1431 16.1938L24.5467 16.6261L24.5541 16.6192L24.5613 16.612L24.1431 16.1938ZM24.7422 16.1938L24.3241 16.612L24.3313 16.6192L24.3387 16.6261L24.7422 16.1938ZM24.7339 17.7831H25.3253V17.1917H24.7339V17.7831ZM24.7339 22.3262V22.9176H25.3253V22.3262H24.7339ZM24.1515 22.3262H23.5601V22.9176H24.1515V22.3262ZM24.1515 17.7831V17.1917H23.5601V17.7831H24.1515ZM24.4427 16.3346C24.4565 16.3346 24.4804 16.3374 24.5079 16.3489C24.5353 16.3603 24.5531 16.3748 24.5613 16.383L23.725 17.2194C23.9178 17.4122 24.1676 17.5174 24.4427 17.5174V16.3346ZM24.5613 16.383C24.5721 16.3938 24.5868 16.4131 24.5976 16.4396C24.6082 16.4658 24.6097 16.486 24.6097 16.4933H23.4269C23.4269 16.7657 23.5263 17.0208 23.725 17.2194L24.5613 16.383ZM24.6097 16.4933C24.6097 16.5004 24.6083 16.5236 24.5954 16.5544C24.5822 16.5861 24.5633 16.6106 24.5467 16.6261L23.7396 15.7614C23.5272 15.9597 23.4269 16.2206 23.4269 16.4933H24.6097ZM24.5613 16.612C24.5531 16.6202 24.5353 16.6347 24.5079 16.6461C24.4804 16.6576 24.4565 16.6604 24.4427 16.6604V15.4776C24.1676 15.4776 23.9178 15.5828 23.725 15.7756L24.5613 16.612ZM24.4427 16.6604C24.4289 16.6604 24.405 16.6576 24.3775 16.6461C24.3501 16.6347 24.3322 16.6202 24.3241 16.612L25.1604 15.7756C24.9676 15.5828 24.7178 15.4776 24.4427 15.4776V16.6604ZM24.3387 16.6261C24.3221 16.6106 24.3032 16.5861 24.2899 16.5544C24.2771 16.5236 24.2756 16.5004 24.2756 16.4933H25.4584C25.4584 16.2206 25.3582 15.9597 25.1458 15.7614L24.3387 16.6261ZM24.2756 16.4933C24.2756 16.486 24.2772 16.4658 24.2878 16.4396C24.2985 16.4131 24.3132 16.3938 24.3241 16.383L25.1604 17.2194C25.359 17.0208 25.4584 16.7657 25.4584 16.4933H24.2756ZM24.3241 16.383C24.3322 16.3748 24.3501 16.3603 24.3775 16.3489C24.405 16.3374 24.4289 16.3346 24.4427 16.3346V17.5174C24.7178 17.5174 24.9676 17.4122 25.1604 17.2194L24.3241 16.383ZM24.1425 17.7831V22.3262H25.3253V17.7831H24.1425ZM24.7339 21.7348H24.1515V22.9176H24.7339V21.7348ZM24.7429 22.3262V17.7831H23.5601V22.3262H24.7429ZM24.1515 18.3745H24.7339V17.1917H24.1515V18.3745ZM26.0612 18.8231L25.5389 18.5457L25.5373 18.5487L26.0612 18.8231ZM26.835 18.0077L27.1303 18.5201L27.133 18.5186L26.835 18.0077ZM29.0733 18.016L28.7535 18.5135L28.7575 18.5161L29.0733 18.016ZM29.7556 18.7815L29.2156 19.0226L30.347 18.7815H29.7556ZM29.7556 17.7831V17.1917H29.1642V17.7831H29.7556ZM30.3381 17.7831H30.9295V17.1917H30.3381V17.7831ZM30.3381 22.3262V22.9176H30.9295V22.3262H30.3381ZM29.7556 22.3262H29.1642V22.9176H29.7556V22.3262ZM29.7556 21.3194H30.347L29.2192 21.0703L29.7556 21.3194ZM29.065 22.0932L29.3848 22.5907L29.387 22.5892L29.065 22.0932ZM26.835 22.1015L26.5333 22.6102L26.537 22.6124L26.835 22.1015ZM26.0612 21.2778L25.5355 21.5488L25.5389 21.5552L26.0612 21.2778ZM29.5309 19.0894L30.0513 18.8084H30.0513L29.5309 19.0894ZM28.9152 18.4487L28.6158 18.9588L28.6206 18.9615L28.9152 18.4487ZM27.2011 18.4404L27.4921 18.9552L27.2011 18.4404ZM26.5937 19.0728L26.0733 18.7918L26.0713 18.7956L26.5937 19.0728ZM26.5937 21.0281L26.0667 21.2968L26.0733 21.3091L26.5937 21.0281ZM27.2011 21.6688L26.9017 22.1789L26.9101 22.1837L27.2011 21.6688ZM28.9152 21.6605L28.6206 21.1477L28.6158 21.1505L28.9152 21.6605ZM29.5309 21.0198L30.0513 21.3008V21.3008L29.5309 21.0198ZM26.378 20.0463C26.378 19.6586 26.4538 19.3483 26.5851 19.0976L25.5373 18.5487C25.3025 18.997 25.1952 19.502 25.1952 20.0463H26.378ZM26.5835 19.1006C26.7235 18.8371 26.9055 18.6497 27.1303 18.5201L26.5397 17.4953C26.11 17.743 25.7761 18.0992 25.5389 18.5457L26.5835 19.1006ZM27.133 18.5186C27.3682 18.3814 27.6384 18.3079 27.9583 18.3079V17.1251C27.4462 17.1251 26.9675 17.2458 26.537 17.4969L27.133 18.5186ZM27.9583 18.3079C28.2974 18.3079 28.5537 18.385 28.7535 18.5135L29.3931 17.5186C28.9717 17.2476 28.4846 17.1251 27.9583 17.1251V18.3079ZM28.7575 18.5161C28.9852 18.6599 29.1291 18.829 29.2156 19.0226L30.2956 18.5405C30.1047 18.1128 29.7937 17.7716 29.3891 17.516L28.7575 18.5161ZM30.347 18.7815V17.7831H29.1642V18.7815H30.347ZM29.7556 18.3745H30.3381V17.1917H29.7556V18.3745ZM29.7467 17.7831V22.3262H30.9295V17.7831H29.7467ZM30.3381 21.7348H29.7556V22.9176H30.3381V21.7348ZM30.347 22.3262V21.3194H29.1642V22.3262H30.347ZM29.2192 21.0703C29.1264 21.2701 28.9756 21.4461 28.743 21.5971L29.387 22.5892C29.7867 22.3298 30.0963 21.9899 30.292 21.5684L29.2192 21.0703ZM28.7452 21.5957C28.5453 21.7242 28.2891 21.8013 27.95 21.8013V22.9841C28.4763 22.9841 28.9633 22.8616 29.3848 22.5907L28.7452 21.5957ZM27.95 21.8013C27.6371 21.8013 27.3695 21.7286 27.133 21.5907L26.537 22.6124C26.9663 22.8627 27.4419 22.9841 27.95 22.9841V21.8013ZM27.1368 21.5929C26.9082 21.4573 26.7242 21.2651 26.5835 21.0003L25.5389 21.5552C25.7754 22.0004 26.1073 22.3575 26.5333 22.6102L27.1368 21.5929ZM26.5868 21.0067C26.4537 20.7485 26.378 20.4337 26.378 20.0463H25.1952C25.1952 20.5908 25.3026 21.097 25.5356 21.5488L26.5868 21.0067ZM30.347 20.0546C30.347 19.6063 30.2547 19.1851 30.0513 18.8084L29.0106 19.3704C29.1067 19.5484 29.1642 19.7707 29.1642 20.0546H30.347ZM30.0513 18.8084C29.8519 18.4392 29.5706 18.1432 29.2098 17.9359L28.6206 18.9615C28.7813 19.0538 28.9104 19.1849 29.0106 19.3704L30.0513 18.8084ZM29.2146 17.9387C28.864 17.7329 28.4769 17.6327 28.0665 17.6327V18.8155C28.2774 18.8155 28.456 18.865 28.6158 18.9587L29.2146 17.9387ZM28.0665 17.6327C27.653 17.6327 27.2626 17.7263 26.9101 17.9255L27.4921 18.9552C27.65 18.866 27.8365 18.8155 28.0665 18.8155V17.6327ZM26.9101 17.9255C26.5507 18.1287 26.2719 18.4241 26.0733 18.7918L27.1141 19.3538C27.2151 19.1667 27.3413 19.0405 27.4921 18.9552L26.9101 17.9255ZM26.0713 18.7956C25.8727 19.17 25.786 19.594 25.786 20.0463H26.9688C26.9688 19.7442 27.0263 19.5192 27.1161 19.35L26.0713 18.7956ZM25.786 20.0463C25.786 20.4954 25.8735 20.9176 26.0668 21.2967L27.1206 20.7595C27.0255 20.5729 26.9688 20.3405 26.9688 20.0463H25.786ZM26.0733 21.3091C26.271 21.6751 26.5472 21.9708 26.9018 22.1789L27.5005 21.1588C27.3447 21.0673 27.216 20.9359 27.1141 20.7471L26.0733 21.3091ZM26.9101 22.1837C27.2626 22.3829 27.653 22.4766 28.0665 22.4766V21.2938C27.8365 21.2938 27.65 21.2432 27.4921 21.154L26.9101 22.1837ZM28.0665 22.4766C28.4769 22.4766 28.864 22.3763 29.2146 22.1705L28.6158 21.1505C28.456 21.2443 28.2774 21.2938 28.0665 21.2938V22.4766ZM29.2098 22.1733C29.5706 21.9661 29.8519 21.67 30.0513 21.3008L29.0106 20.7388C28.9104 20.9243 28.7813 21.0554 28.6206 21.1477L29.2098 22.1733ZM30.0513 21.3008C30.2547 20.9241 30.347 20.5029 30.347 20.0546H29.1642C29.1642 20.3385 29.1067 20.5608 29.0106 20.7388L30.0513 21.3008ZM38.3743 18.2074L37.9526 18.6222L37.9595 18.629L38.3743 18.2074ZM38.8818 22.3262V22.9176H39.4732V22.3262H38.8818ZM38.3077 22.3262H37.7163V22.9176H38.3077V22.3262ZM37.9499 18.5985L37.5136 18.9977L37.9499 18.5985ZM35.9529 18.6318L35.5138 18.2357L35.9529 18.6318ZM35.5702 22.3262V22.9176H36.1616V22.3262H35.5702ZM34.996 22.3262H34.4046V22.9176H34.996V22.3262ZM34.6382 18.5985L34.2019 18.9977L34.2019 18.9977L34.6382 18.5985ZM32.6329 18.6318L32.1938 18.2357H32.1938L32.6329 18.6318ZM32.2502 22.3262V22.9176H32.8416V22.3262H32.2502ZM31.6677 22.3262H31.0763V22.9176H31.6677V22.3262ZM31.6677 17.7831V17.1917H31.0763V17.7831H31.6677ZM32.2502 17.7831H32.8416V17.1917H32.2502V17.7831ZM32.2502 18.5652H31.6588L32.7771 18.8338L32.2502 18.5652ZM32.8659 17.9245L33.1476 18.4446L33.1559 18.44L32.8659 17.9245ZM34.788 17.9828L34.4687 18.4806L34.4729 18.4832L34.788 17.9828ZM35.437 18.8148L34.8812 19.0169L35.457 20.6004L35.9972 19.0044L35.437 18.8148ZM36.0611 17.9911L36.3804 18.4889L36.3827 18.4874L36.0611 17.9911ZM37.0762 18.2913C37.4714 18.2913 37.745 18.411 37.9526 18.6221L38.7959 17.7927C38.3378 17.327 37.7461 17.1084 37.0762 17.1084V18.2913ZM37.9595 18.629C38.1502 18.8166 38.2904 19.1278 38.2904 19.6635H39.4732C39.4732 18.9234 39.275 18.2639 38.789 17.7858L37.9595 18.629ZM38.2904 19.6635V22.3262H39.4732V19.6635H38.2904ZM38.8818 21.7348H38.3077V22.9176H38.8818V21.7348ZM38.8991 22.3262V19.7301H37.7163V22.3262H38.8991ZM38.8991 19.7301C38.8991 19.1475 38.7581 18.6058 38.3862 18.1993L37.5136 18.9977C37.6187 19.1126 37.7163 19.3254 37.7163 19.7301H38.8991ZM38.3862 18.1993C38.0172 17.796 37.5234 17.616 36.9764 17.616V18.7988C37.2503 18.7988 37.4055 18.8796 37.5136 18.9977L38.3862 18.1993ZM36.9764 17.616C36.4043 17.616 35.8953 17.8126 35.5138 18.2357L36.3921 19.0279C36.5208 18.8851 36.6941 18.7988 36.9764 18.7988V17.616ZM35.5138 18.2357C35.1267 18.6648 34.9788 19.239 34.9788 19.8632H36.1616C36.1616 19.4114 36.2688 19.1645 36.3921 19.0279L35.5138 18.2357ZM34.9788 19.8632V22.3262H36.1616V19.8632H34.9788ZM35.5702 21.7348H34.996V22.9176H35.5702V21.7348ZM35.5874 22.3262V19.7301H34.4046V22.3262H35.5874ZM35.5874 19.7301C35.5874 19.1475 35.4465 18.6058 35.0746 18.1993L34.2019 18.9977C34.3071 19.1126 34.4046 19.3254 34.4046 19.7301H35.5874ZM35.0746 18.1993C34.704 17.7942 34.2063 17.616 33.6564 17.616V18.7988C33.9386 18.7988 34.0954 18.8813 34.2019 18.9977L35.0746 18.1993ZM33.6564 17.616C33.0844 17.616 32.5754 17.8126 32.1938 18.2357L33.0721 19.0279C33.2009 18.8851 33.3742 18.7988 33.6564 18.7988V17.616ZM32.1938 18.2357C31.8067 18.6648 31.6588 19.239 31.6588 19.8632H32.8416C32.8416 19.4114 32.9489 19.1645 33.0721 19.0279L32.1938 18.2357ZM31.6588 19.8632V22.3262H32.8416V19.8632H31.6588ZM32.2502 21.7348H31.6677V22.9176H32.2502V21.7348ZM32.2591 22.3262V17.7831H31.0763V22.3262H32.2591ZM31.6677 18.3745H32.2502V17.1917H31.6677V18.3745ZM31.6588 17.7831V18.5652H32.8416V17.7831H31.6588ZM32.7771 18.8338C32.8697 18.6521 32.9919 18.5288 33.1476 18.4445L32.5843 17.4045C32.2074 17.6086 31.9191 17.9125 31.7233 18.2966L32.7771 18.8338ZM33.1559 18.44C33.3273 18.3435 33.5231 18.2913 33.7562 18.2913V17.1084C33.3349 17.1084 32.9371 17.2059 32.576 17.4091L33.1559 18.44ZM33.7562 18.2913C34.0518 18.2913 34.2818 18.3606 34.4687 18.4805L35.1073 17.485C34.7063 17.2277 34.2484 17.1084 33.7562 17.1084V18.2913ZM34.4729 18.4832C34.65 18.5947 34.7882 18.7611 34.8812 19.0169L35.9928 18.6127C35.8196 18.1363 35.5251 17.748 35.1031 17.4823L34.4729 18.4832ZM35.9972 19.0044C36.0804 18.7588 36.2097 18.5984 36.3804 18.4889L35.7418 17.4933C35.3245 17.761 35.0378 18.1498 34.8768 18.6252L35.9972 19.0044ZM36.3827 18.4874C36.581 18.3589 36.8064 18.2913 37.0762 18.2913V17.1084C36.5917 17.1084 36.1403 17.235 35.7394 17.4948L36.3827 18.4874ZM40.167 16.1938L40.5706 16.6261L40.578 16.6192L40.5852 16.612L40.167 16.1938ZM40.7661 16.1938L40.3479 16.612L40.3552 16.6192L40.3626 16.6261L40.7661 16.1938ZM40.7578 17.7831H41.3492V17.1917H40.7578V17.7831ZM40.7578 22.3262V22.9176H41.3492V22.3262H40.7578ZM40.1754 22.3262H39.584V22.9176H40.1754V22.3262ZM40.1754 17.7831V17.1917H39.584V17.7831H40.1754ZM40.4666 16.3346C40.4804 16.3346 40.5042 16.3374 40.5318 16.3489C40.5592 16.3603 40.577 16.3748 40.5852 16.383L39.7489 17.2194C39.9417 17.4122 40.1915 17.5174 40.4666 17.5174V16.3346ZM40.5852 16.383C40.596 16.3938 40.6107 16.4131 40.6215 16.4396C40.6321 16.4658 40.6336 16.486 40.6336 16.4933H39.4508C39.4508 16.7657 39.5502 17.0208 39.7489 17.2194L40.5852 16.383ZM40.6336 16.4933C40.6336 16.5004 40.6322 16.5236 40.6193 16.5544C40.6061 16.5861 40.5872 16.6106 40.5706 16.6261L39.7635 15.7614C39.5511 15.9597 39.4508 16.2206 39.4508 16.4933H40.6336ZM40.5852 16.612C40.577 16.6202 40.5592 16.6347 40.5318 16.6461C40.5042 16.6576 40.4804 16.6604 40.4666 16.6604V15.4776C40.1915 15.4776 39.9417 15.5828 39.7489 15.7756L40.5852 16.612ZM40.4666 16.6604C40.4528 16.6604 40.4289 16.6576 40.4014 16.6461C40.374 16.6347 40.3561 16.6202 40.3479 16.612L41.1843 15.7756C40.9915 15.5828 40.7417 15.4776 40.4666 15.4776V16.6604ZM40.3626 16.6261C40.346 16.6106 40.3271 16.5861 40.3138 16.5544C40.301 16.5236 40.2995 16.5004 40.2995 16.4933H41.4823C41.4823 16.2206 41.3821 15.9597 41.1697 15.7614L40.3626 16.6261ZM40.2995 16.4933C40.2995 16.486 40.3011 16.4658 40.3117 16.4396C40.3224 16.4131 40.3371 16.3938 40.3479 16.383L41.1843 17.2194C41.3829 17.0208 41.4823 16.7657 41.4823 16.4933H40.2995ZM40.3479 16.383C40.3561 16.3748 40.374 16.3603 40.4014 16.3489C40.4289 16.3374 40.4528 16.3346 40.4666 16.3346V17.5174C40.7417 17.5174 40.9915 17.4122 41.1843 17.2194L40.3479 16.383ZM40.1664 17.7831V22.3262H41.3492V17.7831H40.1664ZM40.7578 21.7348H40.1754V22.9176H40.7578V21.7348ZM40.7668 22.3262V17.7831H39.584V22.3262H40.7668ZM40.1754 18.3745H40.7578V17.1917H40.1754V18.3745ZM42.6093 21.361L43.159 21.5792L43.4804 20.7696H42.6093V21.361ZM41.7439 23.541V24.1324H42.1455L42.2936 23.7592L41.7439 23.541ZM41.3446 23.541L40.7754 23.3802L40.563 24.1324H41.3446V23.541ZM41.9603 21.361V20.7696H41.5128L41.3911 21.2002L41.9603 21.361ZM42.0596 21.1428L41.1943 23.3228L42.2936 23.7592L43.159 21.5792L42.0596 21.1428ZM41.7439 22.9496H41.3446V24.1324H41.7439V22.9496ZM41.9137 23.7017L42.5294 21.5217L41.3911 21.2002L40.7754 23.3802L41.9137 23.7017ZM41.9603 21.9524H42.6093V20.7696H41.9603V21.9524ZM48.9436 16.51H49.535V15.9186H48.9436V16.51ZM48.9436 16.9926V17.584H49.535V16.9926H48.9436ZM46.3808 16.9926V16.4012H45.7894V16.9926H46.3808ZM46.3808 19.1643H45.7894V19.7557H46.3808V19.1643ZM48.5442 19.1643H49.1356V18.5729H48.5442V19.1643ZM48.5442 19.6469V20.2383H49.1356V19.6469H48.5442ZM46.3808 19.6469V19.0555H45.7894V19.6469H46.3808ZM46.3808 22.3262V22.9176H46.9722V22.3262H46.3808ZM45.7984 22.3262H45.2069V22.9176H45.7984V22.3262ZM45.7984 16.51V15.9186H45.2069V16.51H45.7984ZM48.3522 16.51V16.9926H49.535V16.51H48.3522ZM48.9436 16.4012H46.3808V17.584H48.9436V16.4012ZM45.7894 16.9926V19.1643H46.9722V16.9926H45.7894ZM46.3808 19.7557H48.5442V18.5729H46.3808V19.7557ZM47.9528 19.1643V19.6469H49.1356V19.1643H47.9528ZM48.5442 19.0555H46.3808V20.2383H48.5442V19.0555ZM45.7894 19.6469V22.3262H46.9722V19.6469H45.7894ZM46.3808 21.7348H45.7984V22.9176H46.3808V21.7348ZM46.3898 22.3262V16.51H45.2069V22.3262H46.3898ZM45.7984 17.1014H48.9436V15.9186H45.7984V17.1014ZM50.4843 21.8519H49.8929V22.4433H50.4843V21.8519ZM52.5728 21.8519H53.1642V21.2605H52.5728V21.8519ZM52.5728 22.3262V22.9176H53.1642V22.3262H52.5728ZM49.9018 22.3262H49.3104V22.9176H49.9018V22.3262ZM49.9018 16.51V15.9186H49.3104V16.51H49.9018ZM50.4843 16.51H51.0757V15.9186H50.4843V16.51ZM50.4843 22.4433H52.5728V21.2605H50.4843V22.4433ZM51.9814 21.8519V22.3262H53.1642V21.8519H51.9814ZM52.5728 21.7348H49.9018V22.9176H52.5728V21.7348ZM50.4932 22.3262V16.51H49.3104V22.3262H50.4932ZM49.9018 17.1014H50.4843V15.9186H49.9018V17.1014ZM49.8929 16.51V21.8519H51.0757V16.51H49.8929Z" fill="#0D6EFD" fill-opacity="0.5"/>
</g>
<defs>
<filter id="filter0_b_6598_10593" x="-17.9916" y="-17.4614" width="190.731" height="135.663" filterUnits="userSpaceOnUse" color-interpolation-filters="sRGB">
<feFlood flood-opacity="0" result="BackgroundImageFix"/>
<feGaussianBlur in="BackgroundImageFix" stdDeviation="9.10079"/>
<feComposite in2="SourceAlpha" operator="in" result="effect1_backgroundBlur_6598_10593"/>
<feBlend mode="normal" in="SourceGraphic" in2="effect1_backgroundBlur_6598_10593" result="shape"/>
</filter>
</defs>
</svg>
