<svg width="254" height="163" viewBox="0 0 254 163" fill="none" xmlns="http://www.w3.org/2000/svg">
<g filter="url(#filter0_b_6467_10548)">
<path d="M0.301086 0.314453L19.5232 4.15888C20.6399 4.38221 21.7759 4.4947 22.9146 4.4947H235.95C245.5 4.4947 253.242 12.237 253.242 21.7876V145.707C253.242 155.258 245.5 163 235.95 163H21.7742C12.2236 163 4.48133 155.258 4.48133 145.707V23.893C4.48133 22.8072 4.37907 21.7239 4.17591 20.6573L0.301086 0.314453Z" fill="#052034" fill-opacity="0.25"/>
<path d="M4.59456 20.5775L0.838166 0.856483L19.4396 4.57678C20.5838 4.80561 21.7478 4.92087 22.9146 4.92087H235.95C245.265 4.92087 252.816 12.4724 252.816 21.7876V145.707C252.816 155.023 245.265 162.574 235.95 162.574H21.7742C12.459 162.574 4.9075 155.023 4.9075 145.707V23.893C4.9075 22.7805 4.80272 21.6704 4.59456 20.5775Z" stroke="#0D6EFD" stroke-opacity="0.5" stroke-width="0.852347"/>
</g>
<path opacity="0.75" d="M120.619 103.651L117.564 109.474V113.184H116.61V109.474L113.528 103.651H114.605L117.087 108.601L119.556 103.651H120.619ZM122.494 104.333C122.303 104.333 122.139 104.265 122.003 104.128C121.866 103.992 121.798 103.824 121.798 103.624C121.798 103.424 121.866 103.26 122.003 103.133C122.139 102.996 122.303 102.928 122.494 102.928C122.685 102.928 122.848 102.996 122.985 103.133C123.121 103.26 123.189 103.424 123.189 103.624C123.189 103.824 123.121 103.992 122.985 104.128C122.848 104.265 122.685 104.333 122.494 104.333ZM122.971 105.737V113.184H122.016V105.737H122.971ZM131.87 109.079C131.87 109.406 131.861 109.656 131.843 109.829H125.665C125.692 110.392 125.828 110.874 126.074 111.274C126.319 111.674 126.642 111.979 127.042 112.188C127.442 112.388 127.879 112.488 128.351 112.488C128.97 112.488 129.488 112.338 129.906 112.038C130.333 111.738 130.615 111.333 130.752 110.824H131.761C131.579 111.552 131.188 112.147 130.588 112.611C129.997 113.065 129.251 113.293 128.351 113.293C127.651 113.293 127.024 113.138 126.469 112.829C125.915 112.511 125.478 112.065 125.16 111.493C124.851 110.911 124.696 110.233 124.696 109.461C124.696 108.688 124.851 108.01 125.16 107.429C125.469 106.847 125.901 106.401 126.456 106.092C127.01 105.783 127.642 105.628 128.351 105.628C129.061 105.628 129.679 105.783 130.206 106.092C130.742 106.401 131.152 106.819 131.433 107.347C131.724 107.865 131.87 108.442 131.87 109.079ZM130.902 109.051C130.911 108.497 130.797 108.024 130.561 107.633C130.333 107.242 130.02 106.947 129.62 106.747C129.22 106.547 128.783 106.447 128.31 106.447C127.601 106.447 126.997 106.674 126.497 107.129C125.997 107.583 125.719 108.224 125.665 109.051H130.902ZM134.571 103.092V113.184H133.616V103.092H134.571ZM136.296 109.447C136.296 108.683 136.451 108.015 136.76 107.442C137.069 106.86 137.492 106.415 138.028 106.106C138.574 105.787 139.188 105.628 139.869 105.628C140.524 105.628 141.115 105.787 141.642 106.106C142.17 106.424 142.556 106.838 142.802 107.347V103.092H143.756V113.184H142.802V111.52C142.574 112.038 142.201 112.465 141.683 112.802C141.165 113.129 140.556 113.293 139.856 113.293C139.174 113.293 138.56 113.134 138.015 112.815C137.478 112.497 137.056 112.047 136.746 111.465C136.446 110.883 136.296 110.211 136.296 109.447ZM142.802 109.461C142.802 108.86 142.679 108.333 142.433 107.879C142.188 107.424 141.851 107.074 141.424 106.828C141.006 106.583 140.542 106.46 140.033 106.46C139.506 106.46 139.033 106.578 138.615 106.815C138.197 107.051 137.865 107.397 137.619 107.851C137.383 108.297 137.265 108.829 137.265 109.447C137.265 110.056 137.383 110.592 137.619 111.056C137.865 111.511 138.197 111.861 138.615 112.106C139.033 112.343 139.506 112.461 140.033 112.461C140.542 112.461 141.006 112.338 141.424 112.093C141.851 111.847 142.188 111.497 142.433 111.042C142.679 110.588 142.802 110.061 142.802 109.461Z" fill="#CCD2D7"/>
<path d="M114.087 131.569V128.491H119.839V145.889H116.402V131.569H114.087ZM124.189 142.118C125.717 140.845 126.934 139.787 127.841 138.944C128.748 138.085 129.503 137.194 130.108 136.271C130.713 135.348 131.015 134.441 131.015 133.55C131.015 132.739 130.824 132.102 130.442 131.641C130.06 131.179 129.472 130.949 128.676 130.949C127.881 130.949 127.268 131.219 126.838 131.76C126.409 132.285 126.186 133.009 126.17 133.932H122.924C122.988 132.023 123.553 130.575 124.619 129.588C125.701 128.602 127.069 128.109 128.724 128.109C130.538 128.109 131.93 128.594 132.9 129.565C133.871 130.519 134.356 131.784 134.356 133.359C134.356 134.6 134.022 135.786 133.354 136.915C132.686 138.045 131.922 139.031 131.063 139.875C130.204 140.702 129.082 141.704 127.698 142.882H134.738V145.65H122.948V143.168L124.189 142.118ZM138.705 146.056C138.1 146.056 137.599 145.873 137.201 145.507C136.82 145.125 136.629 144.656 136.629 144.099C136.629 143.542 136.82 143.08 137.201 142.715C137.599 142.333 138.1 142.142 138.705 142.142C139.294 142.142 139.779 142.333 140.161 142.715C140.543 143.08 140.734 143.542 140.734 144.099C140.734 144.656 140.543 145.125 140.161 145.507C139.779 145.873 139.294 146.056 138.705 146.056ZM154.737 131.378H147.005V135.459C147.339 135.046 147.816 134.712 148.437 134.457C149.057 134.187 149.717 134.051 150.417 134.051C151.69 134.051 152.732 134.33 153.544 134.887C154.355 135.443 154.944 136.159 155.31 137.034C155.676 137.894 155.859 138.816 155.859 139.803C155.859 141.633 155.334 143.104 154.284 144.218C153.249 145.332 151.77 145.889 149.845 145.889C148.031 145.889 146.583 145.435 145.501 144.528C144.419 143.621 143.807 142.436 143.663 140.972H146.909C147.052 141.609 147.371 142.118 147.864 142.5C148.373 142.882 149.017 143.073 149.797 143.073C150.736 143.073 151.444 142.778 151.921 142.189C152.398 141.601 152.637 140.821 152.637 139.851C152.637 138.864 152.39 138.116 151.897 137.607C151.42 137.082 150.712 136.82 149.773 136.82C149.105 136.82 148.548 136.987 148.102 137.321C147.657 137.655 147.339 138.1 147.148 138.657H143.95V128.443H154.737V131.378ZM158.02 132.763C158.02 131.553 158.37 130.607 159.07 129.922C159.786 129.238 160.701 128.896 161.815 128.896C162.928 128.896 163.835 129.238 164.535 129.922C165.251 130.607 165.609 131.553 165.609 132.763C165.609 133.988 165.251 134.942 164.535 135.626C163.835 136.311 162.928 136.653 161.815 136.653C160.701 136.653 159.786 136.311 159.07 135.626C158.37 134.942 158.02 133.988 158.02 132.763ZM173.342 129.183L163.963 145.889H160.717L170.072 129.183H173.342ZM161.791 130.901C160.916 130.901 160.478 131.522 160.478 132.763C160.478 134.019 160.916 134.648 161.791 134.648C162.22 134.648 162.554 134.497 162.793 134.194C163.032 133.876 163.151 133.399 163.151 132.763C163.151 131.522 162.698 130.901 161.791 130.901ZM168.497 142.285C168.497 141.06 168.847 140.113 169.547 139.445C170.263 138.761 171.178 138.419 172.292 138.419C173.405 138.419 174.304 138.761 174.989 139.445C175.689 140.113 176.039 141.06 176.039 142.285C176.039 143.51 175.689 144.465 174.989 145.149C174.304 145.833 173.405 146.175 172.292 146.175C171.162 146.175 170.247 145.833 169.547 145.149C168.847 144.465 168.497 143.51 168.497 142.285ZM172.268 140.423C171.361 140.423 170.907 141.044 170.907 142.285C170.907 143.542 171.361 144.17 172.268 144.17C173.159 144.17 173.604 143.542 173.604 142.285C173.604 141.044 173.159 140.423 172.268 140.423Z" fill="#0D6EFD"/>
<path opacity="0.75" d="M29.1453 103.118V109.118C29.1453 110.064 29.3681 110.764 29.8136 111.218C30.2682 111.673 30.8864 111.9 31.6683 111.9C32.4502 111.9 33.0593 111.678 33.4957 111.232C33.9412 110.777 34.164 110.073 34.164 109.118V103.118H35.1186V109.105C35.1186 110.314 34.7958 111.223 34.1503 111.832C33.5139 112.441 32.682 112.746 31.6547 112.746C30.6273 112.746 29.7909 112.441 29.1453 111.832C28.5089 111.223 28.1907 110.314 28.1907 109.105V103.118H29.1453ZM40.7391 105.068C41.6301 105.068 42.3574 105.345 42.9211 105.9C43.4848 106.445 43.7666 107.241 43.7666 108.286V112.65H42.8256V108.395C42.8256 107.586 42.6211 106.968 42.2119 106.541C41.8119 106.113 41.2619 105.9 40.5618 105.9C39.8436 105.9 39.2708 106.127 38.8435 106.582C38.4162 107.036 38.2025 107.705 38.2025 108.586V112.65H37.2479V105.204H38.2025V106.473C38.4389 106.018 38.7798 105.673 39.2253 105.436C39.6708 105.191 40.1754 105.068 40.7391 105.068ZM46.3552 103.8C46.1643 103.8 46.0006 103.731 45.8642 103.595C45.7279 103.459 45.6597 103.29 45.6597 103.09C45.6597 102.89 45.7279 102.727 45.8642 102.6C46.0006 102.463 46.1643 102.395 46.3552 102.395C46.5461 102.395 46.7098 102.463 46.8462 102.6C46.9825 102.727 47.0507 102.89 47.0507 103.09C47.0507 103.29 46.9825 103.459 46.8462 103.595C46.7098 103.731 46.5461 103.8 46.3552 103.8ZM46.8325 105.204V112.65H45.8779V105.204H46.8325ZM50.2353 106.009V110.632C50.2353 111.087 50.3217 111.4 50.4944 111.573C50.6672 111.746 50.9717 111.832 51.4081 111.832H52.2809V112.65H51.2581C50.5853 112.65 50.0853 112.496 49.758 112.187C49.4307 111.869 49.267 111.35 49.267 110.632V106.009H48.2306V105.204H49.267V103.336H50.2353V105.204H52.2809V106.009H50.2353ZM58.5387 106.841C58.775 106.341 59.1478 105.927 59.6569 105.6C60.1752 105.263 60.7889 105.095 61.498 105.095C62.1708 105.095 62.7754 105.254 63.3118 105.572C63.8573 105.882 64.2801 106.327 64.5801 106.909C64.8892 107.482 65.0438 108.15 65.0438 108.914C65.0438 109.677 64.8892 110.35 64.5801 110.932C64.2801 111.514 63.8573 111.964 63.3118 112.282C62.7754 112.6 62.1708 112.759 61.498 112.759C60.7979 112.759 60.1888 112.596 59.6706 112.269C59.1523 111.932 58.775 111.514 58.5387 111.014V116.169H57.5977V105.204H58.5387V106.841ZM64.0755 108.914C64.0755 108.295 63.9528 107.764 63.7073 107.318C63.4709 106.864 63.1436 106.518 62.7254 106.282C62.3072 106.045 61.8344 105.927 61.3071 105.927C60.7979 105.927 60.3297 106.05 59.9024 106.295C59.4842 106.541 59.1523 106.891 58.9069 107.345C58.6614 107.8 58.5387 108.327 58.5387 108.927C58.5387 109.527 58.6614 110.055 58.9069 110.509C59.1523 110.964 59.4842 111.314 59.9024 111.559C60.3297 111.805 60.7979 111.928 61.3071 111.928C61.8344 111.928 62.3072 111.809 62.7254 111.573C63.1436 111.328 63.4709 110.978 63.7073 110.523C63.9528 110.059 64.0755 109.523 64.0755 108.914ZM67.755 106.527C67.9641 106.063 68.2823 105.704 68.7096 105.45C69.146 105.195 69.6779 105.068 70.3052 105.068V106.063H70.0461C69.3551 106.063 68.8005 106.25 68.3823 106.623C67.9641 106.995 67.755 107.618 67.755 108.491V112.65H66.8004V105.204H67.755V106.527ZM72.2186 103.8C72.0277 103.8 71.864 103.731 71.7277 103.595C71.5913 103.459 71.5231 103.29 71.5231 103.09C71.5231 102.89 71.5913 102.727 71.7277 102.6C71.864 102.463 72.0277 102.395 72.2186 102.395C72.4095 102.395 72.5732 102.463 72.7096 102.6C72.8459 102.727 72.9141 102.89 72.9141 103.09C72.9141 103.29 72.8459 103.459 72.7096 103.595C72.5732 103.731 72.4095 103.8 72.2186 103.8ZM72.6959 105.204V112.65H71.7413V105.204H72.6959ZM74.4213 108.927C74.4213 108.155 74.5759 107.482 74.885 106.909C75.1941 106.327 75.6214 105.882 76.1669 105.572C76.7124 105.254 77.3352 105.095 78.0353 105.095C78.9535 105.095 79.7081 105.322 80.2991 105.777C80.8991 106.232 81.2855 106.85 81.4583 107.632H80.4355C80.3082 107.095 80.0309 106.677 79.6036 106.377C79.1854 106.068 78.6626 105.913 78.0353 105.913C77.5352 105.913 77.0852 106.027 76.6851 106.254C76.2851 106.482 75.9669 106.823 75.7305 107.277C75.5032 107.723 75.3896 108.273 75.3896 108.927C75.3896 109.582 75.5032 110.137 75.7305 110.591C75.9669 111.046 76.2851 111.387 76.6851 111.614C77.0852 111.841 77.5352 111.955 78.0353 111.955C78.6626 111.955 79.1854 111.805 79.6036 111.505C80.0309 111.196 80.3082 110.768 80.4355 110.223H81.4583C81.2855 110.987 80.8991 111.6 80.2991 112.064C79.699 112.528 78.9444 112.759 78.0353 112.759C77.3352 112.759 76.7124 112.605 76.1669 112.296C75.6214 111.978 75.1941 111.532 74.885 110.959C74.5759 110.377 74.4213 109.7 74.4213 108.927ZM89.9583 108.545C89.9583 108.873 89.9492 109.123 89.931 109.296H83.7532C83.7805 109.859 83.9169 110.341 84.1624 110.741C84.4078 111.141 84.7306 111.446 85.1306 111.655C85.5307 111.855 85.9671 111.955 86.4398 111.955C87.0581 111.955 87.5763 111.805 87.9945 111.505C88.4218 111.205 88.7037 110.8 88.84 110.291H89.8492C89.6674 111.018 89.2764 111.614 88.6764 112.078C88.0854 112.532 87.3399 112.759 86.4398 112.759C85.7398 112.759 85.1124 112.605 84.5578 112.296C84.0032 111.978 83.5668 111.532 83.2486 110.959C82.9395 110.377 82.785 109.7 82.785 108.927C82.785 108.155 82.9395 107.477 83.2486 106.895C83.5578 106.313 83.9896 105.868 84.5442 105.559C85.0988 105.25 85.7307 105.095 86.4398 105.095C87.149 105.095 87.7672 105.25 88.2945 105.559C88.8309 105.868 89.2401 106.286 89.5219 106.814C89.8128 107.332 89.9583 107.909 89.9583 108.545ZM88.99 108.518C88.9991 107.964 88.8855 107.491 88.6491 107.1C88.4218 106.709 88.1082 106.413 87.7081 106.213C87.3081 106.013 86.8717 105.913 86.3989 105.913C85.6898 105.913 85.0852 106.141 84.5851 106.595C84.0851 107.05 83.8078 107.691 83.7532 108.518H88.99Z" fill="#CCD2D7"/>
<path d="M39.6463 136.678C39.6463 138.046 39.2087 139.176 38.3337 140.067C37.4586 140.942 36.2892 141.467 34.8254 141.642V143.742H33.2264V141.666C31.8899 141.57 30.7444 141.196 29.7897 140.544C28.8351 139.892 28.1509 139.009 27.7373 137.895L30.5773 136.248C31.0864 137.537 31.9695 138.261 33.2264 138.42V134.291H33.2025L33.1548 134.267C32.1842 133.917 31.3171 133.504 30.5534 133.026C29.2647 132.215 28.5726 130.926 28.4771 129.16C28.4771 127.744 28.9306 126.622 29.8375 125.795C30.7921 124.936 31.9217 124.451 33.2264 124.339V122.263H34.8254V124.387C36.9892 124.657 38.5166 125.779 39.4076 127.752L36.6392 129.375C36.2573 128.42 35.6527 127.84 34.8254 127.633V131.618C36.3687 132.239 37.3631 132.708 37.8086 133.026C39.0337 133.917 39.6463 135.134 39.6463 136.678ZM31.7467 129.184C31.7467 129.534 31.8581 129.844 32.0808 130.115C32.3036 130.369 32.6854 130.632 33.2264 130.902V127.561C32.2399 127.752 31.7467 128.293 31.7467 129.184ZM34.8254 134.936V138.372C35.8437 138.165 36.3528 137.609 36.3528 136.702C36.3528 135.986 35.8437 135.397 34.8254 134.936ZM40.5013 126.201L44.8926 124.649H47.7565V141.355H44.463V128.134L41.3128 129.017L40.5013 126.201ZM56.9858 141.69C54.9016 141.69 53.2628 140.902 52.0695 139.327C50.8921 137.72 50.3034 135.612 50.3034 133.002C50.3034 130.393 50.8921 128.293 52.0695 126.702C53.2628 125.111 54.9016 124.315 56.9858 124.315C59.1019 124.315 60.7407 125.111 61.9022 126.702C63.0796 128.293 63.6682 130.393 63.6682 133.002C63.6682 135.612 63.0796 137.72 61.9022 139.327C60.7407 140.902 59.1019 141.69 56.9858 141.69ZM60.3986 133.002C60.3986 131.22 60.1043 129.86 59.5156 128.921C58.9428 127.983 58.0996 127.513 56.9858 127.513C55.8721 127.513 55.0288 127.983 54.4561 128.921C53.8833 129.86 53.5969 131.22 53.5969 133.002C53.5969 134.784 53.8833 136.145 54.4561 137.084C55.0288 138.006 55.8721 138.468 56.9858 138.468C58.0996 138.468 58.9428 137.998 59.5156 137.06C60.1043 136.121 60.3986 134.769 60.3986 133.002ZM72.0185 141.69C69.9342 141.69 68.2954 140.902 67.1021 139.327C65.9247 137.72 65.336 135.612 65.336 133.002C65.336 130.393 65.9247 128.293 67.1021 126.702C68.2954 125.111 69.9342 124.315 72.0185 124.315C74.1345 124.315 75.7733 125.111 76.9348 126.702C78.1122 128.293 78.7009 130.393 78.7009 133.002C78.7009 135.612 78.1122 137.72 76.9348 139.327C75.7733 140.902 74.1345 141.69 72.0185 141.69ZM75.4313 133.002C75.4313 131.22 75.1369 129.86 74.5482 128.921C73.9754 127.983 73.1322 127.513 72.0185 127.513C70.9047 127.513 70.0615 127.983 69.4887 128.921C68.9159 129.86 68.6295 131.22 68.6295 133.002C68.6295 134.784 68.9159 136.145 69.4887 137.084C70.0615 138.006 70.9047 138.468 72.0185 138.468C73.1322 138.468 73.9754 137.998 74.5482 137.06C75.1369 136.121 75.4313 134.769 75.4313 133.002Z" fill="#0D6EFD"/>
<path opacity="0.15" fill-rule="evenodd" clip-rule="evenodd" d="M26.7294 85.2914C26.7294 85.056 26.9152 84.8652 27.1443 84.8652H229.173C229.402 84.8652 229.588 85.056 229.588 85.2914C229.588 85.5268 229.402 85.7176 229.173 85.7176H27.1443C26.9152 85.7176 26.7294 85.5268 26.7294 85.2914Z" fill="#99A6AF" stroke="#0D6EFD" stroke-opacity="0.5" stroke-width="0.852347" stroke-linecap="round"/>
<path d="M37.8266 59.1475C38.7653 59.3225 39.537 59.7918 40.1416 60.5556C40.7462 61.3193 41.0485 62.1943 41.0485 63.1808C41.0485 64.0718 40.8258 64.8593 40.3803 65.5435C39.9507 66.2117 39.3222 66.7368 38.4949 67.1186C37.6675 67.5005 36.689 67.6914 35.5594 67.6914H28.3758V51.0331H35.2491C36.3788 51.0331 37.3493 51.2161 38.1608 51.582C38.9881 51.948 39.6086 52.4571 40.0223 53.1094C40.4519 53.7618 40.6667 54.5016 40.6667 55.329C40.6667 56.2995 40.4041 57.1109 39.8791 57.7633C39.3699 58.4156 38.6858 58.877 37.8266 59.1475ZM31.717 57.9065H34.7718C35.5673 57.9065 36.1799 57.7314 36.6095 57.3814C37.0391 57.0155 37.2539 56.4984 37.2539 55.8301C37.2539 55.1619 37.0391 54.6448 36.6095 54.2789C36.1799 53.9129 35.5673 53.73 34.7718 53.73H31.717V57.9065ZM35.0821 64.9707C35.8935 64.9707 36.522 64.7798 36.9675 64.3979C37.4289 64.0161 37.6596 63.4751 37.6596 62.7751C37.6596 62.0591 37.4209 61.5022 36.9436 61.1045C36.4663 60.6908 35.8219 60.484 35.0105 60.484H31.717V64.9707H35.0821ZM45.4059 52.8947C44.8172 52.8947 44.324 52.7117 43.9262 52.3457C43.5443 51.9639 43.3534 51.4945 43.3534 50.9377C43.3534 50.3808 43.5443 49.9194 43.9262 49.5535C44.324 49.1716 44.8172 48.9807 45.4059 48.9807C45.9946 48.9807 46.4798 49.1716 46.8617 49.5535C47.2594 49.9194 47.4583 50.3808 47.4583 50.9377C47.4583 51.4945 47.2594 51.9639 46.8617 52.3457C46.4798 52.7117 45.9946 52.8947 45.4059 52.8947ZM47.0526 54.4698V67.6914H43.7114V54.4698H47.0526ZM55.4132 67.9062C54.3313 67.9062 53.3608 67.7153 52.5016 67.3334C51.6425 66.9357 50.9583 66.4027 50.4492 65.7344C49.956 65.0662 49.6855 64.3263 49.6377 63.5149H53.0028C53.0665 64.024 53.3131 64.4457 53.7426 64.7798C54.1881 65.1139 54.7371 65.281 55.3894 65.281C56.0258 65.281 56.519 65.1537 56.8691 64.8991C57.235 64.6445 57.418 64.3184 57.418 63.9206C57.418 63.491 57.1952 63.1728 56.7497 62.966C56.3201 62.7432 55.628 62.5046 54.6734 62.25C53.687 62.0114 52.8755 61.7647 52.2391 61.5102C51.6186 61.2556 51.0776 60.8658 50.6162 60.3408C50.1707 59.8157 49.948 59.1077 49.948 58.2167C49.948 57.4848 50.1548 56.8166 50.5685 56.212C50.9981 55.6074 51.6027 55.1301 52.3823 54.78C53.1778 54.43 54.1086 54.255 55.1746 54.255C56.7497 54.255 58.0067 54.6528 58.9454 55.4483C59.8841 56.2279 60.4012 57.2859 60.4966 58.6224H57.2986C57.2509 58.0974 57.0282 57.6837 56.6304 57.3814C56.2485 57.0632 55.7315 56.9041 55.0791 56.9041C54.4745 56.9041 54.0052 57.0155 53.671 57.2382C53.3528 57.461 53.1937 57.7712 53.1937 58.169C53.1937 58.6145 53.4165 58.9565 53.862 59.1952C54.3075 59.418 54.9996 59.6487 55.9383 59.8873C56.8929 60.126 57.6805 60.3726 58.301 60.6271C58.9215 60.8817 59.4545 61.2795 59.9 61.8204C60.3614 62.3455 60.6001 63.0455 60.616 63.9206C60.616 64.6843 60.4012 65.3685 59.9716 65.9731C59.5579 66.5777 58.9533 67.055 58.1578 67.405C57.3782 67.7391 56.4633 67.9062 55.4132 67.9062ZM62.4995 61.0806C62.4995 59.7123 62.7779 58.519 63.3348 57.5007C63.8917 56.4666 64.6633 55.671 65.6498 55.1142C66.6362 54.5414 67.7659 54.255 69.0387 54.255C70.6775 54.255 72.0299 54.6687 73.0959 55.496C74.1778 56.3075 74.9017 57.453 75.2677 58.9327H71.6639C71.473 58.3599 71.1469 57.9144 70.6855 57.5962C70.24 57.2621 69.6831 57.095 69.0149 57.095C68.0602 57.095 67.3045 57.4451 66.7476 58.1451C66.1907 58.8293 65.9123 59.8078 65.9123 61.0806C65.9123 62.3375 66.1907 63.316 66.7476 64.0161C67.3045 64.7002 68.0602 65.0423 69.0149 65.0423C70.3672 65.0423 71.2503 64.4377 71.6639 63.2285H75.2677C74.9017 64.6605 74.1778 65.7981 73.0959 66.6413C72.014 67.4846 70.6616 67.9062 69.0387 67.9062C67.7659 67.9062 66.6362 67.6278 65.6498 67.0709C64.6633 66.4981 63.8917 65.7026 63.3348 64.6843C62.7779 63.6501 62.4995 62.4489 62.4995 61.0806ZM76.8562 61.0329C76.8562 59.6964 77.1188 58.5111 77.6438 57.4769C78.1848 56.4427 78.9087 55.6472 79.8156 55.0903C80.7384 54.5334 81.7646 54.255 82.8943 54.255C83.8807 54.255 84.7399 54.4539 85.4718 54.8516C86.2196 55.2494 86.8162 55.7506 87.2617 56.3552V54.4698H90.6268V67.6914H87.2617V65.7583C86.8321 66.3788 86.2355 66.8959 85.4718 67.3096C84.724 67.7073 83.8568 67.9062 82.8704 67.9062C81.7567 67.9062 80.7384 67.6198 79.8156 67.047C78.9087 66.4743 78.1848 65.6708 77.6438 64.6366C77.1188 63.5865 76.8562 62.3853 76.8562 61.0329ZM87.2617 61.0806C87.2617 60.2692 87.1026 59.5771 86.7844 59.0043C86.4662 58.4156 86.0366 57.9701 85.4956 57.6678C84.9547 57.3496 84.3739 57.1905 83.7534 57.1905C83.1329 57.1905 82.5601 57.3416 82.0351 57.6439C81.5101 57.9462 81.0805 58.3917 80.7463 58.9804C80.4281 59.5532 80.269 60.2373 80.269 61.0329C80.269 61.8284 80.4281 62.5285 80.7463 63.1331C81.0805 63.7217 81.5101 64.1752 82.0351 64.4934C82.5761 64.8116 83.1488 64.9707 83.7534 64.9707C84.3739 64.9707 84.9547 64.8196 85.4956 64.5173C86.0366 64.1991 86.4662 63.7536 86.7844 63.1808C87.1026 62.5921 87.2617 61.892 87.2617 61.0806ZM106.539 54.4698L98.3529 73.9442H94.7969L97.6608 67.3573L92.3626 54.4698H96.1095L99.5223 63.7058L102.983 54.4698H106.539ZM115.667 54.2789C117.242 54.2789 118.515 54.78 119.485 55.7824C120.456 56.7689 120.941 58.1531 120.941 59.935V67.6914H117.6V60.3885C117.6 59.3384 117.337 58.5349 116.812 57.9781C116.287 57.4053 115.571 57.1189 114.664 57.1189C113.742 57.1189 113.01 57.4053 112.469 57.9781C111.944 58.5349 111.681 59.3384 111.681 60.3885V67.6914H108.34V54.4698H111.681V56.1165C112.127 55.5437 112.691 55.0983 113.376 54.78C114.076 54.4459 114.839 54.2789 115.667 54.2789ZM136.409 60.7942C136.409 61.2715 136.377 61.7011 136.314 62.083H126.648C126.728 63.0376 127.062 63.7854 127.651 64.3263C128.239 64.8673 128.963 65.1378 129.822 65.1378C131.063 65.1378 131.946 64.6048 132.471 63.5388H136.075C135.693 64.8116 134.961 65.8617 133.879 66.689C132.798 67.5005 131.469 67.9062 129.894 67.9062C128.621 67.9062 127.476 67.6278 126.457 67.0709C125.455 66.4981 124.667 65.6946 124.095 64.6605C123.538 63.6263 123.259 62.433 123.259 61.0806C123.259 59.7123 123.538 58.5111 124.095 57.4769C124.651 56.4427 125.431 55.6472 126.433 55.0903C127.436 54.5334 128.589 54.255 129.894 54.255C131.151 54.255 132.273 54.5255 133.259 55.0664C134.261 55.6074 135.033 56.379 135.574 57.3814C136.131 58.3679 136.409 59.5055 136.409 60.7942ZM132.949 59.8396C132.933 58.9804 132.623 58.2963 132.018 57.7871C131.413 57.2621 130.674 56.9996 129.798 56.9996C128.971 56.9996 128.271 57.2541 127.698 57.7633C127.141 58.2565 126.799 58.9486 126.672 59.8396H132.949ZM153.986 59.1475C154.924 59.3225 155.696 59.7918 156.301 60.5556C156.905 61.3193 157.207 62.1943 157.207 63.1808C157.207 64.0718 156.985 64.8593 156.539 65.5435C156.11 66.2117 155.481 66.7368 154.654 67.1186C153.827 67.5005 152.848 67.6914 151.718 67.6914H144.535V51.0331H151.408C152.538 51.0331 153.508 51.2161 154.32 51.582C155.147 51.948 155.768 52.4571 156.181 53.1094C156.611 53.7618 156.826 54.5016 156.826 55.329C156.826 56.2995 156.563 57.1109 156.038 57.7633C155.529 58.4156 154.845 58.877 153.986 59.1475ZM147.876 57.9065H150.931C151.726 57.9065 152.339 57.7314 152.768 57.3814C153.198 57.0155 153.413 56.4984 153.413 55.8301C153.413 55.1619 153.198 54.6448 152.768 54.2789C152.339 53.9129 151.726 53.73 150.931 53.73H147.876V57.9065ZM151.241 64.9707C152.052 64.9707 152.681 64.7798 153.126 64.3979C153.588 64.0161 153.819 63.4751 153.819 62.7751C153.819 62.0591 153.58 61.5022 153.103 61.1045C152.625 60.6908 151.981 60.484 151.169 60.484H147.876V64.9707H151.241ZM163.212 50.0308V67.6914H159.87V50.0308H163.212ZM172.026 64.6127L175.367 54.4698H178.923L174.03 67.6914H169.973L165.105 54.4698H168.684L172.026 64.6127ZM179.94 61.0329C179.94 59.6964 180.203 58.5111 180.728 57.4769C181.269 56.4427 182.001 55.6472 182.924 55.0903C183.846 54.5334 184.873 54.255 186.002 54.255C186.861 54.255 187.681 54.4459 188.46 54.8278C189.24 55.1937 189.861 55.6869 190.322 56.3075V50.0308H193.711V67.6914H190.322V65.7344C189.908 66.3867 189.328 66.9118 188.58 67.3096C187.832 67.7073 186.965 67.9062 185.978 67.9062C184.865 67.9062 183.846 67.6198 182.924 67.047C182.001 66.4743 181.269 65.6708 180.728 64.6366C180.203 63.5865 179.94 62.3853 179.94 61.0329ZM190.346 61.0806C190.346 60.2692 190.187 59.5771 189.868 59.0043C189.55 58.4156 189.121 57.9701 188.58 57.6678C188.039 57.3496 187.458 57.1905 186.838 57.1905C186.217 57.1905 185.644 57.3416 185.119 57.6439C184.594 57.9462 184.165 58.3917 183.83 58.9804C183.512 59.5532 183.353 60.2373 183.353 61.0329C183.353 61.8284 183.512 62.5285 183.83 63.1331C184.165 63.7217 184.594 64.1752 185.119 64.4934C185.66 64.8116 186.233 64.9707 186.838 64.9707C187.458 64.9707 188.039 64.8196 188.58 64.5173C189.121 64.1991 189.55 63.7536 189.868 63.1808C190.187 62.5921 190.346 61.892 190.346 61.0806Z" fill="#FCFDFD"/>
<path d="M37.8266 59.1475L37.3211 57.5416L37.5181 60.8025L37.8266 59.1475ZM40.1416 60.5556L41.4616 59.5106L40.1416 60.5556ZM40.3803 65.5435L38.9694 64.6248L38.9641 64.6331L40.3803 65.5435ZM38.4949 67.1186L39.2004 68.6472L39.2004 68.6472L38.4949 67.1186ZM28.3758 67.6914H26.6923V69.3749H28.3758V67.6914ZM28.3758 51.0331V49.3496H26.6923V51.0331H28.3758ZM38.1608 51.582L37.4686 53.1168L37.4798 53.1217L38.1608 51.582ZM40.0223 53.1094L38.6005 54.011L38.6083 54.0233L38.6162 54.0354L40.0223 53.1094ZM39.8791 57.7633L38.5676 56.7077L38.5597 56.7175L38.5519 56.7274L39.8791 57.7633ZM31.717 57.9065H30.0335V59.59H31.717V57.9065ZM36.6095 57.3814L37.6729 58.6865L37.6872 58.6749L37.7012 58.663L36.6095 57.3814ZM36.6095 54.2789L37.7012 52.9973H37.7012L36.6095 54.2789ZM31.717 53.73V52.0464H30.0335V53.73H31.717ZM36.9675 64.3979L35.8941 63.101L35.8829 63.1102L35.8718 63.1197L36.9675 64.3979ZM36.9436 61.1045L35.841 62.3767L35.8533 62.3874L35.8658 62.3978L36.9436 61.1045ZM31.717 60.484V58.8004H30.0335V60.484H31.717ZM31.717 64.9707H30.0335V66.6542H31.717V64.9707ZM37.5181 60.8025C38.0483 60.9013 38.4639 61.1486 38.8216 61.6005L41.4616 59.5106C40.6101 58.4351 39.4824 57.7436 38.1352 57.4925L37.5181 60.8025ZM38.8216 61.6005C39.1876 62.0627 39.365 62.5684 39.365 63.1808H42.732C42.732 61.8202 42.3049 60.5758 41.4616 59.5106L38.8216 61.6005ZM39.365 63.1808C39.365 63.7766 39.2208 64.2389 38.9695 64.6248L41.7911 66.4621C42.4307 65.4798 42.732 64.3669 42.732 63.1808H39.365ZM38.9641 64.6331C38.7321 64.994 38.3696 65.3222 37.7894 65.5901L39.2004 68.6472C40.2748 68.1513 41.1692 67.4295 41.7964 66.4539L38.9641 64.6331ZM37.7894 65.5901C37.2296 65.8484 36.5023 66.0079 35.5594 66.0079V69.3749C36.8757 69.3749 38.1054 69.1526 39.2004 68.6472L37.7894 65.5901ZM35.5594 66.0079H28.3758V69.3749H35.5594V66.0079ZM30.0593 67.6914V51.0331H26.6923V67.6914H30.0593ZM28.3758 52.7167H35.2491V49.3496H28.3758V52.7167ZM35.2491 52.7167C36.2021 52.7167 36.9249 52.8715 37.4686 53.1167L38.8529 50.0474C37.7737 49.5607 36.5554 49.3496 35.2491 49.3496V52.7167ZM37.4798 53.1217C38.0558 53.3765 38.3941 53.6855 38.6005 54.011L41.444 52.2078C40.8231 51.2287 39.9204 50.5195 38.8417 50.0424L37.4798 53.1217ZM38.6162 54.0354C38.8539 54.3962 38.9831 54.8102 38.9831 55.329H42.3502C42.3502 54.193 42.0499 53.1274 41.4283 52.1835L38.6162 54.0354ZM38.9831 55.329C38.9831 55.9795 38.8146 56.4008 38.5676 56.7077L41.1906 58.8188C41.9937 57.821 42.3502 56.6195 42.3502 55.329H38.9831ZM38.5519 56.7274C38.2713 57.087 37.8852 57.3641 37.3211 57.5416L38.3322 60.7533C39.4864 60.3899 40.4686 59.7442 41.2062 58.7991L38.5519 56.7274ZM31.717 59.59H34.7718V56.2229H31.717V59.59ZM34.7718 59.59C35.79 59.59 36.8361 59.3684 37.6729 58.6865L35.546 56.0763C35.5237 56.0945 35.3447 56.2229 34.7718 56.2229V59.59ZM37.7012 58.663C38.5764 57.9174 38.9374 56.8914 38.9374 55.8301H35.5703C35.5703 55.9846 35.5456 56.055 35.538 56.0733C35.5341 56.0828 35.5317 56.0859 35.5315 56.0862C35.5312 56.0866 35.528 56.0911 35.5178 56.0998L37.7012 58.663ZM38.9374 55.8301C38.9374 54.7689 38.5764 53.7428 37.7012 52.9973L35.5178 55.5604C35.528 55.5692 35.5312 55.5737 35.5315 55.574C35.5317 55.5744 35.5341 55.5775 35.538 55.5869C35.5456 55.6053 35.5703 55.6756 35.5703 55.8301H38.9374ZM37.7012 52.9973C36.8629 52.2832 35.8053 52.0464 34.7718 52.0464V55.4135C35.3294 55.4135 35.4969 55.5426 35.5178 55.5604L37.7012 52.9973ZM34.7718 52.0464H31.717V55.4135H34.7718V52.0464ZM30.0335 53.73V57.9065H33.4005V53.73H30.0335ZM35.0821 66.6542C36.142 66.6542 37.2133 66.4046 38.0631 65.6762L35.8718 63.1197C35.8307 63.155 35.6451 63.2872 35.0821 63.2872V66.6542ZM38.0408 65.6949C38.9559 64.9376 39.3431 63.8824 39.3431 62.7751H35.976C35.976 62.9406 35.949 63.0195 35.938 63.0454C35.93 63.0641 35.9218 63.078 35.8941 63.101L38.0408 65.6949ZM39.3431 62.7751C39.3431 61.6445 38.9434 60.5795 38.0214 59.8111L35.8658 62.3978C35.8985 62.425 35.976 62.4737 35.976 62.7751H39.3431ZM38.0462 59.8322C37.184 59.085 36.1088 58.8004 35.0105 58.8004V62.1675C35.535 62.1675 35.7486 62.2966 35.841 62.3767L38.0462 59.8322ZM35.0105 58.8004H31.717V62.1675H35.0105V58.8004ZM30.0335 60.484V64.9707H33.4005V60.484H30.0335ZM31.717 66.6542H35.0821V63.2872H31.717V66.6542ZM43.9262 52.3457L42.7358 53.5362L42.7605 53.561L42.7863 53.5847L43.9262 52.3457ZM43.9262 49.5534L45.091 50.7689L45.0921 50.7679L43.9262 49.5534ZM46.8617 49.5534L45.6712 50.7439L45.696 50.7687L45.7218 50.7924L46.8617 49.5534ZM46.8617 52.3457L48.0265 53.5612L48.0276 53.5602L46.8617 52.3457ZM47.0526 54.4698H48.7361V52.7863H47.0526V54.4698ZM47.0526 67.6914V69.3749H48.7361V67.6914H47.0526ZM43.7114 67.6914H42.0279V69.3749H43.7114V67.6914ZM43.7114 54.4698V52.7863H42.0279V54.4698H43.7114ZM45.4059 51.2111C45.1985 51.2111 45.1242 51.1603 45.066 51.1068L42.7863 53.5847C43.5237 54.2631 44.4359 54.5782 45.4059 54.5782V51.2111ZM45.1166 51.1553C45.074 51.1127 45.0614 51.0861 45.056 51.073C45.0503 51.0588 45.0369 51.0202 45.0369 50.9377H41.6699C41.6699 51.9255 42.0273 52.8278 42.7358 53.5362L45.1166 51.1553ZM45.0369 50.9377C45.0369 50.8547 45.0504 50.822 45.0522 50.8177C45.0538 50.8138 45.0558 50.8098 45.0598 50.8041C45.0639 50.7982 45.073 50.7862 45.091 50.7689L42.7613 48.338C42.029 49.0398 41.6699 49.9491 41.6699 50.9377H45.0369ZM45.0921 50.7679C45.1537 50.7087 45.2194 50.6642 45.4059 50.6642V47.2971C44.4149 47.2971 43.4942 47.6345 42.7603 48.339L45.0921 50.7679ZM45.4059 50.6642C45.5924 50.6642 45.6351 50.7078 45.6712 50.7439L48.0521 48.363C47.3245 47.6354 46.3967 47.2971 45.4059 47.2971V50.6642ZM45.7218 50.7924C45.7426 50.8115 45.7529 50.8246 45.7572 50.8305C45.7613 50.8362 45.7626 50.839 45.7631 50.8403C45.7637 50.8417 45.7662 50.8475 45.7687 50.8606C45.7714 50.8741 45.7748 50.8989 45.7748 50.9377H49.1418C49.1418 49.9261 48.7575 49.01 48.0015 48.3145L45.7218 50.7924ZM45.7748 50.9377C45.7748 51.0114 45.7626 51.0421 45.759 51.0505C45.7556 51.0585 45.7437 51.0852 45.6958 51.1313L48.0276 53.5602C48.7597 52.8573 49.1418 51.9478 49.1418 50.9377H45.7748ZM45.6968 51.1303C45.6649 51.1608 45.6138 51.2111 45.4059 51.2111V54.5782C46.3753 54.5782 47.2947 54.2625 48.0265 53.5612L45.6968 51.1303ZM45.3691 54.4698V67.6914H48.7361V54.4698H45.3691ZM47.0526 66.0079H43.7114V69.3749H47.0526V66.0079ZM45.3949 67.6914V54.4698H42.0279V67.6914H45.3949ZM43.7114 56.1533H47.0526V52.7863H43.7114V56.1533ZM52.5016 67.3334L51.7943 68.8612L51.8061 68.8666L51.8179 68.8718L52.5016 67.3334ZM50.4492 65.7344L49.0947 66.7342L49.1023 66.7445L49.11 66.7547L50.4492 65.7344ZM49.6377 63.5149V61.8314H47.8523L47.9571 63.6138L49.6377 63.5149ZM53.0028 63.5149L54.6733 63.3061L54.489 61.8314H53.0028V63.5149ZM53.7426 64.7798L52.7091 66.1087L52.7207 66.1177L52.7325 66.1266L53.7426 64.7798ZM56.8691 64.8991L55.9077 63.5171L55.8931 63.5272L55.8789 63.5376L56.8691 64.8991ZM56.7497 62.966L55.9748 64.4605L56.0074 64.4775L56.0408 64.493L56.7497 62.966ZM54.6734 62.25L55.1072 60.6233L55.0883 60.6183L55.0693 60.6137L54.6734 62.25ZM52.2391 61.5102L51.6001 63.0677L51.607 63.0705L51.6139 63.0733L52.2391 61.5102ZM50.6162 60.3408L49.3325 61.43L49.342 61.4411L49.3516 61.4521L50.6162 60.3408ZM50.5685 56.212L49.1961 55.2369L49.1875 55.249L49.1791 55.2613L50.5685 56.212ZM52.3823 54.78L51.7043 53.239L51.6927 53.2442L52.3823 54.78ZM58.9454 55.4483L57.8569 56.7326L57.8633 56.7381L57.8698 56.7434L58.9454 55.4483ZM60.4967 58.6224V60.306H62.3047L62.1759 58.5025L60.4967 58.6224ZM57.2986 58.6224L55.622 58.7748L55.7612 60.306H57.2986V58.6224ZM56.6304 57.3814L55.5526 58.6747L55.5817 58.6989L55.6117 58.7218L56.6304 57.3814ZM53.671 57.2382L52.7372 55.8374L52.7213 55.848L52.7056 55.859L53.671 57.2382ZM53.862 59.1952L53.067 60.6792L53.0879 60.6904L53.1091 60.701L53.862 59.1952ZM55.9383 59.8873L55.5235 61.5189L55.53 61.5206L55.9383 59.8873ZM59.9 61.8204L58.6004 62.8907L58.6176 62.9115L58.6354 62.9318L59.9 61.8204ZM60.616 63.9206H62.2995V63.9053L62.2992 63.89L60.616 63.9206ZM59.9716 65.9731L58.5992 64.998L58.5906 65.0101L58.5822 65.0224L59.9716 65.9731ZM58.1578 67.405L58.821 68.9524L58.8284 68.9492L58.8358 68.946L58.1578 67.405ZM55.4132 66.2227C54.5316 66.2227 53.7992 66.0678 53.1854 65.795L51.8179 68.8718C52.9224 69.3627 54.1311 69.5897 55.4132 69.5897V66.2227ZM53.2089 65.8057C52.5665 65.5083 52.1112 65.1379 51.7883 64.7141L49.11 66.7547C49.8055 67.6674 50.7184 68.363 51.7943 68.8612L53.2089 65.8057ZM51.8037 64.7347C51.4997 64.3227 51.3465 63.8945 51.3184 63.416L47.9571 63.6138C48.0244 64.7582 48.4122 65.8096 49.0947 66.7342L51.8037 64.7347ZM49.6377 65.1984H53.0028V61.8314H49.6377V65.1984ZM51.3323 63.7237C51.4549 64.7049 51.9508 65.5189 52.7091 66.1087L54.7762 63.4509C54.7112 63.4003 54.6922 63.369 54.6887 63.363C54.6863 63.3588 54.6783 63.346 54.6733 63.3061L51.3323 63.7237ZM52.7325 66.1266C53.5173 66.7152 54.4375 66.9645 55.3894 66.9645V63.5974C55.0366 63.5974 54.859 63.5127 54.7528 63.433L52.7325 66.1266ZM55.3894 66.9645C56.2218 66.9645 57.1147 66.8021 57.8593 66.2606L55.8789 63.5376C55.9233 63.5052 55.8298 63.5974 55.3894 63.5974V66.9645ZM57.8305 66.2811C58.5852 65.7561 59.1015 64.9426 59.1015 63.9206H55.7344C55.7344 63.85 55.7538 63.7444 55.8125 63.6399C55.8672 63.5423 55.9213 63.5076 55.9077 63.5171L57.8305 66.2811ZM59.1015 63.9206C59.1015 63.3987 58.9604 62.8662 58.6301 62.3943C58.3093 61.936 57.8803 61.6348 57.4587 61.439L56.0408 64.493C56.0646 64.504 55.9698 64.4653 55.8717 64.3252C55.7641 64.1715 55.7344 64.013 55.7344 63.9206H59.1015ZM57.5247 61.4714C56.9244 61.1602 56.0844 60.8839 55.1072 60.6233L54.2396 63.8767C55.1717 64.1252 55.7159 64.3263 55.9748 64.4605L57.5247 61.4714ZM55.0693 60.6137C54.1276 60.3859 53.4 60.1613 52.8644 59.9471L51.6139 63.0733C52.3511 63.3682 53.2463 63.6368 54.2775 63.8863L55.0693 60.6137ZM52.8781 59.9526C52.508 59.8008 52.1783 59.568 51.8808 59.2294L49.3516 61.4521C49.9769 62.1636 50.7292 62.7104 51.6001 63.0677L52.8781 59.9526ZM51.8999 59.2516C51.7806 59.1109 51.6315 58.8283 51.6315 58.2167H48.2645C48.2645 59.3871 48.5609 60.5205 49.3325 61.43L51.8999 59.2516ZM51.6315 58.2167C51.6315 57.8245 51.7357 57.4875 51.9579 57.1626L49.1791 55.2613C48.574 56.1457 48.2645 57.1452 48.2645 58.2167H51.6315ZM51.9409 57.1871C52.1718 56.862 52.5235 56.5621 53.0719 56.3159L51.6927 53.2442C50.6819 53.6981 49.8243 54.3527 49.1961 55.2369L51.9409 57.1871ZM53.0603 56.321C53.5995 56.0837 54.2905 55.9385 55.1746 55.9385V52.5715C53.9267 52.5715 52.7561 52.7763 51.7043 53.2391L53.0603 56.321ZM55.1746 55.9385C56.4653 55.9385 57.2994 56.2601 57.8569 56.7326L60.0338 54.1639C58.7139 53.0454 57.0341 52.5715 55.1746 52.5715V55.9385ZM57.8698 56.7434C58.419 57.1996 58.7511 57.8139 58.8174 58.7424L62.1759 58.5025C62.0513 56.758 61.3492 55.2562 60.021 54.1532L57.8698 56.7434ZM60.4967 56.9389H57.2986V60.306H60.4967V56.9389ZM58.9753 58.47C58.8874 57.5035 58.446 56.6467 57.6491 56.0411L55.6117 58.7218C55.6237 58.7309 55.6262 58.7345 55.6237 58.7316C55.6209 58.7284 55.6169 58.7229 55.6135 58.7165C55.6101 58.7103 55.6104 58.7089 55.6123 58.7156C55.6144 58.7228 55.619 58.7415 55.622 58.7748L58.9753 58.47ZM57.7082 56.0881C56.9402 55.4481 56.0008 55.2206 55.0791 55.2206V58.5876C55.2708 58.5876 55.392 58.6112 55.4611 58.6325C55.5254 58.6523 55.5477 58.6706 55.5526 58.6747L57.7082 56.0881ZM55.0791 55.2206C54.2996 55.2206 53.4549 55.359 52.7372 55.8374L54.6049 58.639C54.5761 58.6582 54.584 58.6443 54.6623 58.6257C54.7424 58.6067 54.8763 58.5876 55.0791 58.5876V55.2206ZM52.7056 55.859C51.9246 56.4057 51.5102 57.2376 51.5102 58.169H54.8773C54.8773 58.1994 54.8696 58.292 54.8111 58.4062C54.7518 58.5218 54.676 58.5898 54.6365 58.6174L52.7056 55.859ZM51.5102 58.169C51.5102 58.6869 51.6444 59.2091 51.95 59.6783C52.2485 60.1367 52.6533 60.4576 53.067 60.6792L54.657 57.7112C54.6251 57.6942 54.6959 57.7247 54.7716 57.841C54.8544 57.9682 54.8773 58.0966 54.8773 58.169H51.5102ZM53.1091 60.701C53.721 61.007 54.5556 61.2729 55.5235 61.5189L56.3531 58.2557C55.4436 58.0244 54.8939 57.8289 54.6149 57.6894L53.1091 60.701ZM55.53 61.5206C56.4387 61.7478 57.1423 61.9715 57.662 62.1847L58.94 59.0696C58.2187 58.7737 57.3471 58.5042 56.3466 58.2541L55.53 61.5206ZM57.662 62.1847C58.0138 62.329 58.3234 62.5542 58.6004 62.8907L61.1996 60.7502C60.5857 60.0048 59.8292 59.4344 58.94 59.0696L57.662 62.1847ZM58.6354 62.9318C58.7726 63.0879 58.9222 63.3711 58.9327 63.9512L62.2992 63.89C62.278 62.72 61.9502 61.603 61.1646 60.7091L58.6354 62.9318ZM58.9325 63.9206C58.9325 64.346 58.8201 64.6871 58.5992 64.998L61.344 66.9482C61.9823 66.0498 62.2995 65.0227 62.2995 63.9206H58.9325ZM58.5822 65.0224C58.3766 65.3228 58.042 65.6167 57.4798 65.8641L58.8358 68.946C59.8647 68.4933 60.7392 67.8325 61.361 66.9237L58.5822 65.0224ZM57.4946 65.8576C56.9681 66.0833 56.288 66.2227 55.4132 66.2227V69.5897C56.6387 69.5897 57.7883 69.395 58.821 68.9524L57.4946 65.8576ZM63.3348 57.5007L64.8119 58.3085L64.8171 58.2989L63.3348 57.5007ZM65.6498 55.1142L66.4774 56.5802L66.4863 56.5752L66.4951 56.5701L65.6498 55.1142ZM73.0959 55.496L72.0637 56.826L72.0747 56.8345L72.0858 56.8428L73.0959 55.496ZM75.2677 58.9327V60.6162H77.4183L76.902 58.5285L75.2677 58.9327ZM71.6639 58.9327L70.0668 59.4651L70.4505 60.6162H71.6639V58.9327ZM70.6855 57.5962L69.6753 58.943L69.7021 58.9631L69.7297 58.9821L70.6855 57.5962ZM66.7476 58.1451L68.0533 59.2079L68.0592 59.2005L68.0651 59.1931L66.7476 58.1451ZM66.7476 64.0161L65.4301 65.0641L65.436 65.0715L65.4419 65.0788L66.7476 64.0161ZM71.6639 63.2285V61.545H70.4606L70.0711 62.6836L71.6639 63.2285ZM75.2677 63.2285L76.8988 63.6454L77.4355 61.545H75.2677V63.2285ZM73.0959 66.6413L74.1308 67.9692L73.0959 66.6413ZM65.6498 67.0709L64.8044 68.5268L64.8133 68.5319L64.8222 68.537L65.6498 67.0709ZM63.3348 64.6843L61.8525 65.4825L61.8577 65.4921L63.3348 64.6843ZM64.183 61.0806C64.183 59.944 64.4128 59.0382 64.8119 58.3085L61.8577 56.693C61.143 57.9998 60.816 59.4806 60.816 61.0806H64.183ZM64.8171 58.2989C65.2291 57.5338 65.7784 56.9748 66.4774 56.5802L64.8222 53.6481C63.5482 54.3673 62.5543 55.3993 61.8525 56.7026L64.8171 58.2989ZM66.4951 56.5701C67.196 56.1631 68.0276 55.9385 69.0387 55.9385V52.5715C67.5042 52.5715 66.0765 52.9197 64.8044 53.6583L66.4951 56.5701ZM69.0387 55.9385C70.3862 55.9385 71.3521 56.2737 72.0637 56.826L74.1281 54.1661C72.7077 53.0636 70.9688 52.5715 69.0387 52.5715V55.9385ZM72.0858 56.8428C72.8178 57.3919 73.3481 58.1832 73.6334 59.3369L76.902 58.5285C76.4554 56.7228 75.5378 55.223 74.106 54.1492L72.0858 56.8428ZM75.2677 57.2492H71.6639V60.6162H75.2677V57.2492ZM73.2611 58.4003C72.9641 57.5094 72.4271 56.7523 71.6412 56.2103L69.7297 58.9821C69.8666 59.0765 69.9819 59.2104 70.0668 59.4651L73.2611 58.4003ZM71.6956 56.2494C70.9039 55.6557 69.9724 55.4115 69.0149 55.4115V58.7785C69.3937 58.7785 69.576 58.8685 69.6753 58.943L71.6956 56.2494ZM69.0149 55.4115C67.5868 55.4115 66.3303 55.9654 65.4301 57.0971L68.0651 59.1931C68.2787 58.9247 68.5336 58.7785 69.0149 58.7785V55.4115ZM65.4419 57.0824C64.5527 58.1749 64.2288 59.5877 64.2288 61.0806H67.5958C67.5958 60.0278 67.8288 59.4837 68.0533 59.2079L65.4419 57.0824ZM64.2288 61.0806C64.2288 62.5668 64.5566 63.9661 65.4301 65.0641L68.0651 62.9681C67.8249 62.666 67.5958 62.1082 67.5958 61.0806H64.2288ZM65.4419 65.0788C66.3474 66.1912 67.6013 66.7258 69.0149 66.7258V63.3588C68.5191 63.3588 68.2616 63.2092 68.0533 62.9533L65.4419 65.0788ZM69.0149 66.7258C69.9409 66.7258 70.8551 66.5171 71.6425 65.978C72.4381 65.4333 72.9561 64.6526 73.2568 63.7735L70.0711 62.6836C69.9582 63.0136 69.8278 63.1398 69.7403 63.1997C69.6447 63.2652 69.4412 63.3588 69.0149 63.3588V66.7258ZM71.6639 64.912H75.2677V61.545H71.6639V64.912ZM73.6366 62.8117C73.3553 63.9121 72.8253 64.7177 72.061 65.3135L74.1308 67.9692C75.5303 66.8784 76.4481 65.4088 76.8988 63.6454L73.6366 62.8117ZM72.061 65.3135C71.3265 65.8859 70.3579 66.2227 69.0387 66.2227V69.5897C70.9653 69.5897 72.7015 69.0832 74.1308 67.9692L72.061 65.3135ZM69.0387 66.2227C68.0193 66.2227 67.1813 66.0022 66.4774 65.6048L64.8222 68.537C66.0912 69.2533 67.5124 69.5897 69.0387 69.5897V66.2227ZM66.4951 65.615C65.7793 65.1994 65.224 64.6301 64.8119 63.8765L61.8577 65.4921C62.5594 66.7751 63.5473 67.7969 64.8044 68.5268L66.4951 65.615ZM64.8171 63.8862C64.4126 63.1349 64.183 62.2164 64.183 61.0806H60.816C60.816 62.6814 61.1433 64.1653 61.8525 65.4825L64.8171 63.8862ZM77.6438 57.4769L76.152 56.6966L76.1473 56.7056L76.1427 56.7148L77.6438 57.4769ZM79.8156 55.0903L78.9457 53.6488L78.9347 53.6556L79.8156 55.0903ZM85.4718 54.8516L84.6679 56.3308L84.6745 56.3344L84.6812 56.338L85.4718 54.8516ZM87.2617 56.3552L85.9064 57.3538L88.9452 61.478V56.3552H87.2617ZM87.2617 54.4698V52.7863H85.5782V54.4698H87.2617ZM90.6268 54.4698H92.3103V52.7863H90.6268V54.4698ZM90.6268 67.6914V69.3749H92.3103V67.6914H90.6268ZM87.2617 67.6914H85.5782V69.3749H87.2617V67.6914ZM87.2617 65.7583H88.9452V60.3689L85.8775 64.8L87.2617 65.7583ZM85.4718 67.3096L86.2624 68.7959L86.2736 68.7899L85.4718 67.3096ZM79.8156 67.047L78.9166 68.4705L78.9278 68.4774L79.8156 67.047ZM77.6438 64.6366L76.138 65.3895L76.1449 65.4033L76.152 65.4169L77.6438 64.6366ZM86.7844 59.0043L85.3034 59.8048L85.308 59.8134L85.3127 59.8219L86.7844 59.0043ZM85.4956 57.6678L84.642 59.1189L84.6581 59.1283L84.6744 59.1374L85.4956 57.6678ZM82.0351 57.6439L81.1951 56.185L81.1951 56.185L82.0351 57.6439ZM80.7463 58.9804L79.2822 58.1494L79.2784 58.1561L79.2747 58.1628L80.7463 58.9804ZM80.7463 63.1331L79.2566 63.9171L79.269 63.9408L79.2822 63.964L80.7463 63.1331ZM82.0351 64.4934L81.1625 65.9331L81.172 65.9389L81.1815 65.9445L82.0351 64.4934ZM85.4956 64.5173L86.3169 65.9869L86.3332 65.9778L86.3492 65.9684L85.4956 64.5173ZM86.7844 63.1808L88.256 63.9984L88.2608 63.9899L88.2654 63.9813L86.7844 63.1808ZM78.5398 61.0329C78.5398 59.9208 78.7569 59.0034 79.1449 58.239L76.1427 56.7148C75.4807 58.0187 75.1727 59.472 75.1727 61.0329H78.5398ZM79.1356 58.2572C79.5497 57.4654 80.0732 56.9077 80.6965 56.525L78.9347 53.6556C77.7442 54.3866 76.8198 55.42 76.152 56.6966L79.1356 58.2572ZM80.6854 56.5317C81.3328 56.141 82.0558 55.9385 82.8943 55.9385V52.5715C81.4734 52.5715 80.1439 52.9258 78.9458 53.6489L80.6854 56.5317ZM82.8943 55.9385C83.6516 55.9385 84.2245 56.0899 84.6679 56.3308L86.2757 53.3725C85.2553 52.8179 84.1098 52.5715 82.8943 52.5715V55.9385ZM84.6812 56.338C85.2352 56.6327 85.6283 56.9765 85.9064 57.3538L88.617 55.3565C88.0041 54.5246 87.2039 53.8661 86.2624 53.3653L84.6812 56.338ZM88.9452 56.3552V54.4698H85.5782V56.3552H88.9452ZM87.2617 56.1533H90.6268V52.7863H87.2617V56.1533ZM88.9432 54.4698V67.6914H92.3103V54.4698H88.9432ZM90.6268 66.0079H87.2617V69.3749H90.6268V66.0079ZM88.9452 67.6914V65.7583H85.5782V67.6914H88.9452ZM85.8775 64.8C85.6196 65.1725 85.2364 65.5224 84.6699 65.8292L86.2736 68.7899C87.2345 68.2694 88.0446 67.585 88.6459 66.7166L85.8775 64.8ZM84.6812 65.8232C84.214 66.0717 83.6267 66.2227 82.8704 66.2227V69.5897C84.087 69.5897 85.2339 69.343 86.2624 68.7959L84.6812 65.8232ZM82.8704 66.2227C82.062 66.2227 81.3526 66.0196 80.7034 65.6166L78.9278 68.4774C80.1242 69.22 81.4513 69.5897 82.8704 69.5897V66.2227ZM80.7146 65.6236C80.0803 65.223 79.5515 64.6515 79.1356 63.8563L76.152 65.4169C76.818 66.6901 77.7371 67.7255 78.9166 68.4704L80.7146 65.6236ZM79.1496 63.8837C78.758 63.1005 78.5398 62.1637 78.5398 61.0329H75.1727C75.1727 62.6068 75.4795 64.0725 76.138 65.3895L79.1496 63.8837ZM88.9452 61.0806C88.9452 60.0504 88.7426 59.0625 88.256 58.1867L85.3127 59.8219C85.4626 60.0916 85.5782 60.4879 85.5782 61.0806H88.9452ZM88.2654 58.2037C87.8079 57.3573 87.1591 56.6688 86.3169 56.1982L84.6744 59.1374C84.914 59.2713 85.1245 59.4739 85.3034 59.8048L88.2654 58.2037ZM86.3492 56.2167C85.5527 55.7481 84.6777 55.507 83.7534 55.507V58.874C84.0702 58.874 84.3567 58.951 84.642 59.1189L86.3492 56.2167ZM83.7534 55.507C82.8456 55.507 81.982 55.7319 81.1951 56.185L82.8751 59.1029C83.1383 58.9514 83.4203 58.874 83.7534 58.874V55.507ZM81.1951 56.185C80.3801 56.6542 79.7468 57.3309 79.2822 58.1494L82.2105 59.8114C82.4141 59.4526 82.64 59.2383 82.8751 59.1029L81.1951 56.185ZM79.2747 58.1628C78.7907 59.034 78.5855 60.0121 78.5855 61.0329H81.9526C81.9526 60.4626 82.0656 60.0724 82.218 59.798L79.2747 58.1628ZM78.5855 61.0329C78.5855 62.0566 78.7917 63.0338 79.2566 63.9171L82.2361 62.349C82.0646 62.0231 81.9526 61.6002 81.9526 61.0329H78.5855ZM79.2822 63.964C79.7434 64.7766 80.3669 65.451 81.1625 65.9331L82.9077 63.0537C82.6532 62.8994 82.4175 62.6669 82.2105 62.3021L79.2822 63.964ZM81.1815 65.9445C81.9709 66.4088 82.837 66.6542 83.7534 66.6542V63.2872C83.4607 63.2872 83.1812 63.2144 82.8887 63.0423L81.1815 65.9445ZM83.7534 66.6542C84.6611 66.6542 85.5246 66.4296 86.3169 65.9869L84.6744 63.0476C84.3848 63.2095 84.0868 63.2872 83.7534 63.2872V66.6542ZM86.3492 65.9684C87.1606 65.491 87.7987 64.8216 88.256 63.9984L85.3127 62.3632C85.1336 62.6855 84.9125 62.9071 84.642 63.0662L86.3492 65.9684ZM88.2654 63.9813C88.742 63.0996 88.9452 62.1126 88.9452 61.0806H85.5782C85.5782 61.6715 85.4632 62.0846 85.3034 62.3802L88.2654 63.9813ZM106.539 54.4698L108.091 55.1222L109.073 52.7863H106.539V54.4698ZM98.3529 73.9442V75.6278H99.4715L99.9049 74.5966L98.3529 73.9442ZM94.7969 73.9442L93.253 73.273L92.2292 75.6278H94.7969V73.9442ZM97.6608 67.3573L99.2047 68.0286L99.4886 67.3756L99.2179 66.7172L97.6608 67.3573ZM92.3626 54.4698V52.7863H89.8503L90.8055 55.1099L92.3626 54.4698ZM96.1095 54.4698L97.6887 53.8863L97.2822 52.7863H96.1095V54.4698ZM99.5223 63.7058L97.9432 64.2893L99.5114 68.5334L101.099 64.2965L99.5223 63.7058ZM102.983 54.4698V52.7863H101.816L101.406 53.8791L102.983 54.4698ZM104.987 53.8174L96.8009 73.2919L99.9049 74.5966L108.091 55.1222L104.987 53.8174ZM98.3529 72.2607H94.7969V75.6278H98.3529V72.2607ZM96.3408 74.6155L99.2047 68.0286L96.1169 66.686L93.253 73.273L96.3408 74.6155ZM99.2179 66.7172L93.9197 53.8297L90.8055 55.1099L96.1037 67.9974L99.2179 66.7172ZM92.3626 56.1533H96.1095V52.7863H92.3626V56.1533ZM94.5304 55.0533L97.9432 64.2893L101.102 63.1223L97.6887 53.8863L94.5304 55.0533ZM101.099 64.2965L104.559 55.0605L101.406 53.8791L97.9458 63.1152L101.099 64.2965ZM102.983 56.1533H106.539V52.7863H102.983V56.1533ZM119.485 55.7824L118.276 56.9535L118.285 56.9631L119.485 55.7824ZM120.941 67.6914V69.3749H122.625V67.6914H120.941ZM117.6 67.6914H115.916V69.3749H117.6V67.6914ZM116.812 57.9781L115.571 59.1157L115.579 59.1244L115.587 59.133L116.812 57.9781ZM112.469 57.9781L111.245 56.8221L111.244 56.8231L112.469 57.9781ZM111.681 67.6914V69.3749H113.365V67.6914H111.681ZM108.34 67.6914H106.656V69.3749H108.34V67.6914ZM108.34 54.4698V52.7863H106.656V54.4698H108.34ZM111.681 54.4698H113.365V52.7863H111.681V54.4698ZM111.681 56.1165H109.998V61.0232L113.01 57.1501L111.681 56.1165ZM113.376 54.78L114.086 56.3065L114.093 56.303L114.101 56.2994L113.376 54.78ZM115.667 55.9624C116.85 55.9624 117.665 56.3222 118.276 56.9535L120.695 54.6113C119.365 53.2379 117.633 52.5953 115.667 52.5953V55.9624ZM118.285 56.9631C118.864 57.5513 119.258 58.4623 119.258 59.935H122.625C122.625 57.8439 122.048 55.9864 120.685 54.6017L118.285 56.9631ZM119.258 59.935V67.6914H122.625V59.935H119.258ZM120.941 66.0079H117.6V69.3749H120.941V66.0079ZM119.283 67.6914V60.3885H115.916V67.6914H119.283ZM119.283 60.3885C119.283 59.0709 118.952 57.7931 118.037 56.8231L115.587 59.133C115.723 59.2768 115.916 59.6059 115.916 60.3885H119.283ZM118.053 56.8405C117.155 55.8609 115.957 55.4354 114.664 55.4354V58.8024C115.186 58.8024 115.419 58.9497 115.571 59.1157L118.053 56.8405ZM114.664 55.4354C113.365 55.4354 112.159 55.8546 111.245 56.8221L113.693 59.134C113.861 58.956 114.118 58.8024 114.664 58.8024V55.4354ZM111.244 56.8231C110.329 57.7931 109.998 59.0709 109.998 60.3885H113.365C113.365 59.6059 113.558 59.2768 113.694 59.133L111.244 56.8231ZM109.998 60.3885V67.6914H113.365V60.3885H109.998ZM111.681 66.0079H108.34V69.3749H111.681V66.0079ZM110.024 67.6914V54.4698H106.656V67.6914H110.024ZM108.34 56.1533H111.681V52.7863H108.34V56.1533ZM109.998 54.4698V56.1165H113.365V54.4698H109.998ZM113.01 57.1501C113.285 56.797 113.634 56.5166 114.086 56.3065L112.666 53.2536C111.749 53.6799 110.969 54.2905 110.352 55.0829L113.01 57.1501ZM114.101 56.2994C114.559 56.0805 115.073 55.9624 115.667 55.9624V52.5953C114.606 52.5953 113.592 52.8114 112.651 53.2607L114.101 56.2994ZM136.314 62.083V63.7665H137.74L137.974 62.3597L136.314 62.083ZM126.648 62.083V60.3994H124.819L124.97 62.2228L126.648 62.083ZM127.651 64.3263L126.511 65.566L127.651 64.3263ZM132.471 63.5388V61.8552H131.424L130.961 62.7949L132.471 63.5388ZM136.075 63.5388L137.688 64.0225L138.338 61.8552H136.075V63.5388ZM133.879 66.689L134.89 68.0359L134.896 68.0311L134.902 68.0264L133.879 66.689ZM126.457 67.0709L125.622 68.5326L125.636 68.5404L125.649 68.548L126.457 67.0709ZM124.095 64.6605L122.612 65.4586L122.617 65.4674L122.622 65.4761L124.095 64.6605ZM124.095 57.4769L122.612 56.6787L124.095 57.4769ZM126.433 55.0903L127.251 56.562L126.433 55.0903ZM133.259 55.0664L132.449 56.5426L132.459 56.548L133.259 55.0664ZM135.574 57.3814L134.092 58.181L134.1 58.1951L134.108 58.209L135.574 57.3814ZM132.949 59.8396V61.5231H134.664L134.632 59.8084L132.949 59.8396ZM132.018 57.7871L130.914 59.0582L130.924 59.0666L130.934 59.0749L132.018 57.7871ZM127.698 57.7633L128.814 59.0235L128.817 59.0215L127.698 57.7633ZM126.672 59.8396L125.005 59.6015L124.731 61.5231H126.672V59.8396ZM134.726 60.7942C134.726 61.1993 134.699 61.534 134.653 61.8062L137.974 62.3597C138.056 61.8682 138.093 61.3438 138.093 60.7942H134.726ZM136.314 60.3994H126.648V63.7665H136.314V60.3994ZM124.97 62.2228C125.078 63.5103 125.552 64.6842 126.511 65.566L128.79 63.0867C128.572 62.8865 128.378 62.5648 128.326 61.9431L124.97 62.2228ZM126.511 65.566C127.435 66.4148 128.576 66.8213 129.822 66.8213V63.4542C129.351 63.4542 129.043 63.3198 128.79 63.0867L126.511 65.566ZM129.822 66.8213C130.687 66.8213 131.532 66.6338 132.285 66.1793C133.043 65.7222 133.599 65.0596 133.982 64.2826L130.961 62.7949C130.819 63.0839 130.671 63.2208 130.545 63.2967C130.415 63.3753 130.199 63.4542 129.822 63.4542V66.8213ZM132.471 65.2223H136.075V61.8552H132.471V65.2223ZM134.463 63.055C134.185 63.9794 133.665 64.734 132.857 65.3517L134.902 68.0264C136.258 66.9894 137.201 65.6438 137.688 64.0225L134.463 63.055ZM132.869 65.3422C132.125 65.9005 131.167 66.2227 129.894 66.2227V69.5897C131.771 69.5897 133.47 69.1005 134.89 68.0359L132.869 65.3422ZM129.894 66.2227C128.875 66.2227 128.012 66.0024 127.265 65.5938L125.649 68.548C126.939 69.2531 128.367 69.5897 129.894 69.5897V66.2227ZM127.293 65.6092C126.564 65.1932 125.994 64.6161 125.567 63.8448L122.622 65.4761C123.34 66.7731 124.345 67.8031 125.622 68.5326L127.293 65.6092ZM125.577 63.8623C125.171 63.1083 124.943 62.1969 124.943 61.0806H121.576C121.576 62.6691 121.905 64.1442 122.612 65.4586L125.577 63.8623ZM124.943 61.0806C124.943 59.9448 125.172 59.0263 125.577 58.275L122.612 56.6787C121.903 57.9959 121.576 59.4798 121.576 61.0806H124.943ZM125.577 58.275C125.985 57.517 126.537 56.9585 127.251 56.562L125.616 53.6186C124.325 54.3358 123.318 55.3684 122.612 56.6787L125.577 58.275ZM127.251 56.562C127.97 56.1622 128.835 55.9385 129.894 55.9385V52.5715C128.343 52.5715 126.901 52.9046 125.616 53.6186L127.251 56.562ZM129.894 55.9385C130.902 55.9385 131.739 56.153 132.449 56.5426L134.068 53.5903C132.806 52.8979 131.4 52.5715 129.894 52.5715V55.9385ZM132.459 56.548C133.173 56.933 133.707 57.4676 134.092 58.181L137.055 56.5819C136.359 55.2905 135.35 54.2818 134.059 53.5849L132.459 56.548ZM134.108 58.209C134.504 58.9098 134.726 59.7549 134.726 60.7942H138.093C138.093 59.256 137.758 57.8259 137.04 56.5538L134.108 58.209ZM134.632 59.8084C134.608 58.5113 134.114 57.3509 133.102 56.4994L130.934 59.0749C131.132 59.2417 131.258 59.4495 131.265 59.8708L134.632 59.8084ZM133.122 56.516C132.182 55.6996 131.039 55.316 129.798 55.316V58.6831C130.308 58.6831 130.645 58.8246 130.914 59.0582L133.122 56.516ZM129.798 55.316C128.594 55.316 127.486 55.6991 126.58 56.505L128.817 59.0215C129.056 58.8091 129.348 58.6831 129.798 58.6831V55.316ZM126.582 56.503C125.667 57.3136 125.177 58.4018 125.005 59.6015L128.339 60.0777C128.422 59.4954 128.616 59.1994 128.814 59.0235L126.582 56.503ZM126.672 61.5231H132.949V58.1561H126.672V61.5231ZM153.986 59.1475L153.48 57.5416L153.677 60.8025L153.986 59.1475ZM156.301 60.5556L157.621 59.5106L156.301 60.5556ZM156.539 65.5435L155.128 64.6248L155.123 64.6331L156.539 65.5435ZM154.654 67.1186L155.359 68.6472V68.6472L154.654 67.1186ZM144.535 67.6914H142.851V69.3749H144.535V67.6914ZM144.535 51.0331V49.3496H142.851V51.0331H144.535ZM154.32 51.582L153.628 53.1168L153.639 53.1217L154.32 51.582ZM156.181 53.1094L154.76 54.011L154.767 54.0233L154.775 54.0354L156.181 53.1094ZM156.038 57.7633L154.727 56.7077L154.719 56.7175L154.711 56.7274L156.038 57.7633ZM147.876 57.9065H146.192V59.59H147.876V57.9065ZM152.768 57.3814L153.832 58.6865L153.846 58.6749L153.86 58.663L152.768 57.3814ZM152.768 54.2789L153.86 52.9973L152.768 54.2789ZM147.876 53.73V52.0464H146.192V53.73H147.876ZM153.126 64.3979L152.053 63.101L152.042 63.1102L152.031 63.1197L153.126 64.3979ZM153.103 61.1045L152 62.3767L152.012 62.3874L152.025 62.3978L153.103 61.1045ZM147.876 60.484V58.8004H146.192V60.484H147.876ZM147.876 64.9707H146.192V66.6542H147.876V64.9707ZM153.677 60.8025C154.207 60.9013 154.623 61.1486 154.981 61.6005L157.621 59.5106C156.769 58.4351 155.641 57.7436 154.294 57.4925L153.677 60.8025ZM154.981 61.6005C155.347 62.0627 155.524 62.5684 155.524 63.1808H158.891C158.891 61.8202 158.464 60.5758 157.621 59.5106L154.981 61.6005ZM155.524 63.1808C155.524 63.7766 155.38 64.2389 155.128 64.6248L157.95 66.4621C158.59 65.4798 158.891 64.3669 158.891 63.1808H155.524ZM155.123 64.6331C154.891 64.994 154.529 65.3222 153.948 65.5901L155.359 68.6472C156.434 68.1513 157.328 67.4295 157.955 66.4539L155.123 64.6331ZM153.948 65.5901C153.389 65.8484 152.661 66.0079 151.718 66.0079V69.3749C153.035 69.3749 154.264 69.1526 155.359 68.6472L153.948 65.5901ZM151.718 66.0079H144.535V69.3749H151.718V66.0079ZM146.218 67.6914V51.0331H142.851V67.6914H146.218ZM144.535 52.7167H151.408V49.3496H144.535V52.7167ZM151.408 52.7167C152.361 52.7167 153.084 52.8715 153.628 53.1167L155.012 50.0474C153.933 49.5607 152.714 49.3496 151.408 49.3496V52.7167ZM153.639 53.1217C154.215 53.3765 154.553 53.6855 154.76 54.011L157.603 52.2078C156.982 51.2287 156.079 50.5195 155.001 50.0424L153.639 53.1217ZM154.775 54.0354C155.013 54.3962 155.142 54.8102 155.142 55.329H158.509C158.509 54.193 158.209 53.1274 157.587 52.1835L154.775 54.0354ZM155.142 55.329C155.142 55.9795 154.974 56.4008 154.727 56.7077L157.35 58.8188C158.153 57.821 158.509 56.6195 158.509 55.329H155.142ZM154.711 56.7274C154.43 57.087 154.044 57.3641 153.48 57.5416L154.491 60.7533C155.645 60.3899 156.628 59.7442 157.365 58.7991L154.711 56.7274ZM147.876 59.59H150.931V56.2229H147.876V59.59ZM150.931 59.59C151.949 59.59 152.995 59.3684 153.832 58.6865L151.705 56.0763C151.683 56.0945 151.504 56.2229 150.931 56.2229V59.59ZM153.86 58.663C154.735 57.9174 155.096 56.8914 155.096 55.8301H151.729C151.729 55.9846 151.705 56.055 151.697 56.0733C151.693 56.0828 151.691 56.0859 151.69 56.0862C151.69 56.0866 151.687 56.0911 151.677 56.0998L153.86 58.663ZM155.096 55.8301C155.096 54.7689 154.735 53.7428 153.86 52.9973L151.677 55.5604C151.687 55.5692 151.69 55.5737 151.69 55.574C151.691 55.5744 151.693 55.5775 151.697 55.5869C151.705 55.6053 151.729 55.6756 151.729 55.8301H155.096ZM153.86 52.9973C153.022 52.2832 151.964 52.0464 150.931 52.0464V55.4135C151.488 55.4135 151.656 55.5426 151.677 55.5604L153.86 52.9973ZM150.931 52.0464H147.876V55.4135H150.931V52.0464ZM146.192 53.73V57.9065H149.56V53.73H146.192ZM151.241 66.6542C152.301 66.6542 153.372 66.4046 154.222 65.6762L152.031 63.1197C151.99 63.155 151.804 63.2872 151.241 63.2872V66.6542ZM154.2 65.6949C155.115 64.9376 155.502 63.8824 155.502 62.7751H152.135C152.135 62.9406 152.108 63.0195 152.097 63.0454C152.089 63.0641 152.081 63.078 152.053 63.101L154.2 65.6949ZM155.502 62.7751C155.502 61.6445 155.102 60.5795 154.18 59.8111L152.025 62.3978C152.057 62.425 152.135 62.4737 152.135 62.7751H155.502ZM154.205 59.8322C153.343 59.085 152.268 58.8004 151.169 58.8004V62.1675C151.694 62.1675 151.908 62.2966 152 62.3767L154.205 59.8322ZM151.169 58.8004H147.876V62.1675H151.169V58.8004ZM146.192 60.484V64.9707H149.56V60.484H146.192ZM147.876 66.6542H151.241V63.2872H147.876V66.6542ZM163.212 50.0308H164.895V48.3472H163.212V50.0308ZM163.212 67.6914V69.3749H164.895V67.6914H163.212ZM159.87 67.6914H158.187V69.3749H159.87V67.6914ZM159.87 50.0308V48.3472H158.187V50.0308H159.87ZM161.528 50.0308V67.6914H164.895V50.0308H161.528ZM163.212 66.0079H159.87V69.3749H163.212V66.0079ZM161.554 67.6914V50.0308H158.187V67.6914H161.554ZM159.87 51.7143H163.212V48.3472H159.87V51.7143ZM172.026 64.6127L170.427 65.1395L172.026 69.9936L173.625 65.1395L172.026 64.6127ZM175.367 54.4698V52.7863H174.149L173.768 53.9431L175.367 54.4698ZM178.923 54.4698L180.502 55.054L181.341 52.7863H178.923V54.4698ZM174.03 67.6914V69.3749H175.203L175.609 68.2757L174.03 67.6914ZM169.973 67.6914L168.393 68.2731L168.799 69.3749H169.973V67.6914ZM165.105 54.4698V52.7863H162.691L163.525 55.0515L165.105 54.4698ZM168.684 54.4698L170.283 53.9431L169.902 52.7863H168.684V54.4698ZM173.625 65.1395L176.966 54.9965L173.768 53.9431L170.427 64.086L173.625 65.1395ZM175.367 56.1533H178.923V52.7863H175.367V56.1533ZM177.344 53.8855L172.452 67.1072L175.609 68.2757L180.502 55.054L177.344 53.8855ZM174.03 66.0079H169.973V69.3749H174.03V66.0079ZM171.553 67.1097L166.684 53.8881L163.525 55.0515L168.393 68.2731L171.553 67.1097ZM165.105 56.1533H168.684V52.7863H165.105V56.1533ZM167.085 54.9965L170.427 65.1395L173.625 64.086L170.283 53.9431L167.085 54.9965ZM180.728 57.4769L179.236 56.6966L179.231 56.7056L179.227 56.7148L180.728 57.4769ZM182.924 55.0903L183.793 56.5317L182.924 55.0903ZM188.46 54.8278L187.72 56.3397L187.732 56.3458L187.745 56.3518L188.46 54.8278ZM190.322 56.3075L188.971 57.312L192.005 61.3929V56.3075H190.322ZM190.322 50.0308V48.3472H188.638V50.0308H190.322ZM193.711 50.0308H195.394V48.3472H193.711V50.0308ZM193.711 67.6914V69.3749H195.394V67.6914H193.711ZM190.322 67.6914H188.638V69.3749H190.322V67.6914ZM190.322 65.7344H192.005V59.936L188.9 64.8328L190.322 65.7344ZM188.58 67.3096L187.789 65.8232L188.58 67.3096ZM182.924 67.047L183.811 65.6166L182.924 67.047ZM180.728 64.6366L179.222 65.3895L179.229 65.4033L179.236 65.4169L180.728 64.6366ZM189.868 59.0043L188.387 59.8048L188.392 59.8134L188.397 59.8219L189.868 59.0043ZM188.58 57.6678L187.726 59.1189L187.742 59.1283L187.758 59.1374L188.58 57.6678ZM185.119 57.6439L184.279 56.185V56.185L185.119 57.6439ZM183.83 58.9804L182.366 58.1494L182.363 58.1561L182.359 58.1628L183.83 58.9804ZM183.83 63.1331L182.341 63.9171L182.353 63.9408L182.366 63.964L183.83 63.1331ZM185.119 64.4934L184.247 65.9331L184.256 65.9389L184.266 65.9445L185.119 64.4934ZM188.58 64.5173L189.401 65.9869L189.417 65.9778L189.433 65.9684L188.58 64.5173ZM189.868 63.1808L191.34 63.9984L191.345 63.9899L191.349 63.9813L189.868 63.1808ZM181.624 61.0329C181.624 59.9208 181.841 59.0034 182.229 58.239L179.227 56.7148C178.565 58.0187 178.257 59.472 178.257 61.0329H181.624ZM182.22 58.2572C182.63 57.4727 183.156 56.9162 183.793 56.5317L182.054 53.6489C180.845 54.3782 179.908 55.4127 179.236 56.6966L182.22 58.2572ZM183.793 56.5317C184.441 56.141 185.164 55.9385 186.002 55.9385V52.5715C184.581 52.5715 183.252 52.9258 182.054 53.6489L183.793 56.5317ZM186.002 55.9385C186.602 55.9385 187.168 56.0695 187.72 56.3397L189.201 53.3159C188.193 52.8223 187.121 52.5715 186.002 52.5715V55.9385ZM187.745 56.3518C188.302 56.6133 188.694 56.9389 188.971 57.312L191.673 55.3029C191.028 54.435 190.178 53.7741 189.176 53.3038L187.745 56.3518ZM192.005 56.3075V50.0308H188.638V56.3075H192.005ZM190.322 51.7143H193.711V48.3472H190.322V51.7143ZM192.027 50.0308V67.6914H195.394V50.0308H192.027ZM193.711 66.0079H190.322V69.3749H193.711V66.0079ZM192.005 67.6914V65.7344H188.638V67.6914H192.005ZM188.9 64.8328C188.657 65.2155 188.305 65.5488 187.789 65.8232L189.37 68.7959C190.35 68.2747 191.159 67.5579 191.744 66.636L188.9 64.8328ZM187.789 65.8232C187.322 66.0717 186.735 66.2227 185.978 66.2227V69.5897C187.195 69.5897 188.342 69.343 189.37 68.7959L187.789 65.8232ZM185.978 66.2227C185.17 66.2227 184.461 66.0196 183.811 65.6166L182.036 68.4774C183.232 69.22 184.559 69.5897 185.978 69.5897V66.2227ZM183.811 65.6166C183.163 65.2145 182.632 64.6443 182.22 63.8563L179.236 65.4169C179.906 66.6973 180.838 67.734 182.036 68.4774L183.811 65.6166ZM182.234 63.8837C181.842 63.1005 181.624 62.1637 181.624 61.0329H178.257C178.257 62.6068 178.564 64.0725 179.222 65.3895L182.234 63.8837ZM192.029 61.0806C192.029 60.0504 191.827 59.0625 191.34 58.1867L188.397 59.8219C188.547 60.0916 188.662 60.4879 188.662 61.0806H192.029ZM191.349 58.2037C190.892 57.3573 190.243 56.6688 189.401 56.1982L187.758 59.1374C187.998 59.2713 188.209 59.4739 188.387 59.8048L191.349 58.2037ZM189.433 56.2167C188.637 55.7481 187.762 55.507 186.838 55.507V58.874C187.154 58.874 187.441 58.951 187.726 59.1189L189.433 56.2167ZM186.838 55.507C185.93 55.507 185.066 55.7319 184.279 56.185L185.959 59.1029C186.222 58.9514 186.504 58.874 186.838 58.874V55.507ZM184.279 56.185C183.464 56.6542 182.831 57.3309 182.366 58.1494L185.295 59.8114C185.498 59.4526 185.724 59.2383 185.959 59.1029L184.279 56.185ZM182.359 58.1628C181.875 59.034 181.67 60.0121 181.67 61.0329H185.037C185.037 60.4626 185.15 60.0724 185.302 59.798L182.359 58.1628ZM181.67 61.0329C181.67 62.0566 181.876 63.0338 182.341 63.9171L185.32 62.349C185.149 62.0231 185.037 61.6002 185.037 61.0329H181.67ZM182.366 63.964C182.827 64.7766 183.451 65.451 184.247 65.9331L185.992 63.0537C185.737 62.8994 185.502 62.6669 185.295 62.3021L182.366 63.964ZM184.266 65.9445C185.055 66.4088 185.921 66.6542 186.838 66.6542V63.2872C186.545 63.2872 186.265 63.2144 185.973 63.0423L184.266 65.9445ZM186.838 66.6542C187.745 66.6542 188.609 66.4296 189.401 65.9869L187.758 63.0476C187.469 63.2095 187.171 63.2872 186.838 63.2872V66.6542ZM189.433 65.9684C190.245 65.491 190.883 64.8216 191.34 63.9984L188.397 62.3632C188.218 62.6855 187.997 62.9071 187.726 63.0662L189.433 65.9684ZM191.349 63.9813C191.826 63.0996 192.029 62.1126 192.029 61.0806H188.662C188.662 61.6715 188.547 62.0846 188.387 62.3802L191.349 63.9813Z" fill="#0D6EFD" fill-opacity="0.5"/>
<g opacity="0.75">
<path d="M37.3759 26.5295V35.9395H36.4213V28.4252L33.0664 35.9395H32.3709L29.0161 28.4524V35.9395H28.0615V26.5295H29.0706L32.7119 34.6848L36.3531 26.5295H37.3759ZM40.0188 27.0887C39.8279 27.0887 39.6643 27.0205 39.5279 26.8841C39.3915 26.7477 39.3233 26.5795 39.3233 26.3795C39.3233 26.1795 39.3915 26.0159 39.5279 25.8886C39.6643 25.7522 39.8279 25.684 40.0188 25.684C40.2098 25.684 40.3734 25.7522 40.5098 25.8886C40.6462 26.0159 40.7143 26.1795 40.7143 26.3795C40.7143 26.5795 40.6462 26.7477 40.5098 26.8841C40.3734 27.0205 40.2098 27.0887 40.0188 27.0887ZM40.4961 28.4933V35.9395H39.5415V28.4933H40.4961ZM42.2215 32.2028C42.2215 31.4391 42.3715 30.7708 42.6716 30.198C42.9807 29.6162 43.4034 29.1707 43.9398 28.8616C44.4853 28.5433 45.099 28.3842 45.7809 28.3842C46.4901 28.3842 47.0992 28.5479 47.6083 28.8752C48.1266 29.2025 48.4993 29.6207 48.7266 30.1299V28.4933H49.6813V35.9395H48.7266V34.2893C48.4902 34.7984 48.1129 35.2212 47.5947 35.5576C47.0856 35.8849 46.4764 36.0486 45.7673 36.0486C45.0945 36.0486 44.4853 35.8894 43.9398 35.5712C43.4034 35.253 42.9807 34.803 42.6716 34.2211C42.3715 33.6393 42.2215 32.9665 42.2215 32.2028ZM48.7266 32.2164C48.7266 31.6163 48.6039 31.089 48.3584 30.6344C48.1129 30.1799 47.7765 29.8298 47.3492 29.5843C46.931 29.3389 46.4673 29.2161 45.9582 29.2161C45.4309 29.2161 44.9581 29.3343 44.5399 29.5707C44.1217 29.8071 43.7898 30.1526 43.5444 30.6072C43.308 31.0527 43.1898 31.5845 43.1898 32.2028C43.1898 32.8119 43.308 33.3483 43.5444 33.812C43.7898 34.2666 44.1217 34.6166 44.5399 34.8621C44.9581 35.0985 45.4309 35.2167 45.9582 35.2167C46.4673 35.2167 46.931 35.0939 47.3492 34.8484C47.7765 34.603 48.1129 34.2529 48.3584 33.7984C48.6039 33.3438 48.7266 32.8165 48.7266 32.2164ZM60.725 28.357C61.5978 28.357 62.307 28.6343 62.8525 29.1889C63.4071 29.7344 63.6844 30.5299 63.6844 31.5754V35.9395H62.7434V31.6845C62.7434 30.8754 62.5479 30.2571 62.157 29.8298C61.766 29.4025 61.2342 29.1889 60.5614 29.1889C59.8613 29.1889 59.3022 29.4207 58.8839 29.8844C58.4657 30.3481 58.2566 31.0208 58.2566 31.9027V35.9395H57.3156V31.6845C57.3156 30.8754 57.1202 30.2571 56.7292 29.8298C56.3383 29.4025 55.8019 29.1889 55.12 29.1889C54.4199 29.1889 53.8608 29.4207 53.4426 29.8844C53.0243 30.3481 52.8152 31.0208 52.8152 31.9027V35.9395H51.8606V28.4933H52.8152V29.7753C53.0516 29.3116 53.388 28.9616 53.8244 28.7252C54.2608 28.4797 54.7472 28.357 55.2836 28.357C55.9291 28.357 56.4928 28.5115 56.9747 28.8206C57.4656 29.1298 57.8202 29.5843 58.0384 30.1844C58.2384 29.5934 58.5794 29.1434 59.0612 28.8343C59.5522 28.5161 60.1068 28.357 60.725 28.357ZM66.2818 27.0887C66.0909 27.0887 65.9272 27.0205 65.7908 26.8841C65.6545 26.7477 65.5863 26.5795 65.5863 26.3795C65.5863 26.1795 65.6545 26.0159 65.7908 25.8886C65.9272 25.7522 66.0909 25.684 66.2818 25.684C66.4727 25.684 66.6364 25.7522 66.7727 25.8886C66.9091 26.0159 66.9773 26.1795 66.9773 26.3795C66.9773 26.5795 66.9091 26.7477 66.7727 26.8841C66.6364 27.0205 66.4727 27.0887 66.2818 27.0887ZM66.7591 28.4933V35.9395H65.8045V28.4933H66.7591ZM69.7937 34.3575L68.3754 37.9305H67.7208L68.7299 34.3575H69.7937ZM80.1755 26.4068V27.1978H75.9751V30.7572H79.5209V31.5482H75.9751V35.9395H75.0205V26.4068H80.1755ZM82.7007 35.1621H86.1237V35.9395H81.746V26.4068H82.7007V35.1621Z" fill="#CCD2D7"/>
<path d="M37.3759 26.5295H38.3452V25.5602H37.3759V26.5295ZM37.3759 35.9395V36.9088H38.3452V35.9395H37.3759ZM36.4213 35.9395H35.452V36.9088H36.4213V35.9395ZM36.4213 28.4252H37.3906L35.5362 28.03L36.4213 28.4252ZM33.0664 35.9395V36.9088H33.6952L33.9515 36.3346L33.0664 35.9395ZM32.3709 35.9395L31.4864 36.3358L31.7431 36.9088H32.3709V35.9395ZM29.0161 28.4524L29.9007 28.0561L28.0468 28.4524H29.0161ZM29.0161 35.9395V36.9088H29.9854V35.9395H29.0161ZM28.0615 35.9395H27.0922V36.9088H28.0615V35.9395ZM28.0615 26.5295V25.5602H27.0922V26.5295H28.0615ZM29.0706 26.5295L29.9557 26.1344L29.6994 25.5602H29.0706V26.5295ZM32.7119 34.6848L31.8268 35.08L32.7119 37.0623L33.597 35.08L32.7119 34.6848ZM36.3531 26.5295V25.5602H35.7244L35.468 26.1344L36.3531 26.5295ZM36.4066 26.5295V35.9395H38.3452V26.5295H36.4066ZM37.3759 34.9702H36.4213V36.9088H37.3759V34.9702ZM37.3906 35.9395V28.4252H35.452V35.9395H37.3906ZM35.5362 28.03L32.1814 35.5443L33.9515 36.3346L37.3064 28.8203L35.5362 28.03ZM33.0664 34.9702H32.3709V36.9088H33.0664V34.9702ZM33.2555 35.5431L29.9007 28.0561L28.1315 28.8488L31.4864 36.3358L33.2555 35.5431ZM28.0468 28.4524V35.9395H29.9854V28.4524H28.0468ZM29.0161 34.9702H28.0615V36.9088H29.0161V34.9702ZM29.0308 35.9395V26.5295H27.0922V35.9395H29.0308ZM28.0615 27.4988H29.0706V25.5602H28.0615V27.4988ZM28.1856 26.9247L31.8268 35.08L33.597 34.2896L29.9557 26.1344L28.1856 26.9247ZM33.597 35.08L37.2382 26.9247L35.468 26.1344L31.8268 34.2896L33.597 35.08ZM36.3531 27.4988H37.3759V25.5602H36.3531V27.4988ZM39.5279 26.8841L38.8425 27.5695L39.5279 26.8841ZM39.5279 25.8886L40.1893 26.5972L40.2015 26.5858L40.2133 26.574L39.5279 25.8886ZM40.5098 25.8886L39.8244 26.574L39.8362 26.5858L39.8484 26.5972L40.5098 25.8886ZM40.4961 28.4933H41.4654V27.524H40.4961V28.4933ZM40.4961 35.9395V36.9088H41.4654V35.9395H40.4961ZM39.5415 35.9395H38.5722V36.9088H39.5415V35.9395ZM39.5415 28.4933V27.524H38.5722V28.4933H39.5415ZM40.0188 26.1194C40.0414 26.1194 40.0806 26.124 40.1257 26.1428C40.1707 26.1615 40.1999 26.1853 40.2133 26.1987L38.8425 27.5695C39.1586 27.8856 39.5679 28.058 40.0188 28.058V26.1194ZM40.2133 26.1987C40.231 26.2164 40.2551 26.2479 40.2727 26.2915C40.2901 26.3344 40.2926 26.3675 40.2926 26.3795H38.354C38.354 26.826 38.5169 27.244 38.8425 27.5695L40.2133 26.1987ZM40.2926 26.3795C40.2926 26.3911 40.2902 26.4291 40.2692 26.4796C40.2475 26.5316 40.2165 26.5718 40.1893 26.5972L38.8665 25.18C38.5184 25.5049 38.354 25.9325 38.354 26.3795H40.2926ZM40.2133 26.574C40.1999 26.5874 40.1707 26.6112 40.1257 26.6299C40.0806 26.6487 40.0414 26.6533 40.0188 26.6533V24.7147C39.5679 24.7147 39.1586 24.8871 38.8425 25.2032L40.2133 26.574ZM40.0188 26.6533C39.9963 26.6533 39.9571 26.6487 39.912 26.6299C39.867 26.6112 39.8378 26.5874 39.8244 26.574L41.1952 25.2032C40.8791 24.8871 40.4698 24.7147 40.0188 24.7147V26.6533ZM39.8484 26.5972C39.8212 26.5718 39.7902 26.5316 39.7685 26.4796C39.7474 26.4291 39.745 26.3911 39.745 26.3795H41.6837C41.6837 25.9325 41.5193 25.5049 41.1712 25.18L39.8484 26.5972ZM39.745 26.3795C39.745 26.3675 39.7475 26.3344 39.7649 26.2915C39.7826 26.2479 39.8067 26.2164 39.8244 26.1987L41.1952 27.5695C41.5207 27.244 41.6837 26.826 41.6837 26.3795H39.745ZM39.8244 26.1987C39.8378 26.1853 39.867 26.1615 39.912 26.1428C39.9571 26.124 39.9963 26.1194 40.0188 26.1194V28.058C40.4698 28.058 40.8791 27.8856 41.1952 27.5695L39.8244 26.1987ZM39.5268 28.4933V35.9395H41.4654V28.4933H39.5268ZM40.4961 34.9702H39.5415V36.9088H40.4961V34.9702ZM40.5108 35.9395V28.4933H38.5722V35.9395H40.5108ZM39.5415 29.4626H40.4961V27.524H39.5415V29.4626ZM42.6716 30.198L41.8155 29.7433L41.8129 29.7483L42.6716 30.198ZM43.9398 28.8616L44.4238 29.7014L44.4282 29.6988L43.9398 28.8616ZM47.6083 28.8752L47.0842 29.6906L47.0907 29.6947L47.6083 28.8752ZM48.7266 30.1299L47.8415 30.525L49.6959 30.1299H48.7266ZM48.7266 28.4933V27.524H47.7573V28.4933H48.7266ZM49.6813 28.4933H50.6506V27.524H49.6813V28.4933ZM49.6813 35.9395V36.9088H50.6506V35.9395H49.6813ZM48.7266 35.9395H47.7573V36.9088H48.7266V35.9395ZM48.7266 34.2893H49.6959L47.8475 33.8811L48.7266 34.2893ZM47.5947 35.5576L48.1189 36.373L48.1225 36.3706L47.5947 35.5576ZM43.9398 35.5712L43.4453 36.4049L43.4514 36.4085L43.9398 35.5712ZM42.6716 34.2211L41.81 34.6654L41.8155 34.6759L42.6716 34.2211ZM48.3584 30.6344L49.2113 30.1739V30.1739L48.3584 30.6344ZM47.3492 29.5843L46.8586 30.4203L46.8664 30.4248L47.3492 29.5843ZM44.5399 29.5707L45.0168 30.4146L44.5399 29.5707ZM43.5444 30.6072L42.6914 30.1466L42.6881 30.1528L43.5444 30.6072ZM43.5444 33.812L42.6808 34.2522L42.686 34.2625L42.6915 34.2726L43.5444 33.812ZM44.5399 34.8621L44.0492 35.698L44.0561 35.702L44.0629 35.7059L44.5399 34.8621ZM47.3492 34.8484L46.8664 34.0079L46.8586 34.0125L47.3492 34.8484ZM48.3584 33.7984L49.2113 34.2589L48.3584 33.7984ZM43.1908 32.2028C43.1908 31.5674 43.3149 31.0587 43.5302 30.6478L41.8129 29.7483C41.4281 30.4829 41.2522 31.3107 41.2522 32.2028H43.1908ZM43.5276 30.6528C43.757 30.2209 44.0554 29.9137 44.4238 29.7014L43.4559 28.0217C42.7515 28.4276 42.2043 29.0115 41.8155 29.7433L43.5276 30.6528ZM44.4282 29.6988C44.8138 29.4739 45.2565 29.3535 45.7809 29.3535V27.4149C44.9416 27.4149 44.1569 27.6128 43.4514 28.0243L44.4282 29.6988ZM45.7809 29.3535C46.3367 29.3535 46.7567 29.48 47.0842 29.6906L48.1325 28.0598C47.4418 27.6158 46.6434 27.4149 45.7809 27.4149V29.3535ZM47.0907 29.6947C47.464 29.9305 47.6999 30.2077 47.8415 30.525L49.6117 29.7347C49.2988 29.0337 48.7891 28.4745 48.1259 28.0557L47.0907 29.6947ZM49.6959 30.1299V28.4933H47.7573V30.1299H49.6959ZM48.7266 29.4626H49.6813V27.524H48.7266V29.4626ZM48.712 28.4933V35.9395H50.6506V28.4933H48.712ZM49.6813 34.9702H48.7266V36.9088H49.6813V34.9702ZM49.6959 35.9395V34.2893H47.7573V35.9395H49.6959ZM47.8475 33.8811C47.6954 34.2085 47.4482 34.4971 47.067 34.7446L48.1225 36.3706C48.7776 35.9453 49.285 35.3883 49.6058 34.6975L47.8475 33.8811ZM47.0706 34.7422C46.743 34.9528 46.3231 35.0793 45.7673 35.0793V37.0179C46.6298 37.0179 47.4281 36.817 48.1189 36.373L47.0706 34.7422ZM45.7673 35.0793C45.2545 35.0793 44.8158 34.96 44.4282 34.734L43.4514 36.4085C44.1549 36.8189 44.9345 37.0179 45.7673 37.0179V35.0793ZM44.4344 34.7376C44.0597 34.5153 43.7581 34.2004 43.5276 33.7664L41.8155 34.6759C42.2032 35.4056 42.7472 35.9907 43.4453 36.4049L44.4344 34.7376ZM43.5331 33.7769C43.3148 33.3536 43.1908 32.8377 43.1908 32.2028H41.2522C41.2522 33.0953 41.4282 33.9249 41.81 34.6653L43.5331 33.7769ZM49.6959 32.2164C49.6959 31.4817 49.5447 30.7913 49.2113 30.1739L47.5055 31.095C47.6631 31.3868 47.7573 31.751 47.7573 32.2164H49.6959ZM49.2113 30.1739C48.8845 29.5687 48.4234 29.0836 47.8321 28.7439L46.8664 30.4248C47.1297 30.5761 47.3413 30.791 47.5055 31.095L49.2113 30.1739ZM47.8399 28.7484C47.2654 28.4112 46.6309 28.2468 45.9582 28.2468V30.1854C46.3038 30.1854 46.5967 30.2666 46.8586 30.4203L47.8399 28.7484ZM45.9582 28.2468C45.2805 28.2468 44.6406 28.4004 44.0629 28.7269L45.0168 30.4146C45.2756 30.2683 45.5813 30.1854 45.9582 30.1854V28.2468ZM44.0629 28.7269C43.4738 29.0599 43.0169 29.544 42.6915 30.1466L44.3972 31.0677C44.5628 30.7611 44.7696 30.5543 45.0168 30.4146L44.0629 28.7269ZM42.6881 30.1528C42.3625 30.7665 42.2205 31.4614 42.2205 32.2028H44.1591C44.1591 31.7076 44.2534 31.3389 44.4006 31.0615L42.6881 30.1528ZM42.2205 32.2028C42.2205 32.9389 42.364 33.6308 42.6808 34.2522L44.4079 33.3717C44.252 33.0659 44.1591 32.6849 44.1591 32.2028H42.2205ZM42.6915 34.2726C43.0154 34.8724 43.4682 35.357 44.0492 35.698L45.0306 34.0261C44.7752 33.8763 44.5643 33.6607 44.3972 33.3514L42.6915 34.2726ZM44.0629 35.7059C44.6406 36.0324 45.2805 36.186 45.9582 36.186V34.2474C45.5813 34.2474 45.2756 34.1645 45.0168 34.0182L44.0629 35.7059ZM45.9582 36.186C46.6309 36.186 47.2654 36.0216 47.8399 35.6844L46.8586 34.0125C46.5967 34.1662 46.3038 34.2474 45.9582 34.2474V36.186ZM47.8321 35.6889C48.4234 35.3492 48.8845 34.8641 49.2113 34.2589L47.5055 33.3378C47.3413 33.6418 47.1297 33.8567 46.8664 34.008L47.8321 35.6889ZM49.2113 34.2589C49.5447 33.6415 49.6959 32.9511 49.6959 32.2164H47.7573C47.7573 32.6818 47.6631 33.046 47.5055 33.3378L49.2113 34.2589ZM62.8525 29.1889L62.1614 29.8686L62.1671 29.8743L62.1728 29.8799L62.8525 29.1889ZM63.6844 35.9395V36.9088H64.6537V35.9395H63.6844ZM62.7434 35.9395H61.7741V36.9088H62.7434V35.9395ZM62.157 29.8298L61.4418 30.4841L62.157 29.8298ZM58.8839 29.8844L58.1642 29.2352L58.1642 29.2352L58.8839 29.8844ZM58.2566 35.9395V36.9088H59.2259V35.9395H58.2566ZM57.3156 35.9395H56.3463V36.9088H57.3156V35.9395ZM56.7292 29.8298L56.0141 30.4841V30.4841L56.7292 29.8298ZM53.4426 29.8844L52.7228 29.2352V29.2352L53.4426 29.8844ZM52.8152 35.9395V36.9088H53.7845V35.9395H52.8152ZM51.8606 35.9395H50.8913V36.9088H51.8606V35.9395ZM51.8606 28.4933V27.524H50.8913V28.4933H51.8606ZM52.8152 28.4933H53.7845V27.524H52.8152V28.4933ZM52.8152 29.7753H51.8459L53.6788 30.2155L52.8152 29.7753ZM53.8244 28.7252L54.2861 29.5775L54.2929 29.5738L54.2996 29.57L53.8244 28.7252ZM56.9747 28.8206L56.4513 29.6365L56.4582 29.6409L56.9747 28.8206ZM58.0384 30.1844L57.1275 30.5157L58.0712 33.1109L58.9566 30.4952L58.0384 30.1844ZM59.0612 28.8343L59.5846 29.6501L59.5884 29.6477L59.0612 28.8343ZM60.725 29.3263C61.3727 29.3263 61.8211 29.5226 62.1614 29.8686L63.5435 28.5091C62.7928 27.7459 61.823 27.3877 60.725 27.3877V29.3263ZM62.1728 29.8799C62.4853 30.1873 62.7151 30.6974 62.7151 31.5754H64.6537C64.6537 30.3624 64.3289 29.2814 63.5322 28.4978L62.1728 29.8799ZM62.7151 31.5754V35.9395H64.6537V31.5754H62.7151ZM63.6844 34.9702H62.7434V36.9088H63.6844V34.9702ZM63.7127 35.9395V31.6845H61.7741V35.9395H63.7127ZM63.7127 31.6845C63.7127 30.7296 63.4817 29.8418 62.8721 29.1755L61.4418 30.4841C61.6141 30.6725 61.7741 31.0212 61.7741 31.6845H63.7127ZM62.8721 29.1755C62.2673 28.5145 61.458 28.2196 60.5614 28.2196V30.1582C61.0104 30.1582 61.2647 30.2905 61.4418 30.4841L62.8721 29.1755ZM60.5614 28.2196C59.6238 28.2196 58.7896 28.5418 58.1642 29.2352L59.6037 30.5336C59.8148 30.2996 60.0988 30.1582 60.5614 30.1582V28.2196ZM58.1642 29.2352C57.5297 29.9386 57.2873 30.8795 57.2873 31.9027H59.2259C59.2259 31.1621 59.4017 30.7575 59.6037 30.5336L58.1642 29.2352ZM57.2873 31.9027V35.9395H59.2259V31.9027H57.2873ZM58.2566 34.9702H57.3156V36.9088H58.2566V34.9702ZM58.2849 35.9395V31.6845H56.3463V35.9395H58.2849ZM58.2849 31.6845C58.2849 30.7296 58.0539 29.8418 57.4444 29.1755L56.0141 30.4841C56.1864 30.6725 56.3463 31.0212 56.3463 31.6845H58.2849ZM57.4444 29.1755C56.837 28.5117 56.0212 28.2196 55.12 28.2196V30.1582C55.5825 30.1582 55.8395 30.2933 56.0141 30.4841L57.4444 29.1755ZM55.12 28.2196C54.1824 28.2196 53.3482 28.5418 52.7228 29.2352L54.1623 30.5336C54.3734 30.2996 54.6574 30.1582 55.12 30.1582V28.2196ZM52.7228 29.2352C52.0883 29.9386 51.8459 30.8795 51.8459 31.9027H53.7845C53.7845 31.1621 53.9603 30.7575 54.1623 30.5336L52.7228 29.2352ZM51.8459 31.9027V35.9395H53.7845V31.9027H51.8459ZM52.8152 34.9702H51.8606V36.9088H52.8152V34.9702ZM52.8299 35.9395V28.4933H50.8913V35.9395H52.8299ZM51.8606 29.4626H52.8152V27.524H51.8606V29.4626ZM51.8459 28.4933V29.7753H53.7845V28.4933H51.8459ZM53.6788 30.2155C53.8306 29.9177 54.031 29.7157 54.2861 29.5775L53.3627 27.8729C52.7451 28.2075 52.2726 28.7055 51.9517 29.335L53.6788 30.2155ZM54.2996 29.57C54.5806 29.4119 54.9014 29.3263 55.2836 29.3263V27.3877C54.593 27.3877 53.941 27.5475 53.3492 27.8804L54.2996 29.57ZM55.2836 29.3263C55.768 29.3263 56.1449 29.44 56.4513 29.6365L57.4981 28.0048C56.8407 27.5831 56.0903 27.3877 55.2836 27.3877V29.3263ZM56.4582 29.6409C56.7485 29.8237 56.975 30.0963 57.1275 30.5157L58.9494 29.8531C58.6654 29.0724 58.1827 28.4358 57.4911 28.0004L56.4582 29.6409ZM58.9566 30.4952C59.0928 30.0925 59.3048 29.8296 59.5846 29.6501L58.5379 28.0184C57.854 28.4572 57.384 29.0944 57.1203 29.8736L58.9566 30.4952ZM59.5884 29.6477C59.9133 29.4371 60.2827 29.3263 60.725 29.3263V27.3877C59.9308 27.3877 59.1911 27.595 58.534 28.0209L59.5884 29.6477ZM65.7908 26.8841L65.1054 27.5695L65.7908 26.8841ZM65.7908 25.8886L66.4522 26.5972L66.4644 26.5858L66.4762 26.574L65.7908 25.8886ZM66.7727 25.8886L66.0873 26.574L66.0992 26.5858L66.1114 26.5972L66.7727 25.8886ZM66.7591 28.4933H67.7284V27.524H66.7591V28.4933ZM66.7591 35.9395V36.9088H67.7284V35.9395H66.7591ZM65.8045 35.9395H64.8352V36.9088H65.8045V35.9395ZM65.8045 28.4933V27.524H64.8352V28.4933H65.8045ZM66.2818 26.1194C66.3044 26.1194 66.3435 26.124 66.3887 26.1428C66.4336 26.1615 66.4628 26.1853 66.4762 26.1987L65.1054 27.5695C65.4215 27.8856 65.8309 28.058 66.2818 28.058V26.1194ZM66.4762 26.1987C66.494 26.2164 66.518 26.2479 66.5357 26.2915C66.5531 26.3344 66.5556 26.3675 66.5556 26.3795H64.617C64.617 26.826 64.7799 27.244 65.1054 27.5695L66.4762 26.1987ZM66.5556 26.3795C66.5556 26.3911 66.5532 26.4291 66.5322 26.4796C66.5105 26.5316 66.4794 26.5718 66.4522 26.5972L65.1295 25.18C64.7813 25.5049 64.617 25.9325 64.617 26.3795H66.5556ZM66.4762 26.574C66.4628 26.5874 66.4336 26.6112 66.3887 26.6299C66.3435 26.6487 66.3044 26.6533 66.2818 26.6533V24.7147C65.8309 24.7147 65.4215 24.8871 65.1054 25.2032L66.4762 26.574ZM66.2818 26.6533C66.2592 26.6533 66.2201 26.6487 66.1749 26.6299C66.13 26.6112 66.1008 26.5874 66.0873 26.574L67.4581 25.2032C67.1421 24.8871 66.7327 24.7147 66.2818 24.7147V26.6533ZM66.1114 26.5972C66.0841 26.5718 66.0531 26.5316 66.0314 26.4796C66.0104 26.4291 66.008 26.3911 66.008 26.3795H67.9466C67.9466 25.9325 67.7822 25.5049 67.4341 25.18L66.1114 26.5972ZM66.008 26.3795C66.008 26.3675 66.0105 26.3344 66.0279 26.2915C66.0455 26.2479 66.0696 26.2164 66.0873 26.1987L67.4581 27.5695C67.7837 27.244 67.9466 26.826 67.9466 26.3795H66.008ZM66.0873 26.1987C66.1008 26.1853 66.13 26.1615 66.1749 26.1428C66.2201 26.124 66.2592 26.1194 66.2818 26.1194V28.058C66.7327 28.058 67.1421 27.8856 67.4581 27.5695L66.0873 26.1987ZM65.7898 28.4933V35.9395H67.7284V28.4933H65.7898ZM66.7591 34.9702H65.8045V36.9088H66.7591V34.9702ZM66.7738 35.9395V28.4933H64.8352V35.9395H66.7738ZM65.8045 29.4626H66.7591V27.524H65.8045V29.4626ZM69.7937 34.3575L70.6946 34.7151L71.2213 33.3882H69.7937V34.3575ZM68.3754 37.9305V38.8998H69.0335L69.2763 38.2882L68.3754 37.9305ZM67.7208 37.9305L66.788 37.6671L66.4398 38.8998H67.7208V37.9305ZM68.7299 34.3575V33.3882H67.9965L67.7971 34.094L68.7299 34.3575ZM68.8928 33.9999L67.4744 37.5729L69.2763 38.2882L70.6946 34.7151L68.8928 33.9999ZM68.3754 36.9612H67.7208V38.8998H68.3754V36.9612ZM68.6536 38.194L69.6628 34.621L67.7971 34.094L66.788 37.6671L68.6536 38.194ZM68.7299 35.3268H69.7937V33.3882H68.7299V35.3268ZM80.1755 26.4068H81.1448V25.4375H80.1755V26.4068ZM80.1755 27.1978V28.1671H81.1448V27.1978H80.1755ZM75.9751 27.1978V26.2285H75.0058V27.1978H75.9751ZM75.9751 30.7572H75.0058V31.7265H75.9751V30.7572ZM79.5209 30.7572H80.4902V29.7879H79.5209V30.7572ZM79.5209 31.5482V32.5175H80.4902V31.5482H79.5209ZM75.9751 31.5482V30.5789H75.0058V31.5482H75.9751ZM75.9751 35.9395V36.9088H76.9444V35.9395H75.9751ZM75.0205 35.9395H74.0512V36.9088H75.0205V35.9395ZM75.0205 26.4068V25.4375H74.0512V26.4068H75.0205ZM79.2062 26.4068V27.1978H81.1448V26.4068H79.2062ZM80.1755 26.2285H75.9751V28.1671H80.1755V26.2285ZM75.0058 27.1978V30.7572H76.9444V27.1978H75.0058ZM75.9751 31.7265H79.5209V29.7879H75.9751V31.7265ZM78.5516 30.7572V31.5482H80.4902V30.7572H78.5516ZM79.5209 30.5789H75.9751V32.5175H79.5209V30.5789ZM75.0058 31.5482V35.9395H76.9444V31.5482H75.0058ZM75.9751 34.9702H75.0205V36.9088H75.9751V34.9702ZM75.9898 35.9395V26.4068H74.0512V35.9395H75.9898ZM75.0205 27.3761H80.1755V25.4375H75.0205V27.3761ZM82.7007 35.1621H81.7314V36.1314H82.7007V35.1621ZM86.1237 35.1621H87.093V34.1928H86.1237V35.1621ZM86.1237 35.9395V36.9088H87.093V35.9395H86.1237ZM81.746 35.9395H80.7767V36.9088H81.746V35.9395ZM81.746 26.4068V25.4375H80.7767V26.4068H81.746ZM82.7007 26.4068H83.67V25.4375H82.7007V26.4068ZM82.7007 36.1314H86.1237V34.1928H82.7007V36.1314ZM85.1544 35.1621V35.9395H87.093V35.1621H85.1544ZM86.1237 34.9702H81.746V36.9088H86.1237V34.9702ZM82.7153 35.9395V26.4068H80.7767V35.9395H82.7153ZM81.746 27.3761H82.7007V25.4375H81.746V27.3761ZM81.7314 26.4068V35.1621H83.67V26.4068H81.7314Z" fill="#0D6EFD" fill-opacity="0.5"/>
</g>
<defs>
<filter id="filter0_b_6467_10548" x="-29.5311" y="-29.5177" width="312.606" height="222.35" filterUnits="userSpaceOnUse" color-interpolation-filters="sRGB">
<feFlood flood-opacity="0" result="BackgroundImageFix"/>
<feGaussianBlur in="BackgroundImageFix" stdDeviation="14.9161"/>
<feComposite in2="SourceAlpha" operator="in" result="effect1_backgroundBlur_6467_10548"/>
<feBlend mode="normal" in="SourceGraphic" in2="effect1_backgroundBlur_6467_10548" result="shape"/>
</filter>
</defs>
</svg>
